<?xml version="1.0" encoding="UTF-8" standalone="no"?>
<svg
   id="b"
   width="20"
   height="20"
   viewBox="0 0 20 20"
   version="1.1"
   sodipodi:docname="effects-color.svg"
   inkscape:version="1.3.1 (91b66b0, 2023-11-16)"
   xml:space="preserve"
   xmlns:inkscape="http://www.inkscape.org/namespaces/inkscape"
   xmlns:sodipodi="http://sodipodi.sourceforge.net/DTD/sodipodi-0.dtd"
   xmlns="http://www.w3.org/2000/svg"
   xmlns:svg="http://www.w3.org/2000/svg"><sodipodi:namedview
     id="namedview3"
     pagecolor="#ffffff"
     bordercolor="#000000"
     borderopacity="0.25"
     inkscape:showpageshadow="2"
     inkscape:pageopacity="0.0"
     inkscape:pagecheckerboard="0"
     inkscape:deskcolor="#d1d1d1"
     inkscape:zoom="14.75"
     inkscape:cx="7.7288136"
     inkscape:cy="11.525424"
     inkscape:window-width="1328"
     inkscape:window-height="605"
     inkscape:window-x="69"
     inkscape:window-y="267"
     inkscape:window-maximized="0"
     inkscape:current-layer="d" /><defs
     id="defs1"><style
       id="style1">.e{stroke:#000;stroke-linecap:round;stroke-linejoin:round;}.e,.f{fill:none;}.f{opacity:.2;stroke-width:0px;}</style><clipPath
       clipPathUnits="userSpaceOnUse"
       id="clipPath13578"><path
         d="M 0,1205.777 H 2738.234 V 0 H 0 Z"
         transform="translate(-1750.1958,-473.16941)"
         id="path13578" /></clipPath><clipPath
       clipPathUnits="userSpaceOnUse"
       id="clipPath13580"><path
         d="M 0,1205.777 H 2738.234 V 0 H 0 Z"
         transform="translate(-1755.2523,-482.35451)"
         id="path13580" /></clipPath><clipPath
       clipPathUnits="userSpaceOnUse"
       id="clipPath13582"><path
         d="M 0,1205.777 H 2738.234 V 0 H 0 Z"
         transform="translate(-1753.044,-479.21061)"
         id="path13582" /></clipPath><clipPath
       clipPathUnits="userSpaceOnUse"
       id="clipPath13694"><path
         d="M 0,1205.777 H 2738.234 V 0 H 0 Z"
         transform="translate(-1694.7306,-422.60451)"
         id="path13694" /></clipPath><clipPath
       clipPathUnits="userSpaceOnUse"
       id="clipPath13696"><path
         d="M 0,1205.777 H 2738.234 V 0 H 0 Z"
         transform="translate(-1692.729,-424.80839)"
         id="path13696" /></clipPath><clipPath
       clipPathUnits="userSpaceOnUse"
       id="clipPath13698"><path
         d="M 0,1205.777 H 2738.234 V 0 H 0 Z"
         transform="translate(-1694.7306,-436.10451)"
         id="path13698" /></clipPath><clipPath
       clipPathUnits="userSpaceOnUse"
       id="clipPath13700"><path
         d="M 0,1205.777 H 2738.234 V 0 H 0 Z"
         transform="translate(-1692.729,-433.90049)"
         id="path13700" /></clipPath><clipPath
       clipPathUnits="userSpaceOnUse"
       id="clipPath13702"><path
         d="M 0,1205.777 H 2738.234 V 0 H 0 Z"
         transform="translate(-1695.2346,-430.59944)"
         id="path13702" /></clipPath><clipPath
       clipPathUnits="userSpaceOnUse"
       id="clipPath13704"><path
         d="M 0,1205.777 H 2738.234 V 0 H 0 Z"
         transform="translate(-1686.2346,-427.04999)"
         id="path13704" /></clipPath><clipPath
       clipPathUnits="userSpaceOnUse"
       id="clipPath13706"><path
         d="M 0,1205.777 H 2738.234 V 0 H 0 Z"
         transform="translate(-1686.2346,-428.59529)"
         id="path13706" /></clipPath><clipPath
       clipPathUnits="userSpaceOnUse"
       id="clipPath13714"><path
         d="M 0,1205.777 H 2738.234 V 0 H 0 Z"
         transform="translate(-1641.2346,-434.35454)"
         id="path13714" /></clipPath><clipPath
       clipPathUnits="userSpaceOnUse"
       id="clipPath13710"><path
         d="M 0,1205.777 H 2738.234 V 0 H 0 Z"
         transform="translate(-1661.3688,-434.35454)"
         id="path13710" /></clipPath><clipPath
       clipPathUnits="userSpaceOnUse"
       id="clipPath1370"><path
         d="M 0,1205.777 H 2738.234 V 0 H 0 Z"
         transform="translate(-2652.6085,-953.81653)"
         id="path1370" /></clipPath><clipPath
       clipPathUnits="userSpaceOnUse"
       id="clipPath1372"><path
         d="M 0,1205.777 H 2738.234 V 0 H 0 Z"
         transform="translate(-2643.2344,-953.60452)"
         id="path1372" /></clipPath><clipPath
       clipPathUnits="userSpaceOnUse"
       id="clipPath4379"><path
         d="M 0,1205.777 H 2738.234 V 0 H 0 Z"
         transform="translate(-1926.0876,-576.35451)"
         id="path4379" /></clipPath><clipPath
       clipPathUnits="userSpaceOnUse"
       id="clipPath4383"><path
         d="M 0,1205.777 H 2738.234 V 0 H 0 Z"
         transform="translate(-1928.0082,-573.77712)"
         id="path4383" /></clipPath><clipPath
       clipPathUnits="userSpaceOnUse"
       id="clipPath4385"><path
         d="M 0,1205.777 H 2738.234 V 0 H 0 Z"
         transform="translate(-1925.7345,-570.39171)"
         id="path4385" /></clipPath><clipPath
       clipPathUnits="userSpaceOnUse"
       id="clipPath14142"><path
         d="M 0,1205.777 H 2738.234 V 0 H 0 Z"
         transform="translate(-1983.2281,-349.33701)"
         id="path14142" /></clipPath><clipPath
       clipPathUnits="userSpaceOnUse"
       id="clipPath14138"><path
         d="M 0,1205.777 H 2738.234 V 0 H 0 Z"
         transform="translate(-1995.2346,-354.85453)"
         id="path14138" /></clipPath><clipPath
       clipPathUnits="userSpaceOnUse"
       id="clipPath14140"><path
         d="M 0,1205.777 H 2738.234 V 0 H 0 Z"
         transform="translate(-1995.2346,-354.85453)"
         id="path14140" /></clipPath><clipPath
       clipPathUnits="userSpaceOnUse"
       id="clipPath14130"><path
         d="M 0,1205.777 H 2738.234 V 0 H 0 Z"
         transform="translate(0,2.5000001e-5)"
         id="path14130" /></clipPath><clipPath
       clipPathUnits="userSpaceOnUse"
       id="clipPath14132"><path
         d="M 0,1205.777 H 2738.234 V 0 H 0 Z"
         transform="translate(0,2.5000001e-5)"
         id="path14132" /></clipPath><clipPath
       clipPathUnits="userSpaceOnUse"
       id="clipPath14134"><path
         d="M 0,1205.777 H 2738.234 V 0 H 0 Z"
         transform="translate(0,2.5000001e-5)"
         id="path14134" /></clipPath><clipPath
       clipPathUnits="userSpaceOnUse"
       id="clipPath14136"><path
         d="M 0,1205.777 H 2738.234 V 0 H 0 Z"
         transform="translate(0,2.5000001e-5)"
         id="path14136" /></clipPath><clipPath
       clipPathUnits="userSpaceOnUse"
       id="clipPath14080"><path
         d="M 0,1205.777 H 2738.234 V 0 H 0 Z"
         transform="translate(-2065.1529,-382.48348)"
         id="path14080" /></clipPath><clipPath
       clipPathUnits="userSpaceOnUse"
       id="clipPath14082"><path
         d="M 0,1205.777 H 2738.234 V 0 H 0 Z"
         transform="translate(-2075.4055,-375.19663)"
         id="path14082" /></clipPath><clipPath
       clipPathUnits="userSpaceOnUse"
       id="clipPath13990"><path
         d="M 0,1205.777 H 2738.234 V 0 H 0 Z"
         transform="translate(0,2.5000001e-5)"
         id="path13990" /></clipPath><clipPath
       clipPathUnits="userSpaceOnUse"
       id="clipPath13992"><path
         d="M 0,1205.777 H 2738.234 V 0 H 0 Z"
         transform="translate(-2031.2335,-371.35453)"
         id="path13992" /></clipPath><clipPath
       clipPathUnits="userSpaceOnUse"
       id="clipPath13994"><path
         d="M 0,1205.777 H 2738.234 V 0 H 0 Z"
         transform="translate(-2027.2345,-367.60453)"
         id="path13994" /></clipPath><clipPath
       clipPathUnits="userSpaceOnUse"
       id="clipPath13996"><path
         d="M 0,1205.777 H 2738.234 V 0 H 0 Z"
         transform="translate(-2027.2345,-369.60448)"
         id="path13996" /></clipPath><clipPath
       clipPathUnits="userSpaceOnUse"
       id="clipPath13998"><path
         d="M 0,1205.777 H 2738.234 V 0 H 0 Z"
         transform="translate(-2027.2345,-365.60451)"
         id="path13998" /></clipPath><clipPath
       clipPathUnits="userSpaceOnUse"
       id="clipPath14000"><path
         d="M 0,1205.777 H 2738.234 V 0 H 0 Z"
         transform="translate(-2027.2345,-366.60448)"
         id="path14000" /></clipPath><clipPath
       clipPathUnits="userSpaceOnUse"
       id="clipPath14002"><path
         d="M 0,1205.777 H 2738.234 V 0 H 0 Z"
         transform="translate(-2027.2345,-368.60451)"
         id="path14002" /></clipPath><clipPath
       clipPathUnits="userSpaceOnUse"
       id="clipPath14004"><path
         d="M 0,1205.777 H 2738.234 V 0 H 0 Z"
         transform="translate(-2027.2345,-364.60453)"
         id="path14004" /></clipPath><clipPath
       clipPathUnits="userSpaceOnUse"
       id="clipPath14006"><path
         d="M 0,1205.777 H 2738.234 V 0 H 0 Z"
         transform="translate(-2027.2345,-362.60451)"
         id="path14006" /></clipPath><clipPath
       clipPathUnits="userSpaceOnUse"
       id="clipPath14008"><path
         d="M 0,1205.777 H 2738.234 V 0 H 0 Z"
         transform="translate(-2027.2345,-363.60448)"
         id="path14008" /></clipPath><clipPath
       clipPathUnits="userSpaceOnUse"
       id="clipPath14010"><path
         d="M 0,1205.777 H 2738.234 V 0 H 0 Z"
         transform="translate(-2027.2345,-361.60453)"
         id="path14010" /></clipPath><clipPath
       clipPathUnits="userSpaceOnUse"
       id="clipPath14144"><path
         d="M 0,1205.777 H 2738.234 V 0 H 0 Z"
         transform="translate(-1974.2202,-408.35451)"
         id="path14144" /></clipPath><clipPath
       clipPathUnits="userSpaceOnUse"
       id="clipPath14146"><path
         d="M 0,1205.777 H 2738.234 V 0 H 0 Z"
         transform="translate(0,2.5000001e-5)"
         id="path14146" /></clipPath><clipPath
       clipPathUnits="userSpaceOnUse"
       id="clipPath14148"><path
         d="M 0,1205.777 H 2738.234 V 0 H 0 Z"
         transform="translate(0,2.5000001e-5)"
         id="path14148" /></clipPath><clipPath
       clipPathUnits="userSpaceOnUse"
       id="clipPath14150"><path
         d="M 0,1205.777 H 2738.234 V 0 H 0 Z"
         transform="translate(0,2.5000001e-5)"
         id="path14150" /></clipPath><clipPath
       clipPathUnits="userSpaceOnUse"
       id="clipPath14152"><path
         d="M 0,1205.777 H 2738.234 V 0 H 0 Z"
         transform="translate(0,2.5000001e-5)"
         id="path14152" /></clipPath><clipPath
       clipPathUnits="userSpaceOnUse"
       id="clipPath14154"><path
         d="M 0,1205.777 H 2738.234 V 0 H 0 Z"
         transform="translate(0,2.5000001e-5)"
         id="path14154" /></clipPath><clipPath
       clipPathUnits="userSpaceOnUse"
       id="clipPath14156"><path
         d="M 0,1205.777 H 2738.234 V 0 H 0 Z"
         transform="translate(0,2.5000001e-5)"
         id="path14156" /></clipPath><clipPath
       clipPathUnits="userSpaceOnUse"
       id="clipPath14158"><path
         d="M 0,1205.777 H 2738.234 V 0 H 0 Z"
         transform="translate(0,2.5000001e-5)"
         id="path14158" /></clipPath><clipPath
       clipPathUnits="userSpaceOnUse"
       id="clipPath14160"><path
         d="M 0,1205.777 H 2738.234 V 0 H 0 Z"
         transform="translate(0,2.5000001e-5)"
         id="path14160" /></clipPath><clipPath
       clipPathUnits="userSpaceOnUse"
       id="clipPath14162"><path
         d="M 0,1205.777 H 2738.234 V 0 H 0 Z"
         transform="translate(0,2.5000001e-5)"
         id="path14162" /></clipPath><clipPath
       clipPathUnits="userSpaceOnUse"
       id="clipPath14164"><path
         d="M 0,1205.777 H 2738.234 V 0 H 0 Z"
         transform="translate(0,2.5000001e-5)"
         id="path14164" /></clipPath><clipPath
       clipPathUnits="userSpaceOnUse"
       id="clipPath14166"><path
         d="M 0,1205.777 H 2738.234 V 0 H 0 Z"
         transform="translate(0,2.5000001e-5)"
         id="path14166" /></clipPath><clipPath
       clipPathUnits="userSpaceOnUse"
       id="clipPath14168"><path
         d="M 0,1205.777 H 2738.234 V 0 H 0 Z"
         transform="translate(0,2.5000001e-5)"
         id="path14168" /></clipPath><clipPath
       clipPathUnits="userSpaceOnUse"
       id="clipPath14170"><path
         d="M 0,1205.777 H 2738.234 V 0 H 0 Z"
         transform="translate(0,2.5000001e-5)"
         id="path14170" /></clipPath><clipPath
       clipPathUnits="userSpaceOnUse"
       id="clipPath14172"><path
         d="M 0,1205.777 H 2738.234 V 0 H 0 Z"
         transform="translate(0,2.5000001e-5)"
         id="path14172" /></clipPath><clipPath
       clipPathUnits="userSpaceOnUse"
       id="clipPath14174"><path
         d="M 0,1205.777 H 2738.234 V 0 H 0 Z"
         transform="translate(0,2.5000001e-5)"
         id="path14174" /></clipPath><clipPath
       clipPathUnits="userSpaceOnUse"
       id="clipPath14176"><path
         d="M 0,1205.777 H 2738.234 V 0 H 0 Z"
         transform="translate(0,2.5000001e-5)"
         id="path14176" /></clipPath><clipPath
       clipPathUnits="userSpaceOnUse"
       id="clipPath14178"><path
         d="M 0,1205.777 H 2738.234 V 0 H 0 Z"
         transform="translate(0,2.5000001e-5)"
         id="path14178" /></clipPath><clipPath
       clipPathUnits="userSpaceOnUse"
       id="clipPath14180"><path
         d="M 0,1205.777 H 2738.234 V 0 H 0 Z"
         transform="translate(0,2.5000001e-5)"
         id="path14180" /></clipPath><clipPath
       clipPathUnits="userSpaceOnUse"
       id="clipPath14182"><path
         d="M 0,1205.777 H 2738.234 V 0 H 0 Z"
         transform="translate(0,2.5000001e-5)"
         id="path14182" /></clipPath><clipPath
       clipPathUnits="userSpaceOnUse"
       id="clipPath14184"><path
         d="M 0,1205.777 H 2738.234 V 0 H 0 Z"
         transform="translate(0,2.5000001e-5)"
         id="path14184" /></clipPath><clipPath
       clipPathUnits="userSpaceOnUse"
       id="clipPath14186"><path
         d="M 0,1205.777 H 2738.234 V 0 H 0 Z"
         transform="translate(0,2.5000001e-5)"
         id="path14186" /></clipPath><clipPath
       clipPathUnits="userSpaceOnUse"
       id="clipPath14188"><path
         d="M 0,1205.777 H 2738.234 V 0 H 0 Z"
         transform="translate(0,2.5000001e-5)"
         id="path14188" /></clipPath><clipPath
       clipPathUnits="userSpaceOnUse"
       id="clipPath14190"><path
         d="M 0,1205.777 H 2738.234 V 0 H 0 Z"
         transform="translate(0,2.5000001e-5)"
         id="path14190" /></clipPath><clipPath
       clipPathUnits="userSpaceOnUse"
       id="clipPath14192"><path
         d="M 0,1205.777 H 2738.234 V 0 H 0 Z"
         transform="translate(0,2.5000001e-5)"
         id="path14192" /></clipPath><clipPath
       clipPathUnits="userSpaceOnUse"
       id="clipPath13977"><path
         d="M 0,1205.777 H 2738.234 V 0 H 0 Z"
         transform="translate(-1915.2334,-400.89261)"
         id="path13977" /></clipPath><clipPath
       clipPathUnits="userSpaceOnUse"
       id="clipPath13979"><path
         d="M 0,1205.777 H 2738.234 V 0 H 0 Z"
         transform="translate(-1913.3274,-397.39941)"
         id="path13979" /></clipPath><clipPath
       clipPathUnits="userSpaceOnUse"
       id="clipPath13981"><path
         d="M 0,1205.777 H 2738.234 V 0 H 0 Z"
         transform="translate(-1914.9618,-399.03381)"
         id="path13981" /></clipPath><clipPath
       clipPathUnits="userSpaceOnUse"
       id="clipPath13983"><path
         d="M 0,1205.777 H 2738.234 V 0 H 0 Z"
         transform="translate(-1917.1405,-399.03381)"
         id="path13983" /></clipPath><clipPath
       clipPathUnits="userSpaceOnUse"
       id="clipPath13985"><path
         d="M 0,1205.777 H 2738.234 V 0 H 0 Z"
         transform="translate(-1918.7748,-397.39941)"
         id="path13985" /></clipPath></defs><g
     id="c"><g
       id="d"><g
         id="g5"
         transform="translate(-6.6003,0.39870013)"><path
           id="path13976"
           d="m 0,0 c -1.438,0 -2.777,-0.773 -3.496,-2.019 -0.72,-1.246 -0.72,-2.793 0,-4.039 0.677,-1.171 1.936,-1.943 3.287,-2.012 -0.288,0.558 -0.347,1.188 -0.108,1.72 0.269,0.606 0.871,0.997 1.533,0.998 H 2.18 c 0.495,0 0.962,0.194 1.314,0.545 0.346,0.346 0.544,0.825 0.544,1.314 C 4.038,-1.567 2.227,0 0,0 m 0.001,-8.989 c -1.763,0 -3.406,0.949 -4.289,2.476 -0.882,1.527 -0.882,3.423 0,4.95 0.883,1.527 2.525,2.476 4.288,2.476 2.729,0 4.951,-1.976 4.951,-4.406 0,-0.74 -0.288,-1.437 -0.811,-1.961 C 3.624,-5.97 2.909,-6.266 2.18,-6.266 H 1.216 C 0.914,-6.266 0.638,-6.443 0.512,-6.72 0.388,-6.997 0.438,-7.322 0.642,-7.548 0.867,-7.8 0.925,-8.164 0.787,-8.475 0.648,-8.785 0.34,-8.987 0.001,-8.989"
           style="fill:#000000 icc-color(Display, 0, 0, 0);fill-opacity:1;fill-rule:nonzero;stroke:none"
           transform="matrix(1.3333333,0,0,-1.3333333,16.5993,4.2173)"
           clip-path="url(#clipPath13977)" /><path
           id="path13978"
           d="m 0,0 c 0,-0.451 -0.366,-0.817 -0.817,-0.817 -0.452,0 -0.817,0.366 -0.817,0.817 0,0.451 0.365,0.817 0.817,0.817 C -0.366,0.817 0,0.451 0,0"
           style="fill:#000000 icc-color(Display, 0, 0, 0);fill-opacity:1;fill-rule:nonzero;stroke:none"
           transform="matrix(1.3333333,0,0,-1.3333333,14.058,8.8749)"
           clip-path="url(#clipPath13979)" /><path
           id="path13980"
           d="m 0,0 c 0,-0.452 -0.366,-0.817 -0.817,-0.817 -0.452,0 -0.817,0.365 -0.817,0.817 0,0.451 0.365,0.817 0.817,0.817 C -0.366,0.817 0,0.451 0,0"
           style="fill:#000000 icc-color(Display, 0, 0, 0);fill-opacity:1;fill-rule:nonzero;stroke:none"
           transform="matrix(1.3333333,0,0,-1.3333333,16.2371,6.6957)"
           clip-path="url(#clipPath13981)" /><path
           id="path13982"
           d="m 0,0 c 0,-0.452 -0.366,-0.817 -0.817,-0.817 -0.451,0 -0.817,0.365 -0.817,0.817 0,0.451 0.366,0.817 0.817,0.817 C -0.366,0.817 0,0.451 0,0"
           style="fill:#000000 icc-color(Display, 0, 0, 0);fill-opacity:1;fill-rule:nonzero;stroke:none"
           transform="matrix(1.3333333,0,0,-1.3333333,19.1421,6.6957)"
           clip-path="url(#clipPath13983)" /><path
           id="path13984"
           d="m 0,0 c 0,-0.451 -0.366,-0.817 -0.817,-0.817 -0.451,0 -0.817,0.366 -0.817,0.817 0,0.451 0.366,0.817 0.817,0.817 C -0.366,0.817 0,0.451 0,0"
           style="fill:#000000 icc-color(Display, 0, 0, 0);fill-opacity:1;fill-rule:nonzero;stroke:none"
           transform="matrix(1.3333333,0,0,-1.3333333,21.3212,8.8749)"
           clip-path="url(#clipPath13985)" /></g></g></g></svg>
