<?xml version="1.0" encoding="UTF-8" standalone="no"?>
<svg
   id="b"
   width="20"
   height="16"
   viewBox="0 0 20 16"
   version="1.1"
   sodipodi:docname="small-spots.svg"
   inkscape:version="1.3.1 (91b66b0, 2023-11-16)"
   xml:space="preserve"
   xmlns:inkscape="http://www.inkscape.org/namespaces/inkscape"
   xmlns:sodipodi="http://sodipodi.sourceforge.net/DTD/sodipodi-0.dtd"
   xmlns="http://www.w3.org/2000/svg"
   xmlns:svg="http://www.w3.org/2000/svg"><sodipodi:namedview
     id="namedview3"
     pagecolor="#ffffff"
     bordercolor="#000000"
     borderopacity="0.25"
     inkscape:showpageshadow="2"
     inkscape:pageopacity="0.0"
     inkscape:pagecheckerboard="0"
     inkscape:deskcolor="#d1d1d1"
     inkscape:zoom="14.75"
     inkscape:cx="5.9661017"
     inkscape:cy="8.5762712"
     inkscape:window-width="1312"
     inkscape:window-height="576"
     inkscape:window-x="14"
     inkscape:window-y="226"
     inkscape:window-maximized="0"
     inkscape:current-layer="d" /><defs
     id="defs1"><style
       id="style1">.e{stroke:#000;stroke-linecap:round;stroke-linejoin:round;}.e,.f{fill:none;}.f{opacity:.2;stroke-width:0px;}</style></defs><g
     id="c"><g
       id="d"><rect
         class="f"
         width="20"
         height="16"
         id="rect3" /><g
         id="g1"><path
           d="m 11.904877,5.1533856 c -0.1,-0.449 -0.213,-0.959 -0.955,-0.958 -0.81,-0.003 -1.2629999,0.817 -1.6619999,1.544 -0.684,1.242 -0.836,1.316 -1.869,1.571 -0.744,0.186 -1.759,0.439 -1.996,1.673 -0.272,1.4070004 1.239,0.741 1.369,1.1160004 0.175,0.464 -0.57,1.062 -0.112,1.937 0.629,1.202 1.162,-0.69 1.742,0.455 0.187,0.365 0.44,0.868 1.359,0.561 0.2809999,-0.094 0.5059999,-0.246 0.6919999,-0.431 0.405,-0.406 0.624,-0.98 0.825,-1.508 0.459,-1.2170004 0.608,-1.4140004 1.742,-2.4030004 0.747,-0.648 1.593,-1.387 1.224,-2.043 -0.27,-0.488 -0.717,-0.463 -1.108,-0.444 -0.503,0.03 -1.008,0.062 -1.251,-1.07 z"
           style="clip-rule:evenodd;fill-rule:nonzero;stroke-linejoin:round;stroke-miterlimit:2"
           id="path1224" /><path
           d="m 3.6038771,2.1413856 2.945,2.945 c 0.195,0.195 0.512,0.195 0.707,0 0.195,-0.195 0.195,-0.512 0,-0.707 l -2.945,-2.945 c -0.195,-0.195 -0.512,-0.195 -0.707,0 -0.195,0.195 -0.195,0.512 0,0.707 z"
           id="path1225"
           style="clip-rule:evenodd;fill-rule:evenodd;stroke-linejoin:round;stroke-miterlimit:2" /><path
           d="m 6.6508771,2.5043856 v 1.978 c 0,0 -1.979,0 -1.979,0 -0.276,0 -0.5,0.224 -0.5,0.5 0,0.276 0.224,0.5 0.5,0.5 h 2.479 c 0.276,0 0.5,-0.223 0.5,-0.5 v -2.478 c 0,-0.276 -0.224,-0.5 -0.5,-0.5 -0.276,0 -0.5,0.224 -0.5,0.5 z"
           id="path1226"
           style="clip-rule:evenodd;fill-rule:evenodd;stroke-linejoin:round;stroke-miterlimit:2" /><path
           d="m 17.038877,14.162386 -2.945,-2.945 c -0.195,-0.195 -0.512,-0.195 -0.707,0 -0.195,0.195 -0.195,0.512 0,0.707 l 2.945,2.945 c 0.195,0.195 0.512,0.195 0.707,0 0.195,-0.195 0.195,-0.512 0,-0.707 z"
           id="path1227"
           style="clip-rule:evenodd;fill-rule:evenodd;stroke-linejoin:round;stroke-miterlimit:2" /><path
           d="m 15.968877,10.822386 h -2.478 c -0.277,0 -0.5,0.223 -0.5,0.5 v 2.479 c 0,0.276 0.224,0.5 0.5,0.5 0.276,0 0.5,-0.224 0.5,-0.5 v -1.979 c 0,0 1.978,0 1.978,0 0.276,0 0.5,-0.224 0.5,-0.5 0,-0.276 -0.224,-0.5 -0.5,-0.5 z"
           id="path1228"
           style="clip-rule:evenodd;fill-rule:evenodd;stroke-linejoin:round;stroke-miterlimit:2" /></g></g></g></svg>
