<?xml version="1.0" encoding="UTF-8" standalone="no"?>
<svg
   id="b"
   width="20"
   height="16"
   viewBox="0 0 20 16"
   version="1.1"
   sodipodi:docname="stroke-push.svg"
   xml:space="preserve"
   inkscape:version="1.3.1 (91b66b0, 2023-11-16)"
   xmlns:inkscape="http://www.inkscape.org/namespaces/inkscape"
   xmlns:sodipodi="http://sodipodi.sourceforge.net/DTD/sodipodi-0.dtd"
   xmlns="http://www.w3.org/2000/svg"
   xmlns:svg="http://www.w3.org/2000/svg"><sodipodi:namedview
     id="namedview12"
     pagecolor="#ffffff"
     bordercolor="#000000"
     borderopacity="0.25"
     inkscape:showpageshadow="2"
     inkscape:pageopacity="0.0"
     inkscape:pagecheckerboard="0"
     inkscape:deskcolor="#d1d1d1"
     inkscape:zoom="14.75"
     inkscape:cx="9.7288136"
     inkscape:cy="9.6271186"
     inkscape:window-width="1312"
     inkscape:window-height="547"
     inkscape:window-x="0"
     inkscape:window-y="25"
     inkscape:window-maximized="0"
     inkscape:current-layer="b" /><defs
     id="defs1"><style
       id="style1">.e{fill:none;}.e,.f{stroke-width:0px;}</style><clipPath
       clipPathUnits="userSpaceOnUse"
       id="clipPath12756"><path
         d="M 0,1205.777 H 2738.234 V 0 H 0 Z"
         transform="translate(-1843.461,-631.40802)"
         id="path12756" /></clipPath><clipPath
       clipPathUnits="userSpaceOnUse"
       id="clipPath12758"><path
         d="M 0,1205.777 H 2738.234 V 0 H 0 Z"
         transform="translate(-1843.2345,-643.31022)"
         id="path12758" /></clipPath><clipPath
       clipPathUnits="userSpaceOnUse"
       id="clipPath12760"><path
         d="M 0,1205.777 H 2738.234 V 0 H 0 Z"
         transform="translate(-1843.2345,-638.21302)"
         id="path12760" /></clipPath><clipPath
       clipPathUnits="userSpaceOnUse"
       id="clipPath12762"><path
         d="M 0,1205.777 H 2738.234 V 0 H 0 Z"
         transform="translate(-1849.9041,-635.02642)"
         id="path12762" /></clipPath></defs><path
     id="path12755"
     d="M 0,0 15.774,3.202 15.724,3.697 -0.226,1.426 V -0.009 C -0.152,-0.015 -0.077,-0.019 0,0"
     style="fill:#000000 icc-color(Display, 0, 0, 0);fill-opacity:1;fill-rule:nonzero;stroke:none"
     transform="matrix(1.0748656,0,0,-1.0748656,1.9552409,14.459193)"
     clip-path="url(#clipPath12756)" /><path
     id="path12757"
     d="M 0,0 V -1.435 L 15.95,-3.706 16,-3.211 0.226,-0.009 C 0.15,0.01 0.075,0.005 0,0"
     style="fill:#000000 icc-color(Display, 0, 0, 0);fill-opacity:1;fill-rule:nonzero;stroke:none"
     transform="matrix(1.0748656,0,0,-1.0748656,1.7118644,1.6659272)"
     clip-path="url(#clipPath12758)" /><path
     id="path12759"
     d="M 0,0 V -1.838 L 8.338,-1.221 8.322,-0.54 Z"
     style="fill:#000000 icc-color(Display, 0, 0, 0);fill-opacity:1;fill-rule:nonzero;stroke:none"
     transform="matrix(1.0748656,0,0,-1.0748656,1.7118644,7.1447349)"
     clip-path="url(#clipPath12760)" /><path
     id="path12761"
     d="M 0,0 2.252,2.252 -0.001,4.505"
     style="fill:none;stroke:#000000 icc-color(Display, 0, 0, 0);stroke-width:0.9;stroke-linecap:round;stroke-linejoin:round;stroke-miterlimit:10;stroke-dasharray:none;stroke-opacity:1"
     transform="matrix(1.0748656,0,0,-1.0748656,8.8807881,10.569902)"
     clip-path="url(#clipPath12762)" /></svg>
