<?xml version="1.0" encoding="UTF-8" standalone="no"?>
<svg
   id="b"
   width="20"
   height="20"
   viewBox="0 0 20 20"
   version="1.1"
   sodipodi:docname="thickness-rough.svg"
   inkscape:version="1.3.1 (91b66b0, 2023-11-16)"
   xml:space="preserve"
   xmlns:inkscape="http://www.inkscape.org/namespaces/inkscape"
   xmlns:sodipodi="http://sodipodi.sourceforge.net/DTD/sodipodi-0.dtd"
   xmlns="http://www.w3.org/2000/svg"
   xmlns:svg="http://www.w3.org/2000/svg"><sodipodi:namedview
     id="namedview3"
     pagecolor="#ffffff"
     bordercolor="#000000"
     borderopacity="0.25"
     inkscape:showpageshadow="2"
     inkscape:pageopacity="0.0"
     inkscape:pagecheckerboard="0"
     inkscape:deskcolor="#d1d1d1"
     inkscape:zoom="14.75"
     inkscape:cx="9.0847458"
     inkscape:cy="10.610169"
     inkscape:window-width="1312"
     inkscape:window-height="576"
     inkscape:window-x="69"
     inkscape:window-y="267"
     inkscape:window-maximized="0"
     inkscape:current-layer="d" /><defs
     id="defs1"><style
       id="style1">.e{stroke:#000;stroke-linecap:round;stroke-linejoin:round;}.e,.f{fill:none;}.f{opacity:.2;stroke-width:0px;}</style><clipPath
       clipPathUnits="userSpaceOnUse"
       id="clipPath13578"><path
         d="M 0,1205.777 H 2738.234 V 0 H 0 Z"
         transform="translate(-1750.1958,-473.16941)"
         id="path13578" /></clipPath><clipPath
       clipPathUnits="userSpaceOnUse"
       id="clipPath13580"><path
         d="M 0,1205.777 H 2738.234 V 0 H 0 Z"
         transform="translate(-1755.2523,-482.35451)"
         id="path13580" /></clipPath><clipPath
       clipPathUnits="userSpaceOnUse"
       id="clipPath13582"><path
         d="M 0,1205.777 H 2738.234 V 0 H 0 Z"
         transform="translate(-1753.044,-479.21061)"
         id="path13582" /></clipPath><clipPath
       clipPathUnits="userSpaceOnUse"
       id="clipPath13694"><path
         d="M 0,1205.777 H 2738.234 V 0 H 0 Z"
         transform="translate(-1694.7306,-422.60451)"
         id="path13694" /></clipPath><clipPath
       clipPathUnits="userSpaceOnUse"
       id="clipPath13696"><path
         d="M 0,1205.777 H 2738.234 V 0 H 0 Z"
         transform="translate(-1692.729,-424.80839)"
         id="path13696" /></clipPath><clipPath
       clipPathUnits="userSpaceOnUse"
       id="clipPath13698"><path
         d="M 0,1205.777 H 2738.234 V 0 H 0 Z"
         transform="translate(-1694.7306,-436.10451)"
         id="path13698" /></clipPath><clipPath
       clipPathUnits="userSpaceOnUse"
       id="clipPath13700"><path
         d="M 0,1205.777 H 2738.234 V 0 H 0 Z"
         transform="translate(-1692.729,-433.90049)"
         id="path13700" /></clipPath><clipPath
       clipPathUnits="userSpaceOnUse"
       id="clipPath13702"><path
         d="M 0,1205.777 H 2738.234 V 0 H 0 Z"
         transform="translate(-1695.2346,-430.59944)"
         id="path13702" /></clipPath><clipPath
       clipPathUnits="userSpaceOnUse"
       id="clipPath13704"><path
         d="M 0,1205.777 H 2738.234 V 0 H 0 Z"
         transform="translate(-1686.2346,-427.04999)"
         id="path13704" /></clipPath><clipPath
       clipPathUnits="userSpaceOnUse"
       id="clipPath13706"><path
         d="M 0,1205.777 H 2738.234 V 0 H 0 Z"
         transform="translate(-1686.2346,-428.59529)"
         id="path13706" /></clipPath><clipPath
       clipPathUnits="userSpaceOnUse"
       id="clipPath13714"><path
         d="M 0,1205.777 H 2738.234 V 0 H 0 Z"
         transform="translate(-1641.2346,-434.35454)"
         id="path13714" /></clipPath><clipPath
       clipPathUnits="userSpaceOnUse"
       id="clipPath13710"><path
         d="M 0,1205.777 H 2738.234 V 0 H 0 Z"
         transform="translate(-1661.3688,-434.35454)"
         id="path13710" /></clipPath></defs><g
     id="c"><g
       id="d"><g
         id="path13709"
         clip-path="url(#clipPath13710)"
         transform="matrix(1.3333333,0,0,-1.3333333,12.178688,3.3333335)"><path
           style="color:#000000;fill:#ffffff icc-color(Display, 1, 1, 1);stroke-linecap:round;stroke-linejoin:round;stroke-miterlimit:10;-inkscape-stroke:none"
           d="m 0,0 -3.134,-1 2.439,-0.824 -3.439,-1.432 4.238,-0.833 -4.238,-2.167 5,-0.744 -5,-2 4,-1"
           id="path3" /><path
           style="color:#000000;fill:#000000 icc-color(Display, 0, 0, 0);stroke-linecap:round;stroke-linejoin:round;stroke-miterlimit:10;-inkscape-stroke:none"
           d="m -0.2734375,-10.558594 -4,1.0000002 a 0.57505749,0.57505749 0 0 0 -0.074219,1.0917969 l 3.0273437,1.2109375 -2.8984375,0.4316407 a 0.57505749,0.57505749 0 0 0 -0.1777344,1.0800781 l 2.7597657,1.4121094 -2.6074219,0.5117187 a 0.57505749,0.57505749 0 0 0 -0.1113281,1.0957031 l 2.0292968,0.84375 -0.9921875,0.3359375 a 0.57505749,0.57505749 0 0 0 0.00977,1.0917969 l 3.13476568,1 A 0.57499999,0.57499999 0 0 0 0.546875,0.17382812 0.57499999,0.57499999 0 0 0 0.17382812,-0.546875 l -1.46679682,-0.46875 0.78124995,-0.2636719 a 0.57505749,0.57505749 0 0 0 0.0371094,-1.0761719 L -2.1601563,-3.0585938 0.21484375,-3.5253906 A 0.57505749,0.57505749 0 0 0 0.36523438,-4.6015625 L -2.2753906,-5.9511719 0.95117188,-6.4316406 A 0.57505749,0.57505749 0 0 0 1.0800781,-7.5332031 l -3.3496094,-1.3398438 2.27539068,-0.5683594 a 0.57499999,0.57499999 0 0 0 0.41796875,-0.6972657 0.57499999,0.57499999 0 0 0 -0.69726563,-0.419922 z"
           id="path4" /></g></g></g></svg>
