<?xml version="1.0" encoding="UTF-8" standalone="no"?>
<svg
   id="b"
   width="20"
   height="20"
   viewBox="0 0 20 20"
   version="1.1"
   sodipodi:docname="thickness-break-mode.svg"
   inkscape:version="1.3.1 (91b66b0, 2023-11-16)"
   xml:space="preserve"
   xmlns:inkscape="http://www.inkscape.org/namespaces/inkscape"
   xmlns:sodipodi="http://sodipodi.sourceforge.net/DTD/sodipodi-0.dtd"
   xmlns="http://www.w3.org/2000/svg"
   xmlns:svg="http://www.w3.org/2000/svg"><sodipodi:namedview
     id="namedview3"
     pagecolor="#ffffff"
     bordercolor="#000000"
     borderopacity="0.25"
     inkscape:showpageshadow="2"
     inkscape:pageopacity="0.0"
     inkscape:pagecheckerboard="0"
     inkscape:deskcolor="#d1d1d1"
     inkscape:zoom="14.75"
     inkscape:cx="9.0847458"
     inkscape:cy="10.610169"
     inkscape:window-width="1312"
     inkscape:window-height="576"
     inkscape:window-x="14"
     inkscape:window-y="198"
     inkscape:window-maximized="0"
     inkscape:current-layer="g2" /><defs
     id="defs1"><style
       id="style1">.e{stroke:#000;stroke-linecap:round;stroke-linejoin:round;}.e,.f{fill:none;}.f{opacity:.2;stroke-width:0px;}</style><clipPath
       clipPathUnits="userSpaceOnUse"
       id="clipPath13578"><path
         d="M 0,1205.777 H 2738.234 V 0 H 0 Z"
         transform="translate(-1750.1958,-473.16941)"
         id="path13578" /></clipPath><clipPath
       clipPathUnits="userSpaceOnUse"
       id="clipPath13580"><path
         d="M 0,1205.777 H 2738.234 V 0 H 0 Z"
         transform="translate(-1755.2523,-482.35451)"
         id="path13580" /></clipPath><clipPath
       clipPathUnits="userSpaceOnUse"
       id="clipPath13582"><path
         d="M 0,1205.777 H 2738.234 V 0 H 0 Z"
         transform="translate(-1753.044,-479.21061)"
         id="path13582" /></clipPath><clipPath
       clipPathUnits="userSpaceOnUse"
       id="clipPath13694"><path
         d="M 0,1205.777 H 2738.234 V 0 H 0 Z"
         transform="translate(-1694.7306,-422.60451)"
         id="path13694" /></clipPath><clipPath
       clipPathUnits="userSpaceOnUse"
       id="clipPath13696"><path
         d="M 0,1205.777 H 2738.234 V 0 H 0 Z"
         transform="translate(-1692.729,-424.80839)"
         id="path13696" /></clipPath><clipPath
       clipPathUnits="userSpaceOnUse"
       id="clipPath13698"><path
         d="M 0,1205.777 H 2738.234 V 0 H 0 Z"
         transform="translate(-1694.7306,-436.10451)"
         id="path13698" /></clipPath><clipPath
       clipPathUnits="userSpaceOnUse"
       id="clipPath13700"><path
         d="M 0,1205.777 H 2738.234 V 0 H 0 Z"
         transform="translate(-1692.729,-433.90049)"
         id="path13700" /></clipPath><clipPath
       clipPathUnits="userSpaceOnUse"
       id="clipPath13702"><path
         d="M 0,1205.777 H 2738.234 V 0 H 0 Z"
         transform="translate(-1695.2346,-430.59944)"
         id="path13702" /></clipPath><clipPath
       clipPathUnits="userSpaceOnUse"
       id="clipPath13704"><path
         d="M 0,1205.777 H 2738.234 V 0 H 0 Z"
         transform="translate(-1686.2346,-427.04999)"
         id="path13704" /></clipPath><clipPath
       clipPathUnits="userSpaceOnUse"
       id="clipPath13706"><path
         d="M 0,1205.777 H 2738.234 V 0 H 0 Z"
         transform="translate(-1686.2346,-428.59529)"
         id="path13706" /></clipPath><clipPath
       clipPathUnits="userSpaceOnUse"
       id="clipPath13750"><path
         d="M 0,1205.777 H 2738.234 V 0 H 0 Z"
         transform="translate(-1733.7345,-344.85448)"
         id="path13750" /></clipPath><clipPath
       clipPathUnits="userSpaceOnUse"
       id="clipPath13752"><path
         d="M 0,1205.777 H 2738.234 V 0 H 0 Z"
         transform="translate(-1742.2761,-346.10451)"
         id="path13752" /></clipPath><clipPath
       clipPathUnits="userSpaceOnUse"
       id="clipPath13754"><path
         d="M 0,1205.777 H 2738.234 V 0 H 0 Z"
         transform="translate(-1740.0679,-349.99843)"
         id="path13754" /></clipPath><clipPath
       clipPathUnits="userSpaceOnUse"
       id="clipPath13756"><path
         d="M 0,1205.777 H 2738.234 V 0 H 0 Z"
         transform="translate(-1733.7345,-347.85448)"
         id="path13756" /></clipPath></defs><g
     id="c"><g
       id="d"><g
         id="g2"
         transform="translate(9.1997167,10.3333)"><path
           style="color:#000000;fill:#000000 icc-color(Display, 0, 0, 0);stroke-linecap:round;stroke-miterlimit:10;-inkscape-stroke:none"
           d="M 0,-0.5 A 0.5,0.5 0 0 0 -0.5,0 0.5,0.5 0 0 0 0,0.5 H 10.5 A 0.5,0.5 0 0 0 11,0 0.5,0.5 0 0 0 10.5,-0.5 Z"
           id="path13749"
           transform="matrix(1.3333333,0,0,-1.3333333,-6.3333,5.6667)" /><path
           style="color:#000000;fill:#000000 icc-color(Display, 0, 0, 0);stroke-linecap:round;stroke-linejoin:round;stroke-miterlimit:10;-inkscape-stroke:none"
           d="M 0,-0.44921875 A 0.44999999,0.44999999 0 0 0 -0.44921875,0 V 5.8964844 A 0.44999999,0.44999999 0 0 0 0,6.3476562 0.44999999,0.44999999 0 0 0 0.44921875,5.8964844 V 0 A 0.44999999,0.44999999 0 0 0 0,-0.44921875 Z"
           id="path13751"
           transform="matrix(1.3333333,0,0,-1.3333333,5.0555,4)" /><path
           style="color:#000000;fill:#000000 icc-color(Display, 0, 0, 0);stroke-linecap:round;stroke-linejoin:round;stroke-miterlimit:10;-inkscape-stroke:none"
           d="M 4.4023437,-0.453125 A 0.44999999,0.44999999 0 0 0 4.0878906,-0.31054688 L 2.2089844,1.6992187 0.328125,-0.30859375 A 0.44999999,0.44999999 0 0 0 -0.30859375,-0.328125 0.44999999,0.44999999 0 0 0 -0.328125,0.30859375 L 1.8808594,2.6640625 a 0.45004499,0.45004499 0 0 0 0.65625,0 L 4.7460937,0.3046875 A 0.44999999,0.44999999 0 0 0 4.7246094,-0.33203125 0.44999999,0.44999999 0 0 0 4.4023437,-0.453125 Z"
           id="path13753"
           transform="matrix(1.3333333,0,0,-1.3333333,2.1112,-1.1919)" /><path
           style="color:#000000;fill:#000000 icc-color(Display, 0, 0, 0);stroke-linecap:round;stroke-linejoin:round;stroke-miterlimit:10;-inkscape-stroke:none"
           d="M 0,-0.5 A 0.5,0.5 0 0 0 -0.5,0 0.5,0.5 0 0 0 0,0.5 H 2.6660156 L 5.0390625,6.1914062 A 0.50005,0.50005 0 0 0 5.5,6.5 h 5 A 0.5,0.5 0 0 0 11,6 0.5,0.5 0 0 0 10.5,5.5 H 5.8339844 L 3.4609375,-0.19140625 A 0.50005,0.50005 0 0 0 3,-0.5 Z"
           id="path13755"
           transform="matrix(1.3333333,0,0,-1.3333333,-6.3333,1.6667)" /></g></g></g></svg>
