<?xml version="1.0" encoding="UTF-8" standalone="no"?>
<svg
   id="b"
   width="20"
   height="20"
   viewBox="0 0 20 20"
   version="1.1"
   sodipodi:docname="effects-color-diameter.svg"
   inkscape:version="1.3.1 (91b66b0, 2023-11-16)"
   xml:space="preserve"
   xmlns:inkscape="http://www.inkscape.org/namespaces/inkscape"
   xmlns:sodipodi="http://sodipodi.sourceforge.net/DTD/sodipodi-0.dtd"
   xmlns="http://www.w3.org/2000/svg"
   xmlns:svg="http://www.w3.org/2000/svg"><sodipodi:namedview
     id="namedview3"
     pagecolor="#ffffff"
     bordercolor="#000000"
     borderopacity="0.25"
     inkscape:showpageshadow="2"
     inkscape:pageopacity="0.0"
     inkscape:pagecheckerboard="0"
     inkscape:deskcolor="#d1d1d1"
     inkscape:zoom="14.75"
     inkscape:cx="7.7966102"
     inkscape:cy="11.525424"
     inkscape:window-width="1328"
     inkscape:window-height="605"
     inkscape:window-x="69"
     inkscape:window-y="239"
     inkscape:window-maximized="0"
     inkscape:current-layer="g1" /><defs
     id="defs1"><style
       id="style1">.e{stroke:#000;stroke-linecap:round;stroke-linejoin:round;}.e,.f{fill:none;}.f{opacity:.2;stroke-width:0px;}</style><clipPath
       clipPathUnits="userSpaceOnUse"
       id="clipPath13578"><path
         d="M 0,1205.777 H 2738.234 V 0 H 0 Z"
         transform="translate(-1750.1958,-473.16941)"
         id="path13578" /></clipPath><clipPath
       clipPathUnits="userSpaceOnUse"
       id="clipPath13580"><path
         d="M 0,1205.777 H 2738.234 V 0 H 0 Z"
         transform="translate(-1755.2523,-482.35451)"
         id="path13580" /></clipPath><clipPath
       clipPathUnits="userSpaceOnUse"
       id="clipPath13582"><path
         d="M 0,1205.777 H 2738.234 V 0 H 0 Z"
         transform="translate(-1753.044,-479.21061)"
         id="path13582" /></clipPath><clipPath
       clipPathUnits="userSpaceOnUse"
       id="clipPath13694"><path
         d="M 0,1205.777 H 2738.234 V 0 H 0 Z"
         transform="translate(-1694.7306,-422.60451)"
         id="path13694" /></clipPath><clipPath
       clipPathUnits="userSpaceOnUse"
       id="clipPath13696"><path
         d="M 0,1205.777 H 2738.234 V 0 H 0 Z"
         transform="translate(-1692.729,-424.80839)"
         id="path13696" /></clipPath><clipPath
       clipPathUnits="userSpaceOnUse"
       id="clipPath13698"><path
         d="M 0,1205.777 H 2738.234 V 0 H 0 Z"
         transform="translate(-1694.7306,-436.10451)"
         id="path13698" /></clipPath><clipPath
       clipPathUnits="userSpaceOnUse"
       id="clipPath13700"><path
         d="M 0,1205.777 H 2738.234 V 0 H 0 Z"
         transform="translate(-1692.729,-433.90049)"
         id="path13700" /></clipPath><clipPath
       clipPathUnits="userSpaceOnUse"
       id="clipPath13702"><path
         d="M 0,1205.777 H 2738.234 V 0 H 0 Z"
         transform="translate(-1695.2346,-430.59944)"
         id="path13702" /></clipPath><clipPath
       clipPathUnits="userSpaceOnUse"
       id="clipPath13704"><path
         d="M 0,1205.777 H 2738.234 V 0 H 0 Z"
         transform="translate(-1686.2346,-427.04999)"
         id="path13704" /></clipPath><clipPath
       clipPathUnits="userSpaceOnUse"
       id="clipPath13706"><path
         d="M 0,1205.777 H 2738.234 V 0 H 0 Z"
         transform="translate(-1686.2346,-428.59529)"
         id="path13706" /></clipPath><clipPath
       clipPathUnits="userSpaceOnUse"
       id="clipPath13714"><path
         d="M 0,1205.777 H 2738.234 V 0 H 0 Z"
         transform="translate(-1641.2346,-434.35454)"
         id="path13714" /></clipPath><clipPath
       clipPathUnits="userSpaceOnUse"
       id="clipPath13710"><path
         d="M 0,1205.777 H 2738.234 V 0 H 0 Z"
         transform="translate(-1661.3688,-434.35454)"
         id="path13710" /></clipPath><clipPath
       clipPathUnits="userSpaceOnUse"
       id="clipPath1370"><path
         d="M 0,1205.777 H 2738.234 V 0 H 0 Z"
         transform="translate(-2652.6085,-953.81653)"
         id="path1370" /></clipPath><clipPath
       clipPathUnits="userSpaceOnUse"
       id="clipPath1372"><path
         d="M 0,1205.777 H 2738.234 V 0 H 0 Z"
         transform="translate(-2643.2344,-953.60452)"
         id="path1372" /></clipPath><clipPath
       clipPathUnits="userSpaceOnUse"
       id="clipPath4379"><path
         d="M 0,1205.777 H 2738.234 V 0 H 0 Z"
         transform="translate(-1926.0876,-576.35451)"
         id="path4379" /></clipPath><clipPath
       clipPathUnits="userSpaceOnUse"
       id="clipPath4383"><path
         d="M 0,1205.777 H 2738.234 V 0 H 0 Z"
         transform="translate(-1928.0082,-573.77712)"
         id="path4383" /></clipPath><clipPath
       clipPathUnits="userSpaceOnUse"
       id="clipPath4385"><path
         d="M 0,1205.777 H 2738.234 V 0 H 0 Z"
         transform="translate(-1925.7345,-570.39171)"
         id="path4385" /></clipPath><clipPath
       clipPathUnits="userSpaceOnUse"
       id="clipPath14142"><path
         d="M 0,1205.777 H 2738.234 V 0 H 0 Z"
         transform="translate(-1983.2281,-349.33701)"
         id="path14142" /></clipPath><clipPath
       clipPathUnits="userSpaceOnUse"
       id="clipPath14138"><path
         d="M 0,1205.777 H 2738.234 V 0 H 0 Z"
         transform="translate(-1995.2346,-354.85453)"
         id="path14138" /></clipPath><clipPath
       clipPathUnits="userSpaceOnUse"
       id="clipPath14140"><path
         d="M 0,1205.777 H 2738.234 V 0 H 0 Z"
         transform="translate(-1995.2346,-354.85453)"
         id="path14140" /></clipPath><clipPath
       clipPathUnits="userSpaceOnUse"
       id="clipPath14130"><path
         d="M 0,1205.777 H 2738.234 V 0 H 0 Z"
         transform="translate(0,2.5000001e-5)"
         id="path14130" /></clipPath><clipPath
       clipPathUnits="userSpaceOnUse"
       id="clipPath14132"><path
         d="M 0,1205.777 H 2738.234 V 0 H 0 Z"
         transform="translate(0,2.5000001e-5)"
         id="path14132" /></clipPath><clipPath
       clipPathUnits="userSpaceOnUse"
       id="clipPath14134"><path
         d="M 0,1205.777 H 2738.234 V 0 H 0 Z"
         transform="translate(0,2.5000001e-5)"
         id="path14134" /></clipPath><clipPath
       clipPathUnits="userSpaceOnUse"
       id="clipPath14136"><path
         d="M 0,1205.777 H 2738.234 V 0 H 0 Z"
         transform="translate(0,2.5000001e-5)"
         id="path14136" /></clipPath><clipPath
       clipPathUnits="userSpaceOnUse"
       id="clipPath14080"><path
         d="M 0,1205.777 H 2738.234 V 0 H 0 Z"
         transform="translate(-2065.1529,-382.48348)"
         id="path14080" /></clipPath><clipPath
       clipPathUnits="userSpaceOnUse"
       id="clipPath13542"><path
         d="M 0,1205.777 H 2738.234 V 0 H 0 Z"
         transform="translate(-1664.7345,-477.35451)"
         id="path13542" /></clipPath><clipPath
       clipPathUnits="userSpaceOnUse"
       id="clipPath13544"><path
         d="M 0,1205.777 H 2738.234 V 0 H 0 Z"
         transform="translate(-1658.787,-476.35451)"
         id="path13544" /></clipPath><clipPath
       clipPathUnits="userSpaceOnUse"
       id="clipPath13546"><path
         d="M 0,1205.777 H 2738.234 V 0 H 0 Z"
         transform="translate(-1659.8134,-479.72321)"
         id="path13546" /></clipPath><clipPath
       clipPathUnits="userSpaceOnUse"
       id="clipPath14012"><path
         d="M 0,1205.777 H 2738.234 V 0 H 0 Z"
         transform="translate(-2047.2336,-371.35453)"
         id="path14012" /></clipPath><clipPath
       clipPathUnits="userSpaceOnUse"
       id="clipPath14014"><path
         d="M 0,1205.777 H 2738.234 V 0 H 0 Z"
         transform="translate(-2043.2346,-367.60453)"
         id="path14014" /></clipPath><clipPath
       clipPathUnits="userSpaceOnUse"
       id="clipPath14016"><path
         d="M 0,1205.777 H 2738.234 V 0 H 0 Z"
         transform="translate(-2043.2346,-369.60448)"
         id="path14016" /></clipPath><clipPath
       clipPathUnits="userSpaceOnUse"
       id="clipPath14018"><path
         d="M 0,1205.777 H 2738.234 V 0 H 0 Z"
         transform="translate(-2043.2346,-365.60451)"
         id="path14018" /></clipPath><clipPath
       clipPathUnits="userSpaceOnUse"
       id="clipPath14020"><path
         d="M 0,1205.777 H 2738.234 V 0 H 0 Z"
         transform="translate(-2043.2346,-366.60448)"
         id="path14020" /></clipPath><clipPath
       clipPathUnits="userSpaceOnUse"
       id="clipPath14022"><path
         d="M 0,1205.777 H 2738.234 V 0 H 0 Z"
         transform="translate(-2043.2346,-368.60451)"
         id="path14022" /></clipPath><clipPath
       clipPathUnits="userSpaceOnUse"
       id="clipPath14024"><path
         d="M 0,1205.777 H 2738.234 V 0 H 0 Z"
         transform="translate(-2043.2346,-364.60453)"
         id="path14024" /></clipPath><clipPath
       clipPathUnits="userSpaceOnUse"
       id="clipPath14026"><path
         d="M 0,1205.777 H 2738.234 V 0 H 0 Z"
         transform="translate(-2043.2346,-362.60451)"
         id="path14026" /></clipPath><clipPath
       clipPathUnits="userSpaceOnUse"
       id="clipPath14028"><path
         d="M 0,1205.777 H 2738.234 V 0 H 0 Z"
         transform="translate(-2043.2346,-363.60448)"
         id="path14028" /></clipPath><clipPath
       clipPathUnits="userSpaceOnUse"
       id="clipPath14030"><path
         d="M 0,1205.777 H 2738.234 V 0 H 0 Z"
         transform="translate(-2043.2346,-361.60453)"
         id="path14030" /></clipPath><clipPath
       clipPathUnits="userSpaceOnUse"
       id="clipPath14032"><path
         d="M 0,1205.777 H 2738.234 V 0 H 0 Z"
         transform="translate(0,2.5000001e-5)"
         id="path14032" /></clipPath><clipPath
       clipPathUnits="userSpaceOnUse"
       id="clipPath13990"><path
         d="M 0,1205.777 H 2738.234 V 0 H 0 Z"
         transform="translate(0,2.5000001e-5)"
         id="path13990" /></clipPath><clipPath
       clipPathUnits="userSpaceOnUse"
       id="clipPath13992"><path
         d="M 0,1205.777 H 2738.234 V 0 H 0 Z"
         transform="translate(-2031.2335,-371.35453)"
         id="path13992" /></clipPath><clipPath
       clipPathUnits="userSpaceOnUse"
       id="clipPath13994"><path
         d="M 0,1205.777 H 2738.234 V 0 H 0 Z"
         transform="translate(-2027.2345,-367.60453)"
         id="path13994" /></clipPath><clipPath
       clipPathUnits="userSpaceOnUse"
       id="clipPath13996"><path
         d="M 0,1205.777 H 2738.234 V 0 H 0 Z"
         transform="translate(-2027.2345,-369.60448)"
         id="path13996" /></clipPath><clipPath
       clipPathUnits="userSpaceOnUse"
       id="clipPath13998"><path
         d="M 0,1205.777 H 2738.234 V 0 H 0 Z"
         transform="translate(-2027.2345,-365.60451)"
         id="path13998" /></clipPath><clipPath
       clipPathUnits="userSpaceOnUse"
       id="clipPath14000"><path
         d="M 0,1205.777 H 2738.234 V 0 H 0 Z"
         transform="translate(-2027.2345,-366.60448)"
         id="path14000" /></clipPath><clipPath
       clipPathUnits="userSpaceOnUse"
       id="clipPath14002"><path
         d="M 0,1205.777 H 2738.234 V 0 H 0 Z"
         transform="translate(-2027.2345,-368.60451)"
         id="path14002" /></clipPath><clipPath
       clipPathUnits="userSpaceOnUse"
       id="clipPath14004"><path
         d="M 0,1205.777 H 2738.234 V 0 H 0 Z"
         transform="translate(-2027.2345,-364.60453)"
         id="path14004" /></clipPath><clipPath
       clipPathUnits="userSpaceOnUse"
       id="clipPath14006"><path
         d="M 0,1205.777 H 2738.234 V 0 H 0 Z"
         transform="translate(-2027.2345,-362.60451)"
         id="path14006" /></clipPath><clipPath
       clipPathUnits="userSpaceOnUse"
       id="clipPath14008"><path
         d="M 0,1205.777 H 2738.234 V 0 H 0 Z"
         transform="translate(-2027.2345,-363.60448)"
         id="path14008" /></clipPath><clipPath
       clipPathUnits="userSpaceOnUse"
       id="clipPath14010"><path
         d="M 0,1205.777 H 2738.234 V 0 H 0 Z"
         transform="translate(-2027.2345,-361.60453)"
         id="path14010" /></clipPath><clipPath
       clipPathUnits="userSpaceOnUse"
       id="clipPath14231"><path
         d="M 0,1205.777 H 2738.234 V 0 H 0 Z"
         transform="translate(-1915.4811,-288.42771)"
         id="path14231" /></clipPath><clipPath
       clipPathUnits="userSpaceOnUse"
       id="clipPath14233"><path
         d="M 0,1205.777 H 2738.234 V 0 H 0 Z"
         transform="translate(-1911.0541,-279.76431)"
         id="path14233" /></clipPath><clipPath
       clipPathUnits="userSpaceOnUse"
       id="clipPath14235"><path
         d="M 0,1205.777 H 2738.234 V 0 H 0 Z"
         transform="translate(-1920.9634,-285.42478)"
         id="path14235" /></clipPath><clipPath
       clipPathUnits="userSpaceOnUse"
       id="clipPath14237"><path
         d="M 0,1205.777 H 2738.234 V 0 H 0 Z"
         transform="translate(-1921.6683,-288.95803)"
         id="path14237" /></clipPath><clipPath
       clipPathUnits="userSpaceOnUse"
       id="clipPath13977"><path
         d="M 0,1205.777 H 2738.234 V 0 H 0 Z"
         transform="translate(-1915.2334,-400.89261)"
         id="path13977" /></clipPath><clipPath
       clipPathUnits="userSpaceOnUse"
       id="clipPath13979"><path
         d="M 0,1205.777 H 2738.234 V 0 H 0 Z"
         transform="translate(-1913.3274,-397.39941)"
         id="path13979" /></clipPath><clipPath
       clipPathUnits="userSpaceOnUse"
       id="clipPath13981"><path
         d="M 0,1205.777 H 2738.234 V 0 H 0 Z"
         transform="translate(-1914.9618,-399.03381)"
         id="path13981" /></clipPath><clipPath
       clipPathUnits="userSpaceOnUse"
       id="clipPath13983"><path
         d="M 0,1205.777 H 2738.234 V 0 H 0 Z"
         transform="translate(-1917.1405,-399.03381)"
         id="path13983" /></clipPath><clipPath
       clipPathUnits="userSpaceOnUse"
       id="clipPath13985"><path
         d="M 0,1205.777 H 2738.234 V 0 H 0 Z"
         transform="translate(-1918.7748,-397.39941)"
         id="path13985" /></clipPath><clipPath
       clipPathUnits="userSpaceOnUse"
       id="clipPath13774"><path
         d="M 0,1205.777 H 2738.234 V 0 H 0 Z"
         transform="translate(-1760.6592,-366.30583)"
         id="path13774" /></clipPath><clipPath
       clipPathUnits="userSpaceOnUse"
       id="clipPath13776"><path
         d="M 0,1205.777 H 2738.234 V 0 H 0 Z"
         transform="translate(-1754.7306,-365.85448)"
         id="path13776" /></clipPath><clipPath
       clipPathUnits="userSpaceOnUse"
       id="clipPath13778"><path
         d="M 0,1205.777 H 2738.234 V 0 H 0 Z"
         transform="translate(-1752.5308,-365.41933)"
         id="path13778" /></clipPath><clipPath
       clipPathUnits="userSpaceOnUse"
       id="clipPath13780"><path
         d="M 0,1205.777 H 2738.234 V 0 H 0 Z"
         transform="translate(-1757.9382,-365.28973)"
         id="path13780" /></clipPath><clipPath
       clipPathUnits="userSpaceOnUse"
       id="clipPath13782"><path
         d="M 0,1205.777 H 2738.234 V 0 H 0 Z"
         transform="translate(-1757.9382,-362.66743)"
         id="path13782" /></clipPath></defs><g
     id="c"><g
       id="d"><g
         id="g1"
         transform="translate(-3.0087335,-2.8571179)"><path
           style="color:#000000;fill:#000000 icc-color(Display, 0, 0, 0);stroke-linecap:round;stroke-miterlimit:10;stroke-dasharray:1.332, 1.776;-inkscape-stroke:none"
           d="m -5.4570312,-6.84375 -0.1484375,0.00195 -0.1503907,0.00391 -0.1484375,0.00977 -0.125,0.00977 a 0.5,0.5 0 0 0 -0.4550781,0.5410157 0.5,0.5 0 0 0 0.5410156,0.4570312 l 0.1132813,-0.00977 0.1230469,-0.00781 0.125,-0.00586 h 0.125 l 0.125,0.00195 0.1269531,0.00391 0.1269531,0.00781 0.1269531,0.011719 0.1269532,0.013672 0.1269531,0.017578 0.1289062,0.021484 0.1269532,0.023437 0.1152343,0.025391 a 0.5,0.5 0 0 0 0.59375,-0.3847656 0.5,0.5 0 0 0 -0.3828125,-0.59375 l -0.1289062,-0.027344 -0.1523438,-0.029297 -0.1523437,-0.023437 -0.1523438,-0.021484 -0.1523437,-0.017578 -0.1503906,-0.013672 -0.1523438,-0.00781 -0.1503906,-0.00586 z M -8.09375,-6.0898437 a 0.5,0.5 0 0 0 -0.3789063,0.046875 l -0.041016,0.023437 -0.1230469,0.074219 -0.1210937,0.076172 -0.1191406,0.080078 -0.1152344,0.082031 -0.1152344,0.083984 -0.1132812,0.087891 -0.109375,0.089844 -0.109375,0.091797 -0.1054688,0.095703 -0.1054687,0.097656 -0.1015625,0.1015625 -0.097656,0.1015625 -0.097656,0.1054687 -0.025391,0.03125 a 0.5,0.5 0 0 0 0.046875,0.7050781 0.5,0.5 0 0 0 0.7050782,-0.046875 l 0.017578,-0.021484 0.080078,-0.087891 0.083984,-0.083984 0.083984,-0.083984 0.085937,-0.082031 0.087891,-0.078125 0.091797,-0.078125 0.091797,-0.074219 0.09375,-0.074219 0.095703,-0.070312 0.097656,-0.068359 0.097656,-0.066406 0.1015625,-0.0625 0.1015625,-0.0625 0.03125,-0.017578 a 0.5,0.5 0 0 0 0.1875,-0.6816406 0.5,0.5 0 0 0 -0.3027344,-0.234375 z m 6.3105469,0.46875 a 0.5,0.5 0 0 0 -0.7011719,0.095703 0.5,0.5 0 0 0 0.095703,0.7011719 l 0.070312,0.054687 0.09375,0.074219 0.091797,0.078125 0.089844,0.078125 0.087891,0.082031 0.085937,0.082031 0.083984,0.085937 0.082031,0.087891 0.080078,0.087891 0.076172,0.091797 0.074219,0.091797 0.074219,0.09375 0.070312,0.095703 0.054687,0.080078 a 0.5,0.5 0 0 0 0.69726563,0.1230469 0.5,0.5 0 0 0 0.12304687,-0.6953125 l -0.0625,-0.089844 L -0.59960937,-4.4375 -0.6875,-4.5507812 -0.77734375,-4.6621094 -0.86914063,-4.7695312 -0.96484375,-4.8769531 -1.0625,-4.9804687 -1.1640625,-5.0839844 -1.265625,-5.1835937 -1.3710937,-5.28125 -1.4785156,-5.375 -1.5898437,-5.46875 -1.703125,-5.5585937 Z m -8.8124999,2.7050781 a 0.5,0.5 0 0 0 -0.613281,0.3515625 l -0.03516,0.1308593 -0.03711,0.1464844 -0.03125,0.1464844 -0.0293,0.1503906 -0.02344,0.1503907 -0.02149,0.1503906 -0.01563,0.1484375 -0.01367,0.1503906 -0.0098,0.1484375 -0.0039,0.1484375 -0.002,0.1484375 0.0039,0.14648438 0.0059,0.14648437 v 0.009766 a 0.5,0.5 0 0 0 0.533203,0.46484375 0.5,0.5 0 0 0 0.464844,-0.52929688 v -0.003906 l -0.0059,-0.1171875 -0.002,-0.12304688 0.002,-0.12109372 0.0039,-0.1230469 0.0078,-0.1230469 0.0098,-0.125 0.01367,-0.1230468 0.01758,-0.125 0.01953,-0.125 0.02539,-0.1230469 0.02539,-0.1230469 0.0293,-0.1210938 0.0332,-0.1171875 a 0.5,0.5 0 0 0 -0.351562,-0.6152343 z m 10.5253905,0.65625 a 0.5,0.5 0 0 0 -0.40820313,0.5761719 l 0.001953,0.00977 0.0175781,0.1191406 0.0136719,0.1191406 0.0117188,0.1191407 0.007813,0.1210937 0.005859,0.1210938 0.001953,0.12304682 -0.001953,0.12109375 -0.003906,0.12304688 -0.005859,0.12304688 -0.0117188,0.12304687 -0.0136719,0.125 -0.0175781,0.125 -0.0214844,0.13085938 a 0.5,0.5 0 0 0 0,0.0019531 L -0.515625,0.03710937 -0.54296875,0.15820312 -0.57226562,0.27929688 -0.60546875,0.40039063 -0.640625,0.51757812 -0.6796875,0.63476562 -0.72070312,0.75 -0.76367187,0.86523438 A 0.5,0.5 0 0 0 -0.47851563,1.5117187 0.5,0.5 0 0 0 0.16796875,1.2246094 l 0.0488281,-0.125 L 0.26757813,0.95898438 0.3125,0.81835938 0.35546875,0.67578125 0.39648438,0.53125 0.43164063,0.38476563 0.46289063,0.23632813 0.49023438,0.09375 a 0.5,0.5 0 0 0 0,-0.0078125 0.5,0.5 0 0 0 0.003906,-0.0058594 L 0.51757812,-0.0625 l 0.0195313,-0.15039063 0.0175781,-0.1484375 0.0117188,-0.15039062 0.009766,-0.1484375 0.003906,-0.1484375 0.001953,-0.1484375 L 0.58007812,-1.1035156 0.57226562,-1.25 0.5625,-1.3964844 0.54882812,-1.5429687 0.53125,-1.6875 0.51171875,-1.8300781 0.5078125,-1.8515625 a 0.5,0.5 0 0 0 -0.578125,-0.4082031 z m -10.0664065,3.359375 a 0.5,0.5 0 0 0 -0.380859,0.044922 0.5,0.5 0 0 0 -0.189453,0.6816407 l 0.06445,0.1152343 0.07422,0.1230469 0.07422,0.1210938 0.08008,0.1171875 0.08008,0.1171875 0.08594,0.1152344 0.08594,0.1132812 0.08984,0.1113281 0.09375,0.1074219 0.09375,0.1074219 0.099609,0.1035156 0.099609,0.1035156 0.1035156,0.099609 0.0625,0.056641 a 0.5,0.5 0 0 0 0.7050782,-0.027344 0.5,0.5 0 0 0 -0.027344,-0.7050781 l -0.052734,-0.050781 -0.085937,-0.082031 -0.083984,-0.085937 -0.082031,-0.087891 -0.078125,-0.087891 -0.078125,-0.091797 -0.074219,-0.091797 -0.072266,-0.09375 -0.070312,-0.095703 -0.068359,-0.097656 -0.066406,-0.097656 -0.0625,-0.1015625 -0.060547,-0.1015625 -0.058594,-0.1054687 a 0.5,0.5 0 0 0 -0.3007815,-0.234375 z m 8.5195315,1.3789062 a 0.5,0.5 0 0 0 -0.3574219,0.1347657 l -0.00586,0.00391 -0.087891,0.080078 -0.089844,0.078125 -0.091797,0.074219 -0.09375,0.072266 -0.095703,0.070312 -0.097656,0.068359 -0.099609,0.066406 -0.1015625,0.064453 -0.1015625,0.060547 -0.1035156,0.058594 -0.1054687,0.056641 -0.1054688,0.054687 -0.109375,0.050781 -0.048828,0.023437 A 0.5,0.5 0 0 0 -3.5644531,4.15625 0.5,0.5 0 0 0 -2.9042969,4.4082031 l 0.060547,-0.027344 0.1308594,-0.0625 0.1269531,-0.064453 0.1269531,-0.066406 0.1230469,-0.072266 0.1230469,-0.072266 0.1210937,-0.076172 0.1191407,-0.080078 0.1171875,-0.082031 0.1132812,-0.083984 0.1132813,-0.087891 0.1113281,-0.089844 0.1074219,-0.09375 0.1074218,-0.095703 0.013672,-0.011719 a 0.5,0.5 0 0 0 0.019531,-0.7070313 0.5,0.5 0 0 0 -0.3476563,-0.15625 z M -7,3.6835938 a 0.5,0.5 0 0 0 -0.6289062,0.3242187 0.5,0.5 0 0 0 0.3242187,0.6269531 l 0.1074219,0.035156 0.1464844,0.042969 0.1464843,0.039063 0.1484375,0.035156 0.1503907,0.033203 0.1523437,0.027344 0.1523438,0.025391 0.1523437,0.021484 0.1523438,0.017578 0.1523437,0.011719 0.1503906,0.00977 0.1503907,0.00586 0.1289062,0.00195 A 0.5,0.5 0 0 0 -4.90625,4.4472656 0.5,0.5 0 0 0 -5.4003906,3.9414063 l -0.1171875,-0.00195 -0.1269531,-0.00391 -0.125,-0.00781 L -5.8964844,3.9160156 -6.0253906,3.9023438 -6.1523437,3.8847656 -6.28125,3.8632813 -6.4082031,3.8398438 -6.5351562,3.8125 -6.6582031,3.7832031 -6.78125,3.75 -6.9042969,3.7148438 Z"
           id="path13773"
           transform="matrix(1.3333333,0,0,-1.3333333,20.2414,11.5883)" /><path
           style="color:#000000;fill:#000000 icc-color(Display, 0, 0, 0);stroke-linecap:round;stroke-linejoin:round;stroke-miterlimit:10;-inkscape-stroke:none"
           d="M -0.31640625,-0.31835938 -2.2851563,1.6367187 a 0.44999999,0.44999999 0 0 0 -0.00195,0.6347657 0.44999999,0.44999999 0 0 0 0.6367188,0.00195 L 0.31640625,0.31835938 a 0.44999999,0.44999999 0 0 0 0.001953,-0.63476563 0.44999999,0.44999999 0 0 0 -0.63476563,-0.001953 z"
           id="path13775"
           transform="matrix(1.3333333,0,0,-1.3333333,12.3367,12.1901)" /><path
           style="color:#000000;fill:#000000 icc-color(Display, 0, 0, 0);stroke-linecap:round;stroke-linejoin:round;stroke-miterlimit:10;-inkscape-stroke:none"
           d="M 0,-0.44921875 A 0.44999999,0.44999999 0 0 0 -0.44921875,0 V 2.6210938 A 0.45004499,0.45004499 0 0 0 0,3.0722656 H 2.640625 A 0.44999999,0.44999999 0 0 0 3.0898438,2.6210938 0.44999999,0.44999999 0 0 0 2.640625,2.171875 H 0.44921875 V 0 A 0.44999999,0.44999999 0 0 0 0,-0.44921875 Z"
           id="path13777"
           transform="matrix(1.3333333,0,0,-1.3333333,9.4036,12.7703)" /><path
           style="color:#000000;fill:#000000 icc-color(Display, 0, 0, 0);stroke-linecap:round;stroke-linejoin:round;stroke-miterlimit:10;-inkscape-stroke:none"
           d="m -2.640625,-3.0722656 a 0.44999999,0.44999999 0 0 0 -0.4492188,0.4511718 0.44999999,0.44999999 0 0 0 0.4492188,0.4492188 h 2.19140625 V 0 A 0.44999999,0.44999999 0 0 0 0,0.44921875 0.44999999,0.44999999 0 0 0 0.44921875,0 V -2.6210938 A 0.45004499,0.45004499 0 0 0 0,-3.0722656 Z"
           id="path13779"
           transform="matrix(1.3333333,0,0,-1.3333333,16.6134,12.9431)" /><path
           style="color:#000000;fill:#000000 icc-color(Display, 0, 0, 0);stroke-linecap:round;stroke-linejoin:round;stroke-miterlimit:10;-inkscape-stroke:none"
           d="M -0.31640625,-0.31835938 -2.2851563,1.6367187 a 0.44999999,0.44999999 0 0 0 -0.00195,0.6347657 0.44999999,0.44999999 0 0 0 0.6367188,0.00195 L 0.31640625,0.31835938 a 0.44999999,0.44999999 0 0 0 0.001953,-0.63476563 0.44999999,0.44999999 0 0 0 -0.63476563,-0.001953 z"
           id="path13781"
           transform="matrix(1.3333333,0,0,-1.3333333,16.6134,16.4395)" /></g></g></g></svg>
