<?xml version="1.0" encoding="UTF-8" standalone="no"?>
<svg
   id="b"
   width="20"
   height="20"
   viewBox="0 0 20 20"
   version="1.1"
   sodipodi:docname="effects-brightness.svg"
   inkscape:version="1.3.1 (91b66b0, 2023-11-16)"
   xml:space="preserve"
   xmlns:inkscape="http://www.inkscape.org/namespaces/inkscape"
   xmlns:sodipodi="http://sodipodi.sourceforge.net/DTD/sodipodi-0.dtd"
   xmlns="http://www.w3.org/2000/svg"
   xmlns:svg="http://www.w3.org/2000/svg"><sodipodi:namedview
     id="namedview3"
     pagecolor="#ffffff"
     bordercolor="#000000"
     borderopacity="0.25"
     inkscape:showpageshadow="2"
     inkscape:pageopacity="0.0"
     inkscape:pagecheckerboard="0"
     inkscape:deskcolor="#d1d1d1"
     inkscape:zoom="14.75"
     inkscape:cx="8.9491525"
     inkscape:cy="9.8983051"
     inkscape:window-width="1328"
     inkscape:window-height="605"
     inkscape:window-x="69"
     inkscape:window-y="267"
     inkscape:window-maximized="0"
     inkscape:current-layer="d" /><defs
     id="defs1"><style
       id="style1">.e{stroke:#000;stroke-linecap:round;stroke-linejoin:round;}.e,.f{fill:none;}.f{opacity:.2;stroke-width:0px;}</style><clipPath
       clipPathUnits="userSpaceOnUse"
       id="clipPath13578"><path
         d="M 0,1205.777 H 2738.234 V 0 H 0 Z"
         transform="translate(-1750.1958,-473.16941)"
         id="path13578" /></clipPath><clipPath
       clipPathUnits="userSpaceOnUse"
       id="clipPath13580"><path
         d="M 0,1205.777 H 2738.234 V 0 H 0 Z"
         transform="translate(-1755.2523,-482.35451)"
         id="path13580" /></clipPath><clipPath
       clipPathUnits="userSpaceOnUse"
       id="clipPath13582"><path
         d="M 0,1205.777 H 2738.234 V 0 H 0 Z"
         transform="translate(-1753.044,-479.21061)"
         id="path13582" /></clipPath><clipPath
       clipPathUnits="userSpaceOnUse"
       id="clipPath13694"><path
         d="M 0,1205.777 H 2738.234 V 0 H 0 Z"
         transform="translate(-1694.7306,-422.60451)"
         id="path13694" /></clipPath><clipPath
       clipPathUnits="userSpaceOnUse"
       id="clipPath13696"><path
         d="M 0,1205.777 H 2738.234 V 0 H 0 Z"
         transform="translate(-1692.729,-424.80839)"
         id="path13696" /></clipPath><clipPath
       clipPathUnits="userSpaceOnUse"
       id="clipPath13698"><path
         d="M 0,1205.777 H 2738.234 V 0 H 0 Z"
         transform="translate(-1694.7306,-436.10451)"
         id="path13698" /></clipPath><clipPath
       clipPathUnits="userSpaceOnUse"
       id="clipPath13700"><path
         d="M 0,1205.777 H 2738.234 V 0 H 0 Z"
         transform="translate(-1692.729,-433.90049)"
         id="path13700" /></clipPath><clipPath
       clipPathUnits="userSpaceOnUse"
       id="clipPath13702"><path
         d="M 0,1205.777 H 2738.234 V 0 H 0 Z"
         transform="translate(-1695.2346,-430.59944)"
         id="path13702" /></clipPath><clipPath
       clipPathUnits="userSpaceOnUse"
       id="clipPath13704"><path
         d="M 0,1205.777 H 2738.234 V 0 H 0 Z"
         transform="translate(-1686.2346,-427.04999)"
         id="path13704" /></clipPath><clipPath
       clipPathUnits="userSpaceOnUse"
       id="clipPath13706"><path
         d="M 0,1205.777 H 2738.234 V 0 H 0 Z"
         transform="translate(-1686.2346,-428.59529)"
         id="path13706" /></clipPath><clipPath
       clipPathUnits="userSpaceOnUse"
       id="clipPath13714"><path
         d="M 0,1205.777 H 2738.234 V 0 H 0 Z"
         transform="translate(-1641.2346,-434.35454)"
         id="path13714" /></clipPath><clipPath
       clipPathUnits="userSpaceOnUse"
       id="clipPath13710"><path
         d="M 0,1205.777 H 2738.234 V 0 H 0 Z"
         transform="translate(-1661.3688,-434.35454)"
         id="path13710" /></clipPath><clipPath
       clipPathUnits="userSpaceOnUse"
       id="clipPath1370"><path
         d="M 0,1205.777 H 2738.234 V 0 H 0 Z"
         transform="translate(-2652.6085,-953.81653)"
         id="path1370" /></clipPath><clipPath
       clipPathUnits="userSpaceOnUse"
       id="clipPath1372"><path
         d="M 0,1205.777 H 2738.234 V 0 H 0 Z"
         transform="translate(-2643.2344,-953.60452)"
         id="path1372" /></clipPath><clipPath
       clipPathUnits="userSpaceOnUse"
       id="clipPath4379"><path
         d="M 0,1205.777 H 2738.234 V 0 H 0 Z"
         transform="translate(-1926.0876,-576.35451)"
         id="path4379" /></clipPath><clipPath
       clipPathUnits="userSpaceOnUse"
       id="clipPath4383"><path
         d="M 0,1205.777 H 2738.234 V 0 H 0 Z"
         transform="translate(-1928.0082,-573.77712)"
         id="path4383" /></clipPath><clipPath
       clipPathUnits="userSpaceOnUse"
       id="clipPath4385"><path
         d="M 0,1205.777 H 2738.234 V 0 H 0 Z"
         transform="translate(-1925.7345,-570.39171)"
         id="path4385" /></clipPath><clipPath
       clipPathUnits="userSpaceOnUse"
       id="clipPath14142"><path
         d="M 0,1205.777 H 2738.234 V 0 H 0 Z"
         transform="translate(-1983.2281,-349.33701)"
         id="path14142" /></clipPath></defs><g
     id="c"><g
       id="d"><path
         id="path14141"
         d="M 0,0 C 0,0.138 0.049,0.256 0.147,0.354 0.245,0.452 0.363,0.501 0.501,0.501 H 1.74 C 1.875,0.501 1.991,0.452 2.089,0.354 2.187,0.256 2.236,0.138 2.236,0 2.236,-0.134 2.187,-0.251 2.089,-0.349 1.991,-0.447 1.875,-0.496 1.74,-0.496 H 0.501 c -0.138,0 -0.256,0.049 -0.354,0.147 C 0.049,-0.251 0,-0.134 0,0 m -1.17,-2.83 c 0.096,0.093 0.213,0.139 0.352,0.139 0.138,0 0.255,-0.046 0.351,-0.139 L 0.421,-3.717 C 0.517,-3.809 0.565,-3.925 0.565,-4.063 0.565,-4.201 0.517,-4.32 0.421,-4.42 0.325,-4.512 0.208,-4.56 0.069,-4.561 c -0.138,-0.002 -0.255,0.043 -0.351,0.135 l -0.888,0.893 c -0.096,0.092 -0.144,0.208 -0.144,0.346 0,0.138 0.048,0.257 0.144,0.357 m 0,5.66 c -0.096,0.096 -0.144,0.213 -0.144,0.351 0,0.138 0.048,0.256 0.144,0.352 l 0.888,0.887 c 0.096,0.096 0.213,0.144 0.351,0.144 0.139,0 0.256,-0.048 0.352,-0.144 C 0.517,4.324 0.565,4.206 0.565,4.066 0.565,3.926 0.517,3.807 0.421,3.711 L -0.461,2.83 C -0.557,2.73 -0.675,2.681 -0.815,2.683 -0.956,2.685 -1.074,2.734 -1.17,2.83 m -2.824,-6.841 c 0.135,0 0.251,-0.049 0.349,-0.147 0.098,-0.098 0.147,-0.214 0.147,-0.349 v -1.244 c 0,-0.135 -0.049,-0.251 -0.147,-0.349 -0.098,-0.098 -0.214,-0.147 -0.349,-0.147 -0.138,0 -0.256,0.049 -0.354,0.147 -0.098,0.098 -0.147,0.214 -0.147,0.349 v 1.244 c 0,0.135 0.049,0.251 0.147,0.349 0.098,0.098 0.216,0.147 0.354,0.147 m 0,8.022 c -0.138,0 -0.256,0.049 -0.354,0.147 -0.098,0.098 -0.147,0.216 -0.147,0.354 v 1.239 c 0,0.139 0.049,0.257 0.147,0.355 0.098,0.098 0.216,0.147 0.354,0.147 0.135,0 0.251,-0.049 0.349,-0.147 0.098,-0.098 0.147,-0.216 0.147,-0.355 V 4.512 C -3.498,4.374 -3.547,4.256 -3.645,4.158 -3.743,4.06 -3.859,4.011 -3.994,4.011 M -4,-2.933 c -0.403,0 -0.782,0.075 -1.138,0.227 -0.355,0.152 -0.667,0.362 -0.936,0.631 -0.269,0.269 -0.479,0.581 -0.631,0.937 -0.152,0.355 -0.228,0.735 -0.228,1.138 0,0.407 0.076,0.788 0.228,1.141 0.152,0.354 0.362,0.665 0.631,0.934 0.269,0.269 0.581,0.48 0.936,0.634 0.356,0.153 0.735,0.23 1.138,0.23 0.404,0 0.783,-0.077 1.139,-0.23 0.355,-0.154 0.667,-0.365 0.936,-0.634 0.269,-0.269 0.479,-0.58 0.631,-0.934 0.152,-0.353 0.228,-0.734 0.228,-1.141 0,-0.403 -0.076,-0.783 -0.228,-1.138 C -1.446,-1.494 -1.656,-1.806 -1.925,-2.075 -2.194,-2.344 -2.506,-2.554 -2.861,-2.706 -3.217,-2.858 -3.596,-2.933 -4,-2.933 M -6.829,2.83 C -6.925,2.734 -7.042,2.686 -7.181,2.686 c -0.138,0 -0.255,0.048 -0.351,0.144 l -0.882,0.887 c -0.092,0.092 -0.138,0.209 -0.138,0.349 0,0.14 0.048,0.258 0.144,0.354 0.096,0.096 0.214,0.143 0.354,0.141 0.14,-0.001 0.257,-0.049 0.349,-0.141 l 0.882,-0.887 c 0.092,-0.092 0.138,-0.21 0.138,-0.352 0,-0.142 -0.048,-0.259 -0.144,-0.351 m 0.006,-5.66 c 0.092,-0.1 0.138,-0.219 0.138,-0.357 0,-0.138 -0.048,-0.254 -0.144,-0.346 L -7.711,-4.42 c -0.096,-0.092 -0.214,-0.138 -0.354,-0.136 -0.141,0.002 -0.259,0.049 -0.355,0.142 -0.092,0.099 -0.138,0.219 -0.138,0.357 0,0.138 0.048,0.253 0.144,0.346 l 0.882,0.881 c 0.096,0.093 0.214,0.139 0.354,0.139 0.14,0 0.259,-0.046 0.355,-0.139 M -7.993,0 c 0,-0.134 -0.049,-0.251 -0.147,-0.349 -0.098,-0.098 -0.216,-0.147 -0.355,-0.147 h -1.239 c -0.134,0 -0.25,0.049 -0.348,0.147 -0.098,0.098 -0.147,0.215 -0.147,0.349 0,0.138 0.049,0.256 0.147,0.354 0.098,0.098 0.214,0.147 0.348,0.147 h 1.239 c 0.139,0 0.257,-0.049 0.355,-0.147 C -8.042,0.256 -7.993,0.138 -7.993,0"
         style="fill:#000000 icc-color(Display, 0, 0, 0);fill-opacity:1;fill-rule:nonzero;stroke:none"
         transform="matrix(1.3333333,0,0,-1.3333333,15.328667,10.004)"
         clip-path="url(#clipPath14142)" /></g></g></svg>
