<?xml version="1.0" encoding="UTF-8" standalone="no"?>
<svg
   id="b"
   width="20"
   height="20"
   viewBox="0 0 20 20"
   version="1.1"
   sodipodi:docname="view-handmade.svg"
   inkscape:version="1.3.1 (91b66b0, 2023-11-16)"
   xml:space="preserve"
   xmlns:inkscape="http://www.inkscape.org/namespaces/inkscape"
   xmlns:sodipodi="http://sodipodi.sourceforge.net/DTD/sodipodi-0.dtd"
   xmlns="http://www.w3.org/2000/svg"
   xmlns:svg="http://www.w3.org/2000/svg"><sodipodi:namedview
     id="namedview3"
     pagecolor="#ffffff"
     bordercolor="#000000"
     borderopacity="0.25"
     inkscape:showpageshadow="2"
     inkscape:pageopacity="0.0"
     inkscape:pagecheckerboard="0"
     inkscape:deskcolor="#d1d1d1"
     inkscape:zoom="9.508131"
     inkscape:cx="1.2094911"
     inkscape:cy="4.7327913"
     inkscape:window-width="1328"
     inkscape:window-height="605"
     inkscape:window-x="68"
     inkscape:window-y="267"
     inkscape:window-maximized="0"
     inkscape:current-layer="g13922" /><defs
     id="defs1"><style
       id="style1">.e{stroke:#000;stroke-linecap:round;stroke-linejoin:round;}.e,.f{fill:none;}.f{opacity:.2;stroke-width:0px;}</style><clipPath
       clipPathUnits="userSpaceOnUse"
       id="clipPath13578"><path
         d="M 0,1205.777 H 2738.234 V 0 H 0 Z"
         transform="translate(-1750.1958,-473.16941)"
         id="path13578" /></clipPath><clipPath
       clipPathUnits="userSpaceOnUse"
       id="clipPath13580"><path
         d="M 0,1205.777 H 2738.234 V 0 H 0 Z"
         transform="translate(-1755.2523,-482.35451)"
         id="path13580" /></clipPath><clipPath
       clipPathUnits="userSpaceOnUse"
       id="clipPath13582"><path
         d="M 0,1205.777 H 2738.234 V 0 H 0 Z"
         transform="translate(-1753.044,-479.21061)"
         id="path13582" /></clipPath><clipPath
       clipPathUnits="userSpaceOnUse"
       id="clipPath13694"><path
         d="M 0,1205.777 H 2738.234 V 0 H 0 Z"
         transform="translate(-1694.7306,-422.60451)"
         id="path13694" /></clipPath><clipPath
       clipPathUnits="userSpaceOnUse"
       id="clipPath13696"><path
         d="M 0,1205.777 H 2738.234 V 0 H 0 Z"
         transform="translate(-1692.729,-424.80839)"
         id="path13696" /></clipPath><clipPath
       clipPathUnits="userSpaceOnUse"
       id="clipPath13698"><path
         d="M 0,1205.777 H 2738.234 V 0 H 0 Z"
         transform="translate(-1694.7306,-436.10451)"
         id="path13698" /></clipPath><clipPath
       clipPathUnits="userSpaceOnUse"
       id="clipPath13700"><path
         d="M 0,1205.777 H 2738.234 V 0 H 0 Z"
         transform="translate(-1692.729,-433.90049)"
         id="path13700" /></clipPath><clipPath
       clipPathUnits="userSpaceOnUse"
       id="clipPath13702"><path
         d="M 0,1205.777 H 2738.234 V 0 H 0 Z"
         transform="translate(-1695.2346,-430.59944)"
         id="path13702" /></clipPath><clipPath
       clipPathUnits="userSpaceOnUse"
       id="clipPath13704"><path
         d="M 0,1205.777 H 2738.234 V 0 H 0 Z"
         transform="translate(-1686.2346,-427.04999)"
         id="path13704" /></clipPath><clipPath
       clipPathUnits="userSpaceOnUse"
       id="clipPath13706"><path
         d="M 0,1205.777 H 2738.234 V 0 H 0 Z"
         transform="translate(-1686.2346,-428.59529)"
         id="path13706" /></clipPath><clipPath
       clipPathUnits="userSpaceOnUse"
       id="clipPath13714"><path
         d="M 0,1205.777 H 2738.234 V 0 H 0 Z"
         transform="translate(-1641.2346,-434.35454)"
         id="path13714" /></clipPath><clipPath
       clipPathUnits="userSpaceOnUse"
       id="clipPath13710"><path
         d="M 0,1205.777 H 2738.234 V 0 H 0 Z"
         transform="translate(-1661.3688,-434.35454)"
         id="path13710" /></clipPath><clipPath
       clipPathUnits="userSpaceOnUse"
       id="clipPath1370"><path
         d="M 0,1205.777 H 2738.234 V 0 H 0 Z"
         transform="translate(-2652.6085,-953.81653)"
         id="path1370" /></clipPath><clipPath
       clipPathUnits="userSpaceOnUse"
       id="clipPath1372"><path
         d="M 0,1205.777 H 2738.234 V 0 H 0 Z"
         transform="translate(-2643.2344,-953.60452)"
         id="path1372" /></clipPath><clipPath
       clipPathUnits="userSpaceOnUse"
       id="clipPath4379"><path
         d="M 0,1205.777 H 2738.234 V 0 H 0 Z"
         transform="translate(-1926.0876,-576.35451)"
         id="path4379" /></clipPath><clipPath
       clipPathUnits="userSpaceOnUse"
       id="clipPath4383"><path
         d="M 0,1205.777 H 2738.234 V 0 H 0 Z"
         transform="translate(-1928.0082,-573.77712)"
         id="path4383" /></clipPath><clipPath
       clipPathUnits="userSpaceOnUse"
       id="clipPath4385"><path
         d="M 0,1205.777 H 2738.234 V 0 H 0 Z"
         transform="translate(-1925.7345,-570.39171)"
         id="path4385" /></clipPath><clipPath
       clipPathUnits="userSpaceOnUse"
       id="clipPath14142"><path
         d="M 0,1205.777 H 2738.234 V 0 H 0 Z"
         transform="translate(-1983.2281,-349.33701)"
         id="path14142" /></clipPath><clipPath
       clipPathUnits="userSpaceOnUse"
       id="clipPath14138"><path
         d="M 0,1205.777 H 2738.234 V 0 H 0 Z"
         transform="translate(-1995.2346,-354.85453)"
         id="path14138" /></clipPath><clipPath
       clipPathUnits="userSpaceOnUse"
       id="clipPath14140"><path
         d="M 0,1205.777 H 2738.234 V 0 H 0 Z"
         transform="translate(-1995.2346,-354.85453)"
         id="path14140" /></clipPath><clipPath
       clipPathUnits="userSpaceOnUse"
       id="clipPath14130"><path
         d="M 0,1205.777 H 2738.234 V 0 H 0 Z"
         transform="translate(0,2.5000001e-5)"
         id="path14130" /></clipPath><clipPath
       clipPathUnits="userSpaceOnUse"
       id="clipPath14132"><path
         d="M 0,1205.777 H 2738.234 V 0 H 0 Z"
         transform="translate(0,2.5000001e-5)"
         id="path14132" /></clipPath><clipPath
       clipPathUnits="userSpaceOnUse"
       id="clipPath14134"><path
         d="M 0,1205.777 H 2738.234 V 0 H 0 Z"
         transform="translate(0,2.5000001e-5)"
         id="path14134" /></clipPath><clipPath
       clipPathUnits="userSpaceOnUse"
       id="clipPath14136"><path
         d="M 0,1205.777 H 2738.234 V 0 H 0 Z"
         transform="translate(0,2.5000001e-5)"
         id="path14136" /></clipPath><clipPath
       clipPathUnits="userSpaceOnUse"
       id="clipPath14080"><path
         d="M 0,1205.777 H 2738.234 V 0 H 0 Z"
         transform="translate(-2065.1529,-382.48348)"
         id="path14080" /></clipPath><clipPath
       clipPathUnits="userSpaceOnUse"
       id="clipPath13542"><path
         d="M 0,1205.777 H 2738.234 V 0 H 0 Z"
         transform="translate(-1664.7345,-477.35451)"
         id="path13542" /></clipPath><clipPath
       clipPathUnits="userSpaceOnUse"
       id="clipPath13544"><path
         d="M 0,1205.777 H 2738.234 V 0 H 0 Z"
         transform="translate(-1658.787,-476.35451)"
         id="path13544" /></clipPath><clipPath
       clipPathUnits="userSpaceOnUse"
       id="clipPath13546"><path
         d="M 0,1205.777 H 2738.234 V 0 H 0 Z"
         transform="translate(-1659.8134,-479.72321)"
         id="path13546" /></clipPath><clipPath
       clipPathUnits="userSpaceOnUse"
       id="clipPath14012"><path
         d="M 0,1205.777 H 2738.234 V 0 H 0 Z"
         transform="translate(-2047.2336,-371.35453)"
         id="path14012" /></clipPath><clipPath
       clipPathUnits="userSpaceOnUse"
       id="clipPath14014"><path
         d="M 0,1205.777 H 2738.234 V 0 H 0 Z"
         transform="translate(-2043.2346,-367.60453)"
         id="path14014" /></clipPath><clipPath
       clipPathUnits="userSpaceOnUse"
       id="clipPath14016"><path
         d="M 0,1205.777 H 2738.234 V 0 H 0 Z"
         transform="translate(-2043.2346,-369.60448)"
         id="path14016" /></clipPath><clipPath
       clipPathUnits="userSpaceOnUse"
       id="clipPath14018"><path
         d="M 0,1205.777 H 2738.234 V 0 H 0 Z"
         transform="translate(-2043.2346,-365.60451)"
         id="path14018" /></clipPath><clipPath
       clipPathUnits="userSpaceOnUse"
       id="clipPath14020"><path
         d="M 0,1205.777 H 2738.234 V 0 H 0 Z"
         transform="translate(-2043.2346,-366.60448)"
         id="path14020" /></clipPath><clipPath
       clipPathUnits="userSpaceOnUse"
       id="clipPath14022"><path
         d="M 0,1205.777 H 2738.234 V 0 H 0 Z"
         transform="translate(-2043.2346,-368.60451)"
         id="path14022" /></clipPath><clipPath
       clipPathUnits="userSpaceOnUse"
       id="clipPath14024"><path
         d="M 0,1205.777 H 2738.234 V 0 H 0 Z"
         transform="translate(-2043.2346,-364.60453)"
         id="path14024" /></clipPath><clipPath
       clipPathUnits="userSpaceOnUse"
       id="clipPath14026"><path
         d="M 0,1205.777 H 2738.234 V 0 H 0 Z"
         transform="translate(-2043.2346,-362.60451)"
         id="path14026" /></clipPath><clipPath
       clipPathUnits="userSpaceOnUse"
       id="clipPath14028"><path
         d="M 0,1205.777 H 2738.234 V 0 H 0 Z"
         transform="translate(-2043.2346,-363.60448)"
         id="path14028" /></clipPath><clipPath
       clipPathUnits="userSpaceOnUse"
       id="clipPath14030"><path
         d="M 0,1205.777 H 2738.234 V 0 H 0 Z"
         transform="translate(-2043.2346,-361.60453)"
         id="path14030" /></clipPath><clipPath
       clipPathUnits="userSpaceOnUse"
       id="clipPath14032"><path
         d="M 0,1205.777 H 2738.234 V 0 H 0 Z"
         transform="translate(0,2.5000001e-5)"
         id="path14032" /></clipPath><clipPath
       clipPathUnits="userSpaceOnUse"
       id="clipPath13990"><path
         d="M 0,1205.777 H 2738.234 V 0 H 0 Z"
         transform="translate(0,2.5000001e-5)"
         id="path13990" /></clipPath><clipPath
       clipPathUnits="userSpaceOnUse"
       id="clipPath13992"><path
         d="M 0,1205.777 H 2738.234 V 0 H 0 Z"
         transform="translate(-2031.2335,-371.35453)"
         id="path13992" /></clipPath><clipPath
       clipPathUnits="userSpaceOnUse"
       id="clipPath13994"><path
         d="M 0,1205.777 H 2738.234 V 0 H 0 Z"
         transform="translate(-2027.2345,-367.60453)"
         id="path13994" /></clipPath><clipPath
       clipPathUnits="userSpaceOnUse"
       id="clipPath13996"><path
         d="M 0,1205.777 H 2738.234 V 0 H 0 Z"
         transform="translate(-2027.2345,-369.60448)"
         id="path13996" /></clipPath><clipPath
       clipPathUnits="userSpaceOnUse"
       id="clipPath13998"><path
         d="M 0,1205.777 H 2738.234 V 0 H 0 Z"
         transform="translate(-2027.2345,-365.60451)"
         id="path13998" /></clipPath><clipPath
       clipPathUnits="userSpaceOnUse"
       id="clipPath14000"><path
         d="M 0,1205.777 H 2738.234 V 0 H 0 Z"
         transform="translate(-2027.2345,-366.60448)"
         id="path14000" /></clipPath><clipPath
       clipPathUnits="userSpaceOnUse"
       id="clipPath14002"><path
         d="M 0,1205.777 H 2738.234 V 0 H 0 Z"
         transform="translate(-2027.2345,-368.60451)"
         id="path14002" /></clipPath><clipPath
       clipPathUnits="userSpaceOnUse"
       id="clipPath14004"><path
         d="M 0,1205.777 H 2738.234 V 0 H 0 Z"
         transform="translate(-2027.2345,-364.60453)"
         id="path14004" /></clipPath><clipPath
       clipPathUnits="userSpaceOnUse"
       id="clipPath14006"><path
         d="M 0,1205.777 H 2738.234 V 0 H 0 Z"
         transform="translate(-2027.2345,-362.60451)"
         id="path14006" /></clipPath><clipPath
       clipPathUnits="userSpaceOnUse"
       id="clipPath14008"><path
         d="M 0,1205.777 H 2738.234 V 0 H 0 Z"
         transform="translate(-2027.2345,-363.60448)"
         id="path14008" /></clipPath><clipPath
       clipPathUnits="userSpaceOnUse"
       id="clipPath14010"><path
         d="M 0,1205.777 H 2738.234 V 0 H 0 Z"
         transform="translate(-2027.2345,-361.60453)"
         id="path14010" /></clipPath><clipPath
       clipPathUnits="userSpaceOnUse"
       id="clipPath14231"><path
         d="M 0,1205.777 H 2738.234 V 0 H 0 Z"
         transform="translate(-1915.4811,-288.42771)"
         id="path14231" /></clipPath><clipPath
       clipPathUnits="userSpaceOnUse"
       id="clipPath14233"><path
         d="M 0,1205.777 H 2738.234 V 0 H 0 Z"
         transform="translate(-1911.0541,-279.76431)"
         id="path14233" /></clipPath><clipPath
       clipPathUnits="userSpaceOnUse"
       id="clipPath14235"><path
         d="M 0,1205.777 H 2738.234 V 0 H 0 Z"
         transform="translate(-1920.9634,-285.42478)"
         id="path14235" /></clipPath><clipPath
       clipPathUnits="userSpaceOnUse"
       id="clipPath14237"><path
         d="M 0,1205.777 H 2738.234 V 0 H 0 Z"
         transform="translate(-1921.6683,-288.95803)"
         id="path14237" /></clipPath><clipPath
       clipPathUnits="userSpaceOnUse"
       id="clipPath13760"><path
         d="M 0,1205.777 H 2738.234 V 0 H 0 Z"
         transform="translate(-1735.9899,-366.79941)"
         id="path13760" /></clipPath><clipPath
       clipPathUnits="userSpaceOnUse"
       id="clipPath13762"><path
         d="M 0,1205.777 H 2738.234 V 0 H 0 Z"
         transform="translate(-1744.467,-367.82773)"
         id="path13762" /></clipPath><clipPath
       clipPathUnits="userSpaceOnUse"
       id="clipPath13790"><path
         d="M 0,1205.777 H 2738.234 V 0 H 0 Z"
         transform="translate(-1773.2346,-407.35454)"
         id="path13790" /></clipPath><clipPath
       clipPathUnits="userSpaceOnUse"
       id="clipPath13788"><path
         d="M 0,1205.777 H 2738.234 V 0 H 0 Z"
         transform="translate(-1775.2345,-414.35451)"
         id="path13788" /></clipPath><clipPath
       clipPathUnits="userSpaceOnUse"
       id="clipPath13794"><path
         d="M 0,1205.777 H 2738.234 V 0 H 0 Z"
         transform="translate(-1794.2346,-419.35454)"
         id="path13794" /></clipPath><clipPath
       clipPathUnits="userSpaceOnUse"
       id="clipPath13792"><path
         d="M 0,1205.777 H 2738.234 V 0 H 0 Z"
         transform="translate(-1791.3366,-412.35449)"
         id="path13792" /></clipPath><linearGradient
       x1="0"
       y1="0"
       x2="1"
       y2="0"
       gradientUnits="userSpaceOnUse"
       gradientTransform="matrix(-8.2937845,0,0,-6.5310727,19.717779,5.2827024)"
       spreadMethod="pad"
       id="linearGradient14225"><stop
         style="stop-opacity:1;stop-color:#ffffff icc-color(Display, 1, 1, 1);"
         offset="0"
         id="stop14223" /><stop
         style="stop-opacity:1;stop-color:#ffffff icc-color(Display, 1, 1, 1);"
         offset="0.22026074"
         id="stop14224" /><stop
         style="stop-opacity:1;stop-color:#000000 icc-color(Display, 0, 0, 0);"
         offset="1"
         id="stop14225" /></linearGradient><clipPath
       clipPathUnits="userSpaceOnUse"
       id="clipPath13909"><path
         d="M 0,1205.777 H 2738.234 V 0 H 0 Z"
         transform="translate(0,2.5000001e-5)"
         id="path13909" /></clipPath><clipPath
       clipPathUnits="userSpaceOnUse"
       id="clipPath13911"><path
         d="M 0,1205.777 H 2738.234 V 0 H 0 Z"
         transform="translate(-1867.6425,-434.32371)"
         id="path13911" /></clipPath><clipPath
       clipPathUnits="userSpaceOnUse"
       id="clipPath13972"><path
         d="M 0,1205.777 H 2738.234 V 0 H 0 Z"
         transform="translate(-1953.4158,-416.41049)"
         id="path13972" /></clipPath><clipPath
       clipPathUnits="userSpaceOnUse"
       id="clipPath13974"><path
         d="M 0,1205.777 H 2738.234 V 0 H 0 Z"
         transform="translate(-1941.8937,-409.69784)"
         id="path13974" /></clipPath><clipPath
       clipPathUnits="userSpaceOnUse"
       id="clipPath13889"><path
         d="M 0,1205.777 H 2738.234 V 0 H 0 Z"
         transform="translate(-1878.5985,-429.23504)"
         id="path13889" /></clipPath><clipPath
       clipPathUnits="userSpaceOnUse"
       id="clipPath13891"><path
         d="M 0,1205.777 H 2738.234 V 0 H 0 Z"
         transform="translate(-1880.8119,-426.10131)"
         id="path13891" /></clipPath><clipPath
       clipPathUnits="userSpaceOnUse"
       id="clipPath13893"><path
         d="M 0,1205.777 H 2738.234 V 0 H 0 Z"
         transform="translate(-1884.2376,-424.15994)"
         id="path13893" /></clipPath><clipPath
       clipPathUnits="userSpaceOnUse"
       id="clipPath13927"><path
         d="M 0,1205.777 H 2738.234 V 0 H 0 Z"
         transform="matrix(1.3333333,0,0,-1.3333333,0,1607.7067)"
         id="path13927" /></clipPath><clipPath
       clipPathUnits="userSpaceOnUse"
       id="clipPath13913"><path
         d="m 1861.71,419.14 h 11.49 v -10.969 h -11.49 z"
         transform="matrix(1.3333333,0,0,-1.3333333,0,1607.7067)"
         id="path13913" /></clipPath><clipPath
       clipPathUnits="userSpaceOnUse"
       id="clipPath13912"><path
         d="m 1861.71,419.14 h 7.54 v -7.547 h -7.54 z"
         transform="translate(-1862.1579,-412.04301)"
         id="path13912" /></clipPath><clipPath
       clipPathUnits="userSpaceOnUse"
       id="clipPath13915"><path
         d="m 1861.71,419.14 h 11.49 v -10.969 h -11.49 z"
         transform="matrix(1.3333333,0,0,-1.3333333,0,1607.7067)"
         id="path13915" /></clipPath><clipPath
       clipPathUnits="userSpaceOnUse"
       id="clipPath13914"><path
         d="m 1861.95,416.679 h 8.29 v -5.885 h -8.29 z"
         transform="translate(-1862.4027,-411.24374)"
         id="path13914" /></clipPath><clipPath
       clipPathUnits="userSpaceOnUse"
       id="clipPath13917"><path
         d="m 1861.71,419.14 h 11.49 v -10.969 h -11.49 z"
         transform="matrix(1.3333333,0,0,-1.3333333,0,1607.7067)"
         id="path13917" /></clipPath><clipPath
       clipPathUnits="userSpaceOnUse"
       id="clipPath13916"><path
         d="m 1862.2,414.218 h 9.03 v -4.224 h -9.03 z"
         transform="translate(-1862.6472,-410.44431)"
         id="path13916" /></clipPath><clipPath
       clipPathUnits="userSpaceOnUse"
       id="clipPath13919"><path
         d="m 1861.71,419.14 h 11.49 v -10.969 h -11.49 z"
         transform="matrix(1.3333333,0,0,-1.3333333,0,1607.7067)"
         id="path13919" /></clipPath><clipPath
       clipPathUnits="userSpaceOnUse"
       id="clipPath13918"><path
         d="m 1862.44,411.756 h 9.78 v -2.561 h -9.78 z"
         transform="translate(-1862.892,-409.64504)"
         id="path13918" /></clipPath><clipPath
       clipPathUnits="userSpaceOnUse"
       id="clipPath13921"><path
         d="m 1861.71,419.14 h 11.49 v -10.969 h -11.49 z"
         transform="matrix(1.3333333,0,0,-1.3333333,0,1607.7067)"
         id="path13921" /></clipPath><clipPath
       clipPathUnits="userSpaceOnUse"
       id="clipPath13920"><path
         d="m 1862.69,409.296 h 10.51 v -1.125 h -10.51 z"
         transform="translate(-1863.1366,-408.84561)"
         id="path13920" /></clipPath></defs><g
     id="c"><g
       id="d"><g
         id="g11"
         transform="translate(4.045354,4.4739666)"><g
           id="g13927"
           clip-path="url(#clipPath13927)"
           transform="translate(-2483.9853,-1050.64)"><g
             clip-path="url(#clipPath13913)"
             id="g13922"><path
               style="color:#000000;fill:#000000 icc-color(Display, 0, 0, 0);stroke-linecap:round;stroke-miterlimit:10;-inkscape-stroke:none"
               d="m 0.04296875,-0.44726563 a 0.44999999,0.44999999 0 0 0 -0.33007813,0.0996094 0.44999999,0.44999999 0 0 0 -0.0605469,0.63476563 C 1.967055,3.0903476 4.3337253,5.4590676 6.375,7.0058594 A 0.44999999,0.44999999 0 0 0 7.0039062,6.9179687 0.44999999,0.44999999 0 0 0 6.9179687,6.2890625 C 4.9632475,4.8078573 2.6289404,2.4756468 0.34765625,-0.28710938 a 0.44999999,0.44999999 0 0 0 -0.3046875,-0.16015625 z"
               id="path13922"
               transform="matrix(1.3333333,0,0,-1.3333333,2482.8771,1058.316)" /></g><g
             clip-path="url(#clipPath13915)"
             id="g13923"><path
               style="color:#000000;fill:#000000 icc-color(Display, 0, 0, 0);stroke-linecap:round;stroke-miterlimit:10;-inkscape-stroke:none"
               d="m 0.2734375,-0.35742188 a 0.44999999,0.44999999 0 0 0 -0.63085938,0.0839844 0.44999999,0.44999999 0 0 0 0.0839844,0.63085938 C 2.3815342,2.3793004 5.0079302,4.152189 7.1679687,5.3769531 A 0.44999999,0.44999999 0 0 0 7.78125,5.2070312 0.44999999,0.44999999 0 0 0 7.6113281,4.59375 C 5.503371,3.3985166 2.9024605,1.6446955 0.2734375,-0.35742188 Z"
               id="path13923"
               transform="matrix(1.3333333,0,0,-1.3333333,2483.2035,1059.3817)" /></g><g
             clip-path="url(#clipPath13917)"
             id="g13924"><path
               style="color:#000000;fill:#000000 icc-color(Display, 0, 0, 0);stroke-linecap:round;stroke-miterlimit:10;-inkscape-stroke:none"
               d="M -0.171875,-0.41601563 A 0.44999999,0.44999999 0 0 0 -0.41601563,-0.171875 0.44999999,0.44999999 0 0 0 -0.171875,0.41601563 C 2.8166618,1.6576541 5.6931191,2.8321452 7.9648437,3.7402344 a 0.44999999,0.44999999 0 0 0 0.5839844,-0.25 0.44999999,0.44999999 0 0 0 -0.25,-0.5859375 C 6.0325573,1.9983878 3.1573322,0.82434339 0.171875,-0.41601563 a 0.44999999,0.44999999 0 0 0 -0.34375,0 z"
               id="path13924"
               transform="matrix(1.3333333,0,0,-1.3333333,2483.5296,1060.4476)" /></g><g
             clip-path="url(#clipPath13919)"
             id="g13925"><path
               style="color:#000000;fill:#000000 icc-color(Display, 0, 0, 0);stroke-linecap:round;stroke-miterlimit:10;-inkscape-stroke:none"
               d="M 0.0625,-0.4453125 A 0.44999999,0.44999999 0 0 0 -0.4453125,-0.0625 0.44999999,0.44999999 0 0 0 -0.0625,0.4453125 C 3.2559691,0.91454065 6.3814173,1.5003592 8.7636719,2.0976563 A 0.44999999,0.44999999 0 0 0 9.3105469,1.7695312 0.44999999,0.44999999 0 0 0 8.984375,1.2246094 C 6.5566344,0.61590767 3.4060242,0.02745841 0.0625,-0.4453125 Z"
               id="path13925"
               transform="matrix(1.3333333,0,0,-1.3333333,2483.856,1061.5133)" /></g><g
             clip-path="url(#clipPath13921)"
             id="g13926"><path
               style="color:#000000;fill:#000000 icc-color(Display, 0, 0, 0);stroke-linecap:round;stroke-miterlimit:10;-inkscape-stroke:none"
               d="M -0.03710937,-0.44921875 A 0.44999999,0.44999999 0 0 0 -0.44921875,0.03710937 0.44999999,0.44999999 0 0 0 0.03710937,0.44921875 C 3.6896665,0.15105082 7.0697397,0.15175905 9.5644531,0.4453125 A 0.44999999,0.44999999 0 0 0 10.064453,0.05078125 0.44999999,0.44999999 0 0 0 9.6699219,-0.44726563 c -2.5872815,-0.30444595 -6.0095958,-0.30378459 -9.70703127,-0.001953 z"
               id="path13926"
               transform="matrix(1.3333333,0,0,-1.3333333,2484.1821,1062.5792)" /></g></g></g></g></g></svg>
