<?xml version="1.0" encoding="UTF-8" standalone="no"?>
<svg
   id="b"
   width="20"
   height="20"
   viewBox="0 0 20 20"
   version="1.1"
   sodipodi:docname="view-min-thickness.svg"
   inkscape:version="1.3.1 (91b66b0, 2023-11-16)"
   xml:space="preserve"
   xmlns:inkscape="http://www.inkscape.org/namespaces/inkscape"
   xmlns:sodipodi="http://sodipodi.sourceforge.net/DTD/sodipodi-0.dtd"
   xmlns="http://www.w3.org/2000/svg"
   xmlns:svg="http://www.w3.org/2000/svg"><sodipodi:namedview
     id="namedview3"
     pagecolor="#ffffff"
     bordercolor="#000000"
     borderopacity="0.25"
     inkscape:showpageshadow="2"
     inkscape:pageopacity="0.0"
     inkscape:pagecheckerboard="0"
     inkscape:deskcolor="#d1d1d1"
     inkscape:zoom="9.508131"
     inkscape:cx="1.2094911"
     inkscape:cy="4.7327913"
     inkscape:window-width="1328"
     inkscape:window-height="605"
     inkscape:window-x="68"
     inkscape:window-y="239"
     inkscape:window-maximized="0"
     inkscape:current-layer="g1" /><defs
     id="defs1"><style
       id="style1">.e{stroke:#000;stroke-linecap:round;stroke-linejoin:round;}.e,.f{fill:none;}.f{opacity:.2;stroke-width:0px;}</style><clipPath
       clipPathUnits="userSpaceOnUse"
       id="clipPath13578"><path
         d="M 0,1205.777 H 2738.234 V 0 H 0 Z"
         transform="translate(-1750.1958,-473.16941)"
         id="path13578" /></clipPath><clipPath
       clipPathUnits="userSpaceOnUse"
       id="clipPath13580"><path
         d="M 0,1205.777 H 2738.234 V 0 H 0 Z"
         transform="translate(-1755.2523,-482.35451)"
         id="path13580" /></clipPath><clipPath
       clipPathUnits="userSpaceOnUse"
       id="clipPath13582"><path
         d="M 0,1205.777 H 2738.234 V 0 H 0 Z"
         transform="translate(-1753.044,-479.21061)"
         id="path13582" /></clipPath><clipPath
       clipPathUnits="userSpaceOnUse"
       id="clipPath13694"><path
         d="M 0,1205.777 H 2738.234 V 0 H 0 Z"
         transform="translate(-1694.7306,-422.60451)"
         id="path13694" /></clipPath><clipPath
       clipPathUnits="userSpaceOnUse"
       id="clipPath13696"><path
         d="M 0,1205.777 H 2738.234 V 0 H 0 Z"
         transform="translate(-1692.729,-424.80839)"
         id="path13696" /></clipPath><clipPath
       clipPathUnits="userSpaceOnUse"
       id="clipPath13698"><path
         d="M 0,1205.777 H 2738.234 V 0 H 0 Z"
         transform="translate(-1694.7306,-436.10451)"
         id="path13698" /></clipPath><clipPath
       clipPathUnits="userSpaceOnUse"
       id="clipPath13700"><path
         d="M 0,1205.777 H 2738.234 V 0 H 0 Z"
         transform="translate(-1692.729,-433.90049)"
         id="path13700" /></clipPath><clipPath
       clipPathUnits="userSpaceOnUse"
       id="clipPath13702"><path
         d="M 0,1205.777 H 2738.234 V 0 H 0 Z"
         transform="translate(-1695.2346,-430.59944)"
         id="path13702" /></clipPath><clipPath
       clipPathUnits="userSpaceOnUse"
       id="clipPath13704"><path
         d="M 0,1205.777 H 2738.234 V 0 H 0 Z"
         transform="translate(-1686.2346,-427.04999)"
         id="path13704" /></clipPath><clipPath
       clipPathUnits="userSpaceOnUse"
       id="clipPath13706"><path
         d="M 0,1205.777 H 2738.234 V 0 H 0 Z"
         transform="translate(-1686.2346,-428.59529)"
         id="path13706" /></clipPath><clipPath
       clipPathUnits="userSpaceOnUse"
       id="clipPath13714"><path
         d="M 0,1205.777 H 2738.234 V 0 H 0 Z"
         transform="translate(-1641.2346,-434.35454)"
         id="path13714" /></clipPath><clipPath
       clipPathUnits="userSpaceOnUse"
       id="clipPath13710"><path
         d="M 0,1205.777 H 2738.234 V 0 H 0 Z"
         transform="translate(-1661.3688,-434.35454)"
         id="path13710" /></clipPath><clipPath
       clipPathUnits="userSpaceOnUse"
       id="clipPath1370"><path
         d="M 0,1205.777 H 2738.234 V 0 H 0 Z"
         transform="translate(-2652.6085,-953.81653)"
         id="path1370" /></clipPath><clipPath
       clipPathUnits="userSpaceOnUse"
       id="clipPath1372"><path
         d="M 0,1205.777 H 2738.234 V 0 H 0 Z"
         transform="translate(-2643.2344,-953.60452)"
         id="path1372" /></clipPath><clipPath
       clipPathUnits="userSpaceOnUse"
       id="clipPath4379"><path
         d="M 0,1205.777 H 2738.234 V 0 H 0 Z"
         transform="translate(-1926.0876,-576.35451)"
         id="path4379" /></clipPath><clipPath
       clipPathUnits="userSpaceOnUse"
       id="clipPath4383"><path
         d="M 0,1205.777 H 2738.234 V 0 H 0 Z"
         transform="translate(-1928.0082,-573.77712)"
         id="path4383" /></clipPath><clipPath
       clipPathUnits="userSpaceOnUse"
       id="clipPath4385"><path
         d="M 0,1205.777 H 2738.234 V 0 H 0 Z"
         transform="translate(-1925.7345,-570.39171)"
         id="path4385" /></clipPath><clipPath
       clipPathUnits="userSpaceOnUse"
       id="clipPath14142"><path
         d="M 0,1205.777 H 2738.234 V 0 H 0 Z"
         transform="translate(-1983.2281,-349.33701)"
         id="path14142" /></clipPath><clipPath
       clipPathUnits="userSpaceOnUse"
       id="clipPath14138"><path
         d="M 0,1205.777 H 2738.234 V 0 H 0 Z"
         transform="translate(-1995.2346,-354.85453)"
         id="path14138" /></clipPath><clipPath
       clipPathUnits="userSpaceOnUse"
       id="clipPath14140"><path
         d="M 0,1205.777 H 2738.234 V 0 H 0 Z"
         transform="translate(-1995.2346,-354.85453)"
         id="path14140" /></clipPath><clipPath
       clipPathUnits="userSpaceOnUse"
       id="clipPath14130"><path
         d="M 0,1205.777 H 2738.234 V 0 H 0 Z"
         transform="translate(0,2.5000001e-5)"
         id="path14130" /></clipPath><clipPath
       clipPathUnits="userSpaceOnUse"
       id="clipPath14132"><path
         d="M 0,1205.777 H 2738.234 V 0 H 0 Z"
         transform="translate(0,2.5000001e-5)"
         id="path14132" /></clipPath><clipPath
       clipPathUnits="userSpaceOnUse"
       id="clipPath14134"><path
         d="M 0,1205.777 H 2738.234 V 0 H 0 Z"
         transform="translate(0,2.5000001e-5)"
         id="path14134" /></clipPath><clipPath
       clipPathUnits="userSpaceOnUse"
       id="clipPath14136"><path
         d="M 0,1205.777 H 2738.234 V 0 H 0 Z"
         transform="translate(0,2.5000001e-5)"
         id="path14136" /></clipPath><clipPath
       clipPathUnits="userSpaceOnUse"
       id="clipPath14080"><path
         d="M 0,1205.777 H 2738.234 V 0 H 0 Z"
         transform="translate(-2065.1529,-382.48348)"
         id="path14080" /></clipPath><clipPath
       clipPathUnits="userSpaceOnUse"
       id="clipPath13542"><path
         d="M 0,1205.777 H 2738.234 V 0 H 0 Z"
         transform="translate(-1664.7345,-477.35451)"
         id="path13542" /></clipPath><clipPath
       clipPathUnits="userSpaceOnUse"
       id="clipPath13544"><path
         d="M 0,1205.777 H 2738.234 V 0 H 0 Z"
         transform="translate(-1658.787,-476.35451)"
         id="path13544" /></clipPath><clipPath
       clipPathUnits="userSpaceOnUse"
       id="clipPath13546"><path
         d="M 0,1205.777 H 2738.234 V 0 H 0 Z"
         transform="translate(-1659.8134,-479.72321)"
         id="path13546" /></clipPath><clipPath
       clipPathUnits="userSpaceOnUse"
       id="clipPath14012"><path
         d="M 0,1205.777 H 2738.234 V 0 H 0 Z"
         transform="translate(-2047.2336,-371.35453)"
         id="path14012" /></clipPath><clipPath
       clipPathUnits="userSpaceOnUse"
       id="clipPath14014"><path
         d="M 0,1205.777 H 2738.234 V 0 H 0 Z"
         transform="translate(-2043.2346,-367.60453)"
         id="path14014" /></clipPath><clipPath
       clipPathUnits="userSpaceOnUse"
       id="clipPath14016"><path
         d="M 0,1205.777 H 2738.234 V 0 H 0 Z"
         transform="translate(-2043.2346,-369.60448)"
         id="path14016" /></clipPath><clipPath
       clipPathUnits="userSpaceOnUse"
       id="clipPath14018"><path
         d="M 0,1205.777 H 2738.234 V 0 H 0 Z"
         transform="translate(-2043.2346,-365.60451)"
         id="path14018" /></clipPath><clipPath
       clipPathUnits="userSpaceOnUse"
       id="clipPath14020"><path
         d="M 0,1205.777 H 2738.234 V 0 H 0 Z"
         transform="translate(-2043.2346,-366.60448)"
         id="path14020" /></clipPath><clipPath
       clipPathUnits="userSpaceOnUse"
       id="clipPath14022"><path
         d="M 0,1205.777 H 2738.234 V 0 H 0 Z"
         transform="translate(-2043.2346,-368.60451)"
         id="path14022" /></clipPath><clipPath
       clipPathUnits="userSpaceOnUse"
       id="clipPath14024"><path
         d="M 0,1205.777 H 2738.234 V 0 H 0 Z"
         transform="translate(-2043.2346,-364.60453)"
         id="path14024" /></clipPath><clipPath
       clipPathUnits="userSpaceOnUse"
       id="clipPath14026"><path
         d="M 0,1205.777 H 2738.234 V 0 H 0 Z"
         transform="translate(-2043.2346,-362.60451)"
         id="path14026" /></clipPath><clipPath
       clipPathUnits="userSpaceOnUse"
       id="clipPath14028"><path
         d="M 0,1205.777 H 2738.234 V 0 H 0 Z"
         transform="translate(-2043.2346,-363.60448)"
         id="path14028" /></clipPath><clipPath
       clipPathUnits="userSpaceOnUse"
       id="clipPath14030"><path
         d="M 0,1205.777 H 2738.234 V 0 H 0 Z"
         transform="translate(-2043.2346,-361.60453)"
         id="path14030" /></clipPath><clipPath
       clipPathUnits="userSpaceOnUse"
       id="clipPath14032"><path
         d="M 0,1205.777 H 2738.234 V 0 H 0 Z"
         transform="translate(0,2.5000001e-5)"
         id="path14032" /></clipPath><clipPath
       clipPathUnits="userSpaceOnUse"
       id="clipPath13990"><path
         d="M 0,1205.777 H 2738.234 V 0 H 0 Z"
         transform="translate(0,2.5000001e-5)"
         id="path13990" /></clipPath><clipPath
       clipPathUnits="userSpaceOnUse"
       id="clipPath13992"><path
         d="M 0,1205.777 H 2738.234 V 0 H 0 Z"
         transform="translate(-2031.2335,-371.35453)"
         id="path13992" /></clipPath><clipPath
       clipPathUnits="userSpaceOnUse"
       id="clipPath13994"><path
         d="M 0,1205.777 H 2738.234 V 0 H 0 Z"
         transform="translate(-2027.2345,-367.60453)"
         id="path13994" /></clipPath><clipPath
       clipPathUnits="userSpaceOnUse"
       id="clipPath13996"><path
         d="M 0,1205.777 H 2738.234 V 0 H 0 Z"
         transform="translate(-2027.2345,-369.60448)"
         id="path13996" /></clipPath><clipPath
       clipPathUnits="userSpaceOnUse"
       id="clipPath13998"><path
         d="M 0,1205.777 H 2738.234 V 0 H 0 Z"
         transform="translate(-2027.2345,-365.60451)"
         id="path13998" /></clipPath><clipPath
       clipPathUnits="userSpaceOnUse"
       id="clipPath14000"><path
         d="M 0,1205.777 H 2738.234 V 0 H 0 Z"
         transform="translate(-2027.2345,-366.60448)"
         id="path14000" /></clipPath><clipPath
       clipPathUnits="userSpaceOnUse"
       id="clipPath14002"><path
         d="M 0,1205.777 H 2738.234 V 0 H 0 Z"
         transform="translate(-2027.2345,-368.60451)"
         id="path14002" /></clipPath><clipPath
       clipPathUnits="userSpaceOnUse"
       id="clipPath14004"><path
         d="M 0,1205.777 H 2738.234 V 0 H 0 Z"
         transform="translate(-2027.2345,-364.60453)"
         id="path14004" /></clipPath><clipPath
       clipPathUnits="userSpaceOnUse"
       id="clipPath14006"><path
         d="M 0,1205.777 H 2738.234 V 0 H 0 Z"
         transform="translate(-2027.2345,-362.60451)"
         id="path14006" /></clipPath><clipPath
       clipPathUnits="userSpaceOnUse"
       id="clipPath14008"><path
         d="M 0,1205.777 H 2738.234 V 0 H 0 Z"
         transform="translate(-2027.2345,-363.60448)"
         id="path14008" /></clipPath><clipPath
       clipPathUnits="userSpaceOnUse"
       id="clipPath14010"><path
         d="M 0,1205.777 H 2738.234 V 0 H 0 Z"
         transform="translate(-2027.2345,-361.60453)"
         id="path14010" /></clipPath><clipPath
       clipPathUnits="userSpaceOnUse"
       id="clipPath14231"><path
         d="M 0,1205.777 H 2738.234 V 0 H 0 Z"
         transform="translate(-1915.4811,-288.42771)"
         id="path14231" /></clipPath><clipPath
       clipPathUnits="userSpaceOnUse"
       id="clipPath14233"><path
         d="M 0,1205.777 H 2738.234 V 0 H 0 Z"
         transform="translate(-1911.0541,-279.76431)"
         id="path14233" /></clipPath><clipPath
       clipPathUnits="userSpaceOnUse"
       id="clipPath14235"><path
         d="M 0,1205.777 H 2738.234 V 0 H 0 Z"
         transform="translate(-1920.9634,-285.42478)"
         id="path14235" /></clipPath><clipPath
       clipPathUnits="userSpaceOnUse"
       id="clipPath14237"><path
         d="M 0,1205.777 H 2738.234 V 0 H 0 Z"
         transform="translate(-1921.6683,-288.95803)"
         id="path14237" /></clipPath><clipPath
       clipPathUnits="userSpaceOnUse"
       id="clipPath13760"><path
         d="M 0,1205.777 H 2738.234 V 0 H 0 Z"
         transform="translate(-1735.9899,-366.79941)"
         id="path13760" /></clipPath><clipPath
       clipPathUnits="userSpaceOnUse"
       id="clipPath13762"><path
         d="M 0,1205.777 H 2738.234 V 0 H 0 Z"
         transform="translate(-1744.467,-367.82773)"
         id="path13762" /></clipPath><clipPath
       clipPathUnits="userSpaceOnUse"
       id="clipPath13790"><path
         d="M 0,1205.777 H 2738.234 V 0 H 0 Z"
         transform="translate(-1773.2346,-407.35454)"
         id="path13790" /></clipPath><clipPath
       clipPathUnits="userSpaceOnUse"
       id="clipPath13788"><path
         d="M 0,1205.777 H 2738.234 V 0 H 0 Z"
         transform="translate(-1775.2345,-414.35451)"
         id="path13788" /></clipPath><clipPath
       clipPathUnits="userSpaceOnUse"
       id="clipPath13794"><path
         d="M 0,1205.777 H 2738.234 V 0 H 0 Z"
         transform="translate(-1794.2346,-419.35454)"
         id="path13794" /></clipPath><clipPath
       clipPathUnits="userSpaceOnUse"
       id="clipPath13792"><path
         d="M 0,1205.777 H 2738.234 V 0 H 0 Z"
         transform="translate(-1791.3366,-412.35449)"
         id="path13792" /></clipPath><linearGradient
       x1="0"
       y1="0"
       x2="1"
       y2="0"
       gradientUnits="userSpaceOnUse"
       gradientTransform="matrix(-8.2937845,0,0,-6.5310727,19.717779,5.2827024)"
       spreadMethod="pad"
       id="linearGradient14225"><stop
         style="stop-opacity:1;stop-color:#ffffff icc-color(Display, 1, 1, 1);"
         offset="0"
         id="stop14223" /><stop
         style="stop-opacity:1;stop-color:#ffffff icc-color(Display, 1, 1, 1);"
         offset="0.22026074"
         id="stop14224" /><stop
         style="stop-opacity:1;stop-color:#000000 icc-color(Display, 0, 0, 0);"
         offset="1"
         id="stop14225" /></linearGradient><clipPath
       clipPathUnits="userSpaceOnUse"
       id="clipPath13909"><path
         d="M 0,1205.777 H 2738.234 V 0 H 0 Z"
         transform="translate(0,2.5000001e-5)"
         id="path13909" /></clipPath><clipPath
       clipPathUnits="userSpaceOnUse"
       id="clipPath13911"><path
         d="M 0,1205.777 H 2738.234 V 0 H 0 Z"
         transform="translate(-1867.6425,-434.32371)"
         id="path13911" /></clipPath><clipPath
       clipPathUnits="userSpaceOnUse"
       id="clipPath13861"><path
         d="M 0,1205.777 H 2738.234 V 0 H 0 Z"
         transform="translate(-1799.7582,-371.35453)"
         id="path13861" /></clipPath><clipPath
       clipPathUnits="userSpaceOnUse"
       id="clipPath13863"><path
         d="M 0,1205.777 H 2738.234 V 0 H 0 Z"
         transform="translate(-1801.5096,-369.39328)"
         id="path13863" /></clipPath><clipPath
       clipPathUnits="userSpaceOnUse"
       id="clipPath13865"><path
         d="M 0,1205.777 H 2738.234 V 0 H 0 Z"
         transform="translate(-1799.7582,-359.64111)"
         id="path13865" /></clipPath><clipPath
       clipPathUnits="userSpaceOnUse"
       id="clipPath13867"><path
         d="M 0,1205.777 H 2738.234 V 0 H 0 Z"
         transform="translate(-1801.5096,-361.60221)"
         id="path13867" /></clipPath><clipPath
       clipPathUnits="userSpaceOnUse"
       id="clipPath13869"><path
         d="M 0,1205.777 H 2738.234 V 0 H 0 Z"
         transform="translate(-1809.2346,-369.27163)"
         id="path13869" /></clipPath></defs><g
     id="c"><g
       id="d"><g
         id="g11"
         transform="translate(-1.3393711,-4.1920476)"><g
           id="g1"
           transform="translate(-14.786612,-10.408902)"><path
             style="color:#000000;fill:#000000 icc-color(Display, 0, 0, 0);stroke-linecap:round;stroke-linejoin:round;stroke-miterlimit:10;-inkscape-stroke:none"
             d="M 0,-3.8105469 A 0.44999999,0.44999999 0 0 0 -0.44921875,-3.359375 V 0 A 0.44999999,0.44999999 0 0 0 0,0.44921875 0.44999999,0.44999999 0 0 0 0.44921875,0 V -3.359375 A 0.44999999,0.44999999 0 0 0 0,-3.8105469 Z"
             id="path13860"
             transform="matrix(1.3333333,0,0,-1.3333333,21.2775,16.792)" /><path
             style="color:#000000;fill:#000000 icc-color(Display, 0, 0, 0);stroke-linecap:round;stroke-linejoin:round;stroke-miterlimit:10;-inkscape-stroke:none"
             d="m -2.0703125,-2.0703125 -1.7519531,1.75390625 a 0.44999999,0.44999999 0 0 0 0,0.63476563 0.44999999,0.44999999 0 0 0 0.6347656,0 l 1.4355469,-1.43359378 1.43359372,1.43359378 a 0.44999999,0.44999999 0 0 0 0.63671876,0 0.44999999,0.44999999 0 0 0 0,-0.63671876 L -1.4335937,-2.0703125 a 0.45004499,0.45004499 0 0 0 -0.6367188,0 z"
             id="path13862"
             transform="matrix(1.3333333,0,0,-1.3333333,23.6127,19.407)" /><path
             style="color:#000000;fill:#000000 icc-color(Display, 0, 0, 0);stroke-linecap:round;stroke-linejoin:round;stroke-miterlimit:10;-inkscape-stroke:none"
             d="M 0,-0.44921875 A 0.44999999,0.44999999 0 0 0 -0.44921875,0 V 3.359375 A 0.44999999,0.44999999 0 0 0 0,3.8105469 0.44999999,0.44999999 0 0 0 0.44921875,3.359375 V 0 A 0.44999999,0.44999999 0 0 0 0,-0.44921875 Z"
             id="path13864"
             transform="matrix(1.3333333,0,0,-1.3333333,21.2775,32.4099)" /><path
             style="color:#000000;fill:#000000 icc-color(Display, 0, 0, 0);stroke-linecap:round;stroke-linejoin:round;stroke-miterlimit:10;-inkscape-stroke:none"
             d="m 0,-0.44921875 a 0.44999999,0.44999999 0 0 0 -0.31835938,0.13085937 L -1.7519531,1.1152344 -3.1875,-0.31835938 a 0.44999999,0.44999999 0 0 0 -0.6347656,0 0.44999999,0.44999999 0 0 0 0,0.63476563 l 1.7519531,1.75390625 a 0.45004499,0.45004499 0 0 0 0.6367188,0 L 0.31835938,0.31835938 a 0.44999999,0.44999999 0 0 0 0,-0.63671876 A 0.44999999,0.44999999 0 0 0 0,-0.44921875 Z"
             id="path13866"
             transform="matrix(1.3333333,0,0,-1.3333333,23.6127,29.7951)" /><path
             id="path13868"
             d="M 0,0 -11,-3.164 V -4.46 L 0,-7.624 Z"
             style="fill:#000000 icc-color(Display, 0, 0, 0);fill-opacity:1;fill-rule:nonzero;stroke:none"
             transform="matrix(1.3333333,0,0,-1.3333333,33.9126,19.5692)"
             clip-path="url(#clipPath13869)" /></g></g></g></g></svg>
