<?xml version="1.0" encoding="UTF-8" standalone="no"?>
<svg
   id="b"
   width="20"
   height="20"
   viewBox="0 0 20 20"
   version="1.1"
   sodipodi:docname="view-selection.svg"
   inkscape:version="1.3.1 (91b66b0, 2023-11-16)"
   xml:space="preserve"
   xmlns:inkscape="http://www.inkscape.org/namespaces/inkscape"
   xmlns:sodipodi="http://sodipodi.sourceforge.net/DTD/sodipodi-0.dtd"
   xmlns="http://www.w3.org/2000/svg"
   xmlns:svg="http://www.w3.org/2000/svg"><sodipodi:namedview
     id="namedview3"
     pagecolor="#ffffff"
     bordercolor="#000000"
     borderopacity="0.25"
     inkscape:showpageshadow="2"
     inkscape:pageopacity="0.0"
     inkscape:pagecheckerboard="0"
     inkscape:deskcolor="#d1d1d1"
     inkscape:zoom="9.508131"
     inkscape:cx="1.2094911"
     inkscape:cy="4.7327913"
     inkscape:window-width="1328"
     inkscape:window-height="605"
     inkscape:window-x="68"
     inkscape:window-y="267"
     inkscape:window-maximized="0"
     inkscape:current-layer="g11" /><defs
     id="defs1"><style
       id="style1">.e{stroke:#000;stroke-linecap:round;stroke-linejoin:round;}.e,.f{fill:none;}.f{opacity:.2;stroke-width:0px;}</style><clipPath
       clipPathUnits="userSpaceOnUse"
       id="clipPath13578"><path
         d="M 0,1205.777 H 2738.234 V 0 H 0 Z"
         transform="translate(-1750.1958,-473.16941)"
         id="path13578" /></clipPath><clipPath
       clipPathUnits="userSpaceOnUse"
       id="clipPath13580"><path
         d="M 0,1205.777 H 2738.234 V 0 H 0 Z"
         transform="translate(-1755.2523,-482.35451)"
         id="path13580" /></clipPath><clipPath
       clipPathUnits="userSpaceOnUse"
       id="clipPath13582"><path
         d="M 0,1205.777 H 2738.234 V 0 H 0 Z"
         transform="translate(-1753.044,-479.21061)"
         id="path13582" /></clipPath><clipPath
       clipPathUnits="userSpaceOnUse"
       id="clipPath13694"><path
         d="M 0,1205.777 H 2738.234 V 0 H 0 Z"
         transform="translate(-1694.7306,-422.60451)"
         id="path13694" /></clipPath><clipPath
       clipPathUnits="userSpaceOnUse"
       id="clipPath13696"><path
         d="M 0,1205.777 H 2738.234 V 0 H 0 Z"
         transform="translate(-1692.729,-424.80839)"
         id="path13696" /></clipPath><clipPath
       clipPathUnits="userSpaceOnUse"
       id="clipPath13698"><path
         d="M 0,1205.777 H 2738.234 V 0 H 0 Z"
         transform="translate(-1694.7306,-436.10451)"
         id="path13698" /></clipPath><clipPath
       clipPathUnits="userSpaceOnUse"
       id="clipPath13700"><path
         d="M 0,1205.777 H 2738.234 V 0 H 0 Z"
         transform="translate(-1692.729,-433.90049)"
         id="path13700" /></clipPath><clipPath
       clipPathUnits="userSpaceOnUse"
       id="clipPath13702"><path
         d="M 0,1205.777 H 2738.234 V 0 H 0 Z"
         transform="translate(-1695.2346,-430.59944)"
         id="path13702" /></clipPath><clipPath
       clipPathUnits="userSpaceOnUse"
       id="clipPath13704"><path
         d="M 0,1205.777 H 2738.234 V 0 H 0 Z"
         transform="translate(-1686.2346,-427.04999)"
         id="path13704" /></clipPath><clipPath
       clipPathUnits="userSpaceOnUse"
       id="clipPath13706"><path
         d="M 0,1205.777 H 2738.234 V 0 H 0 Z"
         transform="translate(-1686.2346,-428.59529)"
         id="path13706" /></clipPath><clipPath
       clipPathUnits="userSpaceOnUse"
       id="clipPath13714"><path
         d="M 0,1205.777 H 2738.234 V 0 H 0 Z"
         transform="translate(-1641.2346,-434.35454)"
         id="path13714" /></clipPath><clipPath
       clipPathUnits="userSpaceOnUse"
       id="clipPath13710"><path
         d="M 0,1205.777 H 2738.234 V 0 H 0 Z"
         transform="translate(-1661.3688,-434.35454)"
         id="path13710" /></clipPath><clipPath
       clipPathUnits="userSpaceOnUse"
       id="clipPath1370"><path
         d="M 0,1205.777 H 2738.234 V 0 H 0 Z"
         transform="translate(-2652.6085,-953.81653)"
         id="path1370" /></clipPath><clipPath
       clipPathUnits="userSpaceOnUse"
       id="clipPath1372"><path
         d="M 0,1205.777 H 2738.234 V 0 H 0 Z"
         transform="translate(-2643.2344,-953.60452)"
         id="path1372" /></clipPath><clipPath
       clipPathUnits="userSpaceOnUse"
       id="clipPath4379"><path
         d="M 0,1205.777 H 2738.234 V 0 H 0 Z"
         transform="translate(-1926.0876,-576.35451)"
         id="path4379" /></clipPath><clipPath
       clipPathUnits="userSpaceOnUse"
       id="clipPath4383"><path
         d="M 0,1205.777 H 2738.234 V 0 H 0 Z"
         transform="translate(-1928.0082,-573.77712)"
         id="path4383" /></clipPath><clipPath
       clipPathUnits="userSpaceOnUse"
       id="clipPath4385"><path
         d="M 0,1205.777 H 2738.234 V 0 H 0 Z"
         transform="translate(-1925.7345,-570.39171)"
         id="path4385" /></clipPath><clipPath
       clipPathUnits="userSpaceOnUse"
       id="clipPath14142"><path
         d="M 0,1205.777 H 2738.234 V 0 H 0 Z"
         transform="translate(-1983.2281,-349.33701)"
         id="path14142" /></clipPath><clipPath
       clipPathUnits="userSpaceOnUse"
       id="clipPath14138"><path
         d="M 0,1205.777 H 2738.234 V 0 H 0 Z"
         transform="translate(-1995.2346,-354.85453)"
         id="path14138" /></clipPath><clipPath
       clipPathUnits="userSpaceOnUse"
       id="clipPath14140"><path
         d="M 0,1205.777 H 2738.234 V 0 H 0 Z"
         transform="translate(-1995.2346,-354.85453)"
         id="path14140" /></clipPath><clipPath
       clipPathUnits="userSpaceOnUse"
       id="clipPath14130"><path
         d="M 0,1205.777 H 2738.234 V 0 H 0 Z"
         transform="translate(0,2.5000001e-5)"
         id="path14130" /></clipPath><clipPath
       clipPathUnits="userSpaceOnUse"
       id="clipPath14132"><path
         d="M 0,1205.777 H 2738.234 V 0 H 0 Z"
         transform="translate(0,2.5000001e-5)"
         id="path14132" /></clipPath><clipPath
       clipPathUnits="userSpaceOnUse"
       id="clipPath14134"><path
         d="M 0,1205.777 H 2738.234 V 0 H 0 Z"
         transform="translate(0,2.5000001e-5)"
         id="path14134" /></clipPath><clipPath
       clipPathUnits="userSpaceOnUse"
       id="clipPath14136"><path
         d="M 0,1205.777 H 2738.234 V 0 H 0 Z"
         transform="translate(0,2.5000001e-5)"
         id="path14136" /></clipPath><clipPath
       clipPathUnits="userSpaceOnUse"
       id="clipPath14080"><path
         d="M 0,1205.777 H 2738.234 V 0 H 0 Z"
         transform="translate(-2065.1529,-382.48348)"
         id="path14080" /></clipPath><clipPath
       clipPathUnits="userSpaceOnUse"
       id="clipPath13542"><path
         d="M 0,1205.777 H 2738.234 V 0 H 0 Z"
         transform="translate(-1664.7345,-477.35451)"
         id="path13542" /></clipPath><clipPath
       clipPathUnits="userSpaceOnUse"
       id="clipPath13544"><path
         d="M 0,1205.777 H 2738.234 V 0 H 0 Z"
         transform="translate(-1658.787,-476.35451)"
         id="path13544" /></clipPath><clipPath
       clipPathUnits="userSpaceOnUse"
       id="clipPath13546"><path
         d="M 0,1205.777 H 2738.234 V 0 H 0 Z"
         transform="translate(-1659.8134,-479.72321)"
         id="path13546" /></clipPath><clipPath
       clipPathUnits="userSpaceOnUse"
       id="clipPath14012"><path
         d="M 0,1205.777 H 2738.234 V 0 H 0 Z"
         transform="translate(-2047.2336,-371.35453)"
         id="path14012" /></clipPath><clipPath
       clipPathUnits="userSpaceOnUse"
       id="clipPath14014"><path
         d="M 0,1205.777 H 2738.234 V 0 H 0 Z"
         transform="translate(-2043.2346,-367.60453)"
         id="path14014" /></clipPath><clipPath
       clipPathUnits="userSpaceOnUse"
       id="clipPath14016"><path
         d="M 0,1205.777 H 2738.234 V 0 H 0 Z"
         transform="translate(-2043.2346,-369.60448)"
         id="path14016" /></clipPath><clipPath
       clipPathUnits="userSpaceOnUse"
       id="clipPath14018"><path
         d="M 0,1205.777 H 2738.234 V 0 H 0 Z"
         transform="translate(-2043.2346,-365.60451)"
         id="path14018" /></clipPath><clipPath
       clipPathUnits="userSpaceOnUse"
       id="clipPath14020"><path
         d="M 0,1205.777 H 2738.234 V 0 H 0 Z"
         transform="translate(-2043.2346,-366.60448)"
         id="path14020" /></clipPath><clipPath
       clipPathUnits="userSpaceOnUse"
       id="clipPath14022"><path
         d="M 0,1205.777 H 2738.234 V 0 H 0 Z"
         transform="translate(-2043.2346,-368.60451)"
         id="path14022" /></clipPath><clipPath
       clipPathUnits="userSpaceOnUse"
       id="clipPath14024"><path
         d="M 0,1205.777 H 2738.234 V 0 H 0 Z"
         transform="translate(-2043.2346,-364.60453)"
         id="path14024" /></clipPath><clipPath
       clipPathUnits="userSpaceOnUse"
       id="clipPath14026"><path
         d="M 0,1205.777 H 2738.234 V 0 H 0 Z"
         transform="translate(-2043.2346,-362.60451)"
         id="path14026" /></clipPath><clipPath
       clipPathUnits="userSpaceOnUse"
       id="clipPath14028"><path
         d="M 0,1205.777 H 2738.234 V 0 H 0 Z"
         transform="translate(-2043.2346,-363.60448)"
         id="path14028" /></clipPath><clipPath
       clipPathUnits="userSpaceOnUse"
       id="clipPath14030"><path
         d="M 0,1205.777 H 2738.234 V 0 H 0 Z"
         transform="translate(-2043.2346,-361.60453)"
         id="path14030" /></clipPath><clipPath
       clipPathUnits="userSpaceOnUse"
       id="clipPath14032"><path
         d="M 0,1205.777 H 2738.234 V 0 H 0 Z"
         transform="translate(0,2.5000001e-5)"
         id="path14032" /></clipPath><clipPath
       clipPathUnits="userSpaceOnUse"
       id="clipPath13990"><path
         d="M 0,1205.777 H 2738.234 V 0 H 0 Z"
         transform="translate(0,2.5000001e-5)"
         id="path13990" /></clipPath><clipPath
       clipPathUnits="userSpaceOnUse"
       id="clipPath13992"><path
         d="M 0,1205.777 H 2738.234 V 0 H 0 Z"
         transform="translate(-2031.2335,-371.35453)"
         id="path13992" /></clipPath><clipPath
       clipPathUnits="userSpaceOnUse"
       id="clipPath13994"><path
         d="M 0,1205.777 H 2738.234 V 0 H 0 Z"
         transform="translate(-2027.2345,-367.60453)"
         id="path13994" /></clipPath><clipPath
       clipPathUnits="userSpaceOnUse"
       id="clipPath13996"><path
         d="M 0,1205.777 H 2738.234 V 0 H 0 Z"
         transform="translate(-2027.2345,-369.60448)"
         id="path13996" /></clipPath><clipPath
       clipPathUnits="userSpaceOnUse"
       id="clipPath13998"><path
         d="M 0,1205.777 H 2738.234 V 0 H 0 Z"
         transform="translate(-2027.2345,-365.60451)"
         id="path13998" /></clipPath><clipPath
       clipPathUnits="userSpaceOnUse"
       id="clipPath14000"><path
         d="M 0,1205.777 H 2738.234 V 0 H 0 Z"
         transform="translate(-2027.2345,-366.60448)"
         id="path14000" /></clipPath><clipPath
       clipPathUnits="userSpaceOnUse"
       id="clipPath14002"><path
         d="M 0,1205.777 H 2738.234 V 0 H 0 Z"
         transform="translate(-2027.2345,-368.60451)"
         id="path14002" /></clipPath><clipPath
       clipPathUnits="userSpaceOnUse"
       id="clipPath14004"><path
         d="M 0,1205.777 H 2738.234 V 0 H 0 Z"
         transform="translate(-2027.2345,-364.60453)"
         id="path14004" /></clipPath><clipPath
       clipPathUnits="userSpaceOnUse"
       id="clipPath14006"><path
         d="M 0,1205.777 H 2738.234 V 0 H 0 Z"
         transform="translate(-2027.2345,-362.60451)"
         id="path14006" /></clipPath><clipPath
       clipPathUnits="userSpaceOnUse"
       id="clipPath14008"><path
         d="M 0,1205.777 H 2738.234 V 0 H 0 Z"
         transform="translate(-2027.2345,-363.60448)"
         id="path14008" /></clipPath><clipPath
       clipPathUnits="userSpaceOnUse"
       id="clipPath14010"><path
         d="M 0,1205.777 H 2738.234 V 0 H 0 Z"
         transform="translate(-2027.2345,-361.60453)"
         id="path14010" /></clipPath><clipPath
       clipPathUnits="userSpaceOnUse"
       id="clipPath14231"><path
         d="M 0,1205.777 H 2738.234 V 0 H 0 Z"
         transform="translate(-1915.4811,-288.42771)"
         id="path14231" /></clipPath><clipPath
       clipPathUnits="userSpaceOnUse"
       id="clipPath14233"><path
         d="M 0,1205.777 H 2738.234 V 0 H 0 Z"
         transform="translate(-1911.0541,-279.76431)"
         id="path14233" /></clipPath><clipPath
       clipPathUnits="userSpaceOnUse"
       id="clipPath14235"><path
         d="M 0,1205.777 H 2738.234 V 0 H 0 Z"
         transform="translate(-1920.9634,-285.42478)"
         id="path14235" /></clipPath><clipPath
       clipPathUnits="userSpaceOnUse"
       id="clipPath14237"><path
         d="M 0,1205.777 H 2738.234 V 0 H 0 Z"
         transform="translate(-1921.6683,-288.95803)"
         id="path14237" /></clipPath><clipPath
       clipPathUnits="userSpaceOnUse"
       id="clipPath13760"><path
         d="M 0,1205.777 H 2738.234 V 0 H 0 Z"
         transform="translate(-1735.9899,-366.79941)"
         id="path13760" /></clipPath><clipPath
       clipPathUnits="userSpaceOnUse"
       id="clipPath13762"><path
         d="M 0,1205.777 H 2738.234 V 0 H 0 Z"
         transform="translate(-1744.467,-367.82773)"
         id="path13762" /></clipPath><clipPath
       clipPathUnits="userSpaceOnUse"
       id="clipPath13790"><path
         d="M 0,1205.777 H 2738.234 V 0 H 0 Z"
         transform="translate(-1773.2346,-407.35454)"
         id="path13790" /></clipPath><clipPath
       clipPathUnits="userSpaceOnUse"
       id="clipPath13788"><path
         d="M 0,1205.777 H 2738.234 V 0 H 0 Z"
         transform="translate(-1775.2345,-414.35451)"
         id="path13788" /></clipPath><clipPath
       clipPathUnits="userSpaceOnUse"
       id="clipPath13794"><path
         d="M 0,1205.777 H 2738.234 V 0 H 0 Z"
         transform="translate(-1794.2346,-419.35454)"
         id="path13794" /></clipPath><clipPath
       clipPathUnits="userSpaceOnUse"
       id="clipPath13792"><path
         d="M 0,1205.777 H 2738.234 V 0 H 0 Z"
         transform="translate(-1791.3366,-412.35449)"
         id="path13792" /></clipPath><linearGradient
       x1="0"
       y1="0"
       x2="1"
       y2="0"
       gradientUnits="userSpaceOnUse"
       gradientTransform="matrix(-8.2937845,0,0,-6.5310727,19.717779,5.2827024)"
       spreadMethod="pad"
       id="linearGradient14225"><stop
         style="stop-opacity:1;stop-color:#ffffff icc-color(Display, 1, 1, 1);"
         offset="0"
         id="stop14223" /><stop
         style="stop-opacity:1;stop-color:#ffffff icc-color(Display, 1, 1, 1);"
         offset="0.22026074"
         id="stop14224" /><stop
         style="stop-opacity:1;stop-color:#000000 icc-color(Display, 0, 0, 0);"
         offset="1"
         id="stop14225" /></linearGradient><clipPath
       clipPathUnits="userSpaceOnUse"
       id="clipPath13909"><path
         d="M 0,1205.777 H 2738.234 V 0 H 0 Z"
         transform="translate(0,2.5000001e-5)"
         id="path13909" /></clipPath><clipPath
       clipPathUnits="userSpaceOnUse"
       id="clipPath13911"><path
         d="M 0,1205.777 H 2738.234 V 0 H 0 Z"
         transform="translate(-1867.6425,-434.32371)"
         id="path13911" /></clipPath><clipPath
       clipPathUnits="userSpaceOnUse"
       id="clipPath13972"><path
         d="M 0,1205.777 H 2738.234 V 0 H 0 Z"
         transform="translate(-1953.4158,-416.41049)"
         id="path13972" /></clipPath><clipPath
       clipPathUnits="userSpaceOnUse"
       id="clipPath13974"><path
         d="M 0,1205.777 H 2738.234 V 0 H 0 Z"
         transform="translate(-1941.8937,-409.69784)"
         id="path13974" /></clipPath><clipPath
       clipPathUnits="userSpaceOnUse"
       id="clipPath13889"><path
         d="M 0,1205.777 H 2738.234 V 0 H 0 Z"
         transform="translate(-1878.5985,-429.23504)"
         id="path13889" /></clipPath><clipPath
       clipPathUnits="userSpaceOnUse"
       id="clipPath13891"><path
         d="M 0,1205.777 H 2738.234 V 0 H 0 Z"
         transform="translate(-1880.8119,-426.10131)"
         id="path13891" /></clipPath><clipPath
       clipPathUnits="userSpaceOnUse"
       id="clipPath13893"><path
         d="M 0,1205.777 H 2738.234 V 0 H 0 Z"
         transform="translate(-1884.2376,-424.15994)"
         id="path13893" /></clipPath></defs><g
     id="c"><g
       id="d"><g
         id="g11"
         transform="translate(4.045354,4.4739666)"><path
           style="color:#000000;fill:#000000 icc-color(Display, 0, 0, 0);stroke-linecap:round;stroke-miterlimit:10;-inkscape-stroke:none"
           d="m 0,-0.44921875 c -0.35167761,0 -0.68877618,0.13858369 -0.9375,0.3828125 -0.2512277,0.24591729 -0.3945312,0.58325066 -0.3945312,0.93359375 0,0.3505708 0.1434544,0.6899055 0.39257807,0.9355469 l 3.63476563,3.578125 c 0.2498832,0.2453942 0.5895599,0.3828125 0.9394531,0.3828125 0.3498933,0 0.6877404,-0.1370821 0.9375,-0.3808594 l 0.00195,-0.00195 C 5.0907842,4.8703005 5.0895852,4.0215191 4.5722656,3.5117188 L 0.93945313,-0.06640625 H 0.9375 C 0.68877618,-0.31063506 0.35167761,-0.44921875 0,-0.44921875 Z m 0,0.8984375 c 0.12032192,0 0.2253179,0.0432291 0.30859375,0.125 L 3.9414063,4.1523437 c 0.1701127,0.1676402 0.1697271,0.4165231 0,0.5859375 -5.658e-4,5.648e-4 5.695e-4,0.00139 0,0.00195 -0.083901,0.080996 -0.1874519,0.1230468 -0.3066407,0.1230468 -0.1201062,0 -0.2244773,-0.042395 -0.3085937,-0.125 v 0.00195 l -3.63281253,-3.578125 h -0.001953 c -0.0837101,-0.082206 -0.12304688,-0.18037695 -0.12304688,-0.2949219 0,-0.11303437 0.0411091,-0.21104042 0.12304688,-0.29101563 v -0.001953 c 0.0832759,-0.0817709 0.18827183,-0.125 0.30859375,-0.125 z"
           id="path13888"
           transform="matrix(1.3333333,0,0,-1.3333333,-0.224,5.6853)" /><path
           style="color:#000000;fill:#000000 icc-color(Display, 0, 0, 0);stroke-linecap:round;stroke-miterlimit:10;-inkscape-stroke:none"
           d="m 0,-0.44921875 c -0.35116986,0 -0.68839876,0.13772463 -0.9375,0.38085938 v 0.0019531 c -0.2498114,0.24529674 -0.3925781,0.58213917 -0.3925781,0.93359375 0,0.3508316 0.1431106,0.6898603 0.3925781,0.9355469 l 4.84375,4.7695312 c 0.2500664,0.2475564 0.5904361,0.3847656 0.9394531,0.3847656 0.3495289,0 0.689284,-0.1375684 0.9394531,-0.3867187 0.5174894,-0.5075671 0.5176046,-1.3551531 0,-1.8652344 L 0.93945313,-0.06640625 H 0.9375 C 0.68877618,-0.31063506 0.35167761,-0.44921875 0,-0.44921875 Z m 0,0.8984375 c 0.11966772,0 0.22359227,0.0440898 0.30664063,0.125 L 5.1523437,5.3457031 c 0.169739,0.1672719 0.1684937,0.4213282 0.00195,0.5839844 l -0.00195,0.00195 -0.00195,0.00195 c -0.081658,0.081658 -0.1830944,0.1230469 -0.3046875,0.1230469 -0.1201062,0 -0.2248856,-0.041784 -0.3066406,-0.1230469 v -0.00195 L -0.30664063,1.1621094 c -0.0837101,-0.082206 -0.125,-0.18037695 -0.125,-0.2949219 0,-0.11389583 0.0417875,-0.21057887 0.12304688,-0.29101563 C -0.22369533,0.49330695 -0.11882967,0.44921875 0,0.44921875 Z"
           id="path13890"
           transform="matrix(1.3333333,0,0,-1.3333333,2.7273,9.8636)" /><path
           style="color:#000000;fill:#000000 icc-color(Display, 0, 0, 0);stroke-linecap:round;stroke-miterlimit:10;-inkscape-stroke:none"
           d="m 0,-0.44921875 c -0.35167761,0 -0.68877618,0.13858369 -0.9375,0.3828125 -0.2502895,0.2457933 -0.3945312,0.58409229 -0.3945312,0.93554688 0,0.35008077 0.1434568,0.68795527 0.39257807,0.93359377 l 3.63476563,3.578125 c 0.2487238,0.2442288 0.5877755,0.3828125 0.9394531,0.3828125 0.3498933,0 0.6877404,-0.1370821 0.9375,-0.3808594 l 0.00195,-0.00195 C 5.0896704,4.8714188 5.0902464,4.0247401 4.5761719,3.5136719 L 0.9375,-0.06640625 v -0.0019531 C 0.68722999,-0.31267058 0.34938426,-0.44921875 0,-0.44921875 Z m 0,0.8984375 c 0.11861527,0 0.2228641,0.0432647 0.30859375,0.12695312 L 3.9414063,4.1523437 c 0.1693602,0.1683699 0.1688544,0.4173925 0,0.5859375 -5.629e-4,5.619e-4 5.666e-4,0.00139 0,0.00195 -0.083901,0.080996 -0.1874519,0.1230468 -0.3066407,0.1230468 -0.1203219,0 -0.2253179,-0.043229 -0.3085937,-0.125 v 0.00195 l -3.63281253,-3.578125 h -0.001953 C -0.39230389,1.079903 -0.43164063,0.982175 -0.43164063,0.86914063 c 0,-0.11454496 0.0393367,-0.21271551 0.12304688,-0.29492188 0.0832759,-0.0817709 0.18827183,-0.125 0.30859375,-0.125 z"
           id="path13892"
           transform="matrix(1.3333333,0,0,-1.3333333,7.2948,12.4521)" /></g></g></g></svg>
