<?xml version="1.0" encoding="UTF-8" standalone="no"?>
<svg
   id="b"
   width="20"
   height="16"
   viewBox="0 0 20 16"
   version="1.1"
   sodipodi:docname="align-bottom.svg"
   inkscape:version="1.3.1 (91b66b0, 2023-11-16)"
   xml:space="preserve"
   xmlns:inkscape="http://www.inkscape.org/namespaces/inkscape"
   xmlns:sodipodi="http://sodipodi.sourceforge.net/DTD/sodipodi-0.dtd"
   xmlns="http://www.w3.org/2000/svg"
   xmlns:svg="http://www.w3.org/2000/svg"><sodipodi:namedview
     id="namedview3"
     pagecolor="#ffffff"
     bordercolor="#000000"
     borderopacity="0.25"
     inkscape:showpageshadow="2"
     inkscape:pageopacity="0.0"
     inkscape:pagecheckerboard="0"
     inkscape:deskcolor="#d1d1d1"
     inkscape:zoom="14.75"
     inkscape:cx="5.9322034"
     inkscape:cy="8.5423729"
     inkscape:window-width="1312"
     inkscape:window-height="449"
     inkscape:window-x="40"
     inkscape:window-y="389"
     inkscape:window-maximized="0"
     inkscape:current-layer="d" /><defs
     id="defs1"><style
       id="style1">.e{stroke:#000;stroke-linecap:round;stroke-linejoin:round;}.e,.f{fill:none;}.f{opacity:.2;stroke-width:0px;}</style></defs><g
     id="c"><g
       id="d"><path
         d="m 11.547,6.5495 c -0.082,0.082 -0.123,0.197 -0.123,0.346 v 4.394 c 0,0.153 0.041,0.27 0.123,0.352 0.082,0.082 0.203,0.123 0.363,0.123 h 1.992 c 0.161,0 0.282,-0.041 0.364,-0.123 0.082,-0.082 0.123,-0.199 0.123,-0.352 v -4.394 c 0,-0.149 -0.041,-0.264 -0.123,-0.346 -0.082,-0.082 -0.203,-0.123 -0.364,-0.123 H 11.91 c -0.16,0 -0.281,0.041 -0.363,0.123 m 2.408,-1.008 c 0.426,0 0.752,0.114 0.979,0.343 0.226,0.228 0.34,0.561 0.34,0.999 v 4.424 c 0,0.433 -0.114,0.765 -0.34,0.996 -0.227,0.23 -0.553,0.346 -0.979,0.346 h -2.097 c -0.426,0 -0.752,-0.116 -0.979,-0.346 -0.227,-0.231 -0.34,-0.563 -0.34,-0.996 v -4.424 c 0,-0.438 0.113,-0.771 0.34,-0.999 0.227,-0.229 0.553,-0.343 0.979,-0.343 z m -8.209,-3.14 c -0.082,0.082 -0.123,0.197 -0.123,0.345 v 8.543 c 0,0.153 0.041,0.27 0.123,0.352 0.082,0.082 0.201,0.123 0.358,0.123 h 1.998 c 0.156,0 0.276,-0.041 0.36,-0.123 0.084,-0.082 0.126,-0.199 0.126,-0.352 V 2.7465 C 8.588,2.5985 8.546,2.4835 8.462,2.4015 8.378,2.3195 8.258,2.2785 8.102,2.2785 H 6.104 c -0.157,0 -0.276,0.041 -0.358,0.123 m 2.408,-1.008 c 0.426,0 0.752,0.114 0.979,0.343 0.226,0.228 0.34,0.561 0.34,0.999 v 8.572 c 0,0.433 -0.114,0.765 -0.34,0.996 -0.227,0.23 -0.553,0.346 -0.979,0.346 H 6.057 c -0.43,0 -0.757,-0.116 -0.982,-0.346 -0.224,-0.231 -0.337,-0.563 -0.337,-0.996 v -8.572 c 0,-0.438 0.113,-0.771 0.337,-0.999 0.225,-0.229 0.552,-0.343 0.982,-0.343 z m 8.233,12.351 c 0.113,0 0.209,0.043 0.287,0.129 0.078,0.086 0.117,0.188 0.117,0.305 0,0.113 -0.039,0.213 -0.117,0.299 -0.078,0.086 -0.174,0.129 -0.287,0.129 H 3.619 c -0.117,0 -0.215,-0.043 -0.293,-0.129 -0.078,-0.086 -0.117,-0.186 -0.117,-0.299 0,-0.117 0.039,-0.219 0.117,-0.305 0.078,-0.086 0.176,-0.129 0.293,-0.129 z"
         style="clip-rule:evenodd;fill-rule:nonzero;stroke-miterlimit:10"
         id="path902" /></g></g></svg>
