<?xml version="1.0" encoding="UTF-8"?><svg id="b" xmlns="http://www.w3.org/2000/svg" width="20" height="16" viewBox="0 0 20 16"><defs><style>.e{stroke:#000;stroke-linecap:round;stroke-linejoin:round;}.e,.f{fill:none;}.f{opacity:.2;stroke-width:0px;}</style></defs><g id="c"><g id="d"><path class="e" d="m6.81,1.06h0c-1.44,1.44-2.25,3.39-2.25,5.43h0c0,3.83,3.11,6.94,6.94,6.94h0c2.04,0,3.99-.81,5.43-2.25h0"/><path class="e" d="m9.06,2.19l-1.04,1.04c-.78.78-1.21,1.83-1.21,2.92h0c0,2.78,2.26,5.04,5.04,5.04h0c1.1,0,2.15-.44,2.92-1.21l1.04-1.04"/><path class="e" d="m14.44,6.94l-1.45,1.45c-.35.35-.82.55-1.32.55h0c-1.44,0-2.6-1.17-2.6-2.6h0c0-.49.2-.97.55-1.32l1.45-1.45"/><line class="e" x1="11.31" y1="6.69" x2="13.06" y2="4.94"/><rect class="f" width="20" height="16"/></g></g></svg>