<?xml version="1.0" encoding="UTF-8" standalone="no"?>
<svg
   id="b"
   width="20"
   height="20"
   viewBox="0 0 20 20"
   version="1.1"
   sodipodi:docname="mask-opacity.svg"
   inkscape:version="1.3.1 (91b66b0, 2023-11-16)"
   xml:space="preserve"
   xmlns:inkscape="http://www.inkscape.org/namespaces/inkscape"
   xmlns:sodipodi="http://sodipodi.sourceforge.net/DTD/sodipodi-0.dtd"
   xmlns="http://www.w3.org/2000/svg"
   xmlns:svg="http://www.w3.org/2000/svg"><sodipodi:namedview
     id="namedview3"
     pagecolor="#ffffff"
     bordercolor="#000000"
     borderopacity="0.25"
     inkscape:showpageshadow="2"
     inkscape:pageopacity="0.0"
     inkscape:pagecheckerboard="0"
     inkscape:deskcolor="#d1d1d1"
     inkscape:zoom="17.931023"
     inkscape:cx="7.2500046"
     inkscape:cy="10.038468"
     inkscape:window-width="1312"
     inkscape:window-height="605"
     inkscape:window-x="15"
     inkscape:window-y="188"
     inkscape:window-maximized="0"
     inkscape:current-layer="g1" /><defs
     id="defs1"><style
       id="style1">.e{stroke:#000;stroke-linecap:round;stroke-linejoin:round;}.e,.f{fill:none;}.f{opacity:.2;stroke-width:0px;}</style><clipPath
       clipPathUnits="userSpaceOnUse"
       id="clipPath3761"><path
         d="M 0,1205.777 H 2738.234 V 0 H 0 Z"
         transform="translate(-1062.36,-340.07301)"
         id="path3761" /></clipPath><clipPath
       clipPathUnits="userSpaceOnUse"
       id="clipPath3763"><path
         d="M 0,1205.777 H 2738.234 V 0 H 0 Z"
         transform="translate(-1062.2632,-337.60821)"
         id="path3763" /></clipPath><clipPath
       clipPathUnits="userSpaceOnUse"
       id="clipPath3765"><path
         d="M 0,1205.777 H 2738.234 V 0 H 0 Z"
         transform="translate(-1062.2632,-335.39121)"
         id="path3765" /></clipPath><clipPath
       clipPathUnits="userSpaceOnUse"
       id="clipPath3767"><path
         d="M 0,1205.777 H 2738.234 V 0 H 0 Z"
         transform="translate(-1062.4291,-333.34101)"
         id="path3767" /></clipPath><clipPath
       clipPathUnits="userSpaceOnUse"
       id="clipPath3769"><path
         d="M 0,1205.777 H 2738.234 V 0 H 0 Z"
         transform="translate(-1062.9171,-331.61488)"
         id="path3769" /></clipPath><clipPath
       clipPathUnits="userSpaceOnUse"
       id="clipPath3771"><path
         d="M 0,1205.777 H 2738.234 V 0 H 0 Z"
         transform="translate(-1063.7688,-330.25498)"
         id="path3771" /></clipPath><clipPath
       clipPathUnits="userSpaceOnUse"
       id="clipPath3773"><path
         d="M 0,1205.777 H 2738.234 V 0 H 0 Z"
         transform="translate(-1064.9308,-329.20708)"
         id="path3773" /></clipPath><clipPath
       clipPathUnits="userSpaceOnUse"
       id="clipPath3775"><path
         d="M 0,1205.777 H 2738.234 V 0 H 0 Z"
         transform="translate(-1066.5945,-328.66393)"
         id="path3775" /></clipPath><clipPath
       clipPathUnits="userSpaceOnUse"
       id="clipPath3777"><path
         d="M 0,1205.777 H 2738.234 V 0 H 0 Z"
         transform="translate(-1069.0444,-328.91211)"
         id="path3777" /></clipPath><clipPath
       clipPathUnits="userSpaceOnUse"
       id="clipPath3918"><path
         d="M 0,1205.777 H 2738.234 V 0 H 0 Z"
         transform="translate(-964.05505,-422.70974)"
         id="path3918" /></clipPath><clipPath
       clipPathUnits="userSpaceOnUse"
       id="clipPath3920"><path
         d="M 0,1205.777 H 2738.234 V 0 H 0 Z"
         transform="translate(-975.25705,-427.27334)"
         id="path3920" /></clipPath><clipPath
       clipPathUnits="userSpaceOnUse"
       id="clipPath3922"><path
         d="M 0,1205.777 H 2738.234 V 0 H 0 Z"
         transform="translate(-965.65892,-422.15909)"
         id="path3922" /></clipPath><clipPath
       clipPathUnits="userSpaceOnUse"
       id="clipPath3924"><path
         d="M 0,1205.777 H 2738.234 V 0 H 0 Z"
         transform="translate(-967.69502,-426.07514)"
         id="path3924" /></clipPath><clipPath
       clipPathUnits="userSpaceOnUse"
       id="clipPath3926"><path
         d="M 0,1205.777 H 2738.234 V 0 H 0 Z"
         transform="translate(-966.9304,-423.85139)"
         id="path3926" /></clipPath><clipPath
       clipPathUnits="userSpaceOnUse"
       id="clipPath3928"><path
         d="M 0,1205.777 H 2738.234 V 0 H 0 Z"
         transform="translate(-975.6979,-429.85529)"
         id="path3928" /></clipPath><clipPath
       clipPathUnits="userSpaceOnUse"
       id="clipPath3930"><path
         d="M 0,1205.777 H 2738.234 V 0 H 0 Z"
         transform="translate(-973.447,-432.10731)"
         id="path3930" /></clipPath><clipPath
       clipPathUnits="userSpaceOnUse"
       id="clipPath2494"><path
         d="M 0,1205.777 H 2738.234 V 0 H 0 Z"
         transform="translate(-1006.1637,-427.52789)"
         id="path2494" /></clipPath><clipPath
       clipPathUnits="userSpaceOnUse"
       id="clipPath2505"><path
         d="M 0,1205.777 H 2738.234 V 0 H 0 Z"
         transform="translate(0,2.5000001e-5)"
         id="path2505" /></clipPath><clipPath
       clipPathUnits="userSpaceOnUse"
       id="clipPath2507"><path
         d="M 0,1205.777 H 2738.234 V 0 H 0 Z"
         transform="translate(0,2.5000001e-5)"
         id="path2507" /></clipPath><clipPath
       clipPathUnits="userSpaceOnUse"
       id="clipPath2509"><path
         d="M 0,1205.777 H 2738.234 V 0 H 0 Z"
         transform="translate(0,2.5000001e-5)"
         id="path2509" /></clipPath><clipPath
       clipPathUnits="userSpaceOnUse"
       id="clipPath2511"><path
         d="M 0,1205.777 H 2738.234 V 0 H 0 Z"
         transform="translate(0,2.5000001e-5)"
         id="path2511" /></clipPath><clipPath
       clipPathUnits="userSpaceOnUse"
       id="clipPath2513"><path
         d="M 0,1205.777 H 2738.234 V 0 H 0 Z"
         transform="translate(0,2.5000001e-5)"
         id="path2513" /></clipPath><clipPath
       clipPathUnits="userSpaceOnUse"
       id="clipPath2515"><path
         d="M 0,1205.777 H 2738.234 V 0 H 0 Z"
         transform="translate(-1130.1741,-427.58684)"
         id="path2515" /></clipPath><clipPath
       clipPathUnits="userSpaceOnUse"
       id="clipPath2517"><path
         d="M 0,1205.777 H 2738.234 V 0 H 0 Z"
         transform="translate(-1133.0022,-428.29409)"
         id="path2517" /></clipPath><clipPath
       clipPathUnits="userSpaceOnUse"
       id="clipPath2505-0"><path
         d="M 0,1205.777 H 2738.234 V 0 H 0 Z"
         transform="translate(0,2.5000001e-5)"
         id="path2505-4" /></clipPath><clipPath
       clipPathUnits="userSpaceOnUse"
       id="clipPath4433"><path
         d="M 0,1205.777 H 2738.234 V 0 H 0 Z"
         transform="translate(0,2.5000001e-5)"
         id="path4433" /></clipPath><clipPath
       clipPathUnits="userSpaceOnUse"
       id="clipPath4435"><path
         d="M 0,1205.777 H 2738.234 V 0 H 0 Z"
         transform="translate(0,2.5000001e-5)"
         id="path4435" /></clipPath><clipPath
       clipPathUnits="userSpaceOnUse"
       id="clipPath4431"><path
         d="M 0,1205.777 H 2738.234 V 0 H 0 Z"
         transform="translate(0,2.5000001e-5)"
         id="path4431" /></clipPath><clipPath
       clipPathUnits="userSpaceOnUse"
       id="clipPath4451"><path
         d="M 0,1205.777 H 2738.234 V 0 H 0 Z"
         transform="translate(0,2.5000001e-5)"
         id="path4451" /></clipPath><clipPath
       clipPathUnits="userSpaceOnUse"
       id="clipPath4453"><path
         d="M 0,1205.777 H 2738.234 V 0 H 0 Z"
         transform="translate(0,2.5000001e-5)"
         id="path4453" /></clipPath><clipPath
       clipPathUnits="userSpaceOnUse"
       id="clipPath4455"><path
         d="M 0,1205.777 H 2738.234 V 0 H 0 Z"
         transform="translate(0,2.5000001e-5)"
         id="path4455" /></clipPath><clipPath
       clipPathUnits="userSpaceOnUse"
       id="clipPath4449"><path
         d="M 0,1205.777 H 2738.234 V 0 H 0 Z"
         transform="translate(0,2.5000001e-5)"
         id="path4449" /></clipPath><clipPath
       clipPathUnits="userSpaceOnUse"
       id="clipPath4447"><path
         d="M 0,1205.777 H 2738.234 V 0 H 0 Z"
         transform="translate(-1307.7345,-464.06881)"
         id="path4447" /></clipPath><clipPath
       clipPathUnits="userSpaceOnUse"
       id="clipPath4445"><path
         d="M 0,1205.777 H 2738.234 V 0 H 0 Z"
         transform="translate(-1307.7345,-468.35451)"
         id="path4445" /></clipPath><clipPath
       clipPathUnits="userSpaceOnUse"
       id="clipPath4457"><path
         d="M 0,1205.777 H 2738.234 V 0 H 0 Z"
         transform="translate(-1304.1229,-451.35411)"
         id="path4457" /></clipPath><clipPath
       clipPathUnits="userSpaceOnUse"
       id="clipPath4459"><path
         d="M 0,1205.777 H 2738.234 V 0 H 0 Z"
         transform="translate(0,2.5000001e-5)"
         id="path4459" /></clipPath><clipPath
       clipPathUnits="userSpaceOnUse"
       id="clipPath4461"><path
         d="M 0,1205.777 H 2738.234 V 0 H 0 Z"
         transform="translate(0,2.5000001e-5)"
         id="path4461" /></clipPath><clipPath
       clipPathUnits="userSpaceOnUse"
       id="clipPath4463"><path
         d="M 0,1205.777 H 2738.234 V 0 H 0 Z"
         transform="translate(-1311.5344,-435.35451)"
         id="path4463" /></clipPath><clipPath
       clipPathUnits="userSpaceOnUse"
       id="clipPath4465"><path
         d="M 0,1205.777 H 2738.234 V 0 H 0 Z"
         transform="translate(0,2.5000001e-5)"
         id="path4465" /></clipPath><clipPath
       clipPathUnits="userSpaceOnUse"
       id="clipPath4467"><path
         d="M 0,1205.777 H 2738.234 V 0 H 0 Z"
         transform="translate(0,2.5000001e-5)"
         id="path4467" /></clipPath><clipPath
       clipPathUnits="userSpaceOnUse"
       id="clipPath4441"><path
         d="M 0,1205.777 H 2738.234 V 0 H 0 Z"
         transform="translate(-1303.7346,-480.35451)"
         id="path4441" /></clipPath><clipPath
       clipPathUnits="userSpaceOnUse"
       id="clipPath4443"><path
         d="M 0,1205.777 H 2738.234 V 0 H 0 Z"
         transform="translate(0,2.5000001e-5)"
         id="path4443" /></clipPath><clipPath
       clipPathUnits="userSpaceOnUse"
       id="clipPath4437"><path
         d="M 0,1205.777 H 2738.234 V 0 H 0 Z"
         transform="translate(-1311.7345,-496.35451)"
         id="path4437" /></clipPath><clipPath
       clipPathUnits="userSpaceOnUse"
       id="clipPath4439"><path
         d="M 0,1205.777 H 2738.234 V 0 H 0 Z"
         transform="translate(0,2.5000001e-5)"
         id="path4439" /></clipPath><clipPath
       clipPathUnits="userSpaceOnUse"
       id="clipPath4469"><path
         d="M 0,1205.777 H 2738.234 V 0 H 0 Z"
         transform="translate(-871.38212,-357.08721)"
         id="path4469" /></clipPath><clipPath
       clipPathUnits="userSpaceOnUse"
       id="clipPath4471"><path
         d="M 0,1205.777 H 2738.234 V 0 H 0 Z"
         transform="translate(-879.2344,-350.35453)"
         id="path4471" /></clipPath><clipPath
       clipPathUnits="userSpaceOnUse"
       id="clipPath4473"><path
         d="M 0,1205.777 H 2738.234 V 0 H 0 Z"
         transform="translate(-867.73442,-354.35451)"
         id="path4473" /></clipPath><clipPath
       clipPathUnits="userSpaceOnUse"
       id="clipPath4475"><path
         d="M 0,1205.777 H 2738.234 V 0 H 0 Z"
         transform="translate(-867.73442,-341.35453)"
         id="path4475" /></clipPath><clipPath
       clipPathUnits="userSpaceOnUse"
       id="clipPath4477"><path
         d="M 0,1205.777 H 2738.234 V 0 H 0 Z"
         transform="translate(-882.73442,-340.35448)"
         id="path4477" /></clipPath><clipPath
       clipPathUnits="userSpaceOnUse"
       id="clipPath4479"><path
         d="M 0,1205.777 H 2738.234 V 0 H 0 Z"
         transform="translate(-882.73442,-353.35453)"
         id="path4479" /></clipPath><clipPath
       clipPathUnits="userSpaceOnUse"
       id="clipPath2104"><path
         d="M 0,1205.777 H 2738.234 V 0 H 0 Z"
         transform="translate(-2479.3345,-283.27723)"
         id="path2104" /></clipPath><clipPath
       clipPathUnits="userSpaceOnUse"
       id="clipPath2102"><path
         d="M 0,1205.777 H 2738.234 V 0 H 0 Z"
         transform="translate(-2469.187,-282.34011)"
         id="path2102" /></clipPath><clipPath
       clipPathUnits="userSpaceOnUse"
       id="clipPath2104-0"><path
         d="M 0,1205.777 H 2738.234 V 0 H 0 Z"
         transform="translate(-2479.3345,-283.27723)"
         id="path2104-3" /></clipPath></defs><g
     id="g1"
     transform="translate(-0.43216786,0.07904603)"><g
       id="g4776"
       transform="translate(-3287.9468,-1224.7322)"><path
         id="path2101"
         d="M 0,0 C -0.525,0 -0.953,-0.427 -0.953,-0.953 V -7.147 C -0.953,-7.672 -0.525,-8.1 0,-8.1 h 6.194 c 0.526,0 0.953,0.428 0.953,0.953 v 6.194 C 7.147,-0.427 6.72,0 6.194,0 Z M 6.194,-9 H 0 c -1.021,0 -1.853,0.832 -1.853,1.853 v 6.194 C -1.853,0.069 -1.021,0.9 0,0.9 h 6.194 c 1.022,0 1.853,-0.831 1.853,-1.853 V -7.147 C 8.047,-8.168 7.216,-9 6.194,-9"
         style="fill:#000000 icc-color(Display, 0, 0, 0);fill-opacity:1;fill-rule:nonzero;stroke:none"
         transform="matrix(1.3333333,0,0,-1.3333333,3292.2493,1231.2532)"
         clip-path="url(#clipPath2102)" /><path
         id="path2103"
         d="m 0,0 -2.063,2.063 h 0.81 C -0.562,2.063 0,1.501 0,0.81 Z m 0,-3 -5.063,5.063 h 1.726 L 0,-1.273 Z M -1.253,2.963 H -7.447 C -8.634,2.963 -9.6,1.998 -9.6,0.81 v -0.847 h 0.9 V 0.81 c 0,0.181 0.042,0.351 0.111,0.506 l 1.352,-1.353 h 1.274 l -1.989,1.99 c 0.155,0.069 0.324,0.11 0.505,0.11 h 1.11 l 2.1,-2.1 h 0.284 c 1.021,0 1.853,-0.831 1.853,-1.853 v -0.283 l 2.1,-2.1 v -1.111 c 0,-0.18 -0.042,-0.35 -0.111,-0.505 L -2.1,-3.9 v -1.273 l 1.352,-1.353 C -0.903,-6.595 -1.072,-6.637 -1.253,-6.637 H -2.1 v -0.9 h 0.847 c 1.187,0 2.153,0.966 2.153,2.153 V 0.81 c 0,1.188 -0.966,2.153 -2.153,2.153"
         style="fill:#000000 icc-color(Display, 0, 0, 0);fill-opacity:1;fill-rule:nonzero;stroke:none"
         transform="matrix(1.3333333,0,0,-1.3333333,3305.7793,1230.0037)"
         clip-path="url(#clipPath2104-0)" /></g></g></svg>
