<?xml version="1.0" encoding="UTF-8" standalone="no"?>
<svg
   id="b"
   width="20"
   height="20"
   viewBox="0 0 20 20"
   version="1.1"
   sodipodi:docname="mask-stroke.svg"
   inkscape:version="1.3.1 (91b66b0, 2023-11-16)"
   xml:space="preserve"
   xmlns:inkscape="http://www.inkscape.org/namespaces/inkscape"
   xmlns:sodipodi="http://sodipodi.sourceforge.net/DTD/sodipodi-0.dtd"
   xmlns="http://www.w3.org/2000/svg"
   xmlns:svg="http://www.w3.org/2000/svg"><sodipodi:namedview
     id="namedview3"
     pagecolor="#ffffff"
     bordercolor="#000000"
     borderopacity="0.25"
     inkscape:showpageshadow="2"
     inkscape:pageopacity="0.0"
     inkscape:pagecheckerboard="0"
     inkscape:deskcolor="#d1d1d1"
     inkscape:zoom="17.931023"
     inkscape:cx="5.0750032"
     inkscape:cy="11.265392"
     inkscape:window-width="1312"
     inkscape:window-height="605"
     inkscape:window-x="65"
     inkscape:window-y="65"
     inkscape:window-maximized="0"
     inkscape:current-layer="g4779" /><defs
     id="defs1"><style
       id="style1">.e{stroke:#000;stroke-linecap:round;stroke-linejoin:round;}.e,.f{fill:none;}.f{opacity:.2;stroke-width:0px;}</style><clipPath
       clipPathUnits="userSpaceOnUse"
       id="clipPath3761"><path
         d="M 0,1205.777 H 2738.234 V 0 H 0 Z"
         transform="translate(-1062.36,-340.07301)"
         id="path3761" /></clipPath><clipPath
       clipPathUnits="userSpaceOnUse"
       id="clipPath3763"><path
         d="M 0,1205.777 H 2738.234 V 0 H 0 Z"
         transform="translate(-1062.2632,-337.60821)"
         id="path3763" /></clipPath><clipPath
       clipPathUnits="userSpaceOnUse"
       id="clipPath3765"><path
         d="M 0,1205.777 H 2738.234 V 0 H 0 Z"
         transform="translate(-1062.2632,-335.39121)"
         id="path3765" /></clipPath><clipPath
       clipPathUnits="userSpaceOnUse"
       id="clipPath3767"><path
         d="M 0,1205.777 H 2738.234 V 0 H 0 Z"
         transform="translate(-1062.4291,-333.34101)"
         id="path3767" /></clipPath><clipPath
       clipPathUnits="userSpaceOnUse"
       id="clipPath3769"><path
         d="M 0,1205.777 H 2738.234 V 0 H 0 Z"
         transform="translate(-1062.9171,-331.61488)"
         id="path3769" /></clipPath><clipPath
       clipPathUnits="userSpaceOnUse"
       id="clipPath3771"><path
         d="M 0,1205.777 H 2738.234 V 0 H 0 Z"
         transform="translate(-1063.7688,-330.25498)"
         id="path3771" /></clipPath><clipPath
       clipPathUnits="userSpaceOnUse"
       id="clipPath3773"><path
         d="M 0,1205.777 H 2738.234 V 0 H 0 Z"
         transform="translate(-1064.9308,-329.20708)"
         id="path3773" /></clipPath><clipPath
       clipPathUnits="userSpaceOnUse"
       id="clipPath3775"><path
         d="M 0,1205.777 H 2738.234 V 0 H 0 Z"
         transform="translate(-1066.5945,-328.66393)"
         id="path3775" /></clipPath><clipPath
       clipPathUnits="userSpaceOnUse"
       id="clipPath3777"><path
         d="M 0,1205.777 H 2738.234 V 0 H 0 Z"
         transform="translate(-1069.0444,-328.91211)"
         id="path3777" /></clipPath><clipPath
       clipPathUnits="userSpaceOnUse"
       id="clipPath3918"><path
         d="M 0,1205.777 H 2738.234 V 0 H 0 Z"
         transform="translate(-964.05505,-422.70974)"
         id="path3918" /></clipPath><clipPath
       clipPathUnits="userSpaceOnUse"
       id="clipPath3920"><path
         d="M 0,1205.777 H 2738.234 V 0 H 0 Z"
         transform="translate(-975.25705,-427.27334)"
         id="path3920" /></clipPath><clipPath
       clipPathUnits="userSpaceOnUse"
       id="clipPath3922"><path
         d="M 0,1205.777 H 2738.234 V 0 H 0 Z"
         transform="translate(-965.65892,-422.15909)"
         id="path3922" /></clipPath><clipPath
       clipPathUnits="userSpaceOnUse"
       id="clipPath3924"><path
         d="M 0,1205.777 H 2738.234 V 0 H 0 Z"
         transform="translate(-967.69502,-426.07514)"
         id="path3924" /></clipPath><clipPath
       clipPathUnits="userSpaceOnUse"
       id="clipPath3926"><path
         d="M 0,1205.777 H 2738.234 V 0 H 0 Z"
         transform="translate(-966.9304,-423.85139)"
         id="path3926" /></clipPath><clipPath
       clipPathUnits="userSpaceOnUse"
       id="clipPath3928"><path
         d="M 0,1205.777 H 2738.234 V 0 H 0 Z"
         transform="translate(-975.6979,-429.85529)"
         id="path3928" /></clipPath><clipPath
       clipPathUnits="userSpaceOnUse"
       id="clipPath3930"><path
         d="M 0,1205.777 H 2738.234 V 0 H 0 Z"
         transform="translate(-973.447,-432.10731)"
         id="path3930" /></clipPath><clipPath
       clipPathUnits="userSpaceOnUse"
       id="clipPath2494"><path
         d="M 0,1205.777 H 2738.234 V 0 H 0 Z"
         transform="translate(-1006.1637,-427.52789)"
         id="path2494" /></clipPath><clipPath
       clipPathUnits="userSpaceOnUse"
       id="clipPath2505"><path
         d="M 0,1205.777 H 2738.234 V 0 H 0 Z"
         transform="translate(0,2.5000001e-5)"
         id="path2505" /></clipPath><clipPath
       clipPathUnits="userSpaceOnUse"
       id="clipPath2507"><path
         d="M 0,1205.777 H 2738.234 V 0 H 0 Z"
         transform="translate(0,2.5000001e-5)"
         id="path2507" /></clipPath><clipPath
       clipPathUnits="userSpaceOnUse"
       id="clipPath2509"><path
         d="M 0,1205.777 H 2738.234 V 0 H 0 Z"
         transform="translate(0,2.5000001e-5)"
         id="path2509" /></clipPath><clipPath
       clipPathUnits="userSpaceOnUse"
       id="clipPath2511"><path
         d="M 0,1205.777 H 2738.234 V 0 H 0 Z"
         transform="translate(0,2.5000001e-5)"
         id="path2511" /></clipPath><clipPath
       clipPathUnits="userSpaceOnUse"
       id="clipPath2513"><path
         d="M 0,1205.777 H 2738.234 V 0 H 0 Z"
         transform="translate(0,2.5000001e-5)"
         id="path2513" /></clipPath><clipPath
       clipPathUnits="userSpaceOnUse"
       id="clipPath2515"><path
         d="M 0,1205.777 H 2738.234 V 0 H 0 Z"
         transform="translate(-1130.1741,-427.58684)"
         id="path2515" /></clipPath><clipPath
       clipPathUnits="userSpaceOnUse"
       id="clipPath2517"><path
         d="M 0,1205.777 H 2738.234 V 0 H 0 Z"
         transform="translate(-1133.0022,-428.29409)"
         id="path2517" /></clipPath><clipPath
       clipPathUnits="userSpaceOnUse"
       id="clipPath2505-0"><path
         d="M 0,1205.777 H 2738.234 V 0 H 0 Z"
         transform="translate(0,2.5000001e-5)"
         id="path2505-4" /></clipPath><clipPath
       clipPathUnits="userSpaceOnUse"
       id="clipPath4433"><path
         d="M 0,1205.777 H 2738.234 V 0 H 0 Z"
         transform="translate(0,2.5000001e-5)"
         id="path4433" /></clipPath><clipPath
       clipPathUnits="userSpaceOnUse"
       id="clipPath4435"><path
         d="M 0,1205.777 H 2738.234 V 0 H 0 Z"
         transform="translate(0,2.5000001e-5)"
         id="path4435" /></clipPath><clipPath
       clipPathUnits="userSpaceOnUse"
       id="clipPath4431"><path
         d="M 0,1205.777 H 2738.234 V 0 H 0 Z"
         transform="translate(0,2.5000001e-5)"
         id="path4431" /></clipPath><clipPath
       clipPathUnits="userSpaceOnUse"
       id="clipPath4451"><path
         d="M 0,1205.777 H 2738.234 V 0 H 0 Z"
         transform="translate(0,2.5000001e-5)"
         id="path4451" /></clipPath><clipPath
       clipPathUnits="userSpaceOnUse"
       id="clipPath4453"><path
         d="M 0,1205.777 H 2738.234 V 0 H 0 Z"
         transform="translate(0,2.5000001e-5)"
         id="path4453" /></clipPath><clipPath
       clipPathUnits="userSpaceOnUse"
       id="clipPath4455"><path
         d="M 0,1205.777 H 2738.234 V 0 H 0 Z"
         transform="translate(0,2.5000001e-5)"
         id="path4455" /></clipPath><clipPath
       clipPathUnits="userSpaceOnUse"
       id="clipPath4449"><path
         d="M 0,1205.777 H 2738.234 V 0 H 0 Z"
         transform="translate(0,2.5000001e-5)"
         id="path4449" /></clipPath><clipPath
       clipPathUnits="userSpaceOnUse"
       id="clipPath4447"><path
         d="M 0,1205.777 H 2738.234 V 0 H 0 Z"
         transform="translate(-1307.7345,-464.06881)"
         id="path4447" /></clipPath><clipPath
       clipPathUnits="userSpaceOnUse"
       id="clipPath4445"><path
         d="M 0,1205.777 H 2738.234 V 0 H 0 Z"
         transform="translate(-1307.7345,-468.35451)"
         id="path4445" /></clipPath><clipPath
       clipPathUnits="userSpaceOnUse"
       id="clipPath4457"><path
         d="M 0,1205.777 H 2738.234 V 0 H 0 Z"
         transform="translate(-1304.1229,-451.35411)"
         id="path4457" /></clipPath><clipPath
       clipPathUnits="userSpaceOnUse"
       id="clipPath4459"><path
         d="M 0,1205.777 H 2738.234 V 0 H 0 Z"
         transform="translate(0,2.5000001e-5)"
         id="path4459" /></clipPath><clipPath
       clipPathUnits="userSpaceOnUse"
       id="clipPath4461"><path
         d="M 0,1205.777 H 2738.234 V 0 H 0 Z"
         transform="translate(0,2.5000001e-5)"
         id="path4461" /></clipPath><clipPath
       clipPathUnits="userSpaceOnUse"
       id="clipPath4463"><path
         d="M 0,1205.777 H 2738.234 V 0 H 0 Z"
         transform="translate(-1311.5344,-435.35451)"
         id="path4463" /></clipPath><clipPath
       clipPathUnits="userSpaceOnUse"
       id="clipPath4465"><path
         d="M 0,1205.777 H 2738.234 V 0 H 0 Z"
         transform="translate(0,2.5000001e-5)"
         id="path4465" /></clipPath><clipPath
       clipPathUnits="userSpaceOnUse"
       id="clipPath4467"><path
         d="M 0,1205.777 H 2738.234 V 0 H 0 Z"
         transform="translate(0,2.5000001e-5)"
         id="path4467" /></clipPath><clipPath
       clipPathUnits="userSpaceOnUse"
       id="clipPath4441"><path
         d="M 0,1205.777 H 2738.234 V 0 H 0 Z"
         transform="translate(-1303.7346,-480.35451)"
         id="path4441" /></clipPath><clipPath
       clipPathUnits="userSpaceOnUse"
       id="clipPath4443"><path
         d="M 0,1205.777 H 2738.234 V 0 H 0 Z"
         transform="translate(0,2.5000001e-5)"
         id="path4443" /></clipPath><clipPath
       clipPathUnits="userSpaceOnUse"
       id="clipPath4437"><path
         d="M 0,1205.777 H 2738.234 V 0 H 0 Z"
         transform="translate(-1311.7345,-496.35451)"
         id="path4437" /></clipPath><clipPath
       clipPathUnits="userSpaceOnUse"
       id="clipPath4439"><path
         d="M 0,1205.777 H 2738.234 V 0 H 0 Z"
         transform="translate(0,2.5000001e-5)"
         id="path4439" /></clipPath><clipPath
       clipPathUnits="userSpaceOnUse"
       id="clipPath4469"><path
         d="M 0,1205.777 H 2738.234 V 0 H 0 Z"
         transform="translate(-871.38212,-357.08721)"
         id="path4469" /></clipPath><clipPath
       clipPathUnits="userSpaceOnUse"
       id="clipPath4471"><path
         d="M 0,1205.777 H 2738.234 V 0 H 0 Z"
         transform="translate(-879.2344,-350.35453)"
         id="path4471" /></clipPath><clipPath
       clipPathUnits="userSpaceOnUse"
       id="clipPath4473"><path
         d="M 0,1205.777 H 2738.234 V 0 H 0 Z"
         transform="translate(-867.73442,-354.35451)"
         id="path4473" /></clipPath><clipPath
       clipPathUnits="userSpaceOnUse"
       id="clipPath4475"><path
         d="M 0,1205.777 H 2738.234 V 0 H 0 Z"
         transform="translate(-867.73442,-341.35453)"
         id="path4475" /></clipPath><clipPath
       clipPathUnits="userSpaceOnUse"
       id="clipPath4477"><path
         d="M 0,1205.777 H 2738.234 V 0 H 0 Z"
         transform="translate(-882.73442,-340.35448)"
         id="path4477" /></clipPath><clipPath
       clipPathUnits="userSpaceOnUse"
       id="clipPath4479"><path
         d="M 0,1205.777 H 2738.234 V 0 H 0 Z"
         transform="translate(-882.73442,-353.35453)"
         id="path4479" /></clipPath><clipPath
       clipPathUnits="userSpaceOnUse"
       id="clipPath4624"><path
         d="M 0,1205.777 H 2738.234 V 0 H 0 Z"
         transform="translate(-1345.0555,-398.38183)"
         id="path4624" /></clipPath><clipPath
       clipPathUnits="userSpaceOnUse"
       id="clipPath4626"><path
         d="M 0,1205.777 H 2738.234 V 0 H 0 Z"
         transform="translate(-1338.6937,-397.89433)"
         id="path4626" /></clipPath><clipPath
       clipPathUnits="userSpaceOnUse"
       id="clipPath4628"><path
         d="M 0,1205.777 H 2738.234 V 0 H 0 Z"
         transform="translate(-1336.3332,-397.42453)"
         id="path4628" /></clipPath><clipPath
       clipPathUnits="userSpaceOnUse"
       id="clipPath4630"><path
         d="M 0,1205.777 H 2738.234 V 0 H 0 Z"
         transform="translate(-1342.1359,-397.28451)"
         id="path4630" /></clipPath><clipPath
       clipPathUnits="userSpaceOnUse"
       id="clipPath4632"><path
         d="M 0,1205.777 H 2738.234 V 0 H 0 Z"
         transform="translate(-1342.1358,-394.45288)"
         id="path4632" /></clipPath><clipPath
       clipPathUnits="userSpaceOnUse"
       id="clipPath4634"><path
         d="M 0,1205.777 H 2738.234 V 0 H 0 Z"
         transform="translate(-1361.058,-398.38168)"
         id="path4634" /></clipPath><clipPath
       clipPathUnits="userSpaceOnUse"
       id="clipPath4636"><path
         d="M 0,1205.777 H 2738.234 V 0 H 0 Z"
         transform="translate(-1358.6256,-398.59858)"
         id="path4636" /></clipPath></defs><g
     id="g4779"
     transform="translate(-1796.9825,-1067.9008)"><path
       style="color:#000000;fill:#000000 icc-color(Display, 0, 0, 0);stroke-linecap:round;stroke-miterlimit:10;stroke-dasharray:1.434, 1.912;-inkscape-stroke:none"
       d="m -5.8554687,-7.34375 -0.1601563,0.00195 -0.1582031,0.00586 -0.1582031,0.00977 -0.1347657,0.011719 a 0.49349999,0.49349999 0 0 0 -0.4492187,0.5332031 0.49349999,0.49349999 0 0 0 0.5332031,0.4492188 l 0.1230469,-0.00977 0.1328125,-0.00781 0.1347656,-0.00586 0.1347656,-0.00195 0.1367188,0.00195 0.1367187,0.00586 0.1367188,0.00781 0.1367187,0.011719 0.1386719,0.015625 0.1367188,0.019531 0.1386718,0.023437 0.1386719,0.025391 0.1289063,0.027344 a 0.49349999,0.49349999 0 0 0 0.5878906,-0.3769531 0.49349999,0.49349999 0 0 0 -0.3789063,-0.5878906 l -0.1425781,-0.029297 -0.1621094,-0.03125 -0.1621093,-0.027344 -0.1621094,-0.021484 -0.1621094,-0.017578 -0.1621094,-0.015625 -0.1621093,-0.00977 -0.1601563,-0.00586 z m -3.2226563,0.8632813 -0.039063,0.021484 -0.1289063,0.080078 -0.1289062,0.082031 -0.1269531,0.083984 -0.125,0.087891 -0.1230469,0.091797 -0.1191406,0.09375 -0.1171875,0.095703 -0.1171879,0.099609 -0.113281,0.1015625 -0.109375,0.1054687 -0.109375,0.1074219 -0.105469,0.1113281 -0.103515,0.1132813 -0.0332,0.037109 a 0.49349999,0.49349999 0 0 0 0.04883,0.6972656 0.49349999,0.49349999 0 0 0 0.6972654,-0.048828 l 0.025391,-0.029297 0.085937,-0.095703 0.089844,-0.09375 0.091797,-0.089844 0.09375,-0.089844 0.095703,-0.085937 0.097656,-0.083984 0.099609,-0.082031 0.1015625,-0.078125 0.1035156,-0.078125 0.1035156,-0.074219 0.1074219,-0.070312 0.109375,-0.070312 0.1113281,-0.066406 0.027344,-0.015625 A 0.49349999,0.49349999 0 0 0 -8.4042969,-6.296875 0.49349999,0.49349999 0 0 0 -9.078125,-6.4804687 Z m 7.1484375,0.4550781 a 0.49349999,0.49349999 0 0 0 -0.6933594,0.091797 0.49349999,0.49349999 0 0 0 0.091797,0.6933593 l 0.068359,0.050781 0.1015625,0.082031 0.099609,0.083984 0.097656,0.087891 0.095703,0.087891 0.091797,0.089844 0.091797,0.09375 0.087891,0.09375 0.085937,0.097656 0.083984,0.097656 0.080078,0.1015625 0.078125,0.1015625 0.076172,0.1054688 0.066406,0.095703 a 0.49349999,0.49349999 0 0 0 0.68750003,0.1230468 0.49349999,0.49349999 0 0 0 0.125,-0.6855468 l -0.0742188,-0.1054688 -0.0898438,-0.1230468 -0.09375,-0.1210938 -0.0957031,-0.1191406 -0.0976563,-0.1171875 L -1.0664062,-5.234375 -1.1699219,-5.3457031 -1.2773437,-5.4550781 -1.3867187,-5.5625 -1.5,-5.6660156 l -0.1152344,-0.1035156 -0.1171875,-0.099609 -0.1210937,-0.095703 z m -9.4531255,2.9257812 a 0.49349999,0.49349999 0 0 0 -0.605468,0.3476563 l -0.03711,0.1367187 -0.03711,0.15625 -0.03516,0.1601563 -0.03125,0.1582031 -0.02539,0.1621094 -0.02148,0.1601562 -0.01758,0.1601563 -0.01367,0.1601562 -0.0098,0.1601563 -0.0059,0.1582031 -0.002,0.1582031 0.0039,0.15820315 0.0059,0.15625 0.002,0.009766 a 0.49349999,0.49349999 0 0 0 0.525391,0.45898437 0.49349999,0.49349999 0 0 0 0.458984,-0.5234375 v -0.001953 l -0.0059,-0.12890626 -0.002,-0.13281247 v -0.1328125 l 0.0059,-0.1347656 0.0078,-0.1347657 0.01172,-0.1347656 0.01367,-0.1347656 0.01953,-0.1347656 0.02148,-0.1367188 0.02539,-0.1347656 0.0293,-0.1328125 0.0332,-0.1328125 0.0332,-0.125 a 0.49349999,0.49349999 0 0 0 -0.347657,-0.6054688 z m 11.31640675,0.7109375 a 0.49349999,0.49349999 0 0 0 -0.40429688,0.5683594 l 0.001953,0.00586 0.0175781,0.1289062 0.015625,0.1308594 0.0136719,0.1308594 0.007813,0.1308594 0.005859,0.1328125 0.001953,0.1328125 v 0.13281245 l -0.003906,0.1328125 -0.009766,0.13476563 -0.009766,0.13476562 -0.015625,0.13476562 -0.0195313,0.13671875 -0.0195313,0.12890626 -0.001953,0.01171875 -0.0253906,0.12890624 -0.0292969,0.13476563 -0.03125,0.13085938 -0.0351563,0.13085937 -0.0390625,0.12890625 L -0.6875,0.70117187 -0.73242187,0.828125 -0.77734375,0.94335938 A 0.49349999,0.49349999 0 0 0 -0.49414063,1.5820312 0.49349999,0.49349999 0 0 0 0.14257812,1.2988281 l 0.0507813,-0.1289062 0.0527344,-0.1503907 0.0488281,-0.15039057 0.046875,-0.15234376 0.0410156,-0.15625 L 0.421875,0.40429688 0.45507813,0.24609375 0.484375,0.09179687 a 0.49349999,0.49349999 0 0 0 0,-0.0078125 0.49349999,0.49349999 0 0 0 0.001953,-0.0039063 l 0.0253906,-0.15429687 0.0234375,-0.16210938 0.0175781,-0.16015625 0.0136719,-0.16015624 0.007813,-0.15820313 0.005859,-0.16015625 0.001953,-0.1582031 -0.003906,-0.1582031 -0.005859,-0.15625 -0.0117188,-0.15625 -0.0136719,-0.15625 -0.0195313,-0.1542969 -0.0214844,-0.1542969 -0.003906,-0.017578 A 0.49349999,0.49349999 0 0 0 -0.06640625,-2.3886719 Z M -11.257813,1.2636719 a 0.49349999,0.49349999 0 0 0 -0.205078,0.6679687 l 0.0039,0.00781 0.07422,0.1328125 0.07813,0.1308594 0.08008,0.1289063 0.08399,0.1269531 0.08789,0.1269531 0.08984,0.1230469 0.0918,0.1210937 0.0957,0.1171875 0.09961,0.1171875 0.101562,0.1152344 0.103516,0.1113281 0.107422,0.109375 0.109375,0.1074219 0.06055,0.056641 a 0.49349999,0.49349999 0 0 0 0.6972661,-0.025391 0.49349999,0.49349999 0 0 0 -0.023437,-0.6972656 l -0.052734,-0.048828 -0.09375,-0.089844 -0.089844,-0.09375 -0.087891,-0.09375 -0.085937,-0.097656 -0.083984,-0.097656 -0.08008,-0.1015625 -0.07813,-0.1015625 -0.07617,-0.1035156 -0.07422,-0.1074219 -0.07031,-0.1074219 -0.06836,-0.109375 -0.06641,-0.109375 -0.06055,-0.1113281 a 0.49349999,0.49349999 0 0 0 -0.002,0 0.49349999,0.49349999 0 0 0 -0.666016,-0.2050781 z m 9.1738286,1.5859375 -0.013672,0.013672 -0.095703,0.085937 -0.097656,0.083984 -0.099609,0.082031 -0.1015625,0.078125 -0.1035156,0.078125 -0.1054688,0.074219 -0.1054687,0.070312 -0.109375,0.070312 -0.1113282,0.066406 -0.1113281,0.064453 -0.1132812,0.060547 -0.1171875,0.060547 -0.1152344,0.054687 -0.046875,0.021484 A 0.49349999,0.49349999 0 0 0 -3.7773438,4.4667969 0.49349999,0.49349999 0 0 0 -3.125,4.7148437 l 0.056641,-0.027344 0.1386719,-0.066406 0.1367187,-0.068359 0.1328125,-0.072266 0.1328125,-0.076172 0.1308594,-0.080078 0.1289063,-0.082031 0.1269531,-0.083984 0.125,-0.087891 0.1210938,-0.091797 0.1210937,-0.09375 0.1171875,-0.095703 0.1171875,-0.099609 0.1113281,-0.1015625 0.023437,-0.021484 a 0.49349999,0.49349999 0 0 0 0.017578,-0.6972657 0.49349999,0.49349999 0 0 0 -0.6972657,-0.019531 z m -5.4453125,1.1699218 a 0.49349999,0.49349999 0 0 0 -0.6210937,0.3183594 0.49349999,0.49349999 0 0 0 0.3183594,0.6210938 l 0.1210937,0.039063 0.1542969,0.046875 0.15625,0.041016 0.1601562,0.039063 0.1601563,0.035156 0.1621094,0.029297 0.1621093,0.027344 0.1621094,0.021484 0.1621094,0.019531 0.1621094,0.013672 0.1621093,0.00977 0.1601563,0.00586 0.140625,0.00195 a 0.49349999,0.49349999 0 0 0 0.4980469,-0.4863281 0.49349999,0.49349999 0 0 0 -0.4863282,-0.5 L -5.921875,4.3007812 -6.0585937,4.2949219 -6.1953125,4.2871094 -6.3320312,4.2753906 -6.4707031,4.2597656 -6.609375,4.2402344 -6.7480469,4.21875 -6.8847656,4.1914062 -7.0214844,4.1621094 -7.15625,4.1308594 -7.2890625,4.09375 -7.4199219,4.0546875 Z"
       id="path4633"
       transform="matrix(1.3333333,0,0,-1.3333333,1814.744,1076.5311)" /><path
       style="color:#000000;fill:#000000 icc-color(Display, 0, 0, 0);stroke-linecap:round;stroke-miterlimit:10;stroke-dasharray:1.265, 1.946;-inkscape-stroke:none"
       d="m -2.3535156,-5.1640625 a 0.5,0.5 0 0 0 -0.6171875,0.3457031 0.5,0.5 0 0 0 0.34375,0.6171875 l 0.1386718,0.039063 0.1523438,0.050781 0.1484375,0.060547 0.1464844,0.064453 0.1386719,0.072266 0.1347656,0.078125 0.1289062,0.083984 0.125,0.089844 0.1191407,0.095703 0.050781,0.044922 a 0.5,0.5 0 0 0 0.70507813,-0.044922 0.5,0.5 0 0 0 -0.0449219,-0.7070312 l -0.0683594,-0.060547 -0.15625001,-0.125 -0.16406247,-0.1171875 -0.171875,-0.1113281 -0.1777344,-0.1035156 -0.1835937,-0.09375 -0.1894532,-0.087891 -0.1972656,-0.076172 -0.1992188,-0.068359 z m -2.4980469,0.2558594 a 0.5,0.5 0 0 0 -0.3828125,0.021484 l -0.066406,0.033203 -0.171875,0.09375 -0.1679688,0.1015625 -0.1621094,0.109375 -0.1582031,0.1171875 -0.1523437,0.125 -0.1445313,0.1328125 -0.140625,0.140625 -0.1328125,0.1484375 -0.125,0.1542968 -0.048828,0.066406 a 0.5,0.5 0 0 0 0.1074219,0.6992187 0.5,0.5 0 0 0 0.6992187,-0.1074218 l 0.033203,-0.046875 0.09375,-0.1152344 0.099609,-0.1113281 0.1054688,-0.1054688 0.109375,-0.099609 0.1132812,-0.09375 0.1191406,-0.087891 0.1230469,-0.083984 0.1269531,-0.076172 0.1289063,-0.070312 0.046875,-0.021484 a 0.5,0.5 0 0 0 0.2324219,-0.6679687 0.5,0.5 0 0 0 -0.2851563,-0.2558594 z M 0.12109375,-2.15625 a 0.5,0.5 0 0 0 -0.43164063,0.5605469 l 0.009766,0.078125 0.0117188,0.1484375 0.003906,0.1484375 -0.001953,0.1503906 -0.0117188,0.1484375 -0.0175781,0.15039063 -0.0253906,0.15039062 -0.0351563,0.15039062 -0.0429687,0.1484375 -0.0449219,0.13867188 -0.001953,0.001953 -0.0605469,0.15624999 -0.0644531,0.140625 -0.0722656,0.13671876 -0.0761719,0.13085937 -0.0839844,0.12695312 -0.0878906,0.12109375 -0.009766,0.0117188 a 0.5,0.5 0 0 0 0.0722656,0.70312498 0.5,0.5 0 0 0 0.70312501,-0.072266 l 0.0253906,-0.03125 L -0.00195313,1.0800781 0.109375,0.91210938 0.2109375,0.73632812 0.30664063,0.5546875 l 0.0859375,-0.1875 0.0722656,-0.18359375 a 0.5,0.5 0 0 0 0.003906,-0.0175781 0.5,0.5 0 0 0 0.003906,-0.005859 l 0.0644531,-0.18554688 0.0546875,-0.19921875 0.046875,-0.19921875 L 0.67382812,-0.625 0.69726562,-0.82421875 0.7109375,-1.0253906 0.71679687,-1.2246094 0.7109375,-1.4238281 0.6953125,-1.6210937 0.68164062,-1.7246094 A 0.5,0.5 0 0 0 0.12109375,-2.15625 Z M -7.015625,-1.421875 a 0.5,0.5 0 0 0 -0.4589844,0.53710937 l 0.00195,0.0175781 0.025391,0.1953125 0.035156,0.19335937 0.042969,0.19140625 0.052734,0.18945313 0.0625,0.18554687 0.070312,0.18164063 0.080078,0.1796875 0.087891,0.17382812 0.095703,0.171875 0.076172,0.12304688 a 0.5,0.5 0 0 0 0.6894531,0.15820315 0.5,0.5 0 0 0 0.1582032,-0.68945315 l -0.064453,-0.10351562 -0.072266,-0.12890626 -0.066406,-0.13281249 -0.060547,-0.13476563 -0.052734,-0.13867188 -0.046875,-0.140625 -0.041016,-0.14062499 -0.033203,-0.14453125 -0.025391,-0.14648438 -0.017578,-0.13867188 a 0.5,0.5 0 0 0 -0.00195,-0.001953 A 0.5,0.5 0 0 0 -7.015625,-1.421875 Z M -4.2441406,1.6875 a 0.5,0.5 0 0 0 -0.6191406,0.34375 0.5,0.5 0 0 0 0.3457031,0.6171875 l 0.1308594,0.037109 0.2011718,0.046875 0.203125,0.037109 0.2011719,0.025391 0.2011719,0.015625 0.2011718,0.00781 0.2011719,-0.00391 0.1992188,-0.013672 0.1972656,-0.023437 0.1503906,-0.023437 A 0.5,0.5 0 0 0 -2.21875,2.1777344 0.5,0.5 0 0 0 -2.7949219,1.765625 l -0.125,0.021484 -0.1503906,0.017578 -0.1503906,0.00977 -0.1523438,0.00195 L -3.5253906,1.8125 -3.6777344,1.8007812 -3.8300781,1.78125 -3.984375,1.7539062 -4.1367187,1.7167969 Z"
       id="path4635"
       transform="matrix(1.3333333,0,0,-1.3333333,1811.5008,1076.2419)" /></g></svg>
