<?xml version="1.0" encoding="UTF-8" standalone="no"?>
<!-- Created with Inkscape (http://www.inkscape.org/) -->

<svg
   width="18"
   height="16"
   viewBox="0 0 4.7624999 4.2333333"
   version="1.1"
   id="svg1"
   xmlns="http://www.w3.org/2000/svg"
   xmlns:svg="http://www.w3.org/2000/svg">
  <defs
     id="defs1" />
  <g
     id="g2181"
     style="clip-rule:evenodd;fill-rule:evenodd;stroke-linejoin:round;stroke-miterlimit:2;fill:#000000"
     transform="matrix(0.26458333,0,0,0.26458333,-229.0912,-178.01312)">
    <path
       d="m 877.448,674.788 c -1.58,2.266 -5.488,5.367 -8.59,7.157 l -0.497,0.286 3.556,4.592 0.392,-0.283 c 3.201,-2.311 6.997,-6.558 8.562,-9.103 l -0.851,-0.524 c -1.454,2.363 -4.894,6.24 -7.908,8.529 0,0 -2.262,-2.922 -2.262,-2.922 3.132,-1.892 6.86,-4.925 8.419,-7.16 z"
       style="fill:#000000"
       id="path1802" />
    <path
       d="m 869.466,678.288 c 2.157,2.448 5.035,5.251 8.133,7.583 l 3.015,-4.941 c -1.919,-0.749 -6.047,-3.102 -8.239,-5.441"
       style="fill:#000000;fill-rule:nonzero"
       id="path1803" />
    <path
       d="m 869.091,678.619 c 2.177,2.47 5.081,5.299 8.208,7.652 l 0.44,0.331 3.613,-5.92 -0.556,-0.217 c -1.876,-0.733 -5.913,-3.031 -8.056,-5.318 l -0.729,0.684 c 2.05,2.188 5.755,4.389 7.874,5.335 0,0 -2.424,3.971 -2.424,3.971 -2.902,-2.241 -5.584,-4.869 -7.619,-7.179 z"
       style="fill:#000000"
       id="path1804" />
  </g>
</svg>
