<?xml version="1.0" encoding="UTF-8" standalone="no"?>
<svg
   id="b"
   width="20"
   height="16"
   viewBox="0 0 20 16"
   version="1.1"
   sodipodi:docname="overlap-scissors.svg"
   inkscape:version="1.3.1 (91b66b0, 2023-11-16)"
   xml:space="preserve"
   xmlns:inkscape="http://www.inkscape.org/namespaces/inkscape"
   xmlns:sodipodi="http://sodipodi.sourceforge.net/DTD/sodipodi-0.dtd"
   xmlns="http://www.w3.org/2000/svg"
   xmlns:svg="http://www.w3.org/2000/svg"><sodipodi:namedview
     id="namedview3"
     pagecolor="#ffffff"
     bordercolor="#000000"
     borderopacity="0.25"
     inkscape:showpageshadow="2"
     inkscape:pageopacity="0.0"
     inkscape:pagecheckerboard="0"
     inkscape:deskcolor="#d1d1d1"
     inkscape:zoom="14.75"
     inkscape:cx="5.9322034"
     inkscape:cy="8.5423729"
     inkscape:window-width="1312"
     inkscape:window-height="449"
     inkscape:window-x="40"
     inkscape:window-y="389"
     inkscape:window-maximized="0"
     inkscape:current-layer="d" /><defs
     id="defs1"><style
       id="style1">.e{stroke:#000;stroke-linecap:round;stroke-linejoin:round;}.e,.f{fill:none;}.f{opacity:.2;stroke-width:0px;}</style></defs><g
     id="c"><g
       id="d"><path
         d="m 8.7985663,14.977371 c 1.006,-0.166 1.8059997,-1.186 1.8059997,-2.272 -10e-4,-0.7 -0.338,-1.302 -0.8739997,-1.579 L 12.360566,1.3173709 c 0.028,-0.107 -0.035,-0.216 -0.142,-0.246 -1.11,-0.29799997 -2.2539997,0.363 -2.5549997,1.472 -0.086,0.327 -1.333,4.972 -1.533,5.727 -0.022,0.075 0,0.157 0.063,0.209 0.475,0.397 0.639,1.019 0.492,1.5530001 l -0.28,1.038 c -0.827,0.316 -1.438,1.229 -1.436,2.162 0,1.03 0.751,1.923 1.828,1.745 M 15.047566,8.3383709 c 1.016,-0.273 1.629,-1.315 1.355,-2.347 -0.012,-0.047 -0.043,-0.087 -0.086,-0.112 -0.042,-0.022 -0.092,-0.03 -0.14,-0.018 l -5.06,1.357 -0.629,2.344 z M 5.1415663,10.746371 c 0.829,0 1.636,-0.51 1.957,-1.2220001 l 1.068,-0.286 c 0.086,-0.023 0.172,-0.037 0.261,-0.045 -0.05,-0.152 -0.135,-0.293 -0.253,-0.411 -0.041,-0.041 -0.349,-0.255 -0.241,-0.631 l 0.023,-0.087 -0.823,0.221 c -0.239,-0.54 -0.805,-0.878 -1.492,-0.879 -0.999,0 -1.936,0.733 -2.087,1.638 -0.168,0.9770001 0.628,1.6980001 1.587,1.7020001 m 3.745,0.939 c 0.436,-0.071 0.795,0.266 0.796,0.754 -10e-4,0.489 -0.358,0.945 -0.794,1.018 -0.437,0.074 -0.794,-0.264 -0.794,-0.752 0,-0.488 0.354,-0.945 0.792,-1.02 m -3.36,-3.4050001 c 0.487,0 0.823,0.359 0.75,0.795 -0.073,0.438 -0.532,0.794 -1.018,0.793 -0.489,0 -0.826,-0.356 -0.752,-0.794 0.073,-0.436 0.53,-0.794 1.02,-0.794 m 3.682,0.121 c -0.133,-0.132 -0.133,-0.348 0.001,-0.482 0.131,-0.132 0.347,-0.131 0.479,0 0.133,0.133 0.133,0.348 0,0.48 -0.132,0.133 -0.347,0.133 -0.48,0"
         style="clip-rule:evenodd;fill-rule:nonzero;stroke-miterlimit:10"
         id="path971" /></g></g></svg>
