<?xml version="1.0" encoding="UTF-8"?><svg id="b" xmlns="http://www.w3.org/2000/svg" width="20" height="16" viewBox="0 0 20 16"><defs><style>.e{stroke-linejoin:round;}.e,.f,.g{fill:none;}.e,.g{stroke:#000;stroke-linecap:round;}.f{opacity:.2;stroke-width:0px;}.g{stroke-miterlimit:10;stroke-width:.9px;}</style></defs><g id="c"><g id="d"><rect class="f" width="20" height="16"/><path class="g" d="m14.02,7.22c1.13,2.72,1.88,6.56,3.97,6.57"/><path class="g" d="m7.65,10.79c1.06-2.69,1.83-6.21,3.84-6.22.27,0,.52.06.76.18"/><path class="g" d="m1.74,9.18c.81,2.31,1.63,4.62,3.26,4.61.18,0,.34-.03.5-.08"/><path class="g" d="m5.17,8.97c.84,2.38,1.65,4.84,3.33,4.82,3.25-.02,3.25-9.2,6.5-9.22,1.62-.01,2.44,2.29,3.25,4.6"/><line class="e" x1="1.74" y1="4.5" x2="6.39" y2="4.5"/><polyline class="e" points="4.99 2.75 6.74 4.5 4.99 6.25"/></g></g></svg>