<?xml version="1.0" encoding="UTF-8" standalone="no"?>
<svg
   id="b"
   width="20"
   height="19"
   viewBox="0 0 20 19"
   version="1.1"
   sodipodi:docname="scribble-zigzag.svg"
   inkscape:version="1.3.1 (91b66b0, 2023-11-16)"
   xml:space="preserve"
   xmlns:inkscape="http://www.inkscape.org/namespaces/inkscape"
   xmlns:sodipodi="http://sodipodi.sourceforge.net/DTD/sodipodi-0.dtd"
   xmlns="http://www.w3.org/2000/svg"
   xmlns:svg="http://www.w3.org/2000/svg"><sodipodi:namedview
     id="namedview3"
     pagecolor="#ffffff"
     bordercolor="#000000"
     borderopacity="0.25"
     inkscape:showpageshadow="2"
     inkscape:pageopacity="0.0"
     inkscape:pagecheckerboard="0"
     inkscape:deskcolor="#d1d1d1"
     inkscape:zoom="14.75"
     inkscape:cx="3.5254237"
     inkscape:cy="9.3559322"
     inkscape:window-width="1336"
     inkscape:window-height="615"
     inkscape:window-x="46"
     inkscape:window-y="177"
     inkscape:window-maximized="0"
     inkscape:current-layer="b" /><defs
     id="defs1"><style
       id="style1">.e{stroke:#000;stroke-linecap:round;stroke-linejoin:round;}.e,.f{fill:none;}.f{opacity:.2;stroke-width:0px;}</style><clipPath
       clipPathUnits="userSpaceOnUse"
       id="clipPath4543"><path
         d="M 0,1205.777 H 2738.234 V 0 H 0 Z"
         transform="translate(-1380.2346,-400.85451)"
         id="path4543" /></clipPath></defs><g
     id="c"><g
       id="d"><rect
         class="f"
         width="20"
         height="18.983051"
         id="rect3"
         x="0"
         y="0" /><path
         style="color:#000000;fill:#000000 icc-color(Display, 0, 0, 0);stroke-linecap:round;stroke-linejoin:round;stroke-miterlimit:10;-inkscape-stroke:none"
         d="M 9.7070313,-10.40625 A 0.50005,0.50005 0 0 0 9.5527344,-9.7773438 L 12.175781,-4.53125 6.3535156,-10.353516 a 0.50005,0.50005 0 0 0 -0.7695312,0.6308597 l 5.1992186,7.7988282 -8.4296874,-8.4296879 a 0.50005,0.50005 0 0 0 -0.7636719,0.6386722 l 5.84375,8.4414063 -7.08007807,-7.0800781 A 0.50005,0.50005 0 0 0 -0.421875,-7.7324219 L 4.1347656,-0.57226562 0.35351563,-4.3535156 a 0.50005,0.50005 0 0 0 -0.81250001,0.5507812 L 1.5195312,0.8125 0.35351563,-0.35351563 a 0.5,0.5 0 0 0 -0.70703126,0 0.5,0.5 0 0 0 0,0.70703126 L 2.6464844,3.3535156 a 0.50005,0.50005 0 0 0 0.8125,-0.5507812 L 1.4804687,-1.8125 6.6464844,3.3535156 A 0.50005,0.50005 0 0 0 7.421875,2.7324219 l -4.5566406,-7.1601563 7.7812496,7.78125 A 0.50005,0.50005 0 0 0 11.410156,2.7148438 L 5.5664062,-5.7265625 13.646484,2.3535156 a 0.50005,0.50005 0 0 0 0.769532,-0.6308594 l -5.1992191,-7.7988281 4.4296871,4.4296875 a 0.50005,0.50005 0 0 0 0.800782,-0.5761719 l -2.623047,-5.2460937 1.822265,1.8222656 a 0.5,0.5 0 0 0 0.707032,0 0.5,0.5 0 0 0 0,-0.7070312 l -4,-4.0000004 a 0.50005,0.50005 0 0 0 -0.6464847,-0.05273 z"
         id="path4542"
         transform="matrix(1.3333333,0,0,-1.3333333,0.6666669,4.8333562)" /></g></g></svg>
