<?xml version="1.0" encoding="UTF-8" standalone="no"?>
<svg
   id="b"
   width="20"
   height="16"
   viewBox="0 0 20 16"
   version="1.1"
   sodipodi:docname="send-back.svg"
   inkscape:version="1.3.1 (91b66b0, 2023-11-16)"
   xml:space="preserve"
   xmlns:inkscape="http://www.inkscape.org/namespaces/inkscape"
   xmlns:sodipodi="http://sodipodi.sourceforge.net/DTD/sodipodi-0.dtd"
   xmlns="http://www.w3.org/2000/svg"
   xmlns:svg="http://www.w3.org/2000/svg"><sodipodi:namedview
     id="namedview3"
     pagecolor="#ffffff"
     bordercolor="#000000"
     borderopacity="0.25"
     inkscape:showpageshadow="2"
     inkscape:pageopacity="0.0"
     inkscape:pagecheckerboard="0"
     inkscape:deskcolor="#d1d1d1"
     inkscape:zoom="14.75"
     inkscape:cx="5.9322034"
     inkscape:cy="8.5423729"
     inkscape:window-width="1312"
     inkscape:window-height="449"
     inkscape:window-x="40"
     inkscape:window-y="389"
     inkscape:window-maximized="0"
     inkscape:current-layer="d" /><defs
     id="defs1"><style
       id="style1">.e{stroke:#000;stroke-linecap:round;stroke-linejoin:round;}.e,.f{fill:none;}.f{opacity:.2;stroke-width:0px;}</style></defs><g
     id="c"><g
       id="d"><g
         id="g3"
         transform="translate(-6,-6)"><path
           d="M 17.501,7 H 10.499 C 9.671,7 9,7.671 9,8.499 v 7.002 C 9,16.329 9.671,17 10.499,17 h 7.002 C 18.329,17 19,16.329 19,15.501 V 8.499 C 19,7.671 18.329,7 17.501,7 m 0,1 C 17.776,8 18,8.224 18,8.499 v 7.002 C 18,15.776 17.776,16 17.501,16 H 10.499 C 10.224,16 10,15.776 10,15.501 V 8.499 C 10,8.224 10.224,8 10.499,8 Z"
           style="clip-rule:evenodd;fill-rule:nonzero;stroke-miterlimit:10"
           id="path917" /><path
           d="M 21.501,11 H 18 v 4.501 C 18,15.776 17.776,16 17.501,16 H 13 v 3.501 C 13,20.329 13.671,21 14.499,21 h 7.002 C 22.329,21 23,20.329 23,19.501 V 12.499 C 23,11.671 22.329,11 21.501,11"
           style="clip-rule:evenodd;fill-rule:nonzero;stroke-miterlimit:10"
           id="path918" /></g></g></g></svg>
