<?xml version="1.0" encoding="UTF-8"?><svg id="b" xmlns="http://www.w3.org/2000/svg" width="20" height="16" viewBox="0 0 20 16"><defs><style>.e{stroke:#000;stroke-linecap:round;stroke-linejoin:round;}.e,.f{fill:none;}.f{opacity:.2;}.f,.g{stroke-width:0px;}</style></defs><g id="c"><g id="d"><path class="g" d="m18.5,1.01c0,.41-.34.73-.74.72L1.5,1.25v-.25L17.75.28c.41-.02.75.31.75.72h0Z"/><path class="g" d="m18.5,15.01c0,.41-.34.73-.74.72l-16.26-.48v-.25l16.25-.72c.41-.02.75.31.75.72h0Z"/><path class="g" d="m18.5,6.01c0,.41-.34.73-.74.72l-16.26-.48v-.25l16.25-.72c.41-.02.75.31.75.72h0Z"/><line class="e" x1="10" y1="12.5" x2="10" y2="8.9"/><polyline class="e" points="8.25 10.3 10 8.54 11.76 10.3"/><rect class="f" width="20" height="16"/></g></g></svg>