<?xml version="1.0" encoding="UTF-8"?><svg id="b" xmlns="http://www.w3.org/2000/svg" width="20" height="16" viewBox="0 0 20 16"><defs><style>.f,.g{fill:none;}.g{stroke:#000;stroke-linecap:round;stroke-linejoin:round;}</style></defs><g id="c"><g id="d"><g id="e"><path d="M17.99,15.26c-.08.4-.47.66-.87.57L1.25,12.25l.05-.25,16.08,2.4c.41.06.68.45.6.85h0Z"/><path d="M17.94.74c.08.4-.19.79-.59.85L1.3,4.23l-.05-.25L17.06.18c.4-.1.8.16.88.56h0Z"/><line class="g" x1="10.5" y1="8.43" x2="10.5" y2="4.83"/><polyline class="g" points="8.75 6.23 10.5 4.48 12.26 6.23"/><line class="g" x1="10.51" y1="6.74" x2="10.51" y2="11.65"/><polyline class="g" points="12.26 10.25 10.51 12 8.76 10.25"/></g><rect class="f" width="20" height="16"/></g></g></svg>