<?xml version="1.0" encoding="UTF-8" standalone="no"?>
<svg
   id="b"
   width="20"
   height="16"
   viewBox="0 0 20 16"
   version="1.1"
   sodipodi:docname="tool-mask-freeform.svg"
   inkscape:version="1.3.1 (91b66b0, 2023-11-16)"
   xml:space="preserve"
   xmlns:inkscape="http://www.inkscape.org/namespaces/inkscape"
   xmlns:sodipodi="http://sodipodi.sourceforge.net/DTD/sodipodi-0.dtd"
   xmlns="http://www.w3.org/2000/svg"
   xmlns:svg="http://www.w3.org/2000/svg"><sodipodi:namedview
     id="namedview3"
     pagecolor="#ffffff"
     bordercolor="#000000"
     borderopacity="0.25"
     inkscape:showpageshadow="2"
     inkscape:pageopacity="0.0"
     inkscape:pagecheckerboard="0"
     inkscape:deskcolor="#d1d1d1"
     inkscape:zoom="14.75"
     inkscape:cx="5.9661017"
     inkscape:cy="8.5423729"
     inkscape:window-width="1312"
     inkscape:window-height="605"
     inkscape:window-x="26"
     inkscape:window-y="263"
     inkscape:window-maximized="0"
     inkscape:current-layer="g1" /><defs
     id="defs1"><style
       id="style1">.e{stroke:#000;stroke-linecap:round;stroke-linejoin:round;}.e,.f{fill:none;}.f{opacity:.2;stroke-width:0px;}</style><clipPath
       clipPathUnits="userSpaceOnUse"
       id="clipPath3761"><path
         d="M 0,1205.777 H 2738.234 V 0 H 0 Z"
         transform="translate(-1062.36,-340.07301)"
         id="path3761" /></clipPath><clipPath
       clipPathUnits="userSpaceOnUse"
       id="clipPath3763"><path
         d="M 0,1205.777 H 2738.234 V 0 H 0 Z"
         transform="translate(-1062.2632,-337.60821)"
         id="path3763" /></clipPath><clipPath
       clipPathUnits="userSpaceOnUse"
       id="clipPath3765"><path
         d="M 0,1205.777 H 2738.234 V 0 H 0 Z"
         transform="translate(-1062.2632,-335.39121)"
         id="path3765" /></clipPath><clipPath
       clipPathUnits="userSpaceOnUse"
       id="clipPath3767"><path
         d="M 0,1205.777 H 2738.234 V 0 H 0 Z"
         transform="translate(-1062.4291,-333.34101)"
         id="path3767" /></clipPath><clipPath
       clipPathUnits="userSpaceOnUse"
       id="clipPath3769"><path
         d="M 0,1205.777 H 2738.234 V 0 H 0 Z"
         transform="translate(-1062.9171,-331.61488)"
         id="path3769" /></clipPath><clipPath
       clipPathUnits="userSpaceOnUse"
       id="clipPath3771"><path
         d="M 0,1205.777 H 2738.234 V 0 H 0 Z"
         transform="translate(-1063.7688,-330.25498)"
         id="path3771" /></clipPath><clipPath
       clipPathUnits="userSpaceOnUse"
       id="clipPath3773"><path
         d="M 0,1205.777 H 2738.234 V 0 H 0 Z"
         transform="translate(-1064.9308,-329.20708)"
         id="path3773" /></clipPath><clipPath
       clipPathUnits="userSpaceOnUse"
       id="clipPath3775"><path
         d="M 0,1205.777 H 2738.234 V 0 H 0 Z"
         transform="translate(-1066.5945,-328.66393)"
         id="path3775" /></clipPath><clipPath
       clipPathUnits="userSpaceOnUse"
       id="clipPath3777"><path
         d="M 0,1205.777 H 2738.234 V 0 H 0 Z"
         transform="translate(-1069.0444,-328.91211)"
         id="path3777" /></clipPath><clipPath
       clipPathUnits="userSpaceOnUse"
       id="clipPath3918"><path
         d="M 0,1205.777 H 2738.234 V 0 H 0 Z"
         transform="translate(-964.05505,-422.70974)"
         id="path3918" /></clipPath><clipPath
       clipPathUnits="userSpaceOnUse"
       id="clipPath3920"><path
         d="M 0,1205.777 H 2738.234 V 0 H 0 Z"
         transform="translate(-975.25705,-427.27334)"
         id="path3920" /></clipPath><clipPath
       clipPathUnits="userSpaceOnUse"
       id="clipPath3922"><path
         d="M 0,1205.777 H 2738.234 V 0 H 0 Z"
         transform="translate(-965.65892,-422.15909)"
         id="path3922" /></clipPath><clipPath
       clipPathUnits="userSpaceOnUse"
       id="clipPath3924"><path
         d="M 0,1205.777 H 2738.234 V 0 H 0 Z"
         transform="translate(-967.69502,-426.07514)"
         id="path3924" /></clipPath><clipPath
       clipPathUnits="userSpaceOnUse"
       id="clipPath3926"><path
         d="M 0,1205.777 H 2738.234 V 0 H 0 Z"
         transform="translate(-966.9304,-423.85139)"
         id="path3926" /></clipPath><clipPath
       clipPathUnits="userSpaceOnUse"
       id="clipPath3928"><path
         d="M 0,1205.777 H 2738.234 V 0 H 0 Z"
         transform="translate(-975.6979,-429.85529)"
         id="path3928" /></clipPath><clipPath
       clipPathUnits="userSpaceOnUse"
       id="clipPath3930"><path
         d="M 0,1205.777 H 2738.234 V 0 H 0 Z"
         transform="translate(-973.447,-432.10731)"
         id="path3930" /></clipPath><clipPath
       clipPathUnits="userSpaceOnUse"
       id="clipPath2494"><path
         d="M 0,1205.777 H 2738.234 V 0 H 0 Z"
         transform="translate(-1006.1637,-427.52789)"
         id="path2494" /></clipPath><clipPath
       clipPathUnits="userSpaceOnUse"
       id="clipPath2505"><path
         d="M 0,1205.777 H 2738.234 V 0 H 0 Z"
         transform="translate(0,2.5000001e-5)"
         id="path2505" /></clipPath><clipPath
       clipPathUnits="userSpaceOnUse"
       id="clipPath2507"><path
         d="M 0,1205.777 H 2738.234 V 0 H 0 Z"
         transform="translate(0,2.5000001e-5)"
         id="path2507" /></clipPath><clipPath
       clipPathUnits="userSpaceOnUse"
       id="clipPath2509"><path
         d="M 0,1205.777 H 2738.234 V 0 H 0 Z"
         transform="translate(0,2.5000001e-5)"
         id="path2509" /></clipPath><clipPath
       clipPathUnits="userSpaceOnUse"
       id="clipPath2511"><path
         d="M 0,1205.777 H 2738.234 V 0 H 0 Z"
         transform="translate(0,2.5000001e-5)"
         id="path2511" /></clipPath><clipPath
       clipPathUnits="userSpaceOnUse"
       id="clipPath2513"><path
         d="M 0,1205.777 H 2738.234 V 0 H 0 Z"
         transform="translate(0,2.5000001e-5)"
         id="path2513" /></clipPath><clipPath
       clipPathUnits="userSpaceOnUse"
       id="clipPath2515"><path
         d="M 0,1205.777 H 2738.234 V 0 H 0 Z"
         transform="translate(-1130.1741,-427.58684)"
         id="path2515" /></clipPath><clipPath
       clipPathUnits="userSpaceOnUse"
       id="clipPath2517"><path
         d="M 0,1205.777 H 2738.234 V 0 H 0 Z"
         transform="translate(-1133.0022,-428.29409)"
         id="path2517" /></clipPath><clipPath
       clipPathUnits="userSpaceOnUse"
       id="clipPath2505-0"><path
         d="M 0,1205.777 H 2738.234 V 0 H 0 Z"
         transform="translate(0,2.5000001e-5)"
         id="path2505-4" /></clipPath></defs><g
     id="g1"
     transform="translate(-0.43216786,0.07904603)"><path
       d="m 12.405703,14.007963 c -0.199,-0.039 -0.349,-0.161 -0.483,-0.309 -0.197,-0.219 -0.356,-0.497 -0.513,-0.775 -0.17,-0.3 -0.552,-0.406 -0.852,-0.236 -0.3,0.17 -0.406,0.552 -0.236,0.852 0.456,0.804 0.993,1.529 1.845,1.695 0.339,0.066 0.667,-0.155 0.733,-0.494 0.066,-0.338 -0.155,-0.667 -0.494,-0.733 z m -7.0480004,-0.307 -0.055,10e-4 c -0.476,0.001 -0.954,-0.26 -1.335,-0.613 -0.252,-0.235 -0.648,-0.221 -0.883,0.032 -0.235,0.252 -0.22,0.648 0.032,0.883 0.617,0.574 1.416,0.95 2.189,0.948 0.038,0 0.075,-10e-4 0.112,-0.003 0.345,-0.016 0.611,-0.31 0.594,-0.654 -0.016,-0.345 -0.31,-0.611 -0.654,-0.594 z m 9.4800004,-1.962 c -0.053,0.495 -0.359,1.015 -0.756,1.439 -0.236,0.251 -0.223,0.647 0.029,0.883 0.252,0.236 0.647,0.223 0.883,-0.029 0.591,-0.63 1.008,-1.424 1.087,-2.16 0.036,-0.343 -0.212,-0.651 -0.555,-0.688 -0.343,-0.036 -0.652,0.212 -0.688,0.555 z m -5.8940004,-0.672 c -0.737,0.108 -1.355,0.741 -1.966,1.453 -0.225,0.262 -0.195,0.657 0.067,0.882 0.262,0.224 0.657,0.194 0.881,-0.068 0.232,-0.269 0.455,-0.537 0.692,-0.745 0.159,-0.14 0.319,-0.258 0.507,-0.285 0.342,-0.05 0.578,-0.368 0.528,-0.709 -0.05,-0.341 -0.367,-0.578 -0.709,-0.528 z m -5.665,0.371 c 0.127,-0.428 0.479,-0.851 1.011,-1.456 0.227,-0.259 0.202,-0.654 -0.057,-0.882 -0.259,-0.228 -0.655,-0.202 -0.882,0.057 -0.693,0.788 -1.106,1.37 -1.271,1.927 -0.097,0.331 0.092,0.679 0.423,0.777 0.331,0.097 0.679,-0.092 0.776,-0.423 z m 11.1100004,-2.369 0.028,-0.006 c 0.34,-0.06 0.566,-0.385 0.506,-0.724 -0.06,-0.34 -0.385,-0.567 -0.725,-0.507 -0.337,0.061 -0.604,0.135 -0.787,0.242 -0.237,0.138 -0.389,0.326 -0.464,0.577 v 0 c -0.087,0.296 -0.039,0.585 0.148,0.87 0.142,0.217 0.4,0.445 0.705,0.688 0.27,0.215 0.664,0.17 0.878,-0.1 0.215,-0.27 0.171,-0.663 -0.099,-0.878 -0.061,-0.048 -0.128,-0.106 -0.19,-0.162 z m -8.3560004,-0.939 c 0.501,-0.526 0.709,-0.931 0.679,-1.474 v 0 c -0.027,-0.48 -0.237,-0.777 -0.491,-1.125 -0.204,-0.278 -0.595,-0.339 -0.873,-0.136 -0.279,0.203 -0.34,0.595 -0.137,0.873 0.109,0.148 0.241,0.254 0.253,0.458 0.012,0.213 -0.139,0.336 -0.336,0.542 -0.238,0.25 -0.228,0.646 0.021,0.884 0.25,0.238 0.646,0.228 0.884,-0.022 z m 11.6090004,-2.231 c -0.32,0.564 -0.944,0.99 -1.26,1.191 -0.291,0.184 -0.378,0.571 -0.193,0.862 0.185,0.291 0.571,0.378 0.862,0.193 0.427,-0.27 1.246,-0.868 1.678,-1.629 0.17,-0.3 0.065,-0.681 -0.235,-0.852 -0.3,-0.17 -0.681,-0.065 -0.852,0.235 z m -1.685,-1.47 c 0.284,-0.13 0.601,-0.262 0.957,-0.159 0.126,0.037 0.246,0.1 0.355,0.18 0.278,0.203 0.67,0.143 0.873,-0.136 0.204,-0.278 0.143,-0.67 -0.135,-0.873 -0.227,-0.166 -0.479,-0.294 -0.744,-0.371 v 0 c -0.675,-0.196 -1.289,-0.024 -1.826,0.223 -0.314,0.143 -0.452,0.514 -0.308,0.828 0.143,0.314 0.514,0.452 0.828,0.308 z m -10.8360004,-1.458 -0.001,0.001 c -0.04,0.043 -0.078,0.088 -0.113,0.135 -0.206,0.277 -0.149,0.669 0.128,0.875 0.276,0.206 0.668,0.149 0.874,-0.128 0.01,-0.009 0.015,-0.018 0.023,-0.027 v 0 c 0.126,-0.134 0.305,-0.083 0.503,-0.054 0.272,0.04 0.569,0.117 0.882,0.179 0.339,0.066 0.668,-0.155 0.734,-0.494 0.066,-0.338 -0.155,-0.667 -0.494,-0.733 -0.537,-0.105 -1.036,-0.237 -1.454,-0.222 -0.421,0.015 -0.784,0.151 -1.082,0.468 z m 8.1650004,-1.246 0.082,0.071 c 0.125,0.13 0.165,0.294 0.183,0.462 0.029,0.266 -0.001,0.545 -0.02,0.804 -0.026,0.344 0.232,0.644 0.575,0.67 0.344,0.026 0.645,-0.232 0.671,-0.575 0.058,-0.76 0.071,-1.625 -0.508,-2.22699997 -0.076,-0.079 -0.158,-0.15 -0.245,-0.214 -0.279,-0.204 -0.67,-0.143 -0.874,0.135 -0.203,0.27899997 -0.143,0.66999997 0.136,0.87399997 z m -2.901,1.546 c 0.243,-0.244 0.415,-0.515 0.576,-0.788 0.155,-0.262 0.288,-0.534 0.583,-0.721 0.291,-0.184 0.378,-0.571 0.194,-0.86199997 -0.184,-0.292 -0.571,-0.379 -0.862,-0.194 -0.414,0.261 -0.665,0.59999997 -0.8850004,0.96299997 -0.147,0.242 -0.272,0.5 -0.491,0.719 -0.244,0.244 -0.243,0.64 0,0.884 0.244,0.244 0.6400004,0.243 0.8840004,-10e-4 z"
       id="path1327"
       style="clip-rule:evenodd;fill-rule:evenodd;stroke-linejoin:round;stroke-miterlimit:2" /></g></svg>
