<?xml version="1.0" encoding="UTF-8" standalone="no"?>
<svg
   id="b"
   width="20"
   height="16"
   viewBox="0 0 20 16"
   version="1.1"
   sodipodi:docname="tool-brush-painter.svg"
   inkscape:version="1.3.1 (91b66b0, 2023-11-16)"
   xml:space="preserve"
   xmlns:inkscape="http://www.inkscape.org/namespaces/inkscape"
   xmlns:sodipodi="http://sodipodi.sourceforge.net/DTD/sodipodi-0.dtd"
   xmlns="http://www.w3.org/2000/svg"
   xmlns:svg="http://www.w3.org/2000/svg"><sodipodi:namedview
     id="namedview3"
     pagecolor="#ffffff"
     bordercolor="#000000"
     borderopacity="0.25"
     inkscape:showpageshadow="2"
     inkscape:pageopacity="0.0"
     inkscape:pagecheckerboard="0"
     inkscape:deskcolor="#d1d1d1"
     inkscape:zoom="14.75"
     inkscape:cx="8"
     inkscape:cy="5.6949153"
     inkscape:window-width="1312"
     inkscape:window-height="605"
     inkscape:window-x="16"
     inkscape:window-y="239"
     inkscape:window-maximized="0"
     inkscape:current-layer="g2" /><defs
     id="defs1"><style
       id="style1">.e{stroke:#000;stroke-linecap:round;stroke-linejoin:round;}.e,.f{fill:none;}.f{opacity:.2;stroke-width:0px;}</style><clipPath
       clipPathUnits="userSpaceOnUse"
       id="clipPath3761"><path
         d="M 0,1205.777 H 2738.234 V 0 H 0 Z"
         transform="translate(-1062.36,-340.07301)"
         id="path3761" /></clipPath><clipPath
       clipPathUnits="userSpaceOnUse"
       id="clipPath3763"><path
         d="M 0,1205.777 H 2738.234 V 0 H 0 Z"
         transform="translate(-1062.2632,-337.60821)"
         id="path3763" /></clipPath><clipPath
       clipPathUnits="userSpaceOnUse"
       id="clipPath3765"><path
         d="M 0,1205.777 H 2738.234 V 0 H 0 Z"
         transform="translate(-1062.2632,-335.39121)"
         id="path3765" /></clipPath><clipPath
       clipPathUnits="userSpaceOnUse"
       id="clipPath3767"><path
         d="M 0,1205.777 H 2738.234 V 0 H 0 Z"
         transform="translate(-1062.4291,-333.34101)"
         id="path3767" /></clipPath><clipPath
       clipPathUnits="userSpaceOnUse"
       id="clipPath3769"><path
         d="M 0,1205.777 H 2738.234 V 0 H 0 Z"
         transform="translate(-1062.9171,-331.61488)"
         id="path3769" /></clipPath><clipPath
       clipPathUnits="userSpaceOnUse"
       id="clipPath3771"><path
         d="M 0,1205.777 H 2738.234 V 0 H 0 Z"
         transform="translate(-1063.7688,-330.25498)"
         id="path3771" /></clipPath><clipPath
       clipPathUnits="userSpaceOnUse"
       id="clipPath3773"><path
         d="M 0,1205.777 H 2738.234 V 0 H 0 Z"
         transform="translate(-1064.9308,-329.20708)"
         id="path3773" /></clipPath><clipPath
       clipPathUnits="userSpaceOnUse"
       id="clipPath3775"><path
         d="M 0,1205.777 H 2738.234 V 0 H 0 Z"
         transform="translate(-1066.5945,-328.66393)"
         id="path3775" /></clipPath><clipPath
       clipPathUnits="userSpaceOnUse"
       id="clipPath3777"><path
         d="M 0,1205.777 H 2738.234 V 0 H 0 Z"
         transform="translate(-1069.0444,-328.91211)"
         id="path3777" /></clipPath><clipPath
       clipPathUnits="userSpaceOnUse"
       id="clipPath3918"><path
         d="M 0,1205.777 H 2738.234 V 0 H 0 Z"
         transform="translate(-964.05505,-422.70974)"
         id="path3918" /></clipPath><clipPath
       clipPathUnits="userSpaceOnUse"
       id="clipPath3920"><path
         d="M 0,1205.777 H 2738.234 V 0 H 0 Z"
         transform="translate(-975.25705,-427.27334)"
         id="path3920" /></clipPath><clipPath
       clipPathUnits="userSpaceOnUse"
       id="clipPath3922"><path
         d="M 0,1205.777 H 2738.234 V 0 H 0 Z"
         transform="translate(-965.65892,-422.15909)"
         id="path3922" /></clipPath><clipPath
       clipPathUnits="userSpaceOnUse"
       id="clipPath3924"><path
         d="M 0,1205.777 H 2738.234 V 0 H 0 Z"
         transform="translate(-967.69502,-426.07514)"
         id="path3924" /></clipPath><clipPath
       clipPathUnits="userSpaceOnUse"
       id="clipPath3926"><path
         d="M 0,1205.777 H 2738.234 V 0 H 0 Z"
         transform="translate(-966.9304,-423.85139)"
         id="path3926" /></clipPath><clipPath
       clipPathUnits="userSpaceOnUse"
       id="clipPath3928"><path
         d="M 0,1205.777 H 2738.234 V 0 H 0 Z"
         transform="translate(-975.6979,-429.85529)"
         id="path3928" /></clipPath><clipPath
       clipPathUnits="userSpaceOnUse"
       id="clipPath3930"><path
         d="M 0,1205.777 H 2738.234 V 0 H 0 Z"
         transform="translate(-973.447,-432.10731)"
         id="path3930" /></clipPath><clipPath
       clipPathUnits="userSpaceOnUse"
       id="clipPath2494"><path
         d="M 0,1205.777 H 2738.234 V 0 H 0 Z"
         transform="translate(-1006.1637,-427.52789)"
         id="path2494" /></clipPath><clipPath
       clipPathUnits="userSpaceOnUse"
       id="clipPath2505"><path
         d="M 0,1205.777 H 2738.234 V 0 H 0 Z"
         transform="translate(0,2.5000001e-5)"
         id="path2505" /></clipPath><clipPath
       clipPathUnits="userSpaceOnUse"
       id="clipPath2507"><path
         d="M 0,1205.777 H 2738.234 V 0 H 0 Z"
         transform="translate(0,2.5000001e-5)"
         id="path2507" /></clipPath><clipPath
       clipPathUnits="userSpaceOnUse"
       id="clipPath2509"><path
         d="M 0,1205.777 H 2738.234 V 0 H 0 Z"
         transform="translate(0,2.5000001e-5)"
         id="path2509" /></clipPath><clipPath
       clipPathUnits="userSpaceOnUse"
       id="clipPath2511"><path
         d="M 0,1205.777 H 2738.234 V 0 H 0 Z"
         transform="translate(0,2.5000001e-5)"
         id="path2511" /></clipPath><clipPath
       clipPathUnits="userSpaceOnUse"
       id="clipPath2513"><path
         d="M 0,1205.777 H 2738.234 V 0 H 0 Z"
         transform="translate(0,2.5000001e-5)"
         id="path2513" /></clipPath><clipPath
       clipPathUnits="userSpaceOnUse"
       id="clipPath2515"><path
         d="M 0,1205.777 H 2738.234 V 0 H 0 Z"
         transform="translate(-1130.1741,-427.58684)"
         id="path2515" /></clipPath><clipPath
       clipPathUnits="userSpaceOnUse"
       id="clipPath2517"><path
         d="M 0,1205.777 H 2738.234 V 0 H 0 Z"
         transform="translate(-1133.0022,-428.29409)"
         id="path2517" /></clipPath><clipPath
       clipPathUnits="userSpaceOnUse"
       id="clipPath2505-0"><path
         d="M 0,1205.777 H 2738.234 V 0 H 0 Z"
         transform="translate(0,2.5000001e-5)"
         id="path2505-4" /></clipPath><clipPath
       clipPathUnits="userSpaceOnUse"
       id="clipPath2723"><path
         d="M 0,1205.777 H 2738.234 V 0 H 0 Z"
         transform="translate(-1131.5205,-527.12161)"
         id="path2723" /></clipPath><clipPath
       clipPathUnits="userSpaceOnUse"
       id="clipPath2725"><path
         d="M 0,1205.777 H 2738.234 V 0 H 0 Z"
         transform="translate(-1139.3448,-530.54301)"
         id="path2725" /></clipPath><clipPath
       clipPathUnits="userSpaceOnUse"
       id="clipPath2727"><path
         d="M 0,1205.777 H 2738.234 V 0 H 0 Z"
         transform="translate(-1132.5946,-522.10101)"
         id="path2727" /></clipPath><clipPath
       clipPathUnits="userSpaceOnUse"
       id="clipPath2729"><path
         d="M 0,1205.777 H 2738.234 V 0 H 0 Z"
         transform="translate(0,2.5000001e-5)"
         id="path2729" /></clipPath><clipPath
       clipPathUnits="userSpaceOnUse"
       id="clipPath2731"><path
         d="M 0,1205.777 H 2738.234 V 0 H 0 Z"
         transform="translate(0,2.5000001e-5)"
         id="path2731" /></clipPath></defs><g
     id="g1"
     transform="translate(-0.43216786,0.07904603)"><g
       id="g2"
       transform="translate(-0.88895097,-2.0603587)"><path
         id="path2722"
         d="M 0,0 C -0.964,0.501 -2.115,0.391 -2.865,-0.277 -4.347,-1.598 -3.94,-3.353 -6.359,-4.116 -9.178,-4.564 -2.482,-7.999 0.663,-4.399 2.345,-2.47 1.284,-0.667 0,0"
         style="fill:#000000 icc-color(Display, 0, 0, 0);fill-opacity:1;fill-rule:nonzero;stroke:none"
         transform="matrix(0.84097108,0,0,-0.84097108,11.496039,9.0191279)"
         clip-path="url(#clipPath2723)" /><path
         id="path2724"
         d="m 0,0 c -0.016,0.019 -0.107,0.129 -0.151,0.181 -0.182,0.21 -0.511,0.198 -0.707,0.006 l -0.912,-0.9 c -1.921,-1.9 -3.316,-3.07 -4.186,-2.138 -0.642,0.996 0.396,2.217 2.227,4.068 L -2.747,2.21 C -2.552,2.406 -2.554,2.723 -2.75,2.917 -2.946,3.112 -3.264,3.108 -3.458,2.913 L -4.44,1.92 c -2.244,-2.269 -3.509,-3.804 -2.281,-5.421 0.007,-0.008 0.114,-0.152 0.168,-0.207 0.366,-0.366 0.787,-0.525 1.246,-0.525 1.556,0 2.565,0.821 4.391,2.628 l 0.911,0.898 C 0.192,-0.513 0.182,-0.21 0,0"
         style="fill:#000000 icc-color(Display, 0, 0, 0);fill-opacity:1;fill-rule:nonzero;stroke:none"
         transform="matrix(0.84097108,0,0,-0.84097108,18.076113,6.1418272)"
         clip-path="url(#clipPath2725)" /><path
         style="color:#000000;fill:#000000 icc-color(Display, 0, 0, 0);stroke-width:0.840971;stroke-linecap:round;stroke-miterlimit:10;stroke-dasharray:1.68194, 2.10242;-inkscape-stroke:none"
         d="m 12.690095,17.978338 -0.251306,-0.0033 -0.249663,-0.0082 -0.174108,-0.0099 -0.1002,-0.0065 a 0.52560693,0.52560693 0 0 1 -0.489471,-0.560099 0.52560693,0.52560693 0 0 1 0.560101,-0.489472 l 0.09198,0.0065 0.157683,0.0082 0.22831,0.0082 0.225026,0.0033 0.285798,-0.0049 0.220098,-0.0082 a 0.52560693,0.52560693 0 0 1 0.54696,0.502613 0.52560693,0.52560693 0 0 1 -0.502611,0.546959 l -0.234882,0.0099 z m 2.191123,-0.211885 A 0.52560693,0.52560693 0 0 1 14.2702,17.342682 0.52560693,0.52560693 0 0 1 14.695613,16.731664 l 0.275944,-0.05749 0.282514,-0.0657 0.28087,-0.07391 0.277587,-0.08212 0.0427,-0.01314 a 0.52560693,0.52560693 0 0 1 0.661936,0.338359 0.52560693,0.52560693 0 0 1 -0.340001,0.661936 l -0.05585,0.01807 -0.305508,0.0887 -0.307152,0.08212 -0.308795,0.07228 -0.310436,0.06406 z m -4.608916,-0.04763 -0.07062,-0.01478 -0.3055084,-0.07391 -0.3005817,-0.07884 -0.2923689,-0.08705 -0.2857988,-0.09198 -0.029565,-0.0115 A 0.52560693,0.52560693 0 0 1 8.6675591,16.6906 0.52560693,0.52560693 0 0 1 9.337708,16.370309 l 0.016425,0.0049 0.2595185,0.08541 0.2660888,0.07884 0.2726587,0.07228 0.280872,0.0657 0.06078,0.01314 a 0.52560693,0.52560693 0 0 1 0.402417,0.624158 0.52560693,0.52560693 0 0 1 -0.624158,0.40406 z m 7.048061,-0.859039 a 0.52560693,0.52560693 0 0 1 -0.302225,-0.266089 0.52560693,0.52560693 0 0 1 0.239809,-0.702999 l -0.0115,0.0049 0.06899,-0.03942 0.06735,-0.04106 0.06571,-0.04599 0.06078,-0.04763 0.05913,-0.05092 0.05585,-0.05256 0.05256,-0.05585 0.05092,-0.05749 0.04763,-0.06078 0.0427,-0.06242 0.04106,-0.06406 0.03778,-0.0657 0.0065,-0.01314 a 0.52560693,0.52560693 0 0 1 0.707927,-0.228311 0.52560693,0.52560693 0 0 1 0.22831,0.706284 l -0.01807,0.03613 -0.06242,0.108406 -0.06735,0.108407 -0.07392,0.103478 -0.07884,0.100189 -0.08377,0.09691 -0.0887,0.09198 -0.09362,0.0887 -0.09855,0.08541 -0.103479,0.08048 -0.106764,0.07391 -0.113333,0.07062 -0.11662,0.0657 -0.0115,0.0065 a 0.52560693,0.52560693 0 0 1 -0.402417,0.02628 z M 7.8725782,16.748089 A 0.52560693,0.52560693 0 0 1 7.4718028,16.721809 L 7.4570203,16.71524 7.2221396,16.59205 6.9954717,16.46886 6.7770162,16.342386 6.5651309,16.214269 6.3614583,16.086153 6.3171105,16.056588 a 0.52560693,0.52560693 0 0 1 -0.1494694,-0.727637 0.52560693,0.52560693 0 0 1 0.727637,-0.14947 l 0.034493,0.023 0.1872468,0.116618 0.1938176,0.11662 0.2003876,0.116618 0.2069578,0.113334 0.2135278,0.111692 0.00493,0.0017 a 0.52560693,0.52560693 0 0 1 0.2381652,0.704601 0.52560693,0.52560693 0 0 1 -0.302224,0.264446 z M 5.3759453,15.194264 A 0.52560693,0.52560693 0 0 1 4.9932378,15.067789 L 4.8733336,14.962668 4.7468594,14.849333 4.6236703,14.737642 4.5316893,14.647302 4.4413513,14.548752 4.3559403,14.446913 4.2770993,14.341791 4.2048293,14.233385 4.1374863,14.123336 4.0750703,14.00836 4.0455053,13.9443 a 0.52560693,0.52560693 0 0 1 0.2480208,-0.699714 0.52560693,0.52560693 0 0 1 0.6997142,0.248021 l 0.01971,0.03942 0.036136,0.06899 0.041063,0.0657 0.042705,0.06406 0.047633,0.06406 0.050918,0.06078 0.054203,0.05913 0.062416,0.06078 0.1034785,0.09527 0.1149759,0.101839 0.1166191,0.100199 a 0.52560693,0.52560693 0 0 1 0.052561,0.74242 0.52560693,0.52560693 0 0 1 -0.3597122,0.179035 z M 18.670516,14.448558 a 0.52560693,0.52560693 0 0 1 -0.640583,-0.374495 l -0.0033,-0.0099 -0.023,-0.07555 -0.02792,-0.07555 -0.03285,-0.07391 -0.03613,-0.07392 -0.03942,-0.07062 -0.0427,-0.06735 -0.04435,-0.06406 -0.04763,-0.06078 -0.05092,-0.05913 -0.05256,-0.05585 -0.05585,-0.0542 -0.0542,-0.04599 a 0.52560693,0.52560693 0 0 1 -0.0542,-0.740777 0.52560693,0.52560693 0 0 1 0.74242,-0.0542 l 0.07228,0.06242 0.09362,0.08869 0.08869,0.09362 0.08377,0.09855 0.08048,0.103478 0.07555,0.108407 0.07062,0.111691 0.06571,0.116619 0.05913,0.121546 0.0542,0.12319 0.04599,0.126474 0.03942,0.126474 0.0099,0.03449 a 0.52560693,0.52560693 0 0 1 -0.376137,0.640583 z m -5.926219,-0.675075 -0.183962,-0.0017 -0.177393,-0.0049 a 0.52560693,0.52560693 0 0 1 -0.509181,-0.542031 0.52560693,0.52560693 0 0 1 0.542033,-0.509182 l 0.162609,0.0049 0.156039,0.0017 0.170823,-0.0049 0.169179,-0.0082 0.170822,-0.01314 0.16918,-0.01643 0.170823,-0.02299 a 0.52560693,0.52560693 0 0 1 0.597878,0.438554 0.52560693,0.52560693 0 0 1 -0.438554,0.601162 l -0.0099,0.0017 -0.197103,0.02463 -0.198745,0.02136 -0.197102,0.01479 -0.198746,0.0099 z m 2.636247,-0.50754 a 0.52560693,0.52560693 0 0 1 -0.678361,-0.302223 0.52560693,0.52560693 0 0 1 0.302224,-0.678363 l 0.08212,-0.0312 0.160967,-0.06735 0.170822,-0.07555 0.114976,-0.04928 0.124833,-0.04763 0.126473,-0.03942 0.126475,-0.03285 0.128116,-0.02628 0.128117,-0.02136 0.128117,-0.01314 0.06899,-0.0033 a 0.52560693,0.52560693 0 0 1 0.555172,0.494402 0.52560693,0.52560693 0 0 1 -0.494399,0.555173 l -0.04435,0.0017 -0.0772,0.0082 -0.07555,0.01314 -0.07719,0.01479 -0.07555,0.01971 -0.07719,0.02463 -0.07555,0.02792 -0.08377,0.03613 -0.174107,0.07884 -0.187248,0.07719 z M 4.2508179,12.672993 A 0.52560693,0.52560693 0 0 1 3.9206713,12.006129 l 0.029569,-0.08869 0.047633,-0.119904 0.052561,-0.118262 0.059131,-0.114976 0.0657,-0.113334 0.070628,-0.110049 0.077199,-0.108407 0.083769,-0.105121 0.087054,-0.09855 0.060773,-0.06242 0.060773,-0.05913 0.060773,-0.05585 0.0657,-0.05749 0.070628,-0.0542 a 0.52560693,0.52560693 0 0 1 0.7374888,0.09034 0.52560693,0.52560693 0 0 1 -0.090338,0.737492 l -0.050918,0.03942 -0.034493,0.02956 -0.036136,0.03449 -0.036135,0.03613 -0.034493,0.03449 -0.055845,0.06242 -0.050918,0.06406 -0.045991,0.06406 -0.042705,0.0657 -0.039421,0.06899 -0.034494,0.06898 -0.031208,0.07063 -0.029565,0.07062 -0.021352,0.0657 A 0.52560693,0.52560693 0 0 1 4.25082,12.672983 Z M 6.68175,11.262067 6.571701,11.24893 H 6.588126 A 0.52560693,0.52560693 0 0 1 6.097012,10.690469 0.52560693,0.52560693 0 0 1 6.6571119,10.200998 h 0.016425 l 0.1412573,0.01807 A 0.52560693,0.52560693 0 0 1 7.2697726,10.807091 0.52560693,0.52560693 0 0 1 6.68175,11.26207 Z"
         id="path2726" /><path
         id="path2728"
         d="m 1129.234,531.354 h -7 v 1 h 7 z"
         style="fill:#000000 icc-color(Display, 0, 0, 0);fill-opacity:1;fill-rule:nonzero;stroke:none"
         transform="matrix(0.84097108,0,0,-0.84097108,-940.07995,452.31319)"
         clip-path="url(#clipPath2729)" /><path
         id="path2730"
         d="m 1126.234,528.354 h -1 v 7 h 1 z"
         style="fill:#000000 icc-color(Display, 0, 0, 0);fill-opacity:1;fill-rule:nonzero;stroke:none"
         transform="matrix(0.84097108,0,0,-0.84097108,-940.07995,452.31319)"
         clip-path="url(#clipPath2731)" /></g></g></svg>
