<?xml version="1.0" encoding="UTF-8" standalone="no"?>
<!DOCTYPE svg PUBLIC "-//W3C//DTD SVG 1.1//EN" "http://www.w3.org/Graphics/SVG/1.1/DTD/svg11.dtd">
<svg width="100%" height="100%" viewBox="0 0 55 54" version="1.1" xmlns="http://www.w3.org/2000/svg" xmlns:xlink="http://www.w3.org/1999/xlink" xml:space="preserve" xmlns:serif="http://www.serif.com/" style="fill-rule:evenodd;clip-rule:evenodd;stroke-linejoin:round;stroke-miterlimit:2;">
    <g transform="matrix(1,0,0,0.975729,-95.5758,-77.4494)">
        <g transform="matrix(1,0,0,-1,0,213.121)">
            <path d="M122.552,132.27C123.222,132.275 123.895,132.225 124.553,132.077C125.216,131.961 125.857,131.747 126.52,131.698C127.159,131.499 127.835,131.519 128.503,131.436C129.148,131.278 129.875,131.373 130.48,131.048C131.101,130.787 131.739,130.581 132.342,130.284C132.976,130.064 133.591,129.794 134.189,129.489C134.82,129.247 135.355,128.826 135.953,128.522C136.523,128.167 137.083,127.799 137.639,127.422C138.191,127.04 138.748,126.659 139.254,126.215C139.838,125.857 140.126,125.174 140.611,124.721C141.065,124.229 141.505,123.734 142.082,123.346C142.582,122.89 142.992,122.353 143.386,121.808C143.683,121.191 144.026,120.62 144.416,120.074C144.74,119.491 145.271,119.016 145.447,118.347C145.68,117.712 145.885,117.073 146.145,116.459C146.404,115.845 146.619,115.214 146.836,114.584C147.024,113.945 147.211,113.306 147.36,112.658C147.566,111.681 147.694,110.69 147.785,109.702C147.809,109.039 147.92,108.386 147.951,107.724C147.969,107.064 148.113,106.402 148.053,105.737C147.997,105.075 148.042,104.411 148.142,103.727C148.157,103.056 148.424,102.326 148.158,101.682C147.907,101.039 147.595,100.42 147.302,99.809C146.954,99.214 146.842,98.558 146.599,97.937C146.357,97.319 146.143,96.69 145.869,96.084C145.594,95.48 145.346,94.86 145.01,94.285C144.69,93.703 144.359,93.125 143.98,92.578C143.596,92.036 143.242,91.472 142.839,90.943C142.428,90.422 142.052,89.867 141.565,89.409C141.087,88.946 140.668,88.428 140.198,87.955C139.717,87.496 139.247,87.018 138.677,86.663C138.153,86.255 137.645,85.822 137.068,85.486C136.528,85.095 135.873,84.895 135.346,84.489C134.802,84.106 134.183,83.853 133.586,83.571C132.996,83.268 132.389,83.011 131.817,82.647C131.19,82.433 130.603,82.08 129.93,82C129.281,81.851 128.652,81.624 127.988,81.546C127.351,81.343 126.677,81.331 126.024,81.221C125.363,81.162 124.712,81.012 124.048,80.955C123.385,80.912 122.718,80.799 122.052,80.869C121.386,80.899 120.718,80.906 120.057,80.995C119.394,81.061 118.734,81.157 118.078,81.271C117.42,81.378 116.767,81.513 116.119,81.67C115.47,81.826 114.815,81.97 114.181,82.183C113.546,82.393 112.924,82.642 112.326,82.943C111.717,83.216 111.108,83.493 110.533,83.832C109.951,84.158 109.375,84.498 108.85,84.912C108.308,85.3 107.764,85.676 107.179,86.005C106.606,86.35 106.03,86.709 105.578,87.209C105.129,87.71 104.716,88.241 104.291,88.75C103.859,89.252 103.354,89.688 102.913,90.186C102.455,90.67 102.079,91.22 101.66,91.737C101.253,92.264 100.874,92.815 100.545,93.394C100.222,93.977 99.924,94.571 99.597,95.152C99.315,95.757 99.108,96.392 98.835,96.997C98.676,97.646 98.262,98.204 98.094,98.852C97.789,99.805 97.546,100.775 97.307,101.75C97.063,102.727 97.073,103.743 97.032,104.738C96.999,105.403 96.962,106.068 96.988,106.733C97.005,107.398 97.025,108.063 97.076,108.727C97.114,109.391 97.172,110.056 97.266,110.717C97.304,111.387 97.448,112.043 97.638,112.684C97.8,113.334 98.128,113.932 98.321,114.566C98.554,115.189 98.79,115.81 99.041,116.425C99.291,117.04 99.559,117.649 99.876,118.234C100.159,118.836 100.504,119.405 100.825,119.988C101.143,120.575 101.538,121.113 101.904,121.671C102.302,122.206 102.708,122.734 103.112,123.268C103.53,123.79 104.012,124.257 104.476,124.737C104.963,125.193 105.392,125.714 105.893,126.163C106.362,126.652 107.001,126.924 107.515,127.351C108.094,127.69 108.601,128.133 109.172,128.486C109.746,128.831 110.328,129.163 110.925,129.468C111.524,129.767 112.127,130.063 112.754,130.3C113.402,130.489 114.063,130.621 114.705,130.796C115.348,130.959 115.952,131.267 116.601,131.43C117.247,131.599 117.91,131.696 118.575,131.751C119.24,131.806 119.906,131.826 120.569,131.828C121.226,131.967 121.885,131.896 122.552,132.246C123.217,132.246 123.217,133.295 122.552,133.295C121.884,133.627 121.209,133.515 120.535,133.558C119.863,133.502 119.207,133.318 118.55,133.195C117.892,133.063 117.249,132.874 116.595,132.743C115.944,132.599 115.282,132.489 114.628,132.335C113.991,132.123 113.379,131.84 112.788,131.524C112.217,131.16 111.57,130.989 110.981,130.674C110.381,130.388 109.791,130.082 109.212,129.755C108.645,129.408 108.059,129.093 107.491,128.742C106.967,128.331 106.393,127.985 105.927,127.502C105.421,127.07 104.915,126.644 104.372,126.252C103.821,125.864 103.421,125.319 102.924,124.874C102.496,124.362 102.025,123.89 101.586,123.387C101.147,122.882 100.772,122.329 100.362,121.8C99.987,121.247 99.589,120.708 99.242,120.135C98.911,119.554 98.552,118.985 98.277,118.373C97.831,117.473 97.409,116.557 97.09,115.603C96.883,114.965 96.678,114.325 96.587,113.657C96.454,113.001 96.318,112.349 96.181,111.698C95.99,111.056 95.876,110.396 95.779,109.735C95.665,109.075 95.606,108.407 95.57,107.739C95.526,107.07 95.548,106.4 95.564,105.731C95.575,105.062 95.628,104.393 95.743,103.733C95.845,103.072 95.999,102.422 96.09,101.762C96.176,101.1 96.294,100.442 96.451,99.793C96.612,99.144 96.81,98.507 96.994,97.863C97.097,97.191 97.411,96.59 97.652,95.966C97.871,95.329 98.308,94.795 98.537,94.163C98.826,93.559 99.19,92.995 99.543,92.428C100.07,91.577 100.584,90.711 101.197,89.913C101.614,89.39 101.996,88.836 102.426,88.318C102.85,87.796 103.339,87.327 103.899,86.944C104.427,86.525 105.011,86.183 105.497,85.728C105.982,85.27 106.459,84.792 106.989,84.38C107.521,83.971 108.106,83.636 108.708,83.342C109.296,83.024 109.882,82.703 110.489,82.424C111.093,82.143 111.684,81.827 112.321,81.623C112.946,81.39 113.567,81.151 114.199,80.938C114.824,80.707 115.454,80.481 116.104,80.324C116.749,80.152 117.402,80.006 118.061,79.892C118.72,79.784 119.383,79.697 120.049,79.639C120.716,79.601 121.382,79.528 122.051,79.535C122.718,79.578 123.387,79.494 124.056,79.529C124.723,79.559 125.403,79.514 126.064,79.642C126.733,79.707 127.382,79.896 128.043,80.004C128.701,80.136 129.338,80.348 129.988,80.509C130.604,80.785 131.256,80.936 131.883,81.172C132.504,81.414 133.209,81.466 133.799,81.801C134.429,82.04 135.006,82.395 135.592,82.722C136.182,83.039 136.808,83.311 137.308,83.776C137.851,84.172 138.384,84.579 138.913,84.989C139.504,85.323 139.916,85.879 140.438,86.295C140.947,86.729 141.43,87.191 141.926,87.643C142.415,88.102 142.818,88.642 143.247,89.155C143.707,89.643 144.101,90.186 144.507,90.718C144.916,91.25 145.262,91.826 145.607,92.4C145.955,92.972 146.285,93.555 146.587,94.153C146.909,94.74 147.205,95.343 147.466,95.96C147.752,96.567 147.963,97.206 148.185,97.838C148.414,98.467 148.609,99.115 148.582,99.811C148.654,100.482 148.572,101.175 148.641,101.828C148.774,102.47 149.074,103.092 149.277,103.742C149.533,104.386 149.588,105.06 149.603,105.729C149.583,106.399 149.705,107.072 149.666,107.745C149.631,108.416 149.627,109.093 149.495,109.755C149.408,110.423 149.247,111.079 149.095,111.732C148.943,112.386 148.749,113.028 148.576,113.674C148.401,114.32 148.16,114.945 147.945,115.578C147.714,116.205 147.458,116.823 147.176,117.429C146.881,118.03 146.479,118.576 146.121,119.135C145.784,119.705 145.556,120.341 145.191,120.899C144.909,121.511 144.352,121.938 143.949,122.46C143.558,122.994 143.13,123.498 142.763,124.057C142.462,124.677 141.979,125.147 141.489,125.599C141.036,126.095 140.333,126.31 139.896,126.811C139.385,127.232 138.89,127.674 138.363,128.077C137.832,128.473 137.3,128.875 136.725,129.208C136.17,129.573 135.582,129.884 134.995,130.192C134.44,130.569 133.795,130.759 133.217,131.094C132.62,131.388 131.978,131.577 131.349,131.788C130.715,131.993 130.055,132.082 129.462,132.434C128.831,132.651 128.203,132.903 127.557,133.098C126.884,133.139 126.238,133.363 125.556,133.312C124.546,133.329 123.545,133.226 122.552,133.271C121.916,133.271 121.916,132.27 122.552,132.27Z" style="fill-rule:nonzero;"/>
        </g>
        <g transform="matrix(1,0,0,-1,0,213.092)">
            <path d="M122.552,129.721C123.215,129.721 123.876,129.652 124.535,129.598C125.195,129.54 125.843,129.392 126.487,129.25C127.132,129.113 127.772,128.953 128.4,128.758C129.082,128.752 129.671,128.427 130.369,128.419C131.068,128.394 131.667,128.078 132.307,127.871C132.907,127.574 133.525,127.304 134.071,126.908C134.641,126.558 135.204,126.2 135.77,125.843C136.356,125.513 136.874,125.086 137.408,124.681C137.932,124.264 138.457,123.845 138.952,123.39C139.495,122.98 139.803,122.345 140.269,121.867C140.696,121.354 141.179,120.881 141.533,120.308C141.878,119.728 142.062,119.053 142.388,118.48C142.794,117.952 143.151,117.391 143.503,116.822C143.794,116.224 144.105,115.631 144.315,114.997C144.514,114.36 144.742,113.734 144.887,113.084C145.078,112.448 145.231,111.801 145.346,111.147C145.401,110.483 145.518,109.833 145.562,109.172C145.621,108.514 145.68,107.858 145.716,107.198C145.701,106.537 145.749,105.877 145.706,105.217C145.646,104.56 145.665,103.892 145.514,103.244C145.455,102.584 145.267,101.948 145.239,101.277C145.219,100.602 145.137,99.926 144.92,99.293C144.618,98.688 144.381,98.064 144.024,97.494C143.784,96.875 143.491,96.279 143.187,95.69C142.89,95.096 142.561,94.519 142.202,93.961C141.859,93.392 141.447,92.869 141.053,92.336C140.605,91.846 140.21,91.313 139.744,90.841C139.261,90.389 138.877,89.837 138.364,89.413C137.945,88.893 137.584,88.286 137.115,87.786C136.748,87.155 136.067,86.919 135.439,86.656C134.853,86.313 134.099,86.285 133.577,85.86C132.991,85.545 132.384,85.27 131.774,85.005C131.163,84.742 130.552,84.472 129.913,84.282C129.279,84.079 128.628,83.93 127.974,83.816C127.314,83.73 126.674,83.556 126.018,83.454C125.371,83.308 124.714,83.173 124.048,83.145C123.386,83.123 122.721,82.887 122.049,82.968C121.379,82.953 120.714,83.103 120.063,83.254C119.399,83.313 118.752,83.471 118.091,83.552C117.431,83.64 116.767,83.735 116.115,83.886C115.456,84.02 114.857,84.347 114.241,84.597C113.622,84.843 113.018,85.124 112.405,85.386C111.803,85.671 111.216,85.988 110.641,86.326C110.07,86.668 109.533,87.069 109.051,87.536C108.548,87.97 108.023,88.366 107.483,88.754C106.948,89.147 106.43,89.57 105.981,90.061C105.513,90.531 105.053,91.012 104.625,91.521C104.179,92.016 103.833,92.591 103.482,93.153C103.156,93.732 102.757,94.26 102.415,94.829C102.047,95.381 101.678,95.942 101.433,96.561C101.034,97.11 100.817,97.748 100.631,98.388C100.429,99.025 100.357,99.696 100.136,100.32C99.888,100.94 99.793,101.602 99.664,102.251C99.513,102.898 99.425,103.557 99.363,104.218C99.305,104.88 99.307,105.544 99.284,106.206C99.268,107.201 99.316,108.197 99.444,109.184C99.53,109.842 99.687,110.488 99.846,111.129C99.972,111.779 100.213,112.4 100.415,113.025C100.663,113.638 100.875,114.256 101.068,114.887C101.281,115.509 101.539,116.118 101.881,116.683C102.207,117.255 102.517,117.829 102.743,118.463C103.007,119.074 103.294,119.685 103.686,120.223C104.082,120.759 104.516,121.263 104.934,121.781C105.357,122.295 105.822,122.771 106.268,123.269C106.744,123.734 107.196,124.234 107.726,124.643C108.248,125.063 108.822,125.41 109.366,125.795C109.929,126.15 110.443,126.586 111.015,126.94C111.584,127.292 112.152,127.659 112.761,127.949C113.367,128.24 113.977,128.534 114.626,128.722C115.3,128.837 115.956,128.976 116.611,129.11C117.272,129.211 117.917,129.391 118.595,129.372C119.265,129.392 119.928,129.372 120.579,129.474C121.23,129.57 121.886,129.757 122.552,129.738C123.463,129.738 123.463,131.173 122.552,131.173C121.885,131.135 121.211,131.281 120.535,131.269C119.86,131.266 119.198,131.095 118.552,130.906C117.907,130.697 117.272,130.49 116.626,130.337C115.998,130.112 115.355,129.94 114.769,129.606C114.177,129.298 113.554,129.094 112.942,128.847C112.326,128.612 111.731,128.329 111.118,128.075C110.519,127.794 109.926,127.497 109.337,127.184C108.763,126.849 108.226,126.453 107.712,126.033C107.202,125.606 106.707,125.168 106.174,124.768C105.678,124.327 105.16,123.906 104.697,123.427C104.24,122.944 103.773,122.466 103.36,121.942C102.943,121.421 102.583,120.861 102.148,120.352C101.729,119.83 101.284,119.319 100.876,118.775C100.489,118.219 100.225,117.592 99.97,116.969C99.716,116.346 99.416,115.743 99.161,115.118C98.851,114.512 98.755,113.83 98.587,113.181C98.416,112.529 98.333,111.859 98.2,111.203C98.063,110.204 97.968,109.206 97.886,108.208C97.835,107.541 97.816,106.873 97.82,106.204C97.813,105.535 97.875,104.868 97.948,104.205C98.009,103.54 98.103,102.879 98.194,102.216C98.273,101.551 98.483,100.912 98.607,100.255C98.652,99.574 98.983,98.969 99.256,98.36C99.395,97.698 99.894,97.181 100.03,96.519C100.135,95.833 100.626,95.329 100.829,94.684C101.091,94.066 101.441,93.493 101.79,92.922C102.163,92.366 102.605,91.858 103.035,91.348C103.454,90.829 103.883,90.319 104.322,89.816C104.743,89.296 105.258,88.866 105.717,88.382C106.21,87.934 106.636,87.402 107.172,86.996C107.696,86.579 108.262,86.212 108.874,85.929C109.458,85.604 110.027,85.261 110.607,84.934C111.186,84.606 111.787,84.321 112.381,84.022C112.984,83.738 113.608,83.503 114.244,83.306C114.894,83.148 115.529,82.97 116.157,82.75C116.788,82.543 117.423,82.33 118.074,82.18C118.728,82.051 119.393,81.977 120.057,81.92C120.731,81.963 121.393,81.985 122.055,81.95C122.715,81.998 123.382,81.811 124.049,81.855C124.713,81.908 125.377,81.943 126.049,81.971C126.713,82.046 127.378,82.142 128.024,82.319C128.66,82.535 129.305,82.702 129.929,82.942C130.561,83.152 131.187,83.378 131.81,83.614C132.432,83.852 133.039,84.129 133.627,84.443C134.201,84.775 134.86,84.976 135.297,85.537C135.818,85.957 136.275,86.456 136.764,86.893C137.346,87.203 137.954,87.493 138.551,87.817C139.195,88.089 139.67,88.57 140.155,89.029C140.669,89.464 141.058,90.018 141.504,90.515C141.932,91.031 142.303,91.589 142.699,92.126C143.269,92.951 143.799,93.802 144.29,94.676C144.615,95.26 144.903,95.863 145.175,96.474C145.487,97.068 145.602,97.744 145.766,98.388C145.863,99.056 146.136,99.66 146.379,100.286C146.648,100.902 146.919,101.533 146.988,102.203C147.136,102.859 147.161,103.532 147.253,104.196C147.327,104.862 147.35,105.533 147.385,106.203C147.369,106.874 147.378,107.546 147.326,108.215C147.293,108.886 147.193,109.552 147.069,110.211C146.957,110.873 146.734,111.511 146.596,112.163C146.344,113.132 146.044,114.09 145.663,115.014C145.391,115.623 145.144,116.24 144.868,116.846C144.567,117.438 144.361,118.08 144.061,118.68C143.863,119.339 143.379,119.837 142.903,120.316C142.428,120.798 141.969,121.275 141.624,121.847C141.221,122.371 140.79,122.88 140.275,123.302C139.776,123.739 139.334,124.228 138.858,124.688C138.385,125.151 137.868,125.567 137.351,125.98C136.809,126.358 136.32,126.817 135.747,127.155C135.189,127.514 134.611,127.843 133.998,128.1C133.409,128.402 132.804,128.67 132.206,128.952C131.629,129.289 131.022,129.557 130.444,129.932C129.846,130.256 129.202,130.462 128.554,130.645C127.895,130.785 127.234,130.917 126.564,130.984C125.896,131.067 125.224,131.084 124.558,131.147C123.89,131.203 123.22,131.189 122.552,131.191C121.618,131.191 121.618,129.721 122.552,129.721Z" style="fill-rule:nonzero;"/>
        </g>
        <g transform="matrix(1,0,0,-1,0,212.551)">
            <path d="M122.552,126.921C123.204,126.951 123.883,127.182 124.535,126.999C125.185,126.851 125.836,126.743 126.463,126.523C127.107,126.39 127.716,126.134 128.363,126.022C129.015,125.917 129.626,125.672 130.261,125.494C130.859,125.211 131.388,124.796 131.983,124.532C132.562,124.228 133.122,123.906 133.784,123.724C134.382,123.443 135.052,123.236 135.57,122.811C136.07,122.367 136.511,121.856 136.91,121.32C137.323,120.794 137.681,120.24 138.21,119.836C138.748,119.435 139.105,118.875 139.589,118.415C139.874,117.807 140.326,117.322 140.675,116.759C141.035,116.206 141.417,115.657 141.703,115.058C141.935,114.436 142.336,113.888 142.647,113.288C142.934,112.683 143.304,112.088 143.411,111.416C143.59,110.763 143.511,110.057 143.565,109.394C143.48,108.705 143.543,108.059 143.77,107.409C143.919,106.754 144.108,106.084 144.109,105.408C144.076,104.737 144.079,104.053 143.752,103.417C143.432,102.785 143.394,102.132 143.353,101.458C143.383,100.775 143.448,100.051 143.148,99.435C142.936,98.795 142.691,98.16 142.281,97.606C141.891,97.044 141.469,96.512 141.082,95.974C140.772,95.394 140.398,94.852 140.066,94.285C139.731,93.722 139.546,93.039 139.226,92.433C138.958,91.786 138.488,91.288 137.992,90.831C137.49,90.38 137.033,89.882 136.517,89.446C136.03,88.975 135.477,88.582 134.928,88.189C134.401,87.763 133.768,87.486 133.115,87.282C132.484,87.027 131.743,87.041 131.192,86.668C130.599,86.376 129.968,86.182 129.364,85.91C128.736,85.701 128.092,85.561 127.472,85.311C126.857,85.04 126.226,84.776 125.576,84.558C124.918,84.384 124.237,84.373 123.565,84.323C122.89,84.259 122.213,84.3 121.538,84.322C120.512,84.368 119.59,85.058 118.603,85.108C117.925,85.082 117.227,85.053 116.552,85.153C115.91,85.36 115.25,85.534 114.694,85.96C114.122,86.334 113.547,86.68 113.032,87.121C112.472,87.474 111.902,87.788 111.244,87.985C110.637,88.257 109.892,88.371 109.388,88.828C108.778,89.147 108.432,89.793 108.032,90.335C107.661,90.917 107.356,91.526 106.835,91.94C106.415,92.444 105.986,92.945 105.646,93.51C105.294,94.065 104.939,94.612 104.582,95.161C104.276,95.737 103.678,96.158 103.267,96.707C102.831,97.237 102.447,97.816 102.257,98.467C101.872,99.052 102.083,99.837 102.098,100.519C102.133,101.218 102.358,101.912 101.879,102.49C101.542,103.099 101.281,103.74 101.057,104.4C100.928,105.068 101.049,105.749 101.082,106.417C101.019,107.094 101.273,107.75 101.284,108.418C101.529,109.064 101.804,109.688 102.062,110.302C102.266,110.928 102.41,111.565 102.64,112.178C102.816,112.806 103.058,113.416 103.356,113.997C103.604,114.601 103.978,115.142 104.237,115.738C104.551,116.307 104.876,116.866 105.143,117.472C105.485,118.027 105.763,118.64 106.225,119.114C106.727,119.549 107.121,120.072 107.618,120.501C108.152,120.888 108.537,121.424 109,121.894C109.391,122.447 109.911,122.864 110.455,123.237C110.974,123.654 111.609,123.88 112.118,124.317C112.701,124.627 113.285,124.938 113.889,125.208C114.499,125.462 115.095,125.753 115.725,125.961C116.347,126.187 116.982,126.38 117.622,126.552C118.266,126.715 118.924,126.805 119.577,126.92C120.564,127.089 121.581,126.836 122.552,126.752C123.665,126.752 123.665,128.506 122.552,128.506C121.867,128.714 121.212,128.143 120.553,128.121C119.904,127.919 119.236,127.92 118.584,127.775C117.931,127.653 117.286,127.492 116.638,127.343C115.994,127.176 115.355,126.984 114.73,126.756C114.096,126.548 113.484,126.278 112.884,125.988C112.261,125.741 111.728,125.327 111.103,125.075C110.521,124.745 110,124.323 109.446,123.951C108.93,123.532 108.283,123.273 107.741,122.866C107.163,122.503 106.68,122.021 106.259,121.491C105.8,120.997 105.379,120.467 105.018,119.896C104.64,119.342 104.129,118.885 103.74,118.331C103.278,117.827 102.923,117.245 102.61,116.645C102.094,115.767 101.753,114.799 101.435,113.839C101.217,113.201 100.962,112.573 100.833,111.908C100.656,111.259 100.513,110.594 100.572,109.903C100.528,109.226 100.824,108.525 100.622,107.888C100.656,107.225 100.582,106.572 100.613,105.914C100.735,105.256 100.796,104.616 100.644,103.942C100.535,103.272 100.424,102.585 100.331,101.882C100.236,101.171 100.819,100.598 101.159,100.01C101.547,99.425 102.027,98.904 102.127,98.248C102.425,97.666 102.49,96.988 102.66,96.335C102.825,95.685 102.872,94.944 103.247,94.38C103.57,93.79 103.947,93.228 104.375,92.708C104.814,92.196 105.228,91.67 105.681,91.174C106.099,90.651 106.58,90.171 107.207,89.865C107.782,89.502 108.435,89.256 108.926,88.828C109.471,88.466 109.878,87.92 110.362,87.448C110.819,86.941 111.32,86.459 111.943,86.201C112.497,85.805 113.25,85.821 113.866,85.593C114.513,85.417 115.199,85.391 115.806,85.152C116.453,85.037 117.032,84.706 117.642,84.402C118.238,84.054 118.891,83.837 119.577,83.952C120.252,83.968 120.927,84.21 121.573,84.121C122.225,84.084 122.878,84.122 123.53,84.122C124.184,84.13 124.83,84.23 125.483,84.274C126.149,84.227 126.814,84.255 127.494,84.26C128.177,84.259 128.813,84.489 129.444,84.701C130.068,84.935 130.728,85.079 131.326,85.386C131.978,85.562 132.531,85.974 133.033,86.436C133.562,86.855 134.009,87.376 134.567,87.711C135.111,88.072 135.64,88.455 136.152,88.859C136.685,89.239 137.175,89.673 137.658,90.113C138.141,90.557 138.531,91.087 138.998,91.545C139.5,91.974 140.032,92.39 140.557,92.832C141.123,93.247 141.44,93.85 141.794,94.417C142.138,94.992 142.447,95.593 142.593,96.262C142.79,96.908 142.864,97.593 143.043,98.223C143.224,98.855 143.419,99.477 143.607,100.103C143.865,100.706 144.341,101.279 144.431,101.943C144.662,102.582 144.462,103.287 144.402,103.947C144.367,104.609 144.404,105.258 144.454,105.914C144.505,106.567 144.704,107.238 144.689,107.906C144.863,108.595 144.454,109.223 144.271,109.855C144.145,110.509 143.677,111.071 143.621,111.729C143.421,112.35 143.368,113.02 143.195,113.662C143.065,114.317 142.867,114.959 142.565,115.552C142.27,116.146 142.029,116.772 141.703,117.356C141.362,117.927 141.101,118.563 140.596,119.024C140.262,119.608 139.838,120.126 139.456,120.683C139.139,121.301 138.58,121.711 138.042,122.116C137.489,122.509 136.898,122.844 136.35,123.216C135.756,123.528 135.348,124.083 134.836,124.524C134.32,124.946 133.875,125.525 133.244,125.784C132.648,126.099 132.041,126.405 131.375,126.557C130.701,126.68 130.14,127.083 129.488,127.263C128.859,127.494 128.237,127.789 127.555,127.837C126.9,127.997 126.217,128.007 125.55,128.047C124.534,127.995 123.561,128.197 122.552,128.337C121.652,128.337 121.652,126.921 122.552,126.921Z" style="fill-rule:nonzero;"/>
        </g>
        <g transform="matrix(1,0,0,-1,0,213.157)">
            <path d="M122.552,125.758C123.217,125.769 123.886,125.768 124.551,125.707C125.219,125.676 125.881,125.528 126.488,125.197C127.113,124.945 127.673,124.526 128.291,124.342C129.208,124.003 130.026,123.459 130.906,123.076C131.491,122.811 132.112,122.607 132.777,122.432C133.456,122.278 134.088,122.001 134.616,121.591C135.163,121.204 135.626,120.71 136.019,120.164C136.415,119.619 136.743,119.028 137.099,118.479C137.475,117.943 137.823,117.393 138.157,116.838C138.514,116.298 138.869,115.754 139.184,115.186C139.619,114.68 140.037,114.148 140.423,113.585C140.895,113.051 140.937,112.349 141.142,111.717C141.307,111.07 141.468,110.42 141.537,109.755C141.646,109.097 141.739,108.436 141.784,107.77C141.961,107.11 141.848,106.434 141.842,105.768C141.801,105.101 141.706,104.439 141.614,103.779C141.542,103.116 141.419,102.459 141.288,101.802C141.15,101.147 140.924,100.514 140.695,99.887C140.473,99.256 140.164,98.654 139.735,98.127C139.389,97.552 138.777,97.152 138.573,96.515C138.327,95.897 138.053,95.285 137.789,94.643C137.418,94.084 136.96,93.591 136.498,93.107C136.015,92.641 135.529,92.183 135.028,91.738C134.525,91.295 133.989,90.892 133.446,90.499C132.873,90.153 132.332,89.741 131.657,89.584C131.015,89.375 130.363,89.2 129.672,89.171C129.038,88.993 128.371,88.983 127.82,88.577C127.264,88.178 126.683,87.748 126.045,87.511C125.393,87.35 124.724,87.29 124.058,87.223C123.39,87.148 122.718,87.178 122.049,87.18C121.38,87.201 120.713,87.266 120.048,87.346C119.385,87.437 118.727,87.561 118.071,87.694C117.422,87.86 116.775,88.038 116.147,88.271C115.511,88.476 114.881,88.733 114.388,89.241C113.891,89.737 113.327,90.043 112.699,90.277C112.085,90.523 111.36,90.657 110.885,91.144C110.362,91.555 109.772,91.905 109.398,92.483C109.037,93.073 108.71,93.669 108.41,94.267C108.075,94.83 107.622,95.292 107.266,95.834C106.979,96.417 106.472,96.851 105.986,97.334C105.585,97.854 104.911,98.276 104.757,98.945C104.499,99.562 104.23,100.179 104.04,100.822C103.957,101.501 104.002,102.191 103.82,102.825C103.839,103.495 103.34,104.09 103.313,104.767C103.254,105.433 103.247,106.102 103.231,106.771C103.23,107.775 103.344,108.775 103.498,109.766C103.472,110.455 103.982,111.037 104.315,111.619C104.73,112.186 105.123,112.717 105.15,113.399C105.267,114.05 105.554,114.646 105.951,115.169C106.351,115.691 106.705,116.224 107.021,116.788C107.304,117.378 107.749,117.848 108.001,118.481C108.267,119.106 108.597,119.705 109,120.249C109.448,120.747 109.987,121.15 110.503,121.571C110.973,122.06 111.716,122.177 112.313,122.452C112.949,122.675 113.537,122.939 114.073,123.322C114.642,123.641 115.232,123.924 115.839,124.166C116.445,124.41 117.059,124.641 117.687,124.832C118.296,125.089 118.916,125.369 119.567,125.522C120.536,125.834 121.561,125.708 122.552,125.726C122.835,125.726 122.835,126.173 122.552,126.173C121.894,126.13 121.235,126.115 120.588,125.986C119.613,125.879 118.615,125.881 117.606,125.783C116.94,125.691 116.305,125.472 115.668,125.27C114.715,124.948 113.804,124.524 112.874,124.123C112.279,123.805 111.794,123.302 111.329,122.812C110.926,122.233 110.381,121.879 109.887,121.443C109.37,121.032 108.999,120.48 108.395,120.153C107.849,119.765 107.271,119.386 106.722,118.959C106.281,118.448 105.825,117.939 105.451,117.372C105.037,116.829 104.81,116.171 104.586,115.532C104.353,114.896 104.047,114.302 103.703,113.71C103.222,113.163 103.373,112.385 103.373,111.702C103.352,111.013 103.519,110.316 103.279,109.697C103.16,109.052 103.106,108.399 103.057,107.746C103.023,107.093 102.99,106.438 103.018,105.783C103.02,105.124 103.199,104.489 103.067,103.809C102.983,103.129 103.207,102.489 103.377,101.853C103.706,101.251 104.016,100.669 104.165,100.03C104.355,99.404 104.636,98.813 104.855,98.193C104.94,97.507 105.136,96.856 105.319,96.182C105.452,95.47 106.002,95.014 106.353,94.437C106.749,93.89 107.168,93.346 107.791,93.004C108.338,92.592 109.007,92.329 109.534,91.94C110.028,91.509 110.537,91.098 111.05,90.69C111.557,90.275 111.998,89.746 112.52,89.312C113.051,88.893 113.729,88.73 114.396,88.609C115.097,88.565 115.654,88.215 116.289,88.039C116.908,87.829 117.54,87.656 118.176,87.509C118.809,87.343 119.455,87.23 120.105,87.152C120.754,87.071 121.407,87.024 122.061,87.014C122.715,86.984 123.368,87.042 124.02,87.075C124.674,87.108 125.32,87.211 125.969,87.295C126.624,87.337 127.327,87.213 128.037,87.188C128.772,87.079 129.369,87.478 129.969,87.785C130.549,88.161 131.055,88.656 131.599,89.036C132.099,89.503 132.657,89.832 133.201,90.197C133.741,90.562 134.282,90.929 134.798,91.332C135.312,91.736 135.809,92.163 136.271,92.627C136.711,93.112 137.169,93.578 137.584,94.084C137.957,94.618 138.611,94.946 139.043,95.463C139.536,95.932 139.964,96.474 140.076,97.17C140.297,97.809 140.417,98.479 140.641,99.093C140.997,100.01 141.283,100.95 141.54,101.898C141.725,102.527 141.857,103.171 141.966,103.819C142.058,104.47 142.077,105.128 142.09,105.783C142.136,106.44 142.006,107.089 142.098,107.75C142.061,108.405 141.991,109.058 141.9,109.709C141.72,110.344 141.629,110.994 141.432,111.621C141.27,112.259 140.969,112.846 140.847,113.499C140.761,114.169 140.627,114.836 140.462,115.505C140.294,116.174 139.894,116.729 139.559,117.313C139.242,117.914 138.747,118.394 138.321,118.911C137.897,119.434 137.335,119.838 136.797,120.239C136.252,120.634 135.706,121.009 135.198,121.422C134.69,121.836 134.202,122.267 133.756,122.786C133.327,123.328 132.864,123.867 132.308,124.266C131.761,124.683 131.128,124.951 130.491,125.188C129.843,125.403 129.181,125.564 128.529,125.734C127.869,125.887 127.17,125.873 126.494,125.862C125.807,125.797 125.168,125.907 124.516,125.991C123.864,126.067 123.209,126.129 122.552,126.141C122.308,126.141 122.308,125.758 122.552,125.758Z" style="fill-rule:nonzero;"/>
        </g>
        <g transform="matrix(1,0,0,-1,0,213.215)">
            <path d="M122.552,123.571C123.217,123.57 123.88,123.518 124.544,123.469C125.199,123.365 125.883,123.363 126.494,123.052C127.1,122.735 127.672,122.368 128.224,122.006C128.805,121.717 129.349,121.372 129.92,121.091C130.561,120.946 131.219,120.795 131.915,120.647C132.626,120.509 133.034,119.923 133.569,119.536C134.06,119.09 134.605,118.686 134.946,118.095C135.314,117.531 135.618,116.934 135.943,116.367C136.313,115.829 136.521,115.201 136.959,114.709C137.35,114.188 137.849,113.705 138.26,113.152C138.569,112.558 138.763,111.914 138.933,111.269C139.114,110.627 139.241,109.972 139.358,109.316C139.472,108.659 139.541,107.995 139.602,107.329C139.637,106.662 139.611,105.992 139.537,105.329C139.467,104.665 139.367,104.008 139.272,103.348C139.177,102.686 139.009,102.039 138.832,101.394C138.638,100.753 138.372,100.137 138.085,99.534C137.774,98.937 137.25,98.47 136.996,97.857C136.617,97.319 136.426,96.648 136.048,96.09C135.636,95.563 135.198,95.055 134.725,94.582C134.25,94.11 133.74,93.677 133.226,93.25C132.701,92.837 132.175,92.421 131.607,92.064C131.034,91.723 130.448,91.377 129.732,91.341C129.086,91.143 128.31,91.377 127.789,90.93C127.232,90.559 126.654,90.177 126.037,89.858C125.385,89.707 124.718,89.636 124.054,89.565C122.72,89.42 121.379,89.538 120.054,89.686C119.393,89.784 118.732,89.899 118.09,90.087C117.444,90.261 116.807,90.47 116.189,90.726C115.549,90.935 115.006,91.353 114.406,91.638C113.813,91.944 113.269,92.329 112.69,92.663C112.142,93.046 111.625,93.47 111.123,93.91C110.549,94.278 110.273,94.956 109.935,95.527C109.617,96.124 109.387,96.76 109.067,97.315C108.61,97.777 108.103,98.227 107.643,98.732C107.017,99.156 106.928,99.864 106.627,100.456C106.381,101.076 106.145,101.706 106.003,102.36C105.86,103.013 105.739,103.671 105.666,104.334C105.587,104.996 105.539,105.661 105.51,106.328C105.497,106.995 105.517,107.663 105.578,108.328C105.658,108.991 105.723,109.658 105.874,110.311C105.951,110.985 106.48,111.534 106.805,112.106C107.256,112.638 107.507,113.221 107.773,113.81C108.112,114.358 108.388,114.944 108.834,115.419C109.164,115.963 109.303,116.655 109.602,117.265C109.781,117.975 110.304,118.419 110.776,118.884C111.271,119.331 111.779,119.762 112.301,120.176C112.819,120.594 113.397,120.948 114.064,121.115C114.697,121.343 115.36,121.462 115.94,121.747C116.551,121.963 117.113,122.296 117.703,122.613C118.298,122.901 118.899,123.273 119.568,123.338C120.551,123.514 121.552,123.613 122.552,123.58C122.732,123.58 122.732,123.863 122.552,123.863C121.895,123.803 121.236,123.828 120.584,123.727C119.925,123.679 119.293,123.495 118.627,123.453C117.958,123.419 117.281,123.354 116.608,123.236C115.954,123.068 115.306,122.845 114.747,122.451C114.191,122.055 113.679,121.602 113.199,121.13C112.688,120.71 112.132,120.361 111.62,119.946C111.102,119.54 110.645,119.064 110.179,118.602C109.807,118.057 109.083,117.821 108.57,117.36C108.051,116.919 107.37,116.537 107.217,115.825C106.884,115.229 106.603,114.607 106.342,113.98C105.918,113.421 106.008,112.647 105.911,111.985C105.863,111.296 105.918,110.613 105.696,109.993C105.551,109.355 105.443,108.706 105.389,108.052C105.291,107.073 105.283,106.084 105.356,105.101C105.447,104.12 105.632,103.147 105.913,102.204C106.088,101.574 106.268,100.943 106.498,100.328C106.675,99.685 107.136,99.187 107.121,98.436C107.285,97.773 107.468,97.092 107.757,96.462C108.173,95.918 108.742,95.494 109.298,95.094C109.816,94.652 110.496,94.404 110.905,93.889C111.377,93.432 111.896,93.027 112.423,92.637C112.954,92.254 113.475,91.845 114.059,91.54C114.624,91.201 115.241,90.96 115.853,90.727C116.459,90.477 117.078,90.261 117.705,90.072C118.334,89.888 118.973,89.742 119.617,89.623C120.261,89.5 120.912,89.406 121.568,89.384C122.224,89.343 122.88,89.375 123.534,89.402C124.188,89.431 124.841,89.504 125.485,89.628C126.098,89.883 126.828,89.608 127.512,89.683C128.212,89.665 128.932,89.743 129.418,90.331C129.981,90.733 130.435,91.294 131.008,91.604C131.564,91.95 132.121,92.291 132.664,92.66C133.198,93.039 133.71,93.451 134.188,93.899C134.662,94.352 135.112,94.828 135.547,95.317C135.974,95.816 136.349,96.346 136.869,96.788C137.314,97.284 137.665,97.855 137.923,98.467C138.092,99.125 138.35,99.722 138.59,100.333C138.807,100.952 139.023,101.57 139.21,102.199C139.382,102.831 139.557,103.468 139.651,104.119C139.753,104.77 139.772,105.43 139.776,106.086C139.782,106.743 139.751,107.397 139.732,108.054C139.687,108.709 139.599,109.362 139.469,110.006C139.326,110.647 139.167,111.286 138.941,111.903C138.771,112.544 138.386,113.087 138.385,113.809C138.297,114.498 138.079,115.15 137.808,115.778C137.414,116.332 136.994,116.866 136.525,117.353C136.031,117.821 135.489,118.233 134.966,118.643C134.457,119.064 134.012,119.552 133.487,119.951C132.994,120.398 132.355,120.613 132.007,121.291C131.579,121.855 131.083,122.374 130.501,122.746C129.855,122.983 129.225,123.259 128.536,123.351C127.85,123.448 127.152,123.451 126.474,123.448C125.811,123.497 125.178,123.681 124.521,123.745C123.87,123.85 123.21,123.872 122.552,123.871C122.361,123.871 122.361,123.571 122.552,123.571Z" style="fill-rule:nonzero;"/>
        </g>
        <g transform="matrix(1,0,0,-1,0,213.225)">
            <path d="M122.552,121.316C123.215,121.317 123.877,121.261 124.536,121.187C125.187,121.079 125.87,121.056 126.462,120.704C127.056,120.364 127.565,119.87 128.107,119.534C128.732,119.385 129.404,119.292 130.091,119.152C130.753,118.966 131.259,118.509 131.779,118.102C132.28,117.666 132.796,117.244 133.233,116.741C133.627,116.199 133.94,115.602 134.222,115.007C134.402,114.349 135.063,114.014 135.425,113.451C135.885,112.952 136.207,112.355 136.417,111.723C136.657,111.1 136.8,110.448 136.957,109.803C137.087,109.151 137.188,108.494 137.262,107.833C137.339,107.172 137.335,106.504 137.3,105.84C137.25,105.176 137.151,104.519 137.048,103.863C136.817,102.213 136.19,100.631 135.348,99.2C135.008,98.629 134.679,98.046 134.27,97.517C133.857,96.993 133.429,96.478 132.939,96.023C132.457,95.561 131.939,95.139 131.404,94.743C130.872,94.343 130.323,93.962 129.744,93.629C129.189,93.237 128.425,93.292 127.818,93.074C127.19,92.889 126.611,92.579 126.004,92.261C125.388,91.967 124.707,91.946 124.05,91.854C122.72,91.701 121.382,91.831 120.065,92.004C119.071,92.136 118.111,92.442 117.175,92.792C116.55,93.025 115.944,93.309 115.369,93.647C114.787,93.974 114.243,94.36 113.701,94.746C113.168,95.145 112.654,95.572 112.189,96.049C111.7,96.508 111.491,97.216 111.211,97.81C110.968,98.433 110.429,98.826 109.936,99.305C109.365,99.737 109.135,100.382 108.866,100.987C108.605,101.599 108.384,102.231 108.221,102.878C107.974,103.848 107.874,104.846 107.805,105.84C107.763,106.504 107.768,107.171 107.818,107.835C107.878,108.498 107.97,109.159 108.101,109.813C108.22,110.468 108.446,111.11 108.882,111.651C109.196,112.242 109.837,112.656 110.121,113.215C110.646,113.644 110.647,114.367 110.903,114.991C111.188,115.571 111.272,116.38 111.867,116.744C112.321,117.229 112.809,117.681 113.322,118.104C113.837,118.522 114.362,118.942 114.966,119.228C115.596,119.474 116.262,119.605 116.869,119.83C117.463,120.084 118.009,120.492 118.621,120.775C119.244,121.017 119.911,121.096 120.564,121.204C121.224,121.273 121.886,121.375 122.552,121.317C122.715,121.317 122.715,121.575 122.552,121.575C121.893,121.517 121.231,121.529 120.578,121.422C119.922,121.344 119.28,121.188 118.635,121.043C117.967,120.99 117.278,120.922 116.637,120.701C115.999,120.468 115.497,119.956 114.977,119.542C114.471,119.102 113.882,118.804 113.367,118.388C112.836,117.997 112.348,117.55 111.877,117.088C111.464,116.569 110.931,116.172 110.341,115.771C109.873,115.293 109.096,114.963 108.918,114.26C108.507,113.694 108.49,112.926 108.419,112.238C108.242,111.578 108.372,110.849 108.101,110.247C107.942,109.61 107.79,108.968 107.723,108.312C107.644,107.658 107.606,107 107.611,106.341C107.606,105.682 107.664,105.022 107.774,104.373C107.89,103.723 108.046,103.084 108.224,102.451C108.416,101.823 108.609,101.192 108.879,100.591C109.228,100.03 109.312,99.34 109.529,98.682C109.646,97.966 110.038,97.378 110.636,96.994C111.155,96.535 111.88,96.318 112.26,95.773C112.737,95.319 113.245,94.899 113.772,94.504C114.304,94.115 114.875,93.783 115.453,93.472C116.043,93.18 116.633,92.891 117.247,92.654C117.861,92.42 118.49,92.222 119.132,92.082C119.771,91.93 120.417,91.792 121.073,91.73C121.727,91.643 122.389,91.662 123.045,91.686C123.701,91.715 124.357,91.772 125.004,91.889C125.633,92.088 126.319,92.008 127.006,92.065C127.648,92.246 128.314,92.419 128.828,92.898C129.308,93.431 129.949,93.601 130.499,93.972C131.065,94.308 131.603,94.692 132.099,95.124C132.6,95.551 133.063,96.019 133.508,96.502C133.963,96.977 134.357,97.503 134.759,98.024C135.163,98.544 135.499,99.114 135.81,99.694C136.097,100.287 136.361,100.891 136.573,101.514C136.809,102.128 136.99,102.762 137.154,103.4C137.33,104.036 137.428,104.694 137.457,105.353C137.5,106.011 137.505,106.671 137.476,107.329C137.456,107.987 137.396,108.647 137.269,109.295C137.132,109.94 136.986,110.585 136.754,111.203C136.561,111.835 136.258,112.418 136.082,113.064C135.917,113.72 135.686,114.359 135.436,115.006C135.057,115.572 134.493,115.998 133.987,116.436C133.416,116.818 133.011,117.336 132.507,117.767C132.015,118.21 131.47,118.584 130.939,118.973C130.34,119.249 130.003,119.974 129.444,120.397C128.974,120.985 128.258,121.137 127.533,121.099C126.832,121.158 126.118,121.007 125.503,121.266C124.535,121.474 123.543,121.582 122.552,121.576C122.386,121.576 122.386,121.316 122.552,121.316Z" style="fill-rule:nonzero;"/>
        </g>
        <g transform="matrix(1,0,0,-1,0,213.221)">
            <path d="M122.552,119.03C123.221,119.022 123.884,118.936 124.543,118.838C125.205,118.752 125.85,118.555 126.456,118.28C127.096,118.093 127.673,117.769 128.318,117.571C128.957,117.35 129.5,116.941 130.045,116.556C130.577,116.149 131.078,115.702 131.544,115.221C132.003,114.72 132.124,113.975 132.589,113.512C132.862,112.914 133.463,112.513 133.848,111.944C134.142,111.34 134.371,110.705 134.534,110.055C134.715,109.41 134.851,108.752 134.931,108.087C135.048,107.425 135.038,106.75 135.016,106.082C135.017,105.409 134.882,104.749 134.786,104.086C134.672,103.425 134.489,102.775 134.257,102.145C134.001,101.523 133.729,100.908 133.403,100.319C133.072,99.734 132.715,99.157 132.268,98.651C131.84,98.13 131.36,97.655 130.853,97.213C130.343,96.775 129.799,96.381 129.242,96.004C128.665,95.671 128.119,95.232 127.413,95.174C126.794,94.925 126.163,94.719 125.529,94.503C124.917,94.177 124.224,94.165 123.559,94.1C122.888,94.037 122.214,94.075 121.545,94.117C120.875,94.166 120.21,94.273 119.553,94.42C118.901,94.586 118.26,94.796 117.642,95.061C117.013,95.303 116.43,95.648 115.861,96.004C115.292,96.363 114.762,96.778 114.247,97.21C113.772,97.675 113.179,98.07 113.056,98.831C112.737,99.42 112.361,99.94 111.944,100.459C111.257,100.835 111.148,101.552 110.854,102.148C110.604,102.771 110.407,103.419 110.299,104.083C110.202,104.748 110.109,105.41 110.071,106.081C110.043,106.751 110.053,107.425 110.136,108.091C110.231,108.755 110.326,109.424 110.524,110.068C110.583,110.761 111.233,111.248 111.644,111.759C112.144,112.238 112.382,112.807 112.532,113.5C112.696,114.18 113.045,114.785 113.556,115.225C114.021,115.707 114.53,116.144 115.058,116.556C115.598,116.948 116.139,117.361 116.784,117.573C117.385,117.861 117.995,118.128 118.625,118.344C119.226,118.658 119.898,118.759 120.552,118.886C121.214,118.98 121.881,119.071 122.552,119.035C122.704,119.035 122.704,119.276 122.552,119.276C121.888,119.24 121.223,119.226 120.568,119.108C119.906,119.026 119.279,118.806 118.613,118.704C117.977,118.504 117.357,118.249 116.768,117.935C116.231,117.526 115.635,117.238 115.105,116.833C114.566,116.447 114.053,116.021 113.595,115.541C113.11,115.08 112.758,114.525 112.134,114.153C111.611,113.71 110.94,113.284 110.814,112.564C110.658,111.866 110.662,111.138 110.548,110.484C110.349,109.854 110.184,109.213 110.068,108.561C109.973,107.906 109.911,107.246 109.901,106.584C109.907,105.923 109.926,105.256 110.048,104.604C110.182,103.954 110.349,103.314 110.545,102.683C110.731,102.047 111.005,101.444 111.265,100.833C111.269,100.086 111.66,99.504 112.063,98.963C112.351,98.31 113.293,98.233 113.628,97.661C114.33,96.962 115.103,96.328 115.955,95.82C116.52,95.474 117.12,95.195 117.723,94.926C118.334,94.675 118.963,94.467 119.606,94.316C120.566,94.075 121.559,93.932 122.552,93.96C123.212,93.963 123.873,94.018 124.523,94.134C125.144,94.359 125.881,94.139 126.489,94.465C127.119,94.675 127.768,94.884 128.277,95.347C128.867,95.642 129.441,95.975 129.979,96.361C130.78,96.948 131.499,97.641 132.135,98.399C132.551,98.911 132.941,99.443 133.3,99.997C133.655,100.553 133.979,101.134 134.218,101.752C134.47,102.363 134.681,102.991 134.847,103.632C135.03,104.269 135.131,104.929 135.175,105.59C135.243,106.251 135.22,106.917 135.173,107.577C135.111,108.569 134.919,109.557 134.59,110.495C134.387,111.13 134.056,111.703 133.874,112.353C133.806,113.07 133.42,113.646 133.031,114.197C132.648,114.771 131.895,115.004 131.517,115.549C131.046,116.017 130.537,116.446 129.999,116.834C129.478,117.252 128.872,117.526 128.344,117.952C127.786,118.333 127.141,118.547 126.51,118.766C125.845,118.885 125.202,119.049 124.543,119.155C123.885,119.269 123.216,119.289 122.552,119.281C122.392,119.281 122.392,119.03 122.552,119.03Z" style="fill-rule:nonzero;"/>
        </g>
        <g transform="matrix(1,0,0,-1,0,213.226)">
            <path d="M122.552,116.765C123.217,116.751 123.882,116.686 124.531,116.542C125.161,116.324 125.816,116.212 126.425,115.939C127.018,115.658 127.686,115.485 128.212,115.06C128.774,114.699 129.274,114.252 129.746,113.783C130.139,113.24 130.604,112.77 130.971,112.215C131.31,111.652 131.788,111.146 131.998,110.502C132.241,109.878 132.433,109.235 132.555,108.579C132.653,107.92 132.765,107.258 132.741,106.589C132.72,105.924 132.703,105.252 132.551,104.6C132.413,103.948 132.243,103.299 131.983,102.682C131.744,102.059 131.46,101.445 131.084,100.888C130.715,100.326 130.276,99.813 129.798,99.342C129.077,98.638 128.249,98.058 127.376,97.563C126.739,97.343 126.156,97.017 125.509,96.84C124.857,96.722 124.241,96.369 123.557,96.383C122.888,96.313 122.215,96.349 121.548,96.403C120.55,96.508 119.557,96.724 118.624,97.107C117.994,97.346 117.425,97.715 116.867,98.082C116.322,98.472 115.814,98.906 115.323,99.36C114.894,99.882 114.565,100.461 114.156,100.979C113.895,101.586 113.308,102.023 113.097,102.673C112.853,103.295 112.622,103.93 112.52,104.594C112.419,105.254 112.315,105.918 112.333,106.589C112.321,107.258 112.387,107.929 112.526,108.583C112.678,109.227 112.745,109.926 113.201,110.462C113.789,110.923 113.925,111.562 114.335,112.079C114.609,112.661 114.773,113.409 115.347,113.794C115.825,114.258 116.339,114.687 116.894,115.056C117.452,115.422 118.048,115.723 118.661,115.98C119.278,116.228 119.91,116.447 120.565,116.575C121.219,116.701 121.884,116.786 122.552,116.772C122.682,116.772 122.682,116.978 122.552,116.978C121.883,116.963 121.212,116.919 120.555,116.786C119.568,116.603 118.603,116.277 117.717,115.8C117.133,115.472 116.567,115.111 116.046,114.689C115.52,114.274 115.056,113.787 114.614,113.286C113.974,112.949 113.504,112.407 113.215,111.781C112.702,111.25 113.063,110.347 112.722,109.783C112.519,109.15 112.345,108.501 112.283,107.836C112.206,107.174 112.169,106.504 112.228,105.839C112.255,105.171 112.405,104.515 112.582,103.874C112.732,103.222 113.021,102.62 113.248,101.989C113.371,101.295 113.858,100.786 114.225,100.226C114.632,99.677 115.255,99.347 115.68,98.833C116.172,98.379 116.742,98.021 117.313,97.683C117.907,97.38 118.501,97.083 119.128,96.859C119.755,96.64 120.397,96.452 121.058,96.359C121.717,96.264 122.386,96.228 123.05,96.278C123.719,96.301 124.362,96.463 125.037,96.504C125.684,96.675 126.324,96.88 126.928,97.17C127.49,97.539 128.108,97.799 128.632,98.22C129.169,98.615 129.66,99.07 130.108,99.561C130.777,100.302 131.345,101.127 131.821,102.006C132.297,102.887 132.611,103.854 132.781,104.842C132.878,105.502 132.967,106.17 132.928,106.84C132.901,107.507 132.85,108.179 132.678,108.827C132.529,109.479 132.308,110.112 132.037,110.721C131.727,111.305 131.58,111.994 131.151,112.525C130.768,113.075 130.368,113.633 129.815,114.03C129.334,114.498 128.795,114.9 128.242,115.275C127.655,115.589 127.135,116.044 126.493,116.27C125.867,116.508 125.233,116.771 124.554,116.818C123.893,116.934 123.222,116.998 122.552,116.985C122.411,116.985 122.411,116.765 122.552,116.765Z" style="fill-rule:nonzero;"/>
        </g>
        <g transform="matrix(1,0,0,-1,0,213.241)">
            <path d="M122.552,114.483C123.227,114.474 123.89,114.338 124.537,114.174C125.188,114.016 125.815,113.771 126.421,113.475C127.013,113.153 127.566,112.75 128.032,112.263C128.51,111.789 128.94,111.266 129.304,110.697C129.683,110.136 129.935,109.498 130.13,108.853C130.302,108.2 130.421,107.532 130.444,106.857C130.456,106.183 130.417,105.504 130.273,104.841C130.131,104.179 129.903,103.536 129.604,102.925C129.131,102.022 128.494,101.198 127.707,100.548C127.188,100.113 126.629,99.703 125.985,99.474C125.377,99.176 124.729,98.965 124.067,98.824C123.414,98.612 122.716,98.63 122.043,98.683C121.365,98.729 120.701,98.878 120.048,99.064C119.396,99.257 118.779,99.564 118.215,99.942C117.65,100.315 117.102,100.74 116.713,101.301C116.335,101.864 115.913,102.382 115.619,102.987C115.146,103.502 114.988,104.19 114.827,104.841C114.607,105.831 114.556,106.865 114.72,107.87C114.88,108.521 114.957,109.228 115.444,109.75C115.802,110.316 116.113,110.891 116.513,111.42C116.717,112.116 117.317,112.507 117.826,112.935C119.197,113.91 120.855,114.517 122.552,114.501C122.682,114.501 122.682,114.707 122.552,114.707C121.873,114.701 121.194,114.625 120.535,114.458C119.866,114.322 119.239,114.036 118.642,113.715C118.041,113.393 117.515,112.956 117.003,112.512C116.549,112.027 115.828,111.713 115.549,111.048C115.108,110.494 115.015,109.756 114.854,109.105C114.658,108.455 114.555,107.784 114.497,107.111C114.461,106.436 114.484,105.755 114.614,105.09C114.704,104.407 115.066,103.825 115.168,103.13C115.414,102.486 115.837,101.933 116.257,101.396C116.841,101.002 117.247,100.465 117.82,100.092C118.355,99.675 118.978,99.399 119.59,99.123C120.209,98.857 120.868,98.673 121.54,98.6C122.213,98.505 122.891,98.568 123.558,98.634C124.238,98.647 124.897,98.847 125.528,99.087C126.181,99.294 126.712,99.743 127.28,100.096C127.83,100.486 128.318,100.96 128.745,101.48C129.182,101.993 129.544,102.569 129.836,103.176C130.292,104.081 130.553,105.081 130.638,106.095C130.685,106.773 130.638,107.455 130.518,108.124C130.372,108.787 130.162,109.436 129.87,110.048C129.594,110.667 129.238,111.252 128.811,111.783C128.388,112.318 127.859,112.757 127.317,113.163C126.487,113.744 125.587,114.272 124.584,114.521C123.92,114.694 123.23,114.736 122.552,114.725C122.398,114.725 122.398,114.483 122.552,114.483Z" style="fill-rule:nonzero;"/>
        </g>
        <g transform="matrix(1,0,0,-1,0,213.255)">
            <path d="M122.552,112.142C123.229,112.078 123.9,111.984 124.538,111.745C125.169,111.512 125.799,111.2 126.281,110.709C126.806,110.269 127.216,109.706 127.543,109.103C127.846,108.486 128.027,107.814 128.098,107.132C128.13,106.45 128.121,105.751 127.905,105.095C127.723,104.436 127.45,103.787 127.023,103.241C126.594,102.703 126.079,102.221 125.467,101.909C124.8,101.727 124.258,101.279 123.562,101.212C122.902,101.11 122.199,100.973 121.538,101.194C120.879,101.344 120.209,101.536 119.655,101.94C119.064,102.282 118.619,102.825 118.272,103.386C117.852,103.905 117.607,104.52 117.312,105.127C117.057,105.76 117.068,106.453 117.071,107.126C117.054,107.805 117.263,108.51 117.76,109.004C118.026,109.629 118.561,110.023 118.865,110.662C119.306,111.186 119.924,111.523 120.548,111.788C121.182,112.033 121.865,112.212 122.552,112.152C122.781,112.152 122.781,112.513 122.552,112.513C121.886,112.466 121.227,112.371 120.591,112.167C119.965,111.943 119.362,111.634 118.844,111.21C118.182,110.956 117.71,110.401 117.372,109.807C116.863,109.274 117.069,108.448 116.803,107.857C116.619,107.217 116.546,106.529 116.652,105.862C116.817,105.224 116.749,104.48 117.15,103.894C117.467,103.302 117.785,102.639 118.426,102.313C118.941,101.879 119.493,101.481 120.12,101.239C120.722,100.95 121.383,100.766 122.052,100.752C122.711,100.773 123.397,100.656 124.046,100.878C124.69,101.039 125.368,101.25 125.837,101.757C126.383,102.138 126.841,102.627 127.236,103.154C127.621,103.687 127.949,104.269 128.16,104.9C128.33,105.54 128.452,106.201 128.409,106.867C128.366,107.527 128.253,108.192 127.981,108.8C127.747,109.421 127.391,109.992 126.963,110.501C126.552,111.032 125.988,111.41 125.428,111.767C124.577,112.288 123.56,112.599 122.552,112.523C122.31,112.523 122.31,112.142 122.552,112.142Z" style="fill-rule:nonzero;"/>
        </g>
        <g transform="matrix(1,0,0,-1,0,213.185)">
            <path d="M122.552,109.312C123.243,109.256 123.837,108.907 124.326,108.494C124.825,108.081 125.227,107.511 125.421,106.814C125.515,106.122 125.356,105.321 124.8,104.85C124.405,104.254 123.694,103.989 123.051,103.875C122.387,103.867 121.709,103.927 121.17,104.316C120.705,104.715 120.04,105.083 119.9,105.793C119.584,106.445 119.862,107.168 120.098,107.77C120.619,108.686 121.562,109.091 122.552,109.341C123.359,109.341 123.359,110.613 122.552,110.613C121.874,110.886 121.188,110.553 120.604,110.258C120.002,109.955 119.485,109.469 119.177,108.877C118.793,108.349 118.479,107.712 118.512,107.038C118.454,106.388 118.489,105.72 118.702,105.088C118.971,104.495 119.223,103.838 119.749,103.385C120.241,102.899 120.898,102.651 121.539,102.44C122.202,102.299 122.911,102.301 123.537,102.55C124.488,102.836 125.344,103.43 125.871,104.257C126.143,104.848 126.415,105.43 126.47,106.072C126.503,106.697 126.586,107.359 126.385,108.002C126.256,108.671 125.81,109.216 125.352,109.709C124.596,110.41 123.534,110.706 122.552,110.641C121.707,110.641 121.707,109.312 122.552,109.312Z" style="fill-rule:nonzero;"/>
        </g>
        <g transform="matrix(1,0,0,-1,0,213.552)">
            <path d="M122.552,107.453C122.791,107.461 122.964,107.253 123.012,107.065C123.152,106.844 122.861,106.679 122.769,106.616C122.64,106.517 122.462,106.548 122.342,106.627C122.217,106.703 122.11,106.857 122.124,107.054C122.13,107.215 122.293,107.549 122.552,107.422C123.359,107.422 123.359,108.694 122.552,108.694C121.912,108.57 121.216,108.331 120.89,107.673C120.573,107.062 120.604,106.218 121.099,105.656C121.564,105.085 122.394,104.838 123.091,105.076C123.807,105.257 124.348,105.955 124.34,106.658C124.534,107.722 123.561,108.714 122.552,108.662C121.784,108.662 121.784,107.453 122.552,107.453Z" style="fill-rule:nonzero;"/>
        </g>
    </g>
</svg>
