<?xml version="1.0" encoding="UTF-8" standalone="no"?>
<svg
   id="b"
   width="20"
   height="16"
   viewBox="0 0 20 16"
   version="1.1"
   sodipodi:docname="view-selection.svg"
   inkscape:version="1.3.1 (91b66b0, 2023-11-16)"
   xml:space="preserve"
   xmlns:inkscape="http://www.inkscape.org/namespaces/inkscape"
   xmlns:sodipodi="http://sodipodi.sourceforge.net/DTD/sodipodi-0.dtd"
   xmlns="http://www.w3.org/2000/svg"
   xmlns:svg="http://www.w3.org/2000/svg"><sodipodi:namedview
     id="namedview3"
     pagecolor="#ffffff"
     bordercolor="#000000"
     borderopacity="0.25"
     inkscape:showpageshadow="2"
     inkscape:pageopacity="0.0"
     inkscape:pagecheckerboard="0"
     inkscape:deskcolor="#d1d1d1"
     inkscape:zoom="14.75"
     inkscape:cx="6"
     inkscape:cy="8.5423729"
     inkscape:window-width="1312"
     inkscape:window-height="605"
     inkscape:window-x="42"
     inkscape:window-y="249"
     inkscape:window-maximized="0"
     inkscape:current-layer="b" /><defs
     id="defs1"><style
       id="style1">.e{stroke:#000;stroke-linecap:round;stroke-linejoin:round;}.e,.f{fill:none;}.f{opacity:.2;stroke-width:0px;}</style><clipPath
       clipPathUnits="userSpaceOnUse"
       id="clipPath3761"><path
         d="M 0,1205.777 H 2738.234 V 0 H 0 Z"
         transform="translate(-1062.36,-340.07301)"
         id="path3761" /></clipPath><clipPath
       clipPathUnits="userSpaceOnUse"
       id="clipPath3763"><path
         d="M 0,1205.777 H 2738.234 V 0 H 0 Z"
         transform="translate(-1062.2632,-337.60821)"
         id="path3763" /></clipPath><clipPath
       clipPathUnits="userSpaceOnUse"
       id="clipPath3765"><path
         d="M 0,1205.777 H 2738.234 V 0 H 0 Z"
         transform="translate(-1062.2632,-335.39121)"
         id="path3765" /></clipPath><clipPath
       clipPathUnits="userSpaceOnUse"
       id="clipPath3767"><path
         d="M 0,1205.777 H 2738.234 V 0 H 0 Z"
         transform="translate(-1062.4291,-333.34101)"
         id="path3767" /></clipPath><clipPath
       clipPathUnits="userSpaceOnUse"
       id="clipPath3769"><path
         d="M 0,1205.777 H 2738.234 V 0 H 0 Z"
         transform="translate(-1062.9171,-331.61488)"
         id="path3769" /></clipPath><clipPath
       clipPathUnits="userSpaceOnUse"
       id="clipPath3771"><path
         d="M 0,1205.777 H 2738.234 V 0 H 0 Z"
         transform="translate(-1063.7688,-330.25498)"
         id="path3771" /></clipPath><clipPath
       clipPathUnits="userSpaceOnUse"
       id="clipPath3773"><path
         d="M 0,1205.777 H 2738.234 V 0 H 0 Z"
         transform="translate(-1064.9308,-329.20708)"
         id="path3773" /></clipPath><clipPath
       clipPathUnits="userSpaceOnUse"
       id="clipPath3775"><path
         d="M 0,1205.777 H 2738.234 V 0 H 0 Z"
         transform="translate(-1066.5945,-328.66393)"
         id="path3775" /></clipPath><clipPath
       clipPathUnits="userSpaceOnUse"
       id="clipPath3777"><path
         d="M 0,1205.777 H 2738.234 V 0 H 0 Z"
         transform="translate(-1069.0444,-328.91211)"
         id="path3777" /></clipPath></defs><g
     id="g4"
     style="clip-rule:evenodd;fill-rule:evenodd;stroke-linejoin:round;stroke-miterlimit:2"
     transform="translate(-0.0275,-0.01)"><path
       d="m 4.162,7.626 v 0 c 0.379,0 0.725,-0.143 0.991,-0.411 -10e-4,0.001 3.71,-3.71 3.71,-3.71 C 9.411,2.958 9.411,2.07 8.864,1.526 8.603,1.26 8.246,1.115 7.873,1.115 7.499,1.115 7.148,1.258 6.882,1.526 6.882,1.525 3.17,5.237 3.17,5.237 2.908,5.503 2.761,5.854 2.761,6.226 c 0,0.378 0.149,0.73 0.411,0.99 0.266,0.267 0.617,0.41 0.99,0.41 z m 0,-1 C 4.056,6.626 3.955,6.586 3.88,6.51 L 3.879,6.509 C 3.803,6.434 3.761,6.334 3.761,6.226 c 0,-0.108 0.045,-0.209 0.12,-0.285 0,0 3.709,-3.709 3.709,-3.709 0.076,-0.077 0.177,-0.117 0.283,-0.117 0.104,0 0.205,0.038 0.278,0.112 L 8.155,2.231 C 8.314,2.389 8.313,2.642 8.156,2.798 L 4.445,6.51 C 4.368,6.586 4.27,6.626 4.162,6.626 Z"
       id="path1" /><path
       d="m 6.424,10.879 v 0 c 0.375,0 0.728,-0.149 0.989,-0.411 C 7.412,10.469 12.362,5.519 12.362,5.519 12.91,4.97 12.909,4.083 12.363,3.539 12.101,3.273 11.75,3.128 11.372,3.128 c -0.374,0 -0.724,0.143 -0.991,0.41 0,0 -4.947,4.947 -4.947,4.947 -0.265,0.267 -0.41,0.616 -0.41,0.994 0,0.372 0.145,0.723 0.41,0.989 0.261,0.262 0.613,0.411 0.99,0.411 z m 0,-1 C 6.317,9.879 6.217,9.837 6.143,9.762 H 6.142 C 6.066,9.685 6.024,9.585 6.024,9.479 c 0,-0.11 0.042,-0.211 0.119,-0.288 -10e-4,0 4.945,-4.946 4.945,-4.946 0.077,-0.076 0.177,-0.117 0.284,-0.117 0.106,0 0.205,0.038 0.278,0.113 l 0.003,0.003 c 0.16,0.158 0.158,0.411 10e-4,0.567 0,0 -4.95,4.951 -4.95,4.951 C 6.63,9.837 6.53,9.879 6.424,9.879 Z"
       id="path2" /><path
       d="m 9.924,12.892 v 0 c 0.374,0 0.728,-0.147 0.99,-0.414 C 10.91,12.482 14.625,8.77 14.625,8.77 15.169,8.221 15.168,7.335 14.626,6.788 L 14.624,6.786 C 14.357,6.523 14.006,6.38 13.635,6.38 c -0.378,0 -0.724,0.143 -0.991,0.41 0,0 -3.711,3.711 -3.711,3.711 -0.263,0.258 -0.414,0.616 -0.414,0.991 0,0.371 0.148,0.722 0.412,0.988 0.261,0.266 0.613,0.412 0.993,0.412 z m 0,-1 c -0.107,0 -0.207,-0.039 -0.28,-0.114 L 9.642,11.776 C 9.564,11.698 9.519,11.598 9.519,11.492 c 0,-0.106 0.043,-0.207 0.118,-0.28 l 3.714,-3.714 c 0.077,-0.077 0.176,-0.118 0.284,-0.118 0.106,0 0.207,0.041 0.283,0.115 0.155,0.158 0.154,0.412 -0.002,0.57 0,0 -3.715,3.711 -3.715,3.711 -0.074,0.077 -0.173,0.116 -0.277,0.116 z"
       id="path3" /><path
       d="m 13.423,14.905 v 0 c 0.371,0 0.717,-0.143 0.982,-0.403 l 2.48,-2.479 c 0.266,-0.267 0.409,-0.616 0.409,-0.994 0,-0.372 -0.143,-0.724 -0.409,-0.99 -0.267,-0.267 -0.618,-0.41 -0.991,-0.41 -0.373,0 -0.725,0.144 -0.991,0.411 10e-4,-10e-4 -2.471,2.474 -2.471,2.474 -0.266,0.266 -0.414,0.618 -0.414,0.99 0,0.378 0.149,0.729 0.414,0.994 v 0.001 c 0.262,0.26 0.612,0.406 0.991,0.406 z m 0,-1 c -0.109,0 -0.21,-0.04 -0.285,-0.114 -0.076,-0.077 -0.12,-0.178 -0.12,-0.287 0,-0.106 0.045,-0.206 0.121,-0.283 l 2.473,-2.475 c 0.076,-0.077 0.176,-0.117 0.282,-0.117 0.107,0 0.207,0.041 0.284,0.117 0.076,0.076 0.116,0.177 0.116,0.283 0,0.109 -0.04,0.211 -0.117,0.288 0,0 -2.472,2.471 -2.472,2.471 -0.077,0.075 -0.176,0.117 -0.282,0.117 z"
       id="path4" /></g></svg>
