<?xml version="1.0" encoding="UTF-8"?><svg id="b" xmlns="http://www.w3.org/2000/svg" width="20" height="16" viewBox="0 0 20 16"><defs><style>.e{fill:none;}.e,.f{stroke-width:0px;}</style></defs><g id="c"><g id="d"><path class="f" d="m17.88,7.37l-2.8-3.13c-.42-.47-1.08-.62-1.66-.38l-.73.3c-.21.09-.35.32-.3.54.07.29.37.43.63.33l.75-.31c.21-.09.46-.03.61.14l1.93,2.16c-.52-.07-1.21-.12-2.1-.12-2.16,0-3.38.32-3.43.33-.2.05-.32.22-.34.41-.3-.05-.6-.05-.9,0-.02-.19-.14-.36-.34-.41-.05-.01-1.27-.33-3.43-.33-.89,0-1.58.05-2.1.12l1.93-2.16c.15-.17.4-.23.61-.14l.75.31c.26.11.56-.04.63-.33.05-.23-.09-.45-.3-.54l-.73-.3c-.58-.24-1.24-.08-1.66.38l-2.81,3.13c-.1.11-.14.26-.11.4l.43,2.1c.28,1.36,1.5,2.36,2.89,2.37h.75s.02,0,.02,0c1.36,0,2.55-.91,2.88-2.23l.27-1.08c.04-.17.17-.31.34-.35.27-.07.55-.07.81,0,.17.04.3.18.34.35l.27,1.08c.33,1.32,1.52,2.24,2.88,2.23h.77c1.4-.02,2.6-1.01,2.89-2.38l.43-2.1c.03-.15-.01-.3-.11-.41h0Zm-9.79,2.4c-.23.92-1.06,1.55-2,1.55h-.75c-.96-.02-1.79-.69-1.99-1.64l-.25-1.22c-.05-.22.1-.43.32-.47.48-.08,1.26-.17,2.36-.17.99,0,1.77.07,2.31.14.23.03.38.26.32.48l-.33,1.32Zm8.56-.09c-.2.94-1.02,1.62-1.99,1.63h-.75s-.02,0-.02,0c-.93,0-1.75-.62-1.98-1.53l-.33-1.34c-.06-.23.09-.45.32-.48.54-.07,1.32-.14,2.31-.14,1.1,0,1.88.09,2.36.17.22.04.37.25.32.47l-.25,1.22Z"/><rect class="e" width="20" height="16"/></g></g></svg>