<?xml version="1.0" encoding="UTF-8" standalone="no"?>
<svg
   id="b"
   width="20"
   height="20"
   viewBox="0 0 20 20"
   version="1.1"
   sodipodi:docname="effects-sharpen.svg"
   inkscape:version="1.3.1 (91b66b0, 2023-11-16)"
   xml:space="preserve"
   xmlns:inkscape="http://www.inkscape.org/namespaces/inkscape"
   xmlns:sodipodi="http://sodipodi.sourceforge.net/DTD/sodipodi-0.dtd"
   xmlns="http://www.w3.org/2000/svg"
   xmlns:svg="http://www.w3.org/2000/svg"><sodipodi:namedview
     id="namedview3"
     pagecolor="#ffffff"
     bordercolor="#000000"
     borderopacity="0.25"
     inkscape:showpageshadow="2"
     inkscape:pageopacity="0.0"
     inkscape:pagecheckerboard="0"
     inkscape:deskcolor="#d1d1d1"
     inkscape:zoom="14.75"
     inkscape:cx="7.7288136"
     inkscape:cy="11.525424"
     inkscape:window-width="1328"
     inkscape:window-height="605"
     inkscape:window-x="69"
     inkscape:window-y="267"
     inkscape:window-maximized="0"
     inkscape:current-layer="d" /><defs
     id="defs1"><style
       id="style1">.e{stroke:#000;stroke-linecap:round;stroke-linejoin:round;}.e,.f{fill:none;}.f{opacity:.2;stroke-width:0px;}</style><clipPath
       clipPathUnits="userSpaceOnUse"
       id="clipPath13578"><path
         d="M 0,1205.777 H 2738.234 V 0 H 0 Z"
         transform="translate(-1750.1958,-473.16941)"
         id="path13578" /></clipPath><clipPath
       clipPathUnits="userSpaceOnUse"
       id="clipPath13580"><path
         d="M 0,1205.777 H 2738.234 V 0 H 0 Z"
         transform="translate(-1755.2523,-482.35451)"
         id="path13580" /></clipPath><clipPath
       clipPathUnits="userSpaceOnUse"
       id="clipPath13582"><path
         d="M 0,1205.777 H 2738.234 V 0 H 0 Z"
         transform="translate(-1753.044,-479.21061)"
         id="path13582" /></clipPath><clipPath
       clipPathUnits="userSpaceOnUse"
       id="clipPath13694"><path
         d="M 0,1205.777 H 2738.234 V 0 H 0 Z"
         transform="translate(-1694.7306,-422.60451)"
         id="path13694" /></clipPath><clipPath
       clipPathUnits="userSpaceOnUse"
       id="clipPath13696"><path
         d="M 0,1205.777 H 2738.234 V 0 H 0 Z"
         transform="translate(-1692.729,-424.80839)"
         id="path13696" /></clipPath><clipPath
       clipPathUnits="userSpaceOnUse"
       id="clipPath13698"><path
         d="M 0,1205.777 H 2738.234 V 0 H 0 Z"
         transform="translate(-1694.7306,-436.10451)"
         id="path13698" /></clipPath><clipPath
       clipPathUnits="userSpaceOnUse"
       id="clipPath13700"><path
         d="M 0,1205.777 H 2738.234 V 0 H 0 Z"
         transform="translate(-1692.729,-433.90049)"
         id="path13700" /></clipPath><clipPath
       clipPathUnits="userSpaceOnUse"
       id="clipPath13702"><path
         d="M 0,1205.777 H 2738.234 V 0 H 0 Z"
         transform="translate(-1695.2346,-430.59944)"
         id="path13702" /></clipPath><clipPath
       clipPathUnits="userSpaceOnUse"
       id="clipPath13704"><path
         d="M 0,1205.777 H 2738.234 V 0 H 0 Z"
         transform="translate(-1686.2346,-427.04999)"
         id="path13704" /></clipPath><clipPath
       clipPathUnits="userSpaceOnUse"
       id="clipPath13706"><path
         d="M 0,1205.777 H 2738.234 V 0 H 0 Z"
         transform="translate(-1686.2346,-428.59529)"
         id="path13706" /></clipPath><clipPath
       clipPathUnits="userSpaceOnUse"
       id="clipPath13714"><path
         d="M 0,1205.777 H 2738.234 V 0 H 0 Z"
         transform="translate(-1641.2346,-434.35454)"
         id="path13714" /></clipPath><clipPath
       clipPathUnits="userSpaceOnUse"
       id="clipPath13710"><path
         d="M 0,1205.777 H 2738.234 V 0 H 0 Z"
         transform="translate(-1661.3688,-434.35454)"
         id="path13710" /></clipPath><clipPath
       clipPathUnits="userSpaceOnUse"
       id="clipPath1370"><path
         d="M 0,1205.777 H 2738.234 V 0 H 0 Z"
         transform="translate(-2652.6085,-953.81653)"
         id="path1370" /></clipPath><clipPath
       clipPathUnits="userSpaceOnUse"
       id="clipPath1372"><path
         d="M 0,1205.777 H 2738.234 V 0 H 0 Z"
         transform="translate(-2643.2344,-953.60452)"
         id="path1372" /></clipPath><clipPath
       clipPathUnits="userSpaceOnUse"
       id="clipPath4379"><path
         d="M 0,1205.777 H 2738.234 V 0 H 0 Z"
         transform="translate(-1926.0876,-576.35451)"
         id="path4379" /></clipPath><clipPath
       clipPathUnits="userSpaceOnUse"
       id="clipPath4383"><path
         d="M 0,1205.777 H 2738.234 V 0 H 0 Z"
         transform="translate(-1928.0082,-573.77712)"
         id="path4383" /></clipPath><clipPath
       clipPathUnits="userSpaceOnUse"
       id="clipPath4385"><path
         d="M 0,1205.777 H 2738.234 V 0 H 0 Z"
         transform="translate(-1925.7345,-570.39171)"
         id="path4385" /></clipPath><clipPath
       clipPathUnits="userSpaceOnUse"
       id="clipPath14142"><path
         d="M 0,1205.777 H 2738.234 V 0 H 0 Z"
         transform="translate(-1983.2281,-349.33701)"
         id="path14142" /></clipPath><clipPath
       clipPathUnits="userSpaceOnUse"
       id="clipPath14138"><path
         d="M 0,1205.777 H 2738.234 V 0 H 0 Z"
         transform="translate(-1995.2346,-354.85453)"
         id="path14138" /></clipPath><clipPath
       clipPathUnits="userSpaceOnUse"
       id="clipPath14140"><path
         d="M 0,1205.777 H 2738.234 V 0 H 0 Z"
         transform="translate(-1995.2346,-354.85453)"
         id="path14140" /></clipPath><clipPath
       clipPathUnits="userSpaceOnUse"
       id="clipPath14130"><path
         d="M 0,1205.777 H 2738.234 V 0 H 0 Z"
         transform="translate(0,2.5000001e-5)"
         id="path14130" /></clipPath><clipPath
       clipPathUnits="userSpaceOnUse"
       id="clipPath14132"><path
         d="M 0,1205.777 H 2738.234 V 0 H 0 Z"
         transform="translate(0,2.5000001e-5)"
         id="path14132" /></clipPath><clipPath
       clipPathUnits="userSpaceOnUse"
       id="clipPath14134"><path
         d="M 0,1205.777 H 2738.234 V 0 H 0 Z"
         transform="translate(0,2.5000001e-5)"
         id="path14134" /></clipPath><clipPath
       clipPathUnits="userSpaceOnUse"
       id="clipPath14136"><path
         d="M 0,1205.777 H 2738.234 V 0 H 0 Z"
         transform="translate(0,2.5000001e-5)"
         id="path14136" /></clipPath><clipPath
       clipPathUnits="userSpaceOnUse"
       id="clipPath14080"><path
         d="M 0,1205.777 H 2738.234 V 0 H 0 Z"
         transform="translate(-2065.1529,-382.48348)"
         id="path14080" /></clipPath><clipPath
       clipPathUnits="userSpaceOnUse"
       id="clipPath14082"><path
         d="M 0,1205.777 H 2738.234 V 0 H 0 Z"
         transform="translate(-2075.4055,-375.19663)"
         id="path14082" /></clipPath></defs><g
     id="c"><g
       id="d"><path
         id="path14081"
         d="m 0,0 v 1.368 c 1.323,0 2.452,0.468 3.387,1.403 C 4.322,3.706 4.79,4.835 4.79,6.158 4.79,7.481 4.322,8.61 3.387,9.545 2.452,10.48 1.323,10.947 0,10.947 v 1.369 c 0.844,0 1.639,-0.163 2.386,-0.488 0.747,-0.325 1.4,-0.767 1.959,-1.325 C 4.904,9.944 5.345,9.291 5.67,8.544 5.995,7.797 6.158,7.002 6.158,6.158 6.158,5.314 5.995,4.519 5.67,3.772 5.345,3.025 4.904,2.372 4.345,1.813 3.786,1.254 3.133,0.812 2.386,0.488 1.639,0.163 0.844,0 0,0 m -1.856,1.565 c -0.131,0.131 -0.197,0.294 -0.197,0.488 0,0.193 0.066,0.356 0.197,0.487 0.131,0.131 0.294,0.197 0.488,0.197 0.193,0 0.356,-0.066 0.487,-0.197 0.131,-0.131 0.197,-0.294 0.197,-0.487 0,-0.194 -0.066,-0.357 -0.197,-0.488 -0.131,-0.131 -0.294,-0.197 -0.487,-0.197 -0.194,0 -0.357,0.066 -0.488,0.197 m -0.239,5.234 c -0.2,0.2 -0.3,0.442 -0.3,0.727 0,0.285 0.1,0.528 0.3,0.727 0.199,0.2 0.441,0.3 0.727,0.3 0.285,0 0.527,-0.1 0.727,-0.3 0.199,-0.199 0.299,-0.442 0.299,-0.727 0,-0.285 -0.1,-0.527 -0.299,-0.727 C -0.841,6.6 -1.083,6.5 -1.368,6.5 c -0.286,0 -0.528,0.1 -0.727,0.299 m 0,-2.737 c -0.2,0.2 -0.3,0.442 -0.3,0.727 0,0.286 0.1,0.528 0.3,0.727 0.199,0.2 0.441,0.3 0.727,0.3 0.285,0 0.527,-0.1 0.727,-0.3 0.199,-0.199 0.299,-0.441 0.299,-0.727 0,-0.285 -0.1,-0.527 -0.299,-0.727 -0.2,-0.199 -0.442,-0.299 -0.727,-0.299 -0.286,0 -0.528,0.1 -0.727,0.299 m 0.239,5.714 c -0.131,0.131 -0.197,0.293 -0.197,0.487 0,0.194 0.066,0.357 0.197,0.488 0.131,0.131 0.294,0.196 0.488,0.196 0.193,0 0.356,-0.065 0.487,-0.196 0.131,-0.131 0.197,-0.294 0.197,-0.488 0,-0.194 -0.066,-0.356 -0.197,-0.487 -0.131,-0.131 -0.294,-0.197 -0.487,-0.197 -0.194,0 -0.357,0.066 -0.488,0.197 m 0.248,2.3 c -0.068,0.069 -0.102,0.149 -0.102,0.24 0,0.091 0.034,0.171 0.102,0.239 0.068,0.069 0.148,0.103 0.24,0.103 0.091,0 0.171,-0.034 0.239,-0.103 0.068,-0.068 0.103,-0.148 0.103,-0.239 0,-0.091 -0.035,-0.171 -0.103,-0.24 -0.068,-0.068 -0.148,-0.102 -0.239,-0.102 -0.092,0 -0.172,0.034 -0.24,0.102 m 0,-12.315 C -1.676,-0.171 -1.71,-0.091 -1.71,0 c 0,0.091 0.034,0.171 0.102,0.239 0.068,0.069 0.148,0.103 0.24,0.103 0.091,0 0.171,-0.034 0.239,-0.103 0.068,-0.068 0.103,-0.148 0.103,-0.239 0,-0.091 -0.035,-0.171 -0.103,-0.239 -0.068,-0.069 -0.148,-0.103 -0.239,-0.103 -0.092,0 -0.172,0.034 -0.24,0.103 M -6.397,4.55 C -6.466,4.618 -6.5,4.698 -6.5,4.789 c 0,0.092 0.034,0.172 0.103,0.24 0.068,0.068 0.148,0.103 0.239,0.103 0.091,0 0.171,-0.035 0.24,-0.103 0.068,-0.068 0.102,-0.148 0.102,-0.24 0,-0.091 -0.034,-0.171 -0.102,-0.239 -0.069,-0.068 -0.149,-0.103 -0.24,-0.103 -0.091,0 -0.171,0.035 -0.239,0.103 m 1.804,5.226 c -0.131,0.131 -0.197,0.293 -0.197,0.487 0,0.194 0.066,0.357 0.197,0.488 0.131,0.131 0.294,0.196 0.488,0.196 0.194,0 0.356,-0.065 0.487,-0.196 0.131,-0.131 0.197,-0.294 0.197,-0.488 0,-0.194 -0.066,-0.356 -0.197,-0.487 -0.131,-0.131 -0.293,-0.197 -0.487,-0.197 -0.194,0 -0.357,0.066 -0.488,0.197 M -6.397,7.287 C -6.466,7.355 -6.5,7.435 -6.5,7.526 c 0,0.092 0.034,0.171 0.103,0.24 0.068,0.068 0.148,0.102 0.239,0.102 0.091,0 0.171,-0.034 0.24,-0.102 0.068,-0.069 0.102,-0.148 0.102,-0.24 0,-0.091 -0.034,-0.171 -0.102,-0.239 -0.069,-0.069 -0.149,-0.103 -0.24,-0.103 -0.091,0 -0.171,0.034 -0.239,0.103 M -4.593,7.039 C -4.724,7.17 -4.79,7.332 -4.79,7.526 c 0,0.194 0.066,0.357 0.197,0.488 0.131,0.131 0.294,0.197 0.488,0.197 0.194,0 0.356,-0.066 0.487,-0.197 0.131,-0.131 0.197,-0.294 0.197,-0.488 0,-0.194 -0.066,-0.356 -0.197,-0.487 -0.131,-0.131 -0.293,-0.197 -0.487,-0.197 -0.194,0 -0.357,0.066 -0.488,0.197 m 0,-5.474 c -0.131,0.131 -0.197,0.294 -0.197,0.488 0,0.193 0.066,0.356 0.197,0.487 0.131,0.131 0.294,0.197 0.488,0.197 0.194,0 0.356,-0.066 0.487,-0.197 0.131,-0.131 0.197,-0.294 0.197,-0.487 0,-0.194 -0.066,-0.357 -0.197,-0.488 -0.131,-0.131 -0.293,-0.197 -0.487,-0.197 -0.194,0 -0.357,0.066 -0.488,0.197 m 0,2.737 c -0.131,0.131 -0.197,0.294 -0.197,0.487 0,0.194 0.066,0.357 0.197,0.488 0.131,0.131 0.294,0.197 0.488,0.197 0.194,0 0.356,-0.066 0.487,-0.197 0.131,-0.131 0.197,-0.294 0.197,-0.488 0,-0.193 -0.066,-0.356 -0.197,-0.487 -0.131,-0.131 -0.293,-0.197 -0.487,-0.197 -0.194,0 -0.357,0.066 -0.488,0.197"
         style="fill:#000000 icc-color(Display, 0, 0, 0);fill-opacity:1;fill-rule:nonzero;stroke:none"
         transform="matrix(1.3333333,0,0,-1.3333333,10.228,18.210666)"
         clip-path="url(#clipPath14082)" /></g></g></svg>
