<?xml version="1.0" encoding="UTF-8" standalone="no"?>
<svg
   id="b"
   width="20"
   height="20"
   viewBox="0 0 20 20"
   version="1.1"
   sodipodi:docname="effects-levels.svg"
   inkscape:version="1.3.1 (91b66b0, 2023-11-16)"
   xml:space="preserve"
   xmlns:inkscape="http://www.inkscape.org/namespaces/inkscape"
   xmlns:sodipodi="http://sodipodi.sourceforge.net/DTD/sodipodi-0.dtd"
   xmlns="http://www.w3.org/2000/svg"
   xmlns:svg="http://www.w3.org/2000/svg"><sodipodi:namedview
     id="namedview3"
     pagecolor="#ffffff"
     bordercolor="#000000"
     borderopacity="0.25"
     inkscape:showpageshadow="2"
     inkscape:pageopacity="0.0"
     inkscape:pagecheckerboard="0"
     inkscape:deskcolor="#d1d1d1"
     inkscape:zoom="14.75"
     inkscape:cx="7.7288136"
     inkscape:cy="11.525424"
     inkscape:window-width="1328"
     inkscape:window-height="605"
     inkscape:window-x="69"
     inkscape:window-y="267"
     inkscape:window-maximized="0"
     inkscape:current-layer="d" /><defs
     id="defs1"><style
       id="style1">.e{stroke:#000;stroke-linecap:round;stroke-linejoin:round;}.e,.f{fill:none;}.f{opacity:.2;stroke-width:0px;}</style><clipPath
       clipPathUnits="userSpaceOnUse"
       id="clipPath13578"><path
         d="M 0,1205.777 H 2738.234 V 0 H 0 Z"
         transform="translate(-1750.1958,-473.16941)"
         id="path13578" /></clipPath><clipPath
       clipPathUnits="userSpaceOnUse"
       id="clipPath13580"><path
         d="M 0,1205.777 H 2738.234 V 0 H 0 Z"
         transform="translate(-1755.2523,-482.35451)"
         id="path13580" /></clipPath><clipPath
       clipPathUnits="userSpaceOnUse"
       id="clipPath13582"><path
         d="M 0,1205.777 H 2738.234 V 0 H 0 Z"
         transform="translate(-1753.044,-479.21061)"
         id="path13582" /></clipPath><clipPath
       clipPathUnits="userSpaceOnUse"
       id="clipPath13694"><path
         d="M 0,1205.777 H 2738.234 V 0 H 0 Z"
         transform="translate(-1694.7306,-422.60451)"
         id="path13694" /></clipPath><clipPath
       clipPathUnits="userSpaceOnUse"
       id="clipPath13696"><path
         d="M 0,1205.777 H 2738.234 V 0 H 0 Z"
         transform="translate(-1692.729,-424.80839)"
         id="path13696" /></clipPath><clipPath
       clipPathUnits="userSpaceOnUse"
       id="clipPath13698"><path
         d="M 0,1205.777 H 2738.234 V 0 H 0 Z"
         transform="translate(-1694.7306,-436.10451)"
         id="path13698" /></clipPath><clipPath
       clipPathUnits="userSpaceOnUse"
       id="clipPath13700"><path
         d="M 0,1205.777 H 2738.234 V 0 H 0 Z"
         transform="translate(-1692.729,-433.90049)"
         id="path13700" /></clipPath><clipPath
       clipPathUnits="userSpaceOnUse"
       id="clipPath13702"><path
         d="M 0,1205.777 H 2738.234 V 0 H 0 Z"
         transform="translate(-1695.2346,-430.59944)"
         id="path13702" /></clipPath><clipPath
       clipPathUnits="userSpaceOnUse"
       id="clipPath13704"><path
         d="M 0,1205.777 H 2738.234 V 0 H 0 Z"
         transform="translate(-1686.2346,-427.04999)"
         id="path13704" /></clipPath><clipPath
       clipPathUnits="userSpaceOnUse"
       id="clipPath13706"><path
         d="M 0,1205.777 H 2738.234 V 0 H 0 Z"
         transform="translate(-1686.2346,-428.59529)"
         id="path13706" /></clipPath><clipPath
       clipPathUnits="userSpaceOnUse"
       id="clipPath13714"><path
         d="M 0,1205.777 H 2738.234 V 0 H 0 Z"
         transform="translate(-1641.2346,-434.35454)"
         id="path13714" /></clipPath><clipPath
       clipPathUnits="userSpaceOnUse"
       id="clipPath13710"><path
         d="M 0,1205.777 H 2738.234 V 0 H 0 Z"
         transform="translate(-1661.3688,-434.35454)"
         id="path13710" /></clipPath><clipPath
       clipPathUnits="userSpaceOnUse"
       id="clipPath1370"><path
         d="M 0,1205.777 H 2738.234 V 0 H 0 Z"
         transform="translate(-2652.6085,-953.81653)"
         id="path1370" /></clipPath><clipPath
       clipPathUnits="userSpaceOnUse"
       id="clipPath1372"><path
         d="M 0,1205.777 H 2738.234 V 0 H 0 Z"
         transform="translate(-2643.2344,-953.60452)"
         id="path1372" /></clipPath><clipPath
       clipPathUnits="userSpaceOnUse"
       id="clipPath4379"><path
         d="M 0,1205.777 H 2738.234 V 0 H 0 Z"
         transform="translate(-1926.0876,-576.35451)"
         id="path4379" /></clipPath><clipPath
       clipPathUnits="userSpaceOnUse"
       id="clipPath4383"><path
         d="M 0,1205.777 H 2738.234 V 0 H 0 Z"
         transform="translate(-1928.0082,-573.77712)"
         id="path4383" /></clipPath><clipPath
       clipPathUnits="userSpaceOnUse"
       id="clipPath4385"><path
         d="M 0,1205.777 H 2738.234 V 0 H 0 Z"
         transform="translate(-1925.7345,-570.39171)"
         id="path4385" /></clipPath><clipPath
       clipPathUnits="userSpaceOnUse"
       id="clipPath14142"><path
         d="M 0,1205.777 H 2738.234 V 0 H 0 Z"
         transform="translate(-1983.2281,-349.33701)"
         id="path14142" /></clipPath><clipPath
       clipPathUnits="userSpaceOnUse"
       id="clipPath14138"><path
         d="M 0,1205.777 H 2738.234 V 0 H 0 Z"
         transform="translate(-1995.2346,-354.85453)"
         id="path14138" /></clipPath><clipPath
       clipPathUnits="userSpaceOnUse"
       id="clipPath14140"><path
         d="M 0,1205.777 H 2738.234 V 0 H 0 Z"
         transform="translate(-1995.2346,-354.85453)"
         id="path14140" /></clipPath><clipPath
       clipPathUnits="userSpaceOnUse"
       id="clipPath14130"><path
         d="M 0,1205.777 H 2738.234 V 0 H 0 Z"
         transform="translate(0,2.5000001e-5)"
         id="path14130" /></clipPath><clipPath
       clipPathUnits="userSpaceOnUse"
       id="clipPath14132"><path
         d="M 0,1205.777 H 2738.234 V 0 H 0 Z"
         transform="translate(0,2.5000001e-5)"
         id="path14132" /></clipPath><clipPath
       clipPathUnits="userSpaceOnUse"
       id="clipPath14134"><path
         d="M 0,1205.777 H 2738.234 V 0 H 0 Z"
         transform="translate(0,2.5000001e-5)"
         id="path14134" /></clipPath><clipPath
       clipPathUnits="userSpaceOnUse"
       id="clipPath14136"><path
         d="M 0,1205.777 H 2738.234 V 0 H 0 Z"
         transform="translate(0,2.5000001e-5)"
         id="path14136" /></clipPath></defs><g
     id="c"><g
       id="d"><g
         id="g5"
         transform="translate(0.66666706,-4.6666455)"><path
           id="path14129"
           d="m 2008.234,367.354 h -2 v -7 h 2 z"
           style="fill:#000000 icc-color(Display, 0, 0, 0);fill-opacity:1;fill-rule:nonzero;stroke:none"
           transform="matrix(1.3333333,0,0,-1.3333333,-2672.9786,501.8053)"
           clip-path="url(#clipPath14130)" /><path
           id="path14131"
           d="m 2017.234,365.354 h -2 v -5 h 2 z"
           style="fill:#000000 icc-color(Display, 0, 0, 0);fill-opacity:1;fill-rule:nonzero;stroke:none"
           transform="matrix(1.3333333,0,0,-1.3333333,-2672.9786,501.8053)"
           clip-path="url(#clipPath14132)" /><path
           id="path14133"
           d="m 2011.234,370.354 h -2 v -10 h 2 z"
           style="fill:#000000 icc-color(Display, 0, 0, 0);fill-opacity:1;fill-rule:nonzero;stroke:none"
           transform="matrix(1.3333333,0,0,-1.3333333,-2672.9786,501.8053)"
           clip-path="url(#clipPath14134)" /><path
           id="path14135"
           d="m 2014.234,369.354 h -2 v -9 h 2 z"
           style="fill:#000000 icc-color(Display, 0, 0, 0);fill-opacity:1;fill-rule:nonzero;stroke:none"
           transform="matrix(1.3333333,0,0,-1.3333333,-2672.9786,501.8053)"
           clip-path="url(#clipPath14136)" /></g></g></g></svg>
