<?xml version="1.0" encoding="UTF-8" standalone="no"?>
<svg
   id="b"
   width="20"
   height="20"
   viewBox="0 0 20 20"
   version="1.1"
   sodipodi:docname="thickness-smoothing.svg"
   inkscape:version="1.3.1 (91b66b0, 2023-11-16)"
   xml:space="preserve"
   xmlns:inkscape="http://www.inkscape.org/namespaces/inkscape"
   xmlns:sodipodi="http://sodipodi.sourceforge.net/DTD/sodipodi-0.dtd"
   xmlns="http://www.w3.org/2000/svg"
   xmlns:svg="http://www.w3.org/2000/svg"><sodipodi:namedview
     id="namedview3"
     pagecolor="#ffffff"
     bordercolor="#000000"
     borderopacity="0.25"
     inkscape:showpageshadow="2"
     inkscape:pageopacity="0.0"
     inkscape:pagecheckerboard="0"
     inkscape:deskcolor="#d1d1d1"
     inkscape:zoom="14.75"
     inkscape:cx="9.0847458"
     inkscape:cy="10.610169"
     inkscape:window-width="1312"
     inkscape:window-height="576"
     inkscape:window-x="14"
     inkscape:window-y="198"
     inkscape:window-maximized="0"
     inkscape:current-layer="d" /><defs
     id="defs1"><style
       id="style1">.e{stroke:#000;stroke-linecap:round;stroke-linejoin:round;}.e,.f{fill:none;}.f{opacity:.2;stroke-width:0px;}</style><clipPath
       clipPathUnits="userSpaceOnUse"
       id="clipPath13578"><path
         d="M 0,1205.777 H 2738.234 V 0 H 0 Z"
         transform="translate(-1750.1958,-473.16941)"
         id="path13578" /></clipPath><clipPath
       clipPathUnits="userSpaceOnUse"
       id="clipPath13580"><path
         d="M 0,1205.777 H 2738.234 V 0 H 0 Z"
         transform="translate(-1755.2523,-482.35451)"
         id="path13580" /></clipPath><clipPath
       clipPathUnits="userSpaceOnUse"
       id="clipPath13582"><path
         d="M 0,1205.777 H 2738.234 V 0 H 0 Z"
         transform="translate(-1753.044,-479.21061)"
         id="path13582" /></clipPath></defs><g
     id="c"><g
       id="d"><rect
         class="f"
         width="20"
         height="16"
         id="rect3"
         x="0"
         y="0" /><path
         style="color:#000000;fill:#000000 icc-color(Display, 0, 0, 0);stroke-linecap:round;stroke-linejoin:round;stroke-miterlimit:10;-inkscape-stroke:none"
         d="M 3.8203125,-0.5 C 3.064526,-0.46928915 2.6173633,0.09083109 2.2871094,0.47460938 2.1219824,0.66649852 1.9739122,0.83036493 1.8515625,0.92382813 1.7292128,1.0172913 1.6609365,1.041732 1.5585937,1.0371094 1.4139868,1.0306441 1.2289624,0.92881768 1.0214844,0.69335937 0.81400631,0.45790107 0.61183658,0.1153898 0.44921875,-0.21875 A 0.5,0.5 0 0 0 -0.21875,-0.44921875 0.5,0.5 0 0 0 -0.44921875,0.21875 c 0.18438183,0.37885949 0.4146817,0.7894276 0.72070313,1.1367187 C 0.5775058,1.7027599 0.98727945,2.0135747 1.5136719,2.0371094 1.8873287,2.0539867 2.2177407,1.9030365 2.4589844,1.71875 2.700228,1.5344635 2.8791742,1.3195636 3.0449219,1.1269531 3.3764173,0.74173218 3.6061625,0.51028911 3.859375,0.5 c 0.1611232,-0.006535 0.3010933,0.0534425 0.4960937,0.22460937 0.1950005,0.17116684 0.40917,0.44412443 0.6347657,0.74023433 0.2255957,0.29611 0.4629296,0.6149934 0.765625,0.8808594 0.3026954,0.2658661 0.711307,0.4890798 1.1875,0.4589844 C 7.6602695,2.7597378 8.0683666,2.2268226 8.3828125,1.8652344 8.6972584,1.5036461 8.9061126,1.2866479 9.2441406,1.2675781 9.6320228,1.2459949 10.066673,1.5490656 10.392578,1.8847656 a 0.5,0.5 0 0 0 0.707031,0.011719 0.5,0.5 0 0 0 0.01172,-0.7070313 C 10.705234,0.77115387 10.057617,0.22111459 9.1875,0.26953125 8.4265291,0.31246136 7.9545066,0.83232336 7.6269531,1.2089844 7.2993996,1.5856454 7.1049483,1.7925904 6.8808594,1.8066406 6.732053,1.8160452 6.6042416,1.7627429 6.4140625,1.5957031 6.2238834,1.4286633 6.0110601,1.1558894 5.7851562,0.859375 5.5592524,0.56286057 5.321499,0.24114523 5.015625,-0.02734375 4.709751,-0.29583273 4.3001886,-0.51946455 3.8203125,-0.5 Z"
         id="path13577"
         transform="matrix(1.3333333,0,0,-1.3333333,2.7514458,16.033241)" /><path
         style="color:#000000;fill:#000000 icc-color(Display, 0, 0, 0);stroke-linecap:round;stroke-linejoin:round;stroke-miterlimit:10;-inkscape-stroke:none"
         d="m 0,-5.5976562 a 0.44999999,0.44999999 0 0 0 -0.44921875,0.4511718 V 0 A 0.44999999,0.44999999 0 0 0 0,0.44921875 0.44999999,0.44999999 0 0 0 0.44921875,0 V -5.1464844 A 0.44999999,0.44999999 0 0 0 0,-5.5976562 Z"
         id="path13579"
         transform="matrix(1.3333333,0,0,-1.3333333,9.4934458,3.7864407)" /><path
         style="color:#000000;fill:#000000 icc-color(Display, 0, 0, 0);stroke-linecap:round;stroke-linejoin:round;stroke-miterlimit:10;-inkscape-stroke:none"
         d="m 2.2089844,-2.8066406 a 0.45004499,0.45004499 0 0 0 -0.328125,0.1425781 L -0.328125,-0.30859375 A 0.44999999,0.44999999 0 0 0 -0.30859375,0.328125 0.44999999,0.44999999 0 0 0 0.328125,0.30859375 L 2.2089844,-1.6992187 4.0878906,0.31054688 a 0.44999999,0.44999999 0 0 0 0.6367188,0.0214844 0.44999999,0.44999999 0 0 0 0.021484,-0.63671875 l -2.2089843,-2.359375 a 0.45004499,0.45004499 0 0 0 -0.328125,-0.1425781 z"
         id="path13581"
         transform="matrix(1.3333333,0,0,-1.3333333,6.5490458,7.9783107)" /></g></g></svg>
