<?xml version="1.0" encoding="UTF-8" standalone="no"?>
<svg
   id="b"
   width="20"
   height="20"
   viewBox="0 0 20 20"
   version="1.1"
   sodipodi:docname="view-bounds.svg"
   inkscape:version="1.3.1 (91b66b0, 2023-11-16)"
   xml:space="preserve"
   xmlns:inkscape="http://www.inkscape.org/namespaces/inkscape"
   xmlns:sodipodi="http://sodipodi.sourceforge.net/DTD/sodipodi-0.dtd"
   xmlns="http://www.w3.org/2000/svg"
   xmlns:svg="http://www.w3.org/2000/svg"><sodipodi:namedview
     id="namedview3"
     pagecolor="#ffffff"
     bordercolor="#000000"
     borderopacity="0.25"
     inkscape:showpageshadow="2"
     inkscape:pageopacity="0.0"
     inkscape:pagecheckerboard="0"
     inkscape:deskcolor="#d1d1d1"
     inkscape:zoom="9.508131"
     inkscape:cx="1.2094911"
     inkscape:cy="4.7327913"
     inkscape:window-width="1328"
     inkscape:window-height="605"
     inkscape:window-x="68"
     inkscape:window-y="267"
     inkscape:window-maximized="0"
     inkscape:current-layer="g11" /><defs
     id="defs1"><style
       id="style1">.e{stroke:#000;stroke-linecap:round;stroke-linejoin:round;}.e,.f{fill:none;}.f{opacity:.2;stroke-width:0px;}</style><clipPath
       clipPathUnits="userSpaceOnUse"
       id="clipPath13578"><path
         d="M 0,1205.777 H 2738.234 V 0 H 0 Z"
         transform="translate(-1750.1958,-473.16941)"
         id="path13578" /></clipPath><clipPath
       clipPathUnits="userSpaceOnUse"
       id="clipPath13580"><path
         d="M 0,1205.777 H 2738.234 V 0 H 0 Z"
         transform="translate(-1755.2523,-482.35451)"
         id="path13580" /></clipPath><clipPath
       clipPathUnits="userSpaceOnUse"
       id="clipPath13582"><path
         d="M 0,1205.777 H 2738.234 V 0 H 0 Z"
         transform="translate(-1753.044,-479.21061)"
         id="path13582" /></clipPath><clipPath
       clipPathUnits="userSpaceOnUse"
       id="clipPath13694"><path
         d="M 0,1205.777 H 2738.234 V 0 H 0 Z"
         transform="translate(-1694.7306,-422.60451)"
         id="path13694" /></clipPath><clipPath
       clipPathUnits="userSpaceOnUse"
       id="clipPath13696"><path
         d="M 0,1205.777 H 2738.234 V 0 H 0 Z"
         transform="translate(-1692.729,-424.80839)"
         id="path13696" /></clipPath><clipPath
       clipPathUnits="userSpaceOnUse"
       id="clipPath13698"><path
         d="M 0,1205.777 H 2738.234 V 0 H 0 Z"
         transform="translate(-1694.7306,-436.10451)"
         id="path13698" /></clipPath><clipPath
       clipPathUnits="userSpaceOnUse"
       id="clipPath13700"><path
         d="M 0,1205.777 H 2738.234 V 0 H 0 Z"
         transform="translate(-1692.729,-433.90049)"
         id="path13700" /></clipPath><clipPath
       clipPathUnits="userSpaceOnUse"
       id="clipPath13702"><path
         d="M 0,1205.777 H 2738.234 V 0 H 0 Z"
         transform="translate(-1695.2346,-430.59944)"
         id="path13702" /></clipPath><clipPath
       clipPathUnits="userSpaceOnUse"
       id="clipPath13704"><path
         d="M 0,1205.777 H 2738.234 V 0 H 0 Z"
         transform="translate(-1686.2346,-427.04999)"
         id="path13704" /></clipPath><clipPath
       clipPathUnits="userSpaceOnUse"
       id="clipPath13706"><path
         d="M 0,1205.777 H 2738.234 V 0 H 0 Z"
         transform="translate(-1686.2346,-428.59529)"
         id="path13706" /></clipPath><clipPath
       clipPathUnits="userSpaceOnUse"
       id="clipPath13714"><path
         d="M 0,1205.777 H 2738.234 V 0 H 0 Z"
         transform="translate(-1641.2346,-434.35454)"
         id="path13714" /></clipPath><clipPath
       clipPathUnits="userSpaceOnUse"
       id="clipPath13710"><path
         d="M 0,1205.777 H 2738.234 V 0 H 0 Z"
         transform="translate(-1661.3688,-434.35454)"
         id="path13710" /></clipPath><clipPath
       clipPathUnits="userSpaceOnUse"
       id="clipPath1370"><path
         d="M 0,1205.777 H 2738.234 V 0 H 0 Z"
         transform="translate(-2652.6085,-953.81653)"
         id="path1370" /></clipPath><clipPath
       clipPathUnits="userSpaceOnUse"
       id="clipPath1372"><path
         d="M 0,1205.777 H 2738.234 V 0 H 0 Z"
         transform="translate(-2643.2344,-953.60452)"
         id="path1372" /></clipPath><clipPath
       clipPathUnits="userSpaceOnUse"
       id="clipPath4379"><path
         d="M 0,1205.777 H 2738.234 V 0 H 0 Z"
         transform="translate(-1926.0876,-576.35451)"
         id="path4379" /></clipPath><clipPath
       clipPathUnits="userSpaceOnUse"
       id="clipPath4383"><path
         d="M 0,1205.777 H 2738.234 V 0 H 0 Z"
         transform="translate(-1928.0082,-573.77712)"
         id="path4383" /></clipPath><clipPath
       clipPathUnits="userSpaceOnUse"
       id="clipPath4385"><path
         d="M 0,1205.777 H 2738.234 V 0 H 0 Z"
         transform="translate(-1925.7345,-570.39171)"
         id="path4385" /></clipPath><clipPath
       clipPathUnits="userSpaceOnUse"
       id="clipPath14142"><path
         d="M 0,1205.777 H 2738.234 V 0 H 0 Z"
         transform="translate(-1983.2281,-349.33701)"
         id="path14142" /></clipPath><clipPath
       clipPathUnits="userSpaceOnUse"
       id="clipPath14138"><path
         d="M 0,1205.777 H 2738.234 V 0 H 0 Z"
         transform="translate(-1995.2346,-354.85453)"
         id="path14138" /></clipPath><clipPath
       clipPathUnits="userSpaceOnUse"
       id="clipPath14140"><path
         d="M 0,1205.777 H 2738.234 V 0 H 0 Z"
         transform="translate(-1995.2346,-354.85453)"
         id="path14140" /></clipPath><clipPath
       clipPathUnits="userSpaceOnUse"
       id="clipPath14130"><path
         d="M 0,1205.777 H 2738.234 V 0 H 0 Z"
         transform="translate(0,2.5000001e-5)"
         id="path14130" /></clipPath><clipPath
       clipPathUnits="userSpaceOnUse"
       id="clipPath14132"><path
         d="M 0,1205.777 H 2738.234 V 0 H 0 Z"
         transform="translate(0,2.5000001e-5)"
         id="path14132" /></clipPath><clipPath
       clipPathUnits="userSpaceOnUse"
       id="clipPath14134"><path
         d="M 0,1205.777 H 2738.234 V 0 H 0 Z"
         transform="translate(0,2.5000001e-5)"
         id="path14134" /></clipPath><clipPath
       clipPathUnits="userSpaceOnUse"
       id="clipPath14136"><path
         d="M 0,1205.777 H 2738.234 V 0 H 0 Z"
         transform="translate(0,2.5000001e-5)"
         id="path14136" /></clipPath><clipPath
       clipPathUnits="userSpaceOnUse"
       id="clipPath14080"><path
         d="M 0,1205.777 H 2738.234 V 0 H 0 Z"
         transform="translate(-2065.1529,-382.48348)"
         id="path14080" /></clipPath><clipPath
       clipPathUnits="userSpaceOnUse"
       id="clipPath13542"><path
         d="M 0,1205.777 H 2738.234 V 0 H 0 Z"
         transform="translate(-1664.7345,-477.35451)"
         id="path13542" /></clipPath><clipPath
       clipPathUnits="userSpaceOnUse"
       id="clipPath13544"><path
         d="M 0,1205.777 H 2738.234 V 0 H 0 Z"
         transform="translate(-1658.787,-476.35451)"
         id="path13544" /></clipPath><clipPath
       clipPathUnits="userSpaceOnUse"
       id="clipPath13546"><path
         d="M 0,1205.777 H 2738.234 V 0 H 0 Z"
         transform="translate(-1659.8134,-479.72321)"
         id="path13546" /></clipPath><clipPath
       clipPathUnits="userSpaceOnUse"
       id="clipPath14012"><path
         d="M 0,1205.777 H 2738.234 V 0 H 0 Z"
         transform="translate(-2047.2336,-371.35453)"
         id="path14012" /></clipPath><clipPath
       clipPathUnits="userSpaceOnUse"
       id="clipPath14014"><path
         d="M 0,1205.777 H 2738.234 V 0 H 0 Z"
         transform="translate(-2043.2346,-367.60453)"
         id="path14014" /></clipPath><clipPath
       clipPathUnits="userSpaceOnUse"
       id="clipPath14016"><path
         d="M 0,1205.777 H 2738.234 V 0 H 0 Z"
         transform="translate(-2043.2346,-369.60448)"
         id="path14016" /></clipPath><clipPath
       clipPathUnits="userSpaceOnUse"
       id="clipPath14018"><path
         d="M 0,1205.777 H 2738.234 V 0 H 0 Z"
         transform="translate(-2043.2346,-365.60451)"
         id="path14018" /></clipPath><clipPath
       clipPathUnits="userSpaceOnUse"
       id="clipPath14020"><path
         d="M 0,1205.777 H 2738.234 V 0 H 0 Z"
         transform="translate(-2043.2346,-366.60448)"
         id="path14020" /></clipPath><clipPath
       clipPathUnits="userSpaceOnUse"
       id="clipPath14022"><path
         d="M 0,1205.777 H 2738.234 V 0 H 0 Z"
         transform="translate(-2043.2346,-368.60451)"
         id="path14022" /></clipPath><clipPath
       clipPathUnits="userSpaceOnUse"
       id="clipPath14024"><path
         d="M 0,1205.777 H 2738.234 V 0 H 0 Z"
         transform="translate(-2043.2346,-364.60453)"
         id="path14024" /></clipPath><clipPath
       clipPathUnits="userSpaceOnUse"
       id="clipPath14026"><path
         d="M 0,1205.777 H 2738.234 V 0 H 0 Z"
         transform="translate(-2043.2346,-362.60451)"
         id="path14026" /></clipPath><clipPath
       clipPathUnits="userSpaceOnUse"
       id="clipPath14028"><path
         d="M 0,1205.777 H 2738.234 V 0 H 0 Z"
         transform="translate(-2043.2346,-363.60448)"
         id="path14028" /></clipPath><clipPath
       clipPathUnits="userSpaceOnUse"
       id="clipPath14030"><path
         d="M 0,1205.777 H 2738.234 V 0 H 0 Z"
         transform="translate(-2043.2346,-361.60453)"
         id="path14030" /></clipPath><clipPath
       clipPathUnits="userSpaceOnUse"
       id="clipPath14032"><path
         d="M 0,1205.777 H 2738.234 V 0 H 0 Z"
         transform="translate(0,2.5000001e-5)"
         id="path14032" /></clipPath><clipPath
       clipPathUnits="userSpaceOnUse"
       id="clipPath13990"><path
         d="M 0,1205.777 H 2738.234 V 0 H 0 Z"
         transform="translate(0,2.5000001e-5)"
         id="path13990" /></clipPath><clipPath
       clipPathUnits="userSpaceOnUse"
       id="clipPath13992"><path
         d="M 0,1205.777 H 2738.234 V 0 H 0 Z"
         transform="translate(-2031.2335,-371.35453)"
         id="path13992" /></clipPath><clipPath
       clipPathUnits="userSpaceOnUse"
       id="clipPath13994"><path
         d="M 0,1205.777 H 2738.234 V 0 H 0 Z"
         transform="translate(-2027.2345,-367.60453)"
         id="path13994" /></clipPath><clipPath
       clipPathUnits="userSpaceOnUse"
       id="clipPath13996"><path
         d="M 0,1205.777 H 2738.234 V 0 H 0 Z"
         transform="translate(-2027.2345,-369.60448)"
         id="path13996" /></clipPath><clipPath
       clipPathUnits="userSpaceOnUse"
       id="clipPath13998"><path
         d="M 0,1205.777 H 2738.234 V 0 H 0 Z"
         transform="translate(-2027.2345,-365.60451)"
         id="path13998" /></clipPath><clipPath
       clipPathUnits="userSpaceOnUse"
       id="clipPath14000"><path
         d="M 0,1205.777 H 2738.234 V 0 H 0 Z"
         transform="translate(-2027.2345,-366.60448)"
         id="path14000" /></clipPath><clipPath
       clipPathUnits="userSpaceOnUse"
       id="clipPath14002"><path
         d="M 0,1205.777 H 2738.234 V 0 H 0 Z"
         transform="translate(-2027.2345,-368.60451)"
         id="path14002" /></clipPath><clipPath
       clipPathUnits="userSpaceOnUse"
       id="clipPath14004"><path
         d="M 0,1205.777 H 2738.234 V 0 H 0 Z"
         transform="translate(-2027.2345,-364.60453)"
         id="path14004" /></clipPath><clipPath
       clipPathUnits="userSpaceOnUse"
       id="clipPath14006"><path
         d="M 0,1205.777 H 2738.234 V 0 H 0 Z"
         transform="translate(-2027.2345,-362.60451)"
         id="path14006" /></clipPath><clipPath
       clipPathUnits="userSpaceOnUse"
       id="clipPath14008"><path
         d="M 0,1205.777 H 2738.234 V 0 H 0 Z"
         transform="translate(-2027.2345,-363.60448)"
         id="path14008" /></clipPath><clipPath
       clipPathUnits="userSpaceOnUse"
       id="clipPath14010"><path
         d="M 0,1205.777 H 2738.234 V 0 H 0 Z"
         transform="translate(-2027.2345,-361.60453)"
         id="path14010" /></clipPath><clipPath
       clipPathUnits="userSpaceOnUse"
       id="clipPath14231"><path
         d="M 0,1205.777 H 2738.234 V 0 H 0 Z"
         transform="translate(-1915.4811,-288.42771)"
         id="path14231" /></clipPath><clipPath
       clipPathUnits="userSpaceOnUse"
       id="clipPath14233"><path
         d="M 0,1205.777 H 2738.234 V 0 H 0 Z"
         transform="translate(-1911.0541,-279.76431)"
         id="path14233" /></clipPath><clipPath
       clipPathUnits="userSpaceOnUse"
       id="clipPath14235"><path
         d="M 0,1205.777 H 2738.234 V 0 H 0 Z"
         transform="translate(-1920.9634,-285.42478)"
         id="path14235" /></clipPath><clipPath
       clipPathUnits="userSpaceOnUse"
       id="clipPath14237"><path
         d="M 0,1205.777 H 2738.234 V 0 H 0 Z"
         transform="translate(-1921.6683,-288.95803)"
         id="path14237" /></clipPath><clipPath
       clipPathUnits="userSpaceOnUse"
       id="clipPath13760"><path
         d="M 0,1205.777 H 2738.234 V 0 H 0 Z"
         transform="translate(-1735.9899,-366.79941)"
         id="path13760" /></clipPath><clipPath
       clipPathUnits="userSpaceOnUse"
       id="clipPath13762"><path
         d="M 0,1205.777 H 2738.234 V 0 H 0 Z"
         transform="translate(-1744.467,-367.82773)"
         id="path13762" /></clipPath><clipPath
       clipPathUnits="userSpaceOnUse"
       id="clipPath13790"><path
         d="M 0,1205.777 H 2738.234 V 0 H 0 Z"
         transform="translate(-1773.2346,-407.35454)"
         id="path13790" /></clipPath><clipPath
       clipPathUnits="userSpaceOnUse"
       id="clipPath13788"><path
         d="M 0,1205.777 H 2738.234 V 0 H 0 Z"
         transform="translate(-1775.2345,-414.35451)"
         id="path13788" /></clipPath><clipPath
       clipPathUnits="userSpaceOnUse"
       id="clipPath13794"><path
         d="M 0,1205.777 H 2738.234 V 0 H 0 Z"
         transform="translate(-1794.2346,-419.35454)"
         id="path13794" /></clipPath><clipPath
       clipPathUnits="userSpaceOnUse"
       id="clipPath13792"><path
         d="M 0,1205.777 H 2738.234 V 0 H 0 Z"
         transform="translate(-1791.3366,-412.35449)"
         id="path13792" /></clipPath><linearGradient
       x1="0"
       y1="0"
       x2="1"
       y2="0"
       gradientUnits="userSpaceOnUse"
       gradientTransform="matrix(-8.2937845,0,0,-6.5310727,19.717779,5.2827024)"
       spreadMethod="pad"
       id="linearGradient14225"><stop
         style="stop-opacity:1;stop-color:#ffffff icc-color(Display, 1, 1, 1);"
         offset="0"
         id="stop14223" /><stop
         style="stop-opacity:1;stop-color:#ffffff icc-color(Display, 1, 1, 1);"
         offset="0.22026074"
         id="stop14224" /><stop
         style="stop-opacity:1;stop-color:#000000 icc-color(Display, 0, 0, 0);"
         offset="1"
         id="stop14225" /></linearGradient><clipPath
       clipPathUnits="userSpaceOnUse"
       id="clipPath13909"><path
         d="M 0,1205.777 H 2738.234 V 0 H 0 Z"
         transform="translate(0,2.5000001e-5)"
         id="path13909" /></clipPath><clipPath
       clipPathUnits="userSpaceOnUse"
       id="clipPath13911"><path
         d="M 0,1205.777 H 2738.234 V 0 H 0 Z"
         transform="translate(-1867.6425,-434.32371)"
         id="path13911" /></clipPath><clipPath
       clipPathUnits="userSpaceOnUse"
       id="clipPath13972"><path
         d="M 0,1205.777 H 2738.234 V 0 H 0 Z"
         transform="translate(-1953.4158,-416.41049)"
         id="path13972" /></clipPath><clipPath
       clipPathUnits="userSpaceOnUse"
       id="clipPath13974"><path
         d="M 0,1205.777 H 2738.234 V 0 H 0 Z"
         transform="translate(-1941.8937,-409.69784)"
         id="path13974" /></clipPath><clipPath
       clipPathUnits="userSpaceOnUse"
       id="clipPath13889"><path
         d="M 0,1205.777 H 2738.234 V 0 H 0 Z"
         transform="translate(-1878.5985,-429.23504)"
         id="path13889" /></clipPath><clipPath
       clipPathUnits="userSpaceOnUse"
       id="clipPath13891"><path
         d="M 0,1205.777 H 2738.234 V 0 H 0 Z"
         transform="translate(-1880.8119,-426.10131)"
         id="path13891" /></clipPath><clipPath
       clipPathUnits="userSpaceOnUse"
       id="clipPath13893"><path
         d="M 0,1205.777 H 2738.234 V 0 H 0 Z"
         transform="translate(-1884.2376,-424.15994)"
         id="path13893" /></clipPath><clipPath
       clipPathUnits="userSpaceOnUse"
       id="clipPath13897"><path
         d="M 0,1205.777 H 2738.234 V 0 H 0 Z"
         transform="translate(-1879.6471,-416.77514)"
         id="path13897" /></clipPath><clipPath
       clipPathUnits="userSpaceOnUse"
       id="clipPath13899"><path
         d="M 0,1205.777 H 2738.234 V 0 H 0 Z"
         transform="translate(-1879.6464,-414.55829)"
         id="path13899" /></clipPath><clipPath
       clipPathUnits="userSpaceOnUse"
       id="clipPath13901"><path
         d="M 0,1205.777 H 2738.234 V 0 H 0 Z"
         transform="translate(-1879.8741,-412.57199)"
         id="path13901" /></clipPath><clipPath
       clipPathUnits="userSpaceOnUse"
       id="clipPath13903"><path
         d="M 0,1205.777 H 2738.234 V 0 H 0 Z"
         transform="translate(-1880.7202,-411.20639)"
         id="path13903" /></clipPath><clipPath
       clipPathUnits="userSpaceOnUse"
       id="clipPath13905"><path
         d="M 0,1205.777 H 2738.234 V 0 H 0 Z"
         transform="translate(-1881.9933,-410.26964)"
         id="path13905" /></clipPath><clipPath
       clipPathUnits="userSpaceOnUse"
       id="clipPath13907"><path
         d="M 0,1205.777 H 2738.234 V 0 H 0 Z"
         transform="translate(-1884.0034,-410.07291)"
         id="path13907" /></clipPath><clipPath
       clipPathUnits="userSpaceOnUse"
       id="clipPath13895"><path
         d="M 0,1205.777 H 2738.234 V 0 H 0 Z"
         transform="translate(-1879.485,-418.44831)"
         id="path13895" /></clipPath><clipPath
       clipPathUnits="userSpaceOnUse"
       id="clipPath13897-3"><path
         d="M 0,1205.777 H 2738.234 V 0 H 0 Z"
         transform="translate(-1879.6471,-416.77514)"
         id="path13897-9" /></clipPath><clipPath
       clipPathUnits="userSpaceOnUse"
       id="clipPath13899-0"><path
         d="M 0,1205.777 H 2738.234 V 0 H 0 Z"
         transform="translate(-1879.6464,-414.55829)"
         id="path13899-5" /></clipPath><clipPath
       clipPathUnits="userSpaceOnUse"
       id="clipPath13901-5"><path
         d="M 0,1205.777 H 2738.234 V 0 H 0 Z"
         transform="translate(-1879.8741,-412.57199)"
         id="path13901-6" /></clipPath><clipPath
       clipPathUnits="userSpaceOnUse"
       id="clipPath13903-3"><path
         d="M 0,1205.777 H 2738.234 V 0 H 0 Z"
         transform="translate(-1880.7202,-411.20639)"
         id="path13903-2" /></clipPath><clipPath
       clipPathUnits="userSpaceOnUse"
       id="clipPath13905-6"><path
         d="M 0,1205.777 H 2738.234 V 0 H 0 Z"
         transform="translate(-1881.9933,-410.26964)"
         id="path13905-8" /></clipPath><clipPath
       clipPathUnits="userSpaceOnUse"
       id="clipPath13907-9"><path
         d="M 0,1205.777 H 2738.234 V 0 H 0 Z"
         transform="translate(-1884.0034,-410.07291)"
         id="path13907-1" /></clipPath></defs><g
     id="c"><g
       id="d"><g
         id="g11"
         transform="translate(-13.3333,-5.2206998)"><path
           style="color:#000000;fill:#000000 icc-color(Display, 0, 0, 0);stroke-linecap:round;stroke-linejoin:round;stroke-miterlimit:10;-inkscape-stroke:none"
           d="m 3.75,-10.330078 c -3.0436769,0 -5.5,2.5749089 -5.5,5.7148436 v 3.3066407 C -1.75,-0.32851532 -0.97368113,0.5 0,0.5 H 7.4980469 C 8.471728,0.5 9.25,-0.32805364 9.25,-1.3085937 v -3.3066407 c 0,-3.1400504 -2.4572211,-5.7148436 -5.5,-5.7148436 z m 0,0.9999999 c 2.4792156,0 4.5,2.0928999 4.5,4.7148437 v 3.3066407 C 8.25,-0.8451353 7.9063644,-0.5 7.4980469,-0.5 H 0 c -0.40831749,0 -0.75,-0.34467362 -0.75,-0.8085937 v -3.3066407 c 0,-2.6220595 2.0196824,-4.7148437 4.5,-4.7148437 z"
           id="path13894"
           transform="matrix(1.3333333,0,0,-1.3333333,18.3333,8.6667)" /><path
           style="color:#000000;fill:#000000 icc-color(Display, 0, 0, 0);stroke-linecap:round;stroke-miterlimit:10;-inkscape-stroke:none"
           d="M -0.24804688,-0.28125 A 0.375,0.375 0 0 0 -0.28125,0.24804688 L -0.125,0.42578125 A 0.375,0.375 0 0 0 0.40429688,0.45898438 0.375,0.375 0 0 0 0.4375,-0.0703125 L 0.28125,-0.24804688 A 0.375,0.375 0 0 0 -0.24804688,-0.28125 Z"
           id="path13896"
           transform="matrix(1.3333333,0,0,-1.3333333,18.5495,10.8976)" /><path
           style="color:#000000;fill:#000000 icc-color(Display, 0, 0, 0);stroke-linecap:round;stroke-miterlimit:10;-inkscape-stroke:none"
           d="m 0.00195313,-0.375 a 0.375,0.375 0 0 0 -0.26562501,0.10742187 0.375,0.375 0 0 0 -0.003906,0.53125001 L 2.09375,2.6582031 a 0.375,0.375 0 0 0 0.53125,0.00195 0.375,0.375 0 0 0 0.00391,-0.5292969 L 0.26757813,-0.26367188 A 0.375,0.375 0 0 0 0.00195313,-0.375 Z"
           id="path13898"
           transform="matrix(1.3333333,0,0,-1.3333333,18.5486,13.8534)" /><path
           style="color:#000000;fill:#000000 icc-color(Display, 0, 0, 0);stroke-linecap:round;stroke-miterlimit:10;-inkscape-stroke:none"
           d="m 0.00195313,-0.375 a 0.375,0.375 0 0 0 -0.26562501,0.109375 0.375,0.375 0 0 0 -0.001953,0.52929688 L 4.0507812,4.625 a 0.375,0.375 0 0 0 0.53125,0.00391 0.375,0.375 0 0 0 0.00195,-0.53125 L 0.265625,-0.26367188 A 0.375,0.375 0 0 0 0.00195313,-0.375 Z"
           id="path13900"
           transform="matrix(1.3333333,0,0,-1.3333333,18.8522,16.5018)" /><path
           style="color:#000000;fill:#000000 icc-color(Display, 0, 0, 0);stroke-linecap:round;stroke-miterlimit:10;-inkscape-stroke:none"
           d="m 0.00195313,-0.375 a 0.375,0.375 0 0 0 -0.26562501,0.109375 0.375,0.375 0 0 0 -0.001953,0.52929688 L 5.4082031,5.9902344 a 0.375,0.375 0 0 0 0.53125,0.00195 0.375,0.375 0 0 0 0.00195,-0.5292969 L 0.265625,-0.26367188 A 0.375,0.375 0 0 0 0.00195313,-0.375 Z"
           id="path13902"
           transform="matrix(1.3333333,0,0,-1.3333333,19.9803,18.3226)" /><path
           style="color:#000000;fill:#000000 icc-color(Display, 0, 0, 0);stroke-linecap:round;stroke-miterlimit:10;-inkscape-stroke:none"
           d="m 0.00195313,-0.375 a 0.375,0.375 0 0 0 -0.26562501,0.109375 0.375,0.375 0 0 0 -0.001953,0.52929688 L 4.5429687,5.1191406 a 0.375,0.375 0 0 0 0.53125,0.00391 0.375,0.375 0 0 0 0.00195,-0.53125 L 0.265625,-0.26367188 A 0.375,0.375 0 0 0 0.00195313,-0.375 Z"
           id="path13904"
           transform="matrix(1.3333333,0,0,-1.3333333,21.6778,19.5716)" /><path
           style="color:#000000;fill:#000000 icc-color(Display, 0, 0, 0);stroke-linecap:round;stroke-miterlimit:10;-inkscape-stroke:none"
           d="m 0.00195313,-0.375 a 0.375,0.375 0 0 0 -0.26562501,0.10742187 0.375,0.375 0 0 0 -0.003906,0.53125001 L 2.5292969,3.0957031 a 0.375,0.375 0 0 0 0.53125,0.00391 0.375,0.375 0 0 0 0.00391,-0.53125 L 0.26757813,-0.26367188 A 0.375,0.375 0 0 0 0.00195313,-0.375 Z"
           id="path13906"
           transform="matrix(1.3333333,0,0,-1.3333333,24.3579,19.8339)" /></g></g></g></svg>
