<?xml version="1.0" encoding="UTF-8" standalone="no"?>
<svg
   id="b"
   width="20"
   height="20"
   viewBox="0 0 20 20"
   version="1.1"
   sodipodi:docname="view-min-intv.svg"
   inkscape:version="1.3.1 (91b66b0, 2023-11-16)"
   xml:space="preserve"
   xmlns:inkscape="http://www.inkscape.org/namespaces/inkscape"
   xmlns:sodipodi="http://sodipodi.sourceforge.net/DTD/sodipodi-0.dtd"
   xmlns="http://www.w3.org/2000/svg"
   xmlns:svg="http://www.w3.org/2000/svg"><sodipodi:namedview
     id="namedview3"
     pagecolor="#ffffff"
     bordercolor="#000000"
     borderopacity="0.25"
     inkscape:showpageshadow="2"
     inkscape:pageopacity="0.0"
     inkscape:pagecheckerboard="0"
     inkscape:deskcolor="#d1d1d1"
     inkscape:zoom="14.75"
     inkscape:cx="7.7627119"
     inkscape:cy="11.525424"
     inkscape:window-width="1328"
     inkscape:window-height="605"
     inkscape:window-x="69"
     inkscape:window-y="239"
     inkscape:window-maximized="0"
     inkscape:current-layer="g1" /><defs
     id="defs1"><style
       id="style1">.e{stroke:#000;stroke-linecap:round;stroke-linejoin:round;}.e,.f{fill:none;}.f{opacity:.2;stroke-width:0px;}</style><clipPath
       clipPathUnits="userSpaceOnUse"
       id="clipPath13578"><path
         d="M 0,1205.777 H 2738.234 V 0 H 0 Z"
         transform="translate(-1750.1958,-473.16941)"
         id="path13578" /></clipPath><clipPath
       clipPathUnits="userSpaceOnUse"
       id="clipPath13580"><path
         d="M 0,1205.777 H 2738.234 V 0 H 0 Z"
         transform="translate(-1755.2523,-482.35451)"
         id="path13580" /></clipPath><clipPath
       clipPathUnits="userSpaceOnUse"
       id="clipPath13582"><path
         d="M 0,1205.777 H 2738.234 V 0 H 0 Z"
         transform="translate(-1753.044,-479.21061)"
         id="path13582" /></clipPath><clipPath
       clipPathUnits="userSpaceOnUse"
       id="clipPath13694"><path
         d="M 0,1205.777 H 2738.234 V 0 H 0 Z"
         transform="translate(-1694.7306,-422.60451)"
         id="path13694" /></clipPath><clipPath
       clipPathUnits="userSpaceOnUse"
       id="clipPath13696"><path
         d="M 0,1205.777 H 2738.234 V 0 H 0 Z"
         transform="translate(-1692.729,-424.80839)"
         id="path13696" /></clipPath><clipPath
       clipPathUnits="userSpaceOnUse"
       id="clipPath13698"><path
         d="M 0,1205.777 H 2738.234 V 0 H 0 Z"
         transform="translate(-1694.7306,-436.10451)"
         id="path13698" /></clipPath><clipPath
       clipPathUnits="userSpaceOnUse"
       id="clipPath13700"><path
         d="M 0,1205.777 H 2738.234 V 0 H 0 Z"
         transform="translate(-1692.729,-433.90049)"
         id="path13700" /></clipPath><clipPath
       clipPathUnits="userSpaceOnUse"
       id="clipPath13702"><path
         d="M 0,1205.777 H 2738.234 V 0 H 0 Z"
         transform="translate(-1695.2346,-430.59944)"
         id="path13702" /></clipPath><clipPath
       clipPathUnits="userSpaceOnUse"
       id="clipPath13704"><path
         d="M 0,1205.777 H 2738.234 V 0 H 0 Z"
         transform="translate(-1686.2346,-427.04999)"
         id="path13704" /></clipPath><clipPath
       clipPathUnits="userSpaceOnUse"
       id="clipPath13706"><path
         d="M 0,1205.777 H 2738.234 V 0 H 0 Z"
         transform="translate(-1686.2346,-428.59529)"
         id="path13706" /></clipPath><clipPath
       clipPathUnits="userSpaceOnUse"
       id="clipPath13714"><path
         d="M 0,1205.777 H 2738.234 V 0 H 0 Z"
         transform="translate(-1641.2346,-434.35454)"
         id="path13714" /></clipPath><clipPath
       clipPathUnits="userSpaceOnUse"
       id="clipPath13710"><path
         d="M 0,1205.777 H 2738.234 V 0 H 0 Z"
         transform="translate(-1661.3688,-434.35454)"
         id="path13710" /></clipPath><clipPath
       clipPathUnits="userSpaceOnUse"
       id="clipPath1370"><path
         d="M 0,1205.777 H 2738.234 V 0 H 0 Z"
         transform="translate(-2652.6085,-953.81653)"
         id="path1370" /></clipPath><clipPath
       clipPathUnits="userSpaceOnUse"
       id="clipPath1372"><path
         d="M 0,1205.777 H 2738.234 V 0 H 0 Z"
         transform="translate(-2643.2344,-953.60452)"
         id="path1372" /></clipPath><clipPath
       clipPathUnits="userSpaceOnUse"
       id="clipPath4379"><path
         d="M 0,1205.777 H 2738.234 V 0 H 0 Z"
         transform="translate(-1926.0876,-576.35451)"
         id="path4379" /></clipPath><clipPath
       clipPathUnits="userSpaceOnUse"
       id="clipPath4383"><path
         d="M 0,1205.777 H 2738.234 V 0 H 0 Z"
         transform="translate(-1928.0082,-573.77712)"
         id="path4383" /></clipPath><clipPath
       clipPathUnits="userSpaceOnUse"
       id="clipPath4385"><path
         d="M 0,1205.777 H 2738.234 V 0 H 0 Z"
         transform="translate(-1925.7345,-570.39171)"
         id="path4385" /></clipPath><clipPath
       clipPathUnits="userSpaceOnUse"
       id="clipPath14142"><path
         d="M 0,1205.777 H 2738.234 V 0 H 0 Z"
         transform="translate(-1983.2281,-349.33701)"
         id="path14142" /></clipPath><clipPath
       clipPathUnits="userSpaceOnUse"
       id="clipPath14138"><path
         d="M 0,1205.777 H 2738.234 V 0 H 0 Z"
         transform="translate(-1995.2346,-354.85453)"
         id="path14138" /></clipPath><clipPath
       clipPathUnits="userSpaceOnUse"
       id="clipPath14140"><path
         d="M 0,1205.777 H 2738.234 V 0 H 0 Z"
         transform="translate(-1995.2346,-354.85453)"
         id="path14140" /></clipPath><clipPath
       clipPathUnits="userSpaceOnUse"
       id="clipPath14130"><path
         d="M 0,1205.777 H 2738.234 V 0 H 0 Z"
         transform="translate(0,2.5000001e-5)"
         id="path14130" /></clipPath><clipPath
       clipPathUnits="userSpaceOnUse"
       id="clipPath14132"><path
         d="M 0,1205.777 H 2738.234 V 0 H 0 Z"
         transform="translate(0,2.5000001e-5)"
         id="path14132" /></clipPath><clipPath
       clipPathUnits="userSpaceOnUse"
       id="clipPath14134"><path
         d="M 0,1205.777 H 2738.234 V 0 H 0 Z"
         transform="translate(0,2.5000001e-5)"
         id="path14134" /></clipPath><clipPath
       clipPathUnits="userSpaceOnUse"
       id="clipPath14136"><path
         d="M 0,1205.777 H 2738.234 V 0 H 0 Z"
         transform="translate(0,2.5000001e-5)"
         id="path14136" /></clipPath><clipPath
       clipPathUnits="userSpaceOnUse"
       id="clipPath14080"><path
         d="M 0,1205.777 H 2738.234 V 0 H 0 Z"
         transform="translate(-2065.1529,-382.48348)"
         id="path14080" /></clipPath><clipPath
       clipPathUnits="userSpaceOnUse"
       id="clipPath13542"><path
         d="M 0,1205.777 H 2738.234 V 0 H 0 Z"
         transform="translate(-1664.7345,-477.35451)"
         id="path13542" /></clipPath><clipPath
       clipPathUnits="userSpaceOnUse"
       id="clipPath13544"><path
         d="M 0,1205.777 H 2738.234 V 0 H 0 Z"
         transform="translate(-1658.787,-476.35451)"
         id="path13544" /></clipPath><clipPath
       clipPathUnits="userSpaceOnUse"
       id="clipPath13546"><path
         d="M 0,1205.777 H 2738.234 V 0 H 0 Z"
         transform="translate(-1659.8134,-479.72321)"
         id="path13546" /></clipPath><clipPath
       clipPathUnits="userSpaceOnUse"
       id="clipPath13930"><path
         d="M 0,1205.777 H 2738.234 V 0 H 0 Z"
         transform="translate(-1921.7337,-427.49984)"
         id="path13930" /></clipPath><clipPath
       clipPathUnits="userSpaceOnUse"
       id="clipPath13932"><path
         d="M 0,1205.777 H 2738.234 V 0 H 0 Z"
         transform="translate(-1910.8041,-428.74079)"
         id="path13932" /></clipPath><clipPath
       clipPathUnits="userSpaceOnUse"
       id="clipPath13934"><path
         d="M 0,1205.777 H 2738.234 V 0 H 0 Z"
         transform="translate(-1914.3456,-428.74079)"
         id="path13934" /></clipPath><clipPath
       clipPathUnits="userSpaceOnUse"
       id="clipPath13936"><path
         d="M 0,1205.777 H 2738.234 V 0 H 0 Z"
         transform="translate(-1916.1234,-428.74079)"
         id="path13936" /></clipPath><clipPath
       clipPathUnits="userSpaceOnUse"
       id="clipPath13938"><path
         d="M 0,1205.777 H 2738.234 V 0 H 0 Z"
         transform="translate(-1919.679,-428.74079)"
         id="path13938" /></clipPath><clipPath
       clipPathUnits="userSpaceOnUse"
       id="clipPath13940"><path
         d="M 0,1205.777 H 2738.234 V 0 H 0 Z"
         transform="translate(-1917.9012,-430.19001)"
         id="path13940" /></clipPath><clipPath
       clipPathUnits="userSpaceOnUse"
       id="clipPath13942"><path
         d="M 0,1205.777 H 2738.234 V 0 H 0 Z"
         transform="translate(-1912.5678,-430.19001)"
         id="path13942" /></clipPath><clipPath
       clipPathUnits="userSpaceOnUse"
       id="clipPath13401"><path
         d="M 0,1205.777 H 2738.234 V 0 H 0 Z"
         transform="translate(-1485.7512,-474.35451)"
         id="path13401" /></clipPath><clipPath
       clipPathUnits="userSpaceOnUse"
       id="clipPath13403"><path
         d="M 0,1205.777 H 2738.234 V 0 H 0 Z"
         transform="translate(-1483.9998,-478.60221)"
         id="path13403" /></clipPath><clipPath
       clipPathUnits="userSpaceOnUse"
       id="clipPath13405"><path
         d="M 0,1205.777 H 2738.234 V 0 H 0 Z"
         transform="translate(-1483.9998,-476.10681)"
         id="path13405" /></clipPath><clipPath
       clipPathUnits="userSpaceOnUse"
       id="clipPath13407"><path
         d="M 0,1205.777 H 2738.234 V 0 H 0 Z"
         transform="translate(-1478.2345,-480.85451)"
         id="path13407" /></clipPath><clipPath
       clipPathUnits="userSpaceOnUse"
       id="clipPath13409"><path
         d="M 0,1205.777 H 2738.234 V 0 H 0 Z"
         transform="translate(-1478.2345,-473.85451)"
         id="path13409" /></clipPath></defs><g
     id="c"><g
       id="d"><g
         id="g1"
         transform="translate(2.3333002,-8)"><path
           style="color:#000000;fill:#000000 icc-color(Display, 0, 0, 0);stroke-linecap:round;stroke-linejoin:round;stroke-miterlimit:10;-inkscape-stroke:none"
           d="M 0,-0.44921875 A 0.44999999,0.44999999 0 0 0 -0.44921875,0 V 5.6464844 A 0.44999999,0.44999999 0 0 0 0,6.0976562 0.44999999,0.44999999 0 0 0 0.44921875,5.6464844 V 0 A 0.44999999,0.44999999 0 0 0 0,-0.44921875 Z"
           id="path13400"
           transform="matrix(1.3333333,0,0,-1.3333333,10.689,22)" /><path
           style="color:#000000;fill:#000000 icc-color(Display, 0, 0, 0);stroke-linecap:round;stroke-linejoin:round;stroke-miterlimit:10;-inkscape-stroke:none"
           d="m 0,-0.44921875 a 0.44999999,0.44999999 0 0 0 -0.31835938,0.13085937 0.44999999,0.44999999 0 0 0 0,0.63671876 L 1.4335937,2.0703125 a 0.45004499,0.45004499 0 0 0 0.6367188,0 L 3.8222656,0.31640625 a 0.44999999,0.44999999 0 0 0 0,-0.63476563 0.44999999,0.44999999 0 0 0 -0.6347656,0 L 1.7519531,1.1152344 0.31835938,-0.31835938 A 0.44999999,0.44999999 0 0 0 0,-0.44921875 Z"
           id="path13402"
           transform="matrix(1.3333333,0,0,-1.3333333,8.3538,16.3364)" /><path
           style="color:#000000;fill:#000000 icc-color(Display, 0, 0, 0);stroke-linecap:round;stroke-linejoin:round;stroke-miterlimit:10;-inkscape-stroke:none"
           d="m 1.4335937,-2.0703125 -1.75195308,1.75195312 a 0.44999999,0.44999999 0 0 0 0,0.63671876 0.44999999,0.44999999 0 0 0 0.63671876,0 L 1.7519531,-1.1152344 3.1875,0.31835938 a 0.44999999,0.44999999 0 0 0 0.6347656,0 0.44999999,0.44999999 0 0 0 0,-0.63476563 L 2.0703125,-2.0703125 a 0.45004499,0.45004499 0 0 0 -0.6367188,0 z"
           id="path13404"
           transform="matrix(1.3333333,0,0,-1.3333333,8.3538,19.6636)" /><path
           style="color:#000000;fill:#000000 icc-color(Display, 0, 0, 0);stroke-linecap:round;stroke-miterlimit:10;-inkscape-stroke:none"
           d="m 0.05859375,-0.49609375 a 0.5,0.5 0 0 0 -0.5546875,0.4375 0.5,0.5 0 0 0 0.4375,0.5546875 L 10.441406,1.7460937 a 0.5,0.5 0 0 0 0.554688,-0.4375 0.5,0.5 0 0 0 -0.4375,-0.55468745 z"
           id="path13406"
           transform="matrix(1.3333333,0,0,-1.3333333,0.6667,13.33333)" /><path
           style="color:#000000;fill:#000000 icc-color(Display, 0, 0, 0);stroke-linecap:round;stroke-miterlimit:10;-inkscape-stroke:none"
           d="m 10.441406,-1.7460937 -10.49999975,1.24999995 a 0.5,0.5 0 0 0 -0.4375,0.5546875 0.5,0.5 0 0 0 0.5546875,0.4375 l 10.50000025,-1.25 a 0.5,0.5 0 0 0 0.4375,-0.55468745 0.5,0.5 0 0 0 -0.554688,-0.4375 z"
           id="path13408"
           transform="matrix(1.3333333,0,0,-1.3333333,0.6667,22.66667)" /></g></g></g></svg>
