<?xml version="1.0" encoding="UTF-8" standalone="no"?>
<svg
   id="b"
   width="20"
   height="16"
   viewBox="0 0 20 16"
   version="1.1"
   sodipodi:docname="align-h-center.svg"
   inkscape:version="1.3.1 (91b66b0, 2023-11-16)"
   xml:space="preserve"
   xmlns:inkscape="http://www.inkscape.org/namespaces/inkscape"
   xmlns:sodipodi="http://sodipodi.sourceforge.net/DTD/sodipodi-0.dtd"
   xmlns="http://www.w3.org/2000/svg"
   xmlns:svg="http://www.w3.org/2000/svg"><sodipodi:namedview
     id="namedview3"
     pagecolor="#ffffff"
     bordercolor="#000000"
     borderopacity="0.25"
     inkscape:showpageshadow="2"
     inkscape:pageopacity="0.0"
     inkscape:pagecheckerboard="0"
     inkscape:deskcolor="#d1d1d1"
     inkscape:zoom="14.75"
     inkscape:cx="5.9322034"
     inkscape:cy="8.5423729"
     inkscape:window-width="1312"
     inkscape:window-height="449"
     inkscape:window-x="34"
     inkscape:window-y="257"
     inkscape:window-maximized="0"
     inkscape:current-layer="d" /><defs
     id="defs1"><style
       id="style1">.e{stroke:#000;stroke-linecap:round;stroke-linejoin:round;}.e,.f{fill:none;}.f{opacity:.2;stroke-width:0px;}</style></defs><g
     id="c"><g
       id="d"><path
         d="M 9.6979994,14.674 C 9.6119994,14.596 9.5689995,14.5 9.5689995,14.387 V 12.963 H 10.43 v 1.424 c 0,0.113 -0.043,0.209 -0.128,0.287 -0.086,0.078 -0.186001,0.117 -0.299001,0.117 -0.1179996,0 -0.2189995,-0.039 -0.3049996,-0.117 M 9.5689995,7.0859999 H 10.43 V 9.0430001 H 9.5689995 Z m 0,-5.473 c 0,-0.113 0.043,-0.209 0.1289999,-0.287 0.086,-0.078 0.187,-0.117 0.3049996,-0.117 0.113,0 0.213001,0.039 0.299001,0.117 0.085,0.078 0.128,0.174 0.128,0.287 V 3.055 H 9.5689995 Z M 12.2,6.5819999 c 0.148,0 0.264,-0.041 0.346,-0.1229999 0.082,-0.082 0.123,-0.201 0.123,-0.357 V 4.104 C 12.669,3.947 12.628,3.827 12.546,3.743 12.464,3.659 12.348,3.617 12.2,3.617 H 7.8049995 c -0.1519999,0 -0.269,0.042 -0.3509999,0.126 -0.082,0.084 -0.123,0.204 -0.123,0.361 v 1.998 c 0,0.156 0.041,0.2749999 0.123,0.357 0.082,0.082 0.199,0.1229999 0.3509999,0.1229999 z m -5.4080005,0.548 C 6.5609995,6.905 6.4459995,6.578 6.4459995,6.149 V 4.051 c 0,-0.426 0.115,-0.752 0.346,-0.979 0.2300001,-0.226 0.562,-0.339 0.9960001,-0.339 H 12.212 c 0.437,0 0.77,0.113 0.999,0.339 0.228,0.227 0.342,0.553 0.342,0.979 v 2.098 c 0,0.429 -0.114,0.756 -0.342,0.9809999 -0.229,0.225 -0.562,0.337 -0.999,0.337 H 7.7879996 c -0.434,0 -0.766,-0.112 -0.9960001,-0.337 M 14.274,12.389 c 0.149,0 0.264,-0.042 0.346,-0.126 0.082,-0.084 0.123,-0.204 0.123,-0.36 V 9.9040001 c 0,-0.156 -0.041,-0.275 -0.123,-0.357 -0.082,-0.082 -0.197,-0.123 -0.346,-0.123 H 5.7309995 c -0.152,0 -0.269,0.041 -0.351,0.123 -0.082,0.082 -0.123,0.201 -0.123,0.357 V 11.903 c 0,0.156 0.041,0.276 0.123,0.36 0.082,0.084 0.199,0.126 0.351,0.126 z m -9.5560005,0.545 c -0.231,-0.227 -0.346,-0.553 -0.346,-0.979 V 9.8580001 c 0,-0.43 0.115,-0.757 0.346,-0.982 0.2300001,-0.224 0.5620001,-0.337 0.9960001,-0.337 H 14.286 c 0.437,0 0.77,0.113 0.999,0.337 0.228,0.225 0.343,0.552 0.343,0.982 V 11.955 c 0,0.426 -0.115,0.752 -0.343,0.979 -0.229,0.226 -0.562,0.34 -0.999,0.34 H 5.7139996 c -0.434,0 -0.766,-0.114 -0.9960001,-0.34"
         style="clip-rule:evenodd;fill-rule:nonzero;stroke-miterlimit:10"
         id="path900" /></g></g></svg>
