<?xml version="1.0" encoding="UTF-8" standalone="no"?>
<svg
   id="b"
   width="20"
   height="16"
   viewBox="0 0 20 16"
   version="1.1"
   sodipodi:docname="align-top.svg"
   inkscape:version="1.3.1 (91b66b0, 2023-11-16)"
   xml:space="preserve"
   xmlns:inkscape="http://www.inkscape.org/namespaces/inkscape"
   xmlns:sodipodi="http://sodipodi.sourceforge.net/DTD/sodipodi-0.dtd"
   xmlns="http://www.w3.org/2000/svg"
   xmlns:svg="http://www.w3.org/2000/svg"><sodipodi:namedview
     id="namedview3"
     pagecolor="#ffffff"
     bordercolor="#000000"
     borderopacity="0.25"
     inkscape:showpageshadow="2"
     inkscape:pageopacity="0.0"
     inkscape:pagecheckerboard="0"
     inkscape:deskcolor="#d1d1d1"
     inkscape:zoom="14.75"
     inkscape:cx="5.9322034"
     inkscape:cy="8.5423729"
     inkscape:window-width="1312"
     inkscape:window-height="449"
     inkscape:window-x="40"
     inkscape:window-y="389"
     inkscape:window-maximized="0"
     inkscape:current-layer="d" /><defs
     id="defs1"><style
       id="style1">.e{stroke:#000;stroke-linecap:round;stroke-linejoin:round;}.e,.f{fill:none;}.f{opacity:.2;stroke-width:0px;}</style></defs><g
     id="c"><g
       id="d"><path
         d="m 13.902,9.5735 c 0.16,0 0.281,-0.041 0.363,-0.123 0.082,-0.082 0.123,-0.199 0.123,-0.352 v -4.394 c 0,-0.149 -0.041,-0.264 -0.123,-0.346 -0.082,-0.082 -0.203,-0.123 -0.363,-0.123 H 11.91 c -0.16,0 -0.281,0.041 -0.363,0.123 -0.083,0.082 -0.124,0.197 -0.124,0.346 v 4.394 c 0,0.153 0.041,0.27 0.124,0.352 0.082,0.082 0.203,0.123 0.363,0.123 z m -3.023,0.539 c -0.227,-0.23 -0.34,-0.562 -0.34,-0.996 v -4.424 c 0,-0.437 0.113,-0.77 0.34,-0.999 0.226,-0.228 0.552,-0.343 0.978,-0.343 h 2.098 c 0.426,0 0.752,0.115 0.978,0.343 0.227,0.229 0.34,0.562 0.34,0.999 v 4.424 c 0,0.434 -0.113,0.766 -0.34,0.996 -0.226,0.231 -0.552,0.346 -0.978,0.346 h -2.098 c -0.426,0 -0.752,-0.115 -0.978,-0.346 m -2.778,3.609 c 0.156,0 0.277,-0.041 0.361,-0.123 0.084,-0.082 0.126,-0.199 0.126,-0.351 V 4.7045 C 8.588,4.5555 8.546,4.4405 8.462,4.3585 8.378,4.2765 8.257,4.2355 8.101,4.2355 H 6.103 c -0.156,0 -0.275,0.041 -0.357,0.123 -0.082,0.082 -0.123,0.197 -0.123,0.346 v 8.543 c 0,0.152 0.041,0.269 0.123,0.351 0.082,0.082 0.201,0.123 0.357,0.123 z m -3.026,0.542 C 4.85,14.0355 4.738,13.7025 4.738,13.2645 v -8.572 c 0,-0.437 0.112,-0.77 0.337,-0.999 0.224,-0.228 0.552,-0.343 0.981,-0.343 h 2.098 c 0.426,0 0.752,0.115 0.978,0.343 0.227,0.229 0.34,0.562 0.34,0.999 v 8.572 c 0,0.438 -0.113,0.771 -0.34,0.999 -0.226,0.229 -0.552,0.343 -0.978,0.343 H 6.056 c -0.429,0 -0.757,-0.114 -0.981,-0.343 M 3.326,2.1235 C 3.248,2.0355 3.209,1.9345 3.209,1.8215 c 0,-0.113 0.039,-0.213 0.117,-0.299 0.078,-0.086 0.176,-0.129 0.293,-0.129 h 12.767 c 0.114,0 0.209,0.043 0.287,0.129 0.079,0.086 0.118,0.186 0.118,0.299 0,0.113 -0.039,0.214 -0.118,0.302 -0.078,0.088 -0.173,0.132 -0.287,0.132 H 3.619 c -0.117,0 -0.215,-0.044 -0.293,-0.132"
         style="clip-rule:evenodd;fill-rule:nonzero;stroke-miterlimit:10"
         id="path901" /></g></g></svg>
