<?xml version="1.0" encoding="UTF-8" standalone="no"?>
<svg
   id="b"
   width="20"
   height="16"
   viewBox="0 0 20 16"
   version="1.1"
   sodipodi:docname="bring-forward.svg"
   inkscape:version="1.3.1 (91b66b0, 2023-11-16)"
   xml:space="preserve"
   xmlns:inkscape="http://www.inkscape.org/namespaces/inkscape"
   xmlns:sodipodi="http://sodipodi.sourceforge.net/DTD/sodipodi-0.dtd"
   xmlns="http://www.w3.org/2000/svg"
   xmlns:svg="http://www.w3.org/2000/svg"><sodipodi:namedview
     id="namedview3"
     pagecolor="#ffffff"
     bordercolor="#000000"
     borderopacity="0.25"
     inkscape:showpageshadow="2"
     inkscape:pageopacity="0.0"
     inkscape:pagecheckerboard="0"
     inkscape:deskcolor="#d1d1d1"
     inkscape:zoom="14.75"
     inkscape:cx="5.9322034"
     inkscape:cy="8.5423729"
     inkscape:window-width="1312"
     inkscape:window-height="449"
     inkscape:window-x="40"
     inkscape:window-y="389"
     inkscape:window-maximized="0"
     inkscape:current-layer="d" /><defs
     id="defs1"><style
       id="style1">.e{stroke:#000;stroke-linecap:round;stroke-linejoin:round;}.e,.f{fill:none;}.f{opacity:.2;stroke-width:0px;}</style></defs><g
     id="c"><g
       id="d"><g
         id="g1982"
         style="clip-rule:evenodd;fill-rule:evenodd;stroke-miterlimit:10"
         transform="translate(-2495.235,-858.425)"><path
           d="m 2503.73,863.425 h 7.002 c 0.828,0 1.499,0.671 1.499,1.499 v 7.002 c 0,0.828 -0.671,1.499 -1.499,1.499 h -7.002 c -0.828,0 -1.499,-0.671 -1.499,-1.499 v -7.002 c 0,-0.828 0.671,-1.499 1.499,-1.499"
           style="fill-rule:nonzero"
           id="path925" /><path
           d="m 2506.74,859.425 h -7.002 c -0.828,0 -1.499,0.671 -1.499,1.499 v 7.002 c 0,0.828 0.671,1.499 1.499,1.499 h 7.002 c 0.828,0 1.499,-0.671 1.499,-1.499 v -7.002 c 0,-0.828 -0.671,-1.499 -1.499,-1.499 m 0,1 c 0.275,0 0.499,0.224 0.499,0.499 v 7.002 c 0,0.275 -0.224,0.499 -0.499,0.499 h -7.002 c -0.275,0 -0.499,-0.224 -0.499,-0.499 v -7.002 c 0,-0.275 0.224,-0.499 0.499,-0.499 z"
           style="fill-rule:nonzero"
           id="path926" /></g></g></g></svg>
