<?xml version="1.0" encoding="UTF-8" standalone="no"?>
<svg
   width="20"
   height="20"
   viewBox="0 0 20 20"
   version="1.1"
   xml:space="preserve"
   style="clip-rule:evenodd;fill-rule:evenodd;stroke-linecap:round;stroke-linejoin:round;stroke-miterlimit:10"
   id="svg5"
   sodipodi:docname="dots-contrast.svg"
   inkscape:version="1.3.1 (91b66b0, 2023-11-16)"
   xmlns:inkscape="http://www.inkscape.org/namespaces/inkscape"
   xmlns:sodipodi="http://sodipodi.sourceforge.net/DTD/sodipodi-0.dtd"
   xmlns="http://www.w3.org/2000/svg"
   xmlns:svg="http://www.w3.org/2000/svg"><defs
   id="defs5"><clipPath
     clipPathUnits="userSpaceOnUse"
     id="clipPath4879"><path
       d="M 0,1205.777 H 2738.234 V 0 H 0 Z"
       transform="translate(-1538.1096,-541.35451)"
       id="path4879" /></clipPath><clipPath
     clipPathUnits="userSpaceOnUse"
     id="clipPath4881"><path
       d="M 0,1205.777 H 2738.234 V 0 H 0 Z"
       transform="translate(-1536.7345,-541.35451)"
       id="path4881" /></clipPath><clipPath
     clipPathUnits="userSpaceOnUse"
     id="clipPath2416"><path
       d="M 0,1205.777 H 2738.234 V 0 H 0 Z"
       transform="translate(-827.23442,-867.35452)"
       id="path2416" /></clipPath><clipPath
     clipPathUnits="userSpaceOnUse"
     id="clipPath2418"><path
       d="M 0,1205.777 H 2738.234 V 0 H 0 Z"
       transform="translate(-827.23442,-867.35452)"
       id="path2418" /></clipPath></defs><sodipodi:namedview
   id="namedview5"
   pagecolor="#ffffff"
   bordercolor="#000000"
   borderopacity="0.25"
   inkscape:showpageshadow="2"
   inkscape:pageopacity="0.0"
   inkscape:pagecheckerboard="0"
   inkscape:deskcolor="#d1d1d1"
   inkscape:zoom="14.75"
   inkscape:cx="8.2033898"
   inkscape:cy="13.559322"
   inkscape:window-width="1312"
   inkscape:window-height="669"
   inkscape:window-x="55"
   inkscape:window-y="173"
   inkscape:window-maximized="0"
   inkscape:current-layer="g1" />
    
<g
   id="g1"
   transform="translate(8,4.0000002)"><path
     id="path2415"
     d="m 0,0 c -3.314,0 -6,-2.686 -6,-6 0,-3.314 2.686,-6 6,-6 3.314,0 6,2.686 6,6 0,3.314 -2.686,6 -6,6 m 0,-1 c 2.757,0 5,-2.243 5,-5 0,-2.757 -2.243,-5 -5,-5 -2.757,0 -5,2.243 -5,5 0,2.757 2.243,5 5,5"
     style="fill:#000000 icc-color(Display, 0, 0, 0);fill-opacity:1;fill-rule:nonzero;stroke:none"
     transform="matrix(1.0056497,0,0,-1.0056497,2,-0.03389831)"
     clip-path="url(#clipPath2416)" /><path
     id="path2417"
     d="M 0,0 C 3.314,0 6,-2.686 6,-6 6,-9.314 3.314,-12 0,-12"
     style="fill:#000000 icc-color(Display, 0, 0, 0);fill-opacity:1;fill-rule:nonzero;stroke:none"
     transform="matrix(1.0056497,0,0,-1.0056497,2,-0.03389831)"
     clip-path="url(#clipPath2418)" /></g></svg>
