<?xml version="1.0" encoding="UTF-8"?><svg id="b" xmlns="http://www.w3.org/2000/svg" width="20" height="16" viewBox="0 0 20 16"><defs><style>.e{stroke-linejoin:round;}.e,.f,.g{fill:none;}.e,.g{stroke:#000;stroke-linecap:round;stroke-width:.9px;}.f{opacity:.2;stroke-width:0px;}.g{stroke-miterlimit:10;}</style></defs><g id="c"><g id="d"><rect class="f" width="20" height="16"/><path class="g" d="m.91,5.5c.18.91.33,2.13.47,3.38.32,2.83.63,5.84,1.27,5.83,1.22-.02,1.22-9.7,2.43-9.72h0c1.22.02,1.22,8.99,2.43,8.97s1.22-8.2,2.43-8.22h0,0c1.22.02,1.22,7.49,2.43,7.47s1.22-6.45,2.43-6.47h0c1.22.02,1.22,5.49,2.43,5.47.64-.01.94-1.3,1.26-2.53"/><line class="e" x1="17.5" y1="1.07" x2="17.5" y2="5.72"/><polyline class="e" points="19.25 4.32 17.5 6.07 15.75 4.32"/></g></g></svg>