<?xml version="1.0" encoding="UTF-8"?><svg id="b" xmlns="http://www.w3.org/2000/svg" width="16" height="16" viewBox="0 0 16 16"><defs><style>.e{fill-rule:evenodd;}</style></defs><g id="c"><g id="d"><path class="e" d="M11.47,1.51c-.32-.06-.61-.11-.87-.14.05.04.09.09.14.14.12.12.25.26.31.32.12.15.37.3.55.44.37.28.71.5.94.65.23.14.36.22.36.22,0,0,.06.03.17.1.11.07.26.15.5.27.13.06.3.16.46.27-.66-.94-1.54-1.73-2.56-2.27ZM2.82,2.78c-.5.5-.94,1.07-1.28,1.7.08-.01.15-.03.21-.05.13-.05.21-.11.31-.22.1-.11.18-.27.26-.42.09-.18.18-.35.26-.52.09-.18.17-.34.25-.5ZM8.71,5.98h0s0,0,0,0c0,0,0,0,.05.02.02,0,.06.03.09.05l.11.08c.1.08.19.15.29.23.12.09.24.18.36.25.12.08.25.14.37.2.04.02.07.03.1.05v.22c-.02.07-.02.15-.01.24.02.19.06.43.24.62.08.1.21.17.33.23l.05.03s0,0,0,0c.01.06.03.12.03.2.01.16.02.42.03.61,0,.11,0,.19,0,.26,0,.03,0,.03,0,.05,0,.02-.02.03-.02.05-.07.11-.24.27-.4.42l-.25.23-.22.18c-.13.09-.22.13-.33.09-.09-.02-.22-.16-.35-.31-.12-.15-.27-.3-.41-.42-.3-.26-.67-.34-.89-.33-.11,0-.2.02-.26.03-.03,0-.05,0-.06,0-.03,0-.13-.02-.29-.05-.2-.03-.47-.08-.8-.15-.33-.07-.71-.16-1.07-.31-.04-.02-.09-.04-.13-.06l-.1-.06c-.06-.04-.09-.07-.12-.11-.06-.09-.01-.2.05-.26.08-.09.23-.24.4-.36.16-.12.34-.24.51-.34.08-.05.16-.1.23-.13,0,0,.01,0,.02,0,.04.02.07.04.13.06.06.02.12.03.18.03.05,0,.09,0,.13-.01.04,0,.09-.02.12-.03l.06-.03s.09-.04.12-.06l.08-.05c.2-.13.32-.24.43-.33.11-.09.2-.18.28-.24.15-.13.24-.21.24-.21,0,0,.04-.05.12-.12.08-.08.19-.19.3-.29.06-.05.12-.1.17-.13.04-.03.05-.03.06-.03ZM6.75,6.18c-.07.08-.15.16-.22.23-.04,0-.08-.02-.12-.02-.07,0-.14,0-.21.01-.2.05-.32.12-.43.19-.11.07-.2.14-.29.21-.18.15-.35.29-.53.47-.18.17-.35.35-.52.64-.04.08-.08.16-.11.25-.01.09-.04.17-.04.26,0,.17.05.35.17.47l.08.1s.07.05.1.08c.07.05.14.11.2.13l.19.09c.06.02.12.04.17.05.45.13.86.17,1.21.2.35.03.63.04.84.04.2,0,.32,0,.32,0v-.15s.04.15.04.15c-.02.03.47-.12.87.31.1.11.2.25.31.41.06.08.11.17.19.26.07.09.19.21.33.28.07.03.14.07.22.08.08.01.16.02.24,0,.18-.01.3-.09.44-.15.12-.07.23-.14.33-.21l.28-.2c.19-.14.38-.26.59-.49.05-.07.11-.15.15-.23.03-.09.07-.18.08-.26.02-.14.04-.29.04-.39.02-.22.03-.43.05-.62,0-.23.03-.48-.15-.82-.05-.08-.11-.16-.18-.23-.04-.04-.07-.06-.1-.08l-.04-.03h0s0-.02,0-.03c0-.01.01-.02.02-.03,0,0,0-.02.01-.02,0,0,0,0,0-.01l.03-.16s0-.01,0-.06c0-.06,0-.15,0-.26,0-.21-.08-.54-.39-.76-.08-.05-.16-.1-.26-.14-.06-.03-.12-.05-.19-.08-.08-.04-.16-.08-.24-.13-.08-.05-.16-.1-.24-.17-.03-.03-.06-.05-.1-.08.2-.04.39-.08.59-.12.43-.09.86-.19,1.26-.27.02,0,.03,0,.05-.01l.07.17c.18.38.39.63.53.81.14.17.23.26.23.26,0,0,.14.14.39.38.12.11.24.24.36.39.11.15.17.3.16.34,0,0,0,.02,0,.03,0,.01-.01.03-.02.04,0,.02-.04.07-.06.11-.03.04-.08.1-.12.15-.05.06-.11.12-.16.18-.23.25-.53.56-.73.96-.05.1-.09.21-.14.31-.03.11-.06.22-.09.33-.04.21-.07.39-.1.59-.06.39-.11.78-.24,1-.12.22-.43.42-.76.59-.33.17-.69.34-1.01.48-.32.14-.64.23-.94.24-.3.01-.57-.06-.81-.18-.49-.26-.94-.56-1.28-.68-.17-.06-.31-.11-.41-.12-.09-.02-.15-.04-.15-.04,0,0-.19-.05-.54-.13-.17-.04-.37-.09-.61-.14-.11-.03-.23-.06-.36-.1-.12-.05-.24-.09-.37-.14-.49-.23-.95-.71-1.35-1.31-.23-.29-.36-.58-.43-.91-.08-.32-.04-.67.06-.99.04-.16.13-.32.2-.47.1-.15.17-.3.29-.43.21-.28.47-.51.73-.73.54-.42,1.12-.71,1.63-.91.31-.11.63-.21.87-.27.01.06.03.13.06.21.07.17.21.35.44.47.07.04.16.07.25.09l-.22.22s-.07.09-.2.23c-.06.07-.14.16-.23.26ZM14.94,10.44c-.09,0-.14,0-.21.02-.19.04-.37.16-.55.34-.18.18-.32.38-.43.6-.1.23-.18.48-.22.74-.04.26-.07.53-.1.82.66-.72,1.18-1.58,1.51-2.52ZM15.27,6.84h0c-.35.03-.08.01-.17.02v.19c0,.13.01.26.02.4.02.28.03.55.04.82,0,.13.01.27.02.41v.77s0,.09-.04.13c-.03.04-.08.03-.12.04-.07,0-.3.01-.48.06-.38.11-.68.35-.91.59-.22.24-.41.54-.54.85-.12.31-.19.63-.23.94-.04.31-.05.6-.06.88-.02.27-.04.53-.12.7-.07.16-.2.24-.42.27-.24.02-.5.03-.74.04-.25.03-.47-.02-.7-.03-.23,0-.44-.07-.64-.11-.21-.03-.39-.13-.57-.19-.18-.07-.33-.15-.48-.24-.29-.19-.57-.37-.83-.47-.13-.06-.25-.09-.35-.11-.1-.03-.19-.04-.27-.04-.14-.01-.22-.02-.22-.02,0,0-.08,0-.22-.01-.14,0-.35-.01-.62.01-.27.02-.59.07-.94.16-.36.09-.74.23-1.14.31-.2.04-.4.05-.6.02-.05,0-.1-.02-.15-.03l-.17-.05c-.13-.04-.27-.07-.41-.09-.21-.03-.42-.03-.6-.04-.22-.23-.42-.48-.61-.75-.03-.12-.05-.26-.08-.39-.05-.28-.1-.57-.15-.86-.1-.58-.25-1.16-.35-1.72-.04-.29-.09-.57-.13-.85-.04-.32-.12-.62-.2-.91-.09-.29-.18-.57-.27-.83l-.04-.12c.07-.34.15-.66.26-.98.07-.02.14-.03.21-.04.2-.03.46-.03.78-.11.33-.08.64-.29.83-.51.2-.22.32-.43.44-.63.1-.17.19-.34.27-.49.17-.31.32-.57.45-.78.12-.22.23-.37.31-.47.07-.11.11-.16.11-.16,0,0,.08-.13.25-.34.08-.1.19-.25.3-.37.05-.05.1-.1.16-.15.07-.05.15-.1.22-.15.33-.2.82-.38,1.34-.45.13-.02.26-.02.38-.02h.22s.09.02.09.02c.07,0,.12.01.22,0,.04,0,.08,0,.13-.01.06-.01.12-.03.17-.05,0,0,.02,0,.02-.01.04.03.09.06.13.09.25.18.51.38.77.57.24.2.48.39.71.58.06.05.11.09.17.14.05.05.09.09.14.14.1.1.2.21.3.3.26.28.48.4.69.57.23.18.44.32.62.45-.4.09-.81.18-1.23.27-.86.18-1.73.36-2.27.34h-.09s0-.09-.01-.23c0-.03-.02-.09-.04-.14-.01-.05-.04-.11-.09-.18-.04-.07-.1-.12-.16-.17-.03-.03-.07-.05-.1-.07-.03-.01-.06-.03-.09-.04-.14-.05-.21-.05-.31-.06-.06,0-.15,0-.21.01-.49.08-.92.26-1.52.51-.58.27-1.22.65-1.82,1.2-.29.28-.58.58-.82.95-.13.17-.22.38-.32.57-.08.21-.17.41-.21.64-.1.44-.11.92.02,1.35.02.11.07.21.11.31.05.1.08.21.15.29.06.09.12.18.17.27.06.08.12.15.18.23.12.15.24.3.37.43.14.13.27.26.4.39.14.12.29.22.43.32.15.09.31.16.45.23.15.05.3.09.44.13.14.03.27.05.39.08.24.04.45.07.62.1.34.06.53.09.53.09,0,0,.04.01.13.04.09.02.21.07.36.14.15.07.32.17.52.3.2.13.41.3.69.46.27.16.64.29,1.02.3.39.02.78-.07,1.15-.2.38-.12.72-.26,1.1-.42.19-.08.38-.17.57-.29.19-.12.39-.28.55-.5.15-.22.23-.46.29-.66.06-.21.1-.4.15-.59.04-.19.09-.38.14-.55l.07-.21.1-.19c.15-.25.37-.46.62-.69.07-.06.13-.12.19-.18.07-.07.13-.13.2-.22.07-.09.14-.16.19-.28.03-.06.05-.11.08-.17.02-.06.04-.13.05-.19.04-.13.03-.26.02-.38,0-.13-.04-.22-.07-.32-.06-.21-.15-.33-.23-.47-.16-.24-.31-.44-.44-.57-.23-.26-.37-.41-.37-.41,0,0-.07-.07-.18-.2-.1-.12-.23-.29-.34-.5.01,0,.02,0,.03.02.23.1.4.19.66.41.24.2.5.45.75.77.12.16.25.33.36.51.12.18.21.38.27.53,0,0,0,0,0,.01,0,0,0,0,.02,0,.04,0,.07,0,.11,0h.06ZM11.52,14.46h-.03c-.26.02-.52-.05-.76-.07-.25-.02-.48-.1-.7-.16-.23-.05-.42-.16-.61-.24-.19-.08-.37-.2-.52-.3-.3-.21-.54-.38-.75-.48-.44-.19-.73-.18-.72-.19,0,0-.07,0-.2,0-.13,0-.33,0-.57.04-.25.03-.54.09-.87.2-.33.1-.7.26-1.15.38-.23.06-.49.09-.76.06-.07,0-.14-.02-.2-.04l-.18-.04c-.09-.02-.18-.04-.28-.05.59.51,1.27.93,2,1.23.08-.12.17-.24.3-.35.11-.08.24-.14.38-.16.14-.02.28,0,.39.04.45.14.78.36,1.16.52.5.23,1.02.38,1.56.44.9-.12,1.76-.41,2.53-.83ZM7.64,15.35c-.12-.04-.24-.09-.36-.14-.39-.15-.77-.37-1.11-.46-.17-.04-.29-.02-.4.07-.04.04-.09.09-.13.15.63.21,1.3.35,2,.38ZM8,0c4.42,0,8,3.58,8,8s-3.58,8-8,8S0,12.42,0,8,3.58,0,8,0Z"/></g></g></svg>