<?xml version="1.0" encoding="UTF-8"?><svg id="b" xmlns="http://www.w3.org/2000/svg" width="20" height="16" viewBox="0 0 20 16"><defs><style>.e{fill:none;}.e,.f{stroke-width:0px;}</style></defs><g id="c"><g id="d"><polygon class="f" points="6.4 10.53 6.4 13.15 3.78 13.15 3.78 14.02 6.4 14.02 7.27 14.02 7.27 13.15 7.27 10.53 6.4 10.53"/><path class="f" d="m6.34,13.66l.53-.95c-1.59-1.01-2.65-2.78-2.65-4.8,0-3.14,2.54-5.68,5.68-5.68.75,0,1.46.15,2.11.41l.4-1.01c-.78-.31-1.63-.49-2.51-.49-3.74,0-6.77,3.03-6.77,6.77,0,2.43,1.28,4.55,3.2,5.75Z"/><path class="f" d="m13.46,12.39c.9-.08,1.01,1.27.12,1.34s-1.01-1.27-.12-1.34"/><path class="f" d="m10.4,13.52c.9-.08,1.01,1.27.12,1.34s-1.01-1.27-.12-1.34"/><path class="f" d="m15.22,10.01c.74-.52,1.51.59.77,1.11s-1.51-.59-.77-1.11"/><path class="f" d="m15,3.62c.9-.08,1.01,1.27.12,1.34s-1.01-1.27-.12-1.34"/><path class="f" d="m16.13,6.68c.9-.08,1.01,1.27.12,1.34s-1.01-1.27-.12-1.34"/><rect class="e" width="20" height="16"/></g></g></svg>