<?xml version="1.0" encoding="UTF-8" standalone="no"?>
<svg
   id="b"
   width="24"
   height="22"
   viewBox="0 0 24 22"
   version="1.1"
   sodipodi:docname="new-group.svg"
   inkscape:version="1.3.1 (91b66b0, 2023-11-16)"
   xml:space="preserve"
   xmlns:inkscape="http://www.inkscape.org/namespaces/inkscape"
   xmlns:sodipodi="http://sodipodi.sourceforge.net/DTD/sodipodi-0.dtd"
   xmlns="http://www.w3.org/2000/svg"
   xmlns:svg="http://www.w3.org/2000/svg"><sodipodi:namedview
     id="namedview3"
     pagecolor="#ffffff"
     bordercolor="#000000"
     borderopacity="0.25"
     inkscape:showpageshadow="2"
     inkscape:pageopacity="0.0"
     inkscape:pagecheckerboard="0"
     inkscape:deskcolor="#d1d1d1"
     inkscape:zoom="17.931023"
     inkscape:cx="5.0750032"
     inkscape:cy="11.265392"
     inkscape:window-width="1312"
     inkscape:window-height="605"
     inkscape:window-x="65"
     inkscape:window-y="25"
     inkscape:window-maximized="0"
     inkscape:current-layer="g4779" /><defs
     id="defs1"><style
       id="style1">.e{stroke:#000;stroke-linecap:round;stroke-linejoin:round;}.e,.f{fill:none;}.f{opacity:.2;stroke-width:0px;}</style><clipPath
       clipPathUnits="userSpaceOnUse"
       id="clipPath3761"><path
         d="M 0,1205.777 H 2738.234 V 0 H 0 Z"
         transform="translate(-1062.36,-340.07301)"
         id="path3761" /></clipPath><clipPath
       clipPathUnits="userSpaceOnUse"
       id="clipPath3763"><path
         d="M 0,1205.777 H 2738.234 V 0 H 0 Z"
         transform="translate(-1062.2632,-337.60821)"
         id="path3763" /></clipPath><clipPath
       clipPathUnits="userSpaceOnUse"
       id="clipPath3765"><path
         d="M 0,1205.777 H 2738.234 V 0 H 0 Z"
         transform="translate(-1062.2632,-335.39121)"
         id="path3765" /></clipPath><clipPath
       clipPathUnits="userSpaceOnUse"
       id="clipPath3767"><path
         d="M 0,1205.777 H 2738.234 V 0 H 0 Z"
         transform="translate(-1062.4291,-333.34101)"
         id="path3767" /></clipPath><clipPath
       clipPathUnits="userSpaceOnUse"
       id="clipPath3769"><path
         d="M 0,1205.777 H 2738.234 V 0 H 0 Z"
         transform="translate(-1062.9171,-331.61488)"
         id="path3769" /></clipPath><clipPath
       clipPathUnits="userSpaceOnUse"
       id="clipPath3771"><path
         d="M 0,1205.777 H 2738.234 V 0 H 0 Z"
         transform="translate(-1063.7688,-330.25498)"
         id="path3771" /></clipPath><clipPath
       clipPathUnits="userSpaceOnUse"
       id="clipPath3773"><path
         d="M 0,1205.777 H 2738.234 V 0 H 0 Z"
         transform="translate(-1064.9308,-329.20708)"
         id="path3773" /></clipPath><clipPath
       clipPathUnits="userSpaceOnUse"
       id="clipPath3775"><path
         d="M 0,1205.777 H 2738.234 V 0 H 0 Z"
         transform="translate(-1066.5945,-328.66393)"
         id="path3775" /></clipPath><clipPath
       clipPathUnits="userSpaceOnUse"
       id="clipPath3777"><path
         d="M 0,1205.777 H 2738.234 V 0 H 0 Z"
         transform="translate(-1069.0444,-328.91211)"
         id="path3777" /></clipPath><clipPath
       clipPathUnits="userSpaceOnUse"
       id="clipPath3918"><path
         d="M 0,1205.777 H 2738.234 V 0 H 0 Z"
         transform="translate(-964.05505,-422.70974)"
         id="path3918" /></clipPath><clipPath
       clipPathUnits="userSpaceOnUse"
       id="clipPath3920"><path
         d="M 0,1205.777 H 2738.234 V 0 H 0 Z"
         transform="translate(-975.25705,-427.27334)"
         id="path3920" /></clipPath><clipPath
       clipPathUnits="userSpaceOnUse"
       id="clipPath3922"><path
         d="M 0,1205.777 H 2738.234 V 0 H 0 Z"
         transform="translate(-965.65892,-422.15909)"
         id="path3922" /></clipPath><clipPath
       clipPathUnits="userSpaceOnUse"
       id="clipPath3924"><path
         d="M 0,1205.777 H 2738.234 V 0 H 0 Z"
         transform="translate(-967.69502,-426.07514)"
         id="path3924" /></clipPath><clipPath
       clipPathUnits="userSpaceOnUse"
       id="clipPath3926"><path
         d="M 0,1205.777 H 2738.234 V 0 H 0 Z"
         transform="translate(-966.9304,-423.85139)"
         id="path3926" /></clipPath><clipPath
       clipPathUnits="userSpaceOnUse"
       id="clipPath3928"><path
         d="M 0,1205.777 H 2738.234 V 0 H 0 Z"
         transform="translate(-975.6979,-429.85529)"
         id="path3928" /></clipPath><clipPath
       clipPathUnits="userSpaceOnUse"
       id="clipPath3930"><path
         d="M 0,1205.777 H 2738.234 V 0 H 0 Z"
         transform="translate(-973.447,-432.10731)"
         id="path3930" /></clipPath><clipPath
       clipPathUnits="userSpaceOnUse"
       id="clipPath2494"><path
         d="M 0,1205.777 H 2738.234 V 0 H 0 Z"
         transform="translate(-1006.1637,-427.52789)"
         id="path2494" /></clipPath><clipPath
       clipPathUnits="userSpaceOnUse"
       id="clipPath2505"><path
         d="M 0,1205.777 H 2738.234 V 0 H 0 Z"
         transform="translate(0,2.5000001e-5)"
         id="path2505" /></clipPath><clipPath
       clipPathUnits="userSpaceOnUse"
       id="clipPath2507"><path
         d="M 0,1205.777 H 2738.234 V 0 H 0 Z"
         transform="translate(0,2.5000001e-5)"
         id="path2507" /></clipPath><clipPath
       clipPathUnits="userSpaceOnUse"
       id="clipPath2509"><path
         d="M 0,1205.777 H 2738.234 V 0 H 0 Z"
         transform="translate(0,2.5000001e-5)"
         id="path2509" /></clipPath><clipPath
       clipPathUnits="userSpaceOnUse"
       id="clipPath2511"><path
         d="M 0,1205.777 H 2738.234 V 0 H 0 Z"
         transform="translate(0,2.5000001e-5)"
         id="path2511" /></clipPath><clipPath
       clipPathUnits="userSpaceOnUse"
       id="clipPath2513"><path
         d="M 0,1205.777 H 2738.234 V 0 H 0 Z"
         transform="translate(0,2.5000001e-5)"
         id="path2513" /></clipPath><clipPath
       clipPathUnits="userSpaceOnUse"
       id="clipPath2515"><path
         d="M 0,1205.777 H 2738.234 V 0 H 0 Z"
         transform="translate(-1130.1741,-427.58684)"
         id="path2515" /></clipPath><clipPath
       clipPathUnits="userSpaceOnUse"
       id="clipPath2517"><path
         d="M 0,1205.777 H 2738.234 V 0 H 0 Z"
         transform="translate(-1133.0022,-428.29409)"
         id="path2517" /></clipPath><clipPath
       clipPathUnits="userSpaceOnUse"
       id="clipPath2505-0"><path
         d="M 0,1205.777 H 2738.234 V 0 H 0 Z"
         transform="translate(0,2.5000001e-5)"
         id="path2505-4" /></clipPath><clipPath
       clipPathUnits="userSpaceOnUse"
       id="clipPath4433"><path
         d="M 0,1205.777 H 2738.234 V 0 H 0 Z"
         transform="translate(0,2.5000001e-5)"
         id="path4433" /></clipPath><clipPath
       clipPathUnits="userSpaceOnUse"
       id="clipPath4435"><path
         d="M 0,1205.777 H 2738.234 V 0 H 0 Z"
         transform="translate(0,2.5000001e-5)"
         id="path4435" /></clipPath><clipPath
       clipPathUnits="userSpaceOnUse"
       id="clipPath4431"><path
         d="M 0,1205.777 H 2738.234 V 0 H 0 Z"
         transform="translate(0,2.5000001e-5)"
         id="path4431" /></clipPath><clipPath
       clipPathUnits="userSpaceOnUse"
       id="clipPath4451"><path
         d="M 0,1205.777 H 2738.234 V 0 H 0 Z"
         transform="translate(0,2.5000001e-5)"
         id="path4451" /></clipPath><clipPath
       clipPathUnits="userSpaceOnUse"
       id="clipPath4453"><path
         d="M 0,1205.777 H 2738.234 V 0 H 0 Z"
         transform="translate(0,2.5000001e-5)"
         id="path4453" /></clipPath><clipPath
       clipPathUnits="userSpaceOnUse"
       id="clipPath4455"><path
         d="M 0,1205.777 H 2738.234 V 0 H 0 Z"
         transform="translate(0,2.5000001e-5)"
         id="path4455" /></clipPath><clipPath
       clipPathUnits="userSpaceOnUse"
       id="clipPath4449"><path
         d="M 0,1205.777 H 2738.234 V 0 H 0 Z"
         transform="translate(0,2.5000001e-5)"
         id="path4449" /></clipPath><clipPath
       clipPathUnits="userSpaceOnUse"
       id="clipPath4447"><path
         d="M 0,1205.777 H 2738.234 V 0 H 0 Z"
         transform="translate(-1307.7345,-464.06881)"
         id="path4447" /></clipPath><clipPath
       clipPathUnits="userSpaceOnUse"
       id="clipPath4445"><path
         d="M 0,1205.777 H 2738.234 V 0 H 0 Z"
         transform="translate(-1307.7345,-468.35451)"
         id="path4445" /></clipPath><clipPath
       clipPathUnits="userSpaceOnUse"
       id="clipPath4457"><path
         d="M 0,1205.777 H 2738.234 V 0 H 0 Z"
         transform="translate(-1304.1229,-451.35411)"
         id="path4457" /></clipPath><clipPath
       clipPathUnits="userSpaceOnUse"
       id="clipPath4459"><path
         d="M 0,1205.777 H 2738.234 V 0 H 0 Z"
         transform="translate(0,2.5000001e-5)"
         id="path4459" /></clipPath><clipPath
       clipPathUnits="userSpaceOnUse"
       id="clipPath4461"><path
         d="M 0,1205.777 H 2738.234 V 0 H 0 Z"
         transform="translate(0,2.5000001e-5)"
         id="path4461" /></clipPath><clipPath
       clipPathUnits="userSpaceOnUse"
       id="clipPath4463"><path
         d="M 0,1205.777 H 2738.234 V 0 H 0 Z"
         transform="translate(-1311.5344,-435.35451)"
         id="path4463" /></clipPath><clipPath
       clipPathUnits="userSpaceOnUse"
       id="clipPath4465"><path
         d="M 0,1205.777 H 2738.234 V 0 H 0 Z"
         transform="translate(0,2.5000001e-5)"
         id="path4465" /></clipPath><clipPath
       clipPathUnits="userSpaceOnUse"
       id="clipPath4467"><path
         d="M 0,1205.777 H 2738.234 V 0 H 0 Z"
         transform="translate(0,2.5000001e-5)"
         id="path4467" /></clipPath><clipPath
       clipPathUnits="userSpaceOnUse"
       id="clipPath4441"><path
         d="M 0,1205.777 H 2738.234 V 0 H 0 Z"
         transform="translate(-1303.7346,-480.35451)"
         id="path4441" /></clipPath><clipPath
       clipPathUnits="userSpaceOnUse"
       id="clipPath4443"><path
         d="M 0,1205.777 H 2738.234 V 0 H 0 Z"
         transform="translate(0,2.5000001e-5)"
         id="path4443" /></clipPath><clipPath
       clipPathUnits="userSpaceOnUse"
       id="clipPath4437"><path
         d="M 0,1205.777 H 2738.234 V 0 H 0 Z"
         transform="translate(-1311.7345,-496.35451)"
         id="path4437" /></clipPath><clipPath
       clipPathUnits="userSpaceOnUse"
       id="clipPath4439"><path
         d="M 0,1205.777 H 2738.234 V 0 H 0 Z"
         transform="translate(0,2.5000001e-5)"
         id="path4439" /></clipPath><clipPath
       clipPathUnits="userSpaceOnUse"
       id="clipPath4469"><path
         d="M 0,1205.777 H 2738.234 V 0 H 0 Z"
         transform="translate(-871.38212,-357.08721)"
         id="path4469" /></clipPath><clipPath
       clipPathUnits="userSpaceOnUse"
       id="clipPath4471"><path
         d="M 0,1205.777 H 2738.234 V 0 H 0 Z"
         transform="translate(-879.2344,-350.35453)"
         id="path4471" /></clipPath><clipPath
       clipPathUnits="userSpaceOnUse"
       id="clipPath4473"><path
         d="M 0,1205.777 H 2738.234 V 0 H 0 Z"
         transform="translate(-867.73442,-354.35451)"
         id="path4473" /></clipPath><clipPath
       clipPathUnits="userSpaceOnUse"
       id="clipPath4475"><path
         d="M 0,1205.777 H 2738.234 V 0 H 0 Z"
         transform="translate(-867.73442,-341.35453)"
         id="path4475" /></clipPath><clipPath
       clipPathUnits="userSpaceOnUse"
       id="clipPath4477"><path
         d="M 0,1205.777 H 2738.234 V 0 H 0 Z"
         transform="translate(-882.73442,-340.35448)"
         id="path4477" /></clipPath><clipPath
       clipPathUnits="userSpaceOnUse"
       id="clipPath4479"><path
         d="M 0,1205.777 H 2738.234 V 0 H 0 Z"
         transform="translate(-882.73442,-353.35453)"
         id="path4479" /></clipPath><clipPath
       clipPathUnits="userSpaceOnUse"
       id="clipPath4624"><path
         d="M 0,1205.777 H 2738.234 V 0 H 0 Z"
         transform="translate(-1345.0555,-398.38183)"
         id="path4624" /></clipPath><clipPath
       clipPathUnits="userSpaceOnUse"
       id="clipPath4626"><path
         d="M 0,1205.777 H 2738.234 V 0 H 0 Z"
         transform="translate(-1338.6937,-397.89433)"
         id="path4626" /></clipPath><clipPath
       clipPathUnits="userSpaceOnUse"
       id="clipPath4628"><path
         d="M 0,1205.777 H 2738.234 V 0 H 0 Z"
         transform="translate(-1336.3332,-397.42453)"
         id="path4628" /></clipPath><clipPath
       clipPathUnits="userSpaceOnUse"
       id="clipPath4630"><path
         d="M 0,1205.777 H 2738.234 V 0 H 0 Z"
         transform="translate(-1342.1359,-397.28451)"
         id="path4630" /></clipPath><clipPath
       clipPathUnits="userSpaceOnUse"
       id="clipPath4632"><path
         d="M 0,1205.777 H 2738.234 V 0 H 0 Z"
         transform="translate(-1342.1358,-394.45288)"
         id="path4632" /></clipPath><clipPath
       clipPathUnits="userSpaceOnUse"
       id="clipPath4634"><path
         d="M 0,1205.777 H 2738.234 V 0 H 0 Z"
         transform="translate(-1361.058,-398.38168)"
         id="path4634" /></clipPath><clipPath
       clipPathUnits="userSpaceOnUse"
       id="clipPath4636"><path
         d="M 0,1205.777 H 2738.234 V 0 H 0 Z"
         transform="translate(-1358.6256,-398.59858)"
         id="path4636" /></clipPath><clipPath
       clipPathUnits="userSpaceOnUse"
       id="clipPath3762"><path
         d="M 0,1205.777 H 2738.234 V 0 H 0 Z"
         transform="translate(-843.2344,-522.76671)"
         id="path3762" /></clipPath><clipPath
       clipPathUnits="userSpaceOnUse"
       id="clipPath3764"><path
         d="M 0,1205.777 H 2738.234 V 0 H 0 Z"
         transform="translate(-844.66532,-525.68832)"
         id="path3764" /></clipPath><clipPath
       clipPathUnits="userSpaceOnUse"
       id="clipPath2705"><path
         d="M 0,1205.777 H 2738.234 V 0 H 0 Z"
         transform="translate(-916.21952,-373.35448)"
         id="path2705" /></clipPath><clipPath
       clipPathUnits="userSpaceOnUse"
       id="clipPath2708"><path
         d="M 0,1205.777 H 2738.234 V 0 H 0 Z"
         transform="translate(-903.2344,-369.85453)"
         id="path2708" /></clipPath><clipPath
       clipPathUnits="userSpaceOnUse"
       id="clipPath2710"><path
         d="M 0,1205.777 H 2738.234 V 0 H 0 Z"
         transform="translate(-912.2344,-367.33731)"
         id="path2710" /></clipPath><clipPath
       clipPathUnits="userSpaceOnUse"
       id="clipPath2712"><path
         d="M 0,1205.777 H 2738.234 V 0 H 0 Z"
         transform="translate(-912.2344,-367.33731)"
         id="path2712" /></clipPath><clipPath
       clipPathUnits="userSpaceOnUse"
       id="clipPath2714"><path
         d="M 0,1205.777 H 2738.234 V 0 H 0 Z"
         transform="translate(-911.23442,-366.35451)"
         id="path2714" /></clipPath></defs><g
     id="g4779"
     transform="translate(-1796.9825,-1067.9008)"><g
       id="g1"
       transform="translate(-8.0000003,-0.6666664)"><path
         id="path2704"
         d="m 0,0 h -17.97 c -0.009,0 -0.015,-0.007 -0.015,-0.015 v -15.97 c 0,-0.008 0.006,-0.015 0.015,-0.015 H 0.015 V -0.015 C 0.015,-0.007 0.008,0 0,0 m -0.985,-15 h -16 v 14 h 16 z"
         style="fill:#dddddd icc-color(Display, 0.86698914, 0.86698914, 0.86698914);fill-opacity:1;fill-rule:nonzero;stroke:none"
         transform="matrix(1.3333333,0,0,-1.3333333,1828.9625,1068.9008)"
         clip-path="url(#clipPath2705)" /><path
         id="path2707"
         d="M 0,0 C 0,0.828 -0.672,1.5 -1.5,1.5 -2.328,1.5 -3,0.828 -3,0 c 0,-0.828 0.672,-1.5 1.5,-1.5 0.828,0 1.5,0.672 1.5,1.5"
         style="fill:#dddddd icc-color(Display, 0.86698914, 0.86698914, 0.86698914);fill-opacity:1;fill-rule:nonzero;stroke:none"
         transform="matrix(1.3333333,0,0,-1.3333333,1811.649,1073.5674)"
         clip-path="url(#clipPath2708)" /><path
         id="path2709"
         d="M 0,0 -1.615,1.627 -3.028,0 Z"
         style="fill:#dddddd icc-color(Display, 0.86698914, 0.86698914, 0.86698914);fill-opacity:1;fill-rule:nonzero;stroke:none"
         transform="matrix(1.3333333,0,0,-1.3333333,1823.649,1076.9237)"
         clip-path="url(#clipPath2710)" /><path
         id="path2711"
         d="m 0,0 v -3.983 h -3 v -3 h -4 v 1 2 H -9.04 L -13,-7.563 v -1.42 H 3 v 5.96 z"
         style="fill:#dddddd icc-color(Display, 0.86698914, 0.86698914, 0.86698914);fill-opacity:1;fill-rule:nonzero;stroke:none"
         transform="matrix(1.3333333,0,0,-1.3333333,1823.649,1076.9237)"
         clip-path="url(#clipPath2712)" /><path
         id="path2713"
         d="M 0,0 H -3 V 3 H -5 V 0 h -3 v -2 h 3 v -3 h 2 v 3 h 3 z"
         style="fill:#dddddd icc-color(Display, 0.86698914, 0.86698914, 0.86698914);fill-opacity:1;fill-rule:nonzero;stroke:none"
         transform="matrix(1.3333333,0,0,-1.3333333,1822.3157,1078.2341)"
         clip-path="url(#clipPath2714)" /></g></g></svg>
