<?xml version="1.0" encoding="UTF-8" standalone="no"?>
<!-- Created with Inkscape (http://www.inkscape.org/) -->

<svg
   width="18"
   height="16"
   viewBox="0 0 4.7624999 4.2333333"
   version="1.1"
   id="svg1"
   xmlns="http://www.w3.org/2000/svg"
   xmlns:svg="http://www.w3.org/2000/svg">
  <defs
     id="defs1" />
  <g
     id="g2180"
     style="clip-rule:evenodd;fill-rule:evenodd;stroke-linejoin:round;stroke-miterlimit:2;fill:#000000"
     transform="matrix(0.26458333,0,0,0.26458333,-224.85786,-178.01312)">
    <path
       d="m 853.091,678.619 c 2.177,2.47 5.081,5.299 8.208,7.652 l 0.44,0.331 3.613,-5.92 -0.556,-0.217 c -1.876,-0.733 -5.913,-3.031 -8.056,-5.318 l -0.729,0.684 c 2.05,2.188 5.755,4.389 7.874,5.335 0,0 -2.424,3.971 -2.424,3.971 -2.902,-2.241 -5.584,-4.869 -7.619,-7.179 z"
       style="fill:#000000"
       id="path1799" />
    <path
       d="m 861.449,674.788 c -0.583,0.834 -1.486,1.782 -2.543,2.737 l -0.465,0.419 0.511,0.36 c 1.093,0.771 2.231,1.464 3.257,2.02 l 0.363,0.197 0.262,-0.318 c 0.832,-1.012 1.55,-1.974 2.037,-2.766 l -0.852,-0.524 c -0.416,0.676 -1.008,1.48 -1.695,2.333 -0.734,-0.411 -1.515,-0.887 -2.285,-1.407 0.921,-0.867 1.699,-1.718 2.23,-2.479 z"
       style="fill:#000000"
       id="path1800" />
    <path
       d="m 856.075,680.34 -0.298,-0.301 -0.346,0.244 c -0.876,0.618 -1.752,1.188 -2.573,1.662 l -0.497,0.286 3.556,4.592 0.392,-0.283 c 0.955,-0.689 1.959,-1.558 2.944,-2.495 l 0.399,-0.379 -0.416,-0.361 c -1.119,-0.971 -2.18,-1.974 -3.161,-2.965 z m -0.413,1.002 c 0.79,0.787 1.627,1.578 2.502,2.353 -0.687,0.637 -1.38,1.233 -2.052,1.746 0,0 -2.262,-2.921 -2.262,-2.921 0.589,-0.357 1.199,-0.754 1.812,-1.178 z"
       style="fill:#000000"
       id="path1801" />
  </g>
</svg>
