<?xml version="1.0" encoding="UTF-8" standalone="no"?>
<!DOCTYPE svg PUBLIC "-//W3C//DTD SVG 1.1//EN" "http://www.w3.org/Graphics/SVG/1.1/DTD/svg11.dtd">
<svg width="100%" height="100%" viewBox="0 0 55 54" version="1.1" xmlns="http://www.w3.org/2000/svg" xmlns:xlink="http://www.w3.org/1999/xlink" xml:space="preserve" xmlns:serif="http://www.serif.com/" style="fill-rule:evenodd;clip-rule:evenodd;stroke-linejoin:round;stroke-miterlimit:2;">
    <g transform="matrix(0.946499,0,0,0.946499,-89.1833,-74.4502)">
        <g transform="matrix(1,0,0,-1,0,261.923)">
            <path d="M139.735,134.674C139.049,134.66 138.377,134.49 137.692,134.473C137.008,134.434 136.317,134.381 135.64,134.252C134.972,134.13 134.332,133.868 133.659,133.749C131.956,133.416 130.388,132.761 128.762,132.315C128.106,132.135 127.442,131.957 126.814,131.677C126.189,131.45 125.576,131.196 124.971,130.912C124.359,130.645 123.747,130.371 123.139,130.087C122.237,129.633 121.312,129.241 120.384,128.842C119.59,128.479 120.16,127.228 120.955,127.591C121.586,127.906 122.231,128.186 122.869,128.474C123.848,128.862 124.813,129.268 125.781,129.637C126.744,130.007 127.708,130.373 128.686,130.797C129.318,131.111 129.979,131.33 130.63,131.559C131.286,131.758 131.951,131.953 132.642,132.119C133.322,132.294 133.988,132.503 134.671,132.607C135.361,132.694 136.026,132.756 136.713,132.889C137.725,133.115 138.754,133.188 139.768,133.123C140.753,133.144 140.72,134.695 139.735,134.674Z" style="fill-rule:nonzero;"/>
        </g>
        <g transform="matrix(1,0,0,-1,0,264.28)">
            <path d="M135.218,134.45C134.584,134.358 133.977,134.128 133.356,133.966C132.744,133.761 132.133,133.545 131.53,133.3C130.915,133.107 130.322,132.894 129.71,132.697C129.093,132.523 128.484,132.313 127.867,132.113C127.246,131.924 126.626,131.736 126.004,131.472C125.062,131.094 125.657,129.611 126.599,129.988C127.219,130.222 127.79,130.495 128.372,130.751C128.957,130.996 129.548,131.211 130.131,131.436C130.723,131.641 131.316,131.801 131.919,131.962C132.54,132.073 133.153,132.184 133.763,132.273C134.363,132.405 134.977,132.436 135.563,132.569C136.758,132.788 136.412,134.669 135.218,134.45Z" style="fill-rule:nonzero;"/>
        </g>
        <g transform="matrix(1,0,0,-1,0,259.204)">
            <path d="M142.333,134.088C141.655,134.127 140.979,134.16 140.303,134.132C139.631,134.12 138.949,134.181 138.284,133.999C137.618,133.854 136.96,133.67 136.32,133.403C135.689,133.074 135.007,133.218 134.338,133.118C133.661,133.083 132.964,133.08 132.294,132.936C131.635,132.738 130.972,132.591 130.351,132.368C129.716,132.167 129.065,131.998 128.435,131.757C127.805,131.527 127.171,131.249 126.617,130.851C126.053,130.496 125.481,130.159 124.9,129.841C124.259,129.665 123.624,129.465 122.963,129.316C122.303,129.147 121.673,128.977 121.092,128.657C120.466,128.447 119.895,128.114 119.286,127.862C118.361,127.512 117.5,127.021 116.577,126.668C115.769,126.296 116.355,125.023 117.163,125.395C117.75,125.755 118.411,125.958 119.015,126.276C119.623,126.589 120.238,126.883 120.863,127.152C121.452,127.5 122.112,127.685 122.686,128.056C123.272,128.419 123.842,128.836 124.443,129.167C124.985,129.639 125.714,129.664 126.362,129.861C127.01,130.031 127.751,130.052 128.384,130.322C129.042,130.523 129.673,130.786 130.311,131.014C130.959,131.233 131.577,131.418 132.253,131.628C132.932,131.758 133.543,132.121 134.187,132.376C134.837,132.594 135.459,132.959 136.16,132.926C136.862,132.902 137.555,132.823 138.229,132.796C138.909,132.677 139.563,132.821 140.227,132.808C140.889,132.781 141.553,132.754 142.217,132.682C143.11,132.608 143.226,134.014 142.333,134.088Z" style="fill-rule:nonzero;"/>
        </g>
        <g transform="matrix(1,0,0,-1,0,255.921)">
            <path d="M144.258,132.851C143.569,132.957 142.884,133.098 142.19,133.149C141.499,133.216 140.804,133.262 140.111,133.25C139.423,133.235 138.727,133.225 138.062,132.935C137.393,132.703 136.738,132.454 136.085,132.222C135.418,132.108 134.764,131.972 134.102,131.822C133.449,131.642 132.772,131.545 132.071,131.488C131.349,131.428 130.718,131.285 130.027,131.194C129.383,130.982 128.702,130.859 128.074,130.575C127.453,130.292 126.86,129.843 126.304,129.492C125.742,129.104 125.136,128.823 124.512,128.576C123.884,128.338 123.28,128.037 122.657,127.773C122.037,127.526 121.441,127.232 120.758,127.119C120.102,126.949 119.442,126.781 118.787,126.602C118.143,126.401 117.559,126.07 116.943,125.81C116.335,125.531 115.742,125.225 115.136,124.949C114.57,124.708 113.816,124.337 113.452,124.209C112.684,123.868 113.221,122.659 113.989,123C114.331,123.184 115.115,123.503 115.671,123.774C116.585,124.187 117.516,124.567 118.417,125.01C119.054,125.228 119.579,125.684 120.146,126.05C120.705,126.433 121.251,126.841 121.827,127.183C122.421,127.474 123.029,127.766 123.654,128.019C124.271,128.288 124.878,128.575 125.508,128.796C126.148,129.003 126.813,129.093 127.494,129.205C128.196,129.274 128.83,129.492 129.448,129.753C130.063,130.02 130.69,130.235 131.28,130.563C131.886,130.847 132.522,131.156 133.15,131.428C133.808,131.597 134.465,131.753 135.124,131.868C135.768,132.019 136.458,132.085 137.145,131.96C137.827,131.898 138.499,131.732 139.149,131.692C139.799,131.695 140.44,131.693 141.094,131.682C142.071,131.66 143.058,131.604 144.051,131.481C144.921,131.349 145.128,132.719 144.258,132.851Z" style="fill-rule:nonzero;"/>
        </g>
        <g transform="matrix(1,0,0,-1,0,252.5)">
            <path d="M145.804,131.486C145.126,131.635 144.448,131.757 143.773,131.843C143.098,131.942 142.42,132 141.743,132.03C141.063,132.05 140.383,131.807 139.722,131.681C139.056,131.547 138.414,131.302 137.746,131.322C137.083,131.276 136.427,131.135 135.763,131.052C135.114,130.934 134.476,130.75 133.824,130.612C133.182,130.429 132.529,130.275 131.876,130.097C131.225,129.899 130.53,129.984 129.849,129.898C129.189,129.782 128.398,129.982 127.888,129.406C127.314,129.008 126.752,128.573 126.206,128.207C125.658,127.819 125.011,127.665 124.413,127.384C123.809,127.118 123.192,126.877 122.587,126.601C121.99,126.336 121.393,126.066 120.778,125.834C119.821,125.561 118.76,125.501 117.892,125.028C117.352,124.63 116.81,124.235 116.209,123.971C115.627,123.666 114.987,123.49 114.35,123.314C113.729,123.111 113.136,122.829 112.516,122.613C111.919,122.349 111.336,122.056 110.731,121.823C110.041,121.537 110.491,120.45 111.182,120.736C111.798,121.008 112.437,121.232 113.059,121.504C113.657,121.833 114.294,122.066 114.866,122.434C115.438,122.806 116.009,123.181 116.65,123.404C117.249,123.72 117.965,123.782 118.593,124.034C119.212,124.305 119.739,124.774 120.296,125.179C120.817,125.66 121.455,125.886 122.057,126.185C122.66,126.459 123.298,126.736 123.913,127.016C124.537,127.283 125.155,127.556 125.778,127.811C126.438,127.996 127.108,128.05 127.828,128.13C128.545,128.173 129.235,128.239 129.769,128.755C130.352,129.134 130.924,129.546 131.534,129.858C132.197,130.066 132.856,130.279 133.53,130.407C134.195,130.57 134.865,130.689 135.533,130.782C136.193,130.92 136.881,130.985 137.551,131.069C138.22,131.175 138.902,131.18 139.574,131.007C140.245,130.904 140.898,130.673 141.548,130.559C142.204,130.521 142.859,130.438 143.519,130.361C144.177,130.27 144.841,130.164 145.513,130.042C146.43,129.857 146.721,131.301 145.804,131.486Z" style="fill-rule:nonzero;"/>
        </g>
        <g transform="matrix(1,0,0,-1,0,248.973)">
            <path d="M147.054,129.964C146.389,130.114 145.724,130.25 145.059,130.356C143.72,130.601 142.364,130.788 141.011,130.803C140.332,130.782 139.659,130.58 139.001,130.409C138.343,130.191 137.7,130.009 137.035,129.961C136.376,129.869 135.71,129.759 135.068,129.634C134.42,129.504 133.769,129.363 133.116,129.206C132.469,129.045 131.809,128.849 131.181,128.642C130.56,128.427 129.939,128.215 129.22,128.252C128.492,128.312 127.867,128.046 127.239,127.795C126.653,127.419 126.141,126.983 125.573,126.625C124.974,126.357 124.358,126.121 123.754,125.848C123.153,125.578 122.521,125.338 121.937,125.062C121.344,124.785 120.728,124.554 120.142,124.255C119.252,123.832 118.36,123.409 117.457,123.01C116.854,122.748 116.258,122.469 115.646,122.229C115.017,122.028 114.356,121.9 113.715,121.738C113.08,121.55 112.404,121.44 111.835,121.105C111.235,120.839 110.629,120.594 110.021,120.365C109.409,120.14 108.824,119.875 108.247,119.655C107.486,119.369 107.935,118.17 108.696,118.456C109.302,118.675 109.938,118.893 110.56,119.165C111.179,119.437 111.805,119.699 112.433,119.96C113.386,120.333 114.226,120.974 115.064,121.549C115.603,121.989 116.229,122.237 116.832,122.54C117.443,122.824 118.039,123.142 118.66,123.405C119.275,123.682 119.881,123.978 120.503,124.235C121.118,124.508 121.719,124.81 122.334,125.075C122.943,125.356 123.566,125.645 124.19,125.903C124.826,126.134 125.396,126.522 126.089,126.597C126.755,126.731 127.508,126.629 128.117,126.968C128.788,127.114 129.298,127.694 129.896,128.044C130.493,128.408 131.155,128.503 131.814,128.706C132.818,128.969 133.806,129.249 134.803,129.444C135.465,129.571 136.126,129.703 136.808,129.775C137.48,129.865 138.158,129.944 138.839,129.75C139.515,129.638 140.174,129.479 140.823,129.369C141.476,129.336 142.13,129.296 142.787,129.227C143.443,129.167 144.109,129.083 144.763,128.97C145.411,128.845 146.062,128.703 146.714,128.539C147.618,128.323 147.959,129.748 147.054,129.964Z" style="fill-rule:nonzero;"/>
        </g>
        <g transform="matrix(1,0,0,-1,0,245.245)">
            <path d="M148.073,128.271C147.406,128.455 146.739,128.627 146.069,128.769C144.745,129.028 143.352,129.251 141.99,129.266C141.306,129.268 140.626,129.292 139.946,129.259C139.264,129.29 138.59,129.086 137.932,128.886C137.266,128.72 136.634,128.387 135.96,128.33C134.978,128.152 133.997,127.948 133.009,127.709C132.359,127.538 131.679,127.366 131.05,127.171C130.418,126.971 129.789,126.746 129.159,126.513C128.526,126.297 127.76,126.41 127.164,126.056C126.523,125.844 125.941,125.538 125.399,125.105C124.805,124.808 124.177,124.582 123.565,124.313C122.952,124.042 122.332,123.79 121.73,123.526C121.123,123.265 120.525,122.977 119.923,122.698C119.325,122.412 118.731,122.115 118.12,121.853C117.509,121.591 116.908,121.309 116.304,121.035C115.693,120.777 115.109,120.46 114.435,120.349C113.787,120.195 113.117,120.05 112.447,119.923C111.808,119.726 111.237,119.38 110.623,119.141C110.034,118.837 109.421,118.623 108.762,118.497C107.757,118.338 106.842,118.012 106.012,117.423C105.24,117.169 105.64,115.953 106.412,116.207C107.11,116.214 107.763,116.39 108.383,116.657C109.004,116.915 109.562,117.384 110.174,117.611C110.776,117.893 111.431,118.054 112.04,118.335C112.683,118.534 113.25,118.92 113.789,119.362C114.366,119.701 114.862,120.203 115.467,120.474C116.069,120.752 116.667,121.04 117.271,121.315C117.871,121.6 118.465,121.898 119.071,122.17C119.677,122.441 120.289,122.699 120.889,122.978C121.497,123.241 122.089,123.532 122.689,123.81C123.302,124.081 123.91,124.359 124.522,124.622C125.104,124.953 125.779,125.061 126.448,125.156C127.038,125.411 127.715,125.578 128.292,125.945C128.819,126.467 129.515,126.519 130.135,126.76C130.779,126.956 131.388,127.134 132.053,127.343C132.709,127.521 133.358,127.711 134.013,127.859C134.669,127.998 135.315,128.154 135.975,128.238C136.978,128.39 138.01,128.188 138.989,128.065C139.642,128.022 140.284,128.051 140.929,128.002C141.576,127.981 142.217,127.864 142.863,127.789C143.504,127.685 144.16,127.6 144.799,127.475C145.753,127.283 146.723,127.097 147.691,126.84C148.599,126.598 148.981,128.028 148.073,128.271Z" style="fill-rule:nonzero;"/>
        </g>
        <g transform="matrix(1,0,0,-1,0,241.655)">
            <path d="M148.885,126.736C148.227,126.939 147.572,127.145 146.905,127.288C146.243,127.458 145.525,127.333 144.852,127.343C144.152,127.269 143.478,127.332 142.809,127.39C141.803,127.447 140.804,127.494 139.806,127.455C139.141,127.422 138.477,127.378 137.81,127.317C137.135,127.336 136.461,127.256 135.799,127.113C135.134,127.037 134.518,126.711 133.858,126.592C132.878,126.383 131.876,126.086 130.923,125.807C129.972,125.52 129.016,125.207 128.075,124.828C127.403,124.689 126.797,124.366 126.184,124.15C125.559,123.935 124.978,123.604 124.368,123.337C123.753,123.082 123.137,122.82 122.526,122.548C121.914,122.301 121.317,122.019 120.714,121.745C120.108,121.478 119.518,121.174 118.91,120.908C118.004,120.496 117.101,120.076 116.199,119.659C115.623,119.325 114.96,119.184 114.294,119.057C113.642,118.919 112.944,118.828 112.361,118.51C111.78,118.179 111.232,117.777 110.66,117.43C110.057,117.151 109.513,116.784 108.801,116.741C108.127,116.611 107.461,116.484 106.805,116.354C105.875,115.997 104.947,115.685 104.007,115.418C103.329,115.229 103.627,114.161 104.305,114.35C104.972,114.454 105.579,114.751 106.236,114.905C106.913,114.999 107.507,115.361 108.111,115.685C108.726,115.965 109.279,116.488 109.906,116.655C110.513,116.914 111.169,117.061 111.835,117.201C112.484,117.379 113.185,117.451 113.715,117.915C114.269,118.316 114.803,118.727 115.351,119.124C115.933,119.443 116.55,119.689 117.149,119.972C117.752,120.25 118.355,120.527 118.955,120.811C119.552,121.101 120.166,121.352 120.765,121.633C121.367,121.908 121.973,122.17 122.566,122.459C123.176,122.73 123.787,123.004 124.396,123.271C125.011,123.526 125.654,123.705 126.252,123.981C126.843,124.25 127.505,124.42 128.103,124.752C129.387,125.186 130.62,125.639 131.911,126.013C132.569,126.19 133.218,126.38 133.872,126.529C134.52,126.713 135.211,126.652 135.852,126.797C136.518,126.879 137.175,126.98 137.828,127.13C138.489,127.198 139.151,127.235 139.811,127.227C140.798,127.226 141.788,127.181 142.773,127.035C143.43,126.958 144.094,126.834 144.712,126.532C145.336,126.317 145.917,125.926 146.554,125.791C147.188,125.63 147.833,125.493 148.477,125.321C149.376,125.062 149.784,126.477 148.885,126.736Z" style="fill-rule:nonzero;"/>
        </g>
        <g transform="matrix(1,0,0,-1,0,237.973)">
            <path d="M149.531,125.222C148.861,125.471 148.171,125.581 147.504,125.786C146.843,126.017 146.103,125.887 145.416,125.904C144.737,125.946 143.995,125.698 143.339,125.86C142.665,125.936 141.989,125.949 141.319,125.986C140.648,126.017 139.98,126.008 139.309,125.987C138.303,125.958 137.296,125.846 136.287,125.693C135.616,125.566 134.954,125.499 134.296,125.325C133.638,125.166 132.975,125.007 132.322,124.794C131.652,124.598 131.012,124.425 130.373,124.22C129.414,123.915 128.45,123.585 127.49,123.22C126.835,122.992 126.235,122.756 125.616,122.491C125.005,122.221 124.371,121.995 123.775,121.675C122.84,121.269 121.917,120.898 121.01,120.471C119.8,119.906 118.577,119.355 117.361,118.795C116.753,118.515 116.156,118.212 115.531,117.972C114.916,117.712 114.313,117.426 113.701,117.167C113.078,116.905 112.472,116.609 111.84,116.38C110.898,116.018 109.996,115.608 109.057,115.248C108.408,115.027 107.665,115.076 107.001,114.948C106.311,114.889 105.646,114.801 105.035,114.557C104.051,114.378 103.083,114.07 102.125,113.845C101.076,113.608 101.45,111.956 102.499,112.194C103.165,112.372 103.864,112.449 104.519,112.704C105.182,112.98 105.813,113.15 106.458,113.395C107.062,113.739 107.657,114.108 108.243,114.497C108.792,114.976 109.467,115.164 110.072,115.407C110.693,115.647 111.315,115.896 111.925,116.181C112.528,116.478 113.159,116.721 113.772,117.008C114.375,117.289 114.988,117.552 115.588,117.846C116.18,118.16 116.798,118.417 117.406,118.698C118.923,119.407 120.444,120.111 121.963,120.791C122.562,121.064 123.181,121.36 123.796,121.626C124.437,121.841 125.039,122.139 125.663,122.376C126.29,122.622 126.886,122.862 127.525,123.128C128.805,123.609 130.072,124.08 131.346,124.467C131.989,124.699 132.674,124.82 133.33,124.987C133.992,125.146 134.657,125.256 135.311,125.403C135.959,125.535 136.645,125.627 137.309,125.709C137.978,125.791 138.647,125.834 139.314,125.871C139.981,125.904 140.647,125.891 141.314,125.862C141.982,125.84 142.647,125.739 143.313,125.65C143.992,125.65 144.618,125.185 145.239,124.978C145.87,124.743 146.451,124.319 147.111,124.218C147.769,124.091 148.391,123.835 149.062,123.676C150.043,123.378 150.513,124.924 149.531,125.222Z" style="fill-rule:nonzero;"/>
        </g>
        <g transform="matrix(1,0,0,-1,0,233.249)">
            <path d="M149.792,122.099C149.064,122.197 148.497,122.66 147.846,122.94C147.205,123.218 146.595,123.671 145.892,123.695C145.227,123.883 144.524,123.878 143.807,123.776C143.102,123.73 142.403,123.553 141.731,123.606C141.057,123.651 140.383,123.656 139.71,123.617C139.037,123.595 138.364,123.545 137.691,123.47C137.018,123.403 136.34,123.304 135.675,123.166C135.014,123.043 134.356,122.888 133.693,122.733C133.029,122.584 132.363,122.417 131.704,122.206C131.049,122.009 130.425,121.795 129.782,121.579C129.138,121.375 128.501,121.137 127.853,120.915C127.199,120.678 126.585,120.435 125.947,120.231C125.327,119.98 124.714,119.705 124.101,119.424C123.492,119.139 122.88,118.831 122.256,118.593C121.647,118.322 121.036,118.048 120.431,117.761C119.83,117.466 119.22,117.185 118.613,116.901C118.002,116.623 117.393,116.341 116.782,116.063C116.16,115.811 115.557,115.519 114.941,115.261C113.736,114.728 112.472,114.173 111.244,113.655C110.62,113.409 109.999,113.164 109.371,112.95C108.684,112.844 107.987,112.749 107.308,112.654C106.593,112.66 106.017,112.293 105.378,112.114C104.773,111.884 104.105,111.696 103.455,111.552C102.475,111.331 101.502,111.157 100.544,110.974C99.625,110.814 99.878,109.366 100.797,109.527C101.468,109.643 102.138,109.788 102.803,109.969C103.468,110.148 104.126,110.364 104.796,110.553C105.459,110.746 106.109,110.909 106.766,111.11C107.414,111.332 107.983,111.783 108.584,112.135C109.179,112.542 109.746,112.904 110.381,113.113C110.992,113.386 111.612,113.643 112.232,113.909C113.162,114.308 114.097,114.71 114.995,115.141C115.596,115.434 116.211,115.699 116.807,116.009C117.721,116.429 118.629,116.865 119.547,117.277C120.164,117.54 120.774,117.817 121.385,118.089C121.999,118.362 122.59,118.642 123.211,118.93C123.846,119.166 124.474,119.41 125.092,119.67C125.731,119.879 126.314,120.215 126.934,120.452C127.57,120.688 128.2,120.973 128.841,121.192C129.479,121.424 130.116,121.65 130.759,121.837C131.385,122.022 132.068,122.213 132.726,122.382C133.386,122.563 134.044,122.733 134.708,122.851C135.37,122.981 136.027,123.076 136.706,123.161C137.376,123.251 138.046,123.319 138.714,123.354C139.382,123.396 140.049,123.395 140.714,123.365C141.377,123.322 142.054,123.369 142.701,123.107C143.353,122.906 143.985,122.6 144.616,122.365C145.257,122.226 145.883,122.017 146.562,121.999C147.575,121.94 148.66,122.063 149.653,121.658C149.933,121.57 150.072,122.011 149.792,122.099Z" style="fill-rule:nonzero;"/>
        </g>
        <g transform="matrix(1,0,0,-1,0,228.966)">
            <path d="M150.004,119.93C149.668,121.201 148.819,120.856 148.189,121.16C147.516,121.337 146.788,121.269 146.104,121.316C145.407,121.342 144.726,121.253 144.057,121.427C143.379,121.487 142.708,121.57 142.036,121.6C140.022,121.708 138.023,121.588 136.005,121.274C135.01,121.115 134.029,120.882 133.044,120.613C132.39,120.441 131.714,120.25 131.083,120.043C130.448,119.845 129.805,119.654 129.17,119.426C128.53,119.211 127.892,118.979 127.25,118.744C126.606,118.533 126.005,118.281 125.358,118.092C124.685,117.973 124.109,117.612 123.496,117.336C122.842,117.148 122.318,116.671 121.698,116.441C121.085,116.185 120.495,115.876 119.906,115.562C119.308,115.266 118.713,114.964 118.108,114.684C117.488,114.435 116.892,114.135 116.281,113.871C115.667,113.611 115.072,113.314 114.471,113.033C113.574,112.623 112.631,112.219 111.709,111.842C111.123,111.511 110.432,111.438 109.764,111.336C109.113,111.237 108.387,111.166 107.73,111.036C107.109,110.786 106.477,110.58 105.854,110.368C105.222,110.162 104.619,109.974 103.955,109.787C103.308,109.606 102.658,109.467 102.02,109.305C101.055,109.108 100.127,108.701 99.163,108.712C98.307,108.606 98.475,107.258 99.331,107.365C99.987,107.512 100.656,107.53 101.338,107.638C102.017,107.724 102.694,107.858 103.362,108.039C104.028,108.213 104.708,108.41 105.363,108.6C106.006,108.802 106.656,108.999 107.3,109.225C107.937,109.468 108.61,109.633 109.162,110.116C109.746,110.514 110.295,110.888 110.846,111.312C111.45,111.594 112.067,111.851 112.679,112.126C113.29,112.404 113.914,112.667 114.512,112.942C115.121,113.206 115.736,113.46 116.333,113.756C116.932,114.048 117.547,114.307 118.139,114.617C118.744,114.897 119.359,115.155 119.973,115.415C120.595,115.657 121.214,115.901 121.812,116.189C122.395,116.501 123.098,116.57 123.678,116.919C124.296,117.178 124.951,117.341 125.508,117.73C126.097,118.052 126.705,118.284 127.321,118.559C127.953,118.815 128.588,119.052 129.221,119.281C129.857,119.498 130.486,119.725 131.122,119.916C131.759,120.098 132.432,120.289 133.085,120.45C134.737,120.824 136.363,121.134 138.038,121.295C139.035,121.392 140.029,121.407 141.021,121.361C141.682,121.326 142.344,121.267 143.006,121.182C143.663,121.077 144.341,121.007 144.977,120.804C145.608,120.576 146.223,120.279 146.84,120.003C147.814,119.731 148.579,118.871 149.923,119.678C150.083,119.626 150.164,119.879 150.004,119.93Z" style="fill-rule:nonzero;"/>
        </g>
        <g transform="matrix(1,0,0,-1,0,224.33)">
            <path d="M150.285,118.291C149.584,118.332 148.969,118.686 148.276,118.83C147.602,119.018 146.921,119.163 146.245,119.308C145.543,119.336 144.893,119.549 144.164,119.409C143.445,119.267 142.765,119.31 142.079,119.21C141.404,119.232 140.734,119.302 140.061,119.282C139.053,119.254 138.046,119.17 137.035,119.05C135.673,118.872 134.376,118.612 133.037,118.292C132.376,118.134 131.703,117.916 131.065,117.72C130.11,117.413 129.138,117.121 128.158,116.817C127.51,116.611 126.779,116.548 126.167,116.318C125.489,116.21 124.82,116.062 124.206,115.778C123.56,115.571 122.9,115.384 122.313,115.028C121.694,114.775 121.118,114.422 120.578,113.992C120.034,113.573 119.448,113.243 118.889,112.855C118.303,112.526 117.695,112.244 117.109,111.914C116.513,111.606 115.909,111.318 115.296,111.053C114.693,110.761 114.081,110.51 113.468,110.232C112.814,110.038 112.106,109.979 111.437,109.848C110.747,109.762 110.075,109.66 109.497,109.333C108.914,109.042 108.218,108.904 107.604,108.647C106.98,108.396 106.324,108.255 105.719,107.983C105.098,107.755 104.462,107.605 103.802,107.424C102.497,107.093 101.239,106.674 99.936,106.508C99.282,106.428 98.637,106.327 97.99,106.276C97.087,106.203 97.201,104.781 98.104,104.853C98.786,104.909 99.473,104.965 100.153,105.089C100.832,105.225 101.508,105.304 102.19,105.431C102.869,105.555 103.552,105.693 104.223,105.893C104.909,106.082 105.542,106.316 106.198,106.5C106.87,106.641 107.492,106.941 108.147,107.155C108.8,107.358 109.424,107.726 110.059,107.917C110.716,108.08 111.28,108.488 111.827,108.924C112.394,109.316 112.923,109.793 113.506,110.146C114.125,110.412 114.719,110.704 115.335,110.966C115.939,111.253 116.551,111.524 117.172,111.778C117.803,112.009 118.412,112.29 119.042,112.523C119.7,112.697 120.331,112.926 121.003,113.062C121.679,113.186 122.32,113.382 122.917,113.669C123.568,113.863 124.145,114.215 124.735,114.535C125.358,114.776 125.925,115.141 126.483,115.528C127.077,115.781 127.655,116.224 128.279,116.487C129.218,116.889 130.163,117.252 131.123,117.532C132.092,117.818 133.102,118.074 134.08,118.316C135.701,118.698 137.404,118.95 139.064,119.023C139.732,119.038 140.395,119.036 141.061,119.03C141.73,119.064 142.394,118.903 143.043,118.71C143.69,118.491 144.315,118.122 144.95,117.98C145.574,117.753 146.222,117.636 146.865,117.461C147.813,117.188 148.854,117.006 149.738,116.584C150.822,116.236 151.37,117.943 150.285,118.291Z" style="fill-rule:nonzero;"/>
        </g>
        <g transform="matrix(1,0,0,-1,0,220.085)">
            <path d="M149.922,115.738C149.363,116.183 148.829,116.88 148.113,116.908C147.441,117.088 146.745,117.155 146.067,117.258C145.381,117.335 144.724,117.467 144.009,117.398C143.314,117.406 142.617,117.257 141.947,117.277C141.276,117.33 140.607,117.347 139.937,117.353C138.931,117.346 137.927,117.227 136.922,117.089C135.24,116.86 133.618,116.493 131.955,116.04C131.281,115.857 130.666,115.666 130.023,115.45C129.069,115.127 128.108,114.799 127.101,114.553C126.438,114.402 125.788,114.251 125.115,114.121C124.457,113.958 123.816,113.74 123.194,113.477C122.576,113.194 121.952,112.952 121.35,112.67C120.733,112.415 120.123,112.145 119.548,111.796C118.939,111.523 118.435,111.021 117.821,110.761C117.187,110.541 116.591,110.242 115.99,109.957C115.382,109.686 114.895,109.155 114.338,108.777C113.77,108.442 113.176,108.097 112.551,107.859C111.932,107.599 111.319,107.333 110.705,107.078C110.086,106.82 109.486,106.591 108.84,106.355C108.204,106.111 107.56,105.901 106.928,105.67C106.295,105.445 105.659,105.24 105.018,105.072C104.368,104.883 103.698,104.722 103.047,104.546C102.421,104.249 101.681,104.462 101.005,104.511C100.341,104.524 99.602,104.877 98.982,104.633C98.327,104.579 97.687,104.528 97.046,104.237C96.168,104.2 96.225,102.818 97.103,102.854C97.806,102.618 98.511,102.678 99.203,102.784C99.918,102.699 100.567,103.27 101.191,103.526C101.829,103.823 102.404,104.327 103.094,104.357C103.756,104.507 104.417,104.715 105.064,104.917C105.693,105.133 106.329,105.341 106.968,105.555C107.609,105.762 108.239,106.017 108.876,106.26C109.517,106.515 110.11,106.761 110.732,107.012C111.349,107.263 111.967,107.518 112.58,107.791C113.181,108.084 113.836,108.293 114.464,108.495C115.118,108.66 115.841,108.68 116.445,108.965C117.055,109.235 117.67,109.496 118.248,109.836C118.845,110.135 119.552,110.194 120.154,110.477C120.791,110.685 121.392,110.968 121.986,111.259C122.591,111.521 123.184,111.821 123.804,112.078C124.413,112.352 125.004,112.659 125.577,113.006C126.137,113.387 126.705,113.726 127.292,114.059C128.502,114.706 129.782,115.14 131.05,115.525C132.005,115.822 133.005,116.119 133.985,116.334C135.604,116.702 137.292,116.971 138.948,117.014C139.611,117.029 140.271,117.063 140.933,117.046C141.592,117.016 142.269,117.063 142.907,116.76C143.555,116.584 144.194,116.319 144.827,116.143C145.468,116.01 146.092,115.778 146.728,115.59C147.684,115.32 148.598,114.839 149.788,115.316C150.056,115.232 150.189,115.653 149.922,115.738Z" style="fill-rule:nonzero;"/>
        </g>
        <g transform="matrix(1,0,0,-1,0,215.474)">
            <path d="M149.72,114.145C149.024,114.302 148.349,114.406 147.68,114.561C147.004,114.672 146.356,114.888 145.678,114.943C145,114.971 144.306,114.936 143.618,114.868C142.938,114.838 142.281,114.926 141.617,114.942C140.954,114.975 140.294,114.959 139.634,114.942C138.645,114.902 137.653,114.816 136.66,114.677C135.332,114.501 134.046,114.236 132.741,113.877C131.405,113.501 130.185,113.173 128.909,112.719C128.277,112.501 127.65,112.259 127.003,112.055C126.371,111.878 125.694,111.798 125.048,111.628C124.412,111.435 123.689,111.432 123.126,111.05C122.543,110.706 121.867,110.611 121.312,110.238C120.726,109.937 120.048,109.834 119.49,109.467C118.872,109.231 118.303,108.89 117.788,108.433C117.243,108.042 116.723,107.595 116.163,107.237C115.601,106.883 114.993,106.634 114.4,106.354C113.81,106.085 113.191,105.82 112.588,105.55C111.98,105.284 111.372,105.027 110.764,104.779C109.569,104.302 108.289,103.809 107.038,103.371C106.089,103.039 105.177,102.743 104.189,102.48C103.539,102.295 102.885,102.149 102.236,102.002C101.6,101.794 100.917,101.844 100.239,101.934C99.564,101.924 98.875,102.216 98.249,102.007C97.607,101.937 96.965,101.838 96.323,101.892C95.444,101.883 95.458,100.499 96.337,100.508C97.027,100.574 97.719,100.55 98.414,100.595C99.122,100.531 99.77,100.988 100.433,101.202C101.065,101.557 101.704,101.762 102.375,101.884C103.038,102.035 103.696,102.227 104.361,102.413C106.302,102.977 108.242,103.655 110.115,104.425C111.651,105.059 113.227,105.73 114.744,106.416C115.357,106.683 115.96,106.975 116.627,107.131C117.308,107.255 117.956,107.455 118.645,107.565C119.325,107.693 119.912,108.022 120.532,108.273C121.142,108.546 121.68,108.976 122.33,109.153C122.928,109.424 123.537,109.745 124.168,109.969C124.767,110.273 125.295,110.739 125.889,111.048C126.469,111.407 126.996,111.814 127.66,112.038C128.295,112.294 128.936,112.523 129.573,112.747C130.209,112.972 130.845,113.186 131.479,113.389C132.802,113.792 134.131,114.089 135.446,114.344C136.102,114.472 136.783,114.574 137.451,114.647C138.12,114.732 138.791,114.765 139.459,114.784C140.461,114.814 141.461,114.753 142.462,114.645C143.133,114.601 143.787,114.375 144.42,114.085C145.052,113.826 145.67,113.583 146.327,113.468C147.301,113.234 148.251,112.902 149.213,112.5C150.258,112.179 150.764,113.823 149.72,114.145Z" style="fill-rule:nonzero;"/>
        </g>
        <g transform="matrix(1,0,0,-1,0,210.207)">
            <path d="M149.037,111.237C148.385,111.436 147.705,111.516 147.05,111.663C146.406,111.869 145.716,111.829 145.08,112.024C144.419,112.111 143.721,112.086 143.066,112.266C142.393,112.312 141.733,112.522 141.056,112.581C140.382,112.655 139.701,112.657 139.026,112.6C138.349,112.556 137.67,112.519 136.997,112.407C136.325,112.302 135.654,112.114 135.009,111.956C134.366,111.75 133.676,111.743 133.022,111.548C132.396,111.259 131.756,110.973 131.165,110.625C130.603,110.216 129.93,110.155 129.31,109.906C128.057,109.477 126.773,108.974 125.565,108.535C124.958,108.283 124.272,108.21 123.63,108.019C122.978,107.863 122.272,107.777 121.695,107.478C121.107,107.185 120.468,106.998 119.884,106.692C119.274,106.442 118.734,106.039 118.18,105.668C117.648,105.25 117.128,104.806 116.557,104.475C115.987,104.14 115.395,103.855 114.798,103.586C114.197,103.319 113.595,103.082 112.982,102.812C111.768,102.28 110.575,101.722 109.36,101.254C108.736,101.012 108.108,100.768 107.48,100.549C106.856,100.316 106.219,100.134 105.592,99.939C104.982,99.742 104.274,99.692 103.586,99.702C102.891,99.725 102.203,99.795 101.561,99.719C100.916,99.638 100.314,99.454 99.67,99.312C99.04,99.138 98.398,99.068 97.761,98.99C97.114,98.911 96.512,98.833 95.818,98.73C95.168,98.737 95.156,97.715 95.805,97.707C96.541,97.588 97.198,97.55 97.899,97.568C98.59,97.586 99.279,97.656 99.982,97.676C100.686,97.74 101.372,97.76 102.032,98.011C102.698,98.212 103.314,98.618 103.933,98.977C104.57,99.29 105.17,99.673 105.809,99.849C106.447,100.058 107.081,100.293 107.723,100.518C109.028,100.987 110.247,101.479 111.499,101.97C112.433,102.338 113.377,102.74 114.275,103.18C114.876,103.469 115.486,103.742 116.109,103.989C116.727,104.248 117.386,104.419 118.065,104.548C118.763,104.636 119.385,104.887 120.036,105.071C120.649,105.338 121.256,105.615 121.85,105.916C122.458,106.187 123.045,106.486 123.598,106.915C124.153,107.325 124.748,107.638 125.311,108.025C125.913,108.318 126.523,108.579 127.138,108.831C127.776,109.083 128.414,109.322 129.05,109.551C129.701,109.736 130.296,110.08 130.975,110.145C131.649,110.173 132.355,110.28 133.037,110.304C133.724,110.328 134.322,110.696 134.987,110.759C135.64,110.856 136.303,110.902 136.966,110.947C137.626,110.988 138.273,111.089 138.925,111.114C139.576,111.141 140.221,111.132 140.871,111.17C141.52,111.195 142.183,111.274 142.843,111.212C143.51,111.242 144.169,111.048 144.806,110.893C145.461,110.846 146.068,110.543 146.72,110.434C147.362,110.276 147.979,110.004 148.625,109.825C149.521,109.563 149.934,110.975 149.037,111.237Z" style="fill-rule:nonzero;"/>
        </g>
        <g transform="matrix(1,0,0,-1,0,205.655)">
            <path d="M148.083,109.17C147.431,109.358 146.778,109.531 146.116,109.643C145.45,109.771 144.808,109.826 144.118,109.95C143.45,110.123 142.768,110.211 142.085,110.219C141.405,110.288 140.724,110.249 140.045,110.294C139.362,110.39 138.678,110.312 138.003,110.195C137.328,110.083 136.656,109.956 135.98,109.839C135.321,109.651 134.69,109.388 134.054,109.134C133.432,108.833 132.773,108.688 132.115,108.506C130.484,108.061 128.939,107.498 127.344,106.892C126.713,106.644 126.097,106.448 125.474,106.211C124.855,105.974 124.232,105.738 123.62,105.471C123.02,105.178 122.398,104.913 121.805,104.639C121.192,104.392 120.57,104.16 119.975,103.868C119.361,103.617 118.78,103.293 118.136,103.107C117.541,102.812 116.947,102.519 116.355,102.222C115.857,101.718 115.211,101.54 114.62,101.246C114.021,100.975 113.41,100.719 112.796,100.449C111.885,100.036 110.984,99.611 110.065,99.248C109.165,98.891 108.159,98.58 107.219,98.26C106.26,97.945 105.341,97.631 104.368,97.34C103.714,97.155 103.063,96.978 102.408,96.845C101.776,96.598 101.053,96.814 100.399,96.795C99.728,96.76 99.047,96.957 98.42,96.728C97.453,96.593 96.481,96.566 95.522,96.648C94.644,96.67 94.609,95.287 95.488,95.265C96.179,95.319 96.872,95.293 97.564,95.354C98.251,95.431 98.962,95.34 99.64,95.557C100.32,95.77 100.973,96.021 101.606,96.329C102.246,96.605 102.927,96.696 103.591,96.892C105.289,97.339 106.863,97.814 108.468,98.49C109.114,98.761 109.729,99.024 110.349,99.277C110.974,99.526 111.604,99.77 112.234,100.022C112.865,100.268 113.49,100.558 114.101,100.836C114.717,101.105 115.316,101.412 115.953,101.641C116.663,101.712 117.232,102.091 117.868,102.326C118.533,102.495 119.024,103.043 119.683,103.225C120.285,103.53 120.916,103.771 121.501,104.107C122.098,104.426 122.719,104.653 123.347,104.936C123.989,105.164 124.589,105.481 125.207,105.749C125.831,106.003 126.423,106.329 127.049,106.562C128.99,107.334 130.874,107.94 132.882,108.484C133.545,108.667 134.25,108.652 134.927,108.684C135.607,108.69 136.28,108.693 136.943,108.802C137.609,108.867 138.276,108.856 138.933,108.859C139.588,108.855 140.239,109.034 140.896,108.959C141.552,108.939 142.209,108.883 142.866,108.79C143.524,108.751 144.211,108.725 144.847,108.561C145.803,108.348 146.758,108.097 147.736,107.874C148.559,107.654 148.906,108.949 148.083,109.17Z" style="fill-rule:nonzero;"/>
        </g>
        <g transform="matrix(1,0,0,-1,0,201.25)">
            <path d="M146.822,107.343C146.159,107.464 145.438,107.202 144.847,107.625C144.207,107.877 143.539,108.14 142.848,108.085C142.156,108.005 141.485,108.103 140.807,108.057C140.134,108.101 139.453,108.134 138.783,108.005C138.115,107.901 137.425,107.965 136.77,107.725C136.103,107.56 135.463,107.317 134.834,107.08C134.184,106.928 133.53,106.78 132.878,106.601C131.543,106.226 130.326,105.827 129.047,105.399C128.412,105.185 127.79,104.927 127.132,104.749C126.507,104.523 125.904,104.278 125.283,104.044C124.687,103.757 124.075,103.5 123.471,103.22C122.546,102.805 121.679,102.377 120.765,101.983C120.156,101.731 119.558,101.449 118.959,101.171C118.356,100.901 117.764,100.606 117.168,100.322C116.61,99.953 115.856,100.013 115.302,99.644C114.713,99.346 114.084,99.15 113.547,98.736C113.013,98.296 112.357,98.136 111.767,97.831C110.256,97.171 108.705,96.623 107.108,96.074C106.483,95.842 105.858,95.624 105.23,95.431C104.605,95.229 103.924,95.088 103.279,94.922C102.628,94.761 101.984,94.589 101.331,94.481C100.672,94.429 99.979,94.528 99.311,94.588C98.636,94.716 98.001,94.628 97.359,94.586C96.714,94.549 96.088,94.528 95.429,94.557C94.518,94.583 94.477,93.148 95.388,93.122C96.1,93.112 96.779,93.11 97.476,93.146C98.168,93.162 98.865,93.24 99.525,93.537C100.199,93.766 100.83,94.126 101.484,94.29C102.146,94.435 102.816,94.572 103.482,94.746C104.137,94.933 104.819,95.16 105.45,95.349C106.092,95.549 106.742,95.743 107.386,95.969C108.339,96.307 109.328,96.731 110.23,97.102C110.85,97.355 111.468,97.622 112.094,97.879C112.724,98.122 113.324,98.453 114.035,98.512C114.664,98.747 115.264,99.051 115.883,99.314C116.46,99.668 117.014,100.074 117.651,100.301C118.272,100.562 118.879,100.854 119.491,101.133C120.411,101.547 121.308,102.01 122.233,102.399C122.846,102.658 123.479,102.926 124.102,103.182C124.714,103.469 125.376,103.628 125.972,103.938C126.588,104.208 127.202,104.424 127.833,104.735C128.469,104.993 129.114,105.212 129.751,105.44C130.712,105.78 131.659,106.05 132.68,106.304C133.345,106.473 134.009,106.62 134.669,106.76C135.347,106.827 136.022,106.796 136.705,106.808C137.388,106.76 138.038,106.9 138.701,106.913C139.365,106.87 140.015,106.911 140.672,106.938C141.325,106.874 141.988,106.886 142.631,106.678C143.27,106.473 143.947,106.549 144.629,106.568C145.331,106.796 145.9,106.259 146.528,106.079C147.33,105.892 147.624,107.156 146.822,107.343Z" style="fill-rule:nonzero;"/>
        </g>
        <g transform="matrix(1,0,0,-1,0,196.497)">
            <path d="M145.188,105.123C144.435,105.125 143.805,105.286 143.113,105.312C142.436,105.349 141.774,105.549 141.096,105.659C140.42,105.774 139.732,105.864 139.048,105.814C138.362,105.795 137.69,105.573 137.03,105.36C136.372,105.131 135.727,104.822 135.086,104.666C134.436,104.509 133.782,104.353 133.129,104.174C132.476,104.007 131.808,103.819 131.167,103.634C130.563,103.349 129.824,103.472 129.139,103.377C128.444,103.32 127.788,103.12 127.208,102.722C126.63,102.317 126.127,101.843 125.496,101.623C124.882,101.373 124.278,101.093 123.663,100.831C122.741,100.412 121.853,99.994 120.946,99.587C120.345,99.31 119.733,99.053 119.133,98.77C118.534,98.485 117.932,98.206 117.331,97.925C116.732,97.639 116.133,97.355 115.529,97.085C114.934,96.797 114.314,96.563 113.622,96.501C112.974,96.311 112.205,96.413 111.657,96.014C111.094,95.65 110.568,95.199 110.022,94.791C109.498,94.363 108.818,94.219 108.199,93.95C106.601,93.358 105.081,92.858 103.399,92.466C102.731,92.362 102.109,92.067 101.42,92.123C100.742,92.151 100.074,92.146 99.397,92.233C98.722,92.354 98.098,92.126 97.449,92.124C96.809,92.094 96.152,92.058 95.535,92.099C94.607,92.121 94.572,90.661 95.499,90.638C96.156,90.646 96.855,90.633 97.532,90.68C98.209,90.755 98.912,90.657 99.567,90.955C100.226,91.22 100.875,91.439 101.499,91.728C102.117,92.045 102.803,92.053 103.445,92.288C104.085,92.492 104.767,92.671 105.387,92.876C106.65,93.276 107.914,93.731 109.188,94.207C109.756,94.578 110.533,94.396 111.179,94.583C111.889,94.609 112.527,94.829 113.088,95.219C113.629,95.667 114.166,96.095 114.712,96.486C115.305,96.778 115.905,97.058 116.511,97.328C117.116,97.597 117.72,97.872 118.324,98.148C118.928,98.423 119.534,98.694 120.131,98.98C121.031,99.404 121.93,99.813 122.845,100.198C123.465,100.451 124.077,100.718 124.69,100.973C125.309,101.211 125.895,101.527 126.57,101.607C127.213,101.726 127.988,101.651 128.567,101.984C129.202,102.188 129.736,102.669 130.316,103.029C130.899,103.4 131.53,103.521 132.197,103.723C132.845,103.925 133.504,104.069 134.161,104.194C134.816,104.326 135.465,104.454 136.146,104.397C136.827,104.364 137.503,104.254 138.155,104.219C138.81,104.184 139.447,104.174 140.086,104.277C140.725,104.328 141.374,104.44 142.032,104.476C143.027,104.507 143.973,104.308 144.987,104.024C145.685,103.896 145.886,104.995 145.188,105.123Z" style="fill-rule:nonzero;"/>
        </g>
        <g transform="matrix(1,0,0,-1,0,192.04)">
            <path d="M143.174,103.165C142.5,103.187 141.85,103.573 141.165,103.553C140.481,103.593 139.812,103.24 139.139,103.329C138.459,103.452 137.779,103.388 137.11,103.269C136.425,103.262 135.796,102.801 135.116,102.864C134.447,102.788 133.771,102.709 133.096,102.594C132.436,102.427 131.752,102.296 131.088,102.138C130.449,101.949 129.801,101.773 129.143,101.608C128.454,101.526 127.92,101 127.336,100.628C126.747,100.234 126.284,99.686 125.652,99.478C125.041,99.234 124.432,98.975 123.819,98.72C123.214,98.455 122.595,98.176 122.007,97.903C121.407,97.638 120.811,97.359 120.21,97.088C119.31,96.68 118.399,96.29 117.508,95.86C116.907,95.588 116.325,95.275 115.723,95.01C115.127,94.731 114.523,94.472 113.929,94.197C113.302,93.988 112.766,93.538 112.015,93.616C111.338,93.518 110.659,93.442 110.008,93.319C109.4,93.094 108.853,92.723 108.216,92.494C107.64,92.131 106.928,92.161 106.366,91.785C105.774,91.482 105.21,91.133 104.617,90.794C104.02,90.428 103.354,90.293 102.675,90.279C101.987,90.293 101.308,90.351 100.656,90.342C99.989,90.412 99.365,90.168 98.721,90.122C97.761,89.941 96.819,89.876 95.828,89.934C94.884,89.945 94.867,88.458 95.811,88.447C96.529,88.486 97.181,88.492 97.868,88.523C98.552,88.497 99.23,88.594 99.912,88.667C100.618,88.673 101.23,89.04 101.863,89.313C102.5,89.572 103.077,90.037 103.744,90.152C104.371,90.407 105.129,90.28 105.781,90.383C106.464,90.431 107.15,90.51 107.758,90.821C108.381,91.079 109.05,91.243 109.69,91.464C110.384,91.502 110.917,91.961 111.466,92.366C112.028,92.744 112.518,93.284 113.102,93.608C113.72,93.875 114.307,94.147 114.909,94.418C115.509,94.685 116.101,94.976 116.711,95.225C117.313,95.494 117.918,95.759 118.515,96.039C119.41,96.462 120.3,96.894 121.201,97.295C121.802,97.566 122.391,97.836 123.006,98.092C123.618,98.352 124.225,98.618 124.83,98.881C125.452,99.1 125.999,99.503 126.708,99.487C127.38,99.542 128.097,99.592 128.761,99.684C129.436,99.757 129.996,100.139 130.616,100.338C131.23,100.556 131.835,100.759 132.472,100.995C133.109,101.183 133.741,101.367 134.364,101.58C134.993,101.775 135.607,102.012 136.271,102.02C136.936,102.025 137.58,102.101 138.224,102.161C138.862,102.26 139.505,102.497 140.152,102.303C141.105,101.915 142.082,102.361 143.067,102.225C143.663,102.157 143.771,103.096 143.174,103.165Z" style="fill-rule:nonzero;"/>
        </g>
        <g transform="matrix(1,0,0,-1,0,187.641)">
            <path d="M140.791,101.196C140.073,101.101 139.432,101.181 138.751,101.131C138.076,101.125 137.402,101.068 136.719,101.042C136.035,100.974 135.379,100.825 134.701,100.775C134.04,100.633 133.344,100.623 132.66,100.516C131.986,100.4 131.295,100.2 130.668,100.002C130.032,99.784 129.409,99.519 128.775,99.28C128.172,98.952 127.602,98.537 127.013,98.174C126.451,97.786 125.894,97.425 125.256,97.235C124.336,96.865 123.422,96.457 122.518,96.027C121.925,95.745 121.32,95.484 120.721,95.207C120.121,94.932 119.517,94.663 118.919,94.382C118.249,94.257 117.672,93.927 117.07,93.655C116.446,93.432 115.907,93.023 115.327,92.707C114.425,92.298 113.527,91.915 112.604,91.511C111.984,91.271 111.41,90.927 110.753,90.791C110.068,90.716 109.421,90.613 108.728,90.554C108.031,90.504 107.471,90.108 106.844,89.901C106.224,89.682 105.652,89.317 104.991,89.258C104.348,89.137 103.678,89.003 103.016,88.956C102.374,88.82 101.756,88.608 101.129,88.443C100.512,88.274 99.851,88.205 99.211,88.074C98.246,87.94 97.291,87.601 96.313,87.647C95.587,87.64 95.598,86.498 96.324,86.505C97.001,86.589 97.687,86.445 98.377,86.461C99.065,86.471 99.759,86.501 100.443,86.62C101.119,86.729 101.791,86.806 102.471,86.914C103.159,86.982 103.805,87.254 104.443,87.536C105.108,87.799 105.694,88.066 106.341,88.275C107.019,88.363 107.642,88.634 108.3,88.815C108.969,88.947 109.516,89.511 110.063,89.863C110.623,90.243 111.122,90.76 111.773,90.922C112.689,91.299 113.618,91.714 114.506,92.125C115.112,92.381 115.676,92.734 116.357,92.834C116.962,93.1 117.565,93.371 118.164,93.651C118.733,93.998 119.297,94.352 119.915,94.59C120.512,94.871 121.113,95.144 121.713,95.411C122.308,95.69 122.922,95.93 123.538,96.19C124.154,96.442 124.762,96.705 125.368,96.964C125.952,97.28 126.605,97.407 127.275,97.497C127.949,97.624 128.641,97.677 129.299,97.794C129.926,97.999 130.564,98.154 131.188,98.327C131.794,98.513 132.457,98.703 133.074,98.922C133.695,99.155 134.303,99.449 134.945,99.57C135.566,99.783 136.214,99.858 136.865,99.972C137.506,100.125 138.156,100.202 138.803,100.276C139.459,100.306 140.081,100.416 140.771,100.29C141.346,100.277 141.367,101.184 140.791,101.196Z" style="fill-rule:nonzero;"/>
        </g>
        <g transform="matrix(1,0,0,-1,0,183.131)">
            <path d="M138.067,98.965C137.397,98.854 136.715,98.828 136.047,98.674C135.366,98.61 134.703,98.439 134.027,98.31C133.355,98.155 132.705,97.912 131.994,97.865C131.269,97.782 130.693,97.436 130.012,97.309C129.375,97.06 128.73,96.835 128.045,96.697C127.422,96.408 126.818,95.981 126.269,95.603C125.724,95.164 125.101,94.918 124.474,94.67C123.845,94.426 123.223,94.158 122.611,93.864C121.701,93.442 120.79,93.021 119.874,92.601C119.262,92.325 118.674,91.996 117.986,91.884C117.335,91.69 116.645,91.585 116.048,91.279C115.478,90.916 114.928,90.51 114.361,90.142C113.816,89.746 113.16,89.532 112.545,89.258C111.918,89.008 111.307,88.727 110.686,88.479C110.104,88.118 109.386,88.17 108.689,88.067C107.999,87.958 107.245,88.068 106.653,87.744C106.019,87.537 105.407,87.277 104.774,87.106C104.139,86.881 103.45,86.818 102.8,86.685C102.152,86.527 101.493,86.464 100.865,86.281C100.23,86.147 99.577,86.034 98.94,85.892C98.298,85.764 97.657,85.683 97.014,85.508C96.202,85.476 96.253,84.197 97.065,84.229C97.756,84.107 98.449,84.134 99.143,84.163C99.838,84.177 100.54,84.274 101.219,84.385C101.913,84.449 102.578,84.676 103.255,84.846C103.927,85.041 104.576,85.347 105.251,85.516C105.897,85.729 106.565,85.885 107.213,86.119C107.902,86.237 108.429,86.815 109.022,87.195C109.621,87.587 110.104,88.117 110.772,88.27C111.39,88.53 112.018,88.774 112.63,89.062C113.252,89.323 113.851,89.665 114.51,89.811C115.163,89.99 115.832,90.14 116.481,90.336C117.104,90.589 117.633,91.047 118.202,91.417C118.733,91.869 119.365,92.104 119.972,92.388C120.886,92.809 121.802,93.219 122.724,93.608C123.352,93.865 123.97,94.137 124.58,94.42C125.192,94.698 125.808,94.965 126.502,95.02C127.156,95.124 127.879,95.208 128.527,95.385C129.124,95.718 129.759,95.94 130.404,96.11C131.016,96.407 131.67,96.437 132.31,96.736C132.926,97.06 133.601,97.153 134.253,97.295C134.902,97.462 135.56,97.545 136.204,97.693C136.862,97.75 137.506,97.89 138.16,97.894C138.841,97.953 138.747,99.024 138.067,98.965Z" style="fill-rule:nonzero;"/>
        </g>
        <g transform="matrix(1,0,0,-1,0,178.965)">
            <path d="M135.105,96.623C134.435,96.48 133.778,96.264 133.109,96.091C132.467,95.828 131.73,95.842 131.066,95.663C130.363,95.641 129.665,95.56 129.012,95.332C128.304,95.261 127.723,94.819 127.069,94.579C126.429,94.303 125.923,93.79 125.333,93.44C124.752,93.073 124.231,92.574 123.542,92.456C122.91,92.202 122.303,91.89 121.69,91.626C121.086,91.331 120.509,90.976 119.882,90.727C119.272,90.439 118.609,90.268 117.958,90.068C117.303,89.877 116.62,89.75 116.019,89.446C115.4,89.183 114.757,88.977 114.184,88.622C113.629,88.246 113.055,87.843 112.49,87.451C111.939,87.017 111.263,86.879 110.648,86.612C110.009,86.389 109.452,86.035 108.742,85.941C108.057,85.809 107.366,85.717 106.687,85.624C106.034,85.457 105.387,85.291 104.735,85.172C104.064,85.048 103.391,84.943 102.748,84.762C102.093,84.627 101.442,84.517 100.808,84.34C99.862,84.049 98.902,83.853 97.938,83.789C96.991,83.716 97.107,82.225 98.054,82.299C98.716,82.354 99.379,82.417 100.05,82.462C100.73,82.444 101.4,82.567 102.069,82.688C102.728,82.858 103.398,82.999 104.05,83.221C104.706,83.436 105.341,83.719 105.948,83.976C106.572,84.213 107.198,84.459 107.772,84.848C108.358,85.198 108.938,85.589 109.538,85.87C110.147,86.103 110.761,86.336 111.355,86.621C111.931,86.948 112.59,87.087 113.256,87.222C113.921,87.383 114.576,87.492 115.188,87.744C115.778,88.031 116.363,88.333 116.949,88.633C117.527,88.951 118.057,89.372 118.616,89.73C119.176,90.084 119.741,90.428 120.35,90.675C120.915,91.018 121.602,91.089 122.166,91.426C122.748,91.708 123.405,91.889 123.964,92.248C124.542,92.578 125.254,92.582 125.894,92.738C126.538,92.905 127.24,92.822 127.851,93.113C128.483,93.32 129.143,93.425 129.715,93.766C130.333,93.974 130.893,94.344 131.469,94.676C132.087,94.906 132.694,95.241 133.355,95.319C133.998,95.471 134.65,95.551 135.289,95.657C135.902,95.773 135.719,96.74 135.105,96.623Z" style="fill-rule:nonzero;"/>
        </g>
        <g transform="matrix(1,0,0,-1,0,175.143)">
            <path d="M131.876,94.216C131.141,94.086 130.574,93.825 129.876,93.749C129.213,93.604 128.546,93.453 127.867,93.317C127.202,93.141 126.55,92.895 125.969,92.586C125.372,92.283 124.816,91.881 124.194,91.633C123.582,91.359 122.928,91.176 122.324,90.877C121.696,90.657 121.118,90.322 120.553,89.961C119.97,89.638 119.343,89.411 118.743,89.123C117.829,88.724 116.941,88.269 116.038,87.851C115.438,87.569 114.818,87.336 114.213,87.073C113.62,86.802 112.97,86.601 112.359,86.343C111.733,86.116 111.18,85.724 110.607,85.383C110.018,85.07 109.469,84.712 108.787,84.597C108.102,84.493 107.4,84.469 106.778,84.244C106.103,84.174 105.532,83.817 104.916,83.6C104.288,83.4 103.648,83.157 103.003,83.006C102.357,82.848 101.707,82.736 101.066,82.617C100.413,82.521 99.796,82.392 99.16,82.364C98.234,82.248 98.416,80.79 99.342,80.905C99.998,81.038 100.653,81.113 101.324,81.27C101.992,81.402 102.652,81.583 103.318,81.754C103.978,81.932 104.672,82.061 105.325,82.25C105.975,82.418 106.671,82.474 107.263,82.843C107.909,83.058 108.476,83.498 109.061,83.881C109.651,84.253 110.297,84.372 110.943,84.567C111.596,84.73 112.27,84.858 112.87,85.163C113.483,85.436 114.073,85.784 114.673,86.049C115.275,86.328 115.86,86.645 116.467,86.916C117.677,87.467 118.904,87.987 120.093,88.574C120.676,88.894 121.328,89.061 121.946,89.294C122.571,89.507 123.145,89.843 123.762,90.103C124.336,90.454 124.984,90.627 125.6,90.861C126.253,91.012 126.888,91.166 127.495,91.424C128.135,91.633 128.71,91.999 129.31,92.298C130.226,92.738 131.081,93.155 132.092,93.454C132.576,93.592 132.36,94.353 131.876,94.216Z" style="fill-rule:nonzero;"/>
        </g>
        <g transform="matrix(1,0,0,-1,0,171.082)">
            <path d="M128.21,91.48C127.623,91.075 126.755,91.274 126.191,90.901C125.585,90.586 124.973,90.284 124.339,90.026C123.714,89.748 123.095,89.452 122.445,89.22C121.815,88.963 121.21,88.663 120.575,88.419C119.966,88.119 119.407,87.71 118.811,87.384C118.232,87.019 117.623,86.718 116.991,86.472C116.364,86.213 115.762,85.903 115.13,85.663C114.51,85.393 113.894,85.133 113.27,84.868C112.634,84.619 112.024,84.32 111.386,84.094C110.736,83.896 110.116,83.641 109.512,83.354C108.893,83.125 108.271,82.774 107.634,82.542C106.982,82.34 106.343,82.116 105.694,81.94C105.055,81.754 104.41,81.557 103.742,81.393C102.75,81.146 101.762,80.954 100.79,80.747C99.985,80.601 100.216,79.332 101.021,79.479C101.702,79.592 102.379,79.747 103.055,79.919C103.73,80.096 104.398,80.315 105.077,80.504C105.727,80.713 106.374,80.945 107.024,81.179C107.676,81.408 108.296,81.728 108.992,81.862C109.676,82.063 110.268,82.346 110.926,82.553C111.533,82.867 112.149,83.163 112.783,83.423C113.392,83.735 114.046,83.978 114.639,84.288C115.257,84.564 115.858,84.879 116.472,85.168C117.093,85.44 117.689,85.769 118.305,86.053C118.94,86.295 119.583,86.519 120.233,86.724C120.903,86.886 121.488,87.23 122.102,87.503C122.713,87.77 123.327,88.071 123.94,88.364C124.562,88.637 125.201,88.86 125.82,89.119C126.842,89.256 127.638,89.975 128.636,90.314C129.376,90.584 128.951,91.75 128.21,91.48Z" style="fill-rule:nonzero;"/>
        </g>
        <g transform="matrix(1,0,0,-1,0,167.625)">
            <path d="M124.055,88.585C123.416,88.282 122.845,87.786 122.063,87.841C121.4,87.637 120.722,87.463 120.084,87.198C119.449,86.927 118.874,86.524 118.265,86.198C117.684,85.811 117.059,85.518 116.44,85.218C115.84,84.874 115.229,84.559 114.626,84.229C114.042,83.857 113.44,83.536 112.787,83.285C112.148,83.017 111.497,82.786 110.851,82.554C109.874,82.215 108.911,81.937 107.923,81.539C107.282,81.271 106.655,80.968 105.995,80.782C105.08,80.24 103.949,80.523 103.074,79.96C102.418,79.794 102.679,78.761 103.335,78.927C104.06,78.854 104.672,79.242 105.307,79.529C105.979,79.705 106.637,79.94 107.31,80.143C107.992,80.324 108.667,80.541 109.321,80.823C109.974,81.077 110.57,81.421 111.203,81.707C111.829,82.003 112.45,82.316 113.085,82.603C113.716,82.914 114.359,83.148 115.027,83.343C115.676,83.578 116.317,83.835 116.969,84.068C117.601,84.344 118.23,84.63 118.9,84.822C119.543,85.074 120.221,85.249 120.837,85.551C121.452,85.858 122.025,86.251 122.614,86.606C123.092,87.223 123.843,87.307 124.495,87.556C125.148,87.836 124.708,88.864 124.055,88.585Z" style="fill-rule:nonzero;"/>
        </g>
        <g transform="matrix(1,0,0,-1,0,164.481)">
            <path d="M118.377,85.266C117.701,84.989 117.104,84.666 116.453,84.4C115.811,84.129 115.158,83.887 114.548,83.556C113.919,83.264 113.298,82.972 112.672,82.642C112.056,82.304 111.42,82.018 110.777,81.761C110.143,81.474 109.509,81.233 108.868,80.951C108.225,80.653 107.543,80.466 106.846,80.358C106.073,80.089 106.496,78.872 107.269,79.14C107.898,79.493 108.545,79.794 109.23,80.008C109.905,80.232 110.538,80.5 111.197,80.748C111.841,81.024 112.492,81.289 113.164,81.513C113.838,81.751 114.476,82.021 115.115,82.301C115.771,82.543 116.384,82.88 117.009,83.192C117.636,83.514 118.269,83.76 118.917,84.095C119.66,84.439 119.12,85.609 118.377,85.266Z" style="fill-rule:nonzero;"/>
        </g>
    </g>
</svg>
