<?xml version="1.0" encoding="UTF-8" standalone="no"?>
<svg
   id="b"
   width="20"
   height="16"
   viewBox="0 0 20 16"
   version="1.1"
   sodipodi:docname="zoom-in.svg"
   inkscape:version="1.3.1 (91b66b0, 2023-11-16)"
   xml:space="preserve"
   xmlns:inkscape="http://www.inkscape.org/namespaces/inkscape"
   xmlns:sodipodi="http://sodipodi.sourceforge.net/DTD/sodipodi-0.dtd"
   xmlns="http://www.w3.org/2000/svg"
   xmlns:svg="http://www.w3.org/2000/svg"><sodipodi:namedview
     id="namedview3"
     pagecolor="#ffffff"
     bordercolor="#000000"
     borderopacity="0.25"
     inkscape:showpageshadow="2"
     inkscape:pageopacity="0.0"
     inkscape:pagecheckerboard="0"
     inkscape:deskcolor="#d1d1d1"
     inkscape:zoom="14.75"
     inkscape:cx="5.9661017"
     inkscape:cy="8.5423729"
     inkscape:window-width="1312"
     inkscape:window-height="605"
     inkscape:window-x="68"
     inkscape:window-y="267"
     inkscape:window-maximized="0"
     inkscape:current-layer="g1" /><defs
     id="defs1"><style
       id="style1">.e{stroke:#000;stroke-linecap:round;stroke-linejoin:round;}.e,.f{fill:none;}.f{opacity:.2;stroke-width:0px;}</style><clipPath
       clipPathUnits="userSpaceOnUse"
       id="clipPath3761"><path
         d="M 0,1205.777 H 2738.234 V 0 H 0 Z"
         transform="translate(-1062.36,-340.07301)"
         id="path3761" /></clipPath><clipPath
       clipPathUnits="userSpaceOnUse"
       id="clipPath3763"><path
         d="M 0,1205.777 H 2738.234 V 0 H 0 Z"
         transform="translate(-1062.2632,-337.60821)"
         id="path3763" /></clipPath><clipPath
       clipPathUnits="userSpaceOnUse"
       id="clipPath3765"><path
         d="M 0,1205.777 H 2738.234 V 0 H 0 Z"
         transform="translate(-1062.2632,-335.39121)"
         id="path3765" /></clipPath><clipPath
       clipPathUnits="userSpaceOnUse"
       id="clipPath3767"><path
         d="M 0,1205.777 H 2738.234 V 0 H 0 Z"
         transform="translate(-1062.4291,-333.34101)"
         id="path3767" /></clipPath><clipPath
       clipPathUnits="userSpaceOnUse"
       id="clipPath3769"><path
         d="M 0,1205.777 H 2738.234 V 0 H 0 Z"
         transform="translate(-1062.9171,-331.61488)"
         id="path3769" /></clipPath><clipPath
       clipPathUnits="userSpaceOnUse"
       id="clipPath3771"><path
         d="M 0,1205.777 H 2738.234 V 0 H 0 Z"
         transform="translate(-1063.7688,-330.25498)"
         id="path3771" /></clipPath><clipPath
       clipPathUnits="userSpaceOnUse"
       id="clipPath3773"><path
         d="M 0,1205.777 H 2738.234 V 0 H 0 Z"
         transform="translate(-1064.9308,-329.20708)"
         id="path3773" /></clipPath><clipPath
       clipPathUnits="userSpaceOnUse"
       id="clipPath3775"><path
         d="M 0,1205.777 H 2738.234 V 0 H 0 Z"
         transform="translate(-1066.5945,-328.66393)"
         id="path3775" /></clipPath><clipPath
       clipPathUnits="userSpaceOnUse"
       id="clipPath3777"><path
         d="M 0,1205.777 H 2738.234 V 0 H 0 Z"
         transform="translate(-1069.0444,-328.91211)"
         id="path3777" /></clipPath><clipPath
       clipPathUnits="userSpaceOnUse"
       id="clipPath3918"><path
         d="M 0,1205.777 H 2738.234 V 0 H 0 Z"
         transform="translate(-964.05505,-422.70974)"
         id="path3918" /></clipPath><clipPath
       clipPathUnits="userSpaceOnUse"
       id="clipPath3920"><path
         d="M 0,1205.777 H 2738.234 V 0 H 0 Z"
         transform="translate(-975.25705,-427.27334)"
         id="path3920" /></clipPath><clipPath
       clipPathUnits="userSpaceOnUse"
       id="clipPath3922"><path
         d="M 0,1205.777 H 2738.234 V 0 H 0 Z"
         transform="translate(-965.65892,-422.15909)"
         id="path3922" /></clipPath><clipPath
       clipPathUnits="userSpaceOnUse"
       id="clipPath3924"><path
         d="M 0,1205.777 H 2738.234 V 0 H 0 Z"
         transform="translate(-967.69502,-426.07514)"
         id="path3924" /></clipPath><clipPath
       clipPathUnits="userSpaceOnUse"
       id="clipPath3926"><path
         d="M 0,1205.777 H 2738.234 V 0 H 0 Z"
         transform="translate(-966.9304,-423.85139)"
         id="path3926" /></clipPath><clipPath
       clipPathUnits="userSpaceOnUse"
       id="clipPath3928"><path
         d="M 0,1205.777 H 2738.234 V 0 H 0 Z"
         transform="translate(-975.6979,-429.85529)"
         id="path3928" /></clipPath><clipPath
       clipPathUnits="userSpaceOnUse"
       id="clipPath3930"><path
         d="M 0,1205.777 H 2738.234 V 0 H 0 Z"
         transform="translate(-973.447,-432.10731)"
         id="path3930" /></clipPath><clipPath
       clipPathUnits="userSpaceOnUse"
       id="clipPath2494"><path
         d="M 0,1205.777 H 2738.234 V 0 H 0 Z"
         transform="translate(-1006.1637,-427.52789)"
         id="path2494" /></clipPath><clipPath
       clipPathUnits="userSpaceOnUse"
       id="clipPath2505"><path
         d="M 0,1205.777 H 2738.234 V 0 H 0 Z"
         transform="translate(0,2.5000001e-5)"
         id="path2505" /></clipPath><clipPath
       clipPathUnits="userSpaceOnUse"
       id="clipPath2507"><path
         d="M 0,1205.777 H 2738.234 V 0 H 0 Z"
         transform="translate(0,2.5000001e-5)"
         id="path2507" /></clipPath><clipPath
       clipPathUnits="userSpaceOnUse"
       id="clipPath2509"><path
         d="M 0,1205.777 H 2738.234 V 0 H 0 Z"
         transform="translate(0,2.5000001e-5)"
         id="path2509" /></clipPath><clipPath
       clipPathUnits="userSpaceOnUse"
       id="clipPath2511"><path
         d="M 0,1205.777 H 2738.234 V 0 H 0 Z"
         transform="translate(0,2.5000001e-5)"
         id="path2511" /></clipPath><clipPath
       clipPathUnits="userSpaceOnUse"
       id="clipPath2513"><path
         d="M 0,1205.777 H 2738.234 V 0 H 0 Z"
         transform="translate(0,2.5000001e-5)"
         id="path2513" /></clipPath><clipPath
       clipPathUnits="userSpaceOnUse"
       id="clipPath2515"><path
         d="M 0,1205.777 H 2738.234 V 0 H 0 Z"
         transform="translate(-1130.1741,-427.58684)"
         id="path2515" /></clipPath><clipPath
       clipPathUnits="userSpaceOnUse"
       id="clipPath2517"><path
         d="M 0,1205.777 H 2738.234 V 0 H 0 Z"
         transform="translate(-1133.0022,-428.29409)"
         id="path2517" /></clipPath><clipPath
       clipPathUnits="userSpaceOnUse"
       id="clipPath2505-0"><path
         d="M 0,1205.777 H 2738.234 V 0 H 0 Z"
         transform="translate(0,2.5000001e-5)"
         id="path2505-4" /></clipPath></defs><g
     id="g1"
     transform="translate(-0.43216786,0.07904603)"><path
       d="m 6.4261679,5.969454 c 0.1,-0.102 0.224,-0.152 0.371,-0.152 h 1.612 v -1.613 c 0,-0.144 0.049,-0.265 0.149,-0.365 0.1,-0.099 0.222,-0.149 0.366,-0.149 0.144,0 0.267,0.05 0.368,0.149 0.102,0.1 0.153,0.221 0.153,0.365 v 1.613 h 1.6060001 c 0.144,0 0.266,0.05 0.367,0.152 0.102,0.102 0.153,0.224 0.153,0.368 0,0.144 -0.051,0.266 -0.153,0.364 -0.101,0.1 -0.223,0.15 -0.367,0.15 H 9.4451679 v 1.612 c 0,0.145 -0.051,0.267 -0.153,0.368 -0.101,0.102 -0.224,0.151 -0.368,0.147 -0.144,0.004 -0.266,-0.045 -0.365,-0.147 -0.101,-0.101 -0.149,-0.223 -0.149,-0.368 l -10e-4,-1.612 h -1.612 c -0.148,0 -0.272,-0.05 -0.371,-0.15 -0.1,-0.098 -0.148,-0.22 -0.148,-0.364 0,-0.144 0.048,-0.266 0.148,-0.368 m -2.329,2.396 c 0.272,0.632 0.648,1.189 1.126,1.669 0.478,0.481 1.034,0.856 1.667,1.127 0.633,0.271 1.31,0.407 2.034,0.407 0.72,0 1.3960001,-0.136 2.0280001,-0.407 0.633,-0.271 1.188,-0.646 1.668,-1.127 0.482,-0.48 0.858,-1.037 1.128,-1.669 0.271,-0.632 0.407,-1.309 0.407,-2.028 0,-0.723 -0.136,-1.402 -0.407,-2.035 -0.27,-0.632 -0.646,-1.188 -1.127,-1.669 -0.48,-0.48 -1.036,-0.855 -1.669,-1.127 -0.632,-0.27 -1.3080001,-0.406 -2.0280001,-0.406 -0.724,0 -1.401,0.136 -2.034,0.406 -0.633,0.272 -1.189,0.647 -1.667,1.127 -0.478,0.481 -0.854,1.037 -1.126,1.669 -0.274,0.633 -0.409,1.312 -0.409,2.035 0,0.719 0.135,1.396 0.409,2.028 m -1.099,-4.523 c 0.332,-0.774 0.794,-1.457 1.384,-2.047 0.591,-0.591 1.274,-1.05200003 2.051,-1.38400003 0.776,-0.332 1.606,-0.498 2.491,-0.498 0.885,0 1.7150001,0.166 2.4910001,0.498 0.777,0.332 1.459,0.79300003 2.048,1.38400003 0.588,0.59 1.049,1.273 1.383,2.047 0.335,0.774 0.502,1.606 0.502,2.495 0,0.744 -0.123,1.454 -0.368,2.129 -0.245,0.676 -0.584,1.284 -1.016,1.825 l 4.164,4.184 c 0.076,0.08 0.135,0.171 0.175,0.272 0.04,0.102 0.061,0.21 0.061,0.324 0,0.157 -0.036,0.3 -0.106,0.431 -0.069,0.132 -0.168,0.236 -0.295,0.312 -0.127,0.076 -0.273,0.114 -0.437,0.114 -0.116,0 -0.225,-0.021 -0.33,-0.063 -0.107,-0.042 -0.2,-0.104 -0.28,-0.185 l -4.183,-4.189 c -0.534,0.398 -1.122,0.707 -1.768,0.93 -0.645,0.222 -1.3260001,0.333 -2.0410001,0.333 -0.885,0 -1.715,-0.166 -2.491,-0.498 -0.777,-0.332 -1.46,-0.794 -2.051,-1.384 -0.59,-0.591 -1.052,-1.272 -1.384,-2.047 -0.332,-0.774 -0.498,-1.604 -0.498,-2.488 0,-0.889 0.166,-1.721 0.498,-2.495"
       style="clip-rule:evenodd;fill-rule:nonzero;stroke-linejoin:round;stroke-miterlimit:2"
       id="path1331" /></g></svg>
