<?xml version="1.0" encoding="UTF-8" standalone="no"?>
<svg
   id="b"
   width="20"
   height="16"
   viewBox="0 0 20 16"
   version="1.1"
   sodipodi:docname="align-v-center.svg"
   inkscape:version="1.3.1 (91b66b0, 2023-11-16)"
   xml:space="preserve"
   xmlns:inkscape="http://www.inkscape.org/namespaces/inkscape"
   xmlns:sodipodi="http://sodipodi.sourceforge.net/DTD/sodipodi-0.dtd"
   xmlns="http://www.w3.org/2000/svg"
   xmlns:svg="http://www.w3.org/2000/svg"><sodipodi:namedview
     id="namedview3"
     pagecolor="#ffffff"
     bordercolor="#000000"
     borderopacity="0.25"
     inkscape:showpageshadow="2"
     inkscape:pageopacity="0.0"
     inkscape:pagecheckerboard="0"
     inkscape:deskcolor="#d1d1d1"
     inkscape:zoom="14.75"
     inkscape:cx="5.9322034"
     inkscape:cy="8.5423729"
     inkscape:window-width="1312"
     inkscape:window-height="449"
     inkscape:window-x="40"
     inkscape:window-y="389"
     inkscape:window-maximized="0"
     inkscape:current-layer="d" /><defs
     id="defs1"><style
       id="style1">.e{stroke:#000;stroke-linecap:round;stroke-linejoin:round;}.e,.f{fill:none;}.f{opacity:.2;stroke-width:0px;}</style></defs><g
     id="c"><g
       id="d"><path
         d="m 14.928,7.5635 h 1.459 c 0.113,0 0.209,0.044 0.287,0.132 0.078,0.088 0.117,0.188 0.117,0.302 0,0.113 -0.039,0.212 -0.117,0.298 -0.078,0.086 -0.174,0.129 -0.287,0.129 h -1.459 z m -1.025,3.1 c 0.16,0 0.281,-0.041 0.363,-0.123 0.082,-0.082 0.123,-0.198 0.123,-0.346 v -4.395 c 0,-0.152 -0.041,-0.269 -0.123,-0.351 -0.082,-0.082 -0.203,-0.123 -0.363,-0.123 H 11.91 c -0.16,0 -0.281,0.041 -0.363,0.123 -0.082,0.082 -0.123,0.199 -0.123,0.351 v 4.395 c 0,0.148 0.041,0.264 0.123,0.346 0.082,0.082 0.203,0.123 0.363,0.123 z m -3.024,0.542 c -0.226,-0.229 -0.34,-0.562 -0.34,-0.999 v -4.424 c 0,-0.434 0.114,-0.766 0.34,-0.996 0.227,-0.231 0.553,-0.346 0.979,-0.346 h 2.097 c 0.426,0 0.752,0.115 0.979,0.346 0.226,0.23 0.34,0.562 0.34,0.996 v 4.424 c 0,0.437 -0.114,0.77 -0.34,0.999 -0.227,0.228 -0.553,0.342 -0.979,0.342 h -2.097 c -0.426,0 -0.752,-0.114 -0.979,-0.342 M 8.987,7.5635 h 2.021 v 0.861 H 8.987 Z m -0.885,5.18 c 0.156,0 0.276,-0.042 0.36,-0.126 0.084,-0.084 0.126,-0.2 0.126,-0.349 V 3.7255 C 8.588,3.5735 8.546,3.4565 8.462,3.3745 8.378,3.2925 8.258,3.2515 8.102,3.2515 H 6.104 c -0.156,0 -0.276,0.041 -0.358,0.123 -0.082,0.082 -0.123,0.199 -0.123,0.351 v 8.543 c 0,0.149 0.041,0.265 0.123,0.349 0.082,0.084 0.202,0.126 0.358,0.126 z m -3.027,0.542 c -0.224,-0.233 -0.336,-0.568 -0.336,-1.005 v -8.572 c 0,-0.434 0.112,-0.766 0.336,-0.997 0.225,-0.23 0.552,-0.345 0.982,-0.345 h 2.098 c 0.425,0 0.752,0.115 0.978,0.345 0.227,0.231 0.34,0.563 0.34,0.997 v 8.572 c 0,0.437 -0.113,0.772 -0.34,1.005 -0.226,0.232 -0.553,0.348 -0.978,0.348 H 6.057 c -0.43,0 -0.757,-0.116 -0.982,-0.348 M 3.326,8.2955 C 3.248,8.2095 3.209,8.1105 3.209,7.9975 c 0,-0.114 0.039,-0.214 0.117,-0.302 0.079,-0.088 0.176,-0.132 0.293,-0.132 h 1.495 v 0.861 H 3.619 c -0.117,0 -0.214,-0.043 -0.293,-0.129"
         style="clip-rule:evenodd;fill-rule:nonzero;stroke-miterlimit:10"
         id="path903" /></g></g></svg>
