<?xml version="1.0" encoding="UTF-8" standalone="no"?>
<svg
   id="b"
   width="20"
   height="20"
   viewBox="0 0 20 20"
   version="1.1"
   sodipodi:docname="fill-halftone.svg"
   inkscape:version="1.3.1 (91b66b0, 2023-11-16)"
   xml:space="preserve"
   xmlns:inkscape="http://www.inkscape.org/namespaces/inkscape"
   xmlns:sodipodi="http://sodipodi.sourceforge.net/DTD/sodipodi-0.dtd"
   xmlns="http://www.w3.org/2000/svg"
   xmlns:svg="http://www.w3.org/2000/svg"><sodipodi:namedview
     id="namedview3"
     pagecolor="#ffffff"
     bordercolor="#000000"
     borderopacity="0.25"
     inkscape:showpageshadow="2"
     inkscape:pageopacity="0.0"
     inkscape:pagecheckerboard="0"
     inkscape:deskcolor="#d1d1d1"
     inkscape:zoom="17.931023"
     inkscape:cx="8.7557748"
     inkscape:cy="11.488469"
     inkscape:window-width="1312"
     inkscape:window-height="605"
     inkscape:window-x="65"
     inkscape:window-y="25"
     inkscape:window-maximized="0"
     inkscape:current-layer="g1" /><defs
     id="defs1"><style
       id="style1">.e{stroke:#000;stroke-linecap:round;stroke-linejoin:round;}.e,.f{fill:none;}.f{opacity:.2;stroke-width:0px;}</style><clipPath
       clipPathUnits="userSpaceOnUse"
       id="clipPath3761"><path
         d="M 0,1205.777 H 2738.234 V 0 H 0 Z"
         transform="translate(-1062.36,-340.07301)"
         id="path3761" /></clipPath><clipPath
       clipPathUnits="userSpaceOnUse"
       id="clipPath3763"><path
         d="M 0,1205.777 H 2738.234 V 0 H 0 Z"
         transform="translate(-1062.2632,-337.60821)"
         id="path3763" /></clipPath><clipPath
       clipPathUnits="userSpaceOnUse"
       id="clipPath3765"><path
         d="M 0,1205.777 H 2738.234 V 0 H 0 Z"
         transform="translate(-1062.2632,-335.39121)"
         id="path3765" /></clipPath><clipPath
       clipPathUnits="userSpaceOnUse"
       id="clipPath3767"><path
         d="M 0,1205.777 H 2738.234 V 0 H 0 Z"
         transform="translate(-1062.4291,-333.34101)"
         id="path3767" /></clipPath><clipPath
       clipPathUnits="userSpaceOnUse"
       id="clipPath3769"><path
         d="M 0,1205.777 H 2738.234 V 0 H 0 Z"
         transform="translate(-1062.9171,-331.61488)"
         id="path3769" /></clipPath><clipPath
       clipPathUnits="userSpaceOnUse"
       id="clipPath3771"><path
         d="M 0,1205.777 H 2738.234 V 0 H 0 Z"
         transform="translate(-1063.7688,-330.25498)"
         id="path3771" /></clipPath><clipPath
       clipPathUnits="userSpaceOnUse"
       id="clipPath3773"><path
         d="M 0,1205.777 H 2738.234 V 0 H 0 Z"
         transform="translate(-1064.9308,-329.20708)"
         id="path3773" /></clipPath><clipPath
       clipPathUnits="userSpaceOnUse"
       id="clipPath3775"><path
         d="M 0,1205.777 H 2738.234 V 0 H 0 Z"
         transform="translate(-1066.5945,-328.66393)"
         id="path3775" /></clipPath><clipPath
       clipPathUnits="userSpaceOnUse"
       id="clipPath3777"><path
         d="M 0,1205.777 H 2738.234 V 0 H 0 Z"
         transform="translate(-1069.0444,-328.91211)"
         id="path3777" /></clipPath><clipPath
       clipPathUnits="userSpaceOnUse"
       id="clipPath3918"><path
         d="M 0,1205.777 H 2738.234 V 0 H 0 Z"
         transform="translate(-964.05505,-422.70974)"
         id="path3918" /></clipPath><clipPath
       clipPathUnits="userSpaceOnUse"
       id="clipPath3920"><path
         d="M 0,1205.777 H 2738.234 V 0 H 0 Z"
         transform="translate(-975.25705,-427.27334)"
         id="path3920" /></clipPath><clipPath
       clipPathUnits="userSpaceOnUse"
       id="clipPath3922"><path
         d="M 0,1205.777 H 2738.234 V 0 H 0 Z"
         transform="translate(-965.65892,-422.15909)"
         id="path3922" /></clipPath><clipPath
       clipPathUnits="userSpaceOnUse"
       id="clipPath3924"><path
         d="M 0,1205.777 H 2738.234 V 0 H 0 Z"
         transform="translate(-967.69502,-426.07514)"
         id="path3924" /></clipPath><clipPath
       clipPathUnits="userSpaceOnUse"
       id="clipPath3926"><path
         d="M 0,1205.777 H 2738.234 V 0 H 0 Z"
         transform="translate(-966.9304,-423.85139)"
         id="path3926" /></clipPath><clipPath
       clipPathUnits="userSpaceOnUse"
       id="clipPath3928"><path
         d="M 0,1205.777 H 2738.234 V 0 H 0 Z"
         transform="translate(-975.6979,-429.85529)"
         id="path3928" /></clipPath><clipPath
       clipPathUnits="userSpaceOnUse"
       id="clipPath3930"><path
         d="M 0,1205.777 H 2738.234 V 0 H 0 Z"
         transform="translate(-973.447,-432.10731)"
         id="path3930" /></clipPath><clipPath
       clipPathUnits="userSpaceOnUse"
       id="clipPath2494"><path
         d="M 0,1205.777 H 2738.234 V 0 H 0 Z"
         transform="translate(-1006.1637,-427.52789)"
         id="path2494" /></clipPath><clipPath
       clipPathUnits="userSpaceOnUse"
       id="clipPath2505"><path
         d="M 0,1205.777 H 2738.234 V 0 H 0 Z"
         transform="translate(0,2.5000001e-5)"
         id="path2505" /></clipPath><clipPath
       clipPathUnits="userSpaceOnUse"
       id="clipPath2507"><path
         d="M 0,1205.777 H 2738.234 V 0 H 0 Z"
         transform="translate(0,2.5000001e-5)"
         id="path2507" /></clipPath><clipPath
       clipPathUnits="userSpaceOnUse"
       id="clipPath2509"><path
         d="M 0,1205.777 H 2738.234 V 0 H 0 Z"
         transform="translate(0,2.5000001e-5)"
         id="path2509" /></clipPath><clipPath
       clipPathUnits="userSpaceOnUse"
       id="clipPath2511"><path
         d="M 0,1205.777 H 2738.234 V 0 H 0 Z"
         transform="translate(0,2.5000001e-5)"
         id="path2511" /></clipPath><clipPath
       clipPathUnits="userSpaceOnUse"
       id="clipPath2513"><path
         d="M 0,1205.777 H 2738.234 V 0 H 0 Z"
         transform="translate(0,2.5000001e-5)"
         id="path2513" /></clipPath><clipPath
       clipPathUnits="userSpaceOnUse"
       id="clipPath2515"><path
         d="M 0,1205.777 H 2738.234 V 0 H 0 Z"
         transform="translate(-1130.1741,-427.58684)"
         id="path2515" /></clipPath><clipPath
       clipPathUnits="userSpaceOnUse"
       id="clipPath2517"><path
         d="M 0,1205.777 H 2738.234 V 0 H 0 Z"
         transform="translate(-1133.0022,-428.29409)"
         id="path2517" /></clipPath><clipPath
       clipPathUnits="userSpaceOnUse"
       id="clipPath2505-0"><path
         d="M 0,1205.777 H 2738.234 V 0 H 0 Z"
         transform="translate(0,2.5000001e-5)"
         id="path2505-4" /></clipPath><clipPath
       clipPathUnits="userSpaceOnUse"
       id="clipPath4433"><path
         d="M 0,1205.777 H 2738.234 V 0 H 0 Z"
         transform="translate(0,2.5000001e-5)"
         id="path4433" /></clipPath><clipPath
       clipPathUnits="userSpaceOnUse"
       id="clipPath4435"><path
         d="M 0,1205.777 H 2738.234 V 0 H 0 Z"
         transform="translate(0,2.5000001e-5)"
         id="path4435" /></clipPath><clipPath
       clipPathUnits="userSpaceOnUse"
       id="clipPath4431"><path
         d="M 0,1205.777 H 2738.234 V 0 H 0 Z"
         transform="translate(0,2.5000001e-5)"
         id="path4431" /></clipPath><clipPath
       clipPathUnits="userSpaceOnUse"
       id="clipPath4451"><path
         d="M 0,1205.777 H 2738.234 V 0 H 0 Z"
         transform="translate(0,2.5000001e-5)"
         id="path4451" /></clipPath><clipPath
       clipPathUnits="userSpaceOnUse"
       id="clipPath4453"><path
         d="M 0,1205.777 H 2738.234 V 0 H 0 Z"
         transform="translate(0,2.5000001e-5)"
         id="path4453" /></clipPath><clipPath
       clipPathUnits="userSpaceOnUse"
       id="clipPath4455"><path
         d="M 0,1205.777 H 2738.234 V 0 H 0 Z"
         transform="translate(0,2.5000001e-5)"
         id="path4455" /></clipPath><clipPath
       clipPathUnits="userSpaceOnUse"
       id="clipPath4449"><path
         d="M 0,1205.777 H 2738.234 V 0 H 0 Z"
         transform="translate(0,2.5000001e-5)"
         id="path4449" /></clipPath><clipPath
       clipPathUnits="userSpaceOnUse"
       id="clipPath4447"><path
         d="M 0,1205.777 H 2738.234 V 0 H 0 Z"
         transform="translate(-1307.7345,-464.06881)"
         id="path4447" /></clipPath><clipPath
       clipPathUnits="userSpaceOnUse"
       id="clipPath4445"><path
         d="M 0,1205.777 H 2738.234 V 0 H 0 Z"
         transform="translate(-1307.7345,-468.35451)"
         id="path4445" /></clipPath><clipPath
       clipPathUnits="userSpaceOnUse"
       id="clipPath4457"><path
         d="M 0,1205.777 H 2738.234 V 0 H 0 Z"
         transform="translate(-1304.1229,-451.35411)"
         id="path4457" /></clipPath><clipPath
       clipPathUnits="userSpaceOnUse"
       id="clipPath4459"><path
         d="M 0,1205.777 H 2738.234 V 0 H 0 Z"
         transform="translate(0,2.5000001e-5)"
         id="path4459" /></clipPath><clipPath
       clipPathUnits="userSpaceOnUse"
       id="clipPath4461"><path
         d="M 0,1205.777 H 2738.234 V 0 H 0 Z"
         transform="translate(0,2.5000001e-5)"
         id="path4461" /></clipPath><clipPath
       clipPathUnits="userSpaceOnUse"
       id="clipPath4463"><path
         d="M 0,1205.777 H 2738.234 V 0 H 0 Z"
         transform="translate(-1311.5344,-435.35451)"
         id="path4463" /></clipPath><clipPath
       clipPathUnits="userSpaceOnUse"
       id="clipPath4465"><path
         d="M 0,1205.777 H 2738.234 V 0 H 0 Z"
         transform="translate(0,2.5000001e-5)"
         id="path4465" /></clipPath><clipPath
       clipPathUnits="userSpaceOnUse"
       id="clipPath4467"><path
         d="M 0,1205.777 H 2738.234 V 0 H 0 Z"
         transform="translate(0,2.5000001e-5)"
         id="path4467" /></clipPath><clipPath
       clipPathUnits="userSpaceOnUse"
       id="clipPath4441"><path
         d="M 0,1205.777 H 2738.234 V 0 H 0 Z"
         transform="translate(-1303.7346,-480.35451)"
         id="path4441" /></clipPath><clipPath
       clipPathUnits="userSpaceOnUse"
       id="clipPath4443"><path
         d="M 0,1205.777 H 2738.234 V 0 H 0 Z"
         transform="translate(0,2.5000001e-5)"
         id="path4443" /></clipPath><clipPath
       clipPathUnits="userSpaceOnUse"
       id="clipPath4437"><path
         d="M 0,1205.777 H 2738.234 V 0 H 0 Z"
         transform="translate(-1311.7345,-496.35451)"
         id="path4437" /></clipPath><clipPath
       clipPathUnits="userSpaceOnUse"
       id="clipPath4439"><path
         d="M 0,1205.777 H 2738.234 V 0 H 0 Z"
         transform="translate(0,2.5000001e-5)"
         id="path4439" /></clipPath><clipPath
       clipPathUnits="userSpaceOnUse"
       id="clipPath4515"><path
         d="M 0,1205.777 H 2738.234 V 0 H 0 Z"
         transform="translate(-1252.8976,-329.56131)"
         id="path4515" /></clipPath><clipPath
       clipPathUnits="userSpaceOnUse"
       id="clipPath2375"><path
         d="M 0,1205.777 H 2738.234 V 0 H 0 Z"
         transform="translate(-2129.0002,-866.89772)"
         id="path2375" /></clipPath></defs><g
     id="g1"
     transform="translate(-0.43216786,0.07904603)"><path
       id="path2374"
       d="m 0,0 c 1.383,-1.438 2.234,-3.392 2.234,-5.543 0,-4.415 -3.584,-8 -8,-8 -4.415,0 -8,3.585 -8,8 0,4.415 3.585,8 8,8 0.404,0 0.8,-0.03 1.188,-0.088 C -4.437,2.358 -4.245,2.336 -4.209,2.305 -2.686,2.004 -1.316,1.27 -0.237,0.236 -0.124,0.232 -0.021,0.227 -0.015,0.221 -0.009,0.214 -0.004,0.112 0,0 m -5.305,1.803 c -0.152,0.009 -0.306,0.014 -0.461,0.014 -0.155,0 -0.308,-0.005 -0.46,-0.014 V 1.791 c 0,-0.092 -0.037,-0.427 -0.098,-0.487 -0.061,-0.061 -0.395,-0.098 -0.488,-0.098 -0.092,0 -0.427,0.037 -0.487,0.098 -0.041,0.04 -0.071,0.203 -0.086,0.334 -1.188,-0.267 -2.267,-0.822 -3.161,-1.586 0.06,-0.097 0.095,-0.247 0.095,-0.352 0,-0.129 -0.052,-0.323 -0.137,-0.408 -0.084,-0.084 -0.278,-0.136 -0.407,-0.136 -0.106,0 -0.256,0.035 -0.353,0.095 -0.796,-0.926 -1.366,-2.051 -1.623,-3.289 0.198,-0.051 0.345,-0.232 0.345,-0.446 0,-0.254 -0.207,-0.46 -0.461,-0.46 h -0.015 c -0.016,-0.197 -0.024,-0.397 -0.024,-0.599 0,-0.207 0.009,-0.412 0.026,-0.615 l 0.013,0.001 c 0.231,0 0.419,-0.188 0.419,-0.419 0,-0.195 -0.135,-0.36 -0.317,-0.405 0.265,-1.333 0.889,-2.536 1.768,-3.505 0.059,0.039 0.155,0.062 0.222,0.062 0.079,0 0.199,-0.032 0.251,-0.084 0.052,-0.052 0.084,-0.172 0.084,-0.251 0,-0.067 -0.024,-0.164 -0.063,-0.223 0.997,-0.909 2.243,-1.547 3.624,-1.8 0.007,0.067 0.023,0.154 0.044,0.175 0.03,0.03 0.197,0.049 0.243,0.049 0.047,0 0.214,-0.019 0.244,-0.049 0.03,-0.03 0.049,-0.198 0.049,-0.244 v -0.014 c 0.248,-0.025 0.499,-0.038 0.753,-0.038 0.255,0 0.506,0.013 0.754,0.038 l -0.001,0.014 c 0,0.035 0.014,0.234 0.037,0.256 0.023,0.023 0.221,0.037 0.256,0.037 0.035,0 0.234,-0.014 0.256,-0.037 0.016,-0.015 0.027,-0.116 0.033,-0.187 1.356,0.249 2.582,0.869 3.568,1.752 -0.005,0.087 -0.008,0.261 -0.008,0.271 0,0.013 0.005,0.312 0.014,0.321 0.009,0.008 0.307,0.014 0.321,0.014 0.01,0 0.182,-0.003 0.269,-0.009 0.852,0.957 1.457,2.136 1.718,3.439 H 1.137 v 0.837 h 0.432 c 0.016,0.202 0.025,0.407 0.025,0.614 0,0.202 -0.008,0.402 -0.024,0.599 H 1.095 v 0.92 h 0.342 c -0.252,1.197 -0.794,2.287 -1.55,3.192 -0.147,-0.008 -0.408,-0.012 -0.423,-0.012 -0.022,0 -0.507,0.008 -0.521,0.023 -0.014,0.014 -0.023,0.499 -0.023,0.521 0,0.015 0.005,0.273 0.012,0.421 C -1.945,0.849 -2.993,1.378 -4.143,1.637 -4.155,1.495 -4.178,1.31 -4.208,1.279 -4.253,1.234 -4.651,1.206 -4.72,1.206 c -0.069,0 -0.467,0.028 -0.512,0.073 -0.046,0.046 -0.074,0.443 -0.074,0.512 z m 2.677,-12.227 c -0.027,0 -0.289,-0.011 -0.307,-0.028 -0.017,-0.018 -0.028,-0.281 -0.028,-0.307 0,-0.027 0.011,-0.289 0.028,-0.307 0.018,-0.017 0.28,-0.028 0.307,-0.028 0.026,0 0.289,0.011 0.307,0.028 0.017,0.018 0.028,0.28 0.028,0.307 0,0.026 -0.011,0.289 -0.028,0.307 -0.018,0.017 -0.281,0.028 -0.307,0.028 m -6.275,0 c -0.066,0 -0.222,-0.027 -0.265,-0.07 -0.043,-0.044 -0.07,-0.199 -0.07,-0.265 0,-0.066 0.027,-0.221 0.07,-0.265 0.043,-0.043 0.199,-0.07 0.265,-0.07 0.066,0 0.221,0.027 0.264,0.07 0.044,0.044 0.07,0.199 0.07,0.265 0,0.066 -0.026,0.221 -0.07,0.265 -0.043,0.043 -0.198,0.07 -0.264,0.07 m 4.183,0 c -0.039,0 -0.267,-0.016 -0.292,-0.042 -0.026,-0.026 -0.043,-0.254 -0.043,-0.293 0,-0.04 0.017,-0.267 0.043,-0.293 0.025,-0.026 0.253,-0.042 0.292,-0.042 0.04,0 0.267,0.016 0.293,0.042 0.026,0.026 0.042,0.253 0.042,0.293 0,0.039 -0.016,0.267 -0.042,0.293 -0.026,0.026 -0.253,0.042 -0.293,0.042 m -2.092,0 c -0.052,0 -0.244,-0.022 -0.278,-0.056 -0.035,-0.035 -0.056,-0.226 -0.056,-0.279 0,-0.053 0.021,-0.244 0.056,-0.279 0.034,-0.034 0.226,-0.056 0.278,-0.056 0.053,0 0.245,0.022 0.279,0.056 0.035,0.035 0.056,0.226 0.056,0.279 0,0.053 -0.021,0.244 -0.056,0.279 -0.034,0.034 -0.226,0.056 -0.279,0.056 m -4.183,2.133 c -0.089,0 -0.224,-0.036 -0.282,-0.094 -0.058,-0.059 -0.095,-0.193 -0.095,-0.282 0,-0.089 0.037,-0.224 0.095,-0.282 0.058,-0.059 0.193,-0.095 0.282,-0.095 0.089,0 0.224,0.036 0.282,0.095 0.058,0.058 0.094,0.193 0.094,0.282 0,0.089 -0.036,0.223 -0.094,0.282 -0.058,0.058 -0.193,0.094 -0.282,0.094 m 10.459,0 c -0.016,0 -0.351,-0.006 -0.361,-0.016 -0.01,-0.009 -0.016,-0.345 -0.016,-0.36 0,-0.015 0.006,-0.351 0.016,-0.361 0.01,-0.01 0.345,-0.016 0.361,-0.016 0.014,0 0.351,0.006 0.36,0.016 0.01,0.01 0.016,0.346 0.016,0.361 0,0.015 -0.006,0.351 -0.016,0.36 -0.009,0.01 -0.346,0.016 -0.36,0.016 m -8.367,0 c -0.075,0 -0.249,-0.03 -0.298,-0.079 -0.049,-0.048 -0.079,-0.223 -0.079,-0.297 0,-0.075 0.03,-0.249 0.079,-0.298 0.049,-0.049 0.223,-0.079 0.298,-0.079 0.074,0 0.248,0.03 0.298,0.079 0.048,0.049 0.078,0.223 0.078,0.298 0,0.074 -0.03,0.249 -0.078,0.297 -0.05,0.049 -0.224,0.079 -0.298,0.079 m 2.091,0 c -0.059,0 -0.274,-0.024 -0.313,-0.063 -0.039,-0.039 -0.063,-0.254 -0.063,-0.313 0,-0.06 0.024,-0.275 0.063,-0.314 0.039,-0.039 0.254,-0.063 0.313,-0.063 0.06,0 0.275,0.024 0.314,0.063 0.039,0.039 0.063,0.254 0.063,0.314 0,0.059 -0.024,0.274 -0.063,0.313 -0.039,0.039 -0.254,0.063 -0.314,0.063 m 2.092,0 c -0.044,0 -0.3,-0.018 -0.329,-0.047 -0.029,-0.029 -0.047,-0.285 -0.047,-0.329 0,-0.045 0.018,-0.3 0.047,-0.33 0.029,-0.029 0.285,-0.047 0.329,-0.047 0.045,0 0.3,0.018 0.329,0.047 0.03,0.03 0.047,0.285 0.047,0.33 0,0.044 -0.017,0.3 -0.047,0.329 -0.029,0.029 -0.284,0.047 -0.329,0.047 m 2.092,0 c -0.03,0 -0.326,-0.012 -0.345,-0.031 -0.02,-0.02 -0.031,-0.316 -0.031,-0.345 0,-0.03 0.011,-0.326 0.031,-0.345 0.019,-0.02 0.315,-0.032 0.345,-0.032 0.03,0 0.326,0.012 0.345,0.032 0.019,0.019 0.032,0.315 0.032,0.345 0,0.029 -0.013,0.325 -0.032,0.345 -0.019,0.019 -0.315,0.031 -0.345,0.031 m -2.092,2.134 c -0.049,0 -0.333,-0.02 -0.366,-0.053 -0.032,-0.032 -0.052,-0.316 -0.052,-0.366 0,-0.049 0.02,-0.333 0.052,-0.365 0.033,-0.033 0.317,-0.053 0.366,-0.053 0.05,0 0.334,0.02 0.366,0.053 0.032,0.032 0.052,0.316 0.052,0.365 0,0.05 -0.02,0.334 -0.052,0.366 -0.032,0.033 -0.316,0.053 -0.366,0.053 m 4.184,0 c -0.017,0 -0.391,-0.007 -0.401,-0.018 -0.011,-0.011 -0.018,-0.384 -0.018,-0.401 0,-0.016 0.007,-0.39 0.018,-0.4 0.01,-0.011 0.384,-0.018 0.401,-0.018 0.016,0 0.39,0.007 0.401,0.018 0.01,0.01 0.017,0.384 0.017,0.4 0,0.017 -0.007,0.39 -0.017,0.401 -0.011,0.011 -0.385,0.018 -0.401,0.018 m -2.092,0 c -0.033,0 -0.362,-0.014 -0.383,-0.035 -0.022,-0.022 -0.035,-0.351 -0.035,-0.384 0,-0.033 0.013,-0.361 0.035,-0.383 0.021,-0.021 0.35,-0.035 0.383,-0.035 0.033,0 0.362,0.014 0.383,0.035 0.022,0.022 0.035,0.35 0.035,0.383 0,0.033 -0.013,0.362 -0.035,0.384 -0.021,0.021 -0.35,0.035 -0.383,0.035 m -4.184,0 c -0.066,0 -0.305,-0.027 -0.348,-0.07 -0.043,-0.044 -0.07,-0.283 -0.07,-0.349 0,-0.066 0.027,-0.305 0.07,-0.348 0.043,-0.043 0.282,-0.07 0.348,-0.07 0.066,0 0.305,0.027 0.349,0.07 0.043,0.043 0.07,0.282 0.07,0.348 0,0.066 -0.027,0.305 -0.07,0.349 -0.044,0.043 -0.283,0.07 -0.349,0.07 m -2.091,0 c -0.083,0 -0.277,-0.034 -0.331,-0.088 -0.054,-0.054 -0.088,-0.248 -0.088,-0.331 0,-0.082 0.034,-0.276 0.088,-0.33 0.054,-0.054 0.248,-0.088 0.331,-0.088 0.082,0 0.277,0.034 0.33,0.088 0.055,0.054 0.088,0.248 0.088,0.33 0,0.083 -0.033,0.277 -0.088,0.331 -0.053,0.054 -0.248,0.088 -0.33,0.088 m -2.092,0 c -0.099,0 -0.249,-0.04 -0.314,-0.105 -0.065,-0.065 -0.105,-0.215 -0.105,-0.314 0,-0.099 0.04,-0.248 0.105,-0.313 0.065,-0.065 0.215,-0.105 0.314,-0.105 0.099,0 0.248,0.04 0.313,0.105 0.065,0.065 0.105,0.214 0.105,0.313 0,0.099 -0.04,0.249 -0.105,0.314 -0.065,0.065 -0.214,0.105 -0.313,0.105 m 6.275,2.133 c -0.054,0 -0.366,-0.022 -0.402,-0.057 -0.036,-0.036 -0.058,-0.348 -0.058,-0.403 0,-0.054 0.022,-0.367 0.058,-0.402 0.036,-0.036 0.348,-0.058 0.402,-0.058 0.055,0 0.367,0.022 0.403,0.058 0.035,0.035 0.057,0.348 0.057,0.402 0,0.055 -0.022,0.367 -0.057,0.403 -0.036,0.035 -0.348,0.057 -0.403,0.057 m 2.092,0 c -0.036,0 -0.398,-0.014 -0.422,-0.038 -0.024,-0.024 -0.038,-0.385 -0.038,-0.422 0,-0.036 0.014,-0.398 0.038,-0.421 0.024,-0.024 0.386,-0.039 0.422,-0.039 0.036,0 0.398,0.015 0.421,0.039 0.024,0.023 0.039,0.385 0.039,0.421 0,0.037 -0.015,0.398 -0.039,0.422 -0.023,0.024 -0.385,0.038 -0.421,0.038 m 2.092,0 c -0.019,0 -0.43,-0.007 -0.441,-0.019 -0.012,-0.012 -0.02,-0.423 -0.02,-0.441 0,-0.018 0.008,-0.429 0.02,-0.441 0.011,-0.012 0.422,-0.019 0.441,-0.019 0.018,0 0.429,0.007 0.441,0.019 0.012,0.012 0.019,0.423 0.019,0.441 0,0.018 -0.007,0.429 -0.019,0.441 -0.012,0.012 -0.423,0.019 -0.441,0.019 m -6.276,0 c -0.072,0 -0.335,-0.029 -0.383,-0.077 -0.047,-0.047 -0.077,-0.31 -0.077,-0.383 0,-0.072 0.03,-0.335 0.077,-0.383 0.048,-0.048 0.311,-0.077 0.383,-0.077 0.073,0 0.336,0.029 0.384,0.077 0.047,0.048 0.077,0.311 0.077,0.383 0,0.073 -0.03,0.336 -0.077,0.383 -0.048,0.048 -0.311,0.077 -0.384,0.077 m -2.091,0 c -0.091,0 -0.305,-0.036 -0.364,-0.096 -0.06,-0.059 -0.097,-0.273 -0.097,-0.364 0,-0.091 0.037,-0.304 0.097,-0.364 0.059,-0.059 0.273,-0.096 0.364,-0.096 0.09,0 0.304,0.037 0.363,0.096 0.06,0.06 0.097,0.273 0.097,0.364 0,0.091 -0.037,0.305 -0.097,0.364 -0.059,0.06 -0.273,0.096 -0.363,0.096 m -2.092,0 c -0.109,0 -0.274,-0.044 -0.345,-0.115 -0.071,-0.072 -0.115,-0.236 -0.115,-0.345 0,-0.109 0.044,-0.273 0.115,-0.344 0.071,-0.072 0.236,-0.116 0.345,-0.116 0.109,0 0.273,0.044 0.344,0.116 0.072,0.071 0.116,0.235 0.116,0.344 0,0.109 -0.044,0.273 -0.116,0.345 -0.071,0.071 -0.235,0.115 -0.344,0.115 m 6.275,2.134 c -0.059,0 -0.4,-0.024 -0.439,-0.063 -0.039,-0.039 -0.063,-0.38 -0.063,-0.439 0,-0.059 0.024,-0.4 0.063,-0.439 0.039,-0.039 0.38,-0.063 0.439,-0.063 0.06,0 0.4,0.024 0.439,0.063 0.039,0.039 0.063,0.38 0.063,0.439 0,0.059 -0.024,0.4 -0.063,0.439 -0.039,0.039 -0.379,0.063 -0.439,0.063 m -2.092,0 c -0.079,0 -0.366,-0.032 -0.417,-0.084 -0.053,-0.052 -0.085,-0.339 -0.085,-0.418 0,-0.079 0.032,-0.366 0.085,-0.418 0.051,-0.052 0.338,-0.084 0.417,-0.084 0.08,0 0.366,0.032 0.418,0.084 0.052,0.052 0.084,0.339 0.084,0.418 0,0.079 -0.032,0.366 -0.084,0.418 -0.052,0.052 -0.338,0.084 -0.418,0.084 m 4.184,0 c -0.04,0 -0.434,-0.016 -0.46,-0.042 -0.026,-0.026 -0.042,-0.421 -0.042,-0.46 0,-0.04 0.016,-0.434 0.042,-0.46 0.026,-0.026 0.42,-0.042 0.46,-0.042 0.039,0 0.434,0.016 0.46,0.042 0.026,0.026 0.042,0.42 0.042,0.46 0,0.039 -0.016,0.434 -0.042,0.46 -0.026,0.026 -0.421,0.042 -0.46,0.042 m -6.275,0 c -0.099,0 -0.333,-0.04 -0.398,-0.105 -0.064,-0.065 -0.105,-0.298 -0.105,-0.397 0,-0.099 0.041,-0.332 0.105,-0.397 0.065,-0.065 0.299,-0.105 0.398,-0.105 0.099,0 0.332,0.04 0.397,0.105 0.064,0.065 0.105,0.298 0.105,0.397 0,0.099 -0.041,0.332 -0.105,0.397 -0.065,0.065 -0.298,0.105 -0.397,0.105 m 8.367,0 c -0.02,0 -0.468,-0.008 -0.481,-0.021 -0.014,-0.013 -0.021,-0.461 -0.021,-0.481 0,-0.02 0.007,-0.468 0.021,-0.481 0.013,-0.013 0.461,-0.021 0.481,-0.021 0.019,0 0.468,0.008 0.481,0.021 0.013,0.013 0.021,0.461 0.021,0.481 0,0.02 -0.008,0.468 -0.021,0.481 -0.013,0.013 -0.462,0.021 -0.481,0.021 m -10.459,0 c -0.119,0 -0.298,-0.048 -0.376,-0.126 -0.078,-0.078 -0.126,-0.257 -0.126,-0.376 0,-0.119 0.048,-0.298 0.126,-0.376 0.078,-0.078 0.257,-0.126 0.376,-0.126 0.119,0 0.298,0.048 0.376,0.126 0.078,0.078 0.126,0.257 0.126,0.376 0,0.119 -0.048,0.298 -0.126,0.376 -0.078,0.078 -0.257,0.126 -0.376,0.126 m 6.275,2.134 c -0.064,0 -0.433,-0.026 -0.476,-0.069 -0.042,-0.042 -0.068,-0.411 -0.068,-0.475 0,-0.065 0.026,-0.434 0.068,-0.476 0.043,-0.042 0.412,-0.068 0.476,-0.068 0.065,0 0.434,0.026 0.476,0.068 0.042,0.042 0.068,0.411 0.068,0.476 0,0.064 -0.026,0.433 -0.068,0.475 -0.042,0.043 -0.411,0.069 -0.476,0.069 m 2.092,0 c -0.043,0 -0.47,-0.018 -0.498,-0.046 -0.029,-0.028 -0.046,-0.455 -0.046,-0.498 0,-0.043 0.017,-0.47 0.046,-0.499 0.028,-0.028 0.455,-0.045 0.498,-0.045 0.043,0 0.47,0.017 0.498,0.045 0.028,0.029 0.046,0.456 0.046,0.499 0,0.043 -0.018,0.47 -0.046,0.498 -0.028,0.028 -0.455,0.046 -0.498,0.046 m -6.275,0 c -0.107,0 -0.36,-0.044 -0.43,-0.114 -0.071,-0.071 -0.114,-0.323 -0.114,-0.43 0,-0.108 0.043,-0.36 0.114,-0.43 0.07,-0.071 0.323,-0.114 0.43,-0.114 0.107,0 0.359,0.043 0.43,0.114 0.07,0.07 0.113,0.322 0.113,0.43 0,0.107 -0.043,0.359 -0.113,0.43 -0.071,0.07 -0.323,0.114 -0.43,0.114 m 2.091,0 c -0.085,0 -0.396,-0.035 -0.452,-0.092 -0.057,-0.056 -0.091,-0.367 -0.091,-0.452 0,-0.086 0.034,-0.397 0.091,-0.453 0.056,-0.056 0.367,-0.091 0.452,-0.091 0.086,0 0.397,0.035 0.453,0.091 0.057,0.056 0.091,0.367 0.091,0.453 0,0.085 -0.034,0.396 -0.091,0.452 -0.056,0.057 -0.367,0.092 -0.453,0.092"
       style="fill:#000000 icc-color(Display, 0, 0, 0);fill-opacity:1;fill-rule:evenodd;stroke:none"
       transform="matrix(1.0666666,0,0,-1.0666666,16.582567,4.008421)"
       clip-path="url(#clipPath2375)" /></g></svg>
