<?xml version="1.0" encoding="UTF-8" standalone="no"?>
<svg
   id="b"
   width="20"
   height="20"
   viewBox="0 0 20 20"
   version="1.1"
   sodipodi:docname="mask-feather.svg"
   inkscape:version="1.3.1 (91b66b0, 2023-11-16)"
   xml:space="preserve"
   xmlns:inkscape="http://www.inkscape.org/namespaces/inkscape"
   xmlns:sodipodi="http://sodipodi.sourceforge.net/DTD/sodipodi-0.dtd"
   xmlns="http://www.w3.org/2000/svg"
   xmlns:svg="http://www.w3.org/2000/svg"><sodipodi:namedview
     id="namedview3"
     pagecolor="#ffffff"
     bordercolor="#000000"
     borderopacity="0.25"
     inkscape:showpageshadow="2"
     inkscape:pageopacity="0.0"
     inkscape:pagecheckerboard="0"
     inkscape:deskcolor="#d1d1d1"
     inkscape:zoom="17.931023"
     inkscape:cx="5.0750032"
     inkscape:cy="11.265392"
     inkscape:window-width="1312"
     inkscape:window-height="605"
     inkscape:window-x="65"
     inkscape:window-y="93"
     inkscape:window-maximized="0"
     inkscape:current-layer="g4777" /><defs
     id="defs1"><style
       id="style1">.e{stroke:#000;stroke-linecap:round;stroke-linejoin:round;}.e,.f{fill:none;}.f{opacity:.2;stroke-width:0px;}</style><clipPath
       clipPathUnits="userSpaceOnUse"
       id="clipPath3761"><path
         d="M 0,1205.777 H 2738.234 V 0 H 0 Z"
         transform="translate(-1062.36,-340.07301)"
         id="path3761" /></clipPath><clipPath
       clipPathUnits="userSpaceOnUse"
       id="clipPath3763"><path
         d="M 0,1205.777 H 2738.234 V 0 H 0 Z"
         transform="translate(-1062.2632,-337.60821)"
         id="path3763" /></clipPath><clipPath
       clipPathUnits="userSpaceOnUse"
       id="clipPath3765"><path
         d="M 0,1205.777 H 2738.234 V 0 H 0 Z"
         transform="translate(-1062.2632,-335.39121)"
         id="path3765" /></clipPath><clipPath
       clipPathUnits="userSpaceOnUse"
       id="clipPath3767"><path
         d="M 0,1205.777 H 2738.234 V 0 H 0 Z"
         transform="translate(-1062.4291,-333.34101)"
         id="path3767" /></clipPath><clipPath
       clipPathUnits="userSpaceOnUse"
       id="clipPath3769"><path
         d="M 0,1205.777 H 2738.234 V 0 H 0 Z"
         transform="translate(-1062.9171,-331.61488)"
         id="path3769" /></clipPath><clipPath
       clipPathUnits="userSpaceOnUse"
       id="clipPath3771"><path
         d="M 0,1205.777 H 2738.234 V 0 H 0 Z"
         transform="translate(-1063.7688,-330.25498)"
         id="path3771" /></clipPath><clipPath
       clipPathUnits="userSpaceOnUse"
       id="clipPath3773"><path
         d="M 0,1205.777 H 2738.234 V 0 H 0 Z"
         transform="translate(-1064.9308,-329.20708)"
         id="path3773" /></clipPath><clipPath
       clipPathUnits="userSpaceOnUse"
       id="clipPath3775"><path
         d="M 0,1205.777 H 2738.234 V 0 H 0 Z"
         transform="translate(-1066.5945,-328.66393)"
         id="path3775" /></clipPath><clipPath
       clipPathUnits="userSpaceOnUse"
       id="clipPath3777"><path
         d="M 0,1205.777 H 2738.234 V 0 H 0 Z"
         transform="translate(-1069.0444,-328.91211)"
         id="path3777" /></clipPath><clipPath
       clipPathUnits="userSpaceOnUse"
       id="clipPath3918"><path
         d="M 0,1205.777 H 2738.234 V 0 H 0 Z"
         transform="translate(-964.05505,-422.70974)"
         id="path3918" /></clipPath><clipPath
       clipPathUnits="userSpaceOnUse"
       id="clipPath3920"><path
         d="M 0,1205.777 H 2738.234 V 0 H 0 Z"
         transform="translate(-975.25705,-427.27334)"
         id="path3920" /></clipPath><clipPath
       clipPathUnits="userSpaceOnUse"
       id="clipPath3922"><path
         d="M 0,1205.777 H 2738.234 V 0 H 0 Z"
         transform="translate(-965.65892,-422.15909)"
         id="path3922" /></clipPath><clipPath
       clipPathUnits="userSpaceOnUse"
       id="clipPath3924"><path
         d="M 0,1205.777 H 2738.234 V 0 H 0 Z"
         transform="translate(-967.69502,-426.07514)"
         id="path3924" /></clipPath><clipPath
       clipPathUnits="userSpaceOnUse"
       id="clipPath3926"><path
         d="M 0,1205.777 H 2738.234 V 0 H 0 Z"
         transform="translate(-966.9304,-423.85139)"
         id="path3926" /></clipPath><clipPath
       clipPathUnits="userSpaceOnUse"
       id="clipPath3928"><path
         d="M 0,1205.777 H 2738.234 V 0 H 0 Z"
         transform="translate(-975.6979,-429.85529)"
         id="path3928" /></clipPath><clipPath
       clipPathUnits="userSpaceOnUse"
       id="clipPath3930"><path
         d="M 0,1205.777 H 2738.234 V 0 H 0 Z"
         transform="translate(-973.447,-432.10731)"
         id="path3930" /></clipPath><clipPath
       clipPathUnits="userSpaceOnUse"
       id="clipPath2494"><path
         d="M 0,1205.777 H 2738.234 V 0 H 0 Z"
         transform="translate(-1006.1637,-427.52789)"
         id="path2494" /></clipPath><clipPath
       clipPathUnits="userSpaceOnUse"
       id="clipPath2505"><path
         d="M 0,1205.777 H 2738.234 V 0 H 0 Z"
         transform="translate(0,2.5000001e-5)"
         id="path2505" /></clipPath><clipPath
       clipPathUnits="userSpaceOnUse"
       id="clipPath2507"><path
         d="M 0,1205.777 H 2738.234 V 0 H 0 Z"
         transform="translate(0,2.5000001e-5)"
         id="path2507" /></clipPath><clipPath
       clipPathUnits="userSpaceOnUse"
       id="clipPath2509"><path
         d="M 0,1205.777 H 2738.234 V 0 H 0 Z"
         transform="translate(0,2.5000001e-5)"
         id="path2509" /></clipPath><clipPath
       clipPathUnits="userSpaceOnUse"
       id="clipPath2511"><path
         d="M 0,1205.777 H 2738.234 V 0 H 0 Z"
         transform="translate(0,2.5000001e-5)"
         id="path2511" /></clipPath><clipPath
       clipPathUnits="userSpaceOnUse"
       id="clipPath2513"><path
         d="M 0,1205.777 H 2738.234 V 0 H 0 Z"
         transform="translate(0,2.5000001e-5)"
         id="path2513" /></clipPath><clipPath
       clipPathUnits="userSpaceOnUse"
       id="clipPath2515"><path
         d="M 0,1205.777 H 2738.234 V 0 H 0 Z"
         transform="translate(-1130.1741,-427.58684)"
         id="path2515" /></clipPath><clipPath
       clipPathUnits="userSpaceOnUse"
       id="clipPath2517"><path
         d="M 0,1205.777 H 2738.234 V 0 H 0 Z"
         transform="translate(-1133.0022,-428.29409)"
         id="path2517" /></clipPath><clipPath
       clipPathUnits="userSpaceOnUse"
       id="clipPath2505-0"><path
         d="M 0,1205.777 H 2738.234 V 0 H 0 Z"
         transform="translate(0,2.5000001e-5)"
         id="path2505-4" /></clipPath><clipPath
       clipPathUnits="userSpaceOnUse"
       id="clipPath4433"><path
         d="M 0,1205.777 H 2738.234 V 0 H 0 Z"
         transform="translate(0,2.5000001e-5)"
         id="path4433" /></clipPath><clipPath
       clipPathUnits="userSpaceOnUse"
       id="clipPath4435"><path
         d="M 0,1205.777 H 2738.234 V 0 H 0 Z"
         transform="translate(0,2.5000001e-5)"
         id="path4435" /></clipPath><clipPath
       clipPathUnits="userSpaceOnUse"
       id="clipPath4431"><path
         d="M 0,1205.777 H 2738.234 V 0 H 0 Z"
         transform="translate(0,2.5000001e-5)"
         id="path4431" /></clipPath><clipPath
       clipPathUnits="userSpaceOnUse"
       id="clipPath4451"><path
         d="M 0,1205.777 H 2738.234 V 0 H 0 Z"
         transform="translate(0,2.5000001e-5)"
         id="path4451" /></clipPath><clipPath
       clipPathUnits="userSpaceOnUse"
       id="clipPath4453"><path
         d="M 0,1205.777 H 2738.234 V 0 H 0 Z"
         transform="translate(0,2.5000001e-5)"
         id="path4453" /></clipPath><clipPath
       clipPathUnits="userSpaceOnUse"
       id="clipPath4455"><path
         d="M 0,1205.777 H 2738.234 V 0 H 0 Z"
         transform="translate(0,2.5000001e-5)"
         id="path4455" /></clipPath><clipPath
       clipPathUnits="userSpaceOnUse"
       id="clipPath4449"><path
         d="M 0,1205.777 H 2738.234 V 0 H 0 Z"
         transform="translate(0,2.5000001e-5)"
         id="path4449" /></clipPath><clipPath
       clipPathUnits="userSpaceOnUse"
       id="clipPath4447"><path
         d="M 0,1205.777 H 2738.234 V 0 H 0 Z"
         transform="translate(-1307.7345,-464.06881)"
         id="path4447" /></clipPath><clipPath
       clipPathUnits="userSpaceOnUse"
       id="clipPath4445"><path
         d="M 0,1205.777 H 2738.234 V 0 H 0 Z"
         transform="translate(-1307.7345,-468.35451)"
         id="path4445" /></clipPath><clipPath
       clipPathUnits="userSpaceOnUse"
       id="clipPath4457"><path
         d="M 0,1205.777 H 2738.234 V 0 H 0 Z"
         transform="translate(-1304.1229,-451.35411)"
         id="path4457" /></clipPath><clipPath
       clipPathUnits="userSpaceOnUse"
       id="clipPath4459"><path
         d="M 0,1205.777 H 2738.234 V 0 H 0 Z"
         transform="translate(0,2.5000001e-5)"
         id="path4459" /></clipPath><clipPath
       clipPathUnits="userSpaceOnUse"
       id="clipPath4461"><path
         d="M 0,1205.777 H 2738.234 V 0 H 0 Z"
         transform="translate(0,2.5000001e-5)"
         id="path4461" /></clipPath><clipPath
       clipPathUnits="userSpaceOnUse"
       id="clipPath4463"><path
         d="M 0,1205.777 H 2738.234 V 0 H 0 Z"
         transform="translate(-1311.5344,-435.35451)"
         id="path4463" /></clipPath><clipPath
       clipPathUnits="userSpaceOnUse"
       id="clipPath4465"><path
         d="M 0,1205.777 H 2738.234 V 0 H 0 Z"
         transform="translate(0,2.5000001e-5)"
         id="path4465" /></clipPath><clipPath
       clipPathUnits="userSpaceOnUse"
       id="clipPath4467"><path
         d="M 0,1205.777 H 2738.234 V 0 H 0 Z"
         transform="translate(0,2.5000001e-5)"
         id="path4467" /></clipPath><clipPath
       clipPathUnits="userSpaceOnUse"
       id="clipPath4441"><path
         d="M 0,1205.777 H 2738.234 V 0 H 0 Z"
         transform="translate(-1303.7346,-480.35451)"
         id="path4441" /></clipPath><clipPath
       clipPathUnits="userSpaceOnUse"
       id="clipPath4443"><path
         d="M 0,1205.777 H 2738.234 V 0 H 0 Z"
         transform="translate(0,2.5000001e-5)"
         id="path4443" /></clipPath><clipPath
       clipPathUnits="userSpaceOnUse"
       id="clipPath4437"><path
         d="M 0,1205.777 H 2738.234 V 0 H 0 Z"
         transform="translate(-1311.7345,-496.35451)"
         id="path4437" /></clipPath><clipPath
       clipPathUnits="userSpaceOnUse"
       id="clipPath4439"><path
         d="M 0,1205.777 H 2738.234 V 0 H 0 Z"
         transform="translate(0,2.5000001e-5)"
         id="path4439" /></clipPath><clipPath
       clipPathUnits="userSpaceOnUse"
       id="clipPath4469"><path
         d="M 0,1205.777 H 2738.234 V 0 H 0 Z"
         transform="translate(-871.38212,-357.08721)"
         id="path4469" /></clipPath><clipPath
       clipPathUnits="userSpaceOnUse"
       id="clipPath4471"><path
         d="M 0,1205.777 H 2738.234 V 0 H 0 Z"
         transform="translate(-879.2344,-350.35453)"
         id="path4471" /></clipPath><clipPath
       clipPathUnits="userSpaceOnUse"
       id="clipPath4473"><path
         d="M 0,1205.777 H 2738.234 V 0 H 0 Z"
         transform="translate(-867.73442,-354.35451)"
         id="path4473" /></clipPath><clipPath
       clipPathUnits="userSpaceOnUse"
       id="clipPath4475"><path
         d="M 0,1205.777 H 2738.234 V 0 H 0 Z"
         transform="translate(-867.73442,-341.35453)"
         id="path4475" /></clipPath><clipPath
       clipPathUnits="userSpaceOnUse"
       id="clipPath4477"><path
         d="M 0,1205.777 H 2738.234 V 0 H 0 Z"
         transform="translate(-882.73442,-340.35448)"
         id="path4477" /></clipPath><clipPath
       clipPathUnits="userSpaceOnUse"
       id="clipPath4479"><path
         d="M 0,1205.777 H 2738.234 V 0 H 0 Z"
         transform="translate(-882.73442,-353.35453)"
         id="path4479" /></clipPath><clipPath
       clipPathUnits="userSpaceOnUse"
       id="clipPath2106"><path
         d="M 0,1205.777 H 2738.234 V 0 H 0 Z"
         transform="translate(-2557.7344,-284.64493)"
         id="path2106" /></clipPath><clipPath
       clipPathUnits="userSpaceOnUse"
       id="clipPath2108"><path
         d="M 0,1205.777 H 2738.234 V 0 H 0 Z"
         transform="translate(-2561.4199,-284.36998)"
         id="path2108" /></clipPath><clipPath
       clipPathUnits="userSpaceOnUse"
       id="clipPath2110"><path
         d="M 0,1205.777 H 2738.234 V 0 H 0 Z"
         transform="translate(-2568.7179,-274.64503)"
         id="path2110" /></clipPath><clipPath
       clipPathUnits="userSpaceOnUse"
       id="clipPath2112"><path
         d="M 0,1205.777 H 2738.234 V 0 H 0 Z"
         transform="translate(-2559.7345,-276.24051)"
         id="path2112" /></clipPath><clipPath
       clipPathUnits="userSpaceOnUse"
       id="clipPath2114"><path
         d="M 0,1205.777 H 2738.234 V 0 H 0 Z"
         transform="translate(-2561.1031,-280.83621)"
         id="path2114" /></clipPath></defs><g
     id="g1"
     transform="translate(-0.43216786,0.07904603)"><g
       id="g4777"
       transform="translate(-3407.214,-1225.5924)"><path
         style="color:#000000;fill:#000000 icc-color(Display, 0, 0, 0);stroke-linecap:round;stroke-miterlimit:10;-inkscape-stroke:none"
         d="M 0.98242188,-0.51757812 C 0.66595128,-0.50585699 0.33814058,-0.5 0,-0.5 A 0.5,0.5 0 0 0 -0.5,0 0.5,0.5 0 0 0 0,0.5 c 0.34785874,0 0.68604937,-0.005299 1.0175781,-0.0175781 A 0.5,0.5 0 0 0 1.5,-0.03515625 0.5,0.5 0 0 0 0.98242188,-0.51757812 Z"
         id="path2105"
         transform="matrix(1.3333333,0,0,-1.3333333,3410.3125,1228.1801)" /><path
         style="color:#000000;fill:#000000 icc-color(Display, 0, 0, 0);stroke-linecap:round;stroke-miterlimit:10;stroke-dasharray:1.797, 2.695;-inkscape-stroke:none"
         d="m 7.2636719,-8.8808594 a 0.5,0.5 0 0 0 -0.546875,0.4472656 l -0.015625,0.1582032 a 0.5,0.5 0 0 0 0.4472656,0.546875 0.5,0.5 0 0 0 0.546875,-0.4492188 l 0.015625,-0.15625 A 0.5,0.5 0 0 0 7.2636719,-8.8808594 Z M 6.5957031,-5.1972656 A 0.5,0.5 0 0 0 5.9492187,-4.9121094 L 5.9375,-4.8828125 5.8710937,-4.7207031 5.8027344,-4.5625 5.7304687,-4.4082031 5.65625,-4.2558594 5.5800781,-4.1074219 5.5,-3.9628906 l -0.080078,0.1425781 -0.083984,0.1386719 -0.087891,0.1347656 -0.089844,0.1328125 -0.091797,0.1289062 -0.09375,0.125 -0.097656,0.1230469 -0.041016,0.048828 a 0.5,0.5 0 0 0 0.0625,0.7050782 0.5,0.5 0 0 0 0.7050781,-0.064453 l 0.048828,-0.058594 0.1132813,-0.1425781 0.109375,-0.1464844 0.1074218,-0.1484375 0.1035157,-0.1523438 0.099609,-0.15625 0.095703,-0.1582031 0.09375,-0.1621094 0.089844,-0.1660156 0.087891,-0.1679687 0.083984,-0.171875 0.080078,-0.1757813 0.078125,-0.1777343 0.074219,-0.1816407 0.013672,-0.037109 A 0.5,0.5 0 0 0 6.5957031,-5.1972656 Z m -4.4667968,4.1054687 -0.1484376,0.058594 -0.1699218,0.0605468 -0.171875,0.0585938 -0.1777344,0.0566406 -0.1796875,0.0546875 -0.1835938,0.0507813 -0.18749995,0.0507813 -0.19140625,0.046875 -0.1953125,0.0429687 -0.19921875,0.0429687 -0.203125,0.0390625 -0.20898437,0.0371094 A 0.5,0.5 0 0 0 -0.4921875,0.08789062 0.5,0.5 0 0 0 0.08789062,0.4921875 L 0.3046875,0.453125 0.5234375,0.41015625 0.73632812,0.36523438 0.94726563,0.31835938 1.1542969,0.26757813 1.359375,0.21484375 1.5605469,0.15820312 1.7578125,0.09765625 1.953125,0.03710937 2.1425781,-0.02929688 2.3320313,-0.09765625 2.4882813,-0.15820312 A 0.5,0.5 0 0 0 2.7753906,-0.8046875 0.5,0.5 0 0 0 2.1289063,-1.0917969 Z"
         id="path2107"
         transform="matrix(1.3333333,0,0,-1.3333333,3415.2265,1228.5467)" /><path
         style="color:#000000;fill:#000000 icc-color(Display, 0, 0, 0);stroke-linecap:round;stroke-miterlimit:10;-inkscape-stroke:none"
         d="M 0.01757813,-1.5 A 0.5,0.5 0 0 0 -0.48242188,-1 c 0,0.33615171 -0.006764,0.66390603 -0.0175781,0.98242187 A 0.5,0.5 0 0 0 -0.01757813,0.5 0.5,0.5 0 0 0 0.5,0.01757813 C 0.51118617,-0.31190538 0.51757812,-0.65215239 0.51757812,-1 A 0.5,0.5 0 0 0 0.01757813,-1.5 Z"
         id="path2109"
         transform="matrix(1.3333333,0,0,-1.3333333,3424.9571,1241.5133)" /><path
         style="color:#000000;fill:#000000 icc-color(Display, 0, 0, 0);stroke-linecap:round;stroke-linejoin:round;stroke-miterlimit:10;-inkscape-stroke:none"
         d="m 0,-0.44921875 a 0.44999999,0.44999999 0 0 0 -0.31835938,0.13085937 0.44999999,0.44999999 0 0 0 0,0.63671876 L 4.0273437,4.6640625 a 0.44999999,0.44999999 0 0 0 0.6367188,0 0.44999999,0.44999999 0 0 0 0,-0.6367188 L 0.31835938,-0.31835938 A 0.44999999,0.44999999 0 0 0 0,-0.44921875 Z"
         id="path2111"
         transform="matrix(1.3333333,0,0,-1.3333333,3412.9792,1239.386)" /><path
         style="color:#000000;fill:#000000 icc-color(Display, 0, 0, 0);stroke-linecap:round;stroke-linejoin:round;stroke-miterlimit:10;-inkscape-stroke:none"
         d="m 3.2285156,-3.6796875 a 0.44999999,0.44999999 0 0 0 -0.4511718,0.4511719 v 2.77929685 H 0 A 0.44999999,0.44999999 0 0 0 -0.44921875,0 0.44999999,0.44999999 0 0 0 0,0.44921875 H 3.2285156 A 0.45004499,0.45004499 0 0 0 3.6777344,0 V -3.2285156 A 0.44999999,0.44999999 0 0 0 3.2285156,-3.6796875 Z"
         id="path2113"
         transform="matrix(1.3333333,0,0,-1.3333333,3414.804,1233.2584)" /></g></g></svg>
