<?xml version="1.0" encoding="UTF-8" standalone="no"?>
<svg
   id="b"
   width="20"
   height="20"
   viewBox="0 0 20 20"
   version="1.1"
   sodipodi:docname="mesh-add.svg"
   inkscape:version="1.3.1 (91b66b0, 2023-11-16)"
   xml:space="preserve"
   xmlns:inkscape="http://www.inkscape.org/namespaces/inkscape"
   xmlns:sodipodi="http://sodipodi.sourceforge.net/DTD/sodipodi-0.dtd"
   xmlns="http://www.w3.org/2000/svg"
   xmlns:svg="http://www.w3.org/2000/svg"><sodipodi:namedview
     id="namedview3"
     pagecolor="#ffffff"
     bordercolor="#000000"
     borderopacity="0.25"
     inkscape:showpageshadow="2"
     inkscape:pageopacity="0.0"
     inkscape:pagecheckerboard="0"
     inkscape:deskcolor="#d1d1d1"
     inkscape:zoom="17.931023"
     inkscape:cx="5.0192341"
     inkscape:cy="11.265392"
     inkscape:window-width="1312"
     inkscape:window-height="605"
     inkscape:window-x="65"
     inkscape:window-y="121"
     inkscape:window-maximized="0"
     inkscape:current-layer="g1" /><defs
     id="defs1"><style
       id="style1">.e{stroke:#000;stroke-linecap:round;stroke-linejoin:round;}.e,.f{fill:none;}.f{opacity:.2;stroke-width:0px;}</style><clipPath
       clipPathUnits="userSpaceOnUse"
       id="clipPath3761"><path
         d="M 0,1205.777 H 2738.234 V 0 H 0 Z"
         transform="translate(-1062.36,-340.07301)"
         id="path3761" /></clipPath><clipPath
       clipPathUnits="userSpaceOnUse"
       id="clipPath3763"><path
         d="M 0,1205.777 H 2738.234 V 0 H 0 Z"
         transform="translate(-1062.2632,-337.60821)"
         id="path3763" /></clipPath><clipPath
       clipPathUnits="userSpaceOnUse"
       id="clipPath3765"><path
         d="M 0,1205.777 H 2738.234 V 0 H 0 Z"
         transform="translate(-1062.2632,-335.39121)"
         id="path3765" /></clipPath><clipPath
       clipPathUnits="userSpaceOnUse"
       id="clipPath3767"><path
         d="M 0,1205.777 H 2738.234 V 0 H 0 Z"
         transform="translate(-1062.4291,-333.34101)"
         id="path3767" /></clipPath><clipPath
       clipPathUnits="userSpaceOnUse"
       id="clipPath3769"><path
         d="M 0,1205.777 H 2738.234 V 0 H 0 Z"
         transform="translate(-1062.9171,-331.61488)"
         id="path3769" /></clipPath><clipPath
       clipPathUnits="userSpaceOnUse"
       id="clipPath3771"><path
         d="M 0,1205.777 H 2738.234 V 0 H 0 Z"
         transform="translate(-1063.7688,-330.25498)"
         id="path3771" /></clipPath><clipPath
       clipPathUnits="userSpaceOnUse"
       id="clipPath3773"><path
         d="M 0,1205.777 H 2738.234 V 0 H 0 Z"
         transform="translate(-1064.9308,-329.20708)"
         id="path3773" /></clipPath><clipPath
       clipPathUnits="userSpaceOnUse"
       id="clipPath3775"><path
         d="M 0,1205.777 H 2738.234 V 0 H 0 Z"
         transform="translate(-1066.5945,-328.66393)"
         id="path3775" /></clipPath><clipPath
       clipPathUnits="userSpaceOnUse"
       id="clipPath3777"><path
         d="M 0,1205.777 H 2738.234 V 0 H 0 Z"
         transform="translate(-1069.0444,-328.91211)"
         id="path3777" /></clipPath><clipPath
       clipPathUnits="userSpaceOnUse"
       id="clipPath3918"><path
         d="M 0,1205.777 H 2738.234 V 0 H 0 Z"
         transform="translate(-964.05505,-422.70974)"
         id="path3918" /></clipPath><clipPath
       clipPathUnits="userSpaceOnUse"
       id="clipPath3920"><path
         d="M 0,1205.777 H 2738.234 V 0 H 0 Z"
         transform="translate(-975.25705,-427.27334)"
         id="path3920" /></clipPath><clipPath
       clipPathUnits="userSpaceOnUse"
       id="clipPath3922"><path
         d="M 0,1205.777 H 2738.234 V 0 H 0 Z"
         transform="translate(-965.65892,-422.15909)"
         id="path3922" /></clipPath><clipPath
       clipPathUnits="userSpaceOnUse"
       id="clipPath3924"><path
         d="M 0,1205.777 H 2738.234 V 0 H 0 Z"
         transform="translate(-967.69502,-426.07514)"
         id="path3924" /></clipPath><clipPath
       clipPathUnits="userSpaceOnUse"
       id="clipPath3926"><path
         d="M 0,1205.777 H 2738.234 V 0 H 0 Z"
         transform="translate(-966.9304,-423.85139)"
         id="path3926" /></clipPath><clipPath
       clipPathUnits="userSpaceOnUse"
       id="clipPath3928"><path
         d="M 0,1205.777 H 2738.234 V 0 H 0 Z"
         transform="translate(-975.6979,-429.85529)"
         id="path3928" /></clipPath><clipPath
       clipPathUnits="userSpaceOnUse"
       id="clipPath3930"><path
         d="M 0,1205.777 H 2738.234 V 0 H 0 Z"
         transform="translate(-973.447,-432.10731)"
         id="path3930" /></clipPath><clipPath
       clipPathUnits="userSpaceOnUse"
       id="clipPath2494"><path
         d="M 0,1205.777 H 2738.234 V 0 H 0 Z"
         transform="translate(-1006.1637,-427.52789)"
         id="path2494" /></clipPath><clipPath
       clipPathUnits="userSpaceOnUse"
       id="clipPath2505"><path
         d="M 0,1205.777 H 2738.234 V 0 H 0 Z"
         transform="translate(0,2.5000001e-5)"
         id="path2505" /></clipPath><clipPath
       clipPathUnits="userSpaceOnUse"
       id="clipPath2507"><path
         d="M 0,1205.777 H 2738.234 V 0 H 0 Z"
         transform="translate(0,2.5000001e-5)"
         id="path2507" /></clipPath><clipPath
       clipPathUnits="userSpaceOnUse"
       id="clipPath2509"><path
         d="M 0,1205.777 H 2738.234 V 0 H 0 Z"
         transform="translate(0,2.5000001e-5)"
         id="path2509" /></clipPath><clipPath
       clipPathUnits="userSpaceOnUse"
       id="clipPath2511"><path
         d="M 0,1205.777 H 2738.234 V 0 H 0 Z"
         transform="translate(0,2.5000001e-5)"
         id="path2511" /></clipPath><clipPath
       clipPathUnits="userSpaceOnUse"
       id="clipPath2513"><path
         d="M 0,1205.777 H 2738.234 V 0 H 0 Z"
         transform="translate(0,2.5000001e-5)"
         id="path2513" /></clipPath><clipPath
       clipPathUnits="userSpaceOnUse"
       id="clipPath2515"><path
         d="M 0,1205.777 H 2738.234 V 0 H 0 Z"
         transform="translate(-1130.1741,-427.58684)"
         id="path2515" /></clipPath><clipPath
       clipPathUnits="userSpaceOnUse"
       id="clipPath2517"><path
         d="M 0,1205.777 H 2738.234 V 0 H 0 Z"
         transform="translate(-1133.0022,-428.29409)"
         id="path2517" /></clipPath><clipPath
       clipPathUnits="userSpaceOnUse"
       id="clipPath2505-0"><path
         d="M 0,1205.777 H 2738.234 V 0 H 0 Z"
         transform="translate(0,2.5000001e-5)"
         id="path2505-4" /></clipPath><clipPath
       clipPathUnits="userSpaceOnUse"
       id="clipPath4433"><path
         d="M 0,1205.777 H 2738.234 V 0 H 0 Z"
         transform="translate(0,2.5000001e-5)"
         id="path4433" /></clipPath><clipPath
       clipPathUnits="userSpaceOnUse"
       id="clipPath4435"><path
         d="M 0,1205.777 H 2738.234 V 0 H 0 Z"
         transform="translate(0,2.5000001e-5)"
         id="path4435" /></clipPath><clipPath
       clipPathUnits="userSpaceOnUse"
       id="clipPath4431"><path
         d="M 0,1205.777 H 2738.234 V 0 H 0 Z"
         transform="translate(0,2.5000001e-5)"
         id="path4431" /></clipPath><clipPath
       clipPathUnits="userSpaceOnUse"
       id="clipPath4451"><path
         d="M 0,1205.777 H 2738.234 V 0 H 0 Z"
         transform="translate(0,2.5000001e-5)"
         id="path4451" /></clipPath><clipPath
       clipPathUnits="userSpaceOnUse"
       id="clipPath4453"><path
         d="M 0,1205.777 H 2738.234 V 0 H 0 Z"
         transform="translate(0,2.5000001e-5)"
         id="path4453" /></clipPath><clipPath
       clipPathUnits="userSpaceOnUse"
       id="clipPath4455"><path
         d="M 0,1205.777 H 2738.234 V 0 H 0 Z"
         transform="translate(0,2.5000001e-5)"
         id="path4455" /></clipPath><clipPath
       clipPathUnits="userSpaceOnUse"
       id="clipPath4449"><path
         d="M 0,1205.777 H 2738.234 V 0 H 0 Z"
         transform="translate(0,2.5000001e-5)"
         id="path4449" /></clipPath><clipPath
       clipPathUnits="userSpaceOnUse"
       id="clipPath4447"><path
         d="M 0,1205.777 H 2738.234 V 0 H 0 Z"
         transform="translate(-1307.7345,-464.06881)"
         id="path4447" /></clipPath><clipPath
       clipPathUnits="userSpaceOnUse"
       id="clipPath4445"><path
         d="M 0,1205.777 H 2738.234 V 0 H 0 Z"
         transform="translate(-1307.7345,-468.35451)"
         id="path4445" /></clipPath><clipPath
       clipPathUnits="userSpaceOnUse"
       id="clipPath4457"><path
         d="M 0,1205.777 H 2738.234 V 0 H 0 Z"
         transform="translate(-1304.1229,-451.35411)"
         id="path4457" /></clipPath><clipPath
       clipPathUnits="userSpaceOnUse"
       id="clipPath4459"><path
         d="M 0,1205.777 H 2738.234 V 0 H 0 Z"
         transform="translate(0,2.5000001e-5)"
         id="path4459" /></clipPath><clipPath
       clipPathUnits="userSpaceOnUse"
       id="clipPath4461"><path
         d="M 0,1205.777 H 2738.234 V 0 H 0 Z"
         transform="translate(0,2.5000001e-5)"
         id="path4461" /></clipPath><clipPath
       clipPathUnits="userSpaceOnUse"
       id="clipPath4463"><path
         d="M 0,1205.777 H 2738.234 V 0 H 0 Z"
         transform="translate(-1311.5344,-435.35451)"
         id="path4463" /></clipPath><clipPath
       clipPathUnits="userSpaceOnUse"
       id="clipPath4465"><path
         d="M 0,1205.777 H 2738.234 V 0 H 0 Z"
         transform="translate(0,2.5000001e-5)"
         id="path4465" /></clipPath><clipPath
       clipPathUnits="userSpaceOnUse"
       id="clipPath4467"><path
         d="M 0,1205.777 H 2738.234 V 0 H 0 Z"
         transform="translate(0,2.5000001e-5)"
         id="path4467" /></clipPath><clipPath
       clipPathUnits="userSpaceOnUse"
       id="clipPath4441"><path
         d="M 0,1205.777 H 2738.234 V 0 H 0 Z"
         transform="translate(-1303.7346,-480.35451)"
         id="path4441" /></clipPath><clipPath
       clipPathUnits="userSpaceOnUse"
       id="clipPath4443"><path
         d="M 0,1205.777 H 2738.234 V 0 H 0 Z"
         transform="translate(0,2.5000001e-5)"
         id="path4443" /></clipPath><clipPath
       clipPathUnits="userSpaceOnUse"
       id="clipPath4437"><path
         d="M 0,1205.777 H 2738.234 V 0 H 0 Z"
         transform="translate(-1311.7345,-496.35451)"
         id="path4437" /></clipPath><clipPath
       clipPathUnits="userSpaceOnUse"
       id="clipPath4439"><path
         d="M 0,1205.777 H 2738.234 V 0 H 0 Z"
         transform="translate(0,2.5000001e-5)"
         id="path4439" /></clipPath><clipPath
       clipPathUnits="userSpaceOnUse"
       id="clipPath4469"><path
         d="M 0,1205.777 H 2738.234 V 0 H 0 Z"
         transform="translate(-871.38212,-357.08721)"
         id="path4469" /></clipPath><clipPath
       clipPathUnits="userSpaceOnUse"
       id="clipPath4471"><path
         d="M 0,1205.777 H 2738.234 V 0 H 0 Z"
         transform="translate(-879.2344,-350.35453)"
         id="path4471" /></clipPath><clipPath
       clipPathUnits="userSpaceOnUse"
       id="clipPath4473"><path
         d="M 0,1205.777 H 2738.234 V 0 H 0 Z"
         transform="translate(-867.73442,-354.35451)"
         id="path4473" /></clipPath><clipPath
       clipPathUnits="userSpaceOnUse"
       id="clipPath4475"><path
         d="M 0,1205.777 H 2738.234 V 0 H 0 Z"
         transform="translate(-867.73442,-341.35453)"
         id="path4475" /></clipPath><clipPath
       clipPathUnits="userSpaceOnUse"
       id="clipPath4477"><path
         d="M 0,1205.777 H 2738.234 V 0 H 0 Z"
         transform="translate(-882.73442,-340.35448)"
         id="path4477" /></clipPath><clipPath
       clipPathUnits="userSpaceOnUse"
       id="clipPath4479"><path
         d="M 0,1205.777 H 2738.234 V 0 H 0 Z"
         transform="translate(-882.73442,-353.35453)"
         id="path4479" /></clipPath></defs><g
     id="g1"
     transform="translate(-0.43216786,0.07904603)"><g
       id="g4508"
       transform="matrix(0.78947369,0,0,0.75613169,-910.86721,-853.50634)"
       style="fill:#000000"><path
         id="path4468"
         d="m 0,0 c -1.542,0 -2.845,-0.404 -4.148,-1.29 v -13.112 c 0,-0.195 0.17,-0.331 0.354,-0.331 0.064,0 0.128,0.016 0.189,0.051 1.126,0.649 2.277,0.949 3.605,0.949 3.164,0 4.493,-1.732 7.87,-1.732 1.622,0 2.845,0.404 3.935,1.29 v 13.063 c 0,0.195 -0.168,0.326 -0.352,0.326 -0.069,0 -0.14,-0.018 -0.205,-0.06 C 10.296,-1.452 9.222,-1.733 7.87,-1.733 4.493,-1.733 3.164,0 0,0 m 11.847,-1.673 h 0.005 -0.005 M 0,-1 c 1.35,0 2.301,-0.358 3.402,-0.773 1.193,-0.45 2.546,-0.96 4.468,-0.96 1.085,0 2.135,0.159 2.982,0.493 v -11.453 c -0.801,-0.538 -1.799,-0.772 -2.982,-0.772 -1.509,0 -2.56,0.396 -3.673,0.815 C 3,-13.199 1.763,-12.733 0,-12.733 c -1.1,0 -2.184,-0.188 -3.148,-0.571 V -1.821 C -2.18,-1.256 -1.143,-1 0,-1"
         style="fill:#000000;fill-opacity:1;fill-rule:nonzero;stroke:none"
         transform="matrix(1.3333333,0,0,-1.3333333,1161.8428,1131.5904)"
         clip-path="url(#clipPath4469)" /><path
         id="path4470"
         d="M 0,0 H -3 V 3 H -5 V 0 h -3 v -2 h 3 v -3 h 2 v 3 h 3 z"
         style="fill:#000000;fill-opacity:1;fill-rule:nonzero;stroke:none"
         transform="matrix(1.3333333,0,0,-1.3333333,1172.3125,1140.5673)"
         clip-path="url(#clipPath4471)" /><path
         id="path4472"
         d="M 0,0 V 0 C -1.105,0 -2,0.895 -2,2 -2,3.105 -1.105,4 0,4 1.105,4 2,3.105 2,2 2,0.895 1.105,0 0,0"
         style="fill:#000000;fill-opacity:1;fill-rule:nonzero;stroke:none"
         transform="matrix(1.3333333,0,0,-1.3333333,1156.9792,1135.234)"
         clip-path="url(#clipPath4473)" /><path
         id="path4474"
         d="M 0,0 V 0 C -1.105,0 -2,0.895 -2,2 -2,3.105 -1.105,4 0,4 1.105,4 2,3.105 2,2 2,0.895 1.105,0 0,0"
         style="fill:#000000;fill-opacity:1;fill-rule:nonzero;stroke:none"
         transform="matrix(1.3333333,0,0,-1.3333333,1156.9792,1152.5673)"
         clip-path="url(#clipPath4475)" /><path
         id="path4476"
         d="M 0,0 V 0 C -1.105,0 -2,0.895 -2,2 -2,3.105 -1.105,4 0,4 1.105,4 2,3.105 2,2 2,0.895 1.105,0 0,0"
         style="fill:#000000;fill-opacity:1;fill-rule:nonzero;stroke:none"
         transform="matrix(1.3333333,0,0,-1.3333333,1176.9792,1153.9007)"
         clip-path="url(#clipPath4477)" /><path
         id="path4478"
         d="M 0,0 V 0 C -1.105,0 -2,0.895 -2,2 -2,3.105 -1.105,4 0,4 1.105,4 2,3.105 2,2 2,0.895 1.105,0 0,0"
         style="fill:#000000;fill-opacity:1;fill-rule:nonzero;stroke:none"
         transform="matrix(1.3333333,0,0,-1.3333333,1176.9792,1136.5673)"
         clip-path="url(#clipPath4479)" /></g></g></svg>
