<?xml version="1.0" encoding="UTF-8" standalone="no"?>
<svg
   id="b"
   width="20"
   height="16"
   viewBox="0 0 20 16"
   version="1.1"
   sodipodi:docname="show-images.svg"
   inkscape:version="1.3.1 (91b66b0, 2023-11-16)"
   xml:space="preserve"
   xmlns:inkscape="http://www.inkscape.org/namespaces/inkscape"
   xmlns:sodipodi="http://sodipodi.sourceforge.net/DTD/sodipodi-0.dtd"
   xmlns="http://www.w3.org/2000/svg"
   xmlns:svg="http://www.w3.org/2000/svg"><sodipodi:namedview
     id="namedview3"
     pagecolor="#ffffff"
     bordercolor="#000000"
     borderopacity="0.25"
     inkscape:showpageshadow="2"
     inkscape:pageopacity="0.0"
     inkscape:pagecheckerboard="0"
     inkscape:deskcolor="#d1d1d1"
     inkscape:zoom="14.75"
     inkscape:cx="5.9661017"
     inkscape:cy="8.5423729"
     inkscape:window-width="1312"
     inkscape:window-height="605"
     inkscape:window-x="68"
     inkscape:window-y="267"
     inkscape:window-maximized="0"
     inkscape:current-layer="g1" /><defs
     id="defs1"><style
       id="style1">.e{stroke:#000;stroke-linecap:round;stroke-linejoin:round;}.e,.f{fill:none;}.f{opacity:.2;stroke-width:0px;}</style><clipPath
       clipPathUnits="userSpaceOnUse"
       id="clipPath3761"><path
         d="M 0,1205.777 H 2738.234 V 0 H 0 Z"
         transform="translate(-1062.36,-340.07301)"
         id="path3761" /></clipPath><clipPath
       clipPathUnits="userSpaceOnUse"
       id="clipPath3763"><path
         d="M 0,1205.777 H 2738.234 V 0 H 0 Z"
         transform="translate(-1062.2632,-337.60821)"
         id="path3763" /></clipPath><clipPath
       clipPathUnits="userSpaceOnUse"
       id="clipPath3765"><path
         d="M 0,1205.777 H 2738.234 V 0 H 0 Z"
         transform="translate(-1062.2632,-335.39121)"
         id="path3765" /></clipPath><clipPath
       clipPathUnits="userSpaceOnUse"
       id="clipPath3767"><path
         d="M 0,1205.777 H 2738.234 V 0 H 0 Z"
         transform="translate(-1062.4291,-333.34101)"
         id="path3767" /></clipPath><clipPath
       clipPathUnits="userSpaceOnUse"
       id="clipPath3769"><path
         d="M 0,1205.777 H 2738.234 V 0 H 0 Z"
         transform="translate(-1062.9171,-331.61488)"
         id="path3769" /></clipPath><clipPath
       clipPathUnits="userSpaceOnUse"
       id="clipPath3771"><path
         d="M 0,1205.777 H 2738.234 V 0 H 0 Z"
         transform="translate(-1063.7688,-330.25498)"
         id="path3771" /></clipPath><clipPath
       clipPathUnits="userSpaceOnUse"
       id="clipPath3773"><path
         d="M 0,1205.777 H 2738.234 V 0 H 0 Z"
         transform="translate(-1064.9308,-329.20708)"
         id="path3773" /></clipPath><clipPath
       clipPathUnits="userSpaceOnUse"
       id="clipPath3775"><path
         d="M 0,1205.777 H 2738.234 V 0 H 0 Z"
         transform="translate(-1066.5945,-328.66393)"
         id="path3775" /></clipPath><clipPath
       clipPathUnits="userSpaceOnUse"
       id="clipPath3777"><path
         d="M 0,1205.777 H 2738.234 V 0 H 0 Z"
         transform="translate(-1069.0444,-328.91211)"
         id="path3777" /></clipPath><clipPath
       clipPathUnits="userSpaceOnUse"
       id="clipPath3918"><path
         d="M 0,1205.777 H 2738.234 V 0 H 0 Z"
         transform="translate(-964.05505,-422.70974)"
         id="path3918" /></clipPath><clipPath
       clipPathUnits="userSpaceOnUse"
       id="clipPath3920"><path
         d="M 0,1205.777 H 2738.234 V 0 H 0 Z"
         transform="translate(-975.25705,-427.27334)"
         id="path3920" /></clipPath><clipPath
       clipPathUnits="userSpaceOnUse"
       id="clipPath3922"><path
         d="M 0,1205.777 H 2738.234 V 0 H 0 Z"
         transform="translate(-965.65892,-422.15909)"
         id="path3922" /></clipPath><clipPath
       clipPathUnits="userSpaceOnUse"
       id="clipPath3924"><path
         d="M 0,1205.777 H 2738.234 V 0 H 0 Z"
         transform="translate(-967.69502,-426.07514)"
         id="path3924" /></clipPath><clipPath
       clipPathUnits="userSpaceOnUse"
       id="clipPath3926"><path
         d="M 0,1205.777 H 2738.234 V 0 H 0 Z"
         transform="translate(-966.9304,-423.85139)"
         id="path3926" /></clipPath><clipPath
       clipPathUnits="userSpaceOnUse"
       id="clipPath3928"><path
         d="M 0,1205.777 H 2738.234 V 0 H 0 Z"
         transform="translate(-975.6979,-429.85529)"
         id="path3928" /></clipPath><clipPath
       clipPathUnits="userSpaceOnUse"
       id="clipPath3930"><path
         d="M 0,1205.777 H 2738.234 V 0 H 0 Z"
         transform="translate(-973.447,-432.10731)"
         id="path3930" /></clipPath><clipPath
       clipPathUnits="userSpaceOnUse"
       id="clipPath2494"><path
         d="M 0,1205.777 H 2738.234 V 0 H 0 Z"
         transform="translate(-1006.1637,-427.52789)"
         id="path2494" /></clipPath><clipPath
       clipPathUnits="userSpaceOnUse"
       id="clipPath2505"><path
         d="M 0,1205.777 H 2738.234 V 0 H 0 Z"
         transform="translate(0,2.5000001e-5)"
         id="path2505" /></clipPath><clipPath
       clipPathUnits="userSpaceOnUse"
       id="clipPath2507"><path
         d="M 0,1205.777 H 2738.234 V 0 H 0 Z"
         transform="translate(0,2.5000001e-5)"
         id="path2507" /></clipPath><clipPath
       clipPathUnits="userSpaceOnUse"
       id="clipPath2509"><path
         d="M 0,1205.777 H 2738.234 V 0 H 0 Z"
         transform="translate(0,2.5000001e-5)"
         id="path2509" /></clipPath><clipPath
       clipPathUnits="userSpaceOnUse"
       id="clipPath2511"><path
         d="M 0,1205.777 H 2738.234 V 0 H 0 Z"
         transform="translate(0,2.5000001e-5)"
         id="path2511" /></clipPath><clipPath
       clipPathUnits="userSpaceOnUse"
       id="clipPath2513"><path
         d="M 0,1205.777 H 2738.234 V 0 H 0 Z"
         transform="translate(0,2.5000001e-5)"
         id="path2513" /></clipPath><clipPath
       clipPathUnits="userSpaceOnUse"
       id="clipPath2515"><path
         d="M 0,1205.777 H 2738.234 V 0 H 0 Z"
         transform="translate(-1130.1741,-427.58684)"
         id="path2515" /></clipPath><clipPath
       clipPathUnits="userSpaceOnUse"
       id="clipPath2517"><path
         d="M 0,1205.777 H 2738.234 V 0 H 0 Z"
         transform="translate(-1133.0022,-428.29409)"
         id="path2517" /></clipPath><clipPath
       clipPathUnits="userSpaceOnUse"
       id="clipPath2505-0"><path
         d="M 0,1205.777 H 2738.234 V 0 H 0 Z"
         transform="translate(0,2.5000001e-5)"
         id="path2505-4" /></clipPath></defs><g
     id="g1"
     transform="translate(-0.43216786,0.07904603)"><g
       id="g2188"
       style="clip-rule:evenodd;fill-rule:evenodd;stroke-linejoin:round;stroke-miterlimit:2"
       transform="translate(-1024.8038,-800.53205)"><path
         d="m 1031.39,804.731 c 0,-1.381 -1.119,-2.5 -2.5,-2.5 -1.381,0 -2.5,1.119 -2.5,2.5 0,1.381 1.119,2.5 2.5,2.5 1.381,0 2.5,-1.119 2.5,-2.5"
         style="fill-rule:nonzero"
         id="path1293" /><path
         d="m 1026.49,812.175 -10e-4,2.5 h 17.593 l -0.093,-5 -5,-5 -6.25,6.25 -2.359,-2.5 -3.891,3.75 z"
         style="fill-rule:nonzero"
         id="path1294" /></g></g></svg>
