<?xml version="1.0" encoding="UTF-8"?><svg id="b" xmlns="http://www.w3.org/2000/svg" width="20" height="16" viewBox="0 0 20 16"><defs><style>.e{opacity:.2;}.e,.f{stroke-width:0px;}.e,.g{fill:none;}.g{stroke:#000;stroke-linecap:round;stroke-miterlimit:10;stroke-width:.9px;}</style></defs><g id="c"><g id="d"><line class="g" x1="10" y1="8" x2="15.27" y2="2.73"/><path class="f" d="m15.95,0c-.07,0-.14.04-.2.09l-1.64,1.45c-.08.07-.12.17-.12.27v1.66l.51.52h1.67c.1,0,.21-.05.27-.12l1.45-1.64c.09-.1.11-.26.06-.39s-.19-.22-.33-.22h-1.27V.37c0-.21-.2-.39-.41-.36h0Z"/><rect class="e" width="20" height="16"/><circle class="f" cx="10" cy="8" r="2"/><path class="f" d="m14.31,5.45c.43.75.69,1.61.69,2.54,0,2.82-2.24,5.11-5,5.11s-5-2.29-5-5.11,2.24-5.11,5-5.11c.95,0,1.83.28,2.59.76l.72-.72c-.95-.65-2.08-1.04-3.31-1.04-3.31,0-6,2.74-6,6.11s2.69,6.11,6,6.11,6-2.74,6-6.11c0-1.21-.36-2.33-.96-3.27l-.73.73Z"/><path class="f" d="m13,8c0,1.7-1.35,3.08-3,3.08s-3-1.38-3-3.08,1.35-3.08,3-3.08c.39,0,.74.1,1.08.24l.76-.76c-.55-.3-1.17-.48-1.84-.48-2.21,0-4,1.83-4,4.08s1.79,4.08,4,4.08,4-1.83,4-4.08c0-.65-.17-1.25-.43-1.8l-.76.76c.12.32.2.67.2,1.03Z"/></g></g></svg>