<?xml version="1.0" encoding="UTF-8" standalone="no"?>
<svg
   id="b"
   width="20"
   height="16"
   viewBox="0 0 20 16"
   version="1.1"
   sodipodi:docname="tool-mask-brush.svg"
   inkscape:version="1.3.1 (91b66b0, 2023-11-16)"
   xml:space="preserve"
   xmlns:inkscape="http://www.inkscape.org/namespaces/inkscape"
   xmlns:sodipodi="http://sodipodi.sourceforge.net/DTD/sodipodi-0.dtd"
   xmlns="http://www.w3.org/2000/svg"
   xmlns:svg="http://www.w3.org/2000/svg"><sodipodi:namedview
     id="namedview3"
     pagecolor="#ffffff"
     bordercolor="#000000"
     borderopacity="0.25"
     inkscape:showpageshadow="2"
     inkscape:pageopacity="0.0"
     inkscape:pagecheckerboard="0"
     inkscape:deskcolor="#d1d1d1"
     inkscape:zoom="14.75"
     inkscape:cx="5.9661017"
     inkscape:cy="8.5423729"
     inkscape:window-width="1312"
     inkscape:window-height="605"
     inkscape:window-x="16"
     inkscape:window-y="323"
     inkscape:window-maximized="0"
     inkscape:current-layer="g1" /><defs
     id="defs1"><style
       id="style1">.e{stroke:#000;stroke-linecap:round;stroke-linejoin:round;}.e,.f{fill:none;}.f{opacity:.2;stroke-width:0px;}</style><clipPath
       clipPathUnits="userSpaceOnUse"
       id="clipPath3761"><path
         d="M 0,1205.777 H 2738.234 V 0 H 0 Z"
         transform="translate(-1062.36,-340.07301)"
         id="path3761" /></clipPath><clipPath
       clipPathUnits="userSpaceOnUse"
       id="clipPath3763"><path
         d="M 0,1205.777 H 2738.234 V 0 H 0 Z"
         transform="translate(-1062.2632,-337.60821)"
         id="path3763" /></clipPath><clipPath
       clipPathUnits="userSpaceOnUse"
       id="clipPath3765"><path
         d="M 0,1205.777 H 2738.234 V 0 H 0 Z"
         transform="translate(-1062.2632,-335.39121)"
         id="path3765" /></clipPath><clipPath
       clipPathUnits="userSpaceOnUse"
       id="clipPath3767"><path
         d="M 0,1205.777 H 2738.234 V 0 H 0 Z"
         transform="translate(-1062.4291,-333.34101)"
         id="path3767" /></clipPath><clipPath
       clipPathUnits="userSpaceOnUse"
       id="clipPath3769"><path
         d="M 0,1205.777 H 2738.234 V 0 H 0 Z"
         transform="translate(-1062.9171,-331.61488)"
         id="path3769" /></clipPath><clipPath
       clipPathUnits="userSpaceOnUse"
       id="clipPath3771"><path
         d="M 0,1205.777 H 2738.234 V 0 H 0 Z"
         transform="translate(-1063.7688,-330.25498)"
         id="path3771" /></clipPath><clipPath
       clipPathUnits="userSpaceOnUse"
       id="clipPath3773"><path
         d="M 0,1205.777 H 2738.234 V 0 H 0 Z"
         transform="translate(-1064.9308,-329.20708)"
         id="path3773" /></clipPath><clipPath
       clipPathUnits="userSpaceOnUse"
       id="clipPath3775"><path
         d="M 0,1205.777 H 2738.234 V 0 H 0 Z"
         transform="translate(-1066.5945,-328.66393)"
         id="path3775" /></clipPath><clipPath
       clipPathUnits="userSpaceOnUse"
       id="clipPath3777"><path
         d="M 0,1205.777 H 2738.234 V 0 H 0 Z"
         transform="translate(-1069.0444,-328.91211)"
         id="path3777" /></clipPath><clipPath
       clipPathUnits="userSpaceOnUse"
       id="clipPath3918"><path
         d="M 0,1205.777 H 2738.234 V 0 H 0 Z"
         transform="translate(-964.05505,-422.70974)"
         id="path3918" /></clipPath><clipPath
       clipPathUnits="userSpaceOnUse"
       id="clipPath3920"><path
         d="M 0,1205.777 H 2738.234 V 0 H 0 Z"
         transform="translate(-975.25705,-427.27334)"
         id="path3920" /></clipPath><clipPath
       clipPathUnits="userSpaceOnUse"
       id="clipPath3922"><path
         d="M 0,1205.777 H 2738.234 V 0 H 0 Z"
         transform="translate(-965.65892,-422.15909)"
         id="path3922" /></clipPath><clipPath
       clipPathUnits="userSpaceOnUse"
       id="clipPath3924"><path
         d="M 0,1205.777 H 2738.234 V 0 H 0 Z"
         transform="translate(-967.69502,-426.07514)"
         id="path3924" /></clipPath><clipPath
       clipPathUnits="userSpaceOnUse"
       id="clipPath3926"><path
         d="M 0,1205.777 H 2738.234 V 0 H 0 Z"
         transform="translate(-966.9304,-423.85139)"
         id="path3926" /></clipPath><clipPath
       clipPathUnits="userSpaceOnUse"
       id="clipPath3928"><path
         d="M 0,1205.777 H 2738.234 V 0 H 0 Z"
         transform="translate(-975.6979,-429.85529)"
         id="path3928" /></clipPath><clipPath
       clipPathUnits="userSpaceOnUse"
       id="clipPath3930"><path
         d="M 0,1205.777 H 2738.234 V 0 H 0 Z"
         transform="translate(-973.447,-432.10731)"
         id="path3930" /></clipPath><clipPath
       clipPathUnits="userSpaceOnUse"
       id="clipPath2494"><path
         d="M 0,1205.777 H 2738.234 V 0 H 0 Z"
         transform="translate(-1006.1637,-427.52789)"
         id="path2494" /></clipPath><clipPath
       clipPathUnits="userSpaceOnUse"
       id="clipPath2505"><path
         d="M 0,1205.777 H 2738.234 V 0 H 0 Z"
         transform="translate(0,2.5000001e-5)"
         id="path2505" /></clipPath><clipPath
       clipPathUnits="userSpaceOnUse"
       id="clipPath2507"><path
         d="M 0,1205.777 H 2738.234 V 0 H 0 Z"
         transform="translate(0,2.5000001e-5)"
         id="path2507" /></clipPath><clipPath
       clipPathUnits="userSpaceOnUse"
       id="clipPath2509"><path
         d="M 0,1205.777 H 2738.234 V 0 H 0 Z"
         transform="translate(0,2.5000001e-5)"
         id="path2509" /></clipPath><clipPath
       clipPathUnits="userSpaceOnUse"
       id="clipPath2511"><path
         d="M 0,1205.777 H 2738.234 V 0 H 0 Z"
         transform="translate(0,2.5000001e-5)"
         id="path2511" /></clipPath><clipPath
       clipPathUnits="userSpaceOnUse"
       id="clipPath2513"><path
         d="M 0,1205.777 H 2738.234 V 0 H 0 Z"
         transform="translate(0,2.5000001e-5)"
         id="path2513" /></clipPath><clipPath
       clipPathUnits="userSpaceOnUse"
       id="clipPath2515"><path
         d="M 0,1205.777 H 2738.234 V 0 H 0 Z"
         transform="translate(-1130.1741,-427.58684)"
         id="path2515" /></clipPath><clipPath
       clipPathUnits="userSpaceOnUse"
       id="clipPath2517"><path
         d="M 0,1205.777 H 2738.234 V 0 H 0 Z"
         transform="translate(-1133.0022,-428.29409)"
         id="path2517" /></clipPath><clipPath
       clipPathUnits="userSpaceOnUse"
       id="clipPath2505-0"><path
         d="M 0,1205.777 H 2738.234 V 0 H 0 Z"
         transform="translate(0,2.5000001e-5)"
         id="path2505-4" /></clipPath></defs><g
     id="g1"
     transform="translate(-0.43216786,0.07904603)"><g
       id="g2179"
       style="clip-rule:evenodd;fill-rule:evenodd;stroke-linejoin:round;stroke-miterlimit:2"
       transform="matrix(0.8852152,0,0,0.8852152,-991.21991,-651.33424)"><path
         d="m 1131.52,742.658 c -0.964,-0.501 -2.115,-0.392 -2.865,0.277 -1.482,1.321 -1.075,3.076 -3.494,3.839 -2.819,0.448 3.877,3.883 7.022,0.283 1.682,-1.929 0.621,-3.732 -0.663,-4.399"
         style="fill-rule:nonzero"
         id="path1328" /><path
         d="m 1139.35,739.237 c -0.016,-0.019 -0.107,-0.129 -0.151,-0.181 -0.182,-0.209 -0.511,-0.198 -0.707,-0.006 l -0.912,0.9 c -1.921,1.9 -3.316,3.07 -4.186,2.138 -0.642,-0.996 0.396,-2.217 2.227,-4.068 l 0.982,-0.993 c 0.195,-0.196 0.193,-0.513 0,-0.707 -0.196,-0.195 -0.514,-0.191 -0.708,0.004 l -0.982,0.993 c -2.244,2.269 -3.509,3.804 -2.281,5.421 0.01,0.008 0.114,0.152 0.168,0.207 0.366,0.366 0.787,0.525 1.246,0.525 1.556,0 2.565,-0.821 4.391,-2.628 l 0.911,-0.898 c 0.197,-0.194 0.187,-0.497 0,-0.707"
         style="fill-rule:nonzero"
         id="path1329" /><path
         d="m 1132.54,752.054 -0.142,-0.005 c -0.612,-0.027 -1.195,-0.098 -1.749,-0.202 -0.339,-0.064 -0.666,0.159 -0.73,0.498 -0.064,0.339 0.159,0.666 0.498,0.73 0.61,0.115 1.252,0.193 1.925,0.222 0.051,0.003 0.103,0.005 0.156,0.007 0.345,0.011 0.634,-0.259 0.646,-0.604 0.012,-0.344 -0.259,-0.634 -0.604,-0.646 z m 4.225,-0.592 c -0.608,0.193 -1.228,0.34 -1.854,0.441 -0.34,0.054 -0.573,0.375 -0.518,0.716 0.055,0.34 0.376,0.572 0.716,0.518 0.687,-0.11 1.367,-0.272 2.034,-0.484 0.329,-0.104 0.511,-0.456 0.407,-0.785 -0.105,-0.329 -0.456,-0.511 -0.785,-0.406 z m -8.399,-0.278 c -0.628,-0.249 -1.201,-0.534 -1.716,-0.831 -0.299,-0.172 -0.682,-0.07 -0.854,0.229 -0.172,0.299 -0.07,0.681 0.229,0.854 0.565,0.326 1.192,0.638 1.88,0.91 0.321,0.127 0.685,-0.03 0.812,-0.35 0.127,-0.321 -0.03,-0.685 -0.351,-0.812 z m 10.99,-1.981 c -0.01,0.503 -0.218,0.989 -0.588,1.338 -0.251,0.236 -0.262,0.632 -0.025,0.883 0.236,0.251 0.632,0.263 0.883,0.026 0.616,-0.582 0.967,-1.39 0.98,-2.228 0.01,-0.345 -0.27,-0.629 -0.615,-0.634 -0.345,-0.006 -0.629,0.27 -0.635,0.615 z m -14.661,-0.22 c -0.182,-0.153 -0.347,-0.299 -0.492,-0.435 h -10e-4 c -0.25,-0.233 -0.422,-0.518 -0.515,-0.824 -0.1,-0.33 -0.45,-0.516 -0.78,-0.416 -0.33,0.101 -0.516,0.45 -0.416,0.78 0.155,0.509 0.442,0.986 0.86,1.374 0.16,0.149 0.34,0.31 0.539,0.478 0.264,0.222 0.659,0.188 0.881,-0.076 0.222,-0.264 0.188,-0.659 -0.076,-0.881 z m 7.869,-0.68 c 0.146,0.007 0.291,0.009 0.437,0.008 h 10e-4 c 0.568,-0.005 1.14,-0.066 1.704,-0.182 0.338,-0.069 0.556,-0.4 0.486,-0.738 -0.069,-0.338 -0.4,-0.556 -0.738,-0.486 -0.484,0.099 -0.974,0.152 -1.462,0.156 -0.124,10e-4 -0.249,-0.001 -0.373,-0.006 -0.344,-0.016 -0.636,0.252 -0.652,0.596 -0.015,0.345 0.252,0.637 0.597,0.652 z m 4.517,-0.958 c 0.503,-0.11 1.021,-0.006 1.437,0.269 0.288,0.19 0.676,0.111 0.866,-0.177 0.19,-0.288 0.111,-0.676 -0.177,-0.866 -0.693,-0.457 -1.555,-0.63 -2.391,-0.448 -0.337,0.074 -0.551,0.407 -0.478,0.744 0.073,0.337 0.406,0.551 0.743,0.478 z m -13.03,-1.382 0.058,-0.065 c 0.338,-0.363 0.786,-0.562 1.245,-0.593 0.344,-0.023 0.605,-0.322 0.582,-0.666 -0.023,-0.344 -0.322,-0.605 -0.666,-0.581 -0.765,0.051 -1.513,0.383 -2.076,0.988 -0.033,0.036 -0.065,0.072 -0.096,0.108 -0.223,0.263 -0.191,0.658 0.072,0.881 0.263,0.223 0.658,0.191 0.881,-0.072 z"
         id="path1330" /></g></g></svg>
