<?xml version="1.0" encoding="UTF-8" standalone="no"?>
<svg
   id="b"
   width="20"
   height="20"
   viewBox="0 0 20 20"
   version="1.1"
   sodipodi:docname="effects-shadow-highl-h.svg"
   inkscape:version="1.3.1 (91b66b0, 2023-11-16)"
   xml:space="preserve"
   xmlns:inkscape="http://www.inkscape.org/namespaces/inkscape"
   xmlns:sodipodi="http://sodipodi.sourceforge.net/DTD/sodipodi-0.dtd"
   xmlns="http://www.w3.org/2000/svg"
   xmlns:svg="http://www.w3.org/2000/svg"><sodipodi:namedview
     id="namedview3"
     pagecolor="#ffffff"
     bordercolor="#000000"
     borderopacity="0.25"
     inkscape:showpageshadow="2"
     inkscape:pageopacity="0.0"
     inkscape:pagecheckerboard="0"
     inkscape:deskcolor="#d1d1d1"
     inkscape:zoom="14.75"
     inkscape:cx="7.7288136"
     inkscape:cy="11.525424"
     inkscape:window-width="1328"
     inkscape:window-height="605"
     inkscape:window-x="69"
     inkscape:window-y="267"
     inkscape:window-maximized="0"
     inkscape:current-layer="d" /><defs
     id="defs1"><style
       id="style1">.e{stroke:#000;stroke-linecap:round;stroke-linejoin:round;}.e,.f{fill:none;}.f{opacity:.2;stroke-width:0px;}</style><clipPath
       clipPathUnits="userSpaceOnUse"
       id="clipPath13578"><path
         d="M 0,1205.777 H 2738.234 V 0 H 0 Z"
         transform="translate(-1750.1958,-473.16941)"
         id="path13578" /></clipPath><clipPath
       clipPathUnits="userSpaceOnUse"
       id="clipPath13580"><path
         d="M 0,1205.777 H 2738.234 V 0 H 0 Z"
         transform="translate(-1755.2523,-482.35451)"
         id="path13580" /></clipPath><clipPath
       clipPathUnits="userSpaceOnUse"
       id="clipPath13582"><path
         d="M 0,1205.777 H 2738.234 V 0 H 0 Z"
         transform="translate(-1753.044,-479.21061)"
         id="path13582" /></clipPath><clipPath
       clipPathUnits="userSpaceOnUse"
       id="clipPath13694"><path
         d="M 0,1205.777 H 2738.234 V 0 H 0 Z"
         transform="translate(-1694.7306,-422.60451)"
         id="path13694" /></clipPath><clipPath
       clipPathUnits="userSpaceOnUse"
       id="clipPath13696"><path
         d="M 0,1205.777 H 2738.234 V 0 H 0 Z"
         transform="translate(-1692.729,-424.80839)"
         id="path13696" /></clipPath><clipPath
       clipPathUnits="userSpaceOnUse"
       id="clipPath13698"><path
         d="M 0,1205.777 H 2738.234 V 0 H 0 Z"
         transform="translate(-1694.7306,-436.10451)"
         id="path13698" /></clipPath><clipPath
       clipPathUnits="userSpaceOnUse"
       id="clipPath13700"><path
         d="M 0,1205.777 H 2738.234 V 0 H 0 Z"
         transform="translate(-1692.729,-433.90049)"
         id="path13700" /></clipPath><clipPath
       clipPathUnits="userSpaceOnUse"
       id="clipPath13702"><path
         d="M 0,1205.777 H 2738.234 V 0 H 0 Z"
         transform="translate(-1695.2346,-430.59944)"
         id="path13702" /></clipPath><clipPath
       clipPathUnits="userSpaceOnUse"
       id="clipPath13704"><path
         d="M 0,1205.777 H 2738.234 V 0 H 0 Z"
         transform="translate(-1686.2346,-427.04999)"
         id="path13704" /></clipPath><clipPath
       clipPathUnits="userSpaceOnUse"
       id="clipPath13706"><path
         d="M 0,1205.777 H 2738.234 V 0 H 0 Z"
         transform="translate(-1686.2346,-428.59529)"
         id="path13706" /></clipPath><clipPath
       clipPathUnits="userSpaceOnUse"
       id="clipPath13714"><path
         d="M 0,1205.777 H 2738.234 V 0 H 0 Z"
         transform="translate(-1641.2346,-434.35454)"
         id="path13714" /></clipPath><clipPath
       clipPathUnits="userSpaceOnUse"
       id="clipPath13710"><path
         d="M 0,1205.777 H 2738.234 V 0 H 0 Z"
         transform="translate(-1661.3688,-434.35454)"
         id="path13710" /></clipPath><clipPath
       clipPathUnits="userSpaceOnUse"
       id="clipPath1370"><path
         d="M 0,1205.777 H 2738.234 V 0 H 0 Z"
         transform="translate(-2652.6085,-953.81653)"
         id="path1370" /></clipPath><clipPath
       clipPathUnits="userSpaceOnUse"
       id="clipPath1372"><path
         d="M 0,1205.777 H 2738.234 V 0 H 0 Z"
         transform="translate(-2643.2344,-953.60452)"
         id="path1372" /></clipPath><clipPath
       clipPathUnits="userSpaceOnUse"
       id="clipPath4379"><path
         d="M 0,1205.777 H 2738.234 V 0 H 0 Z"
         transform="translate(-1926.0876,-576.35451)"
         id="path4379" /></clipPath><clipPath
       clipPathUnits="userSpaceOnUse"
       id="clipPath4383"><path
         d="M 0,1205.777 H 2738.234 V 0 H 0 Z"
         transform="translate(-1928.0082,-573.77712)"
         id="path4383" /></clipPath><clipPath
       clipPathUnits="userSpaceOnUse"
       id="clipPath4385"><path
         d="M 0,1205.777 H 2738.234 V 0 H 0 Z"
         transform="translate(-1925.7345,-570.39171)"
         id="path4385" /></clipPath><clipPath
       clipPathUnits="userSpaceOnUse"
       id="clipPath14142"><path
         d="M 0,1205.777 H 2738.234 V 0 H 0 Z"
         transform="translate(-1983.2281,-349.33701)"
         id="path14142" /></clipPath><clipPath
       clipPathUnits="userSpaceOnUse"
       id="clipPath14138"><path
         d="M 0,1205.777 H 2738.234 V 0 H 0 Z"
         transform="translate(-1995.2346,-354.85453)"
         id="path14138" /></clipPath><clipPath
       clipPathUnits="userSpaceOnUse"
       id="clipPath14140"><path
         d="M 0,1205.777 H 2738.234 V 0 H 0 Z"
         transform="translate(-1995.2346,-354.85453)"
         id="path14140" /></clipPath><clipPath
       clipPathUnits="userSpaceOnUse"
       id="clipPath14130"><path
         d="M 0,1205.777 H 2738.234 V 0 H 0 Z"
         transform="translate(0,2.5000001e-5)"
         id="path14130" /></clipPath><clipPath
       clipPathUnits="userSpaceOnUse"
       id="clipPath14132"><path
         d="M 0,1205.777 H 2738.234 V 0 H 0 Z"
         transform="translate(0,2.5000001e-5)"
         id="path14132" /></clipPath><clipPath
       clipPathUnits="userSpaceOnUse"
       id="clipPath14134"><path
         d="M 0,1205.777 H 2738.234 V 0 H 0 Z"
         transform="translate(0,2.5000001e-5)"
         id="path14134" /></clipPath><clipPath
       clipPathUnits="userSpaceOnUse"
       id="clipPath14136"><path
         d="M 0,1205.777 H 2738.234 V 0 H 0 Z"
         transform="translate(0,2.5000001e-5)"
         id="path14136" /></clipPath><clipPath
       clipPathUnits="userSpaceOnUse"
       id="clipPath14080"><path
         d="M 0,1205.777 H 2738.234 V 0 H 0 Z"
         transform="translate(-2065.1529,-382.48348)"
         id="path14080" /></clipPath><clipPath
       clipPathUnits="userSpaceOnUse"
       id="clipPath13542"><path
         d="M 0,1205.777 H 2738.234 V 0 H 0 Z"
         transform="translate(-1664.7345,-477.35451)"
         id="path13542" /></clipPath><clipPath
       clipPathUnits="userSpaceOnUse"
       id="clipPath13544"><path
         d="M 0,1205.777 H 2738.234 V 0 H 0 Z"
         transform="translate(-1658.787,-476.35451)"
         id="path13544" /></clipPath><clipPath
       clipPathUnits="userSpaceOnUse"
       id="clipPath13546"><path
         d="M 0,1205.777 H 2738.234 V 0 H 0 Z"
         transform="translate(-1659.8134,-479.72321)"
         id="path13546" /></clipPath><clipPath
       clipPathUnits="userSpaceOnUse"
       id="clipPath14012"><path
         d="M 0,1205.777 H 2738.234 V 0 H 0 Z"
         transform="translate(-2047.2336,-371.35453)"
         id="path14012" /></clipPath><clipPath
       clipPathUnits="userSpaceOnUse"
       id="clipPath14014"><path
         d="M 0,1205.777 H 2738.234 V 0 H 0 Z"
         transform="translate(-2043.2346,-367.60453)"
         id="path14014" /></clipPath><clipPath
       clipPathUnits="userSpaceOnUse"
       id="clipPath14016"><path
         d="M 0,1205.777 H 2738.234 V 0 H 0 Z"
         transform="translate(-2043.2346,-369.60448)"
         id="path14016" /></clipPath><clipPath
       clipPathUnits="userSpaceOnUse"
       id="clipPath14018"><path
         d="M 0,1205.777 H 2738.234 V 0 H 0 Z"
         transform="translate(-2043.2346,-365.60451)"
         id="path14018" /></clipPath><clipPath
       clipPathUnits="userSpaceOnUse"
       id="clipPath14020"><path
         d="M 0,1205.777 H 2738.234 V 0 H 0 Z"
         transform="translate(-2043.2346,-366.60448)"
         id="path14020" /></clipPath><clipPath
       clipPathUnits="userSpaceOnUse"
       id="clipPath14022"><path
         d="M 0,1205.777 H 2738.234 V 0 H 0 Z"
         transform="translate(-2043.2346,-368.60451)"
         id="path14022" /></clipPath><clipPath
       clipPathUnits="userSpaceOnUse"
       id="clipPath14024"><path
         d="M 0,1205.777 H 2738.234 V 0 H 0 Z"
         transform="translate(-2043.2346,-364.60453)"
         id="path14024" /></clipPath><clipPath
       clipPathUnits="userSpaceOnUse"
       id="clipPath14026"><path
         d="M 0,1205.777 H 2738.234 V 0 H 0 Z"
         transform="translate(-2043.2346,-362.60451)"
         id="path14026" /></clipPath><clipPath
       clipPathUnits="userSpaceOnUse"
       id="clipPath14028"><path
         d="M 0,1205.777 H 2738.234 V 0 H 0 Z"
         transform="translate(-2043.2346,-363.60448)"
         id="path14028" /></clipPath><clipPath
       clipPathUnits="userSpaceOnUse"
       id="clipPath14030"><path
         d="M 0,1205.777 H 2738.234 V 0 H 0 Z"
         transform="translate(-2043.2346,-361.60453)"
         id="path14030" /></clipPath><clipPath
       clipPathUnits="userSpaceOnUse"
       id="clipPath14032"><path
         d="M 0,1205.777 H 2738.234 V 0 H 0 Z"
         transform="translate(0,2.5000001e-5)"
         id="path14032" /></clipPath></defs><g
     id="c"><g
       id="d"><g
         id="g6"
         transform="translate(-0.33898313,-0.03954788)"><path
           id="path14011"
           d="m 0,0 h -7.998 c -1.105,0 -2.001,-0.896 -2.001,-2.001 v -7.498 c 0,-1.105 0.896,-2.001 2.001,-2.001 H 0 c 1.105,0 2.001,0.896 2.001,2.001 v 7.498 C 2.001,-0.896 1.105,0 0,0 m 0,-1 c 0.552,0 1.001,-0.449 1.001,-1.001 V -9.499 C 1.001,-10.051 0.552,-10.5 0,-10.5 h -7.998 c -0.552,0 -1.001,0.449 -1.001,1.001 v 7.498 c 0,0.552 0.449,1.001 1.001,1.001 z"
           style="fill:#000000 icc-color(Display, 0, 0, 0);fill-opacity:1;fill-rule:nonzero;stroke:none"
           transform="matrix(1.3333333,0,0,-1.3333333,15.670983,2.3728814)"
           clip-path="url(#clipPath14012)" /><path
           id="path14013"
           d="M 0,0 H 5.5"
           style="fill:none;stroke:#000000 icc-color(Display, 0, 0, 0);stroke-width:0.5;stroke-linecap:butt;stroke-linejoin:miter;stroke-miterlimit:10;stroke-dasharray:none;stroke-opacity:1"
           transform="matrix(1.3333333,0,0,-1.3333333,10.338983,7.3728814)"
           clip-path="url(#clipPath14014)" /><path
           id="path14015"
           d="M 0,0 H 5.5"
           style="fill:none;stroke:#000000 icc-color(Display, 0, 0, 0);stroke-width:0.5;stroke-linecap:butt;stroke-linejoin:miter;stroke-miterlimit:10;stroke-dasharray:none;stroke-opacity:1"
           transform="matrix(1.3333333,0,0,-1.3333333,10.338983,4.7062814)"
           clip-path="url(#clipPath14016)" /><path
           id="path14017"
           d="M 0,0 H 5.5"
           style="fill:none;stroke:#000000 icc-color(Display, 0, 0, 0);stroke-width:0.5;stroke-linecap:butt;stroke-linejoin:miter;stroke-miterlimit:10;stroke-dasharray:none;stroke-opacity:1"
           transform="matrix(1.3333333,0,0,-1.3333333,10.338983,10.039581)"
           clip-path="url(#clipPath14018)" /><path
           id="path14019"
           d="M 0,0 H 5.5"
           style="fill:none;stroke:#000000 icc-color(Display, 0, 0, 0);stroke-width:0.5;stroke-linecap:butt;stroke-linejoin:miter;stroke-miterlimit:10;stroke-dasharray:none;stroke-opacity:1"
           transform="matrix(1.3333333,0,0,-1.3333333,10.338983,8.7062814)"
           clip-path="url(#clipPath14020)" /><path
           id="path14021"
           d="M 0,0 H 5.417"
           style="fill:none;stroke:#000000 icc-color(Display, 0, 0, 0);stroke-width:0.5;stroke-linecap:butt;stroke-linejoin:miter;stroke-miterlimit:10;stroke-dasharray:none;stroke-opacity:1"
           transform="matrix(1.3333333,0,0,-1.3333333,10.338983,6.0395814)"
           clip-path="url(#clipPath14022)" /><path
           id="path14023"
           d="M 0,0 H 5.5"
           style="fill:none;stroke:#000000 icc-color(Display, 0, 0, 0);stroke-width:0.5;stroke-linecap:butt;stroke-linejoin:miter;stroke-miterlimit:10;stroke-dasharray:none;stroke-opacity:1"
           transform="matrix(1.3333333,0,0,-1.3333333,10.338983,11.372881)"
           clip-path="url(#clipPath14024)" /><path
           id="path14025"
           d="M 0,0 H 5.5"
           style="fill:none;stroke:#000000 icc-color(Display, 0, 0, 0);stroke-width:0.5;stroke-linecap:butt;stroke-linejoin:miter;stroke-miterlimit:10;stroke-dasharray:none;stroke-opacity:1"
           transform="matrix(1.3333333,0,0,-1.3333333,10.338983,14.039581)"
           clip-path="url(#clipPath14026)" /><path
           id="path14027"
           d="M 0,0 H 5.5"
           style="fill:none;stroke:#000000 icc-color(Display, 0, 0, 0);stroke-width:0.5;stroke-linecap:butt;stroke-linejoin:miter;stroke-miterlimit:10;stroke-dasharray:none;stroke-opacity:1"
           transform="matrix(1.3333333,0,0,-1.3333333,10.338983,12.706281)"
           clip-path="url(#clipPath14028)" /><path
           id="path14029"
           d="M 0,0 H 5.5"
           style="fill:none;stroke:#000000 icc-color(Display, 0, 0, 0);stroke-width:0.5;stroke-linecap:butt;stroke-linejoin:miter;stroke-miterlimit:10;stroke-dasharray:none;stroke-opacity:1"
           transform="matrix(1.3333333,0,0,-1.3333333,10.338983,15.372881)"
           clip-path="url(#clipPath14030)" /><path
           id="path14031"
           d="m 2043.234,360.354 h -5 v 10 h 5 z"
           style="fill:#000000 icc-color(Display, 0, 0, 0);fill-opacity:1;fill-rule:nonzero;stroke:none"
           transform="matrix(1.3333333,0,0,-1.3333333,-2713.9737,497.51228)"
           clip-path="url(#clipPath14032)" /></g></g></g></svg>
