<?xml version="1.0" encoding="UTF-8" standalone="no"?>
<svg
   id="b"
   width="20"
   height="20"
   viewBox="0 0 20 20"
   version="1.1"
   sodipodi:docname="thickness-auto-thin.svg"
   inkscape:version="1.3.1 (91b66b0, 2023-11-16)"
   xml:space="preserve"
   xmlns:inkscape="http://www.inkscape.org/namespaces/inkscape"
   xmlns:sodipodi="http://sodipodi.sourceforge.net/DTD/sodipodi-0.dtd"
   xmlns="http://www.w3.org/2000/svg"
   xmlns:svg="http://www.w3.org/2000/svg"><sodipodi:namedview
     id="namedview3"
     pagecolor="#ffffff"
     bordercolor="#000000"
     borderopacity="0.25"
     inkscape:showpageshadow="2"
     inkscape:pageopacity="0.0"
     inkscape:pagecheckerboard="0"
     inkscape:deskcolor="#d1d1d1"
     inkscape:zoom="14.75"
     inkscape:cx="9.0847458"
     inkscape:cy="10.610169"
     inkscape:window-width="1312"
     inkscape:window-height="576"
     inkscape:window-x="14"
     inkscape:window-y="198"
     inkscape:window-maximized="0"
     inkscape:current-layer="d" /><defs
     id="defs1"><style
       id="style1">.e{stroke:#000;stroke-linecap:round;stroke-linejoin:round;}.e,.f{fill:none;}.f{opacity:.2;stroke-width:0px;}</style><clipPath
       clipPathUnits="userSpaceOnUse"
       id="clipPath13578"><path
         d="M 0,1205.777 H 2738.234 V 0 H 0 Z"
         transform="translate(-1750.1958,-473.16941)"
         id="path13578" /></clipPath><clipPath
       clipPathUnits="userSpaceOnUse"
       id="clipPath13580"><path
         d="M 0,1205.777 H 2738.234 V 0 H 0 Z"
         transform="translate(-1755.2523,-482.35451)"
         id="path13580" /></clipPath><clipPath
       clipPathUnits="userSpaceOnUse"
       id="clipPath13582"><path
         d="M 0,1205.777 H 2738.234 V 0 H 0 Z"
         transform="translate(-1753.044,-479.21061)"
         id="path13582" /></clipPath><clipPath
       clipPathUnits="userSpaceOnUse"
       id="clipPath13694"><path
         d="M 0,1205.777 H 2738.234 V 0 H 0 Z"
         transform="translate(-1694.7306,-422.60451)"
         id="path13694" /></clipPath><clipPath
       clipPathUnits="userSpaceOnUse"
       id="clipPath13696"><path
         d="M 0,1205.777 H 2738.234 V 0 H 0 Z"
         transform="translate(-1692.729,-424.80839)"
         id="path13696" /></clipPath><clipPath
       clipPathUnits="userSpaceOnUse"
       id="clipPath13698"><path
         d="M 0,1205.777 H 2738.234 V 0 H 0 Z"
         transform="translate(-1694.7306,-436.10451)"
         id="path13698" /></clipPath><clipPath
       clipPathUnits="userSpaceOnUse"
       id="clipPath13700"><path
         d="M 0,1205.777 H 2738.234 V 0 H 0 Z"
         transform="translate(-1692.729,-433.90049)"
         id="path13700" /></clipPath><clipPath
       clipPathUnits="userSpaceOnUse"
       id="clipPath13702"><path
         d="M 0,1205.777 H 2738.234 V 0 H 0 Z"
         transform="translate(-1695.2346,-430.59944)"
         id="path13702" /></clipPath><clipPath
       clipPathUnits="userSpaceOnUse"
       id="clipPath13704"><path
         d="M 0,1205.777 H 2738.234 V 0 H 0 Z"
         transform="translate(-1686.2346,-427.04999)"
         id="path13704" /></clipPath><clipPath
       clipPathUnits="userSpaceOnUse"
       id="clipPath13706"><path
         d="M 0,1205.777 H 2738.234 V 0 H 0 Z"
         transform="translate(-1686.2346,-428.59529)"
         id="path13706" /></clipPath></defs><g
     id="c"><g
       id="d"><path
         style="color:#000000;fill:#000000 icc-color(Display, 0, 0, 0);stroke-linecap:round;stroke-linejoin:round;stroke-miterlimit:10;-inkscape-stroke:none"
         d="M 0,-0.44921875 A 0.44999999,0.44999999 0 0 0 -0.44921875,0 V 3.8535156 A 0.44999999,0.44999999 0 0 0 0,4.3027344 0.44999999,0.44999999 0 0 0 0.44921875,3.8535156 V 0 A 0.44999999,0.44999999 0 0 0 0,-0.44921875 Z"
         id="path13693"
         transform="matrix(1.3333333,0,0,-1.3333333,14.056914,19.176271)" /><path
         style="color:#000000;fill:#000000 icc-color(Display, 0, 0, 0);stroke-linecap:round;stroke-linejoin:round;stroke-miterlimit:10;-inkscape-stroke:none"
         d="m 0,-0.44921875 a 0.44999999,0.44999999 0 0 0 -0.31835938,0.13085937 0.44999999,0.44999999 0 0 0 0,0.63671876 L 1.6835937,2.3203125 a 0.45004499,0.45004499 0 0 0 0.6367188,0 L 4.3222656,0.31640625 a 0.44999999,0.44999999 0 0 0 0,-0.63476563 0.44999999,0.44999999 0 0 0 -0.6347656,0 L 2.0019531,1.3652344 0.31835938,-0.31835938 A 0.44999999,0.44999999 0 0 0 0,-0.44921875 Z"
         id="path13695"
         transform="matrix(1.3333333,0,0,-1.3333333,11.388114,16.237771)" /><path
         style="color:#000000;fill:#000000 icc-color(Display, 0, 0, 0);stroke-linecap:round;stroke-linejoin:round;stroke-miterlimit:10;-inkscape-stroke:none"
         d="m 0,-4.3027344 a 0.44999999,0.44999999 0 0 0 -0.44921875,0.4492188 V 0 A 0.44999999,0.44999999 0 0 0 0,0.44921875 0.44999999,0.44999999 0 0 0 0.44921875,0 V -3.8535156 A 0.44999999,0.44999999 0 0 0 0,-4.3027344 Z"
         id="path13697"
         transform="matrix(1.3333333,0,0,-1.3333333,14.056914,1.1762712)" /><path
         style="color:#000000;fill:#000000 icc-color(Display, 0, 0, 0);stroke-linecap:round;stroke-linejoin:round;stroke-miterlimit:10;-inkscape-stroke:none"
         d="m 1.6835937,-2.3203125 -2.00195308,2.00195312 a 0.44999999,0.44999999 0 0 0 0,0.63671876 0.44999999,0.44999999 0 0 0 0.63671876,0 L 2.0019531,-1.3652344 3.6875,0.31835938 a 0.44999999,0.44999999 0 0 0 0.6347656,0 0.44999999,0.44999999 0 0 0 0,-0.63476563 L 2.3203125,-2.3203125 a 0.45004499,0.45004499 0 0 0 -0.6367188,0 z"
         id="path13699"
         transform="matrix(1.3333333,0,0,-1.3333333,11.388114,4.1149712)" /><path
         id="path13701"
         d="M 0,0 -9,2.505 V 1.06 l 8.95,-1.305 z"
         style="fill:#000000 icc-color(Display, 0, 0, 0);fill-opacity:1;fill-rule:nonzero;stroke:none"
         transform="matrix(1.3333333,0,0,-1.3333333,14.728814,8.5163712)"
         clip-path="url(#clipPath13702)" /><path
         id="path13703"
         d="M 0,0 V -1.445 L 9,1.06 8.95,1.305 Z"
         style="fill:#000000 icc-color(Display, 0, 0, 0);fill-opacity:1;fill-rule:nonzero;stroke:none"
         transform="matrix(1.3333333,0,0,-1.3333333,2.7288136,13.248971)"
         clip-path="url(#clipPath13704)" /><path
         id="path13705"
         d="m 0,0 9,0.515 v 0.25 L 0,1.412 Z"
         style="fill:#000000 icc-color(Display, 0, 0, 0);fill-opacity:1;fill-rule:nonzero;stroke:none"
         transform="matrix(1.3333333,0,0,-1.3333333,2.7288136,11.188571)"
         clip-path="url(#clipPath13706)" /></g></g></svg>
