<?xml version="1.0" encoding="UTF-8" standalone="no"?>
<svg
   id="b"
   width="20"
   height="20"
   viewBox="0 0 20 20"
   version="1.1"
   sodipodi:docname="view-units.svg"
   inkscape:version="1.3.1 (91b66b0, 2023-11-16)"
   xml:space="preserve"
   xmlns:inkscape="http://www.inkscape.org/namespaces/inkscape"
   xmlns:sodipodi="http://sodipodi.sourceforge.net/DTD/sodipodi-0.dtd"
   xmlns="http://www.w3.org/2000/svg"
   xmlns:svg="http://www.w3.org/2000/svg"><sodipodi:namedview
     id="namedview3"
     pagecolor="#ffffff"
     bordercolor="#000000"
     borderopacity="0.25"
     inkscape:showpageshadow="2"
     inkscape:pageopacity="0.0"
     inkscape:pagecheckerboard="0"
     inkscape:deskcolor="#d1d1d1"
     inkscape:zoom="14.75"
     inkscape:cx="7.7627119"
     inkscape:cy="11.525424"
     inkscape:window-width="1328"
     inkscape:window-height="605"
     inkscape:window-x="69"
     inkscape:window-y="211"
     inkscape:window-maximized="0"
     inkscape:current-layer="g1" /><defs
     id="defs1"><style
       id="style1">.e{stroke:#000;stroke-linecap:round;stroke-linejoin:round;}.e,.f{fill:none;}.f{opacity:.2;stroke-width:0px;}</style><clipPath
       clipPathUnits="userSpaceOnUse"
       id="clipPath13578"><path
         d="M 0,1205.777 H 2738.234 V 0 H 0 Z"
         transform="translate(-1750.1958,-473.16941)"
         id="path13578" /></clipPath><clipPath
       clipPathUnits="userSpaceOnUse"
       id="clipPath13580"><path
         d="M 0,1205.777 H 2738.234 V 0 H 0 Z"
         transform="translate(-1755.2523,-482.35451)"
         id="path13580" /></clipPath><clipPath
       clipPathUnits="userSpaceOnUse"
       id="clipPath13582"><path
         d="M 0,1205.777 H 2738.234 V 0 H 0 Z"
         transform="translate(-1753.044,-479.21061)"
         id="path13582" /></clipPath><clipPath
       clipPathUnits="userSpaceOnUse"
       id="clipPath13694"><path
         d="M 0,1205.777 H 2738.234 V 0 H 0 Z"
         transform="translate(-1694.7306,-422.60451)"
         id="path13694" /></clipPath><clipPath
       clipPathUnits="userSpaceOnUse"
       id="clipPath13696"><path
         d="M 0,1205.777 H 2738.234 V 0 H 0 Z"
         transform="translate(-1692.729,-424.80839)"
         id="path13696" /></clipPath><clipPath
       clipPathUnits="userSpaceOnUse"
       id="clipPath13698"><path
         d="M 0,1205.777 H 2738.234 V 0 H 0 Z"
         transform="translate(-1694.7306,-436.10451)"
         id="path13698" /></clipPath><clipPath
       clipPathUnits="userSpaceOnUse"
       id="clipPath13700"><path
         d="M 0,1205.777 H 2738.234 V 0 H 0 Z"
         transform="translate(-1692.729,-433.90049)"
         id="path13700" /></clipPath><clipPath
       clipPathUnits="userSpaceOnUse"
       id="clipPath13702"><path
         d="M 0,1205.777 H 2738.234 V 0 H 0 Z"
         transform="translate(-1695.2346,-430.59944)"
         id="path13702" /></clipPath><clipPath
       clipPathUnits="userSpaceOnUse"
       id="clipPath13704"><path
         d="M 0,1205.777 H 2738.234 V 0 H 0 Z"
         transform="translate(-1686.2346,-427.04999)"
         id="path13704" /></clipPath><clipPath
       clipPathUnits="userSpaceOnUse"
       id="clipPath13706"><path
         d="M 0,1205.777 H 2738.234 V 0 H 0 Z"
         transform="translate(-1686.2346,-428.59529)"
         id="path13706" /></clipPath><clipPath
       clipPathUnits="userSpaceOnUse"
       id="clipPath13714"><path
         d="M 0,1205.777 H 2738.234 V 0 H 0 Z"
         transform="translate(-1641.2346,-434.35454)"
         id="path13714" /></clipPath><clipPath
       clipPathUnits="userSpaceOnUse"
       id="clipPath13710"><path
         d="M 0,1205.777 H 2738.234 V 0 H 0 Z"
         transform="translate(-1661.3688,-434.35454)"
         id="path13710" /></clipPath><clipPath
       clipPathUnits="userSpaceOnUse"
       id="clipPath1370"><path
         d="M 0,1205.777 H 2738.234 V 0 H 0 Z"
         transform="translate(-2652.6085,-953.81653)"
         id="path1370" /></clipPath><clipPath
       clipPathUnits="userSpaceOnUse"
       id="clipPath1372"><path
         d="M 0,1205.777 H 2738.234 V 0 H 0 Z"
         transform="translate(-2643.2344,-953.60452)"
         id="path1372" /></clipPath><clipPath
       clipPathUnits="userSpaceOnUse"
       id="clipPath4379"><path
         d="M 0,1205.777 H 2738.234 V 0 H 0 Z"
         transform="translate(-1926.0876,-576.35451)"
         id="path4379" /></clipPath><clipPath
       clipPathUnits="userSpaceOnUse"
       id="clipPath4383"><path
         d="M 0,1205.777 H 2738.234 V 0 H 0 Z"
         transform="translate(-1928.0082,-573.77712)"
         id="path4383" /></clipPath><clipPath
       clipPathUnits="userSpaceOnUse"
       id="clipPath4385"><path
         d="M 0,1205.777 H 2738.234 V 0 H 0 Z"
         transform="translate(-1925.7345,-570.39171)"
         id="path4385" /></clipPath><clipPath
       clipPathUnits="userSpaceOnUse"
       id="clipPath14142"><path
         d="M 0,1205.777 H 2738.234 V 0 H 0 Z"
         transform="translate(-1983.2281,-349.33701)"
         id="path14142" /></clipPath><clipPath
       clipPathUnits="userSpaceOnUse"
       id="clipPath14138"><path
         d="M 0,1205.777 H 2738.234 V 0 H 0 Z"
         transform="translate(-1995.2346,-354.85453)"
         id="path14138" /></clipPath><clipPath
       clipPathUnits="userSpaceOnUse"
       id="clipPath14140"><path
         d="M 0,1205.777 H 2738.234 V 0 H 0 Z"
         transform="translate(-1995.2346,-354.85453)"
         id="path14140" /></clipPath><clipPath
       clipPathUnits="userSpaceOnUse"
       id="clipPath14130"><path
         d="M 0,1205.777 H 2738.234 V 0 H 0 Z"
         transform="translate(0,2.5000001e-5)"
         id="path14130" /></clipPath><clipPath
       clipPathUnits="userSpaceOnUse"
       id="clipPath14132"><path
         d="M 0,1205.777 H 2738.234 V 0 H 0 Z"
         transform="translate(0,2.5000001e-5)"
         id="path14132" /></clipPath><clipPath
       clipPathUnits="userSpaceOnUse"
       id="clipPath14134"><path
         d="M 0,1205.777 H 2738.234 V 0 H 0 Z"
         transform="translate(0,2.5000001e-5)"
         id="path14134" /></clipPath><clipPath
       clipPathUnits="userSpaceOnUse"
       id="clipPath14136"><path
         d="M 0,1205.777 H 2738.234 V 0 H 0 Z"
         transform="translate(0,2.5000001e-5)"
         id="path14136" /></clipPath><clipPath
       clipPathUnits="userSpaceOnUse"
       id="clipPath14080"><path
         d="M 0,1205.777 H 2738.234 V 0 H 0 Z"
         transform="translate(-2065.1529,-382.48348)"
         id="path14080" /></clipPath><clipPath
       clipPathUnits="userSpaceOnUse"
       id="clipPath13542"><path
         d="M 0,1205.777 H 2738.234 V 0 H 0 Z"
         transform="translate(-1664.7345,-477.35451)"
         id="path13542" /></clipPath><clipPath
       clipPathUnits="userSpaceOnUse"
       id="clipPath13544"><path
         d="M 0,1205.777 H 2738.234 V 0 H 0 Z"
         transform="translate(-1658.787,-476.35451)"
         id="path13544" /></clipPath><clipPath
       clipPathUnits="userSpaceOnUse"
       id="clipPath13546"><path
         d="M 0,1205.777 H 2738.234 V 0 H 0 Z"
         transform="translate(-1659.8134,-479.72321)"
         id="path13546" /></clipPath><clipPath
       clipPathUnits="userSpaceOnUse"
       id="clipPath13930"><path
         d="M 0,1205.777 H 2738.234 V 0 H 0 Z"
         transform="translate(-1921.7337,-427.49984)"
         id="path13930" /></clipPath><clipPath
       clipPathUnits="userSpaceOnUse"
       id="clipPath13932"><path
         d="M 0,1205.777 H 2738.234 V 0 H 0 Z"
         transform="translate(-1910.8041,-428.74079)"
         id="path13932" /></clipPath><clipPath
       clipPathUnits="userSpaceOnUse"
       id="clipPath13934"><path
         d="M 0,1205.777 H 2738.234 V 0 H 0 Z"
         transform="translate(-1914.3456,-428.74079)"
         id="path13934" /></clipPath><clipPath
       clipPathUnits="userSpaceOnUse"
       id="clipPath13936"><path
         d="M 0,1205.777 H 2738.234 V 0 H 0 Z"
         transform="translate(-1916.1234,-428.74079)"
         id="path13936" /></clipPath><clipPath
       clipPathUnits="userSpaceOnUse"
       id="clipPath13938"><path
         d="M 0,1205.777 H 2738.234 V 0 H 0 Z"
         transform="translate(-1919.679,-428.74079)"
         id="path13938" /></clipPath><clipPath
       clipPathUnits="userSpaceOnUse"
       id="clipPath13940"><path
         d="M 0,1205.777 H 2738.234 V 0 H 0 Z"
         transform="translate(-1917.9012,-430.19001)"
         id="path13940" /></clipPath><clipPath
       clipPathUnits="userSpaceOnUse"
       id="clipPath13942"><path
         d="M 0,1205.777 H 2738.234 V 0 H 0 Z"
         transform="translate(-1912.5678,-430.19001)"
         id="path13942" /></clipPath></defs><g
     id="c"><g
       id="d"><g
         id="g1"
         transform="translate(-0.37002355,0.18243027)"><path
           style="color:#000000;fill:#000000 icc-color(Display, 0, 0, 0);stroke-linecap:round;stroke-linejoin:round;stroke-miterlimit:11.111;-inkscape-stroke:none"
           d="m -11.589844,-1.703125 c -0.92129,0 -1.658203,0.77797555 -1.658203,1.703125 v 3.9199219 c 0,0.9250432 0.736954,1.703125 1.658203,1.703125 h 10.4316409 c 0.92129027,0 1.66015623,-0.7779756 1.66015622,-1.703125 L 0.5,0 c 0,-0.9256507 -0.739428,-1.703125 -1.6601562,-1.703125 z m 0,1 H -1.1601562 C -0.80088578,-0.703125 -0.5,-0.40434797 -0.5,0 l 0.001953,3.9199219 c 0,0.4048492 -0.29944782,0.703125 -0.66015622,0.703125 H -11.589844 c -0.358749,0 -0.658203,-0.3001696 -0.658203,-0.703125 V 0 c 0,-0.40484922 0.297495,-0.703125 0.658203,-0.703125 z"
           id="path13929"
           transform="matrix(1.3333333,0,0,-1.3333333,18.86869,12.430903)" /><path
           style="color:#000000;fill:#000000 icc-color(Display, 0, 0, 0);stroke-linecap:round;stroke-linejoin:round;stroke-miterlimit:11.111;-inkscape-stroke:none"
           d="m 0,-2.703125 a 0.5,0.5 0 0 0 -0.5,0.5 V 0 A 0.5,0.5 0 0 0 0,0.5 0.5,0.5 0 0 0 0.5,0 v -2.203125 a 0.5,0.5 0 0 0 -0.5,-0.5 z"
           id="path13931"
           transform="matrix(1.3333333,0,0,-1.3333333,4.2959898,10.776303)" /><path
           style="color:#000000;fill:#000000 icc-color(Display, 0, 0, 0);stroke-linecap:round;stroke-linejoin:round;stroke-miterlimit:11.111;-inkscape-stroke:none"
           d="m 0,-2.703125 a 0.5,0.5 0 0 0 -0.5,0.5 V 0 A 0.5,0.5 0 0 0 0,0.5 0.5,0.5 0 0 0 0.5,0 v -2.203125 a 0.5,0.5 0 0 0 -0.5,-0.5 z"
           id="path13933"
           transform="matrix(1.3333333,0,0,-1.3333333,9.0179898,10.776303)" /><path
           style="color:#000000;fill:#000000 icc-color(Display, 0, 0, 0);stroke-linecap:round;stroke-linejoin:round;stroke-miterlimit:11.111;-inkscape-stroke:none"
           d="m 0,-2.703125 a 0.5,0.5 0 0 0 -0.5,0.5 V 0 A 0.5,0.5 0 0 0 0,0.5 0.5,0.5 0 0 0 0.5,0 v -2.203125 a 0.5,0.5 0 0 0 -0.5,-0.5 z"
           id="path13935"
           transform="matrix(1.3333333,0,0,-1.3333333,11.38829,10.776303)" /><path
           style="color:#000000;fill:#000000 icc-color(Display, 0, 0, 0);stroke-linecap:round;stroke-linejoin:round;stroke-miterlimit:11.111;-inkscape-stroke:none"
           d="m 0,-2.703125 a 0.5,0.5 0 0 0 -0.5,0.5 V 0 A 0.5,0.5 0 0 0 0,0.5 0.5,0.5 0 0 0 0.5,0 v -2.203125 a 0.5,0.5 0 0 0 -0.5,-0.5 z"
           id="path13937"
           transform="matrix(1.3333333,0,0,-1.3333333,16.12919,10.776303)" /><path
           style="color:#000000;fill:#000000 icc-color(Display, 0, 0, 0);stroke-linecap:round;stroke-linejoin:round;stroke-miterlimit:11.111;-inkscape-stroke:none"
           d="m 0,-4.1523437 a 0.5,0.5 0 0 0 -0.5,0.4999999 V 0 A 0.5,0.5 0 0 0 0,0.5 0.5,0.5 0 0 0 0.5,0 V -3.6523438 A 0.5,0.5 0 0 0 0,-4.1523437 Z"
           id="path13939"
           transform="matrix(1.3333333,0,0,-1.3333333,13.75869,8.8440034)" /><path
           style="color:#000000;fill:#000000 icc-color(Display, 0, 0, 0);stroke-linecap:round;stroke-linejoin:round;stroke-miterlimit:11.111;-inkscape-stroke:none"
           d="m 0,-4.1523437 a 0.5,0.5 0 0 0 -0.5,0.4999999 V 0 A 0.5,0.5 0 0 0 0,0.5 0.5,0.5 0 0 0 0.5,0 V -3.6523438 A 0.5,0.5 0 0 0 0,-4.1523437 Z"
           id="path13941"
           transform="matrix(1.3333333,0,0,-1.3333333,6.6474898,8.8440034)" /></g></g></g></svg>
