<?xml version="1.0" encoding="UTF-8" standalone="no"?>
<!-- Created with Inkscape (http://www.inkscape.org/) -->

<svg
   width="18"
   height="16"
   viewBox="0 0 4.7624999 4.2333333"
   version="1.1"
   id="svg1"
   xmlns="http://www.w3.org/2000/svg"
   xmlns:svg="http://www.w3.org/2000/svg">
  <defs
     id="defs1" />
  <g
     id="g2179"
     style="clip-rule:evenodd;fill:#000000;fill-rule:evenodd;stroke-linejoin:round;stroke-miterlimit:2"
     transform="matrix(0.26458333,0,0,0.26458333,-229.19134,-211.77911)">
    <path
       d="m 877.234,810.425 v 0.124 l 0.129,-0.124 z"
       id="path1348"
       style="fill:#000000" />
    <path
       d="m 877.234,810.425 v 0.124 l 0.129,-0.124 z"
       style="fill:#000000"
       id="path1349" />
    <path
       d="m 879.272,814.574 c -1.132,0.748 -2.483,1.188 -3.936,1.206 l 7.238,-6.953 c -0.049,1.087 -0.344,2.111 -0.828,3.021 z m -4.398,1.193 c -0.88,-0.033 -1.72,-0.231 -2.492,-0.556 l 1.859,-1.786 h -0.006 c -0.162,0 -0.31,-0.047 -0.445,-0.116 l -1.63,1.796 c -0.701,-0.318 -1.339,-0.749 -1.897,-1.266 l 2.972,-2.854 v -0.56 h -0.143 l -2.976,3.28 c -0.548,-0.526 -1.011,-1.138 -1.372,-1.814 l 1.811,-1.74 c -0.098,-0.092 -0.179,-0.2 -0.234,-0.325 l -1.68,1.851 c -0.372,-0.738 -0.617,-1.551 -0.714,-2.408 l 2.499,-2.401 c 0.077,-0.111 0.172,-0.202 0.287,-0.275 l 2.585,-2.484 c 0.103,-0.305 0.344,-0.533 0.653,-0.627 l 2.416,-2.321 0.35,0.054 c 0.235,0.06 0.47,0.121 0.705,0.181 l 0.413,0.152 -1.704,1.877 h 0.104 c 0.355,0 0.652,0.196 0.829,0.474 l 1.89,-1.816 c 0.371,0.212 0.719,0.461 1.042,0.737 l -2.761,3.042 v 0.563 h 0.746 l 2.866,-2.753 c 0.275,0.326 0.523,0.677 0.739,1.049 l -1.749,1.926 c 0.236,0.183 0.398,0.456 0.398,0.778 v 0.243 l 1.888,-1.814 0.14,0.384 c 0.061,0.235 0.122,0.47 0.182,0.705 l 0.063,0.413 z m -6.999,-7.342 c 0,-1.166 0.272,-2.269 0.763,-3.246 l 3.627,-3.484 c 0.825,-0.365 1.729,-0.58 2.68,-0.615 l -7.049,7.765 z m 7.36,-8 c -4.416,0 -8,3.585 -8,8 0,4.416 3.584,8 8,8 4.415,0 8,-3.584 8,-8 0,-4.415 -3.585,-8 -8,-8"
       style="fill:#000000"
       id="path1350" />
    <path
       d="m 879.234,807.425 h -3 v -3 h -2 v 3 h -3 v 2 h 3 v 3 h 2 v -3 h 3 z"
       style="fill:#000000;fill-rule:nonzero"
       id="path1351" />
  </g>
</svg>
