<?xml version="1.0" encoding="UTF-8" standalone="no"?>
<!-- Created with Inkscape (http://www.inkscape.org/) -->

<svg
   width="18"
   height="16"
   viewBox="0 0 4.7624999 4.2333333"
   version="1.1"
   id="svg1"
   xmlns="http://www.w3.org/2000/svg"
   xmlns:svg="http://www.w3.org/2000/svg">
  <defs
     id="defs1" />
  <g
     id="g1"
     transform="translate(-2.1166722,-0.26457898)"
     style="fill:#000000">
    <path
       d="M 6.875204,0.26457848 H 2.1206416 c -0.00238,0 -0.00397,0.001852 -0.00397,0.003969 V 4.493943 c 0,0.00212 0.00159,0.00397 0.00397,0.00397 H 6.8791728 V 0.26854723 c 0,-0.002117 -0.00185,-0.003969 -0.00397,-0.003969 M 6.6145894,4.2333284 H 2.3812562 V 0.52916181 h 4.2333332 z"
       style="clip-rule:evenodd;fill:#000000;fill-rule:nonzero;stroke-width:0.264583;stroke-linejoin:round;stroke-miterlimit:2"
       id="path1354" />
    <path
       d="m 3.4395895,1.1906201 c 0,-0.21907497 -0.1778,-0.39687496 -0.396875,-0.39687496 -0.219075,0 -0.396875,0.17779999 -0.396875,0.39687496 0,0.219075 0.1778,0.396875 0.396875,0.396875 0.219075,0 0.396875,-0.1778 0.396875,-0.396875"
       style="clip-rule:evenodd;fill:#000000;fill-rule:nonzero;stroke-width:0.264583;stroke-linejoin:round;stroke-miterlimit:2"
       id="path1355" />
    <path
       d="M 5.8208395,1.856841 5.3935374,1.4263639 5.0196811,1.856841 Z"
       style="clip-rule:evenodd;fill:#000000;fill-rule:nonzero;stroke-width:0.264583;stroke-linejoin:round;stroke-miterlimit:2"
       id="path1356" />
    <path
       d="m 5.8208395,1.856841 v 1.0538354 h -0.79375 V 3.7044263 H 3.9687561 V 2.9106764 H 3.4290062 l -1.04775,0.9472083 V 4.233593 H 6.6145894 V 2.6566764 Z"
       style="clip-rule:evenodd;fill:#000000;fill-rule:nonzero;stroke-width:0.264583;stroke-linejoin:round;stroke-miterlimit:2"
       id="path1357" />
    <path
       d="m 5.5562561,2.1166618 h -0.79375 v -0.79375 H 4.2333395 v 0.79375 h -0.79375 v 0.5291666 h 0.79375 v 0.79375 h 0.5291666 v -0.79375 h 0.79375 z"
       style="clip-rule:evenodd;fill:#000000;fill-rule:nonzero;stroke-width:0.264583;stroke-linejoin:round;stroke-miterlimit:2"
       id="path1358" />
  </g>
</svg>
