<?xml version="1.0" encoding="UTF-8" standalone="no"?>
<svg
   id="b"
   width="20"
   height="16"
   viewBox="0 0 20 16"
   version="1.1"
   sodipodi:docname="align-right.svg"
   inkscape:version="1.3.1 (91b66b0, 2023-11-16)"
   xml:space="preserve"
   xmlns:inkscape="http://www.inkscape.org/namespaces/inkscape"
   xmlns:sodipodi="http://sodipodi.sourceforge.net/DTD/sodipodi-0.dtd"
   xmlns="http://www.w3.org/2000/svg"
   xmlns:svg="http://www.w3.org/2000/svg"><sodipodi:namedview
     id="namedview3"
     pagecolor="#ffffff"
     bordercolor="#000000"
     borderopacity="0.25"
     inkscape:showpageshadow="2"
     inkscape:pageopacity="0.0"
     inkscape:pagecheckerboard="0"
     inkscape:deskcolor="#d1d1d1"
     inkscape:zoom="14.75"
     inkscape:cx="5.9322034"
     inkscape:cy="8.5423729"
     inkscape:window-width="1312"
     inkscape:window-height="449"
     inkscape:window-x="34"
     inkscape:window-y="257"
     inkscape:window-maximized="0"
     inkscape:current-layer="d" /><defs
     id="defs1"><style
       id="style1">.e{stroke:#000;stroke-linecap:round;stroke-linejoin:round;}.e,.f{fill:none;}.f{opacity:.2;stroke-width:0px;}</style></defs><g
     id="c"><g
       id="d"><path
         d="m 15.8685,14.674 c -0.086,-0.078 -0.129,-0.174 -0.129,-0.287 V 1.613 c 0,-0.113 0.043,-0.209 0.129,-0.287 0.086,-0.078 0.186,-0.117 0.299,-0.117 0.113,0 0.214,0.039 0.302,0.117 0.087,0.078 0.131,0.174 0.131,0.287 v 12.774 c 0,0.113 -0.044,0.209 -0.131,0.287 -0.088,0.078 -0.189,0.117 -0.302,0.117 -0.113,0 -0.213,-0.039 -0.299,-0.117 m -2.221,-8.215 c 0.082,-0.082 0.123,-0.201 0.123,-0.357 V 4.104 c 0,-0.157 -0.041,-0.277 -0.123,-0.361 -0.082,-0.084 -0.197,-0.126 -0.345,-0.126 h -4.395 c -0.152,0 -0.269,0.042 -0.351,0.126 -0.083,0.084 -0.124,0.204 -0.124,0.361 v 1.998 c 0,0.156 0.041,0.275 0.124,0.357 0.082,0.082 0.199,0.123 0.351,0.123 h 4.395 c 0.148,0 0.263,-0.041 0.345,-0.123 M 8.8895,7.467 C 8.4565,7.467 8.1245,7.355 7.8935,7.13 7.6635,6.905 7.5485,6.578 7.5485,6.149 V 4.051 c 0,-0.426 0.115,-0.752 0.345,-0.979 0.231,-0.226 0.563,-0.339 0.996,-0.339 h 4.424 c 0.438,0 0.771,0.113 0.999,0.339 0.229,0.227 0.343,0.553 0.343,0.979 v 2.098 c 0,0.429 -0.114,0.756 -0.343,0.981 -0.228,0.225 -0.561,0.337 -0.999,0.337 z m 4.758,4.796 c 0.082,-0.084 0.123,-0.204 0.123,-0.36 V 9.904 c 0,-0.156 -0.041,-0.275 -0.123,-0.357 -0.082,-0.082 -0.197,-0.123 -0.345,-0.123 h -8.543 c -0.153,0 -0.27,0.041 -0.352,0.123 -0.082,0.082 -0.123,0.201 -0.123,0.357 v 1.999 c 0,0.156 0.041,0.276 0.123,0.36 0.082,0.084 0.199,0.126 0.352,0.126 h 8.543 c 0.148,0 0.263,-0.042 0.345,-0.126 m -8.906,1.011 c -0.434,0 -0.766,-0.114 -0.996,-0.34 -0.231,-0.227 -0.346,-0.553 -0.346,-0.979 V 9.858 c 0,-0.43 0.115,-0.757 0.346,-0.982 0.23,-0.224 0.562,-0.337 0.996,-0.337 h 8.572 c 0.438,0 0.771,0.113 0.999,0.337 0.229,0.225 0.343,0.552 0.343,0.982 v 2.097 c 0,0.426 -0.114,0.752 -0.343,0.979 -0.228,0.226 -0.561,0.34 -0.999,0.34 z"
         style="clip-rule:evenodd;fill-rule:nonzero;stroke-miterlimit:10"
         id="path904" /></g></g></svg>
