<?xml version="1.0" encoding="UTF-8" standalone="no"?>
<svg
   id="b"
   width="20"
   height="16"
   viewBox="0 0 20 16"
   version="1.1"
   sodipodi:docname="align-left.svg"
   inkscape:version="1.3.1 (91b66b0, 2023-11-16)"
   xml:space="preserve"
   xmlns:inkscape="http://www.inkscape.org/namespaces/inkscape"
   xmlns:sodipodi="http://sodipodi.sourceforge.net/DTD/sodipodi-0.dtd"
   xmlns="http://www.w3.org/2000/svg"
   xmlns:svg="http://www.w3.org/2000/svg"><sodipodi:namedview
     id="namedview3"
     pagecolor="#ffffff"
     bordercolor="#000000"
     borderopacity="0.25"
     inkscape:showpageshadow="2"
     inkscape:pageopacity="0.0"
     inkscape:pagecheckerboard="0"
     inkscape:deskcolor="#d1d1d1"
     inkscape:zoom="14.75"
     inkscape:cx="5.9322034"
     inkscape:cy="8.5423729"
     inkscape:window-width="1312"
     inkscape:window-height="449"
     inkscape:window-x="40"
     inkscape:window-y="408"
     inkscape:window-maximized="0"
     inkscape:current-layer="d" /><defs
     id="defs1"><style
       id="style1">.e{stroke:#000;stroke-linecap:round;stroke-linejoin:round;}.e,.f{fill:none;}.f{opacity:.2;stroke-width:0px;}</style></defs><g
     id="c"><g
       id="d"><path
         d="m 15.63861,12.332542 c 0.152,0 0.27,-0.042 0.352,-0.126 0.082,-0.084 0.123,-0.204 0.123,-0.36 V 9.8485424 c 0,-0.157 -0.041,-0.276 -0.123,-0.358 -0.082,-0.082 -0.2,-0.123 -0.352,-0.123 H 7.0956101 c -0.152,0 -0.27,0.041 -0.352,0.123 -0.082,0.082 -0.123,0.201 -0.123,0.358 v 1.9979996 c 0,0.156 0.041,0.276 0.123,0.36 0.082,0.084 0.2,0.126 0.352,0.126 z m -4.148,-5.8069996 c 0.148,0 0.263,-0.041 0.345,-0.123 0.082,-0.082 0.123,-0.201 0.123,-0.357 v -1.998 c 0,-0.156 -0.041,-0.277 -0.123,-0.361 -0.082,-0.083 -0.197,-0.125 -0.345,-0.125 H 7.0956101 c -0.152,0 -0.27,0.042 -0.352,0.125 -0.082,0.084 -0.123,0.205 -0.123,0.361 v 1.998 c 0,0.156 0.041,0.275 0.123,0.357 0.082,0.082 0.2,0.123 0.352,0.123 z M 6.0816101,12.877542 c -0.23,-0.227 -0.345,-0.553 -0.345,-0.979 V 9.8015424 c 0,-0.43 0.115,-0.757 0.345,-0.982 0.231,-0.224 0.563,-0.337 0.996,-0.337 H 15.65061 c 0.437,0 0.771,0.113 1.002,0.337 0.23,0.225 0.345,0.552 0.345,0.982 v 2.0969996 c 0,0.426 -0.115,0.752 -0.345,0.979 -0.231,0.226 -0.565,0.34 -1.002,0.34 H 7.0776101 c -0.433,0 -0.765,-0.114 -0.996,-0.34 m 0,-5.8039996 c -0.23,-0.224 -0.345,-0.552 -0.345,-0.981 v -2.098 c 0,-0.426 0.115,-0.752 0.345,-0.978 0.231,-0.227 0.563,-0.34 0.996,-0.34 H 11.50161 c 0.438,0 0.771,0.113 0.999,0.34 0.229,0.226 0.343,0.552 0.343,0.978 v 2.098 c 0,0.429 -0.114,0.757 -0.343,0.981 -0.228,0.225 -0.561,0.337 -0.999,0.337 H 7.0776101 c -0.433,0 -0.765,-0.112 -0.996,-0.337 m -2.156,7.5439996 c -0.086,-0.078 -0.129,-0.174 -0.129,-0.287 V 1.5575424 c 0,-0.114 0.043,-0.209 0.129,-0.288 0.086,-0.078 0.186,-0.117 0.299,-0.117 0.117,0 0.219,0.039 0.305,0.117 0.086,0.079 0.129,0.174 0.129,0.288 V 14.330542 c 0,0.113 -0.043,0.209 -0.129,0.287 -0.086,0.078 -0.188,0.117 -0.305,0.117 -0.113,0 -0.213,-0.039 -0.299,-0.117"
         style="clip-rule:evenodd;fill-rule:nonzero;stroke-miterlimit:10"
         id="path905" /></g></g></svg>
