<?xml version="1.0" encoding="UTF-8" standalone="no"?>
<svg
   id="b"
   width="20"
   height="20"
   viewBox="0 0 20 20"
   version="1.1"
   sodipodi:docname="fill-linear.svg"
   inkscape:version="1.3.1 (91b66b0, 2023-11-16)"
   xml:space="preserve"
   xmlns:inkscape="http://www.inkscape.org/namespaces/inkscape"
   xmlns:sodipodi="http://sodipodi.sourceforge.net/DTD/sodipodi-0.dtd"
   xmlns="http://www.w3.org/2000/svg"
   xmlns:svg="http://www.w3.org/2000/svg"><sodipodi:namedview
     id="namedview3"
     pagecolor="#ffffff"
     bordercolor="#000000"
     borderopacity="0.25"
     inkscape:showpageshadow="2"
     inkscape:pageopacity="0.0"
     inkscape:pagecheckerboard="0"
     inkscape:deskcolor="#d1d1d1"
     inkscape:zoom="17.931023"
     inkscape:cx="8.7557748"
     inkscape:cy="11.488469"
     inkscape:window-width="1312"
     inkscape:window-height="605"
     inkscape:window-x="31"
     inkscape:window-y="100"
     inkscape:window-maximized="0"
     inkscape:current-layer="g1" /><defs
     id="defs1"><style
       id="style1">.e{stroke:#000;stroke-linecap:round;stroke-linejoin:round;}.e,.f{fill:none;}.f{opacity:.2;stroke-width:0px;}</style><clipPath
       clipPathUnits="userSpaceOnUse"
       id="clipPath3761"><path
         d="M 0,1205.777 H 2738.234 V 0 H 0 Z"
         transform="translate(-1062.36,-340.07301)"
         id="path3761" /></clipPath><clipPath
       clipPathUnits="userSpaceOnUse"
       id="clipPath3763"><path
         d="M 0,1205.777 H 2738.234 V 0 H 0 Z"
         transform="translate(-1062.2632,-337.60821)"
         id="path3763" /></clipPath><clipPath
       clipPathUnits="userSpaceOnUse"
       id="clipPath3765"><path
         d="M 0,1205.777 H 2738.234 V 0 H 0 Z"
         transform="translate(-1062.2632,-335.39121)"
         id="path3765" /></clipPath><clipPath
       clipPathUnits="userSpaceOnUse"
       id="clipPath3767"><path
         d="M 0,1205.777 H 2738.234 V 0 H 0 Z"
         transform="translate(-1062.4291,-333.34101)"
         id="path3767" /></clipPath><clipPath
       clipPathUnits="userSpaceOnUse"
       id="clipPath3769"><path
         d="M 0,1205.777 H 2738.234 V 0 H 0 Z"
         transform="translate(-1062.9171,-331.61488)"
         id="path3769" /></clipPath><clipPath
       clipPathUnits="userSpaceOnUse"
       id="clipPath3771"><path
         d="M 0,1205.777 H 2738.234 V 0 H 0 Z"
         transform="translate(-1063.7688,-330.25498)"
         id="path3771" /></clipPath><clipPath
       clipPathUnits="userSpaceOnUse"
       id="clipPath3773"><path
         d="M 0,1205.777 H 2738.234 V 0 H 0 Z"
         transform="translate(-1064.9308,-329.20708)"
         id="path3773" /></clipPath><clipPath
       clipPathUnits="userSpaceOnUse"
       id="clipPath3775"><path
         d="M 0,1205.777 H 2738.234 V 0 H 0 Z"
         transform="translate(-1066.5945,-328.66393)"
         id="path3775" /></clipPath><clipPath
       clipPathUnits="userSpaceOnUse"
       id="clipPath3777"><path
         d="M 0,1205.777 H 2738.234 V 0 H 0 Z"
         transform="translate(-1069.0444,-328.91211)"
         id="path3777" /></clipPath><clipPath
       clipPathUnits="userSpaceOnUse"
       id="clipPath3918"><path
         d="M 0,1205.777 H 2738.234 V 0 H 0 Z"
         transform="translate(-964.05505,-422.70974)"
         id="path3918" /></clipPath><clipPath
       clipPathUnits="userSpaceOnUse"
       id="clipPath3920"><path
         d="M 0,1205.777 H 2738.234 V 0 H 0 Z"
         transform="translate(-975.25705,-427.27334)"
         id="path3920" /></clipPath><clipPath
       clipPathUnits="userSpaceOnUse"
       id="clipPath3922"><path
         d="M 0,1205.777 H 2738.234 V 0 H 0 Z"
         transform="translate(-965.65892,-422.15909)"
         id="path3922" /></clipPath><clipPath
       clipPathUnits="userSpaceOnUse"
       id="clipPath3924"><path
         d="M 0,1205.777 H 2738.234 V 0 H 0 Z"
         transform="translate(-967.69502,-426.07514)"
         id="path3924" /></clipPath><clipPath
       clipPathUnits="userSpaceOnUse"
       id="clipPath3926"><path
         d="M 0,1205.777 H 2738.234 V 0 H 0 Z"
         transform="translate(-966.9304,-423.85139)"
         id="path3926" /></clipPath><clipPath
       clipPathUnits="userSpaceOnUse"
       id="clipPath3928"><path
         d="M 0,1205.777 H 2738.234 V 0 H 0 Z"
         transform="translate(-975.6979,-429.85529)"
         id="path3928" /></clipPath><clipPath
       clipPathUnits="userSpaceOnUse"
       id="clipPath3930"><path
         d="M 0,1205.777 H 2738.234 V 0 H 0 Z"
         transform="translate(-973.447,-432.10731)"
         id="path3930" /></clipPath><clipPath
       clipPathUnits="userSpaceOnUse"
       id="clipPath2494"><path
         d="M 0,1205.777 H 2738.234 V 0 H 0 Z"
         transform="translate(-1006.1637,-427.52789)"
         id="path2494" /></clipPath><clipPath
       clipPathUnits="userSpaceOnUse"
       id="clipPath2505"><path
         d="M 0,1205.777 H 2738.234 V 0 H 0 Z"
         transform="translate(0,2.5000001e-5)"
         id="path2505" /></clipPath><clipPath
       clipPathUnits="userSpaceOnUse"
       id="clipPath2507"><path
         d="M 0,1205.777 H 2738.234 V 0 H 0 Z"
         transform="translate(0,2.5000001e-5)"
         id="path2507" /></clipPath><clipPath
       clipPathUnits="userSpaceOnUse"
       id="clipPath2509"><path
         d="M 0,1205.777 H 2738.234 V 0 H 0 Z"
         transform="translate(0,2.5000001e-5)"
         id="path2509" /></clipPath><clipPath
       clipPathUnits="userSpaceOnUse"
       id="clipPath2511"><path
         d="M 0,1205.777 H 2738.234 V 0 H 0 Z"
         transform="translate(0,2.5000001e-5)"
         id="path2511" /></clipPath><clipPath
       clipPathUnits="userSpaceOnUse"
       id="clipPath2513"><path
         d="M 0,1205.777 H 2738.234 V 0 H 0 Z"
         transform="translate(0,2.5000001e-5)"
         id="path2513" /></clipPath><clipPath
       clipPathUnits="userSpaceOnUse"
       id="clipPath2515"><path
         d="M 0,1205.777 H 2738.234 V 0 H 0 Z"
         transform="translate(-1130.1741,-427.58684)"
         id="path2515" /></clipPath><clipPath
       clipPathUnits="userSpaceOnUse"
       id="clipPath2517"><path
         d="M 0,1205.777 H 2738.234 V 0 H 0 Z"
         transform="translate(-1133.0022,-428.29409)"
         id="path2517" /></clipPath><clipPath
       clipPathUnits="userSpaceOnUse"
       id="clipPath2505-0"><path
         d="M 0,1205.777 H 2738.234 V 0 H 0 Z"
         transform="translate(0,2.5000001e-5)"
         id="path2505-4" /></clipPath><clipPath
       clipPathUnits="userSpaceOnUse"
       id="clipPath4433"><path
         d="M 0,1205.777 H 2738.234 V 0 H 0 Z"
         transform="translate(0,2.5000001e-5)"
         id="path4433" /></clipPath><clipPath
       clipPathUnits="userSpaceOnUse"
       id="clipPath4435"><path
         d="M 0,1205.777 H 2738.234 V 0 H 0 Z"
         transform="translate(0,2.5000001e-5)"
         id="path4435" /></clipPath><clipPath
       clipPathUnits="userSpaceOnUse"
       id="clipPath4431"><path
         d="M 0,1205.777 H 2738.234 V 0 H 0 Z"
         transform="translate(0,2.5000001e-5)"
         id="path4431" /></clipPath><clipPath
       clipPathUnits="userSpaceOnUse"
       id="clipPath4451"><path
         d="M 0,1205.777 H 2738.234 V 0 H 0 Z"
         transform="translate(0,2.5000001e-5)"
         id="path4451" /></clipPath><clipPath
       clipPathUnits="userSpaceOnUse"
       id="clipPath4453"><path
         d="M 0,1205.777 H 2738.234 V 0 H 0 Z"
         transform="translate(0,2.5000001e-5)"
         id="path4453" /></clipPath><clipPath
       clipPathUnits="userSpaceOnUse"
       id="clipPath4455"><path
         d="M 0,1205.777 H 2738.234 V 0 H 0 Z"
         transform="translate(0,2.5000001e-5)"
         id="path4455" /></clipPath><clipPath
       clipPathUnits="userSpaceOnUse"
       id="clipPath4449"><path
         d="M 0,1205.777 H 2738.234 V 0 H 0 Z"
         transform="translate(0,2.5000001e-5)"
         id="path4449" /></clipPath><clipPath
       clipPathUnits="userSpaceOnUse"
       id="clipPath4447"><path
         d="M 0,1205.777 H 2738.234 V 0 H 0 Z"
         transform="translate(-1307.7345,-464.06881)"
         id="path4447" /></clipPath><clipPath
       clipPathUnits="userSpaceOnUse"
       id="clipPath4445"><path
         d="M 0,1205.777 H 2738.234 V 0 H 0 Z"
         transform="translate(-1307.7345,-468.35451)"
         id="path4445" /></clipPath><clipPath
       clipPathUnits="userSpaceOnUse"
       id="clipPath4457"><path
         d="M 0,1205.777 H 2738.234 V 0 H 0 Z"
         transform="translate(-1304.1229,-451.35411)"
         id="path4457" /></clipPath><clipPath
       clipPathUnits="userSpaceOnUse"
       id="clipPath4459"><path
         d="M 0,1205.777 H 2738.234 V 0 H 0 Z"
         transform="translate(0,2.5000001e-5)"
         id="path4459" /></clipPath><clipPath
       clipPathUnits="userSpaceOnUse"
       id="clipPath4461"><path
         d="M 0,1205.777 H 2738.234 V 0 H 0 Z"
         transform="translate(0,2.5000001e-5)"
         id="path4461" /></clipPath><clipPath
       clipPathUnits="userSpaceOnUse"
       id="clipPath4463"><path
         d="M 0,1205.777 H 2738.234 V 0 H 0 Z"
         transform="translate(-1311.5344,-435.35451)"
         id="path4463" /></clipPath><clipPath
       clipPathUnits="userSpaceOnUse"
       id="clipPath4465"><path
         d="M 0,1205.777 H 2738.234 V 0 H 0 Z"
         transform="translate(0,2.5000001e-5)"
         id="path4465" /></clipPath><clipPath
       clipPathUnits="userSpaceOnUse"
       id="clipPath4467"><path
         d="M 0,1205.777 H 2738.234 V 0 H 0 Z"
         transform="translate(0,2.5000001e-5)"
         id="path4467" /></clipPath><clipPath
       clipPathUnits="userSpaceOnUse"
       id="clipPath4441"><path
         d="M 0,1205.777 H 2738.234 V 0 H 0 Z"
         transform="translate(-1303.7346,-480.35451)"
         id="path4441" /></clipPath><clipPath
       clipPathUnits="userSpaceOnUse"
       id="clipPath4443"><path
         d="M 0,1205.777 H 2738.234 V 0 H 0 Z"
         transform="translate(0,2.5000001e-5)"
         id="path4443" /></clipPath><clipPath
       clipPathUnits="userSpaceOnUse"
       id="clipPath4437"><path
         d="M 0,1205.777 H 2738.234 V 0 H 0 Z"
         transform="translate(-1311.7345,-496.35451)"
         id="path4437" /></clipPath><clipPath
       clipPathUnits="userSpaceOnUse"
       id="clipPath4439"><path
         d="M 0,1205.777 H 2738.234 V 0 H 0 Z"
         transform="translate(0,2.5000001e-5)"
         id="path4439" /></clipPath><clipPath
       clipPathUnits="userSpaceOnUse"
       id="clipPath4515"><path
         d="M 0,1205.777 H 2738.234 V 0 H 0 Z"
         transform="translate(-1252.8976,-329.56131)"
         id="path4515" /></clipPath><clipPath
       clipPathUnits="userSpaceOnUse"
       id="clipPath2371"><path
         d="M 0,1205.777 H 2738.234 V 0 H 0 Z"
         transform="translate(-1963.2345,-869.35452)"
         id="path2371" /></clipPath></defs><g
     id="g1"
     transform="translate(-0.43216786,0.07904603)"><path
       id="path2370"
       d="m 0,0 c 4.415,0 8,-3.585 8,-8 0,-4.415 -3.585,-8 -8,-8 -4.415,0 -8,3.585 -8,8 0,4.415 3.585,8 8,8 M 7.34,-8.402 C 7.29,-9.489 6.995,-10.513 6.512,-11.423 l -2.475,-2.726 c -1.132,-0.747 -2.483,-1.188 -3.935,-1.206 z m -0.452,2.973 0.141,-0.383 c 0.06,-0.235 0.121,-0.47 0.181,-0.705 l 0.064,-0.414 -7.635,-8.411 c -0.88,0.033 -1.72,0.231 -2.492,0.557 z m -1.275,2.182 c 0.275,-0.326 0.522,-0.677 0.738,-1.048 l -9.426,-10.384 c -0.701,0.317 -1.339,0.748 -1.897,1.265 z M 3.72,-1.658 C 4.091,-1.87 4.438,-2.119 4.761,-2.395 l -9.88,-10.885 c -0.548,0.526 -1.011,1.139 -1.372,1.814 z m -2.587,0.922 0.35,-0.054 c 0.235,-0.06 0.47,-0.121 0.705,-0.181 l 0.413,-0.151 -9.195,-10.13 c -0.372,0.739 -0.617,1.551 -0.714,2.408 z M -0.29,-0.655 -7.339,-8.42 -7.36,-8 c 0,1.166 0.272,2.269 0.763,3.246 l 3.627,3.484 c 0.825,0.365 1.73,0.581 2.68,0.615"
       style="fill:#000000 icc-color(Display, 0, 0, 0);fill-opacity:1;fill-rule:evenodd;stroke:none"
       transform="matrix(1.0666666,0,0,-1.0666666,10.432168,1.3876212)"
       clip-path="url(#clipPath2371)" /></g></svg>
