<?xml version="1.0" encoding="UTF-8" standalone="no"?>
<svg
   id="b"
   width="20"
   height="20"
   viewBox="0 0 20 20"
   version="1.1"
   sodipodi:docname="fill-trace.svg"
   inkscape:version="1.3.1 (91b66b0, 2023-11-16)"
   xml:space="preserve"
   xmlns:inkscape="http://www.inkscape.org/namespaces/inkscape"
   xmlns:sodipodi="http://sodipodi.sourceforge.net/DTD/sodipodi-0.dtd"
   xmlns="http://www.w3.org/2000/svg"
   xmlns:svg="http://www.w3.org/2000/svg"><sodipodi:namedview
     id="namedview3"
     pagecolor="#ffffff"
     bordercolor="#000000"
     borderopacity="0.25"
     inkscape:showpageshadow="2"
     inkscape:pageopacity="0.0"
     inkscape:pagecheckerboard="0"
     inkscape:deskcolor="#d1d1d1"
     inkscape:zoom="17.931023"
     inkscape:cx="8.7557748"
     inkscape:cy="11.488469"
     inkscape:window-width="1312"
     inkscape:window-height="605"
     inkscape:window-x="65"
     inkscape:window-y="25"
     inkscape:window-maximized="0"
     inkscape:current-layer="g1" /><defs
     id="defs1"><style
       id="style1">.e{stroke:#000;stroke-linecap:round;stroke-linejoin:round;}.e,.f{fill:none;}.f{opacity:.2;stroke-width:0px;}</style><clipPath
       clipPathUnits="userSpaceOnUse"
       id="clipPath3761"><path
         d="M 0,1205.777 H 2738.234 V 0 H 0 Z"
         transform="translate(-1062.36,-340.07301)"
         id="path3761" /></clipPath><clipPath
       clipPathUnits="userSpaceOnUse"
       id="clipPath3763"><path
         d="M 0,1205.777 H 2738.234 V 0 H 0 Z"
         transform="translate(-1062.2632,-337.60821)"
         id="path3763" /></clipPath><clipPath
       clipPathUnits="userSpaceOnUse"
       id="clipPath3765"><path
         d="M 0,1205.777 H 2738.234 V 0 H 0 Z"
         transform="translate(-1062.2632,-335.39121)"
         id="path3765" /></clipPath><clipPath
       clipPathUnits="userSpaceOnUse"
       id="clipPath3767"><path
         d="M 0,1205.777 H 2738.234 V 0 H 0 Z"
         transform="translate(-1062.4291,-333.34101)"
         id="path3767" /></clipPath><clipPath
       clipPathUnits="userSpaceOnUse"
       id="clipPath3769"><path
         d="M 0,1205.777 H 2738.234 V 0 H 0 Z"
         transform="translate(-1062.9171,-331.61488)"
         id="path3769" /></clipPath><clipPath
       clipPathUnits="userSpaceOnUse"
       id="clipPath3771"><path
         d="M 0,1205.777 H 2738.234 V 0 H 0 Z"
         transform="translate(-1063.7688,-330.25498)"
         id="path3771" /></clipPath><clipPath
       clipPathUnits="userSpaceOnUse"
       id="clipPath3773"><path
         d="M 0,1205.777 H 2738.234 V 0 H 0 Z"
         transform="translate(-1064.9308,-329.20708)"
         id="path3773" /></clipPath><clipPath
       clipPathUnits="userSpaceOnUse"
       id="clipPath3775"><path
         d="M 0,1205.777 H 2738.234 V 0 H 0 Z"
         transform="translate(-1066.5945,-328.66393)"
         id="path3775" /></clipPath><clipPath
       clipPathUnits="userSpaceOnUse"
       id="clipPath3777"><path
         d="M 0,1205.777 H 2738.234 V 0 H 0 Z"
         transform="translate(-1069.0444,-328.91211)"
         id="path3777" /></clipPath><clipPath
       clipPathUnits="userSpaceOnUse"
       id="clipPath3918"><path
         d="M 0,1205.777 H 2738.234 V 0 H 0 Z"
         transform="translate(-964.05505,-422.70974)"
         id="path3918" /></clipPath><clipPath
       clipPathUnits="userSpaceOnUse"
       id="clipPath3920"><path
         d="M 0,1205.777 H 2738.234 V 0 H 0 Z"
         transform="translate(-975.25705,-427.27334)"
         id="path3920" /></clipPath><clipPath
       clipPathUnits="userSpaceOnUse"
       id="clipPath3922"><path
         d="M 0,1205.777 H 2738.234 V 0 H 0 Z"
         transform="translate(-965.65892,-422.15909)"
         id="path3922" /></clipPath><clipPath
       clipPathUnits="userSpaceOnUse"
       id="clipPath3924"><path
         d="M 0,1205.777 H 2738.234 V 0 H 0 Z"
         transform="translate(-967.69502,-426.07514)"
         id="path3924" /></clipPath><clipPath
       clipPathUnits="userSpaceOnUse"
       id="clipPath3926"><path
         d="M 0,1205.777 H 2738.234 V 0 H 0 Z"
         transform="translate(-966.9304,-423.85139)"
         id="path3926" /></clipPath><clipPath
       clipPathUnits="userSpaceOnUse"
       id="clipPath3928"><path
         d="M 0,1205.777 H 2738.234 V 0 H 0 Z"
         transform="translate(-975.6979,-429.85529)"
         id="path3928" /></clipPath><clipPath
       clipPathUnits="userSpaceOnUse"
       id="clipPath3930"><path
         d="M 0,1205.777 H 2738.234 V 0 H 0 Z"
         transform="translate(-973.447,-432.10731)"
         id="path3930" /></clipPath><clipPath
       clipPathUnits="userSpaceOnUse"
       id="clipPath2494"><path
         d="M 0,1205.777 H 2738.234 V 0 H 0 Z"
         transform="translate(-1006.1637,-427.52789)"
         id="path2494" /></clipPath><clipPath
       clipPathUnits="userSpaceOnUse"
       id="clipPath2505"><path
         d="M 0,1205.777 H 2738.234 V 0 H 0 Z"
         transform="translate(0,2.5000001e-5)"
         id="path2505" /></clipPath><clipPath
       clipPathUnits="userSpaceOnUse"
       id="clipPath2507"><path
         d="M 0,1205.777 H 2738.234 V 0 H 0 Z"
         transform="translate(0,2.5000001e-5)"
         id="path2507" /></clipPath><clipPath
       clipPathUnits="userSpaceOnUse"
       id="clipPath2509"><path
         d="M 0,1205.777 H 2738.234 V 0 H 0 Z"
         transform="translate(0,2.5000001e-5)"
         id="path2509" /></clipPath><clipPath
       clipPathUnits="userSpaceOnUse"
       id="clipPath2511"><path
         d="M 0,1205.777 H 2738.234 V 0 H 0 Z"
         transform="translate(0,2.5000001e-5)"
         id="path2511" /></clipPath><clipPath
       clipPathUnits="userSpaceOnUse"
       id="clipPath2513"><path
         d="M 0,1205.777 H 2738.234 V 0 H 0 Z"
         transform="translate(0,2.5000001e-5)"
         id="path2513" /></clipPath><clipPath
       clipPathUnits="userSpaceOnUse"
       id="clipPath2515"><path
         d="M 0,1205.777 H 2738.234 V 0 H 0 Z"
         transform="translate(-1130.1741,-427.58684)"
         id="path2515" /></clipPath><clipPath
       clipPathUnits="userSpaceOnUse"
       id="clipPath2517"><path
         d="M 0,1205.777 H 2738.234 V 0 H 0 Z"
         transform="translate(-1133.0022,-428.29409)"
         id="path2517" /></clipPath><clipPath
       clipPathUnits="userSpaceOnUse"
       id="clipPath2505-0"><path
         d="M 0,1205.777 H 2738.234 V 0 H 0 Z"
         transform="translate(0,2.5000001e-5)"
         id="path2505-4" /></clipPath><clipPath
       clipPathUnits="userSpaceOnUse"
       id="clipPath4433"><path
         d="M 0,1205.777 H 2738.234 V 0 H 0 Z"
         transform="translate(0,2.5000001e-5)"
         id="path4433" /></clipPath><clipPath
       clipPathUnits="userSpaceOnUse"
       id="clipPath4435"><path
         d="M 0,1205.777 H 2738.234 V 0 H 0 Z"
         transform="translate(0,2.5000001e-5)"
         id="path4435" /></clipPath><clipPath
       clipPathUnits="userSpaceOnUse"
       id="clipPath4431"><path
         d="M 0,1205.777 H 2738.234 V 0 H 0 Z"
         transform="translate(0,2.5000001e-5)"
         id="path4431" /></clipPath><clipPath
       clipPathUnits="userSpaceOnUse"
       id="clipPath4451"><path
         d="M 0,1205.777 H 2738.234 V 0 H 0 Z"
         transform="translate(0,2.5000001e-5)"
         id="path4451" /></clipPath><clipPath
       clipPathUnits="userSpaceOnUse"
       id="clipPath4453"><path
         d="M 0,1205.777 H 2738.234 V 0 H 0 Z"
         transform="translate(0,2.5000001e-5)"
         id="path4453" /></clipPath><clipPath
       clipPathUnits="userSpaceOnUse"
       id="clipPath4455"><path
         d="M 0,1205.777 H 2738.234 V 0 H 0 Z"
         transform="translate(0,2.5000001e-5)"
         id="path4455" /></clipPath><clipPath
       clipPathUnits="userSpaceOnUse"
       id="clipPath4449"><path
         d="M 0,1205.777 H 2738.234 V 0 H 0 Z"
         transform="translate(0,2.5000001e-5)"
         id="path4449" /></clipPath><clipPath
       clipPathUnits="userSpaceOnUse"
       id="clipPath4447"><path
         d="M 0,1205.777 H 2738.234 V 0 H 0 Z"
         transform="translate(-1307.7345,-464.06881)"
         id="path4447" /></clipPath><clipPath
       clipPathUnits="userSpaceOnUse"
       id="clipPath4445"><path
         d="M 0,1205.777 H 2738.234 V 0 H 0 Z"
         transform="translate(-1307.7345,-468.35451)"
         id="path4445" /></clipPath><clipPath
       clipPathUnits="userSpaceOnUse"
       id="clipPath4457"><path
         d="M 0,1205.777 H 2738.234 V 0 H 0 Z"
         transform="translate(-1304.1229,-451.35411)"
         id="path4457" /></clipPath><clipPath
       clipPathUnits="userSpaceOnUse"
       id="clipPath4459"><path
         d="M 0,1205.777 H 2738.234 V 0 H 0 Z"
         transform="translate(0,2.5000001e-5)"
         id="path4459" /></clipPath><clipPath
       clipPathUnits="userSpaceOnUse"
       id="clipPath4461"><path
         d="M 0,1205.777 H 2738.234 V 0 H 0 Z"
         transform="translate(0,2.5000001e-5)"
         id="path4461" /></clipPath><clipPath
       clipPathUnits="userSpaceOnUse"
       id="clipPath4463"><path
         d="M 0,1205.777 H 2738.234 V 0 H 0 Z"
         transform="translate(-1311.5344,-435.35451)"
         id="path4463" /></clipPath><clipPath
       clipPathUnits="userSpaceOnUse"
       id="clipPath4465"><path
         d="M 0,1205.777 H 2738.234 V 0 H 0 Z"
         transform="translate(0,2.5000001e-5)"
         id="path4465" /></clipPath><clipPath
       clipPathUnits="userSpaceOnUse"
       id="clipPath4467"><path
         d="M 0,1205.777 H 2738.234 V 0 H 0 Z"
         transform="translate(0,2.5000001e-5)"
         id="path4467" /></clipPath><clipPath
       clipPathUnits="userSpaceOnUse"
       id="clipPath4441"><path
         d="M 0,1205.777 H 2738.234 V 0 H 0 Z"
         transform="translate(-1303.7346,-480.35451)"
         id="path4441" /></clipPath><clipPath
       clipPathUnits="userSpaceOnUse"
       id="clipPath4443"><path
         d="M 0,1205.777 H 2738.234 V 0 H 0 Z"
         transform="translate(0,2.5000001e-5)"
         id="path4443" /></clipPath><clipPath
       clipPathUnits="userSpaceOnUse"
       id="clipPath4437"><path
         d="M 0,1205.777 H 2738.234 V 0 H 0 Z"
         transform="translate(-1311.7345,-496.35451)"
         id="path4437" /></clipPath><clipPath
       clipPathUnits="userSpaceOnUse"
       id="clipPath4439"><path
         d="M 0,1205.777 H 2738.234 V 0 H 0 Z"
         transform="translate(0,2.5000001e-5)"
         id="path4439" /></clipPath><clipPath
       clipPathUnits="userSpaceOnUse"
       id="clipPath4515"><path
         d="M 0,1205.777 H 2738.234 V 0 H 0 Z"
         transform="translate(-1252.8976,-329.56131)"
         id="path4515" /></clipPath><clipPath
       clipPathUnits="userSpaceOnUse"
       id="clipPath2337"><path
         d="M 0,1205.777 H 2738.234 V 0 H 0 Z"
         transform="translate(-1963.2345,-837.35452)"
         id="path2337" /></clipPath></defs><g
     id="g1"
     transform="translate(-0.43216786,0.07904603)"><path
       id="path2336"
       d="m 0,0 c 4.415,0 8,-3.585 8,-8 0,-4.415 -3.585,-8 -8,-8 -4.415,0 -8,3.585 -8,8 0,4.415 3.585,8 8,8 m 5.946,-12.337 c -0.045,0.039 -0.1,0.084 -0.167,0.139 -0.11,0.089 -0.243,0.205 -0.275,0.287 -0.06,0.153 -0.046,0.288 -0.077,0.436 -0.008,0.035 -0.072,0.091 -0.121,0.133 -0.013,0.011 -0.088,0.019 -0.099,0.006 -0.042,-0.052 -0.064,-0.116 -0.104,-0.17 -0.154,-0.209 -0.219,-0.499 -0.495,-0.602 -0.297,-0.109 -0.265,-0.521 -0.91,-0.331 -0.08,0.024 -0.125,-0.114 -0.17,-0.187 -0.116,-0.188 -0.212,-0.388 -0.339,-0.569 -0.045,-0.064 -0.161,-0.153 -0.237,-0.12 -0.65,0.276 -0.572,-0.094 -0.496,-0.285 0.103,-0.262 0.041,-0.449 -0.129,-0.492 -0.197,-0.049 -0.318,-0.122 -0.422,-0.238 -0.109,-0.123 -0.3,-0.194 -0.462,-0.283 -0.039,-0.022 -0.1,-0.027 -0.151,-0.04 -0.031,0.049 -0.086,0.107 -0.088,0.145 -0.003,0.048 0.028,0.085 0.062,0.116 0.209,0.19 0.456,0.356 0.626,0.571 0.193,0.244 0.312,0.534 0.479,0.794 0.03,0.048 0.117,0.085 0.207,0.072 0.346,-0.052 0.541,-0.031 0.213,0.319 -0.04,0.042 -0.017,0.117 0.02,0.145 0.694,0.528 0.856,1.371 1.346,2.019 0.058,0.077 -0.277,0.278 0.004,0.29 0.314,0.012 0.359,-0.178 0.522,-0.308 0.072,-0.057 0.213,-0.076 0.323,-0.112 -0.031,0.093 -0.044,0.243 -0.097,0.27 -0.415,0.21 -0.561,0.37 -0.37,0.548 0.158,0.148 0.293,0.3 0.501,0.421 0.281,0.162 0.493,0.441 0.321,0.878 0.576,0.09 0.496,0.599 0.748,0.896 0.059,0.068 -0.03,0.236 -0.083,0.365 -0.012,0.03 -0.214,0.135 -0.221,0.129 C 5.581,-7.275 5.271,-7.412 5.18,-7.664 4.999,-8.167 4.401,-8.392 4.153,-8.845 4.136,-8.876 4.045,-8.864 3.989,-8.872 3.968,-8.82 3.913,-8.748 3.93,-8.717 c 0.169,0.311 0.368,0.604 0.512,0.928 0.036,0.083 -0.046,0.304 -0.16,0.38 C 3.974,-7.2 4.025,-7.439 4.021,-7.505 4.003,-7.86 3.492,-7.863 3.327,-8.115 3.009,-8.601 2.825,-9.159 2.266,-9.511 1.777,-9.819 1.549,-10.325 1.197,-10.739 c -0.038,-0.045 -0.131,-0.056 -0.198,-0.083 -0.01,0.072 -0.037,0.152 -0.028,0.215 0.101,0.638 1.004,0.815 0.907,1.569 -0.003,0.024 0.007,0.056 0.033,0.056 0.613,10e-4 0.477,0.501 0.729,0.742 0.026,0.024 0.008,0.1 -0.035,0.144 -0.1,0.106 -0.354,-0.064 -0.368,0.193 -0.007,0.143 0.052,0.3 0.198,0.338 0.483,0.125 0.545,0.511 0.762,0.802 0.062,0.082 0.235,0.099 0.268,0.192 0.087,0.246 0.125,0.517 0.183,0.778 -0.446,0.066 -0.192,-0.388 -0.47,-0.388 -0.407,0 -0.374,-0.261 -0.51,-0.421 C 2.374,-6.948 2.329,-7.441 1.781,-7.639 1.456,-7.757 1.277,-8.014 1.106,-8.253 0.987,-8.42 0.721,-8.54 1.002,-8.899 0.761,-8.971 0.517,-9.041 0.28,-9.117 0.209,-9.14 0.158,-9.182 0.097,-9.215 c -0.083,0.11 -0.256,0.269 -0.232,0.32 0.089,0.188 0.192,0.38 0.393,0.489 0.12,0.065 0.243,0.095 0.089,0.265 -0.287,0.316 -0.166,0.469 -0.075,0.645 0.021,0.04 -0.068,0.142 -0.107,0.216 -0.118,0.013 -0.311,0.073 -0.343,0.033 -0.493,-0.637 -0.954,-1.295 -1.451,-1.93 -0.168,-0.216 -0.414,-0.383 -0.633,-0.566 -0.029,-0.025 -0.11,-0.012 -0.167,-0.017 -0.019,0.052 -0.069,0.122 -0.053,0.153 0.124,0.235 0.265,0.46 0.392,0.693 0.09,0.164 -0.049,0.217 -0.274,0.216 -0.069,0.187 -0.17,0.384 -0.198,0.556 -0.029,0.181 0.185,0.182 0.421,0.141 0.046,-0.008 0.155,-0.067 0.16,-0.083 0.033,-0.098 0.044,-0.191 0.063,-0.285 0.076,0.048 0.152,0.096 0.229,0.144 0.095,0.06 0.181,0.128 0.289,0.178 0.208,0.094 0.383,0.203 0.21,0.5 -0.034,0.058 -0.078,0.118 -0.117,0.176 -0.071,-0.007 -0.172,0.005 -0.207,-0.027 -0.131,-0.118 -0.24,-0.251 -0.357,-0.379 0.045,0.183 0.041,0.396 0.146,0.542 0.288,0.402 0.305,0.975 0.953,1.149 0.073,0.02 0.12,0.097 0.098,0.17 -0.175,0.572 0.258,0.83 0.405,1.235 0.025,0.067 -0.018,0.17 -0.03,0.256 -0.061,-0.033 -0.129,-0.06 -0.181,-0.1 -0.193,-0.147 -0.415,-0.277 -0.563,-0.454 -0.171,-0.205 -0.274,-0.454 -0.407,-0.683 -0.021,-0.038 -0.038,-0.08 -0.071,-0.111 -0.014,-0.012 -0.065,-0.005 -0.103,0.006 -0.153,0.043 -0.127,0.331 -0.359,0.231 -0.111,-0.048 -0.101,-0.196 -0.179,-0.277 -0.303,-0.313 -0.755,-0.529 -0.873,-0.964 -0.014,-0.052 -0.12,-0.068 -0.207,-0.073 -0.084,-0.005 -0.235,0.002 -0.291,0.045 -0.09,0.068 -0.177,0.192 -0.175,0.254 0.004,0.139 0.065,0.253 0.101,0.379 0.035,0.124 0.091,0.241 0.093,0.38 10e-4,0.064 -0.107,0.172 -0.166,0.26 -0.07,-0.018 -0.172,-0.015 -0.202,-0.056 -0.104,-0.144 -0.177,-0.306 -0.276,-0.453 -0.021,-0.029 -0.106,-0.02 -0.162,-0.029 -0.022,0.053 -0.083,0.129 -0.062,0.153 0.269,0.318 0.263,0.803 0.733,0.999 0.039,0.016 0.015,0.087 0.02,0.132 -0.111,0.041 -0.31,0.134 -0.323,0.115 -0.435,-0.659 -1.392,-0.975 -1.661,-1.744 -0.034,-0.097 -0.048,-0.085 -0.284,0.122 -0.04,0.035 -0.19,0.079 -0.216,0.063 -0.131,-0.086 -0.209,-0.309 -0.36,-0.264 -0.463,0.14 -0.129,0.317 -0.33,0.493 -0.073,0.064 -0.149,0.127 -0.226,0.19 -0.024,-0.08 -0.048,-0.161 -0.07,-0.242 0.042,-0.054 0.079,-0.105 0.064,-0.12 C -7.091,-6.23 -7.136,-6.292 -7.176,-6.358 -7.296,-6.885 -7.36,-7.435 -7.36,-8 c 0,-1.94 0.752,-3.705 1.98,-5.021 0.129,0.109 0.392,0.14 0.464,0.281 0.13,0.256 0.279,0.503 0.433,0.745 0.031,0.049 0.128,0.059 0.194,0.087 0.013,-0.071 0.059,-0.162 0.032,-0.21 -0.244,-0.429 -0.494,-0.855 -0.741,-1.283 0.645,-0.597 1.397,-1.08 2.224,-1.417 -0.004,0.12 -0.032,0.252 -0.018,0.365 0.005,0.039 0.156,0.047 0.23,0.012 0.091,-0.042 0.252,-0.184 0.243,-0.213 -0.033,-0.101 -0.087,-0.191 -0.143,-0.283 0.769,-0.274 1.598,-0.423 2.462,-0.423 0.056,0 0.113,10e-4 0.169,0.002 0.034,0.005 0.073,0.007 0.113,0.003 0.148,0.006 0.295,0.016 0.441,0.03 0.072,0.157 0.168,0.298 0.56,0.188 0.017,-0.025 0.054,-0.068 0.074,-0.098 0.881,0.165 1.708,0.487 2.448,0.935 0.01,0.07 0.057,0.127 0.107,0.18 0.011,0.012 0.059,0 0.146,-0.02 0.139,0.093 0.275,0.189 0.407,0.291 -0.028,0.028 -0.049,0.057 -0.046,0.068 0.026,0.083 0.08,0.153 0.146,0.269 0.016,0.007 0.061,0.071 0.146,0.057 0.038,-0.006 0.1,-0.032 0.157,-0.063 0.273,0.241 0.529,0.503 0.764,0.782 -0.384,0.283 -0.063,0.201 0.14,0.171 0.059,0.075 0.117,0.151 0.174,0.228 m -11.394,0.295 c 0.033,0.057 0.053,0.122 0.103,0.167 0.03,0.025 0.108,0.018 0.163,0.025 0.022,-0.052 0.074,-0.12 0.06,-0.153 -0.052,-0.121 -0.114,-0.236 -0.196,-0.339 -0.036,-0.045 -0.128,-0.056 -0.195,-0.082 -0.011,0.071 -0.039,0.15 -0.028,0.211 0.012,0.066 0.061,0.115 0.093,0.171 m 9.832,1.079 c -0.058,-0.186 -0.117,-0.372 -0.169,-0.538 -0.237,-0.105 -0.033,-0.482 -0.484,-0.411 0.07,0.18 0.095,0.389 0.222,0.532 0.13,0.147 -0.016,0.485 0.431,0.417 m -3.783,-0.548 c 0.022,-0.051 0.084,-0.132 0.059,-0.149 -0.104,-0.073 -0.226,-0.134 -0.357,-0.186 -0.043,-0.017 -0.132,0.006 -0.2,0.01 -0.022,0.052 -0.083,0.132 -0.059,0.149 0.103,0.074 0.226,0.134 0.357,0.186 0.043,0.017 0.132,-0.005 0.2,-0.01 m 5.477,0.797 c -0.017,-0.108 -0.035,-0.216 -0.04,-0.251 -0.079,-0.137 -0.114,-0.218 -0.173,-0.283 -0.014,-0.015 -0.113,0.02 -0.173,0.044 -0.018,0.007 -0.058,0.066 -0.051,0.081 0.035,0.079 0.056,0.172 0.133,0.222 0.099,0.064 -0.048,0.32 0.304,0.187 m -8.715,0.312 c -0.09,-0.155 -0.096,-0.206 -0.137,-0.229 -0.18,-0.102 -0.033,-0.587 -0.525,-0.28 -0.418,0.26 0.084,0.372 0.09,0.591 10e-4,0.024 0.01,0.048 0.033,0.056 0.213,0.078 0.43,0.152 0.646,0.226 -0.049,-0.165 -0.098,-0.331 -0.107,-0.364 m 9.501,-0.258 c -0.036,-0.043 -0.066,-0.083 -0.092,-0.126 -0.007,-0.013 0.002,-0.034 0.017,-0.059 l 0.027,0.064 c 0.011,0.028 0.022,0.056 0.033,0.083 z M 7.29,-9.02 C 7.228,-9.039 7.172,-9.065 7.138,-9.091 7.013,-9.187 6.974,-9.346 6.844,-9.571 6.84,-9.589 6.812,-9.716 6.783,-9.843 c 0.398,-0.174 0.145,0.203 0.387,0.175 0.049,0.213 0.089,0.429 0.12,0.648 m -11.362,1.506 c -0.043,-0.075 -0.078,-0.156 -0.137,-0.221 -0.014,-0.015 -0.112,0.02 -0.172,0.044 -0.018,0.007 -0.056,0.062 -0.053,0.081 0.041,0.232 0.423,0.31 0.095,0.708 0.071,-0.016 0.158,-0.015 0.21,-0.05 0.095,-0.064 0.247,-0.186 0.239,-0.217 -0.033,-0.128 -0.116,-0.232 -0.182,-0.345 M 7.106,-6.258 C 7.036,-6.438 7.01,-6.647 6.882,-6.79 6.751,-6.935 6.902,-7.277 6.451,-7.204 c 0.059,0.186 0.118,0.371 0.171,0.538 0.239,0.103 0.028,0.484 0.484,0.408 M 0.854,-6.322 C 0.807,-6.489 0.76,-6.656 0.722,-6.791 0.512,-6.903 0.668,-7.225 0.273,-7.166 c 0.057,0.162 0.071,0.351 0.183,0.477 0.116,0.132 0,0.428 0.398,0.367 m -7.675,1.091 c -0.051,-0.127 -0.099,-0.256 -0.144,-0.386 0.053,-0.031 0.106,-0.062 0.16,-0.092 0.337,-0.188 0.281,-0.088 0.185,0.096 -0.07,0.133 0.061,0.233 -0.201,0.382 m 1.999,0.73 C -4.914,-4.7 -5.034,-4.883 -5.143,-5.072 -5.22,-5.204 -5.286,-5.343 -5.376,-5.467 -5.45,-5.569 -5.551,-5.653 -5.641,-5.746 c -0.266,0.262 -0.007,0.301 0.053,0.412 0.086,0.159 -0.076,0.434 0.236,0.503 0.221,0.048 0.213,0.32 0.323,0.484 0.033,0.049 0.117,0.067 0.177,0.099 0.013,-0.086 0.059,-0.19 0.03,-0.253 m -1.196,0.737 C -6,-3.797 -5.986,-3.828 -5.994,-3.847 -6.046,-3.968 -6.108,-4.083 -6.19,-4.186 -6.217,-4.22 -6.277,-4.235 -6.333,-4.251 c 0.098,0.167 0.204,0.329 0.315,0.487 m 3.07,1.409 c 0.042,0.005 0.117,-0.027 0.177,-0.042 0.008,-0.048 0.046,-0.118 0.017,-0.139 -0.155,-0.117 -0.358,-0.201 -0.485,-0.336 -0.136,-0.145 -0.201,-0.336 -0.309,-0.499 -0.01,-0.015 -0.113,0.021 -0.173,0.044 -0.018,0.007 -0.059,0.066 -0.052,0.081 0.059,0.116 0.127,0.228 0.232,0.41 0.091,0.17 0.189,0.433 0.593,0.481 m -1.376,0.31 c -0.119,-0.087 -0.235,-0.177 -0.349,-0.27 0.061,-0.024 0.148,-0.054 0.159,-0.041 0.061,0.076 0.105,0.162 0.19,0.311 m 1.74,0.232 c -0.082,0.195 0.217,0.399 0.513,0.362 0.036,-0.004 0.069,-0.005 0.103,-0.007 0.022,-0.052 0.084,-0.134 0.059,-0.15 -0.163,-0.107 -0.343,-0.201 -0.526,-0.292 -0.01,-0.005 -0.139,0.065 -0.149,0.087 m 1.449,1.086 c -0.209,-0.033 -0.416,-0.074 -0.619,-0.124 -0.065,-0.147 -0.114,-0.303 -0.174,-0.453 0.44,-0.061 0.218,0.338 0.452,0.403 0.143,0.04 0.252,0.101 0.341,0.174"
       style="fill:#000000 icc-color(Display, 0, 0, 0);fill-opacity:1;fill-rule:evenodd;stroke:none"
       transform="matrix(1.0666666,0,0,-1.0666666,10.432168,1.3876212)"
       clip-path="url(#clipPath2337)" /></g></svg>
