<?xml version="1.0" encoding="UTF-8" standalone="no"?>
<svg
   id="b"
   width="20"
   height="20"
   viewBox="0 0 20 20"
   version="1.1"
   sodipodi:docname="fill-spiral.svg"
   inkscape:version="1.3.1 (91b66b0, 2023-11-16)"
   xml:space="preserve"
   xmlns:inkscape="http://www.inkscape.org/namespaces/inkscape"
   xmlns:sodipodi="http://sodipodi.sourceforge.net/DTD/sodipodi-0.dtd"
   xmlns="http://www.w3.org/2000/svg"
   xmlns:svg="http://www.w3.org/2000/svg"><sodipodi:namedview
     id="namedview3"
     pagecolor="#ffffff"
     bordercolor="#000000"
     borderopacity="0.25"
     inkscape:showpageshadow="2"
     inkscape:pageopacity="0.0"
     inkscape:pagecheckerboard="0"
     inkscape:deskcolor="#d1d1d1"
     inkscape:zoom="17.931023"
     inkscape:cx="8.7557748"
     inkscape:cy="11.488469"
     inkscape:window-width="1312"
     inkscape:window-height="605"
     inkscape:window-x="65"
     inkscape:window-y="25"
     inkscape:window-maximized="0"
     inkscape:current-layer="g1" /><defs
     id="defs1"><style
       id="style1">.e{stroke:#000;stroke-linecap:round;stroke-linejoin:round;}.e,.f{fill:none;}.f{opacity:.2;stroke-width:0px;}</style><clipPath
       clipPathUnits="userSpaceOnUse"
       id="clipPath3761"><path
         d="M 0,1205.777 H 2738.234 V 0 H 0 Z"
         transform="translate(-1062.36,-340.07301)"
         id="path3761" /></clipPath><clipPath
       clipPathUnits="userSpaceOnUse"
       id="clipPath3763"><path
         d="M 0,1205.777 H 2738.234 V 0 H 0 Z"
         transform="translate(-1062.2632,-337.60821)"
         id="path3763" /></clipPath><clipPath
       clipPathUnits="userSpaceOnUse"
       id="clipPath3765"><path
         d="M 0,1205.777 H 2738.234 V 0 H 0 Z"
         transform="translate(-1062.2632,-335.39121)"
         id="path3765" /></clipPath><clipPath
       clipPathUnits="userSpaceOnUse"
       id="clipPath3767"><path
         d="M 0,1205.777 H 2738.234 V 0 H 0 Z"
         transform="translate(-1062.4291,-333.34101)"
         id="path3767" /></clipPath><clipPath
       clipPathUnits="userSpaceOnUse"
       id="clipPath3769"><path
         d="M 0,1205.777 H 2738.234 V 0 H 0 Z"
         transform="translate(-1062.9171,-331.61488)"
         id="path3769" /></clipPath><clipPath
       clipPathUnits="userSpaceOnUse"
       id="clipPath3771"><path
         d="M 0,1205.777 H 2738.234 V 0 H 0 Z"
         transform="translate(-1063.7688,-330.25498)"
         id="path3771" /></clipPath><clipPath
       clipPathUnits="userSpaceOnUse"
       id="clipPath3773"><path
         d="M 0,1205.777 H 2738.234 V 0 H 0 Z"
         transform="translate(-1064.9308,-329.20708)"
         id="path3773" /></clipPath><clipPath
       clipPathUnits="userSpaceOnUse"
       id="clipPath3775"><path
         d="M 0,1205.777 H 2738.234 V 0 H 0 Z"
         transform="translate(-1066.5945,-328.66393)"
         id="path3775" /></clipPath><clipPath
       clipPathUnits="userSpaceOnUse"
       id="clipPath3777"><path
         d="M 0,1205.777 H 2738.234 V 0 H 0 Z"
         transform="translate(-1069.0444,-328.91211)"
         id="path3777" /></clipPath><clipPath
       clipPathUnits="userSpaceOnUse"
       id="clipPath3918"><path
         d="M 0,1205.777 H 2738.234 V 0 H 0 Z"
         transform="translate(-964.05505,-422.70974)"
         id="path3918" /></clipPath><clipPath
       clipPathUnits="userSpaceOnUse"
       id="clipPath3920"><path
         d="M 0,1205.777 H 2738.234 V 0 H 0 Z"
         transform="translate(-975.25705,-427.27334)"
         id="path3920" /></clipPath><clipPath
       clipPathUnits="userSpaceOnUse"
       id="clipPath3922"><path
         d="M 0,1205.777 H 2738.234 V 0 H 0 Z"
         transform="translate(-965.65892,-422.15909)"
         id="path3922" /></clipPath><clipPath
       clipPathUnits="userSpaceOnUse"
       id="clipPath3924"><path
         d="M 0,1205.777 H 2738.234 V 0 H 0 Z"
         transform="translate(-967.69502,-426.07514)"
         id="path3924" /></clipPath><clipPath
       clipPathUnits="userSpaceOnUse"
       id="clipPath3926"><path
         d="M 0,1205.777 H 2738.234 V 0 H 0 Z"
         transform="translate(-966.9304,-423.85139)"
         id="path3926" /></clipPath><clipPath
       clipPathUnits="userSpaceOnUse"
       id="clipPath3928"><path
         d="M 0,1205.777 H 2738.234 V 0 H 0 Z"
         transform="translate(-975.6979,-429.85529)"
         id="path3928" /></clipPath><clipPath
       clipPathUnits="userSpaceOnUse"
       id="clipPath3930"><path
         d="M 0,1205.777 H 2738.234 V 0 H 0 Z"
         transform="translate(-973.447,-432.10731)"
         id="path3930" /></clipPath><clipPath
       clipPathUnits="userSpaceOnUse"
       id="clipPath2494"><path
         d="M 0,1205.777 H 2738.234 V 0 H 0 Z"
         transform="translate(-1006.1637,-427.52789)"
         id="path2494" /></clipPath><clipPath
       clipPathUnits="userSpaceOnUse"
       id="clipPath2505"><path
         d="M 0,1205.777 H 2738.234 V 0 H 0 Z"
         transform="translate(0,2.5000001e-5)"
         id="path2505" /></clipPath><clipPath
       clipPathUnits="userSpaceOnUse"
       id="clipPath2507"><path
         d="M 0,1205.777 H 2738.234 V 0 H 0 Z"
         transform="translate(0,2.5000001e-5)"
         id="path2507" /></clipPath><clipPath
       clipPathUnits="userSpaceOnUse"
       id="clipPath2509"><path
         d="M 0,1205.777 H 2738.234 V 0 H 0 Z"
         transform="translate(0,2.5000001e-5)"
         id="path2509" /></clipPath><clipPath
       clipPathUnits="userSpaceOnUse"
       id="clipPath2511"><path
         d="M 0,1205.777 H 2738.234 V 0 H 0 Z"
         transform="translate(0,2.5000001e-5)"
         id="path2511" /></clipPath><clipPath
       clipPathUnits="userSpaceOnUse"
       id="clipPath2513"><path
         d="M 0,1205.777 H 2738.234 V 0 H 0 Z"
         transform="translate(0,2.5000001e-5)"
         id="path2513" /></clipPath><clipPath
       clipPathUnits="userSpaceOnUse"
       id="clipPath2515"><path
         d="M 0,1205.777 H 2738.234 V 0 H 0 Z"
         transform="translate(-1130.1741,-427.58684)"
         id="path2515" /></clipPath><clipPath
       clipPathUnits="userSpaceOnUse"
       id="clipPath2517"><path
         d="M 0,1205.777 H 2738.234 V 0 H 0 Z"
         transform="translate(-1133.0022,-428.29409)"
         id="path2517" /></clipPath><clipPath
       clipPathUnits="userSpaceOnUse"
       id="clipPath2505-0"><path
         d="M 0,1205.777 H 2738.234 V 0 H 0 Z"
         transform="translate(0,2.5000001e-5)"
         id="path2505-4" /></clipPath><clipPath
       clipPathUnits="userSpaceOnUse"
       id="clipPath4433"><path
         d="M 0,1205.777 H 2738.234 V 0 H 0 Z"
         transform="translate(0,2.5000001e-5)"
         id="path4433" /></clipPath><clipPath
       clipPathUnits="userSpaceOnUse"
       id="clipPath4435"><path
         d="M 0,1205.777 H 2738.234 V 0 H 0 Z"
         transform="translate(0,2.5000001e-5)"
         id="path4435" /></clipPath><clipPath
       clipPathUnits="userSpaceOnUse"
       id="clipPath4431"><path
         d="M 0,1205.777 H 2738.234 V 0 H 0 Z"
         transform="translate(0,2.5000001e-5)"
         id="path4431" /></clipPath><clipPath
       clipPathUnits="userSpaceOnUse"
       id="clipPath4451"><path
         d="M 0,1205.777 H 2738.234 V 0 H 0 Z"
         transform="translate(0,2.5000001e-5)"
         id="path4451" /></clipPath><clipPath
       clipPathUnits="userSpaceOnUse"
       id="clipPath4453"><path
         d="M 0,1205.777 H 2738.234 V 0 H 0 Z"
         transform="translate(0,2.5000001e-5)"
         id="path4453" /></clipPath><clipPath
       clipPathUnits="userSpaceOnUse"
       id="clipPath4455"><path
         d="M 0,1205.777 H 2738.234 V 0 H 0 Z"
         transform="translate(0,2.5000001e-5)"
         id="path4455" /></clipPath><clipPath
       clipPathUnits="userSpaceOnUse"
       id="clipPath4449"><path
         d="M 0,1205.777 H 2738.234 V 0 H 0 Z"
         transform="translate(0,2.5000001e-5)"
         id="path4449" /></clipPath><clipPath
       clipPathUnits="userSpaceOnUse"
       id="clipPath4447"><path
         d="M 0,1205.777 H 2738.234 V 0 H 0 Z"
         transform="translate(-1307.7345,-464.06881)"
         id="path4447" /></clipPath><clipPath
       clipPathUnits="userSpaceOnUse"
       id="clipPath4445"><path
         d="M 0,1205.777 H 2738.234 V 0 H 0 Z"
         transform="translate(-1307.7345,-468.35451)"
         id="path4445" /></clipPath><clipPath
       clipPathUnits="userSpaceOnUse"
       id="clipPath4457"><path
         d="M 0,1205.777 H 2738.234 V 0 H 0 Z"
         transform="translate(-1304.1229,-451.35411)"
         id="path4457" /></clipPath><clipPath
       clipPathUnits="userSpaceOnUse"
       id="clipPath4459"><path
         d="M 0,1205.777 H 2738.234 V 0 H 0 Z"
         transform="translate(0,2.5000001e-5)"
         id="path4459" /></clipPath><clipPath
       clipPathUnits="userSpaceOnUse"
       id="clipPath4461"><path
         d="M 0,1205.777 H 2738.234 V 0 H 0 Z"
         transform="translate(0,2.5000001e-5)"
         id="path4461" /></clipPath><clipPath
       clipPathUnits="userSpaceOnUse"
       id="clipPath4463"><path
         d="M 0,1205.777 H 2738.234 V 0 H 0 Z"
         transform="translate(-1311.5344,-435.35451)"
         id="path4463" /></clipPath><clipPath
       clipPathUnits="userSpaceOnUse"
       id="clipPath4465"><path
         d="M 0,1205.777 H 2738.234 V 0 H 0 Z"
         transform="translate(0,2.5000001e-5)"
         id="path4465" /></clipPath><clipPath
       clipPathUnits="userSpaceOnUse"
       id="clipPath4467"><path
         d="M 0,1205.777 H 2738.234 V 0 H 0 Z"
         transform="translate(0,2.5000001e-5)"
         id="path4467" /></clipPath><clipPath
       clipPathUnits="userSpaceOnUse"
       id="clipPath4441"><path
         d="M 0,1205.777 H 2738.234 V 0 H 0 Z"
         transform="translate(-1303.7346,-480.35451)"
         id="path4441" /></clipPath><clipPath
       clipPathUnits="userSpaceOnUse"
       id="clipPath4443"><path
         d="M 0,1205.777 H 2738.234 V 0 H 0 Z"
         transform="translate(0,2.5000001e-5)"
         id="path4443" /></clipPath><clipPath
       clipPathUnits="userSpaceOnUse"
       id="clipPath4437"><path
         d="M 0,1205.777 H 2738.234 V 0 H 0 Z"
         transform="translate(-1311.7345,-496.35451)"
         id="path4437" /></clipPath><clipPath
       clipPathUnits="userSpaceOnUse"
       id="clipPath4439"><path
         d="M 0,1205.777 H 2738.234 V 0 H 0 Z"
         transform="translate(0,2.5000001e-5)"
         id="path4439" /></clipPath><clipPath
       clipPathUnits="userSpaceOnUse"
       id="clipPath4515"><path
         d="M 0,1205.777 H 2738.234 V 0 H 0 Z"
         transform="translate(-1252.8976,-329.56131)"
         id="path4515" /></clipPath><clipPath
       clipPathUnits="userSpaceOnUse"
       id="clipPath2369"><path
         d="M 0,1205.777 H 2738.234 V 0 H 0 Z"
         transform="translate(-2091.2344,-869.35452)"
         id="path2369" /></clipPath></defs><g
     id="g1"
     transform="translate(-0.43216786,0.07904603)"><path
       id="path2368"
       d="m 0,0 c 4.415,0 8,-3.585 8,-8 0,-4.415 -3.585,-8 -8,-8 -4.415,0 -8,3.585 -8,8 0,4.415 3.585,8 8,8 m 3.04,-1.296 c 1.107,-0.513 2.089,-1.32 2.799,-2.331 0.275,-0.393 0.516,-0.812 0.7,-1.263 0.106,-0.22 0.159,-0.455 0.233,-0.685 L 6.877,-5.921 C 6.912,-6.036 6.92,-6.158 6.943,-6.276 6.974,-6.514 7.034,-6.75 7.04,-6.991 l 0.019,-0.72 C 7.043,-7.951 7.013,-8.19 6.989,-8.429 6.972,-8.67 6.889,-8.898 6.841,-9.132 6.595,-10.055 6.155,-10.924 5.544,-11.649 4.936,-12.372 4.171,-12.952 3.332,-13.345 2.49,-13.729 1.562,-13.921 0.664,-13.911 l -0.332,0.006 -0.318,0.035 c -0.203,0.026 -0.443,0.068 -0.656,0.114 -0.213,0.06 -0.424,0.12 -0.634,0.179 -0.207,0.075 -0.411,0.149 -0.605,0.246 -1.565,0.734 -2.664,2.117 -3.095,3.562 -0.211,0.724 -0.268,1.459 -0.209,2.149 0.053,0.341 0.09,0.678 0.2,0.989 0.051,0.156 0.08,0.317 0.15,0.461 0.065,0.146 0.13,0.289 0.193,0.431 0.057,0.144 0.144,0.272 0.225,0.401 0.082,0.127 0.163,0.253 0.242,0.377 0.184,0.222 0.356,0.439 0.544,0.632 0.207,0.178 0.398,0.363 0.599,0.508 0.207,0.135 0.399,0.271 0.594,0.384 0.815,0.431 1.516,0.552 2.011,0.603 0.244,0.031 0.431,0.01 0.557,0.016 0.126,0 0.191,-10e-4 0.191,-10e-4 C 2.534,-2.92 4.577,-4.71 4.777,-6.971 4.822,-7.246 4.795,-7.524 4.792,-7.8 4.75,-8.076 4.727,-8.358 4.633,-8.623 4.477,-9.16 4.229,-9.663 3.866,-10.106 c -0.721,-0.873 -1.769,-1.461 -2.989,-1.491 -0.118,0 -0.238,0.002 -0.357,0.007 l 0.046,-0.004 -0.26,0.016 -0.26,0.047 0.048,-0.007 c -0.115,0.024 -0.229,0.05 -0.343,0.079 -1.082,0.3 -1.912,1.039 -2.331,2.042 -0.404,0.981 -0.302,2.194 0.386,3.075 0.331,0.433 0.797,0.779 1.336,0.962 0.141,0.052 0.277,0.082 0.412,0.104 0.132,0.033 0.282,0.035 0.431,0.036 0.156,0.007 0.279,-0.016 0.416,-0.029 0.13,-0.009 0.292,-0.066 0.435,-0.104 0.567,-0.195 1.035,-0.606 1.32,-1.139 0.24,-0.5 0.301,-1.068 0.09,-1.604 C 2.221,-8.194 2.188,-8.271 2.14,-8.34 1.994,-8.606 1.77,-8.819 1.524,-8.932 1.398,-8.986 1.282,-9.033 1.155,-9.041 1.094,-9.048 1.036,-9.052 0.981,-9.053 0.915,-9.051 0.844,-9.042 0.784,-9.03 0.641,-9.009 0.617,-8.964 0.565,-8.926 l -0.016,0.014 c -0.06,0.011 -0.017,0.003 -0.03,0.006 L 0.461,-8.85 c -0.022,0.025 -0.041,0.05 -0.056,0.075 -0.031,0.05 -0.047,0.1 -0.048,0.145 -0.002,0.046 0.019,0.082 0.024,0.125 0.005,0.045 0.045,0.076 0.078,0.105 0.034,0.03 0.07,0.057 0.108,0.083 l 0.106,0.068 c -0.013,0.002 0.03,-0.006 -0.03,0.005 h 0.001 l 0.018,0.009 c 0.05,0.027 0.143,0.044 0.13,0.087 0.005,0.018 0.003,0.029 0.007,0.041 l 0.037,0.052 c 0.026,0.022 0.047,0.068 0.071,0.097 0.047,0.064 0.085,0.137 0.131,0.216 0.056,0.074 0.074,0.198 0.08,0.32 -0.005,0.134 -0.033,0.227 -0.085,0.348 -0.125,0.228 -0.349,0.437 -0.61,0.522 -0.563,0.184 -1.228,-0.03 -1.621,-0.55 -0.188,-0.239 -0.315,-0.564 -0.351,-0.882 -0.039,-0.315 0.014,-0.664 0.136,-0.97 0.121,-0.303 0.327,-0.584 0.583,-0.813 0.254,-0.229 0.578,-0.388 0.865,-0.478 l 0.187,-0.051 0.049,-0.007 c 0.186,-0.036 0.187,-0.035 0.378,-0.046 l 0.045,-0.005 0.203,0.004 c 0.336,0.016 0.745,0.11 1.084,0.291 0.346,0.18 0.659,0.436 0.907,0.737 0.247,0.297 0.43,0.669 0.538,1.046 0.071,0.187 0.079,0.386 0.114,0.58 -0.004,0.199 0.023,0.4 -0.013,0.598 -0.026,0.403 -0.17,0.786 -0.336,1.141 -0.111,0.17 -0.192,0.372 -0.331,0.513 L 2.673,-5.212 C 2.603,-5.139 2.523,-5.071 2.45,-5 c -0.294,0.29 -0.646,0.477 -1.022,0.66 -0.19,0.073 -0.385,0.125 -0.579,0.185 -0.204,0.026 -0.405,0.085 -0.612,0.091 0,0 -0.049,0 -0.144,0.001 -0.095,-0.005 -0.239,0.018 -0.42,-0.005 l -0.478,-0.055 c -0.06,-0.018 -0.123,-0.036 -0.188,-0.055 -0.128,-0.041 -0.274,-0.068 -0.416,-0.125 -0.14,-0.061 -0.289,-0.126 -0.446,-0.194 -0.151,-0.085 -0.303,-0.193 -0.468,-0.293 -0.159,-0.11 -0.3,-0.249 -0.463,-0.378 -0.148,-0.148 -0.29,-0.324 -0.441,-0.495 -0.061,-0.094 -0.124,-0.19 -0.187,-0.288 C -3.479,-6.048 -3.55,-6.142 -3.595,-6.258 -3.647,-6.368 -3.7,-6.481 -3.753,-6.595 -3.813,-6.707 -3.833,-6.836 -3.877,-6.958 -3.971,-7.202 -4,-7.47 -4.05,-7.741 c -0.054,-0.545 -0.02,-1.128 0.139,-1.72 0.328,-1.166 1.201,-2.314 2.484,-2.942 0.156,-0.083 0.322,-0.145 0.489,-0.21 0.172,-0.051 0.345,-0.103 0.519,-0.155 0.18,-0.042 0.339,-0.075 0.54,-0.105 l 0.292,-0.037 0.284,-0.009 c 0.752,-0.017 1.516,0.127 2.239,0.441 0.716,0.323 1.377,0.806 1.91,1.418 0.531,0.61 0.925,1.355 1.152,2.154 0.043,0.202 0.123,0.399 0.138,0.608 0.023,0.207 0.053,0.414 0.072,0.622 L 6.202,-7.045 C 6.201,-6.834 6.148,-6.627 6.125,-6.417 6.107,-6.313 6.104,-6.206 6.074,-6.104 L 5.985,-5.798 C 5.923,-5.596 5.881,-5.385 5.792,-5.193 5.639,-4.8 5.43,-4.422 5.189,-4.066 c -0.955,1.412 -2.536,2.419 -4.231,2.659 -0.211,0.039 -0.423,0.055 -0.634,0.076 -0.212,10e-4 -0.423,0.016 -0.637,0 -0.427,-0.007 -0.845,-0.078 -1.254,-0.159 -0.816,-0.208 -1.593,-0.533 -2.267,-1 -0.679,-0.466 -1.254,-1.034 -1.72,-1.677 -0.459,-0.641 -0.793,-1.348 -1.01,-2.068 -0.44,-1.449 -0.355,-2.932 0.037,-4.192 0.402,-1.265 1.108,-2.295 1.878,-3.052 0.543,-0.536 1.109,-0.941 1.647,-1.242 0.917,-0.411 1.933,-0.639 3.002,-0.639 4.062,0 7.36,3.298 7.36,7.36 0,2.978 -1.773,5.546 -4.32,6.704 M 1.436,-0.78 C 0.971,-0.688 0.491,-0.64 0,-0.64 c -4.062,0 -7.36,-3.298 -7.36,-7.36 0,-0.04 0,-0.08 0.001,-0.12 0.003,0.666 0.088,1.353 0.283,2.03 0.219,0.777 0.567,1.547 1.055,2.25 0.486,0.696 1.11,1.335 1.836,1.848 0.725,0.52 1.574,0.894 2.461,1.133 0.454,0.099 0.914,0.182 1.38,0.198 0.231,0.021 0.468,0.01 0.703,0.011 0.235,-0.018 0.473,-0.034 0.705,-0.072 0.124,-0.016 0.248,-0.035 0.372,-0.058"
       style="fill:#000000 icc-color(Display, 0, 0, 0);fill-opacity:1;fill-rule:evenodd;stroke:none"
       transform="matrix(1.0666666,0,0,-1.0666666,10.432168,1.3876212)"
       clip-path="url(#clipPath2369)" /></g></svg>
