<?xml version="1.0" encoding="UTF-8"?><svg id="b" xmlns="http://www.w3.org/2000/svg" width="20" height="16" viewBox="0 0 20 16"><defs><style>.e{fill:none;}.e,.f{stroke-width:0px;}</style></defs><g id="c"><g id="d"><path class="f" d="m13.73,7.57v-2.83c0-.26-.21-.47-.47-.47h-2.8V1.47c0-.26-.21-.47-.47-.47H3.47c-.26,0-.47.21-.47.47v6.53c0,.26.21.47.47.47h2.8v2.8c0,.26.21.47.47.47h2.83c.23,1.84,1.8,3.27,3.7,3.27,2.06,0,3.73-1.67,3.73-3.73,0-1.9-1.43-3.47-3.27-3.7Zm-9.8-.03V1.93h5.6v2.33h-2.8c-.26,0-.47.21-.47.47v2.8h-2.33Zm3.27-2.33h5.6v2.37c-1.69.21-3.02,1.55-3.23,3.23h-2.37v-5.6Zm6.07,8.87c-1.54,0-2.8-1.26-2.8-2.8s1.26-2.8,2.8-2.8,2.8,1.26,2.8,2.8-1.26,2.8-2.8,2.8Z"/><rect class="e" width="20" height="16"/></g></g></svg>