<?xml version="1.0" encoding="UTF-8" standalone="no"?>
<!-- Created with Inkscape (http://www.inkscape.org/) -->

<svg
   width="18"
   height="16"
   viewBox="0 0 4.7624999 4.2333333"
   version="1.1"
   id="svg1"
   xmlns="http://www.w3.org/2000/svg"
   xmlns:svg="http://www.w3.org/2000/svg">
  <defs
     id="defs1" />
  <g
     id="g2182"
     style="clip-rule:evenodd;fill-rule:evenodd;stroke-linejoin:round;stroke-miterlimit:2;fill:#000000"
     transform="matrix(0.26458333,0,0,0.26458333,-233.32466,-177.95478)">
    <path
       d="m 885.09,678.605 c 2.177,2.483 5.081,5.328 8.208,7.694 l 0.441,0.335 3.611,-5.95 -0.553,-0.217 c -1.876,-0.737 -5.913,-3.047 -8.056,-5.346 l -0.731,0.681 c 2.051,2.201 5.759,4.415 7.877,5.365 0,0 -2.426,3.997 -2.426,3.997 -2.901,-2.253 -5.584,-4.896 -7.619,-7.218 z"
       style="fill:#000000"
       id="path1805" />
    <path
       d="m 894.448,679.881 c 0.816,-0.996 1.519,-1.945 1.997,-2.725 l -2.586,-2.113 c -0.6,0.865 -1.528,1.848 -2.619,2.838 1.076,0.763 2.197,1.448 3.208,2 z"
       style="fill:#000000;fill-rule:nonzero"
       id="path1806" />
    <path
       d="m 894.208,680.32 0.364,0.198 0.263,-0.32 c 0.832,-1.016 1.549,-1.985 2.036,-2.781 l 0.229,-0.372 -3.343,-2.731 -0.309,0.444 c -0.582,0.84 -1.485,1.792 -2.544,2.753 l -0.461,0.418 0.508,0.36 c 1.093,0.775 2.231,1.47 3.257,2.031 z m 0.116,-1.08 c -0.735,-0.414 -1.516,-0.892 -2.288,-1.415 0.752,-0.712 1.409,-1.413 1.914,-2.062 0,0 1.835,1.499 1.835,1.499 -0.392,0.596 -0.894,1.271 -1.461,1.978 z"
       style="fill:#000000"
       id="path1807" />
    <path
       d="m 887.72,680.692 c -0.889,0.631 -1.779,1.211 -2.613,1.695 l 2.909,3.778 c 0.938,-0.681 1.925,-1.54 2.893,-2.465 -1.13,-0.986 -2.199,-2.002 -3.189,-3.008 z"
       style="fill:#000000;fill-rule:nonzero"
       id="path1808" />
    <path
       d="m 888.076,680.342 -0.299,-0.304 -0.347,0.247 c -0.876,0.621 -1.752,1.193 -2.573,1.67 l -0.493,0.286 3.553,4.615 0.393,-0.286 c 0.955,-0.693 1.959,-1.567 2.944,-2.508 l 0.396,-0.378 -0.413,-0.36 c -1.119,-0.978 -2.18,-1.985 -3.161,-2.982 z m -0.415,1.002 c 0.791,0.792 1.63,1.588 2.506,2.369 -0.689,0.641 -1.382,1.241 -2.055,1.757 0,0 -2.264,-2.941 -2.264,-2.941 0.589,-0.359 1.2,-0.758 1.813,-1.185 z"
       style="fill:#000000"
       id="path1809" />
  </g>
</svg>
