<?xml version="1.0" encoding="UTF-8" standalone="no"?>
<svg
   id="b"
   width="20"
   height="16"
   viewBox="0 0 20 16"
   version="1.1"
   sodipodi:docname="redo.svg"
   inkscape:version="1.3.1 (91b66b0, 2023-11-16)"
   xml:space="preserve"
   xmlns:inkscape="http://www.inkscape.org/namespaces/inkscape"
   xmlns:sodipodi="http://sodipodi.sourceforge.net/DTD/sodipodi-0.dtd"
   xmlns="http://www.w3.org/2000/svg"
   xmlns:svg="http://www.w3.org/2000/svg"><sodipodi:namedview
     id="namedview3"
     pagecolor="#ffffff"
     bordercolor="#000000"
     borderopacity="0.25"
     inkscape:showpageshadow="2"
     inkscape:pageopacity="0.0"
     inkscape:pagecheckerboard="0"
     inkscape:deskcolor="#d1d1d1"
     inkscape:zoom="14.75"
     inkscape:cx="5.9661017"
     inkscape:cy="8.5423729"
     inkscape:window-width="1312"
     inkscape:window-height="605"
     inkscape:window-x="68"
     inkscape:window-y="267"
     inkscape:window-maximized="0"
     inkscape:current-layer="g1" /><defs
     id="defs1"><style
       id="style1">.e{stroke:#000;stroke-linecap:round;stroke-linejoin:round;}.e,.f{fill:none;}.f{opacity:.2;stroke-width:0px;}</style><clipPath
       clipPathUnits="userSpaceOnUse"
       id="clipPath3761"><path
         d="M 0,1205.777 H 2738.234 V 0 H 0 Z"
         transform="translate(-1062.36,-340.07301)"
         id="path3761" /></clipPath><clipPath
       clipPathUnits="userSpaceOnUse"
       id="clipPath3763"><path
         d="M 0,1205.777 H 2738.234 V 0 H 0 Z"
         transform="translate(-1062.2632,-337.60821)"
         id="path3763" /></clipPath><clipPath
       clipPathUnits="userSpaceOnUse"
       id="clipPath3765"><path
         d="M 0,1205.777 H 2738.234 V 0 H 0 Z"
         transform="translate(-1062.2632,-335.39121)"
         id="path3765" /></clipPath><clipPath
       clipPathUnits="userSpaceOnUse"
       id="clipPath3767"><path
         d="M 0,1205.777 H 2738.234 V 0 H 0 Z"
         transform="translate(-1062.4291,-333.34101)"
         id="path3767" /></clipPath><clipPath
       clipPathUnits="userSpaceOnUse"
       id="clipPath3769"><path
         d="M 0,1205.777 H 2738.234 V 0 H 0 Z"
         transform="translate(-1062.9171,-331.61488)"
         id="path3769" /></clipPath><clipPath
       clipPathUnits="userSpaceOnUse"
       id="clipPath3771"><path
         d="M 0,1205.777 H 2738.234 V 0 H 0 Z"
         transform="translate(-1063.7688,-330.25498)"
         id="path3771" /></clipPath><clipPath
       clipPathUnits="userSpaceOnUse"
       id="clipPath3773"><path
         d="M 0,1205.777 H 2738.234 V 0 H 0 Z"
         transform="translate(-1064.9308,-329.20708)"
         id="path3773" /></clipPath><clipPath
       clipPathUnits="userSpaceOnUse"
       id="clipPath3775"><path
         d="M 0,1205.777 H 2738.234 V 0 H 0 Z"
         transform="translate(-1066.5945,-328.66393)"
         id="path3775" /></clipPath><clipPath
       clipPathUnits="userSpaceOnUse"
       id="clipPath3777"><path
         d="M 0,1205.777 H 2738.234 V 0 H 0 Z"
         transform="translate(-1069.0444,-328.91211)"
         id="path3777" /></clipPath><clipPath
       clipPathUnits="userSpaceOnUse"
       id="clipPath3918"><path
         d="M 0,1205.777 H 2738.234 V 0 H 0 Z"
         transform="translate(-964.05505,-422.70974)"
         id="path3918" /></clipPath><clipPath
       clipPathUnits="userSpaceOnUse"
       id="clipPath3920"><path
         d="M 0,1205.777 H 2738.234 V 0 H 0 Z"
         transform="translate(-975.25705,-427.27334)"
         id="path3920" /></clipPath><clipPath
       clipPathUnits="userSpaceOnUse"
       id="clipPath3922"><path
         d="M 0,1205.777 H 2738.234 V 0 H 0 Z"
         transform="translate(-965.65892,-422.15909)"
         id="path3922" /></clipPath><clipPath
       clipPathUnits="userSpaceOnUse"
       id="clipPath3924"><path
         d="M 0,1205.777 H 2738.234 V 0 H 0 Z"
         transform="translate(-967.69502,-426.07514)"
         id="path3924" /></clipPath><clipPath
       clipPathUnits="userSpaceOnUse"
       id="clipPath3926"><path
         d="M 0,1205.777 H 2738.234 V 0 H 0 Z"
         transform="translate(-966.9304,-423.85139)"
         id="path3926" /></clipPath><clipPath
       clipPathUnits="userSpaceOnUse"
       id="clipPath3928"><path
         d="M 0,1205.777 H 2738.234 V 0 H 0 Z"
         transform="translate(-975.6979,-429.85529)"
         id="path3928" /></clipPath><clipPath
       clipPathUnits="userSpaceOnUse"
       id="clipPath3930"><path
         d="M 0,1205.777 H 2738.234 V 0 H 0 Z"
         transform="translate(-973.447,-432.10731)"
         id="path3930" /></clipPath><clipPath
       clipPathUnits="userSpaceOnUse"
       id="clipPath2494"><path
         d="M 0,1205.777 H 2738.234 V 0 H 0 Z"
         transform="translate(-1006.1637,-427.52789)"
         id="path2494" /></clipPath><clipPath
       clipPathUnits="userSpaceOnUse"
       id="clipPath2505"><path
         d="M 0,1205.777 H 2738.234 V 0 H 0 Z"
         transform="translate(0,2.5000001e-5)"
         id="path2505" /></clipPath><clipPath
       clipPathUnits="userSpaceOnUse"
       id="clipPath2507"><path
         d="M 0,1205.777 H 2738.234 V 0 H 0 Z"
         transform="translate(0,2.5000001e-5)"
         id="path2507" /></clipPath><clipPath
       clipPathUnits="userSpaceOnUse"
       id="clipPath2509"><path
         d="M 0,1205.777 H 2738.234 V 0 H 0 Z"
         transform="translate(0,2.5000001e-5)"
         id="path2509" /></clipPath><clipPath
       clipPathUnits="userSpaceOnUse"
       id="clipPath2511"><path
         d="M 0,1205.777 H 2738.234 V 0 H 0 Z"
         transform="translate(0,2.5000001e-5)"
         id="path2511" /></clipPath><clipPath
       clipPathUnits="userSpaceOnUse"
       id="clipPath2513"><path
         d="M 0,1205.777 H 2738.234 V 0 H 0 Z"
         transform="translate(0,2.5000001e-5)"
         id="path2513" /></clipPath><clipPath
       clipPathUnits="userSpaceOnUse"
       id="clipPath2515"><path
         d="M 0,1205.777 H 2738.234 V 0 H 0 Z"
         transform="translate(-1130.1741,-427.58684)"
         id="path2515" /></clipPath><clipPath
       clipPathUnits="userSpaceOnUse"
       id="clipPath2517"><path
         d="M 0,1205.777 H 2738.234 V 0 H 0 Z"
         transform="translate(-1133.0022,-428.29409)"
         id="path2517" /></clipPath><clipPath
       clipPathUnits="userSpaceOnUse"
       id="clipPath2505-0"><path
         d="M 0,1205.777 H 2738.234 V 0 H 0 Z"
         transform="translate(0,2.5000001e-5)"
         id="path2505-4" /></clipPath></defs><g
     id="g1"
     transform="translate(-0.43216786,0.07904603)"><path
       d="m 3.6836679,12.847954 c 0.425,0.747 1.043,1.329 1.856,1.744 0.813,0.413 1.803,0.621 2.97,0.621 h 1.8060001 c 0.213,0 0.385,-0.069 0.514,-0.204 0.131,-0.135 0.196,-0.299 0.196,-0.493 0,-0.192 -0.065,-0.356 -0.196,-0.491 -0.129,-0.135 -0.301,-0.204 -0.514,-0.204 H 8.5166679 c -0.89,0 -1.639,-0.16 -2.243,-0.48 -0.603,-0.321 -1.06,-0.757 -1.366,-1.31 -0.309,-0.551 -0.462,-1.18 -0.462,-1.883 0,-0.699 0.153,-1.317 0.462,-1.856 0.306,-0.54 0.763,-0.96 1.366,-1.263 0.604,-0.301 1.353,-0.453 2.243,-0.453 h 5.3700001 l 2.423,-0.11 -0.141,-0.359 -1.931,1.657 -2.258,2.196 c -0.057,0.063 -0.102,0.133 -0.136,0.211 -0.035,0.078 -0.052,0.167 -0.052,0.266 0,0.203 0.064,0.369 0.192,0.497 0.128,0.126 0.296,0.19 0.503,0.19 0.194,0 0.361,-0.072 0.5,-0.219 l 4.596,-4.509 c 0.08,-0.073 0.138,-0.153 0.176,-0.242 0.04,-0.089 0.06,-0.18 0.06,-0.273 0,-0.1 -0.02,-0.194 -0.06,-0.282 -0.038,-0.089 -0.096,-0.169 -0.176,-0.243 l -4.596,-4.50900003 c -0.139,-0.146 -0.306,-0.218 -0.5,-0.218 -0.207,0 -0.375,0.063 -0.503,0.191 -0.128,0.127 -0.192,0.29300003 -0.192,0.49600003 0,0.098 0.017,0.188 0.052,0.266 0.034,0.078 0.079,0.148 0.136,0.21 l 2.258,2.204 1.931,1.65 0.141,-0.359 -2.423,-0.11 H 8.6346679 c -1.188,0 -2.199,0.213 -3.033,0.641 -0.834,0.426 -1.468,1.02 -1.902,1.778 -0.435,0.759 -0.654,1.634 -0.654,2.63 0,1.001 0.213,1.875 0.638,2.622"
       style="clip-rule:evenodd;fill-rule:nonzero;stroke-linejoin:round;stroke-miterlimit:2"
       id="path1340" /></g></svg>
