<?xml version="1.0" encoding="UTF-8" standalone="no"?>
<svg
   id="b"
   width="20"
   height="19"
   viewBox="0 0 20 19"
   version="1.1"
   sodipodi:docname="scribble-lines.svg"
   inkscape:version="1.3.1 (91b66b0, 2023-11-16)"
   xml:space="preserve"
   xmlns:inkscape="http://www.inkscape.org/namespaces/inkscape"
   xmlns:sodipodi="http://sodipodi.sourceforge.net/DTD/sodipodi-0.dtd"
   xmlns="http://www.w3.org/2000/svg"
   xmlns:svg="http://www.w3.org/2000/svg"><sodipodi:namedview
     id="namedview3"
     pagecolor="#ffffff"
     bordercolor="#000000"
     borderopacity="0.25"
     inkscape:showpageshadow="2"
     inkscape:pageopacity="0.0"
     inkscape:pagecheckerboard="0"
     inkscape:deskcolor="#d1d1d1"
     inkscape:zoom="14.75"
     inkscape:cx="3.5254237"
     inkscape:cy="9.3559322"
     inkscape:window-width="1336"
     inkscape:window-height="615"
     inkscape:window-x="46"
     inkscape:window-y="177"
     inkscape:window-maximized="0"
     inkscape:current-layer="g4555" /><defs
     id="defs1"><style
       id="style1">.e{stroke:#000;stroke-linecap:round;stroke-linejoin:round;}.e,.f{fill:none;}.f{opacity:.2;stroke-width:0px;}</style><clipPath
       clipPathUnits="userSpaceOnUse"
       id="clipPath4543"><path
         d="M 0,1205.777 H 2738.234 V 0 H 0 Z"
         transform="translate(-1380.2346,-400.85451)"
         id="path4543" /></clipPath><clipPath
       clipPathUnits="userSpaceOnUse"
       id="clipPath4545"><path
         d="M 0,1205.777 H 2738.234 V 0 H 0 Z"
         transform="translate(-1406.2833,-390.85453)"
         id="path4545" /></clipPath><clipPath
       clipPathUnits="userSpaceOnUse"
       id="clipPath4547"><path
         d="M 0,1205.777 H 2738.234 V 0 H 0 Z"
         transform="translate(-1402.2834,-390.85453)"
         id="path4547" /></clipPath><clipPath
       clipPathUnits="userSpaceOnUse"
       id="clipPath4549"><path
         d="M 0,1205.777 H 2738.234 V 0 H 0 Z"
         transform="translate(-1398.2833,-390.85453)"
         id="path4549" /></clipPath><clipPath
       clipPathUnits="userSpaceOnUse"
       id="clipPath4551"><path
         d="M 0,1205.777 H 2738.234 V 0 H 0 Z"
         transform="translate(-1396.2834,-392.85448)"
         id="path4551" /></clipPath><clipPath
       clipPathUnits="userSpaceOnUse"
       id="clipPath4553"><path
         d="M 0,1205.777 H 2738.234 V 0 H 0 Z"
         transform="translate(-1396.2834,-396.85453)"
         id="path4553" /></clipPath><clipPath
       clipPathUnits="userSpaceOnUse"
       id="clipPath4555"><path
         d="M 0,1205.777 H 2738.234 V 0 H 0 Z"
         transform="translate(-1396.2834,-400.85451)"
         id="path4555" /></clipPath></defs><g
     id="c"><g
       id="d"><rect
         class="f"
         width="20"
         height="18.983051"
         id="rect3"
         x="0"
         y="0" /></g></g><g
     id="g4555"
     transform="translate(-1861.0444,-1068.4006)"><path
       style="color:#000000;fill:#000000 icc-color(Display, 0, 0, 0);stroke-linecap:round;stroke-linejoin:round;stroke-miterlimit:10;-inkscape-stroke:none"
       d="m 0,-0.5 a 0.5,0.5 0 0 0 -0.35351563,0.14648437 0.5,0.5 0 0 0 0,0.70703126 L 3.6464844,4.3535156 a 0.5,0.5 0 0 0 0.7070312,0 0.5,0.5 0 0 0 0,-0.7070312 L 0.35351563,-0.35351563 A 0.5,0.5 0 0 0 0,-0.5 Z"
       id="path4544"
       transform="matrix(1.3333333,0,0,-1.3333333,1875.0444,1086.5673)" /><path
       style="color:#000000;fill:#000000 icc-color(Display, 0, 0, 0);stroke-linecap:round;stroke-linejoin:round;stroke-miterlimit:10;-inkscape-stroke:none"
       d="m 0,-0.5 a 0.5,0.5 0 0 0 -0.35351563,0.14648437 0.5,0.5 0 0 0 0,0.70703126 L 7.6464844,8.3535156 a 0.5,0.5 0 0 0 0.7070312,0 0.5,0.5 0 0 0 0,-0.7070312 L 0.35351563,-0.35351563 A 0.5,0.5 0 0 0 0,-0.5 Z"
       id="path4546"
       transform="matrix(1.3333333,0,0,-1.3333333,1869.7111,1086.5673)" /><path
       style="color:#000000;fill:#000000 icc-color(Display, 0, 0, 0);stroke-linecap:round;stroke-linejoin:round;stroke-miterlimit:10;-inkscape-stroke:none"
       d="m 0,-0.5 a 0.5,0.5 0 0 0 -0.35351563,0.14648437 0.5,0.5 0 0 0 0,0.70703126 L 11.646484,12.353516 a 0.5,0.5 0 0 0 0.707032,0 0.5,0.5 0 0 0 0,-0.707032 L 0.35351563,-0.35351563 A 0.5,0.5 0 0 0 0,-0.5 Z"
       id="path4548"
       transform="matrix(1.3333333,0,0,-1.3333333,1864.3777,1086.5673)" /><path
       style="color:#000000;fill:#000000 icc-color(Display, 0, 0, 0);stroke-linecap:round;stroke-linejoin:round;stroke-miterlimit:10;-inkscape-stroke:none"
       d="m 0,-0.5 a 0.5,0.5 0 0 0 -0.35351563,0.14648437 0.5,0.5 0 0 0 0,0.70703126 L 10.646484,11.353516 a 0.5,0.5 0 0 0 0.707032,0 0.5,0.5 0 0 0 0,-0.707032 L 0.35351563,-0.35351563 A 0.5,0.5 0 0 0 0,-0.5 Z"
       id="path4550"
       transform="matrix(1.3333333,0,0,-1.3333333,1861.7111,1083.9007)" /><path
       style="color:#000000;fill:#000000 icc-color(Display, 0, 0, 0);stroke-linecap:round;stroke-linejoin:round;stroke-miterlimit:10;-inkscape-stroke:none"
       d="m 0,-0.5 a 0.5,0.5 0 0 0 -0.35351563,0.14648437 0.5,0.5 0 0 0 0,0.70703126 L 6.6464844,7.3535156 a 0.5,0.5 0 0 0 0.7070312,0 0.5,0.5 0 0 0 0,-0.7070312 L 0.35351563,-0.35351563 A 0.5,0.5 0 0 0 0,-0.5 Z"
       id="path4552"
       transform="matrix(1.3333333,0,0,-1.3333333,1861.7111,1078.5673)" /><path
       style="color:#000000;fill:#000000 icc-color(Display, 0, 0, 0);stroke-linecap:round;stroke-linejoin:round;stroke-miterlimit:10;-inkscape-stroke:none"
       d="m 0,-0.5 a 0.5,0.5 0 0 0 -0.35351563,0.14648437 0.5,0.5 0 0 0 0,0.70703126 L 2.6464844,3.3535156 a 0.5,0.5 0 0 0 0.7070312,0 0.5,0.5 0 0 0 0,-0.7070312 L 0.35351563,-0.35351563 A 0.5,0.5 0 0 0 0,-0.5 Z"
       id="path4554"
       transform="matrix(1.3333333,0,0,-1.3333333,1861.7111,1073.234)" /></g></svg>
