<?xml version="1.0" encoding="UTF-8" standalone="no"?>
<svg
   id="b"
   width="20"
   height="16"
   viewBox="0 0 20 16"
   version="1.1"
   sodipodi:docname="scribble-length.svg"
   inkscape:version="1.2.1 (9c6d41e, 2022-07-14)"
   xmlns:inkscape="http://www.inkscape.org/namespaces/inkscape"
   xmlns:sodipodi="http://sodipodi.sourceforge.net/DTD/sodipodi-0.dtd"
   xmlns="http://www.w3.org/2000/svg"
   xmlns:svg="http://www.w3.org/2000/svg">
  <sodipodi:namedview
     id="namedview13"
     pagecolor="#ffffff"
     bordercolor="#000000"
     borderopacity="0.25"
     inkscape:showpageshadow="2"
     inkscape:pageopacity="0.0"
     inkscape:pagecheckerboard="0"
     inkscape:deskcolor="#d1d1d1"
     showgrid="false"
     inkscape:zoom="23.39801"
     inkscape:cx="-2.0728258"
     inkscape:cy="11.689028"
     inkscape:window-width="1579"
     inkscape:window-height="1233"
     inkscape:window-x="0"
     inkscape:window-y="25"
     inkscape:window-maximized="0"
     inkscape:current-layer="c" />
  <defs
     id="defs4">
    <style
       id="style2">.e{fill:none;}.e,.f{stroke-width:0px;}</style>
  </defs>
  <g
     id="c">
    <g
       id="g5961"
       style="clip-rule:evenodd;fill-rule:evenodd;stroke-linejoin:round;stroke-miterlimit:2"
       transform="matrix(0.91029339,0,0,0.92571382,-642.9499,-203.67895)">
      <path
         d="m 710.66465,231.94886 c -0.23193,0.2436 -0.2311,0.63989 0,0.88257 0.23111,0.24448 0.60842,0.24359 0.84035,9.8e-4 l 9.24105,-9.06049 c 0.57028,-0.61894 0.37252,-1.43313 0.14062,-1.67672 -0.23193,-0.24181 -0.93328,-0.49509 -1.59972,0.10368 -2.95593,3.31108 -5.76614,6.43289 -8.6223,9.74998 z"
         id="path5773-4"
         style="clip-rule:evenodd;fill-rule:evenodd;stroke-width:1.21792;stroke-linejoin:round;stroke-miterlimit:2"
         sodipodi:nodetypes="ccccccc" />
      <g
         id="g5826"
         transform="rotate(45,827.5599,-192.85329)">
        <path
           d="m 1048.2055,178.69916 1.398,-1.399 c 0,0 1.4,1.4 1.4,1.4 0.195,0.195 0.512,0.195 0.707,0 0.195,-0.196 0.195,-0.512 0,-0.708 l -1.753,-1.753 c -0.195,-0.195 -0.512,-0.195 -0.707,0 l -1.752,1.752 c -0.195,0.196 -0.195,0.512 0,0.708 0.195,0.195 0.512,0.195 0.707,0 z"
           id="path5771-8"
           style="clip-rule:evenodd;fill-rule:evenodd;stroke-linejoin:round;stroke-miterlimit:2" />
        <path
           d="m 1049.1155,177.391 v 12.56152 c 0,0.31058 0.225,0.56264 0.5,0.56264 0.276,0.001 0.5,-0.25206 0.501,-0.56152 v -12.56377 c 0,-0.30945 -0.225,-0.56264 -0.501,-0.56264 -0.275,0.001 -0.5,0.25319 -0.5,0.56377 z"
           id="path5773-7"
           style="clip-rule:evenodd;fill-rule:evenodd;stroke-width:1.06079;stroke-linejoin:round;stroke-miterlimit:2" />
        <path
           d="m 1051.0055,188.26316 -1.398,1.399 c 0,0 -1.399,-1.4 -1.399,-1.4 -0.196,-0.195 -0.512,-0.195 -0.708,0 -0.195,0.195 -0.195,0.512 0,0.707 l 1.753,1.753 c 0.196,0.196 0.512,0.196 0.708,0 l 1.752,-1.752 c 0.195,-0.195 0.195,-0.512 0,-0.707 -0.196,-0.195 -0.512,-0.195 -0.708,0 z"
           id="path5775-7"
           style="clip-rule:evenodd;fill-rule:evenodd;stroke-linejoin:round;stroke-miterlimit:2" />
      </g>
    </g>
  </g>
</svg>
