<?xml version="1.0" encoding="UTF-8" standalone="no"?>
<svg
   id="b"
   width="20"
   height="16"
   viewBox="0 0 20 16"
   version="1.1"
   sodipodi:docname="smooth-mask-opacity.svg"
   inkscape:version="1.3.1 (91b66b0, 2023-11-16)"
   xml:space="preserve"
   xmlns:inkscape="http://www.inkscape.org/namespaces/inkscape"
   xmlns:sodipodi="http://sodipodi.sourceforge.net/DTD/sodipodi-0.dtd"
   xmlns="http://www.w3.org/2000/svg"
   xmlns:svg="http://www.w3.org/2000/svg"><sodipodi:namedview
     id="namedview3"
     pagecolor="#ffffff"
     bordercolor="#000000"
     borderopacity="0.25"
     inkscape:showpageshadow="2"
     inkscape:pageopacity="0.0"
     inkscape:pagecheckerboard="0"
     inkscape:deskcolor="#d1d1d1"
     inkscape:zoom="14.75"
     inkscape:cx="5.9322034"
     inkscape:cy="8.5423729"
     inkscape:window-width="1312"
     inkscape:window-height="449"
     inkscape:window-x="40"
     inkscape:window-y="408"
     inkscape:window-maximized="0"
     inkscape:current-layer="d" /><defs
     id="defs1"><style
       id="style1">.e{stroke:#000;stroke-linecap:round;stroke-linejoin:round;}.e,.f{fill:none;}.f{opacity:.2;stroke-width:0px;}</style></defs><g
     id="c"><g
       id="d"><rect
         class="f"
         width="20"
         height="16"
         id="rect3" /><path
         d="m 5.7174068,5.1881356 c -0.525,0 -0.953,0.427 -0.953,0.953 v 6.1940004 c 0,0.525 0.428,0.953 0.953,0.953 h 6.1940002 c 0.526,0 0.953,-0.428 0.953,-0.953 V 6.1411356 c 0,-0.526 -0.427,-0.953 -0.953,-0.953 z M 11.911407,14.188136 H 5.7174068 c -1.021,0 -1.853,-0.832 -1.853,-1.853 V 6.1411356 c 0,-1.022 0.832,-1.853 1.853,-1.853 h 6.1940002 c 1.022,0 1.853,0.831 1.853,1.853 v 6.1940004 c 0,1.021 -0.831,1.853 -1.853,1.853"
         style="clip-rule:evenodd;fill-rule:nonzero;stroke-miterlimit:10"
         id="path906" /><path
         d="m 15.867407,4.2511356 -2.063,-2.063 h 0.81 c 0.691,0 1.253,0.562 1.253,1.253 z m 0,3 -5.063,-5.063 h 1.726 l 3.337,3.336 z m -1.253,-5.963 H 8.4204068 c -1.187,0 -2.153,0.965 -2.153,2.153 v 0.847 h 0.9 v -0.847 c 0,-0.181 0.042,-0.351 0.111,-0.506 l 1.352,1.353 h 1.274 l -1.989,-1.99 c 0.155,-0.069 0.324,-0.11 0.505,-0.11 h 1.11 l 2.1000002,2.1 h 0.284 c 1.021,0 1.853,0.831 1.853,1.853 v 0.283 l 2.1,2.1 v 1.111 c 0,0.18 -0.042,0.35 -0.111,0.5050004 l -1.989,-1.9890004 v 1.273 l 1.352,1.3530004 c -0.155,0.069 -0.324,0.111 -0.505,0.111 h -0.847 v 0.9 h 0.847 c 1.187,0 2.153,-0.966 2.153,-2.1530004 v -6.194 c 0,-1.188 -0.966,-2.153 -2.153,-2.153"
         style="clip-rule:evenodd;fill-rule:nonzero;stroke-miterlimit:10"
         id="path907" /></g></g></svg>
