<?xml version="1.0" encoding="UTF-8" standalone="no"?>
<svg
   id="b"
   width="20"
   height="16"
   viewBox="0 0 20 16"
   version="1.1"
   sodipodi:docname="tool-mask-ellipse.svg"
   inkscape:version="1.3.1 (91b66b0, 2023-11-16)"
   xml:space="preserve"
   xmlns:inkscape="http://www.inkscape.org/namespaces/inkscape"
   xmlns:sodipodi="http://sodipodi.sourceforge.net/DTD/sodipodi-0.dtd"
   xmlns="http://www.w3.org/2000/svg"
   xmlns:svg="http://www.w3.org/2000/svg"><sodipodi:namedview
     id="namedview3"
     pagecolor="#ffffff"
     bordercolor="#000000"
     borderopacity="0.25"
     inkscape:showpageshadow="2"
     inkscape:pageopacity="0.0"
     inkscape:pagecheckerboard="0"
     inkscape:deskcolor="#d1d1d1"
     inkscape:zoom="14.75"
     inkscape:cx="5.9661017"
     inkscape:cy="8.5423729"
     inkscape:window-width="1312"
     inkscape:window-height="605"
     inkscape:window-x="26"
     inkscape:window-y="263"
     inkscape:window-maximized="0"
     inkscape:current-layer="g1" /><defs
     id="defs1"><style
       id="style1">.e{stroke:#000;stroke-linecap:round;stroke-linejoin:round;}.e,.f{fill:none;}.f{opacity:.2;stroke-width:0px;}</style><clipPath
       clipPathUnits="userSpaceOnUse"
       id="clipPath3761"><path
         d="M 0,1205.777 H 2738.234 V 0 H 0 Z"
         transform="translate(-1062.36,-340.07301)"
         id="path3761" /></clipPath><clipPath
       clipPathUnits="userSpaceOnUse"
       id="clipPath3763"><path
         d="M 0,1205.777 H 2738.234 V 0 H 0 Z"
         transform="translate(-1062.2632,-337.60821)"
         id="path3763" /></clipPath><clipPath
       clipPathUnits="userSpaceOnUse"
       id="clipPath3765"><path
         d="M 0,1205.777 H 2738.234 V 0 H 0 Z"
         transform="translate(-1062.2632,-335.39121)"
         id="path3765" /></clipPath><clipPath
       clipPathUnits="userSpaceOnUse"
       id="clipPath3767"><path
         d="M 0,1205.777 H 2738.234 V 0 H 0 Z"
         transform="translate(-1062.4291,-333.34101)"
         id="path3767" /></clipPath><clipPath
       clipPathUnits="userSpaceOnUse"
       id="clipPath3769"><path
         d="M 0,1205.777 H 2738.234 V 0 H 0 Z"
         transform="translate(-1062.9171,-331.61488)"
         id="path3769" /></clipPath><clipPath
       clipPathUnits="userSpaceOnUse"
       id="clipPath3771"><path
         d="M 0,1205.777 H 2738.234 V 0 H 0 Z"
         transform="translate(-1063.7688,-330.25498)"
         id="path3771" /></clipPath><clipPath
       clipPathUnits="userSpaceOnUse"
       id="clipPath3773"><path
         d="M 0,1205.777 H 2738.234 V 0 H 0 Z"
         transform="translate(-1064.9308,-329.20708)"
         id="path3773" /></clipPath><clipPath
       clipPathUnits="userSpaceOnUse"
       id="clipPath3775"><path
         d="M 0,1205.777 H 2738.234 V 0 H 0 Z"
         transform="translate(-1066.5945,-328.66393)"
         id="path3775" /></clipPath><clipPath
       clipPathUnits="userSpaceOnUse"
       id="clipPath3777"><path
         d="M 0,1205.777 H 2738.234 V 0 H 0 Z"
         transform="translate(-1069.0444,-328.91211)"
         id="path3777" /></clipPath><clipPath
       clipPathUnits="userSpaceOnUse"
       id="clipPath3918"><path
         d="M 0,1205.777 H 2738.234 V 0 H 0 Z"
         transform="translate(-964.05505,-422.70974)"
         id="path3918" /></clipPath><clipPath
       clipPathUnits="userSpaceOnUse"
       id="clipPath3920"><path
         d="M 0,1205.777 H 2738.234 V 0 H 0 Z"
         transform="translate(-975.25705,-427.27334)"
         id="path3920" /></clipPath><clipPath
       clipPathUnits="userSpaceOnUse"
       id="clipPath3922"><path
         d="M 0,1205.777 H 2738.234 V 0 H 0 Z"
         transform="translate(-965.65892,-422.15909)"
         id="path3922" /></clipPath><clipPath
       clipPathUnits="userSpaceOnUse"
       id="clipPath3924"><path
         d="M 0,1205.777 H 2738.234 V 0 H 0 Z"
         transform="translate(-967.69502,-426.07514)"
         id="path3924" /></clipPath><clipPath
       clipPathUnits="userSpaceOnUse"
       id="clipPath3926"><path
         d="M 0,1205.777 H 2738.234 V 0 H 0 Z"
         transform="translate(-966.9304,-423.85139)"
         id="path3926" /></clipPath><clipPath
       clipPathUnits="userSpaceOnUse"
       id="clipPath3928"><path
         d="M 0,1205.777 H 2738.234 V 0 H 0 Z"
         transform="translate(-975.6979,-429.85529)"
         id="path3928" /></clipPath><clipPath
       clipPathUnits="userSpaceOnUse"
       id="clipPath3930"><path
         d="M 0,1205.777 H 2738.234 V 0 H 0 Z"
         transform="translate(-973.447,-432.10731)"
         id="path3930" /></clipPath><clipPath
       clipPathUnits="userSpaceOnUse"
       id="clipPath2494"><path
         d="M 0,1205.777 H 2738.234 V 0 H 0 Z"
         transform="translate(-1006.1637,-427.52789)"
         id="path2494" /></clipPath><clipPath
       clipPathUnits="userSpaceOnUse"
       id="clipPath2505"><path
         d="M 0,1205.777 H 2738.234 V 0 H 0 Z"
         transform="translate(0,2.5000001e-5)"
         id="path2505" /></clipPath><clipPath
       clipPathUnits="userSpaceOnUse"
       id="clipPath2507"><path
         d="M 0,1205.777 H 2738.234 V 0 H 0 Z"
         transform="translate(0,2.5000001e-5)"
         id="path2507" /></clipPath><clipPath
       clipPathUnits="userSpaceOnUse"
       id="clipPath2509"><path
         d="M 0,1205.777 H 2738.234 V 0 H 0 Z"
         transform="translate(0,2.5000001e-5)"
         id="path2509" /></clipPath><clipPath
       clipPathUnits="userSpaceOnUse"
       id="clipPath2511"><path
         d="M 0,1205.777 H 2738.234 V 0 H 0 Z"
         transform="translate(0,2.5000001e-5)"
         id="path2511" /></clipPath><clipPath
       clipPathUnits="userSpaceOnUse"
       id="clipPath2513"><path
         d="M 0,1205.777 H 2738.234 V 0 H 0 Z"
         transform="translate(0,2.5000001e-5)"
         id="path2513" /></clipPath><clipPath
       clipPathUnits="userSpaceOnUse"
       id="clipPath2515"><path
         d="M 0,1205.777 H 2738.234 V 0 H 0 Z"
         transform="translate(-1130.1741,-427.58684)"
         id="path2515" /></clipPath><clipPath
       clipPathUnits="userSpaceOnUse"
       id="clipPath2517"><path
         d="M 0,1205.777 H 2738.234 V 0 H 0 Z"
         transform="translate(-1133.0022,-428.29409)"
         id="path2517" /></clipPath><clipPath
       clipPathUnits="userSpaceOnUse"
       id="clipPath2505-0"><path
         d="M 0,1205.777 H 2738.234 V 0 H 0 Z"
         transform="translate(0,2.5000001e-5)"
         id="path2505-4" /></clipPath></defs><g
     id="g1"
     transform="translate(-0.43216786,0.07904603)"><g
       id="g2180"
       style="clip-rule:evenodd;fill-rule:evenodd;stroke-linejoin:round;stroke-miterlimit:2"
       transform="translate(-1056.8068,-736.50456)"><path
         d="m 1064.86,751.586 c 0.73,0.246 1.51,0.382 2.32,0.388 0.345,0.003 0.627,-0.275 0.63,-0.62 0,-0.345 -0.275,-0.627 -0.62,-0.63 -0.674,-0.005 -1.323,-0.118 -1.931,-0.323 -0.327,-0.11 -0.681,0.066 -0.792,0.393 -0.11,0.327 0.066,0.682 0.393,0.792 z m 4.646,0.037 c 0.759,-0.242 1.466,-0.603 2.099,-1.06 0.28,-0.202 0.343,-0.593 0.141,-0.873 -0.202,-0.279 -0.593,-0.343 -0.872,-0.141 -0.528,0.381 -1.116,0.682 -1.748,0.883 -0.329,0.105 -0.51,0.457 -0.406,0.786 0.105,0.328 0.457,0.51 0.786,0.405 z m -8.37,-2.811 c 0.457,0.643 1.012,1.21 1.642,1.681 0.276,0.206 0.668,0.149 0.875,-0.127 0.206,-0.277 0.149,-0.669 -0.127,-0.875 -0.526,-0.393 -0.989,-0.867 -1.371,-1.403 -0.2,-0.281 -0.59,-0.347 -0.871,-0.148 -0.281,0.2 -0.347,0.591 -0.148,0.872 z m 12.137,0.096 c 0.462,-0.628 0.829,-1.331 1.08,-2.087 0.109,-0.327 -0.068,-0.681 -0.396,-0.79 -0.327,-0.109 -0.681,0.069 -0.79,0.396 -0.21,0.631 -0.516,1.217 -0.901,1.741 -0.205,0.278 -0.145,0.67 0.133,0.874 0.278,0.204 0.67,0.144 0.874,-0.134 z m -13.533,-4.522 c 0,0.013 -10e-4,0.026 -10e-4,0.039 0,0.796 0.123,1.563 0.35,2.283 0.104,0.329 0.455,0.512 0.784,0.409 0.329,-0.104 0.512,-0.455 0.408,-0.784 -0.189,-0.602 -0.292,-1.243 -0.292,-1.908 0,-0.011 10e-4,-0.022 10e-4,-0.033 10e-4,-0.345 -0.277,-0.626 -0.622,-0.628 -0.345,-0.002 -0.627,0.277 -0.628,0.622 z m 13.748,-0.087 10e-4,0.126 c 0,0.023 0,0.045 0,0.067 0,0.345 0.274,0.628 0.619,0.631 0.345,0.004 0.628,-0.274 0.631,-0.618 0,-0.027 0,-0.053 0,-0.08 0,-0.809 -0.127,-1.589 -0.361,-2.32 -0.106,-0.329 -0.458,-0.51 -0.786,-0.404 -0.329,0.105 -0.51,0.458 -0.404,0.786 0.183,0.573 0.288,1.181 0.3,1.812 z m -12.305,-4.324 c -0.459,0.63 -0.822,1.335 -1.07,2.092 -0.107,0.328 0.072,0.681 0.4,0.788 0.328,0.108 0.681,-0.072 0.789,-0.399 0.206,-0.632 0.509,-1.22 0.892,-1.746 0.203,-0.279 0.141,-0.671 -0.138,-0.873 -0.279,-0.203 -0.671,-0.141 -0.873,0.138 z m 12.137,0.032 c -0.461,-0.64 -1.018,-1.205 -1.651,-1.672 -0.277,-0.205 -0.669,-0.146 -0.874,0.131 -0.205,0.278 -0.146,0.67 0.132,0.875 0.528,0.39 0.993,0.861 1.378,1.395 0.201,0.281 0.592,0.344 0.872,0.143 0.28,-0.201 0.344,-0.592 0.143,-0.872 z m -8.385,-2.767 c -0.757,0.246 -1.462,0.611 -2.093,1.071 -0.279,0.204 -0.34,0.595 -0.137,0.874 0.204,0.278 0.595,0.339 0.874,0.136 0.525,-0.384 1.112,-0.687 1.743,-0.892 0.328,-0.107 0.508,-0.46 0.401,-0.788 -0.107,-0.328 -0.46,-0.507 -0.788,-0.401 z m 4.646,0.012 c -0.731,-0.241 -1.511,-0.373 -2.322,-0.375 -0.345,-10e-4 -0.625,0.278 -0.626,0.623 -10e-4,0.345 0.278,0.626 0.623,0.627 0.675,0.001 1.324,0.111 1.933,0.312 0.327,0.109 0.681,-0.069 0.789,-0.397 0.109,-0.327 -0.069,-0.681 -0.397,-0.79 z"
         id="path1326" /></g></g></svg>
