<?xml version="1.0" encoding="UTF-8" standalone="no"?>
<svg
   id="b"
   width="20"
   height="16"
   viewBox="0 0 20 16"
   version="1.1"
   sodipodi:docname="tool-brush-eraser.svg"
   inkscape:version="1.3.1 (91b66b0, 2023-11-16)"
   xml:space="preserve"
   xmlns:inkscape="http://www.inkscape.org/namespaces/inkscape"
   xmlns:sodipodi="http://sodipodi.sourceforge.net/DTD/sodipodi-0.dtd"
   xmlns="http://www.w3.org/2000/svg"
   xmlns:svg="http://www.w3.org/2000/svg"><sodipodi:namedview
     id="namedview3"
     pagecolor="#ffffff"
     bordercolor="#000000"
     borderopacity="0.25"
     inkscape:showpageshadow="2"
     inkscape:pageopacity="0.0"
     inkscape:pagecheckerboard="0"
     inkscape:deskcolor="#d1d1d1"
     inkscape:zoom="14.75"
     inkscape:cx="8"
     inkscape:cy="5.6949153"
     inkscape:window-width="1312"
     inkscape:window-height="605"
     inkscape:window-x="16"
     inkscape:window-y="211"
     inkscape:window-maximized="0"
     inkscape:current-layer="g2" /><defs
     id="defs1"><style
       id="style1">.e{stroke:#000;stroke-linecap:round;stroke-linejoin:round;}.e,.f{fill:none;}.f{opacity:.2;stroke-width:0px;}</style><clipPath
       clipPathUnits="userSpaceOnUse"
       id="clipPath3761"><path
         d="M 0,1205.777 H 2738.234 V 0 H 0 Z"
         transform="translate(-1062.36,-340.07301)"
         id="path3761" /></clipPath><clipPath
       clipPathUnits="userSpaceOnUse"
       id="clipPath3763"><path
         d="M 0,1205.777 H 2738.234 V 0 H 0 Z"
         transform="translate(-1062.2632,-337.60821)"
         id="path3763" /></clipPath><clipPath
       clipPathUnits="userSpaceOnUse"
       id="clipPath3765"><path
         d="M 0,1205.777 H 2738.234 V 0 H 0 Z"
         transform="translate(-1062.2632,-335.39121)"
         id="path3765" /></clipPath><clipPath
       clipPathUnits="userSpaceOnUse"
       id="clipPath3767"><path
         d="M 0,1205.777 H 2738.234 V 0 H 0 Z"
         transform="translate(-1062.4291,-333.34101)"
         id="path3767" /></clipPath><clipPath
       clipPathUnits="userSpaceOnUse"
       id="clipPath3769"><path
         d="M 0,1205.777 H 2738.234 V 0 H 0 Z"
         transform="translate(-1062.9171,-331.61488)"
         id="path3769" /></clipPath><clipPath
       clipPathUnits="userSpaceOnUse"
       id="clipPath3771"><path
         d="M 0,1205.777 H 2738.234 V 0 H 0 Z"
         transform="translate(-1063.7688,-330.25498)"
         id="path3771" /></clipPath><clipPath
       clipPathUnits="userSpaceOnUse"
       id="clipPath3773"><path
         d="M 0,1205.777 H 2738.234 V 0 H 0 Z"
         transform="translate(-1064.9308,-329.20708)"
         id="path3773" /></clipPath><clipPath
       clipPathUnits="userSpaceOnUse"
       id="clipPath3775"><path
         d="M 0,1205.777 H 2738.234 V 0 H 0 Z"
         transform="translate(-1066.5945,-328.66393)"
         id="path3775" /></clipPath><clipPath
       clipPathUnits="userSpaceOnUse"
       id="clipPath3777"><path
         d="M 0,1205.777 H 2738.234 V 0 H 0 Z"
         transform="translate(-1069.0444,-328.91211)"
         id="path3777" /></clipPath><clipPath
       clipPathUnits="userSpaceOnUse"
       id="clipPath3918"><path
         d="M 0,1205.777 H 2738.234 V 0 H 0 Z"
         transform="translate(-964.05505,-422.70974)"
         id="path3918" /></clipPath><clipPath
       clipPathUnits="userSpaceOnUse"
       id="clipPath3920"><path
         d="M 0,1205.777 H 2738.234 V 0 H 0 Z"
         transform="translate(-975.25705,-427.27334)"
         id="path3920" /></clipPath><clipPath
       clipPathUnits="userSpaceOnUse"
       id="clipPath3922"><path
         d="M 0,1205.777 H 2738.234 V 0 H 0 Z"
         transform="translate(-965.65892,-422.15909)"
         id="path3922" /></clipPath><clipPath
       clipPathUnits="userSpaceOnUse"
       id="clipPath3924"><path
         d="M 0,1205.777 H 2738.234 V 0 H 0 Z"
         transform="translate(-967.69502,-426.07514)"
         id="path3924" /></clipPath><clipPath
       clipPathUnits="userSpaceOnUse"
       id="clipPath3926"><path
         d="M 0,1205.777 H 2738.234 V 0 H 0 Z"
         transform="translate(-966.9304,-423.85139)"
         id="path3926" /></clipPath><clipPath
       clipPathUnits="userSpaceOnUse"
       id="clipPath3928"><path
         d="M 0,1205.777 H 2738.234 V 0 H 0 Z"
         transform="translate(-975.6979,-429.85529)"
         id="path3928" /></clipPath><clipPath
       clipPathUnits="userSpaceOnUse"
       id="clipPath3930"><path
         d="M 0,1205.777 H 2738.234 V 0 H 0 Z"
         transform="translate(-973.447,-432.10731)"
         id="path3930" /></clipPath><clipPath
       clipPathUnits="userSpaceOnUse"
       id="clipPath2494"><path
         d="M 0,1205.777 H 2738.234 V 0 H 0 Z"
         transform="translate(-1006.1637,-427.52789)"
         id="path2494" /></clipPath><clipPath
       clipPathUnits="userSpaceOnUse"
       id="clipPath2505"><path
         d="M 0,1205.777 H 2738.234 V 0 H 0 Z"
         transform="translate(0,2.5000001e-5)"
         id="path2505" /></clipPath><clipPath
       clipPathUnits="userSpaceOnUse"
       id="clipPath2507"><path
         d="M 0,1205.777 H 2738.234 V 0 H 0 Z"
         transform="translate(0,2.5000001e-5)"
         id="path2507" /></clipPath><clipPath
       clipPathUnits="userSpaceOnUse"
       id="clipPath2509"><path
         d="M 0,1205.777 H 2738.234 V 0 H 0 Z"
         transform="translate(0,2.5000001e-5)"
         id="path2509" /></clipPath><clipPath
       clipPathUnits="userSpaceOnUse"
       id="clipPath2511"><path
         d="M 0,1205.777 H 2738.234 V 0 H 0 Z"
         transform="translate(0,2.5000001e-5)"
         id="path2511" /></clipPath><clipPath
       clipPathUnits="userSpaceOnUse"
       id="clipPath2513"><path
         d="M 0,1205.777 H 2738.234 V 0 H 0 Z"
         transform="translate(0,2.5000001e-5)"
         id="path2513" /></clipPath><clipPath
       clipPathUnits="userSpaceOnUse"
       id="clipPath2515"><path
         d="M 0,1205.777 H 2738.234 V 0 H 0 Z"
         transform="translate(-1130.1741,-427.58684)"
         id="path2515" /></clipPath><clipPath
       clipPathUnits="userSpaceOnUse"
       id="clipPath2517"><path
         d="M 0,1205.777 H 2738.234 V 0 H 0 Z"
         transform="translate(-1133.0022,-428.29409)"
         id="path2517" /></clipPath><clipPath
       clipPathUnits="userSpaceOnUse"
       id="clipPath2505-0"><path
         d="M 0,1205.777 H 2738.234 V 0 H 0 Z"
         transform="translate(0,2.5000001e-5)"
         id="path2505-4" /></clipPath><clipPath
       clipPathUnits="userSpaceOnUse"
       id="clipPath2723"><path
         d="M 0,1205.777 H 2738.234 V 0 H 0 Z"
         transform="translate(-1131.5205,-527.12161)"
         id="path2723" /></clipPath><clipPath
       clipPathUnits="userSpaceOnUse"
       id="clipPath2725"><path
         d="M 0,1205.777 H 2738.234 V 0 H 0 Z"
         transform="translate(-1139.3448,-530.54301)"
         id="path2725" /></clipPath><clipPath
       clipPathUnits="userSpaceOnUse"
       id="clipPath2727"><path
         d="M 0,1205.777 H 2738.234 V 0 H 0 Z"
         transform="translate(-1132.5946,-522.10101)"
         id="path2727" /></clipPath><clipPath
       clipPathUnits="userSpaceOnUse"
       id="clipPath2729"><path
         d="M 0,1205.777 H 2738.234 V 0 H 0 Z"
         transform="translate(0,2.5000001e-5)"
         id="path2729" /></clipPath><clipPath
       clipPathUnits="userSpaceOnUse"
       id="clipPath2731"><path
         d="M 0,1205.777 H 2738.234 V 0 H 0 Z"
         transform="translate(0,2.5000001e-5)"
         id="path2731" /></clipPath></defs><g
     id="g1"
     transform="translate(-0.43216786,0.07904603)"><g
       id="g2"
       transform="translate(-0.88895097,-2.0603587)"><path
         id="path2722"
         d="M 0,0 C -0.964,0.501 -2.115,0.391 -2.865,-0.277 -4.347,-1.598 -3.94,-3.353 -6.359,-4.116 -9.178,-4.564 -2.482,-7.999 0.663,-4.399 2.345,-2.47 1.284,-0.667 0,0"
         style="fill:#000000 icc-color(Display, 0, 0, 0);fill-opacity:1;fill-rule:nonzero;stroke:none"
         transform="matrix(0.85710842,0,0,-0.85710842,11.510304,8.915007)"
         clip-path="url(#clipPath2723)" /><path
         id="path2724"
         d="m 0,0 c -0.016,0.019 -0.107,0.129 -0.151,0.181 -0.182,0.21 -0.511,0.198 -0.707,0.006 l -0.912,-0.9 c -1.921,-1.9 -3.316,-3.07 -4.186,-2.138 -0.642,0.996 0.396,2.217 2.227,4.068 L -2.747,2.21 C -2.552,2.406 -2.554,2.723 -2.75,2.917 -2.946,3.112 -3.264,3.108 -3.458,2.913 L -4.44,1.92 c -2.244,-2.269 -3.509,-3.804 -2.281,-5.421 0.007,-0.008 0.114,-0.152 0.168,-0.207 0.366,-0.366 0.787,-0.525 1.246,-0.525 1.556,0 2.565,0.821 4.391,2.628 l 0.911,0.898 C 0.192,-0.513 0.182,-0.21 0,0"
         style="fill:#000000 icc-color(Display, 0, 0, 0);fill-opacity:1;fill-rule:nonzero;stroke:none"
         transform="matrix(0.85710842,0,0,-0.85710842,18.216642,5.9824939)"
         clip-path="url(#clipPath2725)" /><path
         style="color:#000000;fill:#000000 icc-color(Display, 0, 0, 0);stroke-width:0.857108;stroke-linecap:round;stroke-miterlimit:10;stroke-dasharray:1.71421, 2.14277;-inkscape-stroke:none"
         d="m 12.727272,18.046134 -0.256129,-0.0034 -0.254454,-0.0084 -0.177448,-0.01007 -0.102113,-0.0067 a 0.53569276,0.53569276 0 0 1 -0.498863,-0.570847 0.53569276,0.53569276 0 0 1 0.570848,-0.498864 l 0.09374,0.0067 0.160708,0.0084 0.232692,0.0084 0.229344,0.0034 0.291283,-0.005 0.224321,-0.0084 a 0.53569276,0.53569276 0 0 1 0.557455,0.512257 0.53569276,0.53569276 0 0 1 -0.512256,0.557455 l -0.239388,0.01007 z m 2.233168,-0.21595 a 0.53569276,0.53569276 0 0 1 -0.622742,-0.431904 0.53569276,0.53569276 0 0 1 0.433576,-0.622742 l 0.281239,-0.0586 0.287935,-0.06697 0.28626,-0.07534 0.282914,-0.0837 0.04353,-0.01339 a 0.53569276,0.53569276 0 0 1 0.674638,0.344852 0.53569276,0.53569276 0 0 1 -0.346525,0.674637 l -0.05692,0.01842 -0.31137,0.09039 -0.313046,0.0837 -0.31472,0.07366 -0.316393,0.06529 z m -4.697355,-0.04855 -0.07199,-0.01507 -0.3113713,-0.07533 -0.3063492,-0.08036 -0.2979792,-0.08873 -0.291283,-0.09374 -0.030133,-0.01172 A 0.53569276,0.53569276 0 0 1 8.6275429,16.733681 0.53569276,0.53569276 0 0 1 9.3105511,16.407243 l 0.016741,0.005 0.2644985,0.08706 0.2711942,0.08035 0.2778912,0.07366 0.286261,0.06697 0.06194,0.01339 a 0.53569276,0.53569276 0 0 1 0.410139,0.636136 0.53569276,0.53569276 0 0 1 -0.636135,0.411813 z m 7.183305,-0.875522 a 0.53569276,0.53569276 0 0 1 -0.308023,-0.271195 0.53569276,0.53569276 0 0 1 0.24441,-0.716488 l -0.01172,0.005 0.07031,-0.04018 0.06863,-0.04185 0.06697,-0.04688 0.06194,-0.04855 0.06027,-0.0519 0.05692,-0.05357 0.05357,-0.05692 0.0519,-0.0586 0.04855,-0.06194 0.04353,-0.06362 0.04185,-0.06529 0.0385,-0.06697 0.0067,-0.01339 a 0.53569276,0.53569276 0 0 1 0.721512,-0.232691 0.53569276,0.53569276 0 0 1 0.23269,0.719837 l -0.01842,0.03683 -0.06362,0.110486 -0.06864,0.110487 -0.07533,0.105461 -0.08036,0.102112 -0.08537,0.09876 -0.09039,0.09374 -0.09542,0.09039 -0.100438,0.08704 -0.105461,0.08202 -0.108812,0.07534 -0.115509,0.07198 -0.118856,0.06697 -0.01172,0.0067 a 0.53569276,0.53569276 0 0 1 -0.410139,0.02679 z M 7.8173125,16.792279 A 0.53569276,0.53569276 0 0 1 7.4088468,16.765493 L 7.3937805,16.7588 7.1543927,16.633245 6.9233752,16.507691 6.7007279,16.37879 6.4847768,16.248216 6.2771958,16.117641 6.231997,16.087508 A 0.53569276,0.53569276 0 0 1 6.0796595,15.345909 0.53569276,0.53569276 0 0 1 6.8212591,15.193571 l 0.035155,0.02344 0.1908399,0.118856 0.1975368,0.118857 0.2042329,0.118856 0.210929,0.115509 0.2176252,0.113835 0.00502,0.0017 a 0.53569276,0.53569276 0 0 1 0.2427357,0.718164 0.53569276,0.53569276 0 0 1 -0.3080233,0.26952 z M 5.2727718,15.208637 A 0.53569276,0.53569276 0 0 1 4.8827206,15.079736 L 4.7605157,14.972597 4.6316146,14.857088 4.5060616,14.743253 4.4123155,14.651185 4.3202437,14.550747 4.2331932,14.44696 4.1528393,14.339821 4.079182,14.229335 4.0105461,14.117174 3.9469327,13.999991 3.9168001,13.934699 a 0.53569276,0.53569276 0 0 1 0.2527801,-0.713141 0.53569276,0.53569276 0 0 1 0.7131411,0.252781 l 0.020088,0.04018 0.036829,0.07031 0.041851,0.06697 0.043525,0.06529 0.048547,0.06529 0.051895,0.06194 0.055243,0.06027 0.063613,0.06194 0.105464,0.09709 0.1171823,0.103787 0.1188568,0.102112 a 0.53569276,0.53569276 0 0 1 0.05357,0.756666 A 0.53569276,0.53569276 0 0 1 5.27277,15.208665 Z M 18.822451,14.448623 a 0.53569276,0.53569276 0 0 1 -0.652876,-0.381682 l -0.0034,-0.01007 -0.02344,-0.07701 -0.02846,-0.07701 -0.03348,-0.07533 -0.03683,-0.07533 -0.04018,-0.07199 -0.04353,-0.06864 -0.0452,-0.06529 -0.04855,-0.06194 -0.0519,-0.06027 -0.05357,-0.05692 -0.05692,-0.05525 -0.05525,-0.04688 a 0.53569276,0.53569276 0 0 1 -0.05524,-0.754991 0.53569276,0.53569276 0 0 1 0.756666,-0.05525 l 0.07365,0.06362 0.09542,0.09039 0.09039,0.09542 0.08537,0.100438 0.08202,0.105461 0.07701,0.110487 0.07198,0.113834 0.06697,0.118858 0.06027,0.123878 0.05525,0.125553 0.04688,0.128901 0.04018,0.128901 0.01007,0.03516 a 0.53569276,0.53569276 0 0 1 -0.383354,0.652876 z m -6.039936,-0.688031 -0.187492,-0.0017 -0.180797,-0.005 a 0.53569276,0.53569276 0 0 1 -0.518952,-0.552433 0.53569276,0.53569276 0 0 1 0.552433,-0.518952 l 0.16573,0.005 0.159034,0.0017 0.1741,-0.005 0.172425,-0.0084 0.174101,-0.01339 0.172426,-0.01674 0.1741,-0.02344 a 0.53569276,0.53569276 0 0 1 0.60935,0.446969 0.53569276,0.53569276 0 0 1 -0.446968,0.612698 l -0.01007,0.0017 -0.200885,0.02511 -0.20256,0.02176 -0.200884,0.01507 -0.202559,0.01007 z m 2.686834,-0.517278 a 0.53569276,0.53569276 0 0 1 -0.691378,-0.308024 0.53569276,0.53569276 0 0 1 0.308023,-0.691378 l 0.0837,-0.03181 0.164056,-0.06864 0.1741,-0.07701 0.117183,-0.05022 0.127227,-0.04855 0.128901,-0.04018 0.128901,-0.03348 0.130575,-0.02679 0.130575,-0.02176 0.130575,-0.01339 0.07032,-0.0034 a 0.53569276,0.53569276 0 0 1 0.565825,0.50389 0.53569276,0.53569276 0 0 1 -0.503886,0.565825 l -0.0452,0.0017 -0.07869,0.0084 -0.07701,0.01339 -0.07869,0.01507 -0.07701,0.02009 -0.07869,0.02511 -0.07701,0.02846 -0.08537,0.03683 -0.177448,0.08036 -0.19084,0.07868 z M 4.1260546,12.638986 a 0.53569276,0.53569276 0 0 1 -0.3364818,-0.67966 l 0.030136,-0.09039 0.048547,-0.122204 0.05357,-0.120532 0.060265,-0.117182 0.066962,-0.115509 0.071983,-0.11216 0.07868,-0.110487 0.085375,-0.107139 0.088725,-0.100438 0.06194,-0.06362 0.061939,-0.06027 0.06194,-0.05692 0.066962,-0.0586 0.071983,-0.05525 a 0.53569276,0.53569276 0 0 1 0.7516402,0.09207 0.53569276,0.53569276 0 0 1 -0.092072,0.751643 l -0.051895,0.04018 -0.035155,0.03013 -0.036829,0.03516 -0.036829,0.03683 -0.035155,0.03516 -0.056917,0.06362 -0.051896,0.06529 -0.046873,0.06529 -0.043525,0.06697 -0.040176,0.07031 -0.035155,0.07031 -0.031807,0.07198 -0.030133,0.07199 -0.021763,0.06697 A 0.53569276,0.53569276 0 0 1 4.1260543,12.63901 Z m 2.477579,-1.438 -0.1121607,-0.01339 h 0.016741 A 0.53569276,0.53569276 0 0 1 6.0076755,10.618419 0.53569276,0.53569276 0 0 1 6.5785231,10.119555 h 0.01674 l 0.143968,0.01842 a 0.53569276,0.53569276 0 0 1 0.463709,0.599306 0.53569276,0.53569276 0 0 1 -0.5993062,0.46371 z"
         id="path2726" /><path
         id="path2728"
         d="m 1129.234,531.354 h -7 v 1 h 7 z"
         style="fill:#000000 icc-color(Display, 0, 0, 0);fill-opacity:1;fill-rule:nonzero;stroke:none"
         transform="matrix(0.85710842,0,0,-0.85710842,-958.3254,460.7154)"
         clip-path="url(#clipPath2729)" /></g></g></svg>
