<?xml version="1.0" encoding="UTF-8" standalone="no"?>
<svg
   id="b"
   width="20"
   height="16"
   viewBox="0 0 20 16"
   version="1.1"
   sodipodi:docname="tool-pencil.svg"
   inkscape:version="1.3.1 (91b66b0, 2023-11-16)"
   xml:space="preserve"
   xmlns:inkscape="http://www.inkscape.org/namespaces/inkscape"
   xmlns:sodipodi="http://sodipodi.sourceforge.net/DTD/sodipodi-0.dtd"
   xmlns="http://www.w3.org/2000/svg"
   xmlns:svg="http://www.w3.org/2000/svg"><sodipodi:namedview
     id="namedview3"
     pagecolor="#ffffff"
     bordercolor="#000000"
     borderopacity="0.25"
     inkscape:showpageshadow="2"
     inkscape:pageopacity="0.0"
     inkscape:pagecheckerboard="0"
     inkscape:deskcolor="#d1d1d1"
     inkscape:zoom="14.75"
     inkscape:cx="5.9661017"
     inkscape:cy="8.5423729"
     inkscape:window-width="1312"
     inkscape:window-height="605"
     inkscape:window-x="37"
     inkscape:window-y="257"
     inkscape:window-maximized="0"
     inkscape:current-layer="g1" /><defs
     id="defs1"><style
       id="style1">.e{stroke:#000;stroke-linecap:round;stroke-linejoin:round;}.e,.f{fill:none;}.f{opacity:.2;stroke-width:0px;}</style><clipPath
       clipPathUnits="userSpaceOnUse"
       id="clipPath3761"><path
         d="M 0,1205.777 H 2738.234 V 0 H 0 Z"
         transform="translate(-1062.36,-340.07301)"
         id="path3761" /></clipPath><clipPath
       clipPathUnits="userSpaceOnUse"
       id="clipPath3763"><path
         d="M 0,1205.777 H 2738.234 V 0 H 0 Z"
         transform="translate(-1062.2632,-337.60821)"
         id="path3763" /></clipPath><clipPath
       clipPathUnits="userSpaceOnUse"
       id="clipPath3765"><path
         d="M 0,1205.777 H 2738.234 V 0 H 0 Z"
         transform="translate(-1062.2632,-335.39121)"
         id="path3765" /></clipPath><clipPath
       clipPathUnits="userSpaceOnUse"
       id="clipPath3767"><path
         d="M 0,1205.777 H 2738.234 V 0 H 0 Z"
         transform="translate(-1062.4291,-333.34101)"
         id="path3767" /></clipPath><clipPath
       clipPathUnits="userSpaceOnUse"
       id="clipPath3769"><path
         d="M 0,1205.777 H 2738.234 V 0 H 0 Z"
         transform="translate(-1062.9171,-331.61488)"
         id="path3769" /></clipPath><clipPath
       clipPathUnits="userSpaceOnUse"
       id="clipPath3771"><path
         d="M 0,1205.777 H 2738.234 V 0 H 0 Z"
         transform="translate(-1063.7688,-330.25498)"
         id="path3771" /></clipPath><clipPath
       clipPathUnits="userSpaceOnUse"
       id="clipPath3773"><path
         d="M 0,1205.777 H 2738.234 V 0 H 0 Z"
         transform="translate(-1064.9308,-329.20708)"
         id="path3773" /></clipPath><clipPath
       clipPathUnits="userSpaceOnUse"
       id="clipPath3775"><path
         d="M 0,1205.777 H 2738.234 V 0 H 0 Z"
         transform="translate(-1066.5945,-328.66393)"
         id="path3775" /></clipPath><clipPath
       clipPathUnits="userSpaceOnUse"
       id="clipPath3777"><path
         d="M 0,1205.777 H 2738.234 V 0 H 0 Z"
         transform="translate(-1069.0444,-328.91211)"
         id="path3777" /></clipPath><clipPath
       clipPathUnits="userSpaceOnUse"
       id="clipPath3918"><path
         d="M 0,1205.777 H 2738.234 V 0 H 0 Z"
         transform="translate(-964.05505,-422.70974)"
         id="path3918" /></clipPath><clipPath
       clipPathUnits="userSpaceOnUse"
       id="clipPath3920"><path
         d="M 0,1205.777 H 2738.234 V 0 H 0 Z"
         transform="translate(-975.25705,-427.27334)"
         id="path3920" /></clipPath><clipPath
       clipPathUnits="userSpaceOnUse"
       id="clipPath3922"><path
         d="M 0,1205.777 H 2738.234 V 0 H 0 Z"
         transform="translate(-965.65892,-422.15909)"
         id="path3922" /></clipPath><clipPath
       clipPathUnits="userSpaceOnUse"
       id="clipPath3924"><path
         d="M 0,1205.777 H 2738.234 V 0 H 0 Z"
         transform="translate(-967.69502,-426.07514)"
         id="path3924" /></clipPath><clipPath
       clipPathUnits="userSpaceOnUse"
       id="clipPath3926"><path
         d="M 0,1205.777 H 2738.234 V 0 H 0 Z"
         transform="translate(-966.9304,-423.85139)"
         id="path3926" /></clipPath><clipPath
       clipPathUnits="userSpaceOnUse"
       id="clipPath3928"><path
         d="M 0,1205.777 H 2738.234 V 0 H 0 Z"
         transform="translate(-975.6979,-429.85529)"
         id="path3928" /></clipPath><clipPath
       clipPathUnits="userSpaceOnUse"
       id="clipPath3930"><path
         d="M 0,1205.777 H 2738.234 V 0 H 0 Z"
         transform="translate(-973.447,-432.10731)"
         id="path3930" /></clipPath><clipPath
       clipPathUnits="userSpaceOnUse"
       id="clipPath2494"><path
         d="M 0,1205.777 H 2738.234 V 0 H 0 Z"
         transform="translate(-1006.1637,-427.52789)"
         id="path2494" /></clipPath><clipPath
       clipPathUnits="userSpaceOnUse"
       id="clipPath2505"><path
         d="M 0,1205.777 H 2738.234 V 0 H 0 Z"
         transform="translate(0,2.5000001e-5)"
         id="path2505" /></clipPath><clipPath
       clipPathUnits="userSpaceOnUse"
       id="clipPath2507"><path
         d="M 0,1205.777 H 2738.234 V 0 H 0 Z"
         transform="translate(0,2.5000001e-5)"
         id="path2507" /></clipPath><clipPath
       clipPathUnits="userSpaceOnUse"
       id="clipPath2509"><path
         d="M 0,1205.777 H 2738.234 V 0 H 0 Z"
         transform="translate(0,2.5000001e-5)"
         id="path2509" /></clipPath><clipPath
       clipPathUnits="userSpaceOnUse"
       id="clipPath2511"><path
         d="M 0,1205.777 H 2738.234 V 0 H 0 Z"
         transform="translate(0,2.5000001e-5)"
         id="path2511" /></clipPath><clipPath
       clipPathUnits="userSpaceOnUse"
       id="clipPath2513"><path
         d="M 0,1205.777 H 2738.234 V 0 H 0 Z"
         transform="translate(0,2.5000001e-5)"
         id="path2513" /></clipPath><clipPath
       clipPathUnits="userSpaceOnUse"
       id="clipPath2515"><path
         d="M 0,1205.777 H 2738.234 V 0 H 0 Z"
         transform="translate(-1130.1741,-427.58684)"
         id="path2515" /></clipPath><clipPath
       clipPathUnits="userSpaceOnUse"
       id="clipPath2517"><path
         d="M 0,1205.777 H 2738.234 V 0 H 0 Z"
         transform="translate(-1133.0022,-428.29409)"
         id="path2517" /></clipPath><clipPath
       clipPathUnits="userSpaceOnUse"
       id="clipPath2505-0"><path
         d="M 0,1205.777 H 2738.234 V 0 H 0 Z"
         transform="translate(0,2.5000001e-5)"
         id="path2505-4" /></clipPath></defs><g
     id="g1"
     transform="translate(-0.43216786,0.07904603)"><g
       id="g2"
       transform="translate(-7.1051271,-1.463996)"><path
         d="m 10.88917,15.94795 c -0.552,-0.562 -1.211,-1.409 -1.321,-2.511 v -10e-4 c -0.128,-1.268 0.536,-2.227 1.184,-3.171 0.778,-1.132 1.538,-2.247 1.458,-3.64 -0.064,-1.124 -0.665,-2.673 -3.22,-4.387 l -0.558,0.831 c 2.141,1.435 2.726,2.672 2.78,3.613 v 0 c 0.067,1.165 -0.634,2.071 -1.284,3.017 -0.779,1.135 -1.509,2.313 -1.356,3.837 0.136,1.36 0.923,2.419 1.603,3.112 z"
         id="path1933"
         style="clip-rule:evenodd;fill-rule:evenodd;stroke-linejoin:round;stroke-miterlimit:2" /><path
         d="m 21.73417,11.73495 c -0.066,0 -0.133,-0.017 -0.193,-0.047 -0.162,-0.084 -0.251,-0.262 -0.221,-0.443 l 0.347,-2.025 c 0,0 -2.133,0.27 -2.139,0.27 -0.157,0 -0.262,-0.047 -0.338,-0.126 -0.091,-0.095 -0.133,-0.23 -0.112,-0.361 l 0.34,-2.033 c 0,0 -2.121,0.277 -2.125,0.277 -0.206,0 -0.35,-0.092 -0.419,-0.232 -0.08,-0.162 -0.048,-0.355 0.08,-0.482 l 4.488,-4.489 c 0.079,-0.08 0.185,-0.123 0.296,-0.123 0.112,0 0.218,0.043 0.298,0.124 0.079,0.079 0.123,0.184 0.123,0.296 0,0.113 -0.044,0.218 -0.123,0.296 l -3.616,3.618 c 0,0 1.462,-0.191 1.468,-0.191 0.158,0 0.263,0.047 0.339,0.125 0.091,0.095 0.133,0.23 0.111,0.36 l -0.339,2.037 c 0,0 2.134,-0.271 2.14,-0.271 0.158,0 0.262,0.046 0.34,0.127 0.091,0.096 0.133,0.23 0.109,0.36 l -0.218,1.284 3.556,-3.557 c 0.079,-0.079 0.184,-0.123 0.296,-0.123 0.113,0 0.218,0.044 0.298,0.123 0.163,0.164 0.163,0.431 0,0.595 l -4.489,4.488 c -0.079,0.079 -0.185,0.123 -0.297,0.123"
         style="clip-rule:evenodd;fill-rule:nonzero;stroke-linejoin:round;stroke-miterlimit:2"
         id="path1934" /><path
         d="m 12.13617,16.84895 c -0.109,0 -0.218,-0.045 -0.297,-0.124 -0.122,-0.122 -0.157,-0.311 -0.086,-0.468 l 3.615,-8.1 c 0.021,-0.047 0.05,-0.089 0.087,-0.126 l 1.607,-1.609 c 0.08,-0.079 0.186,-0.122 0.298,-0.122 0.112,0 0.217,0.043 0.296,0.122 0.079,0.08 0.123,0.186 0.123,0.298 0,0.112 -0.044,0.218 -0.123,0.296 l -1.54,1.541 -3.148,7.038 7.043,-3.161 1.537,-1.526 c 0.079,-0.08 0.184,-0.123 0.296,-0.123 0.112,0 0.217,0.043 0.297,0.123 0.079,0.079 0.123,0.183 0.123,0.295 0.001,0.113 -0.043,0.219 -0.123,0.299 l -1.574,1.574 c -0.036,0.036 -0.078,0.065 -0.125,0.086 l -8.134,3.65 c -0.056,0.024 -0.114,0.037 -0.172,0.037"
         style="clip-rule:evenodd;fill-rule:nonzero;stroke-linejoin:round;stroke-miterlimit:2"
         id="path1935" /><path
         d="m 14.17217,12.93295 1.459,1.458 -2.947,1.488 z"
         style="clip-rule:evenodd;fill-rule:nonzero;stroke-linejoin:round;stroke-miterlimit:2"
         id="path1936" /><path
         d="m 13.40717,15.15695 1.686,-0.851 -0.834,-0.834 z m -0.95,1.369 c -0.112,0 -0.217,-0.044 -0.296,-0.122 -0.129,-0.129 -0.161,-0.324 -0.078,-0.485 l 1.687,-3.344 c 0.061,-0.12 0.177,-0.204 0.307,-0.225 h 0.031 c 0.16,0 0.26,0.044 0.334,0.118 l 1.654,1.654 c 0.095,0.095 0.139,0.231 0.118,0.364 -0.021,0.132 -0.105,0.247 -0.225,0.309 l -3.342,1.687 c -0.059,0.029 -0.123,0.044 -0.19,0.044"
         style="clip-rule:evenodd;fill-rule:nonzero;stroke-linejoin:round;stroke-miterlimit:2"
         id="path1937" /><path
         d="m 22.17517,9.15295 c -0.112,0 -0.217,-0.044 -0.297,-0.124 -0.079,-0.078 -0.123,-0.184 -0.123,-0.296 0,-0.112 0.044,-0.218 0.123,-0.298 l 2.978,-2.976 c 0.079,-0.079 0.184,-0.123 0.296,-0.123 0.112,0 0.218,0.044 0.297,0.123 0.164,0.164 0.164,0.43 0,0.594 l -2.977,2.977 c -0.079,0.079 -0.185,0.123 -0.297,0.123"
         style="clip-rule:evenodd;fill-rule:nonzero;stroke-linejoin:round;stroke-miterlimit:2"
         id="path1938" /><path
         d="m 19.92417,6.90095 c -0.112,0 -0.218,-0.044 -0.297,-0.123 -0.079,-0.079 -0.123,-0.185 -0.123,-0.297 0,-0.112 0.043,-0.218 0.123,-0.298 l 2.977,-2.976 c 0.08,-0.079 0.185,-0.123 0.298,-0.123 0.111,0 0.217,0.044 0.296,0.123 0.08,0.079 0.123,0.184 0.123,0.297 0,0.112 -0.043,0.217 -0.123,0.295 l -2.978,2.979 c -0.079,0.079 -0.184,0.123 -0.296,0.123"
         style="clip-rule:evenodd;fill-rule:nonzero;stroke-linejoin:round;stroke-miterlimit:2"
         id="path1939" /></g></g></svg>
