<?xml version="1.0" encoding="UTF-8" standalone="no"?>
<!-- Created with Inkscape (http://www.inkscape.org/) -->

<svg
   width="18"
   height="16"
   viewBox="0 0 4.7624999 4.2333333"
   version="1.1"
   id="svg1"
   xmlns="http://www.w3.org/2000/svg"
   xmlns:svg="http://www.w3.org/2000/svg">
  <defs
     id="defs1" />
  <path
     d="m 2.940844,3.3553139 c 0.017992,-0.016404 0.027252,-0.038629 0.027252,-0.066675 l 0.04789,-1.6883062 c 0,-0.026723 -0.00873,-0.048683 -0.026194,-0.065881 -0.017727,-0.016933 -0.04154,-0.025665 -0.071438,-0.025665 -0.026988,0 -0.049212,0.00847 -0.067469,0.024871 -0.017992,0.016669 -0.027517,0.038894 -0.028575,0.066675 L 2.775743,3.2886389 c -0.00106,0.026988 0.00714,0.048948 0.024871,0.065881 0.017463,0.017198 0.041275,0.025665 0.071173,0.025665 0.028046,0 0.051065,-0.00847 0.069056,-0.024871 M 2.4532169,3.3545201 c 0.018785,-0.016933 0.028046,-0.038894 0.028046,-0.065881 V 1.6003327 c 0,-0.026723 -0.00926,-0.048683 -0.028046,-0.065881 -0.018521,-0.016933 -0.042333,-0.025665 -0.071173,-0.025665 -0.030162,0 -0.05424,0.00873 -0.073025,0.025665 -0.018521,0.017198 -0.027781,0.039158 -0.027781,0.065881 v 1.6883062 c 0,0.026988 0.00926,0.048948 0.027781,0.065881 0.018785,0.017198 0.042863,0.025665 0.073025,0.025665 0.02884,0 0.052652,-0.00847 0.071173,-0.025665 m -0.4913312,0 c 0.017462,-0.016933 0.025665,-0.038894 0.024871,-0.065881 L 1.9401898,1.5987452 c -0.00106,-0.026723 -0.010583,-0.048419 -0.028839,-0.065087 -0.017992,-0.016404 -0.040481,-0.024871 -0.067469,-0.024871 -0.029898,0 -0.05371,0.00873 -0.071173,0.025665 -0.017462,0.017198 -0.026458,0.039158 -0.026458,0.065881 l 0.048154,1.6883062 c 0,0.028046 0.009,0.050271 0.027252,0.066675 0.017992,0.016404 0.04101,0.024871 0.068792,0.024871 0.030163,0 0.05371,-0.00847 0.071438,-0.025665 M 1.6843378,0.78806185 c 0,-0.1169458 0.035983,-0.20902079 0.1076854,-0.27675413 0.071967,-0.0677333 0.1698625,-0.10159999 0.2939521,-0.10159999 h 0.5873749 c 0.1240896,0 0.2219855,0.0338667 0.2939521,0.10159999 0.071702,0.0677333 0.1076854,0.15980833 0.1076854,0.27675413 V 1.0748702 H 2.7958523 V 0.80340775 c 0,-0.039158 -0.012435,-0.070644 -0.037042,-0.094456 -0.024871,-0.023813 -0.058473,-0.035719 -0.1008063,-0.035719 H 2.1029086 c -0.042333,0 -0.075935,0.011906 -0.1008063,0.035719 -0.024871,0.023813 -0.037042,0.055298 -0.037042,0.094456 V 1.0748702 H 1.6843378 Z M 1.4184315,3.7461035 C 1.3631336,3.6942451 1.3335003,3.6204264 1.3292669,3.5243826 L 1.2300482,1.2592847 H 0.99589199 c -0.0309562,0 -0.0579437,-0.011642 -0.0812271,-0.034925 -0.0232833,-0.023283 -0.034925,-0.0508 -0.034925,-0.082815 0,-0.030956 0.0116417,-0.058208 0.034925,-0.081492 0.0232833,-0.023283 0.0502708,-0.034925 0.0812271,-0.034925 H 3.766344 c 0.032015,0 0.059531,0.011377 0.082285,0.034131 0.022754,0.022754 0.034131,0.050271 0.034131,0.082285 0,0.032015 -0.011377,0.059531 -0.034131,0.082815 -0.022754,0.023283 -0.050271,0.034925 -0.082285,0.034925 H 3.5337752 l -0.099219,2.2650979 c -0.00397,0.096044 -0.033867,0.1698625 -0.089165,0.2217209 -0.055298,0.051594 -0.1309687,0.077523 -0.2270125,0.077523 H 1.6441211 c -0.09525,0 -0.1703917,-0.025929 -0.2256896,-0.077523"
     style="clip-rule:evenodd;fill:#000000;fill-rule:nonzero;stroke-width:0.264583;stroke-linejoin:round;stroke-miterlimit:2"
     id="path1359" />
</svg>
