<?xml version="1.0" encoding="UTF-8" standalone="no"?>
<!DOCTYPE svg PUBLIC "-//W3C//DTD SVG 1.1//EN" "http://www.w3.org/Graphics/SVG/1.1/DTD/svg11.dtd">
<svg width="100%" height="100%" viewBox="0 0 55 54" version="1.1" xmlns="http://www.w3.org/2000/svg" xmlns:xlink="http://www.w3.org/1999/xlink" xml:space="preserve" xmlns:serif="http://www.serif.com/" style="fill-rule:evenodd;clip-rule:evenodd;stroke-linejoin:round;stroke-miterlimit:2;">
    <g transform="matrix(0.970078,0,0,0.965591,-92.0874,-76.4364)">
        <g transform="matrix(1,0,0,-1,0,241.23)">
            <path d="M122.502,107.458C122.498,108.476 122.502,109.493 122.466,110.511C122.428,111.529 122.388,112.547 122.401,113.565C122.391,120.352 122.393,127.132 122.389,133.915C122.389,134.124 122.06,134.124 122.06,133.915C122.055,127.132 122.057,120.352 122.047,113.565C122.061,112.547 122.02,111.529 121.982,110.511C121.946,109.493 121.95,108.476 121.947,107.458C121.947,107.106 122.502,107.106 122.502,107.458Z" style="fill-rule:nonzero;"/>
        </g>
        <g transform="matrix(1,0,0,-1,0,257.064)">
            <path d="M123.761,123.308C123.658,125.766 123.45,128.22 123.352,130.678C123.3,131.731 123.248,132.785 123.196,133.838C123.185,134.046 122.857,134.03 122.867,133.822C122.98,131.364 123.125,128.907 123.2,126.448C123.234,125.394 123.291,124.341 123.337,123.287C123.35,123.018 123.774,123.039 123.761,123.308Z" style="fill-rule:nonzero;"/>
        </g>
        <g transform="matrix(1,0,0,-1,0,257.022)">
            <path d="M121.116,123.291C121.224,125.388 121.267,127.488 121.378,129.585C121.444,130.983 121.514,132.381 121.581,133.78C121.591,133.988 121.263,134.004 121.253,133.796C121.127,131.349 121.023,128.902 120.867,126.456C120.798,125.409 120.743,124.36 120.687,123.312C120.674,123.039 121.103,123.018 121.116,123.291Z" style="fill-rule:nonzero;"/>
        </g>
        <g transform="matrix(1,0,0,-1,0,248.827)">
            <path d="M125.139,115.153C125.062,115.857 124.984,116.56 124.907,117.264C124.828,117.967 124.714,118.666 124.634,119.37C124.343,122.18 124.068,125.029 123.786,127.859C123.77,128.028 123.753,128.196 123.736,128.365C123.556,130.195 123.375,132.025 123.194,133.855C123.174,134.063 122.847,134.031 122.867,133.823C123.044,132.021 123.221,130.219 123.398,128.417C123.415,128.248 123.431,128.08 123.448,127.911C123.725,125.061 124.013,122.195 124.278,119.363C124.339,118.653 124.363,117.94 124.423,117.23C124.484,116.52 124.546,115.811 124.608,115.101C124.641,114.764 125.172,114.816 125.139,115.153Z" style="fill-rule:nonzero;"/>
        </g>
        <g transform="matrix(1,0,0,-1,0,248.711)">
            <path d="M119.83,115.077C119.983,116.795 120.165,118.509 120.278,120.231C120.382,121.603 120.535,122.993 120.665,124.374C120.973,127.485 121.277,130.596 121.581,133.707C121.602,133.915 121.275,133.947 121.254,133.739C120.84,129.592 120.437,125.443 120.022,121.296C119.958,120.608 119.854,119.926 119.775,119.241C119.619,117.87 119.483,116.497 119.337,115.126C119.307,114.813 119.799,114.764 119.83,115.077Z" style="fill-rule:nonzero;"/>
        </g>
        <g transform="matrix(1,0,0,-1,0,256.724)">
            <path d="M126.415,123.19C126.109,125.289 125.727,127.377 125.427,129.476C125.219,130.875 125.009,132.273 124.801,133.672C124.77,133.879 124.445,133.83 124.476,133.624C124.828,131.175 125.219,128.731 125.536,126.276C125.673,125.224 125.824,124.175 125.974,123.125C126.016,122.845 126.457,122.91 126.415,123.19Z" style="fill-rule:nonzero;"/>
        </g>
        <g transform="matrix(-0.993829,-0.110924,0.110924,-0.993829,223.061,268.987)">
            <path d="M118.964,123.087C118.847,126.575 118.756,130.063 118.634,133.551C118.627,133.76 118.956,133.772 118.964,133.563C119.094,130.076 119.255,126.59 119.39,123.102C119.4,122.831 118.974,122.816 118.964,123.087Z" style="fill-rule:nonzero;"/>
        </g>
        <g transform="matrix(1,0,0,-1,0,244.373)">
            <path d="M127.784,111.056C127.641,111.738 127.501,112.421 127.365,113.104C127.232,113.789 127.091,114.471 126.931,115.15C126.766,115.828 126.607,116.507 126.458,117.188C125.36,122.656 124.275,128.109 123.188,133.57C123.147,133.775 122.825,133.711 122.866,133.506C123.952,128.044 125.036,122.591 126.114,117.119C126.308,116.092 126.44,115.052 126.637,114.025C126.836,112.999 127.046,111.975 127.235,110.947C127.304,110.598 127.854,110.707 127.784,111.056Z" style="fill-rule:nonzero;"/>
        </g>
        <g transform="matrix(1,0,0,-1,0,244.171)">
            <path d="M117.233,110.926C117.427,111.928 117.623,112.929 117.816,113.931C117.935,114.601 118.084,115.265 118.179,115.94C118.339,116.948 118.529,117.951 118.734,118.951C118.999,120.285 119.261,121.62 119.527,122.954C119.543,123.036 119.56,123.119 119.576,123.202C120.244,126.57 120.915,129.936 121.583,133.304C121.624,133.509 121.301,133.573 121.261,133.368C120.594,130.029 119.932,126.689 119.265,123.35C119.249,123.267 119.232,123.184 119.216,123.102C118.883,121.423 118.543,119.745 118.211,118.065C118.092,117.39 117.914,116.727 117.768,116.057C117.598,115.393 117.477,114.719 117.331,114.049C117.125,113.043 116.922,112.036 116.716,111.029C116.65,110.7 117.168,110.598 117.233,110.926Z" style="fill-rule:nonzero;"/>
        </g>
        <g transform="matrix(-0.96065,0.27776,-0.27776,-0.96065,285.64,215.498)">
            <path d="M127.55,122.688C127.436,126.247 127.353,129.805 127.222,133.362C127.214,133.57 127.543,133.583 127.55,133.374C127.676,129.817 127.85,126.261 127.991,122.704C128.001,122.424 127.56,122.408 127.55,122.688Z" style="fill-rule:nonzero;"/>
        </g>
        <g transform="matrix(-0.978129,-0.208001,0.208001,-0.978129,204.701,277.253)">
            <path d="M116.882,122.676C116.787,126.158 116.687,129.64 116.553,133.121C116.545,133.33 116.874,133.341 116.882,133.133C116.998,129.651 117.149,126.171 117.304,122.69C117.314,122.423 116.891,122.407 116.882,122.676Z" style="fill-rule:nonzero;"/>
        </g>
        <g transform="matrix(1,0,0,-1,0,247.582)">
            <path d="M130.337,114.848C129.299,118.209 128.271,121.572 127.222,124.911C126.39,127.588 125.587,130.275 124.77,132.957C124.709,133.156 124.394,133.061 124.455,132.861C125.465,129.505 126.508,126.159 127.476,122.79C127.772,121.781 128.084,120.779 128.381,119.767C128.885,118.082 129.372,116.393 129.887,114.712C129.973,114.426 130.423,114.563 130.337,114.848Z" style="fill-rule:nonzero;"/>
        </g>
        <g transform="matrix(1,0,0,-1,0,247.333)">
            <path d="M114.647,114.72C114.848,115.382 115.024,116.052 115.22,116.715C115.421,117.377 115.617,118.04 115.798,118.708C116.178,120.039 116.59,121.359 116.987,122.684C117.988,125.994 118.99,129.303 119.993,132.612C120.054,132.812 119.739,132.907 119.679,132.708C118.373,128.406 117.068,124.105 115.755,119.806C115.559,119.142 115.329,118.489 115.12,117.83C114.828,116.834 114.489,115.853 114.184,114.861C114.095,114.567 114.558,114.426 114.647,114.72Z" style="fill-rule:nonzero;"/>
        </g>
        <g transform="matrix(1,0,0,-1,0,254.786)">
            <path d="M131.592,122.438C130.999,124.055 130.412,125.674 129.827,127.294C129.807,127.347 129.788,127.4 129.769,127.453C129.154,129.152 128.545,130.853 127.922,132.549C127.852,132.746 127.542,132.635 127.612,132.438C128.198,130.759 128.796,129.084 129.39,127.407C129.408,127.354 129.427,127.301 129.446,127.248C130.03,125.598 130.613,123.947 131.19,122.295C131.281,122.04 131.683,122.183 131.592,122.438Z" style="fill-rule:nonzero;"/>
        </g>
        <g transform="matrix(-0.952867,-0.303389,0.303389,-0.952867,185.772,283.336)">
            <path d="M114.858,122.052C114.741,125.529 114.668,129.008 114.529,132.485C114.522,132.694 114.85,132.706 114.858,132.497C114.965,129.019 115.137,125.543 115.266,122.066C115.276,121.806 114.867,121.792 114.858,122.052Z" style="fill-rule:nonzero;"/>
        </g>
        <g transform="matrix(1,0,0,-1,0,240.862)">
            <path d="M132.913,108.991C132.129,110.846 131.339,112.699 130.547,114.552C130.145,115.476 129.789,116.418 129.399,117.347C129.138,117.966 128.881,118.586 128.623,119.206C127.859,121.073 127.015,122.906 126.254,124.773C125.225,127.257 124.203,129.745 123.163,132.224C123.083,132.417 122.78,132.291 122.859,132.098C124.373,128.36 125.982,124.66 127.445,120.901C128.204,119.031 128.959,117.165 129.753,115.313C130.392,113.761 131.005,112.198 131.638,110.643C131.889,110.02 132.138,109.396 132.394,108.775C132.53,108.445 133.05,108.66 132.913,108.991Z" style="fill-rule:nonzero;"/>
        </g>
        <g transform="matrix(1,0,0,-1,0,240.482)">
            <path d="M112.166,108.74C112.822,110.34 113.501,111.931 114.127,113.543C114.372,114.19 114.605,114.843 114.874,115.48C117.112,120.919 119.351,126.305 121.589,131.718C121.669,131.911 121.365,132.037 121.285,131.844C119.04,126.434 116.815,121.042 114.551,115.614C114.159,114.653 113.695,113.722 113.292,112.766C112.762,111.488 112.228,110.212 111.701,108.933C111.578,108.637 112.043,108.445 112.166,108.74Z" style="fill-rule:nonzero;"/>
        </g>
        <g transform="matrix(1,0,0,-1,0,253.259)">
            <path d="M134.106,121.879C132.511,125.124 130.973,128.396 129.408,131.655C129.318,131.844 129.021,131.703 129.11,131.514C130.333,128.893 131.573,126.281 132.775,123.65C133.075,122.992 133.379,122.335 133.686,121.681C133.812,121.415 134.232,121.613 134.106,121.879Z" style="fill-rule:nonzero;"/>
        </g>
        <g transform="matrix(-0.918485,-0.395455,0.395455,-0.918485,166.656,287.203)">
            <path d="M112.895,121.24C112.774,124.718 112.683,128.198 112.566,131.676C112.559,131.885 112.888,131.897 112.895,131.688C113.024,128.21 113.177,124.732 113.301,121.254C113.311,120.995 112.904,120.981 112.895,121.24Z" style="fill-rule:nonzero;"/>
        </g>
        <g transform="matrix(1,0,0,-1,0,245.136)">
            <path d="M135.35,114.35C135.03,114.941 134.669,115.511 134.358,116.107C131.603,121.115 128.935,126.132 126.247,131.158C126.149,131.342 125.859,131.187 125.957,131.003C128.642,125.976 131.332,120.97 133.965,115.897C134.288,115.307 134.561,114.69 134.875,114.096C135.037,113.794 135.512,114.048 135.35,114.35Z" style="fill-rule:nonzero;"/>
        </g>
        <g transform="matrix(-0.891603,-0.452817,0.452817,-0.891603,160.058,282.989)">
            <path d="M113.851,113.065C113.733,119.278 113.681,125.509 113.523,131.73C113.518,131.939 113.846,131.946 113.851,131.737C113.953,125.516 114.162,119.287 114.305,113.075C114.31,112.787 113.857,112.778 113.851,113.065Z" style="fill-rule:nonzero;"/>
        </g>
        <g transform="matrix(1,0,0,-1,0,251.295)">
            <path d="M136.493,121.117C134.592,124.226 132.687,127.334 130.824,130.466C130.717,130.645 130.435,130.476 130.542,130.297C131.663,128.419 132.798,126.55 133.9,124.661C134.64,123.405 135.377,122.147 136.115,120.89C136.259,120.65 136.637,120.877 136.493,121.117Z" style="fill-rule:nonzero;"/>
        </g>
        <g transform="matrix(-0.875382,-0.483431,0.483431,-0.875382,147.627,288.906)">
            <path d="M111.019,120.243C110.904,123.723 110.808,127.203 110.69,130.682C110.682,130.891 111.011,130.902 111.019,130.694C111.147,127.215 111.298,123.737 111.429,120.258C111.438,119.998 111.028,119.982 111.019,120.243Z" style="fill-rule:nonzero;"/>
        </g>
        <g transform="matrix(1,0,0,-1,0,240.004)">
            <path d="M137.691,110.544C137.312,111.103 136.935,111.663 136.548,112.217C136.159,112.77 135.747,113.308 135.36,113.861C134.977,114.418 134.605,114.982 134.229,115.543C131.032,120.316 127.842,125.099 124.646,129.875C124.53,130.048 124.257,129.865 124.373,129.692C127.75,124.631 131.135,119.571 134.509,114.512C134.889,113.953 135.252,113.383 135.6,112.803C136.116,111.929 136.684,111.089 137.24,110.242C137.432,109.956 137.883,110.257 137.691,110.544Z" style="fill-rule:nonzero;"/>
        </g>
        <g transform="matrix(1,0,0,-1,0,239.558)">
            <path d="M107.497,110.237C107.885,110.807 108.262,111.384 108.636,111.963C108.999,112.549 109.387,113.118 109.759,113.699C110.127,114.282 110.476,114.878 110.869,115.444C113.924,120.047 117.007,124.645 120.076,129.246C120.192,129.419 119.918,129.602 119.802,129.429C116.725,124.833 113.658,120.225 110.574,115.64C110.201,115.061 109.784,114.511 109.387,113.948C108.993,113.382 108.615,112.806 108.213,112.246C107.821,111.679 107.432,111.11 107.054,110.534C106.866,110.252 107.309,109.956 107.497,110.237Z" style="fill-rule:nonzero;"/>
        </g>
        <g transform="matrix(1,0,0,-1,0,248.946)">
            <path d="M138.754,120.195C136.543,123.13 134.343,126.073 132.158,129.028C132.033,129.195 131.769,129 131.894,128.832C133.679,126.413 135.489,124.012 137.239,121.567C137.633,121.027 138.033,120.492 138.432,119.956C138.583,119.751 138.905,119.99 138.754,120.195Z" style="fill-rule:nonzero;"/>
        </g>
        <g transform="matrix(1,0,0,-1,0,248.492)">
            <path d="M106.356,119.957C108.424,122.762 110.471,125.584 112.555,128.378C112.679,128.546 112.415,128.741 112.291,128.574C110.833,126.618 109.39,124.65 107.911,122.709C107.273,121.88 106.66,121.033 106.032,120.197C105.879,119.992 106.203,119.751 106.356,119.957Z" style="fill-rule:nonzero;"/>
        </g>
        <g transform="matrix(1,0,0,-1,0,241.356)">
            <path d="M139.87,113.428C139.433,113.95 138.995,114.47 138.556,114.991C138.112,115.51 137.669,116.02 137.239,116.542C134.005,120.452 130.792,124.38 127.57,128.3C127.438,128.462 127.184,128.253 127.316,128.092C131.379,123.104 135.504,118.2 139.503,113.127C139.694,112.894 140.061,113.195 139.87,113.428Z" style="fill-rule:nonzero;"/>
        </g>
        <g transform="matrix(1,0,0,-1,0,240.856)">
            <path d="M105.317,113.109C106.99,115.201 108.675,117.283 110.374,119.353C110.41,119.397 110.446,119.44 110.481,119.484C112.698,122.186 114.915,124.889 117.132,127.592C117.265,127.753 117.011,127.962 116.878,127.8C114.678,125.12 112.478,122.44 110.277,119.761C110.241,119.717 110.206,119.674 110.17,119.63C108.454,117.537 106.722,115.458 104.978,113.387C104.802,113.172 105.141,112.894 105.317,113.109Z" style="fill-rule:nonzero;"/>
        </g>
        <g transform="matrix(-0.718299,0.695734,-0.695734,-0.718299,321.149,116.254)">
            <path d="M137.02,117.626C136.895,121.33 136.832,125.036 136.691,128.74C136.685,128.948 137.013,128.958 137.02,128.75C137.125,125.045 137.307,121.344 137.429,117.64C137.436,117.38 137.027,117.367 137.02,117.626Z" style="fill-rule:nonzero;"/>
        </g>
        <g transform="matrix(-0.763564,-0.645733,0.645733,-0.763564,110.46,286.239)">
            <path d="M107.616,117.69C107.474,121.179 107.43,124.671 107.287,128.16C107.279,128.368 107.608,128.38 107.616,128.172C107.712,124.681 107.908,121.194 108.006,117.704C108.014,117.456 107.625,117.443 107.616,117.69Z" style="fill-rule:nonzero;"/>
        </g>
        <g transform="matrix(1,0,0,-1,0,234)">
            <path d="M141.931,107.853C141.216,108.579 140.489,109.292 139.767,110.009C139.302,110.505 138.79,110.953 138.296,111.419C137.786,111.868 137.319,112.362 136.832,112.835C132.257,117.392 127.658,122.006 123.068,126.588C122.92,126.736 122.688,126.504 122.835,126.356C127.657,121.525 132.522,116.682 137.305,111.868C137.78,111.383 138.234,110.877 138.698,110.381C139.17,109.893 139.657,109.419 140.131,108.933C140.608,108.451 141.087,107.97 141.571,107.493C141.799,107.264 142.16,107.624 141.931,107.853Z" style="fill-rule:nonzero;"/>
        </g>
        <g transform="matrix(1,0,0,-1,0,233.531)">
            <path d="M103.364,107.499C103.858,107.983 104.35,108.469 104.825,108.971C105.302,109.472 105.785,109.966 106.276,110.453C107,111.195 107.748,111.913 108.451,112.676C109.635,113.937 110.881,115.131 112.093,116.361C115.262,119.541 118.447,122.705 121.613,125.887C121.761,126.035 121.528,126.267 121.381,126.119C117.226,121.972 113.081,117.815 108.921,113.672C108.429,113.187 107.915,112.724 107.419,112.242C106.931,111.753 106.436,111.27 105.947,110.782C105.46,110.291 104.966,109.808 104.465,109.331C103.963,108.856 103.477,108.364 102.993,107.871C102.757,107.635 103.129,107.264 103.364,107.499Z" style="fill-rule:nonzero;"/>
        </g>
        <g transform="matrix(-0.646094,0.763258,-0.763258,-0.646094,321.017,94.4595)">
            <path d="M138.579,116.103C138.466,119.838 138.394,123.573 138.25,127.307C138.244,127.516 138.573,127.527 138.579,127.318C138.688,123.583 138.871,119.851 139.01,116.117C139.019,115.845 138.588,115.83 138.579,116.103Z" style="fill-rule:nonzero;"/>
        </g>
        <g transform="matrix(-0.69795,-0.716147,0.716147,-0.69795,93.2123,282.14)">
            <path d="M106.08,116.222C105.982,119.718 105.861,123.211 105.752,126.706C105.744,126.915 106.073,126.927 106.08,126.719C106.225,123.225 106.357,119.731 106.512,116.238C106.522,115.964 106.09,115.949 106.08,116.222Z" style="fill-rule:nonzero;"/>
        </g>
        <g transform="matrix(1,0,0,-1,0,236.528)">
            <path d="M143.795,112.349C143.004,112.994 142.195,113.618 141.408,114.269C140.888,114.707 140.345,115.118 139.803,115.532C136.087,118.553 132.393,121.6 128.688,124.635C128.526,124.768 128.318,124.514 128.479,124.381C132.179,121.34 135.889,118.311 139.577,115.256C140.088,114.805 140.597,114.353 141.129,113.928C141.921,113.283 142.69,112.612 143.477,111.962C143.723,111.76 144.041,112.147 143.795,112.349Z" style="fill-rule:nonzero;"/>
        </g>
        <g transform="matrix(1,0,0,-1,0,236.046)">
            <path d="M101.543,111.957C103.4,113.534 105.271,115.087 107.147,116.622C110.095,119.038 113.014,121.491 115.969,123.899C116.131,124.032 115.922,124.286 115.761,124.153C112.018,121.066 108.232,118.03 104.488,114.944C103.415,114.063 102.314,113.209 101.233,112.334C100.993,112.137 101.303,111.76 101.543,111.957Z" style="fill-rule:nonzero;"/>
        </g>
        <g transform="matrix(-0.568095,0.822963,-0.822963,-0.568095,318.32,72.9532)">
            <path d="M139.979,114.42C139.847,118.18 139.806,121.943 139.65,125.701C139.644,125.91 139.972,125.921 139.979,125.713C140.079,121.952 140.293,118.195 140.417,114.435C140.426,114.157 139.988,114.142 139.979,114.42Z" style="fill-rule:nonzero;"/>
        </g>
        <g transform="matrix(-0.623941,-0.781472,0.781472,-0.623941,76.5173,276.356)">
            <path d="M104.734,114.562C104.626,118.062 104.511,121.562 104.406,125.062C104.398,125.27 104.727,125.282 104.734,125.074C104.879,121.575 105.014,118.076 105.155,114.576C105.164,114.31 104.744,114.295 104.734,114.562Z" style="fill-rule:nonzero;"/>
        </g>
        <g transform="matrix(1,0,0,-1,0,231.484)">
            <path d="M145.471,109.478C143.803,110.588 142.123,111.678 140.453,112.785C139.902,113.161 139.34,113.523 138.773,113.876C138.205,114.228 137.64,114.584 137.086,114.957C135.136,116.254 133.189,117.555 131.242,118.856C131.194,118.888 131.147,118.919 131.1,118.951C129.312,120.145 127.525,121.341 125.736,122.535C125.562,122.651 125.38,122.377 125.553,122.261C127.317,121.081 129.082,119.903 130.847,118.724C130.894,118.692 130.941,118.661 130.988,118.63C132.945,117.322 134.902,116.014 136.856,114.703C137.416,114.332 137.965,113.946 138.509,113.553C139.056,113.163 139.606,112.779 140.168,112.412C141.838,111.288 143.496,110.147 145.168,109.025C145.455,108.833 145.758,109.286 145.471,109.478Z" style="fill-rule:nonzero;"/>
        </g>
        <g transform="matrix(1,0,0,-1,0,231.039)">
            <path d="M99.955,109.027C100.806,109.628 101.673,110.203 102.538,110.783C107.999,114.493 113.444,118.137 118.895,121.816C119.069,121.932 118.886,122.206 118.713,122.09C113.227,118.461 107.777,114.826 102.259,111.2C101.393,110.623 100.529,110.041 99.649,109.485C99.358,109.291 99.664,108.833 99.955,109.027Z" style="fill-rule:nonzero;"/>
        </g>
        <g transform="matrix(-0.484664,0.874701,-0.874701,-0.484664,313.119,51.9656)">
            <path d="M141.207,112.601C141.097,116.384 140.992,120.167 140.878,123.95C140.872,124.159 141.2,124.17 141.207,123.961C141.351,120.18 141.504,116.398 141.65,112.616C141.66,112.335 141.217,112.32 141.207,112.601Z" style="fill-rule:nonzero;"/>
        </g>
        <g transform="matrix(-0.544531,-0.838741,0.838741,-0.544531,60.9829,269.115)">
            <path d="M103.547,112.787C103.426,116.292 103.329,119.797 103.218,123.302C103.21,123.511 103.539,123.522 103.547,123.314C103.687,119.81 103.842,116.307 103.971,112.803C103.981,112.533 103.557,112.519 103.547,112.787Z" style="fill-rule:nonzero;"/>
        </g>
        <g transform="matrix(-0.452162,0.891936,-0.891936,-0.452162,303.6,44.2692)">
            <path d="M138.128,105.663C138.031,112.159 137.966,118.734 137.799,125.273C137.794,125.481 138.123,125.489 138.128,125.28C138.246,118.74 138.465,112.168 138.65,105.674C138.656,105.344 138.135,105.332 138.128,105.663Z" style="fill-rule:nonzero;"/>
        </g>
        <g transform="matrix(1,0,0,-1,0,230.322)">
            <path d="M98.554,110.585C104.094,113.603 109.525,116.572 115.046,119.498C115.23,119.597 115.076,119.887 114.891,119.788C111.221,117.837 107.569,115.85 103.875,113.942C102.029,112.971 100.169,112.001 98.318,111.028C98.037,110.877 98.273,110.435 98.554,110.585Z" style="fill-rule:nonzero;"/>
        </g>
        <g transform="matrix(1,0,0,-1,0,232.635)">
            <path d="M147.504,114.127C147.556,114.043 147.246,114.226 147.117,114.276C146.441,114.594 145.764,114.911 145.087,115.229C145.036,115.253 144.985,115.277 144.934,115.302C142.346,116.518 139.753,117.725 137.168,118.948C136.98,119.037 136.839,118.74 137.028,118.651C139.588,117.441 142.14,116.215 144.696,114.998C144.747,114.974 144.799,114.949 144.85,114.925C145.67,114.524 146.709,114.067 147.312,113.72C147.57,113.598 147.762,114.005 147.504,114.127Z" style="fill-rule:nonzero;"/>
        </g>
        <g transform="matrix(-0.459821,-0.888012,0.888012,-0.459821,46.5939,260.586)">
            <path d="M102.543,110.909C102.425,114.414 102.362,117.922 102.215,121.426C102.207,121.634 102.536,121.646 102.543,121.437C102.649,117.932 102.839,114.429 102.974,110.925C102.983,110.652 102.553,110.636 102.543,110.909Z" style="fill-rule:nonzero;"/>
        </g>
        <g transform="matrix(1,0,0,-1,0,225.246)">
            <path d="M148.093,108.053C148.068,108.063 148.042,108.072 148.016,108.081C147.991,108.09 147.965,108.099 147.939,108.108C147.861,108.135 147.784,108.161 147.706,108.188C147.085,108.403 146.455,108.689 145.828,108.937C142.992,110.062 140.156,111.188 137.342,112.366C132.956,114.178 128.574,115.999 124.187,117.81C123.994,117.89 123.869,117.586 124.061,117.506C130.92,114.641 137.814,111.863 144.633,108.905C145.56,108.502 146.513,108.126 147.422,107.716C147.496,107.68 147.57,107.644 147.643,107.608C147.687,107.586 147.732,107.565 147.776,107.543C147.805,107.529 147.835,107.515 147.865,107.501C148.215,107.356 148.444,107.908 148.093,108.053Z" style="fill-rule:nonzero;"/>
        </g>
        <g transform="matrix(1,0,0,-1,0,224.862)">
            <path d="M97.41,107.488C98.053,107.747 98.704,107.989 99.341,108.264C99.972,108.553 100.595,108.861 101.225,109.153C101.853,109.452 102.504,109.691 103.143,109.963C108.922,112.373 114.639,114.735 120.387,117.122C120.58,117.202 120.454,117.506 120.261,117.426C114.19,114.916 108.159,112.418 102.044,109.895C101.413,109.607 100.747,109.402 100.096,109.161C99.1,108.846 98.159,108.399 97.201,107.991C96.882,107.859 97.09,107.356 97.41,107.488Z" style="fill-rule:nonzero;"/>
        </g>
        <g transform="matrix(1,0,0,-1,0,228.627)">
            <path d="M148.56,112.645C147.925,112.815 147.258,113.088 146.606,113.306C143.657,114.337 140.713,115.385 137.771,116.438C137.575,116.508 137.464,116.199 137.661,116.129C141.249,114.843 144.87,113.553 148.406,112.216C148.678,112.119 148.832,112.548 148.56,112.645Z" style="fill-rule:nonzero;"/>
        </g>
        <g transform="matrix(1,0,0,-1,0,228.314)">
            <path d="M96.914,112.216C98.562,112.808 100.198,113.436 101.842,114.042C103.49,114.634 105.139,115.225 106.788,115.816C106.984,115.886 106.874,116.195 106.677,116.125C104.365,115.308 102.066,114.455 99.74,113.676C98.743,113.343 97.754,112.988 96.761,112.644C96.489,112.547 96.642,112.119 96.914,112.216Z" style="fill-rule:nonzero;"/>
        </g>
        <g transform="matrix(1,0,0,-1,0,224.227)">
            <path d="M148.994,109.589C148.003,109.884 147.017,110.196 146.016,110.46C145.35,110.64 144.678,110.802 144.018,111.001C139.395,112.386 134.769,113.796 130.144,115.196C129.945,115.256 129.849,114.942 130.049,114.881C134.671,113.475 139.302,112.078 143.915,110.66C144.903,110.353 145.872,109.985 146.86,109.678C147.518,109.474 148.177,109.271 148.837,109.071C149.166,108.971 149.323,109.489 148.994,109.589Z" style="fill-rule:nonzero;"/>
        </g>
        <g transform="matrix(1,0,0,-1,0,223.937)">
            <path d="M96.506,109.066C97.168,109.273 97.831,109.478 98.493,109.683C99.156,109.886 99.822,110.079 100.474,110.319C101.126,110.561 101.789,110.762 102.453,110.962C106.435,112.173 110.417,113.383 114.399,114.591C114.599,114.652 114.504,114.966 114.304,114.906C110.322,113.698 106.338,112.491 102.355,111.286C101.692,111.083 101.028,110.882 100.352,110.721C99.677,110.558 99.016,110.349 98.352,110.149C97.687,109.952 97.022,109.754 96.357,109.558C96.044,109.463 96.193,108.971 96.506,109.066Z" style="fill-rule:nonzero;"/>
        </g>
        <g transform="matrix(1,0,0,-1,0,224.47)">
            <path d="M149.341,111.122C148.644,111.257 147.973,111.427 147.301,111.591C144.27,112.316 141.247,113.074 138.225,113.831C138.022,113.882 137.942,113.563 138.145,113.512C141.844,112.583 145.523,111.673 149.225,110.661C149.518,110.588 149.634,111.049 149.341,111.122Z" style="fill-rule:nonzero;"/>
        </g>
        <g transform="matrix(1,0,0,-1,0,224.209)">
            <path d="M96.145,110.654C98.177,111.174 100.214,111.67 102.241,112.21C103.589,112.58 104.949,112.907 106.304,113.251C106.506,113.302 106.426,113.621 106.224,113.57C104.194,113.044 102.148,112.582 100.111,112.082C98.755,111.74 97.396,111.414 96.04,111.071C95.776,111.005 95.88,110.588 96.145,110.654Z" style="fill-rule:nonzero;"/>
        </g>
        <g transform="matrix(1,0,0,-1,0,219.88)">
            <path d="M149.611,107.83C148.959,107.967 148.27,108.113 147.6,108.256C146.925,108.396 146.252,108.546 145.576,108.682C144.219,108.927 142.859,109.161 141.506,109.422C136.433,110.423 131.362,111.431 126.291,112.438C126.086,112.479 126.022,112.156 126.226,112.116C131.297,111.105 136.368,110.096 141.438,109.08C143.127,108.739 144.802,108.326 146.497,108.014C147.51,107.826 148.541,107.635 149.535,107.449C149.777,107.401 149.852,107.781 149.611,107.83Z" style="fill-rule:nonzero;"/>
        </g>
        <g transform="matrix(1,0,0,-1,0,219.761)">
            <path d="M95.873,107.463C97.231,107.714 98.584,107.985 99.939,108.252C101.296,108.508 102.645,108.798 103.99,109.114C104.662,109.274 105.337,109.422 106.013,109.561C110.081,110.374 114.152,111.185 118.222,111.997C118.427,112.037 118.363,112.36 118.158,112.319C114.087,111.511 110.016,110.702 105.946,109.897C104.251,109.573 102.539,109.333 100.848,108.987C99.159,108.634 97.462,108.322 95.775,107.955C95.463,107.893 95.561,107.401 95.873,107.463Z" style="fill-rule:nonzero;"/>
        </g>
        <g transform="matrix(1,0,0,-1,0,220.128)">
            <path d="M149.818,109.42C149.148,109.502 148.487,109.622 147.791,109.722C144.705,110.196 141.61,110.606 138.524,111.076C138.317,111.106 138.269,110.781 138.475,110.751C141.565,110.304 144.646,109.798 147.737,109.356C148.432,109.249 149.099,109.173 149.764,109.057C149.995,109.022 150.049,109.385 149.818,109.42Z" style="fill-rule:nonzero;"/>
        </g>
        <g transform="matrix(1,0,0,-1,0,220.015)">
            <path d="M95.649,109.061C98.058,109.427 100.471,109.769 102.875,110.17C103.907,110.332 104.94,110.482 105.973,110.638C106.179,110.668 106.131,110.993 105.925,110.963C103.518,110.583 101.097,110.296 98.688,109.931C97.654,109.778 96.622,109.624 95.588,109.475C95.325,109.436 95.386,109.022 95.649,109.061Z" style="fill-rule:nonzero;"/>
        </g>
        <g transform="matrix(1,0,0,-1,0,217.169)">
            <path d="M149.961,107.83C149.275,107.925 148.588,108.01 147.903,108.107C147.213,108.163 146.528,108.262 145.836,108.285C145.146,108.337 144.453,108.361 143.765,108.43C141.016,108.693 138.245,108.963 135.486,109.232C135.429,109.237 135.373,109.243 135.317,109.248C133.687,109.407 132.057,109.566 130.427,109.726C130.22,109.746 130.188,109.419 130.395,109.398C131.997,109.24 133.598,109.08 135.2,108.921C135.256,108.915 135.312,108.91 135.368,108.904C138.143,108.628 140.929,108.35 143.693,108.071C144.386,108.006 145.073,107.891 145.764,107.808C146.452,107.695 147.148,107.658 147.839,107.578C148.534,107.538 149.228,107.488 149.923,107.447C150.166,107.423 150.204,107.806 149.961,107.83Z" style="fill-rule:nonzero;"/>
        </g>
        <g transform="matrix(1,0,0,-1,0,217.15)">
            <path d="M95.508,107.455C96.536,107.564 97.564,107.669 98.591,107.784C99.619,107.888 100.642,108.039 101.67,108.149C105.791,108.561 109.925,108.969 114.053,109.379C114.261,109.4 114.229,109.727 114.021,109.707C109.892,109.304 105.758,108.897 101.635,108.498C100.606,108.405 99.573,108.353 98.544,108.255C97.515,108.167 96.486,108.07 95.457,107.976C95.127,107.943 95.178,107.423 95.508,107.455Z" style="fill-rule:nonzero;"/>
        </g>
        <g transform="matrix(1,0,0,-1,0,215.858)">
            <path d="M150.021,107.935C149.314,107.937 148.602,107.956 147.926,107.99C144.839,108.114 141.752,108.264 138.666,108.414C138.457,108.424 138.441,108.096 138.65,108.086C141.736,107.933 144.822,107.78 147.907,107.6C148.583,107.568 149.293,107.517 149.997,107.45C150.306,107.434 150.329,107.92 150.021,107.935Z" style="fill-rule:nonzero;"/>
        </g>
        <g transform="matrix(1,0,0,-1,0,215.787)">
            <path d="M95.431,107.447C97.851,107.557 100.267,107.75 102.688,107.859C103.725,107.911 104.762,107.963 105.799,108.015C106.007,108.025 105.991,108.353 105.783,108.343C103.362,108.236 100.944,108.086 98.521,108.027C97.484,107.984 96.446,107.937 95.409,107.892C95.127,107.878 95.149,107.434 95.431,107.447Z" style="fill-rule:nonzero;"/>
        </g>
        <g transform="matrix(1,0,0,-1,0,213.602)">
            <path d="M95.42,106.506C96.096,106.516 96.771,106.546 97.447,106.551C99.132,106.558 100.817,106.635 102.501,106.627C108.904,106.636 115.307,106.63 121.71,106.637C121.919,106.637 121.919,106.966 121.71,106.966C115.981,106.979 110.252,106.96 104.523,106.976C103.849,106.977 103.175,106.976 102.501,106.976C101.827,106.968 101.153,106.983 100.48,106.997C99.806,107.012 99.132,107.028 98.458,107.043C97.448,107.043 96.433,107.073 95.42,107.096C95.045,107.096 95.045,106.506 95.42,106.506Z" style="fill-rule:nonzero;"/>
        </g>
        <g transform="matrix(1,0,0,-1,0,213.601)">
            <path d="M150.01,107.137C149.874,107.133 149.738,107.129 149.602,107.126C149.33,107.116 149.059,107.116 148.787,107.112C148.516,107.106 148.244,107.103 147.972,107.099C147.916,107.098 147.859,107.097 147.802,107.096C147.191,107.083 146.58,107.101 145.969,107.036C145.357,107.018 144.745,106.995 144.133,106.982C142.298,106.971 140.463,106.967 138.627,106.967L136.877,106.967C135.806,106.967 134.736,106.968 133.665,106.969L132.425,106.969C130.487,106.968 128.55,106.967 126.613,106.973C125.321,106.975 124.03,106.971 122.738,106.965C122.53,106.965 122.53,106.636 122.738,106.636C125.939,106.614 129.139,106.641 132.34,106.632L132.51,106.632C134.294,106.631 136.078,106.635 137.863,106.633L138.542,106.633C140.989,106.62 143.437,106.662 145.884,106.567C146.495,106.517 147.106,106.51 147.718,106.506C147.774,106.505 147.831,106.504 147.887,106.503C148.312,106.499 148.736,106.486 149.161,106.485C149.444,106.482 149.727,106.471 150.01,106.464C150.437,106.464 150.437,107.137 150.01,107.137Z" style="fill-rule:nonzero;"/>
        </g>
        <g transform="matrix(1,0,0,-1,0,185.637)">
            <path d="M121.943,106.138C121.959,105.446 121.881,104.754 121.885,104.062C121.929,103.371 121.962,102.679 121.929,101.987C121.897,101.298 121.968,100.599 121.968,99.918C121.999,99.233 122.02,98.547 122.028,97.861C122.043,97.176 122.046,96.49 122.046,95.805C122.059,90.32 122.047,84.835 122.06,79.35C122.06,79.142 122.389,79.142 122.389,79.35C122.403,85.521 122.379,91.691 122.421,97.861C122.429,98.547 122.45,99.233 122.481,99.918C122.481,100.599 122.552,101.298 122.519,101.987C122.487,102.679 122.519,103.371 122.564,104.062C122.568,104.754 122.49,105.446 122.506,106.138C122.506,106.495 121.943,106.495 121.943,106.138Z" style="fill-rule:nonzero;"/>
        </g>
        <g transform="matrix(1,0,0,-1,0,193.916)">
            <path d="M103.223,105.769C103.707,105.288 104.186,104.801 104.672,104.322C105.151,103.835 105.637,103.356 106.111,102.864C106.594,102.382 107.067,101.889 107.582,101.439C108.08,100.971 108.597,100.522 109.068,100.028C113.175,95.929 117.274,91.824 121.381,87.726C121.528,87.579 121.761,87.811 121.613,87.959C117.515,92.065 113.411,96.165 109.312,100.272C108.817,100.743 108.369,101.26 107.901,101.757C107.45,102.273 106.957,102.745 106.475,103.228C105.497,104.181 104.538,105.153 103.57,106.117C103.35,106.337 103.002,105.99 103.223,105.769Z" style="fill-rule:nonzero;"/>
        </g>
        <g transform="matrix(1,0,0,-1,0,193.475)">
            <path d="M141.277,106.1C140.785,105.643 140.328,105.151 139.864,104.666C139.189,103.918 138.428,103.255 137.726,102.534C137.024,101.812 136.354,101.059 135.644,100.345C131.382,96.068 127.103,91.796 122.835,87.518C122.688,87.37 122.92,87.138 123.068,87.285C127.346,91.553 131.618,95.832 135.895,100.094C136.609,100.804 137.362,101.474 138.084,102.176C138.805,102.878 139.468,103.639 140.216,104.314C140.701,104.778 141.193,105.235 141.65,105.727C141.887,105.964 141.514,106.337 141.277,106.1Z" style="fill-rule:nonzero;"/>
        </g>
        <g transform="matrix(1,0,0,-1,0,202.477)">
            <path d="M97.568,105.581C98.827,105.063 100.075,104.518 101.341,104.017C101.974,103.769 102.604,103.511 103.234,103.253C104.816,102.627 106.388,101.975 107.971,101.351C109.567,100.754 111.132,100.083 112.708,99.437C115.228,98.4 117.739,97.344 120.261,96.312C120.454,96.232 120.58,96.535 120.387,96.615C116.928,98.054 113.464,99.482 110.005,100.922C109.38,101.192 108.756,101.467 108.133,101.742C107.201,102.159 106.253,102.539 105.315,102.942C104.069,103.491 102.807,104.001 101.559,104.545C100.31,105.086 99.043,105.583 97.786,106.107C97.452,106.245 97.234,105.719 97.568,105.581Z" style="fill-rule:nonzero;"/>
        </g>
        <g transform="matrix(1,0,0,-1,0,202.167)">
            <path d="M147.446,106.111C146.797,105.773 146.161,105.552 145.522,105.266C141.684,103.649 137.858,102.003 134.004,100.426C133.925,100.394 133.847,100.361 133.769,100.329C130.534,98.985 127.295,97.653 124.061,96.305C123.869,96.225 123.994,95.922 124.187,96.002C127.4,97.324 130.607,98.662 133.818,99.988C133.896,100.021 133.975,100.053 134.053,100.085C138.565,101.979 143.084,103.78 147.657,105.603C147.98,105.737 147.769,106.245 147.446,106.111Z" style="fill-rule:nonzero;"/>
        </g>
        <g transform="matrix(1,0,0,-1,0,207.462)">
            <path d="M96.013,105.597C97.04,105.403 98.062,105.185 99.088,104.986C99.772,104.851 100.454,104.708 101.146,104.616C102.181,104.461 103.209,104.276 104.233,104.065C107.65,103.392 111.075,102.708 114.495,102.029C114.551,102.018 114.606,102.006 114.662,101.995C115.827,101.765 116.992,101.532 118.158,101.303C118.363,101.262 118.427,101.584 118.222,101.625C117.085,101.853 115.947,102.079 114.81,102.306C114.755,102.317 114.699,102.328 114.644,102.339C110.865,103.092 107.078,103.842 103.307,104.6C102.619,104.728 101.942,104.912 101.26,105.069C100.582,105.249 99.895,105.38 99.208,105.517C98.18,105.727 97.147,105.917 96.12,106.132C95.78,106.2 95.673,105.664 96.013,105.597Z" style="fill-rule:nonzero;"/>
        </g>
        <g transform="matrix(1,0,0,-1,0,207.239)">
            <path d="M149.245,106.124C148.652,105.913 147.936,105.823 147.281,105.674C146.613,105.54 145.945,105.401 145.279,105.255C144.278,105.04 143.28,104.815 142.278,104.606C136.928,103.539 131.578,102.467 126.226,101.402C126.022,101.361 126.086,101.039 126.291,101.08C131.642,102.143 136.995,103.2 142.347,104.262C143.352,104.453 144.36,104.627 145.367,104.811C146.038,104.931 146.709,105.058 147.378,105.19C148.039,105.303 148.735,105.494 149.364,105.526C149.744,105.601 149.625,106.2 149.245,106.124Z" style="fill-rule:nonzero;"/>
        </g>
        <g transform="matrix(1,0,0,-1,0,210.028)">
            <path d="M149.773,106.152C149.083,106.113 148.392,106.09 147.706,106.014C146.677,105.905 145.648,105.784 144.619,105.67C143.932,105.602 143.246,105.525 142.562,105.434C140.506,105.181 138.441,105.002 136.38,104.791C136.296,104.783 136.211,104.774 136.127,104.766C136.099,104.763 136.071,104.76 136.043,104.757C136.015,104.755 135.987,104.752 135.958,104.749C135.902,104.743 135.846,104.738 135.79,104.732C133.992,104.554 132.193,104.376 130.395,104.197C130.188,104.177 130.22,103.85 130.427,103.87C132.198,104.043 133.968,104.217 135.739,104.389C135.795,104.395 135.851,104.4 135.907,104.406C135.935,104.409 135.963,104.411 135.991,104.414C136.02,104.417 136.048,104.42 136.076,104.422C136.16,104.431 136.244,104.439 136.329,104.447C138.404,104.644 140.478,104.871 142.556,105.027C143.25,105.072 143.942,105.13 144.633,105.198C146.361,105.368 148.1,105.428 149.814,105.733C150.08,105.76 150.039,106.178 149.773,106.152Z" style="fill-rule:nonzero;"/>
        </g>
        <g transform="matrix(1,0,0,-1,0,210.064)">
            <path d="M95.592,105.622C96.676,105.528 97.76,105.422 98.844,105.322C99.566,105.239 100.293,105.217 101.017,105.167C102.104,105.09 103.185,104.961 104.268,104.86C105.351,104.753 106.434,104.648 107.517,104.543C107.573,104.537 107.629,104.532 107.685,104.526C108.108,104.485 108.53,104.443 108.953,104.402C109.122,104.385 109.29,104.369 109.459,104.352C110.98,104.204 112.501,104.056 114.021,103.906C114.229,103.886 114.261,104.213 114.053,104.233C112.561,104.38 111.069,104.529 109.577,104.677C109.408,104.694 109.239,104.711 109.07,104.727C108.648,104.769 108.225,104.811 107.803,104.853C107.747,104.858 107.69,104.864 107.634,104.87C105.635,105.068 103.637,105.268 101.636,105.46C100.97,105.54 100.307,105.638 99.642,105.726C98.976,105.798 98.309,105.867 97.642,105.934C96.976,106.004 96.309,106.072 95.643,106.145C95.311,106.178 95.26,105.655 95.592,105.622Z" style="fill-rule:nonzero;"/>
        </g>
        <g transform="matrix(0.0116192,-0.999932,0.999932,0.0116192,-6.27324,205.073)">
            <path d="M100.54,100.584C100.4,104.021 100.371,107.462 100.211,110.899C100.203,111.107 100.532,111.12 100.54,110.912C100.638,107.472 100.866,104.038 100.984,100.6C100.994,100.319 100.551,100.302 100.54,100.584Z" style="fill-rule:nonzero;"/>
        </g>
        <g transform="matrix(1,0,0,-1,0,211.42)">
            <path d="M149.933,106.157C149.391,106.147 148.869,106.154 148.309,106.103C146.103,105.987 143.897,105.854 141.69,105.742C141.634,105.739 141.577,105.736 141.521,105.733C140.564,105.686 139.607,105.638 138.65,105.591C138.441,105.581 138.457,105.252 138.666,105.262C139.595,105.308 140.524,105.353 141.453,105.398C141.509,105.401 141.566,105.404 141.622,105.406C143.851,105.513 146.082,105.597 148.312,105.698C148.88,105.706 149.405,105.759 149.95,105.805C150.173,105.816 150.156,106.168 149.933,106.157Z" style="fill-rule:nonzero;"/>
        </g>
        <g transform="matrix(1,0,0,-1,0,186.382)">
            <path d="M132.451,104.881C132.166,104.275 131.915,103.656 131.679,103.03C131.464,102.397 131.172,101.785 130.917,101.163C128.144,94.66 125.61,88.057 122.859,81.544C122.78,81.351 123.083,81.226 123.163,81.419C125.459,87.027 127.862,92.59 130.193,98.184C130.713,99.426 131.212,100.677 131.717,101.925C132.115,102.853 132.537,103.759 132.883,104.702C132.997,104.977 132.564,105.156 132.451,104.881Z" style="fill-rule:nonzero;"/>
        </g>
        <g transform="matrix(1,0,0,-1,0,186.604)">
            <path d="M111.65,104.649C111.929,104.004 112.201,103.356 112.484,102.713C112.759,102.073 113.021,101.436 113.289,100.797C115.915,94.395 118.667,88.046 121.285,81.641C121.365,81.448 121.669,81.573 121.589,81.766C118.911,88.147 116.368,94.583 113.698,100.966C113.164,102.235 112.66,103.543 112.132,104.849C112.005,105.156 111.523,104.956 111.65,104.649Z" style="fill-rule:nonzero;"/>
        </g>
        <g transform="matrix(1,0,0,-1,0,196.054)">
            <path d="M144.767,104.601C144.205,104.235 143.639,103.875 143.077,103.51C142.525,103.129 141.984,102.731 141.433,102.35C140.317,101.607 139.186,100.886 138.087,100.118C135.599,98.409 133.065,96.755 130.575,95.042C128.906,93.912 127.227,92.798 125.553,91.675C125.38,91.559 125.562,91.286 125.736,91.402C129.353,93.848 133.027,96.208 136.649,98.647C138.045,99.579 139.467,100.465 140.841,101.425C141.392,101.807 141.956,102.171 142.525,102.525C143.395,103.034 144.195,103.646 145.03,104.207C145.28,104.374 145.017,104.768 144.767,104.601Z" style="fill-rule:nonzero;"/>
        </g>
        <g transform="matrix(1,0,0,-1,0,196.427)">
            <path d="M100.01,104.162C100.859,103.594 101.719,103.042 102.57,102.475C103.146,102.111 103.7,101.714 104.264,101.332C105.107,100.753 105.98,100.22 106.827,99.648C110.783,97.016 114.754,94.404 118.713,91.775C118.886,91.659 119.069,91.932 118.895,92.048C114.391,95.088 109.888,98.109 105.386,101.171C104.829,101.564 104.249,101.922 103.68,102.297C103.111,102.672 102.552,103.062 101.985,103.44C101.423,103.826 100.858,104.206 100.293,104.587C100.024,104.768 99.74,104.343 100.01,104.162Z" style="fill-rule:nonzero;"/>
        </g>
        <g transform="matrix(1,0,0,-1,0,203.373)">
            <path d="M96.688,104.056C97.34,103.86 97.988,103.649 98.639,103.449C99.62,103.16 100.605,102.889 101.584,102.594C103.543,102.013 105.521,101.48 107.474,100.873C108.453,100.576 109.432,100.28 110.411,99.983C110.465,99.967 110.519,99.95 110.574,99.934C111.817,99.557 113.061,99.18 114.304,98.803C114.504,98.743 114.599,99.057 114.399,99.118C113.183,99.487 111.967,99.856 110.751,100.225C110.697,100.242 110.642,100.258 110.588,100.275C109.276,100.673 107.963,101.072 106.65,101.471C105.665,101.767 104.688,102.092 103.707,102.402C102.4,102.822 101.091,103.225 99.785,103.643C98.811,103.974 97.815,104.232 96.833,104.537C96.528,104.63 96.382,104.149 96.688,104.056Z" style="fill-rule:nonzero;"/>
        </g>
        <g transform="matrix(1,0,0,-1,0,203.098)">
            <path d="M148.473,104.533C147.457,104.22 146.445,103.891 145.425,103.589C144.743,103.395 144.08,103.139 143.407,102.918C142.736,102.687 142.052,102.499 141.376,102.288C140.022,101.874 138.672,101.464 137.321,101.052C137.24,101.028 137.159,101.003 137.078,100.979C134.735,100.267 132.392,99.555 130.049,98.843C129.849,98.782 129.945,98.468 130.144,98.528C132.461,99.23 134.778,99.931 137.095,100.633C137.176,100.657 137.257,100.682 137.337,100.706C139.041,101.222 140.738,101.733 142.449,102.251C143.128,102.473 143.825,102.637 144.514,102.825C145.889,103.212 147.252,103.638 148.625,104.032C148.943,104.129 148.791,104.63 148.473,104.533Z" style="fill-rule:nonzero;"/>
        </g>
        <g transform="matrix(1,0,0,-1,0,207.203)">
            <path d="M95.78,104.101C98.482,103.69 101.196,103.365 103.897,102.953C104.573,102.853 105.249,102.754 105.925,102.654C106.131,102.623 106.179,102.948 105.973,102.979C103.947,103.288 101.916,103.566 99.896,103.914C98.547,104.131 97.195,104.329 95.845,104.539C95.567,104.58 95.502,104.143 95.78,104.101Z" style="fill-rule:nonzero;"/>
        </g>
        <g transform="matrix(1,0,0,-1,0,207.042)">
            <path d="M149.547,104.536C148.87,104.401 148.199,104.295 147.529,104.195C144.512,103.73 141.495,103.263 138.475,102.818C138.269,102.787 138.317,102.462 138.524,102.493C142.218,103.037 145.896,103.582 149.617,104.063C149.917,104.108 149.847,104.58 149.547,104.536Z" style="fill-rule:nonzero;"/>
        </g>
        <g transform="matrix(1,0,0,-1,0,187.762)">
            <path d="M107.129,103.1C107.507,102.524 107.887,101.951 108.273,101.382C109.049,100.246 109.796,99.091 110.598,97.973C113.724,93.441 116.733,88.85 119.802,84.29C119.918,84.117 120.192,84.299 120.076,84.473C117.407,88.473 114.737,92.468 112.069,96.474C111.696,97.052 111.327,97.632 110.957,98.212C110.596,98.799 110.215,99.371 109.837,99.946C109.462,100.522 109.063,101.083 108.697,101.665C108.319,102.24 107.935,102.81 107.548,103.379C107.37,103.645 106.952,103.365 107.129,103.1Z" style="fill-rule:nonzero;"/>
        </g>
        <g transform="matrix(1,0,0,-1,0,187.421)">
            <path d="M137.15,103.391C136.008,101.66 134.843,99.945 133.696,98.218C133.116,97.359 132.581,96.47 132.019,95.598C131.638,95.023 131.256,94.445 130.873,93.873C130.49,93.299 130.109,92.725 129.725,92.152C129.694,92.105 129.663,92.058 129.631,92.011C127.879,89.384 126.124,86.759 124.373,84.132C124.257,83.958 124.53,83.776 124.646,83.949C126.388,86.549 128.126,89.152 129.866,91.752C129.898,91.799 129.929,91.846 129.96,91.893C130.539,92.758 131.119,93.622 131.699,94.488C132.084,95.067 132.473,95.643 132.88,96.207C133.275,96.78 133.692,97.338 134.071,97.921C135.235,99.652 136.381,101.395 137.55,103.123C137.719,103.377 137.319,103.645 137.15,103.391Z" style="fill-rule:nonzero;"/>
        </g>
        <g transform="matrix(1,0,0,-1,0,197.08)">
            <path d="M98.694,102.571C99.297,102.252 99.903,101.939 100.499,101.608C101.4,101.125 102.313,100.663 103.219,100.189C107.127,98.158 110.994,96.058 114.891,94.012C115.076,93.914 115.23,94.204 115.046,94.302C110.58,96.73 106.102,99.09 101.634,101.562C100.74,102.059 99.825,102.516 98.932,103.015C98.65,103.166 98.412,102.721 98.694,102.571Z" style="fill-rule:nonzero;"/>
        </g>
        <g transform="matrix(1,0,0,-1,0,196.732)">
            <path d="M146.219,103.025C145.635,102.699 145.057,102.363 144.461,102.059C143.868,101.751 143.273,101.447 142.683,101.132C142.096,100.811 141.515,100.48 140.928,100.161C138.257,98.758 135.624,97.268 132.954,95.855C131.77,95.221 130.586,94.588 129.402,93.954C129.218,93.856 129.373,93.566 129.557,93.664C132.226,95.08 134.877,96.53 137.566,97.91C139.05,98.69 140.533,99.493 142.012,100.261C142.611,100.557 143.198,100.877 143.785,101.198C144.659,101.689 145.542,102.165 146.442,102.608C146.707,102.749 146.484,103.166 146.219,103.025Z" style="fill-rule:nonzero;"/>
        </g>
        <g transform="matrix(1,0,0,-1,0,203.083)">
            <path d="M96.335,102.559C98.963,101.876 101.607,101.251 104.248,100.615C104.906,100.45 105.565,100.285 106.224,100.121C106.426,100.07 106.506,100.389 106.304,100.44C103.005,101.243 99.737,102.17 96.433,102.951C96.184,103.013 96.086,102.621 96.335,102.559Z" style="fill-rule:nonzero;"/>
        </g>
        <g transform="matrix(1,0,0,-1,0,202.823)">
            <path d="M148.9,102.942C148.233,102.712 147.592,102.589 146.938,102.41C144.01,101.655 141.078,100.914 138.145,100.18C137.942,100.129 138.022,99.81 138.225,99.861C141.816,100.755 145.379,101.661 149.012,102.495C149.297,102.566 149.184,103.013 148.9,102.942Z" style="fill-rule:nonzero;"/>
        </g>
        <g transform="matrix(1,0,0,-1,0,182.72)">
            <path d="M116.635,102.528C116.775,101.854 116.931,101.183 117.084,100.512C117.226,99.84 117.364,99.169 117.504,98.497C118.421,94.134 119.303,89.764 120.169,85.39C120.191,85.28 120.213,85.169 120.235,85.059C120.577,83.346 120.918,81.634 121.261,79.922C121.301,79.717 121.624,79.781 121.583,79.986C121.25,81.671 120.915,83.356 120.581,85.041C120.559,85.152 120.537,85.263 120.515,85.373C119.854,88.755 119.15,92.129 118.534,95.52C118.281,96.875 118.01,98.226 117.756,99.581C117.546,100.591 117.404,101.624 117.205,102.641C117.133,103.003 116.563,102.89 116.635,102.528Z" style="fill-rule:nonzero;"/>
        </g>
        <g transform="matrix(1,0,0,-1,0,182.527)">
            <path d="M127.236,102.596C127.196,101.923 126.982,101.284 126.893,100.621C126.767,99.963 126.64,99.299 126.515,98.638C126.208,96.982 125.944,95.318 125.615,93.666C124.694,89.043 123.781,84.417 122.866,79.793C122.825,79.588 123.147,79.524 123.188,79.729C124.112,84.352 125.038,88.974 125.957,93.599C126.285,95.25 126.678,96.889 127.028,98.536C127.166,99.194 127.302,99.856 127.438,100.512C127.609,101.159 127.656,101.831 127.876,102.469C127.957,102.875 127.317,103.003 127.236,102.596Z" style="fill-rule:nonzero;"/>
        </g>
        <g transform="matrix(1,0,0,-1,0,191.414)">
            <path d="M101.532,101.294C103.901,99.415 106.269,97.443 108.648,95.521C111.031,93.597 113.39,91.644 115.761,89.705C115.922,89.573 116.131,89.827 115.969,89.959C111.233,93.83 106.5,97.765 101.827,101.653C101.599,101.841 101.304,101.481 101.532,101.294Z" style="fill-rule:nonzero;"/>
        </g>
        <g transform="matrix(1,0,0,-1,0,191.028)">
            <path d="M143.134,101.667C142.366,101.023 141.593,100.386 140.81,99.761C140.286,99.349 139.783,98.907 139.272,98.48C135.68,95.504 132.089,92.527 128.479,89.573C128.318,89.441 128.526,89.187 128.688,89.319C132.548,92.494 136.421,95.65 140.312,98.789C141.342,99.64 142.365,100.499 143.408,101.333C143.62,101.507 143.346,101.841 143.134,101.667Z" style="fill-rule:nonzero;"/>
        </g>
        <g transform="matrix(0.301042,-0.953611,0.953611,0.301042,-23.6597,166.747)">
            <path d="M101.869,94.493C101.737,97.869 101.65,101.246 101.541,104.622C101.533,104.831 101.862,104.843 101.869,104.635C102.016,101.26 102.184,97.886 102.307,94.51C102.318,94.232 101.88,94.215 101.869,94.493Z" style="fill-rule:nonzero;"/>
        </g>
        <g transform="matrix(1,0,0,-1,0,198.729)">
            <path d="M148.006,101.388C147.435,101.131 146.77,100.921 146.152,100.689C143.323,99.662 140.495,98.636 137.661,97.626C137.464,97.556 137.575,97.246 137.771,97.317C141.227,98.55 144.714,99.804 148.155,100.971C148.42,101.066 148.271,101.483 148.006,101.388Z" style="fill-rule:nonzero;"/>
        </g>
        <g transform="matrix(1,0,0,-1,0,186.518)">
            <path d="M105.118,100.22C105.772,99.435 106.417,98.643 107.067,97.855C107.505,97.334 107.926,96.799 108.362,96.276C111.243,92.881 114.04,89.407 116.878,85.972C117.011,85.811 117.265,86.02 117.132,86.181C114.317,89.635 111.456,93.056 108.688,96.543C108.26,97.073 107.818,97.591 107.392,98.122C106.746,98.913 106.095,99.7 105.453,100.494C105.278,100.707 104.944,100.432 105.118,100.22Z" style="fill-rule:nonzero;"/>
        </g>
        <g transform="matrix(1,0,0,-1,0,186.128)">
            <path d="M139.321,100.496C138.645,99.686 137.988,98.862 137.309,98.054C136.851,97.521 136.422,96.963 135.99,96.408C134.452,94.477 132.866,92.568 131.3,90.65C131.211,90.541 131.121,90.431 131.031,90.322C129.793,88.812 128.554,87.301 127.316,85.791C127.184,85.63 127.438,85.421 127.57,85.582C128.792,87.07 130.014,88.557 131.236,90.044C131.325,90.154 131.415,90.263 131.505,90.372C133.091,92.294 134.664,94.235 136.269,96.134C136.73,96.671 137.199,97.202 137.635,97.759C138.299,98.588 138.984,99.399 139.651,100.225C139.824,100.435 139.493,100.707 139.321,100.496Z" style="fill-rule:nonzero;"/>
        </g>
        <g transform="matrix(0.393191,-0.919457,0.919457,0.393191,-27.3646,153.675)">
            <path d="M102.701,92.567C102.56,95.932 102.499,99.298 102.371,102.662C102.364,102.871 102.692,102.883 102.701,102.674C102.826,99.31 103.019,95.949 103.133,92.584C103.143,92.31 102.711,92.293 102.701,92.567Z" style="fill-rule:nonzero;"/>
        </g>
        <g transform="matrix(0.458927,0.888474,-0.888474,0.458927,163.404,-73.533)">
            <path d="M142.063,91.985C141.961,95.623 141.838,99.26 141.734,102.898C141.728,103.107 142.056,103.118 142.063,102.91C142.214,99.273 142.346,95.636 142.498,92C142.508,91.724 142.073,91.709 142.063,91.985Z" style="fill-rule:nonzero;"/>
        </g>
        <g transform="matrix(1,0,0,-1,0,182.186)">
            <path d="M134.859,99.537C134.075,98.06 133.317,96.569 132.504,95.108C132.179,94.524 131.869,93.931 131.561,93.337C130.627,91.564 129.685,89.801 128.779,88.016C127.844,86.247 126.898,84.484 125.957,82.718C125.859,82.534 126.149,82.379 126.247,82.563C127.034,84.033 127.822,85.502 128.608,86.973C129.238,88.149 129.897,89.309 130.536,90.48C131.014,91.36 131.477,92.244 131.963,93.122C132.286,93.708 132.607,94.295 132.912,94.89C133.22,95.484 133.529,96.077 133.849,96.664C134.322,97.549 134.81,98.426 135.286,99.309C135.43,99.58 135.004,99.807 134.859,99.537Z" style="fill-rule:nonzero;"/>
        </g>
        <g transform="matrix(1,0,0,-1,0,182.495)">
            <path d="M109.328,99.295C109.832,98.389 110.33,97.479 110.819,96.565C111.142,95.954 111.469,95.345 111.798,94.737C113.25,91.986 114.801,89.286 116.243,86.53C116.896,85.31 117.549,84.091 118.201,82.872C118.3,82.688 118.59,82.843 118.491,83.027C117.034,85.776 115.541,88.506 114.119,91.274C112.685,94.036 111.186,96.761 109.765,99.529C109.617,99.807 109.179,99.573 109.328,99.295Z" style="fill-rule:nonzero;"/>
        </g>
        <g transform="matrix(1,0,0,-1,0,179.49)">
            <path d="M129.93,98.894C129.741,98.241 129.518,97.598 129.31,96.951C128.875,95.663 128.519,94.351 128.149,93.043C127.963,92.389 127.762,91.74 127.572,91.087C127.293,90.107 127.029,89.126 126.737,88.152C126.72,88.098 126.704,88.044 126.688,87.99C125.941,85.53 125.198,83.07 124.455,80.609C124.394,80.41 124.709,80.314 124.77,80.514C125.51,82.946 126.252,85.377 126.989,87.81C127.005,87.864 127.022,87.918 127.038,87.972C127.435,89.279 127.892,90.566 128.285,91.88C128.683,93.19 129.138,94.483 129.528,95.796C129.815,96.782 130.074,97.777 130.375,98.758C130.461,99.041 130.016,99.176 129.93,98.894Z" style="fill-rule:nonzero;"/>
        </g>
        <g transform="matrix(1,0,0,-1,0,179.592)">
            <path d="M114.071,98.64C114.283,97.974 114.486,97.306 114.707,96.644C114.931,95.982 115.152,95.319 115.362,94.653C116.076,92.316 116.787,89.98 117.53,87.643C118.263,85.305 118.962,82.958 119.679,80.616C119.739,80.416 120.054,80.512 119.993,80.711C119.193,83.394 118.35,86.063 117.585,88.756C116.982,90.771 116.395,92.776 115.784,94.781C115.394,96.122 115.051,97.478 114.643,98.813C114.533,99.176 113.961,99.002 114.071,98.64Z" style="fill-rule:nonzero;"/>
        </g>
        <g transform="matrix(1,0,0,-1,0,178.079)">
            <path d="M124.637,98.499C124.577,97.797 124.514,97.094 124.44,96.393C124.23,94.288 124.096,92.175 123.897,90.069C123.795,89.017 123.691,87.956 123.588,86.899C123.583,86.843 123.577,86.787 123.572,86.731C123.338,84.314 123.103,81.898 122.867,79.481C122.847,79.274 123.174,79.242 123.194,79.449C123.431,81.837 123.669,84.225 123.909,86.613C123.914,86.669 123.92,86.725 123.926,86.781C124.11,88.558 124.262,90.329 124.476,92.091C124.551,92.798 124.645,93.502 124.723,94.208C124.811,94.913 124.886,95.62 124.95,96.327C125.014,97.035 125.09,97.741 125.169,98.447C125.202,98.785 124.67,98.837 124.637,98.499Z" style="fill-rule:nonzero;"/>
        </g>
        <g transform="matrix(1,0,0,-1,0,178.105)">
            <path d="M119.256,98.403C119.472,96.079 119.757,93.761 120.044,91.444C120.474,87.465 120.853,83.465 121.254,79.475C121.275,79.268 121.602,79.3 121.581,79.507C121.197,83.499 120.788,87.496 120.434,91.482C120.371,92.146 120.345,92.814 120.286,93.478C120.213,94.476 120.13,95.473 120.04,96.47C119.981,97.134 119.908,97.797 119.848,98.461C119.811,98.837 119.219,98.779 119.256,98.403Z" style="fill-rule:nonzero;"/>
        </g>
        <g transform="matrix(0.481805,-0.876279,0.876279,0.481805,-30.11,140.507)">
            <path d="M103.709,90.712C103.576,94.073 103.492,97.437 103.38,100.799C103.373,101.007 103.701,101.019 103.709,100.811C103.848,97.45 104.014,94.089 104.132,90.728C104.141,90.459 103.719,90.444 103.709,90.712Z" style="fill-rule:nonzero;"/>
        </g>
        <g transform="matrix(1,0,0,-1,0,191.063)">
            <path d="M145.538,98.463C143.969,97.566 142.431,96.615 140.89,95.672C139.342,94.738 137.798,93.799 136.252,92.862C136.073,92.755 136.242,92.473 136.421,92.58C138.601,93.865 140.769,95.17 142.955,96.444C143.893,96.988 144.815,97.56 145.738,98.129C145.951,98.256 145.75,98.59 145.538,98.463Z" style="fill-rule:nonzero;"/>
        </g>
        <g transform="matrix(0.56597,-0.824426,0.824426,0.56597,-31.9242,127.279)">
            <path d="M104.892,88.947C104.783,92.313 104.666,95.679 104.563,99.045C104.555,99.254 104.883,99.266 104.892,99.058C105.033,95.693 105.163,92.327 105.3,88.962C105.31,88.703 104.902,88.688 104.892,88.947Z" style="fill-rule:nonzero;"/>
        </g>
        <g transform="matrix(0.622445,0.782664,-0.782664,0.622445,126.164,-74.0197)">
            <path d="M139.788,88.397C139.691,91.993 139.554,95.588 139.46,99.184C139.453,99.393 139.782,99.404 139.788,99.195C139.938,95.601 140.043,92.005 140.188,88.411C140.197,88.157 139.797,88.144 139.788,88.397Z" style="fill-rule:nonzero;"/>
        </g>
        <g transform="matrix(1,0,0,-1,0,184.22)">
            <path d="M142.257,95.843C140.933,94.633 139.606,93.426 138.276,92.222C136.956,91.008 135.634,89.796 134.305,88.59C134.15,88.45 134.371,88.207 134.526,88.347C137.192,90.748 139.86,93.146 142.523,95.549C142.71,95.719 142.443,96.013 142.257,95.843Z" style="fill-rule:nonzero;"/>
        </g>
        <g transform="matrix(0.644824,-0.764331,0.764331,0.644824,-32.8254,113.998)">
            <path d="M106.229,87.281C106.102,90.658 106.016,94.04 105.901,97.419C105.894,97.627 106.222,97.639 106.229,97.431C106.355,94.051 106.509,90.674 106.622,87.294C106.632,87.044 106.238,87.03 106.229,87.281Z" style="fill-rule:nonzero;"/>
        </g>
        <g transform="matrix(1,0,0,-1,0,181.605)">
            <path d="M104.174,94.43C105.548,92.919 106.907,91.395 108.302,89.904C109.227,88.905 110.136,87.891 111.053,86.885C111.193,86.73 111.437,86.951 111.297,87.106C110.385,88.117 109.465,89.121 108.562,90.139C107.215,91.674 105.831,93.176 104.463,94.691C104.296,94.875 104.007,94.613 104.174,94.43Z" style="fill-rule:nonzero;"/>
        </g>
        <g transform="matrix(0.762815,0.646617,-0.646617,0.762815,91.0582,-67.0358)">
            <path d="M136.889,85.256C136.751,88.838 136.694,92.421 136.561,96.003C136.554,96.211 136.883,96.223 136.889,96.014C136.994,92.431 137.175,88.852 137.274,85.27C137.282,85.026 136.897,85.012 136.889,85.256Z" style="fill-rule:nonzero;"/>
        </g>
        <g transform="matrix(0.781683,-0.623676,0.623676,0.781683,-31.9034,87.7101)">
            <path d="M109.318,84.314C109.189,87.742 109.12,91.171 108.989,94.599C108.981,94.808 109.31,94.82 109.318,94.611C109.429,91.183 109.602,87.757 109.716,84.328C109.724,84.076 109.327,84.062 109.318,84.314Z" style="fill-rule:nonzero;"/>
        </g>
        <g transform="matrix(0.82335,0.567533,-0.567533,0.82335,74.5342,-61.0057)">
            <path d="M135.236,83.89C135.113,87.476 135.041,91.063 134.907,94.648C134.899,94.857 135.228,94.869 135.236,94.66C135.35,91.074 135.526,87.49 135.651,83.905C135.661,83.641 135.245,83.626 135.236,83.89Z" style="fill-rule:nonzero;"/>
        </g>
        <g transform="matrix(0.874808,0.48447,-0.48447,0.874808,59.3594,-53.6493)">
            <path d="M133.455,82.676C133.341,86.269 133.222,89.863 133.127,93.458C133.12,93.666 133.448,93.677 133.455,93.469C133.605,89.876 133.732,86.283 133.864,82.689C133.872,82.43 133.464,82.416 133.455,82.676Z" style="fill-rule:nonzero;"/>
        </g>
        <g transform="matrix(0.839201,-0.543821,0.543821,0.839201,-30.1076,74.5843)">
            <path d="M111.057,83.043C110.948,86.504 110.819,89.966 110.728,93.428C110.722,93.637 111.05,93.649 111.057,93.44C111.21,89.98 111.324,86.518 111.457,83.057C111.466,82.804 111.066,82.789 111.057,83.043Z" style="fill-rule:nonzero;"/>
        </g>
        <g transform="matrix(1,0,0,-1,0,174.018)">
            <path d="M133.702,91.955C133.436,91.34 133.103,90.66 132.803,90.013C131.568,87.398 130.333,84.782 129.11,82.161C129.021,81.973 129.318,81.832 129.408,82.021C130.974,85.268 132.51,88.579 134.066,91.783C134.175,92.014 133.811,92.186 133.702,91.955Z" style="fill-rule:nonzero;"/>
        </g>
        <g transform="matrix(1,0,0,-1,0,174.31)">
            <path d="M110.522,91.786C110.839,91.183 111.128,90.531 111.431,89.903C112.634,87.373 113.836,84.842 115.041,82.313C115.13,82.124 115.427,82.265 115.338,82.453C113.855,85.622 112.344,88.795 110.882,91.957C110.774,92.186 110.413,92.015 110.522,91.786Z" style="fill-rule:nonzero;"/>
        </g>
        <g transform="matrix(1,0,0,-1,0,172.349)">
            <path d="M131.234,91.322C130.044,87.954 128.82,84.504 127.612,81.095C127.542,80.899 127.852,80.788 127.922,80.985C128.912,83.711 129.887,86.443 130.879,89.17C131.128,89.859 131.367,90.525 131.61,91.187C131.696,91.426 131.319,91.561 131.234,91.322Z" style="fill-rule:nonzero;"/>
        </g>
        <g transform="matrix(1,0,0,-1,0,172.547)">
            <path d="M112.899,91.14C113.178,90.521 113.398,89.844 113.644,89.179C114.608,86.515 115.562,83.847 116.526,81.183C116.597,80.986 116.906,81.097 116.836,81.293C115.669,84.628 114.425,87.979 113.323,91.292C113.227,91.561 112.803,91.41 112.899,91.14Z" style="fill-rule:nonzero;"/>
        </g>
        <g transform="matrix(1,0,0,-1,0,171.213)">
            <path d="M115.406,90.692C115.593,90.01 115.791,89.342 115.959,88.641C116.666,85.872 117.365,83.102 118.067,80.333C118.118,80.13 118.437,80.21 118.386,80.413C117.7,83.186 117.01,85.959 116.328,88.733C116.146,89.431 116.006,90.114 115.849,90.802C115.779,91.083 115.336,90.973 115.406,90.692Z" style="fill-rule:nonzero;"/>
        </g>
        <g transform="matrix(1,0,0,-1,0,171.071)">
            <path d="M128.661,90.826C128.419,90.143 128.345,89.426 128.141,88.725C127.443,85.908 126.766,83.086 126.063,80.271C126.012,80.068 126.331,79.988 126.382,80.191C127.089,83.005 127.822,85.813 128.534,88.627C128.684,89.341 128.957,90.008 129.066,90.725C129.13,90.982 128.726,91.083 128.661,90.826Z" style="fill-rule:nonzero;"/>
        </g>
        <g transform="matrix(1,0,0,-1,0,170.166)">
            <path d="M125.982,90.436C125.893,89.708 125.815,88.965 125.71,88.253C125.302,85.39 124.909,82.524 124.476,79.665C124.445,79.458 124.77,79.41 124.801,79.616C125.216,82.479 125.672,85.335 126.113,88.193C126.219,88.905 126.36,89.639 126.486,90.361C126.534,90.681 126.03,90.756 125.982,90.436Z" style="fill-rule:nonzero;"/>
        </g>
        <g transform="matrix(1,0,0,-1,0,170.304)">
            <path d="M118.003,90.401C118.119,89.689 118.245,88.972 118.352,88.265C118.79,85.429 119.225,82.593 119.647,79.754C119.678,79.548 120.003,79.596 119.973,79.803C119.453,83.356 118.931,86.891 118.456,90.468C118.413,90.756 117.96,90.688 118.003,90.401Z" style="fill-rule:nonzero;"/>
        </g>
        <g transform="matrix(1,0,0,-1,0,169.795)">
            <path d="M120.626,90.23C120.681,89.508 120.74,88.786 120.782,88.065C120.944,85.184 121.116,82.303 121.253,79.42C121.263,79.211 121.591,79.227 121.581,79.436C121.435,82.318 121.323,85.202 121.202,88.086C121.173,88.807 121.161,89.532 121.145,90.255C121.129,90.584 120.61,90.559 120.626,90.23Z" style="fill-rule:nonzero;"/>
        </g>
        <g transform="matrix(1,0,0,-1,0,169.811)">
            <path d="M123.347,90.308C123.326,89.731 123.317,89.153 123.286,88.576C123.258,88.009 123.229,87.449 123.203,86.885C123.2,86.829 123.198,86.772 123.195,86.716C123.091,84.294 122.991,81.873 122.867,79.452C122.857,79.243 123.185,79.227 123.196,79.436C123.309,81.829 123.445,84.221 123.577,86.613C123.58,86.669 123.583,86.725 123.586,86.782C123.639,87.708 123.664,88.618 123.735,89.578C123.751,89.814 123.768,90.05 123.782,90.287C123.796,90.563 123.361,90.584 123.347,90.308Z" style="fill-rule:nonzero;"/>
        </g>
    </g>
</svg>
