<?xml version="1.0" encoding="UTF-8" standalone="no"?>
<!DOCTYPE svg PUBLIC "-//W3C//DTD SVG 1.1//EN" "http://www.w3.org/Graphics/SVG/1.1/DTD/svg11.dtd">
<svg width="100%" height="100%" viewBox="0 0 55 54" version="1.1" xmlns="http://www.w3.org/2000/svg" xmlns:xlink="http://www.w3.org/1999/xlink" xml:space="preserve" xmlns:serif="http://www.serif.com/" style="fill-rule:evenodd;clip-rule:evenodd;stroke-linejoin:round;stroke-miterlimit:2;">
    <g transform="matrix(1,0,0,-1,-96.1529,133.58)">
        <path d="M148.121,113.361C148.116,113.344 148.109,113.334 148.102,113.329C148.133,113.11 148.17,112.898 148.196,112.691C148.203,112.637 148.21,112.583 148.217,112.528C148.221,112.501 148.224,112.474 148.228,112.446C148.23,112.424 148.233,112.401 148.236,112.379C148.246,112.297 148.256,112.215 148.266,112.134C148.202,111.438 148.569,110.815 148.786,110.132C148.948,109.474 148.939,108.749 148.735,108.083C148.492,107.399 148.578,106.71 148.661,106.035C148.777,105.328 148.874,104.646 148.905,103.928C148.801,103.244 148.723,102.546 148.377,101.911C148.084,101.286 147.748,100.639 147.442,100.044C147.248,99.386 147.001,98.742 146.747,98.123C146.489,97.469 146.229,96.885 145.934,96.247C145.648,95.64 145.305,95.042 144.951,94.454C144.604,93.896 144.208,93.296 143.817,92.769C143.446,92.187 142.991,91.679 142.592,91.132C142.148,90.585 141.652,90.172 141.197,89.636C140.765,89.128 140.262,88.642 139.748,88.19C139.249,87.756 138.606,87.416 138.14,86.942C137.57,86.55 137.001,86.188 136.385,85.893C136.334,85.871 136.283,85.85 136.232,85.828C136.139,85.785 136.109,85.781 136.014,85.742C135.937,85.711 135.869,85.664 135.798,85.624C135.711,85.572 135.688,85.557 135.598,85.51C135.524,85.473 135.455,85.429 135.386,85.384C135.301,85.328 135.279,85.312 135.19,85.263C135.142,85.236 135.095,85.208 135.047,85.181C134.712,84.97 134.337,84.835 133.982,84.663C133.619,84.437 133.272,84.291 132.903,84.137C132.531,84.004 132.21,83.741 131.849,83.569C131.465,83.389 131.1,83.274 130.727,83.117C130.359,82.958 129.955,82.918 129.573,82.806C129.52,82.792 129.467,82.778 129.414,82.764C128.7,82.551 128.012,82.506 127.286,82.361C126.596,82.276 125.844,82.169 125.153,82.109C124.419,81.988 123.738,81.94 122.995,81.896C122.294,81.878 121.538,81.939 120.839,81.976C119.401,82.105 117.98,82.362 116.576,82.692C116.523,82.705 116.469,82.718 116.416,82.731C115.749,82.902 115.016,83.049 114.358,83.266C113.669,83.506 113.035,83.76 112.393,84.11C111.758,84.391 111.117,84.755 110.509,85.097C109.883,85.431 109.309,85.87 108.761,86.307C107.97,87.013 106.899,87.38 106.121,88.095C106.082,88.134 106.043,88.172 106.004,88.211C105.878,88.326 105.793,88.422 105.682,88.548C105.573,88.678 105.487,88.784 105.386,88.912C105.281,89.039 105.194,89.159 105.098,89.28C104.997,89.405 104.902,89.535 104.813,89.647C104.718,89.771 104.596,89.894 104.509,89.994C104.471,90.034 104.434,90.075 104.397,90.115C104.363,90.151 104.33,90.187 104.298,90.225C104.265,90.261 104.247,90.278 104.208,90.322C104.159,90.377 104.11,90.432 104.057,90.485C104.007,90.535 103.946,90.595 103.91,90.629C103.852,90.688 103.795,90.748 103.737,90.807C103.572,90.961 103.386,91.188 103.224,91.346C103.037,91.548 102.894,91.703 102.723,91.918C102.576,92.092 102.397,92.32 102.261,92.503C102.097,92.722 101.972,92.895 101.819,93.122C101.693,93.313 101.539,93.557 101.412,93.748C101.383,93.794 101.353,93.84 101.324,93.887C100.969,94.45 100.641,95.091 100.319,95.678C99.941,96.253 99.734,96.944 99.458,97.55C99.143,98.19 99.081,98.852 98.758,99.49C98.557,100.133 98.328,100.795 98.171,101.469C98.013,102.115 97.811,102.813 97.722,103.476C97.623,104.176 97.602,104.836 97.586,105.54C97.557,106.244 97.514,106.896 97.533,107.603C97.544,108.267 97.561,108.992 97.641,109.652C97.654,109.761 97.666,109.87 97.679,109.979C97.699,110.164 97.736,110.403 97.763,110.591C97.798,110.793 97.84,111.022 97.877,111.206C97.921,111.432 97.949,111.598 97.98,111.826C98,112.014 98.042,112.243 98.081,112.444C98.12,112.63 98.176,112.865 98.224,113.045C98.238,113.098 98.252,113.151 98.265,113.204C98.308,113.373 98.339,113.484 98.392,113.651C98.443,113.818 98.484,113.925 98.548,114.088C98.61,114.253 98.657,114.355 98.725,114.518C98.793,114.682 98.833,114.783 98.903,114.946C98.97,115.11 99.001,115.213 99.066,115.378C99.086,115.429 99.105,115.48 99.124,115.532C99.135,115.561 99.148,115.596 99.157,115.621C99.169,115.655 99.187,115.701 99.204,115.748C99.233,115.825 99.261,115.902 99.29,115.979C99.3,116.005 99.309,116.031 99.319,116.056C99.326,116.077 99.333,116.098 99.341,116.119C99.36,116.17 99.38,116.222 99.399,116.273C99.442,116.387 99.492,116.518 99.528,116.612C99.629,116.863 99.699,117.051 99.798,117.302C99.844,117.423 99.885,117.512 99.94,117.637C99.992,117.758 100.036,117.861 100.087,117.97C100.122,118.044 100.157,118.118 100.192,118.193C100.472,118.78 100.82,119.387 101.133,119.976C101.487,120.527 101.829,121.147 102.2,121.684C102.625,122.218 102.979,122.794 103.436,123.289C103.871,123.831 104.314,124.29 104.784,124.804C105.247,125.295 105.703,125.791 106.201,126.267C106.681,126.725 107.27,127.118 107.846,127.456C108.371,127.875 108.996,128.197 109.529,128.59C110.115,128.955 110.697,129.265 111.314,129.567C111.94,129.867 112.526,130.142 113.178,130.381C113.815,130.582 114.511,130.666 115.16,130.854C115.781,131.03 116.441,131.318 117.074,131.483C117.737,131.611 118.446,131.618 119.097,131.636C119.799,131.635 120.413,131.689 121.109,131.669C121.802,131.694 122.417,131.833 123.122,131.939C123.787,132.11 124.485,131.984 125.143,131.822C126.116,131.533 127.097,131.348 128.074,131.092C128.127,131.078 128.18,131.064 128.233,131.05C128.286,131.037 128.339,131.022 128.392,131.008C128.431,130.996 128.479,130.981 128.533,130.964C128.638,130.931 128.743,130.897 128.848,130.866C128.887,130.854 128.935,130.842 128.991,130.83C129.044,130.816 129.098,130.803 129.151,130.789C129.646,130.714 130.065,130.416 130.577,130.382C131.075,130.303 131.556,130.164 132.039,130.027C132.551,129.951 132.993,129.704 133.418,129.438C133.843,129.166 134.284,128.944 134.714,128.692C135.135,128.426 135.581,128.2 136.001,127.93C136.045,127.898 136.09,127.866 136.135,127.834C136.448,127.614 136.761,127.379 137.068,127.136C137.362,126.887 137.672,126.66 137.968,126.413C138.267,126.169 138.562,125.899 138.847,125.648C139.134,125.389 139.393,125.11 139.679,124.841C139.97,124.573 140.226,124.292 140.477,123.998C140.513,123.957 140.549,123.915 140.585,123.874C141.06,123.404 141.509,122.861 141.849,122.272C142.202,121.702 142.411,120.99 142.741,120.434C143.158,119.886 143.573,119.36 143.94,118.78C144.258,118.158 144.458,117.543 144.716,116.898C144.963,116.278 145.219,115.643 145.428,114.993C145.639,114.372 145.788,113.673 145.894,113.028C145.94,112.348 146.086,111.664 146.077,111.007C146.149,110.314 146.238,109.697 146.257,109C146.296,107.993 146.312,106.983 146.246,105.975C146.23,105.329 146.098,104.623 145.998,103.988C145.989,103.934 145.98,103.879 145.971,103.825C145.93,103.563 145.896,103.373 145.843,103.113C145.815,102.98 145.779,102.801 145.747,102.645C145.721,102.512 145.672,102.335 145.647,102.178C145.618,101.965 145.558,101.689 145.487,101.487C145.474,101.433 145.461,101.38 145.448,101.327C145.191,100.299 144.783,99.393 144.386,98.417C144.1,97.762 143.847,97.165 143.516,96.53C143.042,95.609 142.46,94.721 141.845,93.917C141.428,93.354 140.989,92.819 140.558,92.285C140.522,92.244 140.486,92.203 140.45,92.162C140.29,91.984 140.076,91.764 139.91,91.592C139.772,91.45 139.683,91.354 139.543,91.213C139.402,91.073 139.316,90.975 139.168,90.843C138.997,90.675 138.768,90.472 138.599,90.302C138.559,90.265 138.519,90.227 138.479,90.19C137.983,89.736 137.619,89.128 137.122,88.635C136.738,88.018 136.021,87.806 135.406,87.525C134.784,87.247 134.091,87.056 133.542,86.693C132.902,86.423 132.324,86.135 131.682,85.884C131.038,85.62 130.451,85.367 129.779,85.18C129.142,85.021 128.471,84.833 127.793,84.772C127.156,84.659 126.45,84.559 125.816,84.436C125.154,84.259 124.463,84.235 123.805,84.158C123.116,84.077 122.464,83.963 121.77,84.062C121.076,84.027 120.448,84.376 119.761,84.402C119.111,84.478 118.432,84.671 117.768,84.737C117.107,84.828 116.42,84.986 115.783,85.161C115.133,85.402 114.544,85.706 113.913,85.964C113.288,86.272 112.687,86.487 112.072,86.817C111.475,87.104 110.88,87.455 110.313,87.83C109.83,88.28 109.218,88.648 108.75,89.102C108.253,89.556 107.613,89.877 107.164,90.357C106.617,90.794 106.217,91.291 105.729,91.787C105.249,92.284 104.858,92.797 104.451,93.358C103.886,94.206 103.394,95.078 102.853,95.915C102.824,95.962 102.796,96.009 102.767,96.056C102.675,96.204 102.612,96.302 102.514,96.444C102.424,96.587 102.323,96.685 102.259,96.833C102.185,96.98 102.139,97.119 102.051,97.247C101.957,97.379 101.837,97.497 101.743,97.616C101.646,97.745 101.546,97.882 101.456,98C101.425,98.047 101.395,98.093 101.364,98.14C101.272,98.283 101.193,98.395 101.121,98.547C101.04,98.694 100.982,98.819 100.877,98.958C100.762,99.09 100.714,99.226 100.691,99.392C100.683,99.566 100.68,99.71 100.678,99.885C100.674,100.063 100.671,100.195 100.668,100.372C100.664,100.428 100.661,100.484 100.657,100.54C100.615,101.216 100.614,101.929 100.36,102.552C100.183,103.185 100.122,103.893 99.986,104.529C99.906,105.211 99.83,105.869 99.829,106.547C99.829,107.559 99.877,108.572 100.017,109.573C100.177,110.574 100.39,111.553 100.619,112.517C100.631,112.571 100.644,112.624 100.656,112.678C100.778,113.352 101.008,113.916 101.288,114.539C101.556,115.168 101.841,115.693 102.048,116.346C102.25,116.949 102.551,117.553 102.873,118.127C103.16,118.684 103.458,119.308 103.774,119.883C104.046,120.471 104.5,121.006 104.903,121.497C104.939,121.538 104.975,121.579 105.012,121.62C105.462,122.167 105.953,122.583 106.405,123.128C106.838,123.632 107.334,124.146 107.825,124.619C108.332,125.064 108.866,125.546 109.445,125.889C110.023,126.298 110.623,126.573 111.23,126.929C111.836,127.274 112.426,127.578 113.05,127.904C113.643,128.221 114.316,128.475 114.951,128.692C115.004,128.709 115.056,128.725 115.108,128.742C115.802,128.965 116.449,129.203 117.17,129.331C117.834,129.558 118.58,129.643 119.282,129.618C120.024,129.639 120.699,129.436 121.423,129.487C122.093,129.456 122.842,129.53 123.523,129.583C124.264,129.709 124.925,129.535 125.623,129.301C126.27,128.99 126.981,128.926 127.653,128.74C128.296,128.503 129.073,128.544 129.712,128.285C129.766,128.273 129.82,128.261 129.874,128.249C130.538,128.21 131.131,127.857 131.762,127.657C132.337,127.373 132.904,126.992 133.48,126.687C133.995,126.304 134.639,126.033 135.128,125.615C135.588,125.137 136.145,124.748 136.606,124.313C137.005,123.78 137.62,123.443 137.971,122.903C138.365,122.361 138.929,122.014 139.351,121.503C139.769,120.979 140.311,120.597 140.625,119.995C140.946,119.568 141.153,118.849 141.436,118.277C141.644,117.622 142.11,117.181 142.455,116.584C142.854,116.017 142.947,115.377 143.183,114.746C143.353,114.113 143.807,113.557 143.918,112.89C144.002,112.239 144.006,111.552 143.962,110.881C144.1,110.257 143.989,109.568 144.231,108.93C144.383,108.293 144.522,107.611 144.636,106.945C144.62,106.278 144.537,105.595 144.251,104.974C143.931,104.35 143.748,103.707 143.782,103.042C143.752,102.369 143.897,101.634 143.606,101.018C143.382,100.38 143.153,99.756 142.699,99.22C142.302,98.647 141.889,98.159 141.513,97.598C141.216,96.996 140.848,96.494 140.51,95.911C140.09,95.427 139.91,94.734 139.595,94.13C139.248,93.574 139.024,92.85 138.449,92.47C137.932,92.045 137.468,91.552 136.96,91.117C136.451,90.685 135.964,90.204 135.393,89.852C134.839,89.477 134.299,89.052 133.629,88.884C132.989,88.657 132.304,88.52 131.691,88.315C131.086,88.016 130.482,87.834 129.859,87.593C129.21,87.395 128.628,87.204 127.974,87.021C127.327,86.847 126.76,86.47 126.094,86.289C125.463,85.981 124.781,85.988 124.111,85.942C123.445,85.896 122.768,85.87 122.096,85.91C121.425,85.893 120.754,86.049 120.118,86.324C119.513,86.688 118.837,86.703 118.167,86.701C117.495,86.732 116.763,86.651 116.164,86.981C115.525,87.187 114.917,87.516 114.383,87.931C113.519,88.457 112.795,89.163 111.855,89.508C111.806,89.533 111.756,89.557 111.707,89.581C111.099,89.845 110.423,90.099 109.817,90.428C109.262,90.818 108.696,91.242 108.356,91.864C107.974,92.453 107.679,93.115 107.229,93.585C106.788,94.119 106.374,94.584 106.017,95.181C105.659,95.77 105.324,96.293 104.954,96.876C104.599,97.408 104.014,97.892 103.597,98.446C103.088,98.959 102.89,99.638 102.66,100.278C102.247,100.868 102.498,101.68 102.513,102.357C102.612,103.101 102.625,103.705 102.17,104.347C101.924,104.997 101.487,105.637 101.552,106.339C101.515,107.021 101.533,107.712 101.545,108.399C101.614,109.078 101.647,109.773 101.769,110.446C102.049,111.451 102.73,112.335 103.179,113.231C103.201,113.281 103.222,113.332 103.244,113.382C103.478,113.971 103.726,114.62 103.961,115.234C104.184,115.826 104.506,116.468 104.866,116.983C105.27,117.518 105.596,118.112 105.892,118.685C106.272,119.252 106.384,119.958 106.967,120.378C107.55,120.783 107.797,121.397 108.273,121.91C108.706,122.394 108.982,123.16 109.713,123.335C110.206,123.775 110.967,123.924 111.487,124.295C112.07,124.622 112.64,125.013 113.192,125.364C113.795,125.703 114.369,125.979 115.022,126.209C115.68,126.427 116.28,126.619 116.945,126.814C117.569,127.008 118.251,127.13 118.909,127.27C119.551,127.371 120.252,127.455 120.9,127.51C121.575,127.488 122.256,127.722 122.929,127.765C123.617,127.83 124.306,127.898 124.983,127.744C125.667,127.582 126.262,127.195 126.888,126.884C127.453,126.484 128.173,126.529 128.796,126.262C129.394,126.041 130.025,125.699 130.565,125.359C131.146,125.053 131.809,124.822 132.375,124.521C132.424,124.496 132.473,124.472 132.522,124.447C133.083,124.085 133.765,123.927 134.371,123.581C135.012,123.324 135.628,122.954 136.021,122.379C136.444,121.847 136.851,121.269 137.237,120.736C137.611,120.165 138.027,119.63 138.309,119.025C138.607,118.389 139.037,117.942 139.385,117.338C139.787,116.779 139.964,116.159 140.425,115.611C140.801,115.059 141.227,114.47 141.513,113.845C141.691,113.187 141.856,112.513 141.993,111.848C142.295,111.203 141.956,110.45 142.137,109.803C142.194,109.113 142.222,108.462 142.412,107.766C142.4,107.076 142.381,106.398 142.273,105.716C142.2,105.04 142.077,104.361 141.952,103.687C141.772,102.678 141.5,101.678 141.109,100.725C140.876,100.076 140.506,99.487 140.067,98.95C139.654,98.375 139.128,97.956 138.83,97.33C138.564,96.704 138.296,96.07 137.992,95.428C137.424,94.562 136.668,93.846 135.903,93.162C135.861,93.127 135.82,93.091 135.778,93.055C135.27,92.603 134.755,92.17 134.199,91.776C133.664,91.353 133.083,91.004 132.482,90.686C131.842,90.447 131.159,90.305 130.499,90.147C129.817,90.114 129.169,89.903 128.532,89.778C127.9,89.703 127.351,89.107 126.747,88.786C126.128,88.244 125.457,88.381 124.78,88.253C124.104,88.197 123.428,88.129 122.749,88.169C122.068,88.173 121.397,88.224 120.721,88.303C120.044,88.38 119.383,88.499 118.717,88.641C118.048,88.749 117.406,88.982 116.759,89.184C116.137,89.439 115.451,89.572 114.902,90.004C114.393,90.481 113.831,90.877 113.26,91.182C113.209,91.204 113.158,91.226 113.107,91.248C113.018,91.287 112.919,91.328 112.835,91.36C112.779,91.381 112.714,91.41 112.65,91.43C112.586,91.452 112.522,91.473 112.458,91.497C112.367,91.529 112.277,91.566 112.182,91.605C112.13,91.626 112.078,91.647 112.026,91.668C111.942,91.699 111.878,91.727 111.807,91.778C111.738,91.822 111.668,91.867 111.599,91.911C111.526,91.957 111.463,91.992 111.398,92.048C111.269,92.149 111.131,92.245 111.007,92.345C110.964,92.378 110.92,92.411 110.876,92.444C110.603,92.648 110.346,92.882 110.088,93.108C109.775,93.277 109.64,93.624 109.465,93.942C109.286,94.248 109.137,94.543 108.966,94.868C108.792,95.164 108.708,95.5 108.507,95.783C108.269,96.027 108.103,96.298 107.894,96.551C107.862,96.596 107.829,96.64 107.797,96.684C107.615,96.904 107.425,97.216 107.296,97.468C107.126,97.711 106.83,97.933 106.625,98.157C106.398,98.39 106.172,98.637 105.964,98.882C105.763,99.141 105.456,99.35 105.35,99.656C105.223,99.954 105.085,100.243 104.973,100.545C104.954,100.597 104.935,100.648 104.916,100.7C104.688,101.354 104.373,101.994 104.394,102.719C104.296,103.399 104.168,104.09 104.05,104.763C103.795,105.433 103.844,106.145 103.823,106.832C103.787,107.532 103.847,108.217 103.886,108.916C103.931,109.611 104.06,110.294 104.175,110.982C104.187,111.691 104.803,112.271 105.143,112.85C105.174,112.897 105.205,112.944 105.236,112.992C105.644,113.536 105.888,114.057 106.082,114.668C106.263,115.281 106.676,115.771 106.978,116.297C107.313,116.82 107.754,117.306 108.05,117.811C108.331,118.377 108.531,119.041 108.836,119.608C109.072,120.266 109.623,120.641 110.093,121.067C110.135,121.102 110.177,121.138 110.219,121.173C110.611,121.52 111.038,121.821 111.44,122.157C111.85,122.485 112.391,122.62 112.881,122.805C113.362,123.014 113.902,123.088 114.341,123.325C114.784,123.549 115.245,123.79 115.72,123.971C116.184,124.188 116.673,124.34 117.156,124.51C117.206,124.533 117.256,124.556 117.307,124.58C117.888,124.886 118.543,125.112 119.18,125.354C119.822,125.566 120.512,125.598 121.181,125.63C121.852,125.666 122.536,125.664 123.203,125.614C123.875,125.568 124.556,125.53 125.217,125.411C125.908,125.398 126.511,125.003 127.11,124.681C127.737,124.347 128.188,123.849 128.85,123.684C129.458,123.382 130.033,123.205 130.611,122.838C131.245,122.682 131.909,122.457 132.569,122.233C133.787,121.636 134.822,120.689 135.524,119.53C135.551,119.482 135.579,119.433 135.607,119.385C135.705,119.215 135.781,119.087 135.873,118.913C135.967,118.737 136.035,118.615 136.127,118.439C136.196,118.316 136.22,118.247 136.29,118.127C136.353,118.03 136.435,117.918 136.49,117.845C136.522,117.8 136.553,117.755 136.585,117.711C136.645,117.626 136.718,117.52 136.766,117.456C136.781,117.432 136.796,117.409 136.81,117.386C136.838,117.339 136.865,117.291 136.893,117.244C137.022,116.998 137.217,116.705 137.334,116.454C137.442,116.199 137.636,115.905 137.826,115.691C138.006,115.446 138.189,115.182 138.394,114.95C138.589,114.687 138.767,114.443 138.961,114.182C139.147,113.915 139.197,113.606 139.311,113.317C139.327,113.265 139.344,113.213 139.36,113.16C139.491,112.766 139.569,112.361 139.66,111.953C139.752,111.549 139.825,111.143 139.896,110.736C139.965,110.328 140.021,109.92 140.07,109.507C140.102,109.091 140.153,108.682 140.169,108.267C140.174,107.853 140.187,107.438 140.154,107.025C140.147,106.943 140.14,106.861 140.133,106.779C140.077,106.172 139.988,105.581 139.883,104.984C139.778,104.389 139.694,103.786 139.542,103.201C139.397,102.615 139.217,102.031 138.976,101.475C138.724,100.922 138.546,100.34 138.13,99.871C137.722,99.408 137.416,98.886 137.115,98.385C137.087,98.338 137.059,98.291 137.031,98.243C136.723,97.657 136.533,96.973 136.033,96.513C135.592,96.013 135.152,95.518 134.652,95.075C134.148,94.636 133.652,94.203 133.115,93.805C132.575,93.417 132.053,93.001 131.458,92.694C130.905,92.312 130.227,92.173 129.544,92.098C128.903,91.945 128.145,92.184 127.637,91.643C127.089,91.304 126.485,90.882 125.848,90.683C125.194,90.576 124.529,90.511 123.866,90.464C123.205,90.419 122.535,90.438 121.873,90.481C121.215,90.543 120.549,90.606 119.893,90.707C118.907,90.862 117.948,91.154 117.009,91.487C116.958,91.508 116.907,91.528 116.856,91.548C116.707,91.607 116.562,91.66 116.414,91.722C116.264,91.779 116.12,91.839 115.973,91.901C115.826,91.963 115.68,92.023 115.543,92.102C115.405,92.182 115.274,92.276 115.136,92.351C115.001,92.434 114.852,92.498 114.72,92.578C114.672,92.605 114.624,92.632 114.577,92.659C114.48,92.714 114.388,92.764 114.294,92.822C114.2,92.878 114.109,92.939 114.017,92.998C113.972,93.025 113.927,93.054 113.881,93.086C113.814,93.133 113.746,93.18 113.679,93.227C113.609,93.278 113.549,93.315 113.477,93.364C113.409,93.41 113.34,93.454 113.266,93.493C113.192,93.536 113.125,93.567 113.054,93.614C112.987,93.662 112.919,93.708 112.852,93.756C112.784,93.808 112.724,93.852 112.657,93.904C112.614,93.938 112.571,93.972 112.528,94.006C111.992,94.429 111.472,94.867 110.994,95.357C110.522,95.849 110.294,96.561 109.991,97.171C109.725,97.77 109.544,98.479 108.927,98.83C108.424,99.308 107.958,99.83 107.527,100.376C107.241,100.998 106.999,101.633 106.782,102.282C106.549,102.929 106.438,103.601 106.322,104.275C106.194,104.949 106.188,105.629 106.123,106.309C106.076,106.983 106.07,107.671 106.111,108.352C106.144,109.03 106.27,109.708 106.37,110.379C106.381,110.433 106.391,110.487 106.402,110.541C106.425,110.659 106.448,110.779 106.472,110.894C106.513,111.07 106.556,111.247 106.6,111.42C106.63,111.537 106.666,111.653 106.704,111.766C106.783,111.927 106.896,112.089 106.99,112.238C107.038,112.309 107.087,112.379 107.135,112.449C107.522,113.043 107.977,113.547 108.326,114.128C108.63,114.675 109.001,115.271 109.419,115.768C109.669,116.355 109.881,117.075 110.174,117.69C110.38,118.423 111.022,118.772 111.479,119.272C112.008,119.712 112.507,120.171 113.079,120.56C113.606,121.017 114.289,121.203 114.951,121.405C115.586,121.616 116.313,121.638 116.882,122.013C117.441,122.355 118.077,122.688 118.699,122.971C119.357,123.169 120.045,123.25 120.72,123.321C121.406,123.383 122.082,123.403 122.769,123.355C123.46,123.326 124.122,123.228 124.805,123.135C125.456,122.963 126.193,123.036 126.754,122.518C127.309,122.107 127.882,121.635 128.371,121.216C128.98,121.011 129.755,121.007 130.411,120.819C131.211,120.795 131.646,120.207 132.202,119.816C132.243,119.78 132.284,119.744 132.326,119.708C132.829,119.268 133.325,118.801 133.766,118.291C134.142,117.737 134.457,117.111 134.739,116.518C134.917,115.862 135.407,115.374 135.832,114.874C136.183,114.313 136.824,113.852 136.958,113.176C137.201,112.542 137.356,111.884 137.498,111.225C137.648,110.562 137.739,109.903 137.812,109.227C137.884,108.553 137.92,107.883 137.875,107.205C137.857,106.529 137.732,105.863 137.625,105.197C137.513,104.538 137.382,103.867 137.179,103.223C137.001,102.573 136.736,101.942 136.44,101.337C136.109,100.749 135.789,100.15 135.438,99.578C135.06,99.02 134.75,98.402 134.266,97.921C133.812,97.417 133.353,96.918 132.827,96.49C132.785,96.454 132.743,96.419 132.701,96.383C132.68,96.365 132.66,96.348 132.639,96.33C132.618,96.313 132.598,96.295 132.577,96.278C132.534,96.244 132.491,96.21 132.448,96.176C132.17,95.952 131.879,95.728 131.585,95.525C131.289,95.32 131.002,95.107 130.694,94.913C130.391,94.718 130.084,94.529 129.762,94.364C129.463,94.152 129.076,94.118 128.721,94.053C128.358,93.974 127.984,93.972 127.664,93.832C127.613,93.814 127.561,93.797 127.509,93.779C127.365,93.727 127.182,93.676 127.019,93.623C126.876,93.565 126.703,93.478 126.55,93.387C126.406,93.305 126.232,93.227 126.075,93.151C125.917,93.083 125.747,93.008 125.582,92.952C125.413,92.915 125.236,92.892 125.066,92.862C125.012,92.855 124.957,92.849 124.903,92.842C123.95,92.717 122.983,92.67 122.026,92.758C121.549,92.804 121.069,92.833 120.595,92.911C120.122,92.991 119.644,93.062 119.18,93.187C118.717,93.316 118.257,93.458 117.806,93.624C117.755,93.644 117.704,93.664 117.653,93.684C117.498,93.746 117.348,93.797 117.196,93.866C117.044,93.933 116.894,93.987 116.744,94.06C116.593,94.13 116.445,94.19 116.299,94.27C116.152,94.347 116.008,94.415 115.867,94.504C115.725,94.591 115.582,94.662 115.441,94.75C115.394,94.779 115.348,94.807 115.301,94.836C114.919,95.075 114.552,95.336 114.192,95.606C114.044,95.716 113.907,95.82 113.762,95.933C113.546,96.09 113.347,96.283 113.143,96.453C113.082,96.509 113.02,96.564 112.959,96.619C112.877,96.691 112.8,96.764 112.721,96.842C112.643,96.918 112.563,96.997 112.488,97.07C112.411,97.149 112.335,97.228 112.268,97.316C112.199,97.402 112.13,97.48 112.092,97.596C112.05,97.701 111.999,97.816 111.962,97.909C111.939,97.961 111.916,98.013 111.892,98.065C111.604,98.723 111.434,99.31 110.94,99.795C110.412,100.242 109.879,100.694 109.601,101.318C109.19,102.232 108.84,103.182 108.644,104.17C108.504,104.823 108.463,105.497 108.407,106.163C108.353,106.824 108.344,107.499 108.385,108.167C108.412,108.834 108.545,109.497 108.658,110.155C108.804,110.803 108.923,111.483 109.293,112.053C109.619,112.637 110.178,113.143 110.621,113.589C111.136,114.03 111.21,114.755 111.452,115.359C111.592,116.509 112.541,117.05 113.224,117.762C113.265,117.798 113.307,117.833 113.349,117.869C113.875,118.315 114.441,118.739 115.031,119.103C115.57,119.569 116.371,119.571 116.961,119.883C117.616,120.143 118.234,120.354 118.88,120.693C119.556,120.866 120.239,120.98 120.937,121.046C121.622,121.111 122.332,121.124 123.019,121.069C123.073,121.064 123.128,121.059 123.182,121.054C123.406,121.036 123.609,121.013 123.832,120.983C124.04,120.96 124.267,120.922 124.474,120.892C124.801,120.833 125.113,120.767 125.431,120.695C125.751,120.604 126.065,120.533 126.346,120.355C126.393,120.322 126.44,120.29 126.487,120.257C126.871,119.895 127.328,119.771 127.761,119.562C128.183,119.338 128.655,119.217 129.162,119.108C129.631,118.937 130.01,118.617 130.406,118.332C130.794,118.033 131.158,117.705 131.514,117.368C131.848,117.014 132.247,116.709 132.466,116.255C132.493,116.206 132.52,116.158 132.547,116.109C132.885,115.487 133.068,114.736 133.542,114.242C133.924,113.651 134.627,113.201 134.783,112.473C135.051,111.803 135.191,111.098 135.345,110.396C135.484,109.699 135.543,108.973 135.593,108.265C135.601,107.542 135.56,106.836 135.465,106.12C135.344,105.422 135.237,104.7 135.028,104.018C135.003,103.939 134.979,103.861 134.955,103.782C134.917,103.665 134.888,103.555 134.844,103.44C134.804,103.327 134.764,103.211 134.724,103.101C134.681,102.989 134.635,102.877 134.589,102.766C134.546,102.655 134.492,102.547 134.437,102.44C134.381,102.331 134.331,102.225 134.275,102.119C134.25,102.07 134.225,102.021 134.2,101.972C134.116,101.802 134.032,101.638 133.94,101.471C133.881,101.36 133.818,101.254 133.752,101.145C133.686,101.037 133.627,100.928 133.558,100.823C133.454,100.664 133.357,100.505 133.246,100.351C133.216,100.305 133.186,100.26 133.155,100.214C133.064,100.066 132.954,99.927 132.848,99.788C132.745,99.648 132.62,99.523 132.507,99.388C132.394,99.257 132.272,99.129 132.155,99C132.036,98.874 131.909,98.75 131.786,98.626C131.663,98.504 131.528,98.387 131.4,98.273C131.358,98.237 131.316,98.202 131.274,98.166C130.497,97.503 129.647,96.934 128.759,96.431C128.202,95.998 127.426,96.101 126.835,95.767C126.2,95.58 125.551,95.36 124.9,95.144C124.231,95.027 123.543,95.001 122.867,94.998C122.188,95.03 121.505,95.073 120.837,95.182C120.167,95.302 119.496,95.428 118.858,95.671C118.806,95.69 118.754,95.708 118.703,95.726C118.473,95.805 118.242,95.903 118.017,95.995C117.79,96.097 117.569,96.193 117.346,96.303C117.124,96.403 116.906,96.528 116.699,96.655C116.488,96.786 116.279,96.905 116.075,97.049C115.873,97.182 115.671,97.332 115.476,97.475C115.432,97.509 115.389,97.542 115.345,97.576C115.148,97.716 114.967,97.892 114.776,98.041C114.583,98.199 114.404,98.36 114.233,98.54C114.056,98.707 113.889,98.895 113.727,99.074C113.54,99.248 113.509,99.523 113.406,99.762C113.316,99.972 113.244,100.262 113.083,100.41C113.052,100.455 113.02,100.5 112.988,100.545C112.87,100.717 112.783,100.829 112.675,101.009C112.571,101.174 112.491,101.317 112.376,101.484C112.248,101.605 112.064,101.745 111.947,101.895C111.821,102.034 111.673,102.189 111.613,102.366C111.54,102.542 111.464,102.721 111.399,102.897C111.381,102.949 111.362,103.001 111.344,103.052C111.32,103.122 111.293,103.193 111.269,103.259C111.252,103.304 111.238,103.353 111.221,103.399C111.182,103.515 111.14,103.633 111.103,103.747C111.081,103.827 111.059,103.906 111.037,103.985C110.837,104.629 110.772,105.297 110.709,105.964C110.625,106.625 110.622,107.298 110.655,107.967C110.678,108.634 110.815,109.297 110.953,109.952C111.14,110.584 111.213,111.289 111.731,111.795C112.182,112.301 112.733,112.764 112.987,113.321C113.232,113.917 113.354,114.686 113.811,115.17C114.262,115.662 114.779,116.099 115.299,116.505C115.835,116.901 116.388,117.29 117.001,117.549C117.609,117.838 118.213,118.089 118.854,118.285C119.485,118.529 120.133,118.637 120.799,118.731C121.467,118.819 122.123,118.841 122.795,118.79C123.462,118.728 124.112,118.641 124.763,118.476C125.418,118.364 126.002,118.005 126.633,117.804C127.21,117.518 127.878,117.323 128.425,116.937C128.977,116.574 129.494,116.135 129.973,115.676C130.523,115.281 130.759,114.584 131.189,114.106C131.596,113.578 131.827,112.946 132.297,112.447C132.599,111.85 132.833,111.212 132.973,110.563C132.991,110.483 133.01,110.403 133.028,110.323C133.054,110.216 133.075,110.115 133.093,110.004C133.113,109.898 133.132,109.785 133.151,109.685C133.173,109.524 133.197,109.356 133.217,109.201C133.231,109.038 133.244,108.869 133.264,108.714C133.27,108.632 133.277,108.55 133.283,108.468C133.312,108.221 133.301,107.952 133.301,107.704C133.289,107.442 133.282,107.199 133.256,106.937C133.239,106.69 133.21,106.423 133.174,106.178C133.082,105.675 132.985,105.172 132.827,104.685C132.811,104.633 132.794,104.58 132.778,104.528C132.638,104.082 132.456,103.65 132.265,103.223C132.068,102.799 131.858,102.377 131.605,101.981C131.354,101.583 131.075,101.202 130.757,100.855C130.448,100.501 130.114,100.168 129.754,99.867C129.404,99.553 129.019,99.283 128.629,99.024C128.582,98.995 128.535,98.967 128.489,98.938C128.35,98.855 128.227,98.767 128.084,98.692C127.943,98.614 127.814,98.529 127.671,98.458C127.529,98.384 127.392,98.308 127.246,98.249C127.095,98.196 126.942,98.148 126.793,98.105C126.643,98.056 126.496,97.984 126.353,97.933C126.302,97.916 126.25,97.898 126.198,97.881C125.53,97.625 124.816,97.538 124.122,97.335C123.05,97.196 121.963,97.298 120.908,97.489C120.206,97.632 119.508,97.819 118.846,98.105C117.507,98.658 116.387,99.612 115.409,100.645C115.065,101.273 114.58,101.814 114.245,102.43C114.22,102.479 114.196,102.528 114.171,102.577C113.936,103.093 113.497,103.536 113.389,104.116C113.219,104.664 113.061,105.228 113.01,105.804C112.944,106.376 112.889,106.956 112.924,107.53C112.94,108.105 113.012,108.684 113.15,109.244C113.267,109.809 113.459,110.361 113.669,110.892C113.703,110.937 113.736,110.982 113.77,111.027C113.862,111.177 113.983,111.271 114.103,111.404C114.229,111.542 114.266,111.656 114.37,111.805C114.471,111.955 114.519,112.062 114.623,112.211C114.725,112.36 114.776,112.467 114.891,112.608C114.996,112.756 115.078,112.838 115.172,112.996C115.198,113.045 115.225,113.095 115.251,113.144C115.367,113.425 115.518,113.717 115.76,113.903C115.963,114.119 116.214,114.317 116.441,114.508C116.667,114.699 116.932,114.877 117.178,115.042C117.432,115.212 117.704,115.351 117.969,115.49C118.248,115.63 118.518,115.747 118.798,115.862C118.875,115.891 118.952,115.919 119.029,115.947C119.201,116.014 119.359,116.062 119.537,116.119C119.7,116.178 119.879,116.217 120.052,116.269C120.301,116.336 120.58,116.396 120.837,116.431C121.103,116.477 121.372,116.488 121.635,116.515C121.69,116.517 121.744,116.519 121.799,116.522C121.97,116.524 122.115,116.543 122.286,116.531C122.458,116.525 122.602,116.523 122.773,116.5C122.944,116.48 123.086,116.478 123.256,116.446C123.426,116.417 123.567,116.408 123.736,116.367C123.905,116.331 124.043,116.309 124.207,116.251C124.259,116.235 124.312,116.218 124.364,116.202C124.748,116.083 125.138,115.983 125.512,115.834C125.884,115.703 126.266,115.505 126.625,115.34C126.988,115.159 127.318,114.92 127.642,114.678C127.958,114.435 128.265,114.139 128.541,113.854C128.806,113.547 129.065,113.24 129.313,112.921C129.361,112.854 129.409,112.788 129.457,112.721C129.85,112.186 130.199,111.587 130.454,110.958C130.69,110.332 130.852,109.654 130.926,108.992C131.019,108.322 131.024,107.632 130.958,106.968C130.888,106.291 130.762,105.625 130.532,104.984C130.3,104.342 130.023,103.722 129.628,103.16C129.263,102.581 128.792,102.085 128.287,101.626C127.765,101.197 127.21,100.791 126.605,100.477C125.979,100.234 125.359,99.922 124.694,99.79C124.029,99.685 123.353,99.491 122.672,99.574C121.992,99.629 121.318,99.722 120.67,99.923C120.012,100.106 119.381,100.361 118.814,100.746C118.24,101.119 117.713,101.534 117.254,102.043C116.935,102.638 116.461,103.131 116.179,103.747C116.017,104.364 115.345,104.874 115.387,105.591C115.282,106.255 115.215,106.943 115.259,107.607C115.308,108.28 115.394,108.963 115.655,109.587C115.923,110.235 116.351,110.716 116.709,111.293C117.202,111.759 117.413,112.431 118.022,112.802C118.554,113.196 119.153,113.532 119.783,113.77C120.72,114.139 121.743,114.3 122.737,114.17C122.791,114.162 122.845,114.154 122.9,114.147C123.603,114.024 124.226,113.855 124.889,113.594C125.863,113.213 126.689,112.547 127.33,111.73C127.777,111.184 128.115,110.588 128.35,109.924C128.567,109.248 128.675,108.586 128.685,107.877C128.688,106.829 128.428,105.817 127.934,104.885C127.906,104.838 127.878,104.791 127.85,104.744C127.484,104.164 127.069,103.588 126.472,103.213C125.981,102.744 125.249,102.549 124.654,102.325C124.009,102.06 123.329,102.006 122.649,101.983C121.932,102.028 121.354,102.291 120.687,102.509C120.117,102.807 119.544,103.248 119.114,103.739C118.819,104.298 118.326,104.851 118.165,105.432C118.149,105.485 118.133,105.537 118.117,105.59C117.87,106.2 117.827,107.055 117.913,107.691C117.922,108.462 118.148,109.128 118.588,109.697C119.053,110.352 119.589,110.614 120.193,111.119C120.745,111.474 121.525,111.773 122.218,111.606C122.829,111.508 123.644,111.329 124.224,111.083C125.252,110.602 125.813,109.648 126.042,108.604C126.046,108.549 126.05,108.494 126.054,108.439C126.093,107.897 125.886,107.093 125.652,106.683C125.378,106.061 125.128,105.605 124.573,105.249C123.984,104.874 123.555,104.804 122.867,104.879C122.511,104.9 121.661,105.141 121.409,105.389C120.783,105.787 120.697,106.062 120.57,106.749C120.491,107.15 120.587,107.78 120.759,108.285C120.815,108.731 121.687,109.18 121.992,109.032C122.758,109.006 122.724,108.911 123.262,108.469C123.571,107.642 123.653,107.554 122.828,107.128C121.993,106.871 122.398,105.557 123.232,105.814C123.932,105.943 124.41,106.167 124.851,107.241C124.995,108.056 124.862,108.807 124.395,109.39C123.997,110.035 123.245,110.273 122.584,110.428C121.86,110.531 121.222,110.232 120.615,109.849C119.899,109.481 119.562,108.952 119.205,108.354C118.865,107.746 118.862,107.003 119.05,106.359C119.213,105.698 119.606,105.14 120.017,104.636C120.419,104.051 121.173,103.679 121.746,103.502C122.382,103.348 123.059,103.303 123.676,103.51C124.315,103.624 124.848,104.008 125.369,104.334C125.829,104.682 126.368,105.227 126.652,105.79C127.056,106.524 127.153,107.653 126.9,108.511C126.884,108.563 126.868,108.616 126.852,108.669C126.639,109.298 126.473,110.007 126.003,110.554C125.514,111.037 125.15,111.57 124.453,111.922C123.882,112.317 123.216,112.535 122.489,112.519C121.742,112.477 121.129,112.302 120.471,112.126C119.769,111.887 119.159,111.624 118.68,111.113C118.198,110.629 117.83,109.969 117.564,109.388C117.348,108.815 116.964,108.072 116.987,107.424C117.054,106.755 117.034,106.066 117.296,105.393C117.316,105.342 117.336,105.291 117.356,105.24C117.618,104.66 117.934,103.882 118.466,103.484C118.971,103.07 119.51,102.519 120.134,102.307C120.688,101.981 121.4,101.728 122.047,101.704C122.691,101.67 123.405,101.565 124.048,101.732C124.686,101.842 125.396,102.01 125.897,102.48C126.768,102.982 127.438,103.75 127.977,104.571C128.006,104.618 128.035,104.665 128.063,104.711C128.437,105.249 128.652,105.924 128.799,106.556C129.023,107.529 128.995,108.562 128.723,109.524C128.454,110.485 127.989,111.39 127.349,112.162C126.931,112.668 126.36,113.08 125.832,113.461C124.992,113.992 124.035,114.424 123.02,114.458C122.965,114.463 122.911,114.469 122.856,114.474C122.157,114.527 121.492,114.453 120.823,114.336C120.139,114.215 119.507,113.978 118.903,113.667C118.271,113.363 117.799,112.884 117.232,112.498C116.623,112.105 116.297,111.499 115.919,110.916C115.665,110.26 115.465,109.63 115.285,108.969C115.116,108.315 115.009,107.65 115.038,106.961C115.053,106.285 115.173,105.617 115.401,104.975C115.417,104.266 115.753,103.663 116.125,103.073C116.366,102.403 117.108,102.113 117.502,101.577C117.986,101.115 118.548,100.713 119.152,100.422C119.744,100.12 120.369,99.827 121.024,99.681C121.673,99.522 122.362,99.455 123.027,99.492C123.69,99.513 124.381,99.542 125.022,99.741C125.677,99.891 126.297,100.196 126.881,100.514C127.476,100.827 128.018,101.242 128.496,101.709C128.994,102.165 129.407,102.697 129.786,103.249C130.148,103.817 130.467,104.41 130.696,105.043C130.936,105.68 131.08,106.337 131.169,107.006C131.236,107.688 131.22,108.357 131.141,109.031C131.025,109.705 130.858,110.352 130.609,110.984C130.356,111.611 130.102,112.23 129.719,112.805C129.672,112.872 129.626,112.94 129.579,113.008C129.335,113.346 129.085,113.688 128.768,113.963C128.49,114.258 128.167,114.538 127.837,114.789C127.51,115.047 127.162,115.278 126.809,115.501C126.482,115.744 126.094,115.927 125.713,116.097C125.327,116.26 124.932,116.411 124.523,116.51C124.469,116.519 124.415,116.528 124.361,116.538C124.208,116.568 124.019,116.593 123.866,116.619C123.712,116.646 123.526,116.675 123.37,116.689C123.215,116.708 123.029,116.726 122.872,116.731C122.715,116.743 122.53,116.742 122.373,116.741C122.215,116.743 122.032,116.746 121.874,116.738C121.819,116.736 121.765,116.734 121.71,116.733C121.524,116.725 121.356,116.706 121.18,116.69C120.995,116.668 120.829,116.639 120.653,116.615C120.47,116.58 120.305,116.551 120.129,116.518C119.949,116.475 119.787,116.441 119.609,116.393C119.435,116.339 119.276,116.296 119.099,116.231C119.022,116.202 118.945,116.173 118.868,116.144C118.565,116.024 118.291,115.906 118.004,115.753C117.448,115.46 116.911,115.113 116.417,114.722C116.166,114.542 115.939,114.31 115.705,114.099C115.484,113.881 115.269,113.65 114.958,113.491C114.915,113.455 114.872,113.42 114.829,113.384C114.687,113.31 114.585,113.118 114.494,113.003C114.407,112.883 114.282,112.712 114.201,112.588C114.116,112.467 114.002,112.287 113.933,112.157C113.863,112.027 113.756,111.844 113.71,111.701C113.662,111.552 113.649,111.34 113.617,111.187C113.605,111.133 113.593,111.078 113.581,111.023C113.361,110.484 113.176,109.918 113.039,109.354C112.916,108.782 112.835,108.203 112.794,107.62C112.779,107.036 112.783,106.445 112.869,105.868C112.971,105.293 113.078,104.718 113.26,104.162C113.491,103.625 113.579,103.028 113.843,102.497C113.869,102.449 113.896,102.401 113.922,102.353C114.277,101.764 114.576,101.143 115.144,100.729C115.595,100.221 116.069,99.744 116.611,99.342C117.162,98.946 117.737,98.606 118.334,98.297C118.935,97.996 119.559,97.751 120.203,97.551C121.174,97.276 122.191,97.15 123.197,97.205C124.186,97.326 125.236,97.259 126.185,97.661C126.237,97.679 126.289,97.696 126.341,97.714C126.488,97.757 126.651,97.824 126.795,97.875C126.937,97.935 127.085,98.03 127.219,98.108C127.358,98.18 127.507,98.254 127.647,98.323C127.789,98.388 127.937,98.468 128.072,98.545C128.21,98.618 128.353,98.707 128.484,98.792C128.53,98.821 128.576,98.851 128.622,98.881C129.018,99.142 129.387,99.442 129.746,99.75C130.097,100.067 130.429,100.405 130.742,100.759C131.047,101.12 131.338,101.492 131.609,101.879C131.875,102.269 132.137,102.666 132.353,103.089C132.578,103.508 132.752,103.952 132.911,104.399C132.928,104.451 132.945,104.503 132.962,104.555C133.051,104.795 133.105,105.057 133.177,105.303C133.236,105.556 133.303,105.81 133.334,106.066C133.379,106.328 133.417,106.574 133.446,106.839C133.472,107.091 133.486,107.363 133.49,107.615C133.493,107.882 133.486,108.13 133.478,108.397C133.475,108.479 133.473,108.561 133.47,108.643C133.465,108.816 133.442,108.974 133.425,109.139C133.414,109.247 133.391,109.363 133.375,109.469C133.357,109.578 133.346,109.682 133.32,109.797C133.285,109.959 133.257,110.117 133.216,110.283C133.196,110.363 133.175,110.443 133.155,110.523C132.983,111.155 132.752,111.783 132.501,112.387C132.439,113.073 131.982,113.632 131.643,114.183C131.372,114.808 130.651,115.106 130.299,115.655C129.847,116.129 129.316,116.551 128.787,116.933C128.212,117.237 127.745,117.788 127.117,118.015C126.524,118.28 125.896,118.606 125.234,118.668C124.602,118.832 123.93,118.965 123.277,119.006C122.285,119.066 121.29,119.037 120.31,118.883C119.669,118.762 118.996,118.649 118.38,118.422C117.764,118.204 117.134,117.941 116.584,117.582C116.013,117.262 115.451,116.894 114.936,116.486C114.421,116.079 113.943,115.609 113.499,115.125C112.983,114.722 112.28,114.38 111.892,113.805C111.421,113.3 111.428,112.482 111.345,111.81C111.259,111.134 110.957,110.548 110.826,109.897C110.665,109.26 110.58,108.606 110.525,107.948C110.474,107.292 110.476,106.634 110.532,105.973C110.599,105.317 110.763,104.678 110.92,104.038C110.941,103.959 110.963,103.879 110.984,103.8C110.997,103.753 111.01,103.705 111.026,103.656C111.062,103.537 111.094,103.419 111.13,103.301C111.151,103.231 111.179,103.156 111.203,103.089C111.222,103.037 111.241,102.986 111.26,102.934C111.325,102.754 111.402,102.574 111.476,102.398C111.563,102.222 111.608,102.035 111.643,101.839C111.684,101.628 111.709,101.451 111.738,101.221C111.803,101.032 111.879,100.874 112,100.69C112.092,100.534 112.205,100.346 112.31,100.188C112.34,100.142 112.369,100.095 112.398,100.049C112.545,99.811 112.702,99.659 112.939,99.495C113.112,99.324 113.445,99.254 113.583,99.059C113.848,98.797 114.095,98.517 114.371,98.269C114.64,98.015 114.916,97.762 115.214,97.539C115.257,97.506 115.3,97.472 115.344,97.439C115.542,97.284 115.742,97.149 115.951,97.008C116.157,96.876 116.37,96.74 116.582,96.618C116.801,96.498 117.017,96.387 117.237,96.266C117.454,96.154 117.679,96.04 117.906,95.947C118.134,95.843 118.361,95.758 118.595,95.668C118.647,95.65 118.699,95.632 118.75,95.614C119.398,95.399 120.06,95.196 120.735,95.079C121.406,94.952 122.098,94.878 122.782,94.896C123.472,94.885 124.152,94.964 124.831,95.054C125.512,95.135 126.224,95.111 126.874,95.391C127.578,95.504 128.081,96.088 128.725,96.319C129.655,96.76 130.511,97.353 131.275,98.04C131.316,98.077 131.357,98.113 131.398,98.15C131.531,98.269 131.648,98.398 131.778,98.516C131.905,98.64 132.024,98.767 132.148,98.892C132.267,99.024 132.385,99.152 132.502,99.284C132.728,99.554 132.94,99.834 133.165,100.105C133.199,100.149 133.233,100.192 133.267,100.235C133.345,100.335 133.421,100.433 133.49,100.542C133.562,100.646 133.633,100.749 133.704,100.855C133.807,101.018 133.907,101.173 134.004,101.341C134.096,101.507 134.197,101.664 134.284,101.837C134.309,101.886 134.334,101.935 134.359,101.983C134.416,102.087 134.467,102.205 134.512,102.314C134.606,102.534 134.701,102.763 134.796,102.982C134.845,103.094 134.887,103.208 134.932,103.32C134.976,103.431 135.022,103.546 135.06,103.661C135.087,103.738 135.115,103.816 135.142,103.893C135.342,104.536 135.544,105.176 135.634,105.842C135.717,106.514 135.794,107.177 135.777,107.849C135.761,108.524 135.748,109.193 135.634,109.855C135.526,110.523 135.381,111.174 135.159,111.809C134.991,112.47 134.598,113.014 134.58,113.754C134.409,114.803 133.832,115.742 132.921,116.31C132.878,116.346 132.835,116.382 132.792,116.417C132.368,116.713 132.097,117.133 131.722,117.464C131.368,117.814 130.985,118.134 130.591,118.436C130.205,118.75 129.78,119.007 129.389,119.32C129.041,119.703 128.673,120.103 128.195,120.286C127.726,120.476 127.292,120.783 126.734,120.722C126.677,120.726 126.621,120.729 126.564,120.732C126.321,120.746 126.118,120.78 125.896,120.841C125.579,120.914 125.252,121.004 124.926,121.069C124.711,121.108 124.495,121.156 124.274,121.185C123.939,121.241 123.622,121.271 123.284,121.293C123.229,121.297 123.175,121.301 123.12,121.305C122.406,121.335 121.707,121.334 120.998,121.273C120.292,121.203 119.596,121.112 118.907,120.924C118.197,120.902 117.464,120.724 116.829,120.425C116.119,120.249 115.664,119.55 115.009,119.303C114.403,118.929 113.82,118.543 113.272,118.086C113.23,118.05 113.189,118.014 113.147,117.979C112.634,117.544 112.14,117.061 111.695,116.557C111.083,116.219 110.501,115.731 109.964,115.269C109.32,114.854 109.352,113.948 109.201,113.293C109.076,112.57 109.077,111.866 108.824,111.239C108.641,110.588 108.453,109.938 108.362,109.268C108.265,108.595 108.206,107.925 108.191,107.247C108.17,106.567 108.213,105.894 108.32,105.221C108.441,104.555 108.58,103.897 108.761,103.243C108.935,102.59 109.155,101.954 109.422,101.328C109.734,100.73 109.779,100.005 109.997,99.304C110.189,98.627 110.774,98.109 111.369,97.737C111.416,97.704 111.462,97.672 111.509,97.64C111.6,97.573 111.714,97.509 111.811,97.456C111.915,97.4 112.013,97.345 112.095,97.264C112.177,97.191 112.262,97.121 112.335,97.039C112.491,96.877 112.645,96.729 112.807,96.574C112.867,96.518 112.927,96.462 112.987,96.406C113.189,96.216 113.394,96.047 113.608,95.872C113.749,95.759 113.885,95.638 114.036,95.534C114.179,95.427 114.332,95.319 114.482,95.22C114.704,95.063 114.942,94.928 115.174,94.785C115.222,94.757 115.269,94.729 115.316,94.702C115.457,94.62 115.601,94.529 115.747,94.457C115.89,94.379 116.043,94.306 116.188,94.232C116.333,94.158 116.484,94.082 116.631,94.012C116.777,93.94 116.931,93.869 117.08,93.805C117.229,93.738 117.386,93.675 117.538,93.616C117.589,93.596 117.64,93.576 117.691,93.556C118.145,93.387 118.605,93.234 119.075,93.118C119.778,92.926 120.485,92.77 121.211,92.684C121.691,92.619 122.177,92.604 122.661,92.607C123.388,92.603 124.113,92.636 124.834,92.738C124.888,92.745 124.942,92.752 124.997,92.759C125.173,92.783 125.344,92.814 125.518,92.842C125.695,92.866 125.873,92.859 126.053,92.859C126.24,92.866 126.413,92.864 126.597,92.866C126.791,92.878 126.96,92.862 127.149,92.894C127.332,92.94 127.481,92.984 127.67,93.047C127.722,93.065 127.774,93.083 127.826,93.1C128.208,93.183 128.48,93.422 128.804,93.637C129.117,93.849 129.381,94.138 129.72,94.264C130.041,94.433 130.364,94.601 130.68,94.779C130.993,94.959 131.306,95.149 131.602,95.36C131.896,95.571 132.184,95.795 132.461,96.031C132.502,96.067 132.544,96.103 132.586,96.138C132.607,96.156 132.627,96.174 132.648,96.192C132.669,96.21 132.69,96.229 132.711,96.248C132.751,96.285 132.792,96.322 132.833,96.359C133.33,96.821 133.816,97.304 134.256,97.82C134.667,98.36 135.155,98.847 135.531,99.417C135.915,99.983 136.28,100.565 136.526,101.204C136.813,101.827 137.044,102.464 137.287,103.101C137.598,104.073 137.899,105.067 137.968,106.094C138.023,106.774 138.062,107.453 138.049,108.139C138.044,108.819 138.015,109.506 137.907,110.181C137.789,110.849 137.674,111.536 137.445,112.176C137.281,112.84 136.933,113.44 136.835,114.136C136.74,114.845 136.483,115.51 136.26,116.181C135.938,116.848 135.328,117.251 134.84,117.748C133.957,118.369 133.353,119.193 132.531,119.826C132.488,119.86 132.445,119.894 132.402,119.928C131.937,120.394 131.278,120.581 130.915,121.214C130.477,121.745 130.011,122.257 129.478,122.772C128.904,123.159 128.13,123.031 127.431,123.1C126.729,123.088 126.066,123.079 125.446,123.312C124.808,123.439 124.171,123.562 123.513,123.593C122.862,123.639 122.213,123.631 121.562,123.604C120.909,123.578 120.265,123.503 119.622,123.411C118.99,123.23 118.326,123.262 117.66,123.197C116.986,123.104 116.285,123.11 115.705,122.76C115.111,122.391 114.606,121.962 114.093,121.537C113.618,121.057 113.024,120.786 112.513,120.382C111.974,120.025 111.487,119.575 111.012,119.139C110.546,118.69 110.12,118.196 109.48,117.881C108.958,117.498 108.274,117.082 107.924,116.532C107.627,115.94 107.291,115.324 107.029,114.707C106.793,114.079 106.717,113.387 106.653,112.703C106.648,112.617 106.642,112.532 106.637,112.447C106.628,112.321 106.623,112.19 106.618,112.067C106.61,111.944 106.614,111.816 106.575,111.7C106.548,111.582 106.512,111.468 106.479,111.351C106.448,111.232 106.42,111.116 106.39,110.999C106.357,110.885 106.332,110.762 106.304,110.646C106.291,110.593 106.278,110.539 106.265,110.486C106.094,109.815 106.032,109.13 105.958,108.446C105.903,107.755 105.873,107.074 105.891,106.378C105.899,105.687 106.028,105.009 106.144,104.327C106.259,103.649 106.47,102.989 106.639,102.324C106.812,101.661 107.069,101.013 107.326,100.378C107.497,99.709 107.634,98.977 107.845,98.292C107.948,97.487 108.479,96.995 109.067,96.556C109.639,96.073 110.279,95.743 110.817,95.295C111.313,94.819 111.812,94.347 112.362,93.926C112.406,93.893 112.449,93.86 112.493,93.826C112.56,93.778 112.619,93.724 112.692,93.677C112.76,93.631 112.825,93.579 112.89,93.53C112.959,93.483 113.015,93.426 113.084,93.372C113.148,93.32 113.208,93.263 113.276,93.215C113.344,93.168 113.405,93.119 113.483,93.075C113.553,93.033 113.624,92.991 113.695,92.949C113.742,92.921 113.789,92.893 113.836,92.864C113.885,92.834 113.933,92.807 113.981,92.78C114.077,92.727 114.171,92.671 114.265,92.614C114.315,92.587 114.364,92.559 114.411,92.533C114.459,92.506 114.506,92.478 114.554,92.451C114.687,92.371 114.839,92.297 114.977,92.225C115.113,92.148 115.274,92.097 115.421,92.042C115.568,91.982 115.718,91.919 115.859,91.848C115.999,91.777 116.15,91.712 116.294,91.648C116.436,91.581 116.589,91.521 116.736,91.466C116.787,91.446 116.839,91.427 116.89,91.407C118.142,90.927 119.458,90.629 120.779,90.423C121.448,90.337 122.115,90.302 122.786,90.31C123.458,90.313 124.125,90.332 124.792,90.409C125.471,90.447 126.083,90.74 126.82,90.545C127.522,90.541 128.251,90.42 128.915,90.727C129.489,91.158 130.04,91.591 130.574,92.047C131.128,92.436 131.721,92.738 132.289,93.096C133.146,93.619 133.958,94.224 134.677,94.927C135.156,95.393 135.639,95.86 136.066,96.377C136.437,96.932 137.026,97.328 137.487,97.835C137.521,97.879 137.554,97.922 137.587,97.966C137.941,98.47 138.3,99.001 138.436,99.618C138.572,100.239 138.895,100.755 139.092,101.342C139.298,101.917 139.497,102.493 139.683,103.075C139.855,103.665 140.032,104.251 140.139,104.855C140.238,105.458 140.296,106.074 140.311,106.685C140.315,106.768 140.318,106.85 140.322,106.932C140.346,107.561 140.343,108.189 140.335,108.816C140.332,109.237 140.281,109.654 140.247,110.073C140.199,110.484 140.137,110.903 140.051,111.314C139.938,111.929 139.744,112.541 139.552,113.133C139.536,113.186 139.52,113.238 139.504,113.291C139.417,113.594 139.286,113.88 139.22,114.19C139.168,114.515 139.149,114.829 139.071,115.154C139.007,115.494 138.964,115.787 138.842,116.109C138.734,116.443 138.671,116.721 138.46,117.004C138.278,117.267 138.129,117.549 137.926,117.815C137.893,117.86 137.861,117.904 137.829,117.949C137.813,117.971 137.797,117.993 137.781,118.016C137.749,118.064 137.696,118.146 137.659,118.2C137.636,118.234 137.613,118.269 137.59,118.303C137.559,118.348 137.529,118.394 137.498,118.439C137.125,119.021 136.564,119.414 136.053,119.841C135.512,120.248 134.994,120.65 134.536,121.112C134.05,121.545 133.528,121.944 133.047,122.385C132.658,122.931 132.153,123.44 131.672,123.914C131.226,124.432 130.473,124.602 129.923,124.939C129.315,125.152 128.654,125.516 127.958,125.45C127.274,125.476 126.584,125.499 125.928,125.522C125.291,125.658 124.646,125.759 123.995,125.835C123.346,125.914 122.696,125.937 122.038,125.918C121.384,125.93 120.738,125.859 120.085,125.787C119.12,125.659 118.102,125.742 117.097,125.599C117.042,125.592 116.987,125.585 116.932,125.578C116.399,125.471 115.893,125.272 115.375,125.111C114.87,124.916 114.358,124.731 113.869,124.494C113.359,124.301 112.974,123.852 112.546,123.517C112.127,123.155 111.786,122.721 111.36,122.406C110.91,122.124 110.506,121.777 110.104,121.433C110.063,121.397 110.021,121.361 109.98,121.325C109.465,120.911 109.122,120.346 108.479,120.057C107.915,119.692 107.29,119.321 106.778,118.878C106.321,118.409 105.992,117.737 105.684,117.173C105.329,116.63 105.13,115.909 104.782,115.365C104.452,114.811 104.157,114.126 104.161,113.448C104.156,113.392 104.152,113.336 104.147,113.279C104.043,112.531 104.292,111.758 104.042,111.094C103.876,110.41 103.773,109.718 103.694,109.017C103.591,108.324 103.605,107.61 103.583,106.912C103.573,106.21 103.726,105.511 103.664,104.801C103.694,104.085 103.839,103.399 104.047,102.719C104.421,102.085 104.491,101.387 104.744,100.725C104.763,100.673 104.781,100.622 104.8,100.57C104.924,100.266 105.008,99.957 105.146,99.659C105.311,99.371 105.287,99.018 105.365,98.681C105.445,98.337 105.504,98.032 105.604,97.687C105.718,97.341 105.748,97.03 105.907,96.7C106.104,96.389 106.282,96.176 106.476,95.864C106.506,95.818 106.536,95.772 106.566,95.727C106.754,95.419 107.017,95.129 107.196,94.853C107.394,94.546 107.792,94.383 108.055,94.167C108.353,93.956 108.679,93.764 108.982,93.574C109.27,93.372 109.692,93.302 109.877,92.995C110.122,92.754 110.403,92.541 110.664,92.312C110.706,92.277 110.748,92.241 110.789,92.205C110.905,92.102 111.043,92.002 111.165,91.906C111.289,91.814 111.421,91.705 111.541,91.606C111.662,91.511 111.793,91.397 111.896,91.275C111.999,91.158 112.135,91.035 112.24,90.918C112.338,90.798 112.489,90.68 112.602,90.581C112.644,90.545 112.687,90.51 112.73,90.475C113.333,90.062 113.986,89.796 114.73,89.709C115.445,89.583 116.03,89.187 116.718,89.011C117.377,88.778 118.067,88.631 118.741,88.447C119.765,88.214 120.812,88.089 121.86,88.031C122.563,87.986 123.258,88.014 123.959,88.045C125.042,87.984 125.973,88.5 127.145,88.146C127.203,88.137 127.261,88.129 127.319,88.12C128.036,88.011 128.752,87.967 129.337,88.334C129.965,88.585 130.54,88.999 131.072,89.4C131.63,89.759 132.133,90.249 132.662,90.613C133.216,90.949 133.757,91.313 134.302,91.664C134.829,92.037 135.352,92.435 135.844,92.856C135.885,92.892 135.926,92.929 135.966,92.965C136.49,93.41 136.935,93.927 137.416,94.409C137.823,94.965 138.383,95.369 138.934,95.829C139.434,96.326 140.053,96.732 140.266,97.451C140.494,98.123 140.711,98.782 140.889,99.465C141.079,100.127 141.365,100.75 141.571,101.401C141.768,102.05 142.01,102.699 142.168,103.361C142.348,104.016 142.469,104.704 142.544,105.378C142.627,106.061 142.652,106.744 142.671,107.426C142.599,108.109 143.013,108.806 142.793,109.488C142.828,110.198 142.525,110.843 142.359,111.513C142.228,112.54 141.813,113.486 141.634,114.508L141.607,114.76C141.603,114.788 141.6,114.816 141.596,114.843C141.591,114.873 141.585,114.903 141.58,114.933C141.571,114.988 141.562,115.043 141.554,115.099C141.545,115.154 141.537,115.21 141.529,115.265C141.385,115.956 141.32,116.672 140.949,117.26C140.65,117.912 140.346,118.51 140.003,119.114C139.627,119.735 139.109,120.179 138.651,120.709C138.173,121.226 137.668,121.668 137.138,122.126C136.596,122.552 136.012,122.906 135.508,123.364C134.869,124.178 134.173,124.987 133.335,125.615C133.291,125.647 133.246,125.68 133.202,125.712C132.671,126.084 132.06,126.508 131.476,126.799C130.875,127.061 130.149,127.228 129.541,127.447C128.91,127.606 128.274,128.013 127.618,128.092C126.947,128.138 126.209,128.059 125.551,128.02C124.878,127.966 124.231,128.103 123.582,128.237C122.941,128.367 122.253,128.481 121.594,128.568C120.941,128.589 120.237,128.521 119.587,128.451C118.941,128.347 118.245,128.279 117.602,128.122C116.961,127.976 116.284,127.832 115.655,127.61C115.027,127.399 114.403,127.127 113.782,126.872C113.168,126.617 112.556,126.348 111.922,126.084C111.322,125.787 110.737,125.463 110.218,125C109.792,124.441 109.185,124.158 108.795,123.559C108.269,123.154 107.612,122.915 107.11,122.43C106.493,122.09 106.16,121.5 105.729,120.956C105.328,120.414 104.734,120.054 104.316,119.474C103.855,118.961 103.544,118.382 103.251,117.73C102.973,117.106 102.681,116.527 102.37,115.887C102.075,115.274 101.843,114.663 101.652,113.978C101.64,113.924 101.628,113.87 101.617,113.816C101.448,113.165 101.545,112.378 101.563,111.706C101.594,111.011 101.621,110.326 101.473,109.676C101.356,108.68 101.278,107.677 101.302,106.672C101.368,106.01 101.256,105.327 101.127,104.635C101.095,103.965 100.639,103.148 101.22,102.575C101.515,101.924 102.015,101.362 102.313,100.758C102.474,100.103 102.779,99.506 102.949,98.854C103.089,98.179 103.203,97.49 103.36,96.802C103.534,96.086 103.94,95.546 104.311,94.968C104.725,94.382 105.179,93.895 105.592,93.345C106.088,92.834 106.406,92.228 107.073,91.906C107.687,91.533 108.298,91.224 108.845,90.825C109.679,90.268 110.237,89.335 111.054,88.69C111.098,88.656 111.141,88.623 111.185,88.589C111.658,88.111 112.335,87.844 112.95,87.616C113.592,87.424 114.26,87.236 114.92,87.13C115.569,86.986 116.184,86.742 116.823,86.588C117.413,86.282 118.02,85.932 118.662,85.723C119.284,85.431 120.018,85.699 120.678,85.719C121.349,85.829 121.996,85.681 122.657,85.713C123.313,85.712 123.973,85.685 124.629,85.765C125.278,85.887 125.947,85.762 126.626,85.786C127.3,85.787 127.994,85.689 128.648,85.936C129.317,86.048 129.919,86.317 130.579,86.53C131.212,86.76 131.806,87.035 132.427,87.342C132.998,87.704 133.481,88.204 134.017,88.61C134.497,89.091 135.096,89.363 135.626,89.764C136.129,90.19 136.711,90.504 137.208,90.947C137.706,91.378 138.221,91.79 138.631,92.319C138.985,92.89 139.646,93.161 140.134,93.64C140.636,94.09 141.287,94.422 141.597,95.061C142.012,95.597 142.318,96.176 142.671,96.779C143.009,97.364 143.115,98.052 143.294,98.714C143.401,99.394 143.549,100.036 143.782,100.656C143.923,101.305 144.266,101.876 144.606,102.488C144.976,103.091 145.136,103.74 145.059,104.441C145.039,105.128 144.848,105.801 144.964,106.456C144.934,107.119 145.237,107.764 145.302,108.441C145.427,109.124 145.491,109.793 145.354,110.462C145.284,111.479 144.697,112.4 144.489,113.366C144.466,114.058 144.284,114.693 144.133,115.347C143.874,115.988 143.538,116.551 143.428,117.234C143.222,117.899 143.079,118.567 142.635,119.097C142.288,119.676 141.699,120.184 141.461,120.653C141.045,121.178 140.796,121.836 140.375,122.354C139.967,122.887 139.64,123.523 139.119,123.949C138.569,124.348 138.182,124.952 137.598,125.294C137.041,125.663 136.581,126.212 135.949,126.467C135.367,126.786 134.86,127.284 134.273,127.588C133.71,127.921 133.095,128.275 132.479,128.503C131.931,128.87 131.239,129.057 130.693,129.451C130.137,129.82 129.421,129.98 128.841,130.317C128.225,130.534 127.499,130.694 126.862,130.831C126.205,130.898 125.457,130.828 124.811,130.878C124.157,130.862 123.457,131.145 122.799,131.184C122.15,131.28 121.409,131.234 120.764,131.141C120.11,131.04 119.42,130.748 118.785,130.621C118.158,130.387 117.466,130.33 116.824,130.197C116.196,130.015 115.511,129.875 114.892,129.664C114.84,129.647 114.788,129.629 114.736,129.612C114.038,129.381 113.399,129.111 112.712,128.861C112.033,128.602 111.396,128.313 110.754,127.948C110.129,127.623 109.535,127.15 108.951,126.764C108.38,126.325 107.778,125.926 107.213,125.492C106.617,125.05 106.07,124.63 105.507,124.137C104.953,123.681 104.511,123.091 104.047,122.535C104.013,122.492 103.979,122.449 103.945,122.406C103.491,121.847 103.12,121.281 102.639,120.765C102.176,120.201 101.76,119.673 101.377,119.058C101.023,118.432 100.722,117.838 100.362,117.192C99.995,116.582 99.793,115.927 99.594,115.218C99.414,114.554 99.272,113.831 99.055,113.174C99.039,113.121 99.024,113.069 99.009,113.016C98.828,112.341 98.716,111.694 98.627,111.027C98.547,110.346 98.505,109.676 98.456,109.012C98.42,108.341 98.418,107.656 98.416,106.996C98.459,106.335 98.475,105.638 98.526,104.984C98.592,104.339 98.61,103.618 98.748,102.981C98.87,102.346 98.905,101.611 99.175,101.009C99.462,100.407 99.828,99.784 100.247,99.25C100.408,98.619 100.608,97.966 100.728,97.303C100.716,96.584 101.245,96.046 101.415,95.402C101.44,95.353 101.464,95.304 101.489,95.255C101.808,94.625 102.155,94.064 102.563,93.517C102.995,92.958 103.423,92.459 103.846,91.928C104.306,91.401 104.719,90.887 105.188,90.396C105.701,89.919 106.14,89.427 106.64,88.966C107.138,88.471 107.632,88.03 108.199,87.651C108.768,87.234 109.39,86.982 109.953,86.607C110.554,86.257 111.106,85.895 111.71,85.588C112.327,85.262 112.912,84.954 113.553,84.729C114.194,84.451 114.848,84.323 115.495,84.128C116.146,83.891 116.776,83.697 117.422,83.489C118.088,83.263 118.745,83.181 119.417,83.087C120.103,82.918 120.783,83.095 121.455,83.045C122.144,82.998 122.8,83.037 123.479,82.914C124.175,82.868 124.831,82.932 125.516,82.949C126.219,82.938 126.868,83.06 127.544,83.189C128.229,83.324 128.845,83.574 129.508,83.749C130.163,83.971 130.789,84.167 131.442,84.383C132.096,84.603 132.7,84.862 133.329,85.147C133.92,85.502 134.538,85.736 135.107,86.134C135.622,86.604 136.159,86.989 136.648,87.475C137.149,87.927 137.846,88.08 138.434,88.452C139.058,88.763 139.585,89.165 140.083,89.66C140.572,90.135 141.04,90.598 141.491,91.138C141.527,91.179 141.563,91.22 141.599,91.262C142.042,91.738 142.482,92.28 142.873,92.808C143.255,93.345 143.625,93.906 143.981,94.476C144.498,95.333 145.011,96.193 145.461,97.09C145.74,97.697 146.031,98.275 146.249,98.933C146.448,99.572 146.684,100.173 146.87,100.839C146.886,100.892 146.903,100.944 146.919,100.996C146.967,101.135 147.007,101.347 147.054,101.487C147.098,101.626 147.173,101.831 147.207,101.973C147.244,102.114 147.293,102.326 147.326,102.468C147.362,102.61 147.404,102.823 147.432,102.967C147.463,103.109 147.504,103.323 147.531,103.466C147.541,103.52 147.551,103.574 147.561,103.628C147.704,104.324 147.698,104.99 147.818,105.664C147.888,106.369 147.921,107.029 147.954,107.714C147.949,108.424 147.936,109.084 147.88,109.768C147.817,110.474 147.802,111.14 147.594,111.802C147.462,112.497 147.239,113.125 147.049,113.779C146.892,114.462 146.648,115.077 146.481,115.738C146.231,116.388 146.095,117.041 145.781,117.655C145.494,118.289 145.134,118.844 144.874,119.482C144.595,120.114 144.394,120.757 144.043,121.363C143.641,121.929 143.106,122.365 142.65,122.885C142.186,123.386 141.773,123.896 141.359,124.45C141.322,124.491 141.285,124.531 141.248,124.572C140.971,124.87 140.698,125.159 140.431,125.455C140.166,125.761 139.857,126.025 139.565,126.304C139.277,126.588 138.982,126.843 138.67,127.109C138.061,127.661 137.419,128.102 136.745,128.568C136.7,128.599 136.654,128.63 136.609,128.66C136.183,128.956 135.775,129.284 135.322,129.541C134.875,129.807 134.435,130.084 133.947,130.282C133.476,130.511 132.965,130.641 132.555,131.002C132.102,131.276 131.641,131.523 131.179,131.79C130.747,132.143 130.189,132.142 129.709,132.366C129.657,132.384 129.606,132.402 129.554,132.42C129.502,132.437 129.45,132.456 129.399,132.476C129.152,132.543 128.976,132.583 128.727,132.641C128.674,132.655 128.621,132.668 128.568,132.681C127.938,132.844 127.225,132.978 126.578,133.049C125.928,133.131 125.205,133.094 124.556,133.114C123.903,133.089 123.214,133.34 122.558,133.445C121.914,133.583 121.174,133.627 120.529,133.52C119.879,133.472 119.161,133.322 118.53,133.161C117.884,133.046 117.221,132.734 116.572,132.669C115.929,132.559 115.214,132.497 114.595,132.266C113.972,132.048 113.357,131.706 112.762,131.418C112.154,131.162 111.527,130.907 110.931,130.607C110.337,130.315 109.742,130.01 109.167,129.661C108.564,129.374 108.023,128.99 107.464,128.606C106.88,128.272 106.474,127.724 105.906,127.348C105.393,126.923 104.861,126.544 104.337,126.099C103.835,125.656 103.363,125.206 102.903,124.692C102.438,124.208 102.037,123.694 101.597,123.162C101.191,122.628 100.801,122.108 100.395,121.545C99.855,120.696 99.297,119.851 98.858,118.941C98.821,118.867 98.783,118.794 98.746,118.721C98.695,118.625 98.618,118.467 98.569,118.37C98.508,118.253 98.462,118.155 98.395,118.017C98.34,117.903 98.283,117.791 98.226,117.678C98.162,117.537 98.117,117.439 98.063,117.319C98.017,117.221 97.951,117.056 97.909,116.957C97.887,116.906 97.866,116.856 97.845,116.805C97.834,116.78 97.823,116.754 97.813,116.729C97.801,116.699 97.789,116.668 97.777,116.638C97.747,116.561 97.718,116.484 97.689,116.407C97.671,116.361 97.653,116.315 97.636,116.269C97.624,116.238 97.61,116.197 97.597,116.161C97.58,116.109 97.562,116.057 97.545,116.005C97.502,115.868 97.431,115.679 97.396,115.535C97.306,115.211 97.245,114.909 97.18,114.572C97.118,114.26 97.049,113.935 96.969,113.613C96.956,113.56 96.943,113.507 96.93,113.453C96.877,113.238 96.836,113.019 96.787,112.815C96.738,112.578 96.689,112.401 96.632,112.165C96.583,111.969 96.529,111.727 96.502,111.523C96.442,111.086 96.395,110.647 96.343,110.21C96.332,110.101 96.32,109.991 96.309,109.882C96.253,109.184 96.186,108.524 96.165,107.843C96.146,107.141 96.149,106.479 96.177,105.797C96.246,104.774 96.457,103.769 96.59,102.759C96.683,102.067 96.785,101.411 96.941,100.746C97.092,100.06 97.283,99.429 97.472,98.766C97.612,98.073 98.002,97.515 98.216,96.855C98.506,96.225 98.807,95.64 99.09,95C99.394,94.383 99.737,93.819 100.107,93.222C100.136,93.175 100.165,93.129 100.194,93.082C100.318,92.866 100.481,92.628 100.623,92.417C100.773,92.2 100.921,91.971 101.068,91.759C101.231,91.526 101.359,91.335 101.524,91.101C101.663,90.904 101.845,90.66 101.979,90.458C102.143,90.218 102.282,90.044 102.456,89.811C102.506,89.745 102.556,89.68 102.606,89.614C102.636,89.575 102.665,89.536 102.705,89.487C102.771,89.406 102.828,89.33 102.895,89.256C102.929,89.218 102.959,89.184 102.996,89.143C103.039,89.096 103.073,89.062 103.107,89.027C103.145,88.987 103.182,88.947 103.22,88.907C103.403,88.713 103.555,88.561 103.761,88.398C103.898,88.295 104.011,88.203 104.151,88.097C104.293,87.995 104.411,87.907 104.548,87.807C104.762,87.658 104.941,87.529 105.143,87.366C105.186,87.331 105.229,87.297 105.272,87.263C105.836,86.849 106.246,86.3 106.755,85.835C107.296,85.374 107.857,85.012 108.472,84.701C109.117,84.402 109.666,84.028 110.283,83.73C110.916,83.424 111.504,83.123 112.149,82.874C112.806,82.644 113.416,82.391 114.069,82.156C114.714,81.916 115.324,81.652 116.003,81.467C116.056,81.452 116.109,81.438 116.162,81.423C116.818,81.243 117.539,81.077 118.209,80.957C118.89,80.845 119.609,80.742 120.292,80.685C121.008,80.629 121.688,80.568 122.388,80.57C123.109,80.563 123.781,80.521 124.5,80.537C125.212,80.519 125.886,80.595 126.605,80.698C127.644,80.875 128.676,81.094 129.684,81.392C129.737,81.406 129.791,81.419 129.844,81.432C130.261,81.516 130.641,81.73 131.056,81.818C131.483,81.924 131.849,82.033 132.265,82.175C132.676,82.284 133.113,82.34 133.507,82.508C133.922,82.675 134.253,82.847 134.677,82.994C135.065,83.177 135.425,83.412 135.809,83.6C135.858,83.625 135.907,83.65 135.956,83.675C136.573,83.935 137.149,84.402 137.669,84.815C138.217,85.214 138.765,85.655 139.321,86.028C139.906,86.395 140.342,86.95 140.872,87.364C141.383,87.831 141.915,88.251 142.398,88.728C142.923,89.202 143.288,89.766 143.751,90.266C144.233,90.78 144.602,91.333 145.03,91.866C145.431,92.445 145.791,93.001 146.141,93.587C146.498,94.193 146.825,94.769 147.134,95.378C147.469,95.997 147.758,96.591 148.026,97.225C148.304,97.869 148.518,98.493 148.741,99.149C149.005,99.795 148.975,100.497 149.036,101.189C149.064,101.883 149.047,102.56 149.201,103.218C149.216,103.894 149.585,104.503 149.771,105.18C149.983,105.84 150.228,106.49 150.219,107.2C150.202,107.884 149.902,108.549 149.823,109.233C149.64,110.224 150.207,111.318 149.838,112.31C149.821,112.391 149.804,112.472 149.787,112.552C149.781,112.579 149.776,112.606 149.77,112.633C149.763,112.664 149.756,112.695 149.749,112.727C149.736,112.78 149.723,112.834 149.71,112.887C149.675,113.024 149.639,113.197 149.601,113.341C149.578,113.428 149.556,113.516 149.533,113.604C149.518,113.645 149.504,113.655 149.492,113.667C149.298,114.537 147.927,114.232 148.121,113.361Z" style="fill-rule:nonzero;"/>
    </g>
</svg>
