<?xml version="1.0" encoding="UTF-8" standalone="no"?>
<svg
   id="b"
   width="20"
   height="16"
   viewBox="0 0 20 16"
   version="1.1"
   sodipodi:docname="view-controls.svg"
   inkscape:version="1.3.1 (91b66b0, 2023-11-16)"
   xml:space="preserve"
   xmlns:inkscape="http://www.inkscape.org/namespaces/inkscape"
   xmlns:sodipodi="http://sodipodi.sourceforge.net/DTD/sodipodi-0.dtd"
   xmlns="http://www.w3.org/2000/svg"
   xmlns:svg="http://www.w3.org/2000/svg"><sodipodi:namedview
     id="namedview3"
     pagecolor="#ffffff"
     bordercolor="#000000"
     borderopacity="0.25"
     inkscape:showpageshadow="2"
     inkscape:pageopacity="0.0"
     inkscape:pagecheckerboard="0"
     inkscape:deskcolor="#d1d1d1"
     inkscape:zoom="14.75"
     inkscape:cx="6"
     inkscape:cy="8.5423729"
     inkscape:window-width="1312"
     inkscape:window-height="605"
     inkscape:window-x="42"
     inkscape:window-y="249"
     inkscape:window-maximized="0"
     inkscape:current-layer="b" /><defs
     id="defs1"><style
       id="style1">.e{stroke:#000;stroke-linecap:round;stroke-linejoin:round;}.e,.f{fill:none;}.f{opacity:.2;stroke-width:0px;}</style><clipPath
       clipPathUnits="userSpaceOnUse"
       id="clipPath3761"><path
         d="M 0,1205.777 H 2738.234 V 0 H 0 Z"
         transform="translate(-1062.36,-340.07301)"
         id="path3761" /></clipPath><clipPath
       clipPathUnits="userSpaceOnUse"
       id="clipPath3763"><path
         d="M 0,1205.777 H 2738.234 V 0 H 0 Z"
         transform="translate(-1062.2632,-337.60821)"
         id="path3763" /></clipPath><clipPath
       clipPathUnits="userSpaceOnUse"
       id="clipPath3765"><path
         d="M 0,1205.777 H 2738.234 V 0 H 0 Z"
         transform="translate(-1062.2632,-335.39121)"
         id="path3765" /></clipPath><clipPath
       clipPathUnits="userSpaceOnUse"
       id="clipPath3767"><path
         d="M 0,1205.777 H 2738.234 V 0 H 0 Z"
         transform="translate(-1062.4291,-333.34101)"
         id="path3767" /></clipPath><clipPath
       clipPathUnits="userSpaceOnUse"
       id="clipPath3769"><path
         d="M 0,1205.777 H 2738.234 V 0 H 0 Z"
         transform="translate(-1062.9171,-331.61488)"
         id="path3769" /></clipPath><clipPath
       clipPathUnits="userSpaceOnUse"
       id="clipPath3771"><path
         d="M 0,1205.777 H 2738.234 V 0 H 0 Z"
         transform="translate(-1063.7688,-330.25498)"
         id="path3771" /></clipPath><clipPath
       clipPathUnits="userSpaceOnUse"
       id="clipPath3773"><path
         d="M 0,1205.777 H 2738.234 V 0 H 0 Z"
         transform="translate(-1064.9308,-329.20708)"
         id="path3773" /></clipPath><clipPath
       clipPathUnits="userSpaceOnUse"
       id="clipPath3775"><path
         d="M 0,1205.777 H 2738.234 V 0 H 0 Z"
         transform="translate(-1066.5945,-328.66393)"
         id="path3775" /></clipPath><clipPath
       clipPathUnits="userSpaceOnUse"
       id="clipPath3777"><path
         d="M 0,1205.777 H 2738.234 V 0 H 0 Z"
         transform="translate(-1069.0444,-328.91211)"
         id="path3777" /></clipPath></defs><g
     id="g1"
     transform="translate(0.0128812,-0.1088642)"><path
       d="m 5.5581186,1.7118644 c -1.058,0 -1.931,0.903 -1.931,2.036 v 3.999 c 0,3.7399996 2.856,6.7589996 6.36,6.7589996 3.5030004,0 6.3600004,-3.019 6.3600004,-6.7589996 0,0 0,-3.999 0,-3.999 0,-1.133 -0.874,-2.036 -1.932,-2.036 z m 0,0.909 h 8.8570004 c 0.574,0 1.024,0.512 1.024,1.127 v 3.999 c 0,3.2229996 -2.433,5.8499996 -5.4520004,5.8499996 -3.019,0 -5.452,-2.627 -5.452,-5.8499996 0,0 0,-3.999 0,-3.999 0,-0.615 0.449,-1.127 1.023,-1.127 z"
       id="path1"
       style="clip-rule:evenodd;fill-rule:evenodd;stroke-linejoin:round;stroke-miterlimit:2" /><path
       d="m 5.7111186,4.6458644 0.972,-0.978 c 0.133,-0.133 0.132,-0.349 -0.001,-0.481 -0.133,-0.133 -0.349,-0.132 -0.482,10e-4 l -0.972,0.978 c -0.133,0.133 -0.132,0.349 10e-4,0.481 0.134,0.133 0.35,0.132 0.482,-0.001 z"
       id="path2"
       style="clip-rule:evenodd;fill-rule:evenodd;stroke-linejoin:round;stroke-miterlimit:2" /><path
       d="m 5.7111186,6.6598644 2.974,-2.992 c 0.133,-0.133 0.132,-0.349 -10e-4,-0.481 -0.134,-0.133 -0.35,-0.132 -0.482,10e-4 l -2.974,2.992 c -0.133,0.133 -0.132,0.349 10e-4,0.482 0.134,0.132 0.35,0.132 0.482,-0.002 z"
       id="path3"
       style="clip-rule:evenodd;fill-rule:evenodd;stroke-linejoin:round;stroke-miterlimit:2" /><path
       d="m 5.8621186,8.5228644 4.8000004,-4.829 c 0.133,-0.133 0.132,-0.349 -0.001,-0.482 -0.134,-0.132 -0.35,-0.132 -0.482,0.002 l -4.8000004,4.829 c -0.133,0.133 -0.132,0.349 0.001,0.482 0.134,0.132 0.349,0.132 0.482,-0.002 z"
       id="path4"
       style="clip-rule:evenodd;fill-rule:evenodd;stroke-linejoin:round;stroke-miterlimit:2" /><path
       d="M 6.3051186,10.091864 12.664119,3.6938644 c 0.132,-0.133 0.132,-0.349 -0.002,-0.482 -0.133,-0.132 -0.349,-0.132 -0.482,0.002 l -6.3580004,6.397 c -0.133,0.134 -0.132,0.349 0.002,0.4819996 0.133,0.133 0.349,0.132 0.481,-0.001 z"
       id="path5"
       style="clip-rule:evenodd;fill-rule:evenodd;stroke-linejoin:round;stroke-miterlimit:2" /><path
       d="M 7.0791186,11.326864 14.666119,3.6938644 c 0.133,-0.133 0.132,-0.349 -10e-4,-0.482 -0.134,-0.132 -0.35,-0.132 -0.482,0.002 L 6.5961186,10.846864 c -0.133,0.133 -0.132,0.349 0.001,0.482 0.134,0.132 0.35,0.132 0.482,-0.002 z"
       id="path6"
       style="clip-rule:evenodd;fill-rule:evenodd;stroke-linejoin:round;stroke-miterlimit:2" /><path
       d="M 8.1351186,12.278864 14.851119,5.5218644 c 0.133,-0.133 0.132,-0.349 -0.001,-0.482 -0.133,-0.132 -0.349,-0.132 -0.482,0.002 L 7.6521186,11.798864 c -0.133,0.133 -0.132,0.349 0.001,0.482 0.134,0.132 0.349,0.132 0.482,-0.002 z"
       id="path7"
       style="clip-rule:evenodd;fill-rule:evenodd;stroke-linejoin:round;stroke-miterlimit:2" /><path
       d="M 9.6471186,12.772864 14.851119,7.5368644 c 0.133,-0.134 0.132,-0.35 -0.001,-0.482 -0.134,-0.133 -0.35,-0.132 -0.482,0.001 L 9.1631186,12.291864 c -0.132,0.134 -0.132,0.35 0.002,0.482 0.133,0.133 0.349,0.132 0.482,-10e-4 z"
       id="path8"
       style="clip-rule:evenodd;fill-rule:evenodd;stroke-linejoin:round;stroke-miterlimit:2" /><path
       d="m 11.873119,12.546864 2.65,-2.6659996 c 0.133,-0.134 0.132,-0.35 -10e-4,-0.482 -0.134,-0.133 -0.35,-0.132 -0.482,10e-4 l -2.651,2.6669996 c -0.132,0.133 -0.132,0.349 0.002,0.482 0.133,0.132 0.349,0.132 0.482,-0.002 z"
       id="path9"
       style="clip-rule:evenodd;fill-rule:evenodd;stroke-linejoin:round;stroke-miterlimit:2" /></g></svg>
